<svg width="32" height="32" viewBox="0 0 32 32" fill="none" xmlns="http://www.w3.org/2000/svg">
<path d="M24 3.2H8L6.4 12.8H25.6L24 3.2ZM0 16C0 16 3.2 17.6 16 17.6C28.8 17.6 32 16 32 16L25.6 12.8H6.4L0 16ZM12.8 22.4H19.2V24H12.8V22.4Z" fill="black"/>
<path d="M9.5998 28.8C12.2508 28.8 14.3998 26.651 14.3998 24C14.3998 21.349 12.2508 19.2 9.5998 19.2C6.94884 19.2 4.7998 21.349 4.7998 24C4.7998 26.651 6.94884 28.8 9.5998 28.8Z" fill="black"/>
<path d="M22.4001 28.8C25.0511 28.8 27.2001 26.651 27.2001 24C27.2001 21.349 25.0511 19.2 22.4001 19.2C19.7491 19.2 17.6001 21.349 17.6001 24C17.6001 26.651 19.7491 28.8 22.4001 28.8Z" fill="black"/>
</svg>
