<svg width="628" height="460" viewBox="0 0 628 460" fill="none" xmlns="http://www.w3.org/2000/svg">
<rect x="0.5" y="0.5" width="627" height="459" rx="7.5" stroke="black" stroke-opacity="0.5"/>
<rect width="628" height="316" fill="#FF8130"/>
<rect x="233.696" y="63.6957" width="158.609" height="161.391" rx="10.4348" fill="white"/>
<rect x="233.696" y="63.6957" width="158.609" height="161.391" rx="10.4348" stroke="black" stroke-width="1.3913"/>
<path fill-rule="evenodd" clip-rule="evenodd" d="M312.976 178.68L312.938 178.687L312.691 178.809L312.621 178.822L312.573 178.809L312.326 178.687C312.288 178.675 312.261 178.681 312.242 178.704L312.228 178.739L312.169 180.228L312.186 180.297L312.221 180.342L312.583 180.6L312.635 180.614L312.677 180.6L313.039 180.342L313.08 180.287L313.094 180.228L313.035 178.742C313.026 178.705 313.006 178.684 312.976 178.68ZM313.898 178.287L313.853 178.294L313.209 178.617L313.174 178.652L313.164 178.69L313.226 180.186L313.244 180.228L313.272 180.252L313.971 180.576C314.015 180.587 314.048 180.578 314.072 180.548L314.086 180.499L313.967 178.363C313.956 178.322 313.933 178.296 313.898 178.287ZM311.411 178.294C311.395 178.284 311.377 178.281 311.36 178.285C311.342 178.289 311.327 178.3 311.317 178.315L311.296 178.363L311.178 180.499C311.18 180.541 311.2 180.569 311.237 180.582L311.289 180.576L311.988 180.252L312.023 180.224L312.037 180.186L312.096 178.69L312.086 178.649L312.051 178.614L311.411 178.294Z" fill="#0C0E0F"/>
<path fill-rule="evenodd" clip-rule="evenodd" d="M310.913 104.739C314.708 104.739 318.276 105.755 321.348 107.536C321.763 107.753 322.131 108.052 322.428 108.415C322.725 108.778 322.945 109.198 323.076 109.648C323.207 110.099 323.245 110.571 323.188 111.037C323.132 111.503 322.982 111.952 322.747 112.358C322.512 112.764 322.198 113.119 321.822 113.4C321.447 113.682 321.019 113.884 320.563 113.996C320.107 114.108 319.634 114.126 319.171 114.05C318.708 113.974 318.265 113.805 317.87 113.553C315.754 112.332 313.354 111.689 310.911 111.689C308.469 111.689 306.069 112.333 303.954 113.555C301.838 114.776 300.082 116.534 298.861 118.65C297.641 120.766 296.999 123.166 297 125.609L335.261 125.612C337.106 125.612 338.875 126.345 340.18 127.65C341.484 128.954 342.217 130.724 342.217 132.569V167.351C342.217 169.196 341.484 170.966 340.18 172.27C338.875 173.575 337.106 174.308 335.261 174.308H286.565C284.72 174.308 282.951 173.575 281.646 172.27C280.342 170.966 279.609 169.196 279.609 167.351V132.565C279.609 130.72 280.342 128.951 281.646 127.646C282.951 126.341 284.72 125.609 286.565 125.609H290.043C290.043 120.074 292.242 114.765 296.156 110.852C300.07 106.938 305.378 104.739 310.913 104.739ZM310.913 139.522C309.382 139.522 307.893 140.027 306.678 140.959C305.463 141.891 304.59 143.199 304.194 144.678C303.797 146.157 303.9 147.725 304.486 149.14C305.072 150.555 306.109 151.737 307.435 152.502V156.913C307.435 157.835 307.801 158.72 308.453 159.372C309.106 160.025 309.991 160.391 310.913 160.391C311.835 160.391 312.72 160.025 313.372 159.372C314.025 158.72 314.391 157.835 314.391 156.913V152.502C315.717 151.737 316.754 150.555 317.34 149.14C317.926 147.725 318.029 146.157 317.632 144.678C317.236 143.199 316.363 141.891 315.148 140.959C313.933 140.027 312.444 139.522 310.913 139.522ZM338.454 115.247L341.814 116.151C342.671 116.419 343.39 117.008 343.823 117.795C344.255 118.582 344.367 119.505 344.134 120.372C343.901 121.239 343.342 121.983 342.574 122.447C341.806 122.912 340.888 123.061 340.012 122.864L336.656 121.967C335.768 121.725 335.013 121.142 334.555 120.344C334.096 119.547 333.973 118.6 334.21 117.712C334.448 116.823 335.028 116.065 335.823 115.603C336.619 115.141 337.564 115.013 338.454 115.247ZM333.984 105.052C334.426 105.17 334.839 105.374 335.202 105.652C335.564 105.931 335.868 106.277 336.096 106.673C336.325 107.069 336.473 107.506 336.533 107.959C336.592 108.411 336.562 108.872 336.443 109.313L335.995 110.989C335.878 111.433 335.676 111.848 335.398 112.213C335.121 112.577 334.774 112.883 334.378 113.114C333.982 113.344 333.544 113.493 333.09 113.554C332.636 113.614 332.174 113.584 331.731 113.466C331.289 113.348 330.874 113.143 330.511 112.864C330.148 112.585 329.843 112.236 329.615 111.839C329.387 111.442 329.239 111.003 329.181 110.549C329.122 110.095 329.154 109.633 329.275 109.191L329.727 107.511C329.966 106.621 330.548 105.862 331.347 105.401C332.145 104.939 333.094 104.814 333.984 105.052Z" fill="#0C0E0F"/>
<g clip-path="url(#clip0_158_2016)">
<path d="M324.022 233.644C322.422 231.955 320.288 230.8 318.066 230.355C317.088 230.089 316.111 229.911 315.133 229.822C317.622 226.889 317.177 222.444 314.244 219.955C311.311 217.467 306.866 217.911 304.377 220.844C301.888 223.778 302.333 228.222 305.266 230.711C305.8 231.155 306.333 231.511 306.866 231.689V233.644L305.444 232.311C304.2 231.067 302.155 231.067 300.822 232.311C299.577 233.555 299.488 235.511 300.733 236.755L304.822 241.555C305 242.8 305.444 243.955 306.066 245.022C306.511 245.822 307.133 246.622 307.755 247.244V248.933C307.755 249.467 308.111 249.822 308.644 249.822H320.733C321.177 249.822 321.622 249.378 321.622 248.933V246.622C323.311 244.578 324.2 242 324.2 239.422V234.267C324.288 233.911 324.2 233.733 324.022 233.644ZM304.466 225.289C304.466 222.355 306.866 220.044 309.8 220.133C312.733 220.133 315.044 222.533 314.955 225.467C314.955 227.067 314.244 228.489 313 229.467V225.022C312.954 224.252 312.616 223.528 312.054 222.999C311.492 222.47 310.749 222.176 309.977 222.178C308.377 222.089 306.955 223.422 306.955 225.022V229.644C305.444 228.755 304.555 227.067 304.466 225.289ZM322.511 239.333C322.6 241.644 321.8 243.867 320.288 245.644C320.111 245.822 319.933 246 319.933 246.267V248.133H309.622V246.889C309.622 246.622 309.444 246.355 309.266 246.178C308.644 245.644 308.111 245.022 307.666 244.222C307.133 243.333 306.777 242.267 306.6 241.2C306.6 241.022 306.511 240.844 306.422 240.667L302.155 235.6C301.888 235.333 301.711 234.978 301.711 234.533C301.711 234.178 301.888 233.733 302.155 233.467C302.777 232.933 303.666 232.933 304.288 233.467L306.866 236.044V238.711L308.555 237.822V225.022C308.644 224.4 309.177 223.867 309.888 223.955C310.511 223.955 311.133 224.4 311.133 225.022V235.244L312.911 235.6V231.511C313 231.422 313.088 231.422 313.177 231.333C313.8 231.333 314.422 231.422 315.044 231.511V236.044L316.466 236.311V231.689L317.533 231.955C317.977 232.044 318.422 232.222 318.866 232.4V236.844L320.288 237.111V233.022C321.088 233.378 321.8 233.911 322.422 234.533L322.511 239.333Z" fill="black"/>
</g>
<path d="M40.7734 356V372H37.3906V356H40.7734ZM46.8223 365.063V372H43.4941V360H46.666V362.117H46.8066C47.0723 361.419 47.5176 360.867 48.1426 360.461C48.7676 360.049 49.5254 359.844 50.416 359.844C51.2493 359.844 51.9759 360.026 52.5957 360.391C53.2155 360.755 53.6973 361.276 54.041 361.953C54.3848 362.625 54.5566 363.427 54.5566 364.359V372H51.2285V364.953C51.2337 364.219 51.0462 363.646 50.666 363.234C50.2858 362.818 49.7624 362.609 49.0957 362.609C48.6478 362.609 48.252 362.706 47.9082 362.898C47.5697 363.091 47.304 363.372 47.1113 363.742C46.9238 364.107 46.8275 364.547 46.8223 365.063ZM67.1641 363.422L64.1172 363.609C64.0651 363.349 63.9531 363.115 63.7813 362.906C63.6094 362.693 63.3828 362.523 63.1016 362.398C62.8255 362.268 62.4948 362.203 62.1094 362.203C61.5938 362.203 61.1589 362.312 60.8047 362.531C60.4505 362.745 60.2734 363.031 60.2734 363.391C60.2734 363.677 60.388 363.919 60.6172 364.117C60.8464 364.315 61.2396 364.474 61.7969 364.594L63.9688 365.031C65.1354 365.271 66.0052 365.656 66.5781 366.187C67.151 366.719 67.4375 367.417 67.4375 368.281C67.4375 369.068 67.2057 369.758 66.7422 370.352C66.2839 370.945 65.6536 371.409 64.8516 371.742C64.0547 372.07 63.1354 372.234 62.0938 372.234C60.5052 372.234 59.2396 371.904 58.2969 371.242C57.3594 370.576 56.8099 369.669 56.6484 368.523L59.9219 368.352C60.0208 368.836 60.2604 369.206 60.6406 369.461C61.0208 369.711 61.5078 369.836 62.1016 369.836C62.6849 369.836 63.1536 369.724 63.5078 369.5C63.8672 369.271 64.0495 368.977 64.0547 368.617C64.0495 368.315 63.9219 368.068 63.6719 367.875C63.4219 367.677 63.0365 367.526 62.5156 367.422L60.4375 367.008C59.2656 366.773 58.3932 366.367 57.8203 365.789C57.2526 365.211 56.9688 364.474 56.9688 363.578C56.9688 362.807 57.1771 362.143 57.5938 361.586C58.0156 361.029 58.6068 360.599 59.3672 360.297C60.1328 359.995 61.0286 359.844 62.0547 359.844C63.5703 359.844 64.763 360.164 65.6328 360.805C66.5078 361.445 67.0182 362.318 67.1641 363.422ZM75.916 360V362.5H68.6895V360H75.916ZM70.3301 357.125H73.6582V368.312C73.6582 368.62 73.7051 368.859 73.7988 369.031C73.8926 369.198 74.0228 369.315 74.1895 369.383C74.3613 369.451 74.5592 369.484 74.7832 369.484C74.9395 369.484 75.0957 369.471 75.252 369.445C75.4082 369.414 75.528 369.391 75.6113 369.375L76.1348 371.852C75.9681 371.904 75.7337 371.964 75.4316 372.031C75.1296 372.104 74.7624 372.148 74.3301 372.164C73.528 372.195 72.8249 372.089 72.2207 371.844C71.6217 371.599 71.1556 371.219 70.8223 370.703C70.4889 370.187 70.3249 369.536 70.3301 368.75V357.125ZM81.5059 372.227C80.7402 372.227 80.0579 372.094 79.459 371.828C78.86 371.557 78.3861 371.159 78.0371 370.633C77.6934 370.102 77.5215 369.44 77.5215 368.648C77.5215 367.982 77.6439 367.422 77.8887 366.969C78.1335 366.516 78.4668 366.151 78.8887 365.875C79.3105 365.599 79.7897 365.391 80.3262 365.25C80.8678 365.109 81.4355 365.01 82.0293 364.953C82.7272 364.88 83.2897 364.812 83.7168 364.75C84.1439 364.682 84.4538 364.583 84.6465 364.453C84.8392 364.323 84.9355 364.13 84.9355 363.875V363.828C84.9355 363.333 84.7793 362.951 84.4668 362.68C84.1595 362.409 83.722 362.273 83.1543 362.273C82.5553 362.273 82.0788 362.406 81.7246 362.672C81.3704 362.932 81.1361 363.26 81.0215 363.656L77.9434 363.406C78.0996 362.677 78.4069 362.047 78.8652 361.516C79.3236 360.979 79.9147 360.568 80.6387 360.281C81.3678 359.99 82.2116 359.844 83.1699 359.844C83.8366 359.844 84.4746 359.922 85.084 360.078C85.6986 360.234 86.2428 360.477 86.7168 360.805C87.196 361.133 87.5736 361.555 87.8496 362.07C88.1257 362.581 88.2637 363.193 88.2637 363.906V372H85.1074V370.336H85.0137C84.821 370.711 84.5632 371.042 84.2402 371.328C83.9173 371.609 83.5293 371.831 83.0762 371.992C82.623 372.148 82.0996 372.227 81.5059 372.227ZM82.459 369.93C82.9486 369.93 83.3809 369.833 83.7559 369.641C84.1309 369.443 84.4251 369.177 84.6387 368.844C84.8522 368.51 84.959 368.133 84.959 367.711V366.438C84.8548 366.505 84.7116 366.568 84.5293 366.625C84.3522 366.677 84.1517 366.727 83.9277 366.773C83.7038 366.815 83.4798 366.854 83.2559 366.891C83.0319 366.922 82.8288 366.951 82.6465 366.977C82.2559 367.034 81.9147 367.125 81.623 367.25C81.3314 367.375 81.1048 367.544 80.9434 367.758C80.7819 367.966 80.7012 368.227 80.7012 368.539C80.7012 368.992 80.8652 369.339 81.1934 369.578C81.5267 369.812 81.9486 369.93 82.459 369.93ZM94.1738 365.063V372H90.8457V360H94.0176V362.117H94.1582C94.4238 361.419 94.8691 360.867 95.4941 360.461C96.1191 360.049 96.877 359.844 97.7676 359.844C98.6009 359.844 99.3275 360.026 99.9473 360.391C100.567 360.755 101.049 361.276 101.393 361.953C101.736 362.625 101.908 363.427 101.908 364.359V372H98.5801V364.953C98.5853 364.219 98.3978 363.646 98.0176 363.234C97.6374 362.818 97.1139 362.609 96.4473 362.609C95.9993 362.609 95.6035 362.706 95.2598 362.898C94.9212 363.091 94.6556 363.372 94.4629 363.742C94.2754 364.107 94.179 364.547 94.1738 365.063ZM110.914 360V362.5H103.688V360H110.914ZM105.328 357.125H108.656V368.312C108.656 368.62 108.703 368.859 108.797 369.031C108.891 369.198 109.021 369.315 109.188 369.383C109.359 369.451 109.557 369.484 109.781 369.484C109.938 369.484 110.094 369.471 110.25 369.445C110.406 369.414 110.526 369.391 110.609 369.375L111.133 371.852C110.966 371.904 110.732 371.964 110.43 372.031C110.128 372.104 109.76 372.148 109.328 372.164C108.526 372.195 107.823 372.089 107.219 371.844C106.62 371.599 106.154 371.219 105.82 370.703C105.487 370.187 105.323 369.536 105.328 368.75V357.125ZM120.994 372H117.369L122.893 356H127.252L132.768 372H129.143L125.135 359.656H125.01L120.994 372ZM120.768 365.711H129.33V368.352H120.768V365.711ZM139.494 372.234C138.265 372.234 137.208 371.974 136.322 371.453C135.442 370.927 134.765 370.198 134.291 369.266C133.822 368.333 133.588 367.26 133.588 366.047C133.588 364.818 133.825 363.74 134.299 362.812C134.778 361.88 135.458 361.154 136.338 360.633C137.218 360.107 138.265 359.844 139.479 359.844C140.525 359.844 141.442 360.034 142.229 360.414C143.015 360.794 143.637 361.328 144.096 362.016C144.554 362.703 144.807 363.51 144.854 364.438H141.713C141.624 363.839 141.39 363.357 141.01 362.992C140.635 362.622 140.143 362.437 139.533 362.437C139.018 362.437 138.567 362.578 138.182 362.859C137.801 363.135 137.505 363.539 137.291 364.07C137.077 364.602 136.971 365.245 136.971 366C136.971 366.766 137.075 367.417 137.283 367.953C137.497 368.49 137.796 368.898 138.182 369.18C138.567 369.461 139.018 369.602 139.533 369.602C139.913 369.602 140.255 369.523 140.557 369.367C140.864 369.211 141.117 368.984 141.314 368.687C141.518 368.385 141.65 368.023 141.713 367.602H144.854C144.801 368.518 144.551 369.326 144.104 370.023C143.661 370.716 143.049 371.258 142.268 371.648C141.486 372.039 140.562 372.234 139.494 372.234ZM152.406 372.234C151.177 372.234 150.12 371.974 149.234 371.453C148.354 370.927 147.677 370.198 147.203 369.266C146.734 368.333 146.5 367.26 146.5 366.047C146.5 364.818 146.737 363.74 147.211 362.812C147.69 361.88 148.37 361.154 149.25 360.633C150.13 360.107 151.177 359.844 152.391 359.844C153.438 359.844 154.354 360.034 155.141 360.414C155.927 360.794 156.549 361.328 157.008 362.016C157.466 362.703 157.719 363.51 157.766 364.438H154.625C154.536 363.839 154.302 363.357 153.922 362.992C153.547 362.622 153.055 362.437 152.445 362.437C151.93 362.437 151.479 362.578 151.094 362.859C150.714 363.135 150.417 363.539 150.203 364.07C149.99 364.602 149.883 365.245 149.883 366C149.883 366.766 149.987 367.417 150.195 367.953C150.409 368.49 150.708 368.898 151.094 369.18C151.479 369.461 151.93 369.602 152.445 369.602C152.826 369.602 153.167 369.523 153.469 369.367C153.776 369.211 154.029 368.984 154.227 368.687C154.43 368.385 154.563 368.023 154.625 367.602H157.766C157.714 368.518 157.464 369.326 157.016 370.023C156.573 370.716 155.961 371.258 155.18 371.648C154.398 372.039 153.474 372.234 152.406 372.234ZM165.365 372.234C164.131 372.234 163.068 371.984 162.178 371.484C161.292 370.979 160.61 370.266 160.131 369.344C159.652 368.417 159.412 367.32 159.412 366.055C159.412 364.82 159.652 363.737 160.131 362.805C160.61 361.872 161.285 361.146 162.154 360.625C163.029 360.104 164.055 359.844 165.232 359.844C166.024 359.844 166.761 359.971 167.443 360.227C168.131 360.477 168.73 360.854 169.24 361.359C169.756 361.865 170.157 362.5 170.443 363.266C170.73 364.026 170.873 364.917 170.873 365.937V366.852H160.74V364.789H167.74C167.74 364.31 167.636 363.885 167.428 363.516C167.219 363.146 166.93 362.857 166.561 362.648C166.196 362.435 165.771 362.328 165.287 362.328C164.782 362.328 164.334 362.445 163.943 362.68C163.558 362.909 163.256 363.219 163.037 363.609C162.818 363.995 162.706 364.424 162.701 364.898V366.859C162.701 367.453 162.811 367.966 163.029 368.398C163.253 368.831 163.568 369.164 163.975 369.398C164.381 369.633 164.863 369.75 165.42 369.75C165.79 369.75 166.128 369.698 166.436 369.594C166.743 369.49 167.006 369.333 167.225 369.125C167.443 368.917 167.61 368.661 167.725 368.359L170.803 368.562C170.646 369.302 170.326 369.948 169.842 370.5C169.363 371.047 168.743 371.474 167.982 371.781C167.227 372.083 166.355 372.234 165.365 372.234ZM183.029 363.422L179.982 363.609C179.93 363.349 179.818 363.115 179.646 362.906C179.475 362.693 179.248 362.523 178.967 362.398C178.691 362.268 178.36 362.203 177.975 362.203C177.459 362.203 177.024 362.312 176.67 362.531C176.316 362.745 176.139 363.031 176.139 363.391C176.139 363.677 176.253 363.919 176.482 364.117C176.712 364.315 177.105 364.474 177.662 364.594L179.834 365.031C181.001 365.271 181.87 365.656 182.443 366.187C183.016 366.719 183.303 367.417 183.303 368.281C183.303 369.068 183.071 369.758 182.607 370.352C182.149 370.945 181.519 371.409 180.717 371.742C179.92 372.07 179.001 372.234 177.959 372.234C176.37 372.234 175.105 371.904 174.162 371.242C173.225 370.576 172.675 369.669 172.514 368.523L175.787 368.352C175.886 368.836 176.126 369.206 176.506 369.461C176.886 369.711 177.373 369.836 177.967 369.836C178.55 369.836 179.019 369.724 179.373 369.5C179.732 369.271 179.915 368.977 179.92 368.617C179.915 368.315 179.787 368.068 179.537 367.875C179.287 367.677 178.902 367.526 178.381 367.422L176.303 367.008C175.131 366.773 174.258 366.367 173.686 365.789C173.118 365.211 172.834 364.474 172.834 363.578C172.834 362.807 173.042 362.143 173.459 361.586C173.881 361.029 174.472 360.599 175.232 360.297C175.998 359.995 176.894 359.844 177.92 359.844C179.436 359.844 180.628 360.164 181.498 360.805C182.373 361.445 182.883 362.318 183.029 363.422ZM195.383 363.422L192.336 363.609C192.284 363.349 192.172 363.115 192 362.906C191.828 362.693 191.602 362.523 191.32 362.398C191.044 362.268 190.714 362.203 190.328 362.203C189.813 362.203 189.378 362.312 189.023 362.531C188.669 362.745 188.492 363.031 188.492 363.391C188.492 363.677 188.607 363.919 188.836 364.117C189.065 364.315 189.458 364.474 190.016 364.594L192.188 365.031C193.354 365.271 194.224 365.656 194.797 366.187C195.37 366.719 195.656 367.417 195.656 368.281C195.656 369.068 195.424 369.758 194.961 370.352C194.503 370.945 193.872 371.409 193.07 371.742C192.273 372.07 191.354 372.234 190.313 372.234C188.724 372.234 187.458 371.904 186.516 371.242C185.578 370.576 185.029 369.669 184.867 368.523L188.141 368.352C188.24 368.836 188.479 369.206 188.859 369.461C189.24 369.711 189.727 369.836 190.32 369.836C190.904 369.836 191.372 369.724 191.727 369.5C192.086 369.271 192.268 368.977 192.273 368.617C192.268 368.315 192.141 368.068 191.891 367.875C191.641 367.677 191.255 367.526 190.734 367.422L188.656 367.008C187.484 366.773 186.612 366.367 186.039 365.789C185.471 365.211 185.188 364.474 185.188 363.578C185.188 362.807 185.396 362.143 185.813 361.586C186.234 361.029 186.826 360.599 187.586 360.297C188.352 359.995 189.247 359.844 190.273 359.844C191.789 359.844 192.982 360.164 193.852 360.805C194.727 361.445 195.237 362.318 195.383 363.422Z" fill="#0C0E0F"/>
<path d="M46.6364 397.364V409H45.2727L38.9318 399.864H38.8182V409H37.4091V397.364H38.7727L45.1364 406.523H45.25V397.364H46.6364ZM52.8196 409.182C52.0317 409.182 51.3404 408.994 50.7457 408.619C50.1548 408.244 49.6927 407.72 49.3594 407.045C49.0298 406.371 48.8651 405.583 48.8651 404.682C48.8651 403.773 49.0298 402.979 49.3594 402.301C49.6927 401.623 50.1548 401.097 50.7457 400.722C51.3404 400.347 52.0317 400.159 52.8196 400.159C53.6075 400.159 54.2969 400.347 54.8878 400.722C55.4825 401.097 55.9446 401.623 56.2741 402.301C56.6075 402.979 56.7741 403.773 56.7741 404.682C56.7741 405.583 56.6075 406.371 56.2741 407.045C55.9446 407.72 55.4825 408.244 54.8878 408.619C54.2969 408.994 53.6075 409.182 52.8196 409.182ZM52.8196 407.977C53.4181 407.977 53.9105 407.824 54.2969 407.517C54.6832 407.21 54.9692 406.807 55.1548 406.307C55.3404 405.807 55.4332 405.265 55.4332 404.682C55.4332 404.098 55.3404 403.555 55.1548 403.051C54.9692 402.547 54.6832 402.14 54.2969 401.83C53.9105 401.519 53.4181 401.364 52.8196 401.364C52.2211 401.364 51.7287 401.519 51.3423 401.83C50.956 402.14 50.67 402.547 50.4844 403.051C50.2988 403.555 50.206 404.098 50.206 404.682C50.206 405.265 50.2988 405.807 50.4844 406.307C50.67 406.807 50.956 407.21 51.3423 407.517C51.7287 407.824 52.2211 407.977 52.8196 407.977ZM63.321 409V400.273H64.6619V409H63.321ZM64.0028 398.818C63.7415 398.818 63.5161 398.729 63.3267 398.551C63.1411 398.373 63.0483 398.159 63.0483 397.909C63.0483 397.659 63.1411 397.445 63.3267 397.267C63.5161 397.089 63.7415 397 64.0028 397C64.2642 397 64.4877 397.089 64.6733 397.267C64.8627 397.445 64.9574 397.659 64.9574 397.909C64.9574 398.159 64.8627 398.373 64.6733 398.551C64.4877 398.729 64.2642 398.818 64.0028 398.818ZM68.4588 403.75V409H67.1179V400.273H68.4134V401.636H68.527C68.7315 401.193 69.0421 400.837 69.4588 400.568C69.8755 400.295 70.4134 400.159 71.0724 400.159C71.6634 400.159 72.1804 400.28 72.6236 400.523C73.0668 400.761 73.4115 401.125 73.6577 401.614C73.9039 402.098 74.027 402.712 74.027 403.455V409H72.6861V403.545C72.6861 402.86 72.508 402.326 72.152 401.943C71.7959 401.557 71.3073 401.364 70.6861 401.364C70.258 401.364 69.8755 401.456 69.5384 401.642C69.205 401.828 68.9418 402.098 68.7486 402.455C68.5554 402.811 68.4588 403.242 68.4588 403.75ZM82.6591 402.227L81.4545 402.568C81.3788 402.367 81.267 402.172 81.1193 401.983C80.9754 401.79 80.7784 401.631 80.5284 401.506C80.2784 401.381 79.9583 401.318 79.5682 401.318C79.0341 401.318 78.589 401.441 78.233 401.688C77.8807 401.93 77.7045 402.239 77.7045 402.614C77.7045 402.947 77.8258 403.21 78.0682 403.403C78.3106 403.597 78.6894 403.758 79.2045 403.886L80.5 404.205C81.2803 404.394 81.8617 404.684 82.2443 405.074C82.6269 405.46 82.8182 405.958 82.8182 406.568C82.8182 407.068 82.6742 407.515 82.3864 407.909C82.1023 408.303 81.7045 408.614 81.1932 408.841C80.6818 409.068 80.0871 409.182 79.4091 409.182C78.5189 409.182 77.7822 408.989 77.1989 408.602C76.6155 408.216 76.2462 407.652 76.0909 406.909L77.3636 406.591C77.4848 407.061 77.714 407.413 78.0511 407.648C78.392 407.883 78.8371 408 79.3864 408C80.0114 408 80.5076 407.867 80.875 407.602C81.2462 407.333 81.4318 407.011 81.4318 406.636C81.4318 406.333 81.3258 406.08 81.1136 405.875C80.9015 405.667 80.5758 405.511 80.1364 405.409L78.6818 405.068C77.8826 404.879 77.2955 404.585 76.9205 404.188C76.5492 403.786 76.3636 403.284 76.3636 402.682C76.3636 402.189 76.5019 401.754 76.7784 401.375C77.0587 400.996 77.4394 400.699 77.9205 400.483C78.4053 400.267 78.9545 400.159 79.5682 400.159C80.4318 400.159 81.1098 400.348 81.6023 400.727C82.0985 401.106 82.4508 401.606 82.6591 402.227ZM88.6321 400.273V401.409H84.1094V400.273H88.6321ZM85.4276 398.182H86.7685V406.5C86.7685 406.879 86.8234 407.163 86.9332 407.352C87.0469 407.538 87.1908 407.663 87.3651 407.727C87.5431 407.788 87.7306 407.818 87.9276 407.818C88.0753 407.818 88.1965 407.811 88.2912 407.795C88.3859 407.777 88.4616 407.761 88.5185 407.75L88.7912 408.955C88.7003 408.989 88.5734 409.023 88.4105 409.057C88.2476 409.095 88.0412 409.114 87.7912 409.114C87.4124 409.114 87.0412 409.032 86.6776 408.869C86.3177 408.706 86.0185 408.458 85.7798 408.125C85.545 407.792 85.4276 407.371 85.4276 406.864V398.182ZM93.2173 409.205C92.6643 409.205 92.1624 409.1 91.7116 408.892C91.2609 408.68 90.9029 408.375 90.6378 407.977C90.3726 407.576 90.2401 407.091 90.2401 406.523C90.2401 406.023 90.3385 405.617 90.5355 405.307C90.7325 404.992 90.9957 404.746 91.3253 404.568C91.6548 404.39 92.0185 404.258 92.4162 404.17C92.8177 404.08 93.2211 404.008 93.6264 403.955C94.1567 403.886 94.5866 403.835 94.9162 403.801C95.2495 403.763 95.492 403.701 95.6435 403.614C95.7988 403.527 95.8764 403.375 95.8764 403.159V403.114C95.8764 402.553 95.723 402.117 95.4162 401.807C95.1132 401.496 94.6529 401.341 94.0355 401.341C93.3954 401.341 92.8935 401.481 92.5298 401.761C92.1662 402.042 91.9105 402.341 91.7628 402.659L90.4901 402.205C90.7173 401.674 91.0204 401.261 91.3991 400.966C91.7817 400.667 92.1984 400.458 92.6491 400.341C93.1037 400.22 93.5507 400.159 93.9901 400.159C94.2704 400.159 94.5923 400.193 94.956 400.261C95.3234 400.326 95.6776 400.46 96.0185 400.665C96.3632 400.869 96.6491 401.178 96.8764 401.591C97.1037 402.004 97.2173 402.557 97.2173 403.25V409H95.8764V407.818H95.8082C95.7173 408.008 95.5658 408.21 95.3537 408.426C95.1416 408.642 94.8594 408.826 94.5071 408.977C94.1548 409.129 93.7249 409.205 93.2173 409.205ZM93.4219 408C93.9522 408 94.3991 407.896 94.7628 407.688C95.1302 407.479 95.4067 407.21 95.5923 406.881C95.7817 406.551 95.8764 406.205 95.8764 405.841V404.614C95.8196 404.682 95.6946 404.744 95.5014 404.801C95.312 404.854 95.0923 404.902 94.8423 404.943C94.5961 404.981 94.3556 405.015 94.1207 405.045C93.8897 405.072 93.7022 405.095 93.5582 405.114C93.2098 405.159 92.884 405.233 92.581 405.335C92.2817 405.434 92.0393 405.583 91.8537 405.784C91.6719 405.981 91.581 406.25 91.581 406.591C91.581 407.057 91.7533 407.409 92.098 407.648C92.4465 407.883 92.8878 408 93.4219 408ZM101.006 397.364V409H99.6648V397.364H101.006ZM104.803 397.364V409H103.462V397.364H104.803ZM109.827 409.205C109.274 409.205 108.772 409.1 108.321 408.892C107.87 408.68 107.512 408.375 107.247 407.977C106.982 407.576 106.849 407.091 106.849 406.523C106.849 406.023 106.948 405.617 107.145 405.307C107.342 404.992 107.605 404.746 107.935 404.568C108.264 404.39 108.628 404.258 109.026 404.17C109.427 404.08 109.83 404.008 110.236 403.955C110.766 403.886 111.196 403.835 111.526 403.801C111.859 403.763 112.101 403.701 112.253 403.614C112.408 403.527 112.486 403.375 112.486 403.159V403.114C112.486 402.553 112.332 402.117 112.026 401.807C111.723 401.496 111.262 401.341 110.645 401.341C110.005 401.341 109.503 401.481 109.139 401.761C108.776 402.042 108.52 402.341 108.372 402.659L107.099 402.205C107.327 401.674 107.63 401.261 108.009 400.966C108.391 400.667 108.808 400.458 109.259 400.341C109.713 400.22 110.16 400.159 110.599 400.159C110.88 400.159 111.202 400.193 111.565 400.261C111.933 400.326 112.287 400.46 112.628 400.665C112.973 400.869 113.259 401.178 113.486 401.591C113.713 402.004 113.827 402.557 113.827 403.25V409H112.486V407.818H112.418C112.327 408.008 112.175 408.21 111.963 408.426C111.751 408.642 111.469 408.826 111.116 408.977C110.764 409.129 110.334 409.205 109.827 409.205ZM110.031 408C110.562 408 111.009 407.896 111.372 407.688C111.74 407.479 112.016 407.21 112.202 406.881C112.391 406.551 112.486 406.205 112.486 405.841V404.614C112.429 404.682 112.304 404.744 112.111 404.801C111.921 404.854 111.702 404.902 111.452 404.943C111.205 404.981 110.965 405.015 110.73 405.045C110.499 405.072 110.312 405.095 110.168 405.114C109.819 405.159 109.493 405.233 109.19 405.335C108.891 405.434 108.649 405.583 108.463 405.784C108.281 405.981 108.19 406.25 108.19 406.591C108.19 407.057 108.363 407.409 108.707 407.648C109.056 407.883 109.497 408 110.031 408ZM120.07 400.273V401.409H115.547V400.273H120.07ZM116.865 398.182H118.206V406.5C118.206 406.879 118.261 407.163 118.371 407.352C118.484 407.538 118.628 407.663 118.803 407.727C118.981 407.788 119.168 407.818 119.365 407.818C119.513 407.818 119.634 407.811 119.729 407.795C119.823 407.777 119.899 407.761 119.956 407.75L120.229 408.955C120.138 408.989 120.011 409.023 119.848 409.057C119.685 409.095 119.479 409.114 119.229 409.114C118.85 409.114 118.479 409.032 118.115 408.869C117.755 408.706 117.456 408.458 117.217 408.125C116.982 407.792 116.865 407.371 116.865 406.864V398.182ZM122.087 409V400.273H123.428V409H122.087ZM122.768 398.818C122.507 398.818 122.282 398.729 122.092 398.551C121.907 398.373 121.814 398.159 121.814 397.909C121.814 397.659 121.907 397.445 122.092 397.267C122.282 397.089 122.507 397 122.768 397C123.03 397 123.253 397.089 123.439 397.267C123.628 397.445 123.723 397.659 123.723 397.909C123.723 398.159 123.628 398.373 123.439 398.551C123.253 398.729 123.03 398.818 122.768 398.818ZM129.429 409.182C128.641 409.182 127.95 408.994 127.355 408.619C126.764 408.244 126.302 407.72 125.969 407.045C125.639 406.371 125.474 405.583 125.474 404.682C125.474 403.773 125.639 402.979 125.969 402.301C126.302 401.623 126.764 401.097 127.355 400.722C127.95 400.347 128.641 400.159 129.429 400.159C130.217 400.159 130.906 400.347 131.497 400.722C132.092 401.097 132.554 401.623 132.884 402.301C133.217 402.979 133.384 403.773 133.384 404.682C133.384 405.583 133.217 406.371 132.884 407.045C132.554 407.72 132.092 408.244 131.497 408.619C130.906 408.994 130.217 409.182 129.429 409.182ZM129.429 407.977C130.027 407.977 130.52 407.824 130.906 407.517C131.293 407.21 131.579 406.807 131.764 406.307C131.95 405.807 132.043 405.265 132.043 404.682C132.043 404.098 131.95 403.555 131.764 403.051C131.579 402.547 131.293 402.14 130.906 401.83C130.52 401.519 130.027 401.364 129.429 401.364C128.83 401.364 128.338 401.519 127.952 401.83C127.565 402.14 127.279 402.547 127.094 403.051C126.908 403.555 126.815 404.098 126.815 404.682C126.815 405.265 126.908 405.807 127.094 406.307C127.279 406.807 127.565 407.21 127.952 407.517C128.338 407.824 128.83 407.977 129.429 407.977ZM136.771 403.75V409H135.43V400.273H136.726V401.636H136.839C137.044 401.193 137.355 400.837 137.771 400.568C138.188 400.295 138.726 400.159 139.385 400.159C139.976 400.159 140.493 400.28 140.936 400.523C141.379 400.761 141.724 401.125 141.97 401.614C142.216 402.098 142.339 402.712 142.339 403.455V409H140.999V403.545C140.999 402.86 140.821 402.326 140.464 401.943C140.108 401.557 139.62 401.364 138.999 401.364C138.571 401.364 138.188 401.456 137.851 401.642C137.518 401.828 137.254 402.098 137.061 402.455C136.868 402.811 136.771 403.242 136.771 403.75ZM150.972 402.227L149.767 402.568C149.691 402.367 149.58 402.172 149.432 401.983C149.288 401.79 149.091 401.631 148.841 401.506C148.591 401.381 148.271 401.318 147.881 401.318C147.347 401.318 146.902 401.441 146.545 401.688C146.193 401.93 146.017 402.239 146.017 402.614C146.017 402.947 146.138 403.21 146.381 403.403C146.623 403.597 147.002 403.758 147.517 403.886L148.812 404.205C149.593 404.394 150.174 404.684 150.557 405.074C150.939 405.46 151.131 405.958 151.131 406.568C151.131 407.068 150.987 407.515 150.699 407.909C150.415 408.303 150.017 408.614 149.506 408.841C148.994 409.068 148.4 409.182 147.722 409.182C146.831 409.182 146.095 408.989 145.511 408.602C144.928 408.216 144.559 407.652 144.403 406.909L145.676 406.591C145.797 407.061 146.027 407.413 146.364 407.648C146.705 407.883 147.15 408 147.699 408C148.324 408 148.82 407.867 149.188 407.602C149.559 407.333 149.744 407.011 149.744 406.636C149.744 406.333 149.638 406.08 149.426 405.875C149.214 405.667 148.888 405.511 148.449 405.409L146.994 405.068C146.195 404.879 145.608 404.585 145.233 404.188C144.862 403.786 144.676 403.284 144.676 402.682C144.676 402.189 144.814 401.754 145.091 401.375C145.371 400.996 145.752 400.699 146.233 400.483C146.718 400.267 147.267 400.159 147.881 400.159C148.744 400.159 149.422 400.348 149.915 400.727C150.411 401.106 150.763 401.606 150.972 402.227ZM161.195 409.182C160.407 409.182 159.715 408.994 159.121 408.619C158.53 408.244 158.068 407.72 157.734 407.045C157.405 406.371 157.24 405.583 157.24 404.682C157.24 403.773 157.405 402.979 157.734 402.301C158.068 401.623 158.53 401.097 159.121 400.722C159.715 400.347 160.407 400.159 161.195 400.159C161.982 400.159 162.672 400.347 163.263 400.722C163.857 401.097 164.32 401.623 164.649 402.301C164.982 402.979 165.149 403.773 165.149 404.682C165.149 405.583 164.982 406.371 164.649 407.045C164.32 407.72 163.857 408.244 163.263 408.619C162.672 408.994 161.982 409.182 161.195 409.182ZM161.195 407.977C161.793 407.977 162.286 407.824 162.672 407.517C163.058 407.21 163.344 406.807 163.53 406.307C163.715 405.807 163.808 405.265 163.808 404.682C163.808 404.098 163.715 403.555 163.53 403.051C163.344 402.547 163.058 402.14 162.672 401.83C162.286 401.519 161.793 401.364 161.195 401.364C160.596 401.364 160.104 401.519 159.717 401.83C159.331 402.14 159.045 402.547 158.859 403.051C158.674 403.555 158.581 404.098 158.581 404.682C158.581 405.265 158.674 405.807 158.859 406.307C159.045 406.807 159.331 407.21 159.717 407.517C160.104 407.824 160.596 407.977 161.195 407.977ZM167.196 409V400.273H168.491V401.591H168.582C168.741 401.159 169.029 400.809 169.446 400.54C169.863 400.271 170.332 400.136 170.855 400.136C170.954 400.136 171.077 400.138 171.224 400.142C171.372 400.146 171.484 400.152 171.56 400.159V401.523C171.514 401.511 171.41 401.494 171.247 401.472C171.088 401.445 170.92 401.432 170.741 401.432C170.317 401.432 169.938 401.521 169.605 401.699C169.276 401.873 169.014 402.116 168.821 402.426C168.632 402.733 168.537 403.083 168.537 403.477V409H167.196ZM180.217 409.205C179.664 409.205 179.162 409.1 178.712 408.892C178.261 408.68 177.903 408.375 177.638 407.977C177.373 407.576 177.24 407.091 177.24 406.523C177.24 406.023 177.339 405.617 177.536 405.307C177.732 404.992 177.996 404.746 178.325 404.568C178.655 404.39 179.018 404.258 179.416 404.17C179.818 404.08 180.221 404.008 180.626 403.955C181.157 403.886 181.587 403.835 181.916 403.801C182.25 403.763 182.492 403.701 182.643 403.614C182.799 403.527 182.876 403.375 182.876 403.159V403.114C182.876 402.553 182.723 402.117 182.416 401.807C182.113 401.496 181.653 401.341 181.036 401.341C180.395 401.341 179.893 401.481 179.53 401.761C179.166 402.042 178.911 402.341 178.763 402.659L177.49 402.205C177.717 401.674 178.02 401.261 178.399 400.966C178.782 400.667 179.198 400.458 179.649 400.341C180.104 400.22 180.551 400.159 180.99 400.159C181.27 400.159 181.592 400.193 181.956 400.261C182.323 400.326 182.678 400.46 183.018 400.665C183.363 400.869 183.649 401.178 183.876 401.591C184.104 402.004 184.217 402.557 184.217 403.25V409H182.876V407.818H182.808C182.717 408.008 182.566 408.21 182.354 408.426C182.142 408.642 181.859 408.826 181.507 408.977C181.155 409.129 180.725 409.205 180.217 409.205ZM180.422 408C180.952 408 181.399 407.896 181.763 407.688C182.13 407.479 182.407 407.21 182.592 406.881C182.782 406.551 182.876 406.205 182.876 405.841V404.614C182.82 404.682 182.695 404.744 182.501 404.801C182.312 404.854 182.092 404.902 181.842 404.943C181.596 404.981 181.356 405.015 181.121 405.045C180.89 405.072 180.702 405.095 180.558 405.114C180.21 405.159 179.884 405.233 179.581 405.335C179.282 405.434 179.039 405.583 178.854 405.784C178.672 405.981 178.581 406.25 178.581 406.591C178.581 407.057 178.753 407.409 179.098 407.648C179.446 407.883 179.888 408 180.422 408ZM189.96 409.182C189.233 409.182 188.591 408.998 188.034 408.631C187.477 408.259 187.042 407.737 186.727 407.062C186.413 406.384 186.256 405.583 186.256 404.659C186.256 403.742 186.413 402.947 186.727 402.273C187.042 401.598 187.479 401.078 188.04 400.71C188.6 400.343 189.248 400.159 189.983 400.159C190.551 400.159 191 400.254 191.33 400.443C191.663 400.629 191.917 400.841 192.091 401.08C192.269 401.314 192.407 401.508 192.506 401.659H192.619V397.364H193.96V409H192.665V407.659H192.506C192.407 407.818 192.267 408.019 192.085 408.261C191.903 408.5 191.644 408.714 191.307 408.903C190.97 409.089 190.521 409.182 189.96 409.182ZM190.142 407.977C190.68 407.977 191.134 407.837 191.506 407.557C191.877 407.273 192.159 406.881 192.352 406.381C192.545 405.877 192.642 405.295 192.642 404.636C192.642 403.985 192.547 403.415 192.358 402.926C192.169 402.434 191.888 402.051 191.517 401.778C191.146 401.502 190.688 401.364 190.142 401.364C189.574 401.364 189.1 401.509 188.722 401.801C188.347 402.089 188.064 402.481 187.875 402.977C187.689 403.47 187.597 404.023 187.597 404.636C187.597 405.258 187.691 405.822 187.881 406.33C188.074 406.833 188.358 407.235 188.733 407.534C189.112 407.83 189.581 407.977 190.142 407.977ZM196.602 400.273H197.943V409.636C197.943 410.174 197.85 410.64 197.665 411.034C197.483 411.428 197.206 411.733 196.835 411.949C196.468 412.165 196.004 412.273 195.443 412.273C195.398 412.273 195.352 412.273 195.307 412.273C195.261 412.273 195.216 412.273 195.17 412.273V411.023C195.216 411.023 195.258 411.023 195.295 411.023C195.333 411.023 195.375 411.023 195.42 411.023C195.83 411.023 196.129 410.902 196.318 410.659C196.508 410.42 196.602 410.08 196.602 409.636V400.273ZM197.261 398.818C197 398.818 196.775 398.729 196.585 398.551C196.4 398.373 196.307 398.159 196.307 397.909C196.307 397.659 196.4 397.445 196.585 397.267C196.775 397.089 197 397 197.261 397C197.523 397 197.746 397.089 197.932 397.267C198.121 397.445 198.216 397.659 198.216 397.909C198.216 398.159 198.121 398.373 197.932 398.551C197.746 398.729 197.523 398.818 197.261 398.818ZM205.899 405.432V400.273H207.24V409H205.899V407.523H205.808C205.604 407.966 205.286 408.343 204.854 408.653C204.422 408.96 203.876 409.114 203.217 409.114C202.672 409.114 202.187 408.994 201.763 408.756C201.339 408.513 201.005 408.15 200.763 407.665C200.52 407.176 200.399 406.561 200.399 405.818V400.273H201.74V405.727C201.74 406.364 201.918 406.871 202.274 407.25C202.634 407.629 203.092 407.818 203.649 407.818C203.982 407.818 204.321 407.733 204.666 407.562C205.015 407.392 205.306 407.131 205.541 406.778C205.78 406.426 205.899 405.977 205.899 405.432ZM215.878 402.227L214.673 402.568C214.598 402.367 214.486 402.172 214.338 401.983C214.194 401.79 213.997 401.631 213.747 401.506C213.497 401.381 213.177 401.318 212.787 401.318C212.253 401.318 211.808 401.441 211.452 401.688C211.099 401.93 210.923 402.239 210.923 402.614C210.923 402.947 211.045 403.21 211.287 403.403C211.529 403.597 211.908 403.758 212.423 403.886L213.719 404.205C214.499 404.394 215.08 404.684 215.463 405.074C215.846 405.46 216.037 405.958 216.037 406.568C216.037 407.068 215.893 407.515 215.605 407.909C215.321 408.303 214.923 408.614 214.412 408.841C213.901 409.068 213.306 409.182 212.628 409.182C211.738 409.182 211.001 408.989 210.418 408.602C209.834 408.216 209.465 407.652 209.31 406.909L210.582 406.591C210.704 407.061 210.933 407.413 211.27 407.648C211.611 407.883 212.056 408 212.605 408C213.23 408 213.726 407.867 214.094 407.602C214.465 407.333 214.651 407.011 214.651 406.636C214.651 406.333 214.545 406.08 214.332 405.875C214.12 405.667 213.795 405.511 213.355 405.409L211.901 405.068C211.101 404.879 210.514 404.585 210.139 404.188C209.768 403.786 209.582 403.284 209.582 402.682C209.582 402.189 209.721 401.754 209.997 401.375C210.277 400.996 210.658 400.699 211.139 400.483C211.624 400.267 212.173 400.159 212.787 400.159C213.651 400.159 214.329 400.348 214.821 400.727C215.317 401.106 215.67 401.606 215.878 402.227ZM221.851 400.273V401.409H217.328V400.273H221.851ZM218.646 398.182H219.987V406.5C219.987 406.879 220.042 407.163 220.152 407.352C220.266 407.538 220.41 407.663 220.584 407.727C220.762 407.788 220.949 407.818 221.146 407.818C221.294 407.818 221.415 407.811 221.51 407.795C221.605 407.777 221.68 407.761 221.737 407.75L222.01 408.955C221.919 408.989 221.792 409.023 221.629 409.057C221.466 409.095 221.26 409.114 221.01 409.114C220.631 409.114 220.26 409.032 219.896 408.869C219.536 408.706 219.237 408.458 218.999 408.125C218.764 407.792 218.646 407.371 218.646 406.864V398.182ZM223.868 409V400.273H225.163V401.636H225.277C225.459 401.17 225.752 400.809 226.158 400.551C226.563 400.29 227.05 400.159 227.618 400.159C228.194 400.159 228.673 400.29 229.055 400.551C229.442 400.809 229.743 401.17 229.959 401.636H230.05C230.273 401.186 230.608 400.828 231.055 400.562C231.502 400.294 232.038 400.159 232.663 400.159C233.444 400.159 234.082 400.403 234.578 400.892C235.074 401.377 235.322 402.133 235.322 403.159V409H233.982V403.159C233.982 402.515 233.805 402.055 233.453 401.778C233.101 401.502 232.686 401.364 232.209 401.364C231.595 401.364 231.12 401.549 230.783 401.92C230.446 402.288 230.277 402.754 230.277 403.318V409H228.913V403.023C228.913 402.527 228.752 402.127 228.43 401.824C228.108 401.517 227.694 401.364 227.186 401.364C226.838 401.364 226.512 401.456 226.209 401.642C225.91 401.828 225.667 402.085 225.482 402.415C225.3 402.741 225.209 403.117 225.209 403.545V409H223.868ZM241.433 409.182C240.592 409.182 239.867 408.996 239.257 408.625C238.651 408.25 238.183 407.727 237.854 407.057C237.528 406.383 237.365 405.598 237.365 404.705C237.365 403.811 237.528 403.023 237.854 402.341C238.183 401.655 238.642 401.121 239.229 400.739C239.82 400.352 240.509 400.159 241.297 400.159C241.751 400.159 242.2 400.235 242.643 400.386C243.087 400.538 243.49 400.784 243.854 401.125C244.217 401.462 244.507 401.909 244.723 402.466C244.939 403.023 245.047 403.708 245.047 404.523V405.091H238.32V403.932H243.683C243.683 403.439 243.585 403 243.388 402.614C243.195 402.227 242.918 401.922 242.558 401.699C242.202 401.475 241.782 401.364 241.297 401.364C240.763 401.364 240.301 401.496 239.911 401.761C239.524 402.023 239.227 402.364 239.018 402.784C238.81 403.205 238.706 403.655 238.706 404.136V404.909C238.706 405.568 238.82 406.127 239.047 406.585C239.278 407.04 239.598 407.386 240.007 407.625C240.416 407.86 240.892 407.977 241.433 407.977C241.786 407.977 242.104 407.928 242.388 407.83C242.676 407.727 242.924 407.576 243.132 407.375C243.34 407.17 243.501 406.917 243.615 406.614L244.911 406.977C244.774 407.417 244.545 407.803 244.223 408.136C243.901 408.466 243.503 408.723 243.03 408.909C242.556 409.091 242.024 409.182 241.433 409.182ZM248.428 403.75V409H247.087V400.273H248.382V401.636H248.496C248.7 401.193 249.011 400.837 249.428 400.568C249.844 400.295 250.382 400.159 251.041 400.159C251.632 400.159 252.149 400.28 252.592 400.523C253.036 400.761 253.38 401.125 253.626 401.614C253.873 402.098 253.996 402.712 253.996 403.455V409H252.655V403.545C252.655 402.86 252.477 402.326 252.121 401.943C251.765 401.557 251.276 401.364 250.655 401.364C250.227 401.364 249.844 401.456 249.507 401.642C249.174 401.828 248.911 402.098 248.717 402.455C248.524 402.811 248.428 403.242 248.428 403.75ZM260.241 400.273V401.409H255.719V400.273H260.241ZM257.037 398.182H258.378V406.5C258.378 406.879 258.433 407.163 258.543 407.352C258.656 407.538 258.8 407.663 258.974 407.727C259.152 407.788 259.34 407.818 259.537 407.818C259.685 407.818 259.806 407.811 259.901 407.795C259.995 407.777 260.071 407.761 260.128 407.75L260.401 408.955C260.31 408.989 260.183 409.023 260.02 409.057C259.857 409.095 259.651 409.114 259.401 409.114C259.022 409.114 258.651 409.032 258.287 408.869C257.927 408.706 257.628 408.458 257.389 408.125C257.154 407.792 257.037 407.371 257.037 406.864V398.182ZM268.284 402.227L267.08 402.568C267.004 402.367 266.892 402.172 266.744 401.983C266.6 401.79 266.403 401.631 266.153 401.506C265.903 401.381 265.583 401.318 265.193 401.318C264.659 401.318 264.214 401.441 263.858 401.688C263.506 401.93 263.33 402.239 263.33 402.614C263.33 402.947 263.451 403.21 263.693 403.403C263.936 403.597 264.314 403.758 264.83 403.886L266.125 404.205C266.905 404.394 267.487 404.684 267.869 405.074C268.252 405.46 268.443 405.958 268.443 406.568C268.443 407.068 268.299 407.515 268.011 407.909C267.727 408.303 267.33 408.614 266.818 408.841C266.307 409.068 265.712 409.182 265.034 409.182C264.144 409.182 263.407 408.989 262.824 408.602C262.241 408.216 261.871 407.652 261.716 406.909L262.989 406.591C263.11 407.061 263.339 407.413 263.676 407.648C264.017 407.883 264.462 408 265.011 408C265.636 408 266.133 407.867 266.5 407.602C266.871 407.333 267.057 407.011 267.057 406.636C267.057 406.333 266.951 406.08 266.739 405.875C266.527 405.667 266.201 405.511 265.761 405.409L264.307 405.068C263.508 404.879 262.92 404.585 262.545 404.188C262.174 403.786 261.989 403.284 261.989 402.682C261.989 402.189 262.127 401.754 262.403 401.375C262.684 400.996 263.064 400.699 263.545 400.483C264.03 400.267 264.58 400.159 265.193 400.159C266.057 400.159 266.735 400.348 267.227 400.727C267.723 401.106 268.076 401.606 268.284 402.227ZM276.303 403.75V409H274.962V400.273H276.257V401.636H276.371C276.575 401.193 276.886 400.837 277.303 400.568C277.719 400.295 278.257 400.159 278.916 400.159C279.507 400.159 280.024 400.28 280.467 400.523C280.911 400.761 281.255 401.125 281.501 401.614C281.748 402.098 281.871 402.712 281.871 403.455V409H280.53V403.545C280.53 402.86 280.352 402.326 279.996 401.943C279.64 401.557 279.151 401.364 278.53 401.364C278.102 401.364 277.719 401.456 277.382 401.642C277.049 401.828 276.786 402.098 276.592 402.455C276.399 402.811 276.303 403.242 276.303 403.75ZM287.98 409.182C287.139 409.182 286.414 408.996 285.804 408.625C285.198 408.25 284.73 407.727 284.401 407.057C284.075 406.383 283.912 405.598 283.912 404.705C283.912 403.811 284.075 403.023 284.401 402.341C284.73 401.655 285.188 401.121 285.776 400.739C286.366 400.352 287.056 400.159 287.844 400.159C288.298 400.159 288.747 400.235 289.19 400.386C289.634 400.538 290.037 400.784 290.401 401.125C290.764 401.462 291.054 401.909 291.27 402.466C291.486 403.023 291.594 403.708 291.594 404.523V405.091H284.866V403.932H290.23C290.23 403.439 290.132 403 289.935 402.614C289.741 402.227 289.465 401.922 289.105 401.699C288.749 401.475 288.329 401.364 287.844 401.364C287.31 401.364 286.848 401.496 286.457 401.761C286.071 402.023 285.774 402.364 285.565 402.784C285.357 403.205 285.253 403.655 285.253 404.136V404.909C285.253 405.568 285.366 406.127 285.594 406.585C285.825 407.04 286.145 407.386 286.554 407.625C286.963 407.86 287.438 407.977 287.98 407.977C288.332 407.977 288.651 407.928 288.935 407.83C289.223 407.727 289.471 407.576 289.679 407.375C289.887 407.17 290.048 406.917 290.162 406.614L291.457 406.977C291.321 407.417 291.092 407.803 290.77 408.136C290.448 408.466 290.05 408.723 289.577 408.909C289.103 409.091 288.571 409.182 287.98 409.182ZM297.293 409.182C296.452 409.182 295.726 408.996 295.116 408.625C294.51 408.25 294.043 407.727 293.713 407.057C293.387 406.383 293.224 405.598 293.224 404.705C293.224 403.811 293.387 403.023 293.713 402.341C294.043 401.655 294.501 401.121 295.088 400.739C295.679 400.352 296.368 400.159 297.156 400.159C297.611 400.159 298.06 400.235 298.503 400.386C298.946 400.538 299.349 400.784 299.713 401.125C300.077 401.462 300.366 401.909 300.582 402.466C300.798 403.023 300.906 403.708 300.906 404.523V405.091H294.179V403.932H299.543C299.543 403.439 299.444 403 299.247 402.614C299.054 402.227 298.777 401.922 298.418 401.699C298.062 401.475 297.641 401.364 297.156 401.364C296.622 401.364 296.16 401.496 295.77 401.761C295.384 402.023 295.086 402.364 294.878 402.784C294.67 403.205 294.565 403.655 294.565 404.136V404.909C294.565 405.568 294.679 406.127 294.906 406.585C295.137 407.04 295.457 407.386 295.866 407.625C296.276 407.86 296.751 407.977 297.293 407.977C297.645 407.977 297.963 407.928 298.247 407.83C298.535 407.727 298.783 407.576 298.991 407.375C299.2 407.17 299.361 406.917 299.474 406.614L300.77 406.977C300.634 407.417 300.404 407.803 300.082 408.136C299.76 408.466 299.363 408.723 298.889 408.909C298.416 409.091 297.884 409.182 297.293 409.182ZM306.241 409.182C305.514 409.182 304.872 408.998 304.315 408.631C303.759 408.259 303.323 407.737 303.009 407.062C302.694 406.384 302.537 405.583 302.537 404.659C302.537 403.742 302.694 402.947 303.009 402.273C303.323 401.598 303.76 401.078 304.321 400.71C304.882 400.343 305.529 400.159 306.264 400.159C306.832 400.159 307.281 400.254 307.611 400.443C307.944 400.629 308.198 400.841 308.372 401.08C308.55 401.314 308.688 401.508 308.787 401.659H308.901V397.364H310.241V409H308.946V407.659H308.787C308.688 407.818 308.548 408.019 308.366 408.261C308.185 408.5 307.925 408.714 307.588 408.903C307.251 409.089 306.802 409.182 306.241 409.182ZM306.423 407.977C306.961 407.977 307.416 407.837 307.787 407.557C308.158 407.273 308.44 406.881 308.634 406.381C308.827 405.877 308.923 405.295 308.923 404.636C308.923 403.985 308.829 403.415 308.639 402.926C308.45 402.434 308.17 402.051 307.798 401.778C307.427 401.502 306.969 401.364 306.423 401.364C305.855 401.364 305.382 401.509 305.003 401.801C304.628 402.089 304.346 402.481 304.156 402.977C303.971 403.47 303.878 404.023 303.878 404.636C303.878 405.258 303.973 405.822 304.162 406.33C304.355 406.833 304.639 407.235 305.014 407.534C305.393 407.83 305.863 407.977 306.423 407.977ZM316.543 409.182C315.702 409.182 314.976 408.996 314.366 408.625C313.76 408.25 313.293 407.727 312.963 407.057C312.637 406.383 312.474 405.598 312.474 404.705C312.474 403.811 312.637 403.023 312.963 402.341C313.293 401.655 313.751 401.121 314.338 400.739C314.929 400.352 315.618 400.159 316.406 400.159C316.861 400.159 317.31 400.235 317.753 400.386C318.196 400.538 318.599 400.784 318.963 401.125C319.327 401.462 319.616 401.909 319.832 402.466C320.048 403.023 320.156 403.708 320.156 404.523V405.091H313.429V403.932H318.793C318.793 403.439 318.694 403 318.497 402.614C318.304 402.227 318.027 401.922 317.668 401.699C317.312 401.475 316.891 401.364 316.406 401.364C315.872 401.364 315.41 401.496 315.02 401.761C314.634 402.023 314.336 402.364 314.128 402.784C313.92 403.205 313.815 403.655 313.815 404.136V404.909C313.815 405.568 313.929 406.127 314.156 406.585C314.387 407.04 314.707 407.386 315.116 407.625C315.526 407.86 316.001 407.977 316.543 407.977C316.895 407.977 317.213 407.928 317.497 407.83C317.785 407.727 318.033 407.576 318.241 407.375C318.45 407.17 318.611 406.917 318.724 406.614L320.02 406.977C319.884 407.417 319.654 407.803 319.332 408.136C319.01 408.466 318.613 408.723 318.139 408.909C317.666 409.091 317.134 409.182 316.543 409.182ZM325.491 409.182C324.764 409.182 324.122 408.998 323.565 408.631C323.009 408.259 322.573 407.737 322.259 407.062C321.944 406.384 321.787 405.583 321.787 404.659C321.787 403.742 321.944 402.947 322.259 402.273C322.573 401.598 323.01 401.078 323.571 400.71C324.132 400.343 324.779 400.159 325.514 400.159C326.082 400.159 326.531 400.254 326.861 400.443C327.194 400.629 327.448 400.841 327.622 401.08C327.8 401.314 327.938 401.508 328.037 401.659H328.151V397.364H329.491V409H328.196V407.659H328.037C327.938 407.818 327.798 408.019 327.616 408.261C327.435 408.5 327.175 408.714 326.838 408.903C326.501 409.089 326.052 409.182 325.491 409.182ZM325.673 407.977C326.211 407.977 326.666 407.837 327.037 407.557C327.408 407.273 327.69 406.881 327.884 406.381C328.077 405.877 328.173 405.295 328.173 404.636C328.173 403.985 328.079 403.415 327.889 402.926C327.7 402.434 327.42 402.051 327.048 401.778C326.677 401.502 326.219 401.364 325.673 401.364C325.105 401.364 324.632 401.509 324.253 401.801C323.878 402.089 323.596 402.481 323.406 402.977C323.221 403.47 323.128 404.023 323.128 404.636C323.128 405.258 323.223 405.822 323.412 406.33C323.605 406.833 323.889 407.235 324.264 407.534C324.643 407.83 325.113 407.977 325.673 407.977Z" fill="#0C0E0F"/>
<defs>
<clipPath id="clip0_158_2016">
<rect width="32" height="32" fill="white" transform="translate(297 218)"/>
</clipPath>
</defs>
</svg>
