<svg width="519" height="423" viewBox="0 0 519 423" fill="none" xmlns="http://www.w3.org/2000/svg">
<rect width="519" height="423" rx="8" fill="white"/>
<rect x="0.5" y="0.5" width="518" height="422" rx="7.5" stroke="black" stroke-opacity="0.5"/>
<path d="M28.7734 338V354H25.3906V338H28.7734ZM34.8223 347.063V354H31.4941V342H34.666V344.117H34.8066C35.0723 343.419 35.5176 342.867 36.1426 342.461C36.7676 342.049 37.5254 341.844 38.416 341.844C39.2493 341.844 39.9759 342.026 40.5957 342.391C41.2155 342.755 41.6973 343.276 42.041 343.953C42.3848 344.625 42.5566 345.427 42.5566 346.359V354H39.2285V346.953C39.2337 346.219 39.0462 345.646 38.666 345.234C38.2858 344.818 37.7624 344.609 37.0957 344.609C36.6478 344.609 36.252 344.706 35.9082 344.898C35.5697 345.091 35.304 345.372 35.1113 345.742C34.9238 346.107 34.8275 346.547 34.8223 347.063ZM55.1641 345.422L52.1172 345.609C52.0651 345.349 51.9531 345.115 51.7813 344.906C51.6094 344.693 51.3828 344.523 51.1016 344.398C50.8255 344.268 50.4948 344.203 50.1094 344.203C49.5938 344.203 49.1589 344.312 48.8047 344.531C48.4505 344.745 48.2734 345.031 48.2734 345.391C48.2734 345.677 48.388 345.919 48.6172 346.117C48.8464 346.315 49.2396 346.474 49.7969 346.594L51.9688 347.031C53.1354 347.271 54.0052 347.656 54.5781 348.187C55.151 348.719 55.4375 349.417 55.4375 350.281C55.4375 351.068 55.2057 351.758 54.7422 352.352C54.2839 352.945 53.6536 353.409 52.8516 353.742C52.0547 354.07 51.1354 354.234 50.0938 354.234C48.5052 354.234 47.2396 353.904 46.2969 353.242C45.3594 352.576 44.8099 351.669 44.6484 350.523L47.9219 350.352C48.0208 350.836 48.2604 351.206 48.6406 351.461C49.0208 351.711 49.5078 351.836 50.1016 351.836C50.6849 351.836 51.1536 351.724 51.5078 351.5C51.8672 351.271 52.0495 350.977 52.0547 350.617C52.0495 350.315 51.9219 350.068 51.6719 349.875C51.4219 349.677 51.0365 349.526 50.5156 349.422L48.4375 349.008C47.2656 348.773 46.3932 348.367 45.8203 347.789C45.2526 347.211 44.9688 346.474 44.9688 345.578C44.9688 344.807 45.1771 344.143 45.5938 343.586C46.0156 343.029 46.6068 342.599 47.3672 342.297C48.1328 341.995 49.0286 341.844 50.0547 341.844C51.5703 341.844 52.763 342.164 53.6328 342.805C54.5078 343.445 55.0182 344.318 55.1641 345.422ZM63.916 342V344.5H56.6895V342H63.916ZM58.3301 339.125H61.6582V350.312C61.6582 350.62 61.7051 350.859 61.7988 351.031C61.8926 351.198 62.0228 351.315 62.1895 351.383C62.3613 351.451 62.5592 351.484 62.7832 351.484C62.9395 351.484 63.0957 351.471 63.252 351.445C63.4082 351.414 63.528 351.391 63.6113 351.375L64.1348 353.852C63.9681 353.904 63.7337 353.964 63.4316 354.031C63.1296 354.104 62.7624 354.148 62.3301 354.164C61.528 354.195 60.8249 354.089 60.2207 353.844C59.6217 353.599 59.1556 353.219 58.8223 352.703C58.4889 352.187 58.3249 351.536 58.3301 350.75V339.125ZM69.5059 354.227C68.7402 354.227 68.0579 354.094 67.459 353.828C66.86 353.557 66.3861 353.159 66.0371 352.633C65.6934 352.102 65.5215 351.44 65.5215 350.648C65.5215 349.982 65.6439 349.422 65.8887 348.969C66.1335 348.516 66.4668 348.151 66.8887 347.875C67.3105 347.599 67.7897 347.391 68.3262 347.25C68.8678 347.109 69.4355 347.01 70.0293 346.953C70.7272 346.88 71.2897 346.812 71.7168 346.75C72.1439 346.682 72.4538 346.583 72.6465 346.453C72.8392 346.323 72.9355 346.13 72.9355 345.875V345.828C72.9355 345.333 72.7793 344.951 72.4668 344.68C72.1595 344.409 71.722 344.273 71.1543 344.273C70.5553 344.273 70.0788 344.406 69.7246 344.672C69.3704 344.932 69.1361 345.26 69.0215 345.656L65.9434 345.406C66.0996 344.677 66.4069 344.047 66.8652 343.516C67.3236 342.979 67.9147 342.568 68.6387 342.281C69.3678 341.99 70.2116 341.844 71.1699 341.844C71.8366 341.844 72.4746 341.922 73.084 342.078C73.6986 342.234 74.2428 342.477 74.7168 342.805C75.196 343.133 75.5736 343.555 75.8496 344.07C76.1257 344.581 76.2637 345.193 76.2637 345.906V354H73.1074V352.336H73.0137C72.821 352.711 72.5632 353.042 72.2402 353.328C71.9173 353.609 71.5293 353.831 71.0762 353.992C70.623 354.148 70.0996 354.227 69.5059 354.227ZM70.459 351.93C70.9486 351.93 71.3809 351.833 71.7559 351.641C72.1309 351.443 72.4251 351.177 72.6387 350.844C72.8522 350.51 72.959 350.133 72.959 349.711V348.438C72.8548 348.505 72.7116 348.568 72.5293 348.625C72.3522 348.677 72.1517 348.727 71.9277 348.773C71.7038 348.815 71.4798 348.854 71.2559 348.891C71.0319 348.922 70.8288 348.951 70.6465 348.977C70.2559 349.034 69.9147 349.125 69.623 349.25C69.3314 349.375 69.1048 349.544 68.9434 349.758C68.7819 349.966 68.7012 350.227 68.7012 350.539C68.7012 350.992 68.8652 351.339 69.1934 351.578C69.5267 351.812 69.9486 351.93 70.459 351.93ZM82.1738 347.063V354H78.8457V342H82.0176V344.117H82.1582C82.4238 343.419 82.8691 342.867 83.4941 342.461C84.1191 342.049 84.877 341.844 85.7676 341.844C86.6009 341.844 87.3275 342.026 87.9473 342.391C88.5671 342.755 89.0488 343.276 89.3926 343.953C89.7363 344.625 89.9082 345.427 89.9082 346.359V354H86.5801V346.953C86.5853 346.219 86.3978 345.646 86.0176 345.234C85.6374 344.818 85.1139 344.609 84.4473 344.609C83.9993 344.609 83.6035 344.706 83.2598 344.898C82.9212 345.091 82.6556 345.372 82.4629 345.742C82.2754 346.107 82.179 346.547 82.1738 347.063ZM98.9141 342V344.5H91.6875V342H98.9141ZM93.3281 339.125H96.6563V350.312C96.6563 350.62 96.7031 350.859 96.7969 351.031C96.8906 351.198 97.0208 351.315 97.1875 351.383C97.3594 351.451 97.5573 351.484 97.7813 351.484C97.9375 351.484 98.0938 351.471 98.25 351.445C98.4062 351.414 98.526 351.391 98.6094 351.375L99.1328 353.852C98.9661 353.904 98.7318 353.964 98.4297 354.031C98.1276 354.104 97.7604 354.148 97.3281 354.164C96.526 354.195 95.8229 354.089 95.2188 353.844C94.6198 353.599 94.1536 353.219 93.8203 352.703C93.487 352.187 93.3229 351.536 93.3281 350.75V339.125ZM108.994 354H105.369L110.893 338H115.252L120.768 354H117.143L113.135 341.656H113.01L108.994 354ZM108.768 347.711H117.33V350.352H108.768V347.711ZM127.494 354.234C126.265 354.234 125.208 353.974 124.322 353.453C123.442 352.927 122.765 352.198 122.291 351.266C121.822 350.333 121.588 349.26 121.588 348.047C121.588 346.818 121.825 345.74 122.299 344.812C122.778 343.88 123.458 343.154 124.338 342.633C125.218 342.107 126.265 341.844 127.479 341.844C128.525 341.844 129.442 342.034 130.229 342.414C131.015 342.794 131.637 343.328 132.096 344.016C132.554 344.703 132.807 345.51 132.854 346.438H129.713C129.624 345.839 129.39 345.357 129.01 344.992C128.635 344.622 128.143 344.437 127.533 344.437C127.018 344.437 126.567 344.578 126.182 344.859C125.801 345.135 125.505 345.539 125.291 346.07C125.077 346.602 124.971 347.245 124.971 348C124.971 348.766 125.075 349.417 125.283 349.953C125.497 350.49 125.796 350.898 126.182 351.18C126.567 351.461 127.018 351.602 127.533 351.602C127.913 351.602 128.255 351.523 128.557 351.367C128.864 351.211 129.117 350.984 129.314 350.687C129.518 350.385 129.65 350.023 129.713 349.602H132.854C132.801 350.518 132.551 351.326 132.104 352.023C131.661 352.716 131.049 353.258 130.268 353.648C129.486 354.039 128.562 354.234 127.494 354.234ZM140.406 354.234C139.177 354.234 138.12 353.974 137.234 353.453C136.354 352.927 135.677 352.198 135.203 351.266C134.734 350.333 134.5 349.26 134.5 348.047C134.5 346.818 134.737 345.74 135.211 344.812C135.69 343.88 136.37 343.154 137.25 342.633C138.13 342.107 139.177 341.844 140.391 341.844C141.438 341.844 142.354 342.034 143.141 342.414C143.927 342.794 144.549 343.328 145.008 344.016C145.466 344.703 145.719 345.51 145.766 346.438H142.625C142.536 345.839 142.302 345.357 141.922 344.992C141.547 344.622 141.055 344.437 140.445 344.437C139.93 344.437 139.479 344.578 139.094 344.859C138.714 345.135 138.417 345.539 138.203 346.07C137.99 346.602 137.883 347.245 137.883 348C137.883 348.766 137.987 349.417 138.195 349.953C138.409 350.49 138.708 350.898 139.094 351.18C139.479 351.461 139.93 351.602 140.445 351.602C140.826 351.602 141.167 351.523 141.469 351.367C141.776 351.211 142.029 350.984 142.227 350.687C142.43 350.385 142.563 350.023 142.625 349.602H145.766C145.714 350.518 145.464 351.326 145.016 352.023C144.573 352.716 143.961 353.258 143.18 353.648C142.398 354.039 141.474 354.234 140.406 354.234ZM153.365 354.234C152.131 354.234 151.068 353.984 150.178 353.484C149.292 352.979 148.61 352.266 148.131 351.344C147.652 350.417 147.412 349.32 147.412 348.055C147.412 346.82 147.652 345.737 148.131 344.805C148.61 343.872 149.285 343.146 150.154 342.625C151.029 342.104 152.055 341.844 153.232 341.844C154.024 341.844 154.761 341.971 155.443 342.227C156.131 342.477 156.73 342.854 157.24 343.359C157.756 343.865 158.157 344.5 158.443 345.266C158.73 346.026 158.873 346.917 158.873 347.937V348.852H148.74V346.789H155.74C155.74 346.31 155.636 345.885 155.428 345.516C155.219 345.146 154.93 344.857 154.561 344.648C154.196 344.435 153.771 344.328 153.287 344.328C152.782 344.328 152.334 344.445 151.943 344.68C151.558 344.909 151.256 345.219 151.037 345.609C150.818 345.995 150.706 346.424 150.701 346.898V348.859C150.701 349.453 150.811 349.966 151.029 350.398C151.253 350.831 151.568 351.164 151.975 351.398C152.381 351.633 152.863 351.75 153.42 351.75C153.79 351.75 154.128 351.698 154.436 351.594C154.743 351.49 155.006 351.333 155.225 351.125C155.443 350.917 155.61 350.661 155.725 350.359L158.803 350.562C158.646 351.302 158.326 351.948 157.842 352.5C157.363 353.047 156.743 353.474 155.982 353.781C155.227 354.083 154.355 354.234 153.365 354.234ZM171.029 345.422L167.982 345.609C167.93 345.349 167.818 345.115 167.646 344.906C167.475 344.693 167.248 344.523 166.967 344.398C166.691 344.268 166.36 344.203 165.975 344.203C165.459 344.203 165.024 344.312 164.67 344.531C164.316 344.745 164.139 345.031 164.139 345.391C164.139 345.677 164.253 345.919 164.482 346.117C164.712 346.315 165.105 346.474 165.662 346.594L167.834 347.031C169.001 347.271 169.87 347.656 170.443 348.187C171.016 348.719 171.303 349.417 171.303 350.281C171.303 351.068 171.071 351.758 170.607 352.352C170.149 352.945 169.519 353.409 168.717 353.742C167.92 354.07 167.001 354.234 165.959 354.234C164.37 354.234 163.105 353.904 162.162 353.242C161.225 352.576 160.675 351.669 160.514 350.523L163.787 350.352C163.886 350.836 164.126 351.206 164.506 351.461C164.886 351.711 165.373 351.836 165.967 351.836C166.55 351.836 167.019 351.724 167.373 351.5C167.732 351.271 167.915 350.977 167.92 350.617C167.915 350.315 167.787 350.068 167.537 349.875C167.287 349.677 166.902 349.526 166.381 349.422L164.303 349.008C163.131 348.773 162.258 348.367 161.686 347.789C161.118 347.211 160.834 346.474 160.834 345.578C160.834 344.807 161.042 344.143 161.459 343.586C161.881 343.029 162.472 342.599 163.232 342.297C163.998 341.995 164.894 341.844 165.92 341.844C167.436 341.844 168.628 342.164 169.498 342.805C170.373 343.445 170.883 344.318 171.029 345.422ZM183.383 345.422L180.336 345.609C180.284 345.349 180.172 345.115 180 344.906C179.828 344.693 179.602 344.523 179.32 344.398C179.044 344.268 178.714 344.203 178.328 344.203C177.813 344.203 177.378 344.312 177.023 344.531C176.669 344.745 176.492 345.031 176.492 345.391C176.492 345.677 176.607 345.919 176.836 346.117C177.065 346.315 177.458 346.474 178.016 346.594L180.188 347.031C181.354 347.271 182.224 347.656 182.797 348.187C183.37 348.719 183.656 349.417 183.656 350.281C183.656 351.068 183.424 351.758 182.961 352.352C182.503 352.945 181.872 353.409 181.07 353.742C180.273 354.07 179.354 354.234 178.313 354.234C176.724 354.234 175.458 353.904 174.516 353.242C173.578 352.576 173.029 351.669 172.867 350.523L176.141 350.352C176.24 350.836 176.479 351.206 176.859 351.461C177.24 351.711 177.727 351.836 178.32 351.836C178.904 351.836 179.372 351.724 179.727 351.5C180.086 351.271 180.268 350.977 180.273 350.617C180.268 350.315 180.141 350.068 179.891 349.875C179.641 349.677 179.255 349.526 178.734 349.422L176.656 349.008C175.484 348.773 174.612 348.367 174.039 347.789C173.471 347.211 173.188 346.474 173.188 345.578C173.188 344.807 173.396 344.143 173.813 343.586C174.234 343.029 174.826 342.599 175.586 342.297C176.352 341.995 177.247 341.844 178.273 341.844C179.789 341.844 180.982 342.164 181.852 342.805C182.727 343.445 183.237 344.318 183.383 345.422Z" fill="#0C0E0F"/>
<path d="M34.6364 379.364V391H33.2727L26.9318 381.864H26.8182V391H25.4091V379.364H26.7727L33.1364 388.523H33.25V379.364H34.6364ZM40.8196 391.182C40.0317 391.182 39.3404 390.994 38.7457 390.619C38.1548 390.244 37.6927 389.72 37.3594 389.045C37.0298 388.371 36.8651 387.583 36.8651 386.682C36.8651 385.773 37.0298 384.979 37.3594 384.301C37.6927 383.623 38.1548 383.097 38.7457 382.722C39.3404 382.347 40.0317 382.159 40.8196 382.159C41.6075 382.159 42.2969 382.347 42.8878 382.722C43.4825 383.097 43.9446 383.623 44.2741 384.301C44.6075 384.979 44.7741 385.773 44.7741 386.682C44.7741 387.583 44.6075 388.371 44.2741 389.045C43.9446 389.72 43.4825 390.244 42.8878 390.619C42.2969 390.994 41.6075 391.182 40.8196 391.182ZM40.8196 389.977C41.4181 389.977 41.9105 389.824 42.2969 389.517C42.6832 389.21 42.9692 388.807 43.1548 388.307C43.3404 387.807 43.4332 387.265 43.4332 386.682C43.4332 386.098 43.3404 385.555 43.1548 385.051C42.9692 384.547 42.6832 384.14 42.2969 383.83C41.9105 383.519 41.4181 383.364 40.8196 383.364C40.2211 383.364 39.7287 383.519 39.3423 383.83C38.956 384.14 38.67 384.547 38.4844 385.051C38.2988 385.555 38.206 386.098 38.206 386.682C38.206 387.265 38.2988 387.807 38.4844 388.307C38.67 388.807 38.956 389.21 39.3423 389.517C39.7287 389.824 40.2211 389.977 40.8196 389.977ZM51.321 391V382.273H52.6619V391H51.321ZM52.0028 380.818C51.7415 380.818 51.5161 380.729 51.3267 380.551C51.1411 380.373 51.0483 380.159 51.0483 379.909C51.0483 379.659 51.1411 379.445 51.3267 379.267C51.5161 379.089 51.7415 379 52.0028 379C52.2642 379 52.4877 379.089 52.6733 379.267C52.8627 379.445 52.9574 379.659 52.9574 379.909C52.9574 380.159 52.8627 380.373 52.6733 380.551C52.4877 380.729 52.2642 380.818 52.0028 380.818ZM56.4588 385.75V391H55.1179V382.273H56.4134V383.636H56.527C56.7315 383.193 57.0421 382.837 57.4588 382.568C57.8755 382.295 58.4134 382.159 59.0724 382.159C59.6634 382.159 60.1804 382.28 60.6236 382.523C61.0668 382.761 61.4115 383.125 61.6577 383.614C61.9039 384.098 62.027 384.712 62.027 385.455V391H60.6861V385.545C60.6861 384.86 60.508 384.326 60.152 383.943C59.7959 383.557 59.3073 383.364 58.6861 383.364C58.258 383.364 57.8755 383.456 57.5384 383.642C57.205 383.828 56.9418 384.098 56.7486 384.455C56.5554 384.811 56.4588 385.242 56.4588 385.75ZM70.6591 384.227L69.4545 384.568C69.3788 384.367 69.267 384.172 69.1193 383.983C68.9754 383.79 68.7784 383.631 68.5284 383.506C68.2784 383.381 67.9583 383.318 67.5682 383.318C67.0341 383.318 66.589 383.441 66.233 383.688C65.8807 383.93 65.7045 384.239 65.7045 384.614C65.7045 384.947 65.8258 385.21 66.0682 385.403C66.3106 385.597 66.6894 385.758 67.2045 385.886L68.5 386.205C69.2803 386.394 69.8617 386.684 70.2443 387.074C70.6269 387.46 70.8182 387.958 70.8182 388.568C70.8182 389.068 70.6742 389.515 70.3864 389.909C70.1023 390.303 69.7045 390.614 69.1932 390.841C68.6818 391.068 68.0871 391.182 67.4091 391.182C66.5189 391.182 65.7822 390.989 65.1989 390.602C64.6155 390.216 64.2462 389.652 64.0909 388.909L65.3636 388.591C65.4848 389.061 65.714 389.413 66.0511 389.648C66.392 389.883 66.8371 390 67.3864 390C68.0114 390 68.5076 389.867 68.875 389.602C69.2462 389.333 69.4318 389.011 69.4318 388.636C69.4318 388.333 69.3258 388.08 69.1136 387.875C68.9015 387.667 68.5758 387.511 68.1364 387.409L66.6818 387.068C65.8826 386.879 65.2955 386.585 64.9205 386.188C64.5492 385.786 64.3636 385.284 64.3636 384.682C64.3636 384.189 64.5019 383.754 64.7784 383.375C65.0587 382.996 65.4394 382.699 65.9205 382.483C66.4053 382.267 66.9545 382.159 67.5682 382.159C68.4318 382.159 69.1098 382.348 69.6023 382.727C70.0985 383.106 70.4508 383.606 70.6591 384.227ZM76.6321 382.273V383.409H72.1094V382.273H76.6321ZM73.4276 380.182H74.7685V388.5C74.7685 388.879 74.8234 389.163 74.9332 389.352C75.0469 389.538 75.1908 389.663 75.3651 389.727C75.5431 389.788 75.7306 389.818 75.9276 389.818C76.0753 389.818 76.1965 389.811 76.2912 389.795C76.3859 389.777 76.4616 389.761 76.5185 389.75L76.7912 390.955C76.7003 390.989 76.5734 391.023 76.4105 391.057C76.2476 391.095 76.0412 391.114 75.7912 391.114C75.4124 391.114 75.0412 391.032 74.6776 390.869C74.3177 390.706 74.0185 390.458 73.7798 390.125C73.545 389.792 73.4276 389.371 73.4276 388.864V380.182ZM81.2173 391.205C80.6643 391.205 80.1624 391.1 79.7116 390.892C79.2609 390.68 78.9029 390.375 78.6378 389.977C78.3726 389.576 78.2401 389.091 78.2401 388.523C78.2401 388.023 78.3385 387.617 78.5355 387.307C78.7325 386.992 78.9957 386.746 79.3253 386.568C79.6548 386.39 80.0185 386.258 80.4162 386.17C80.8177 386.08 81.2211 386.008 81.6264 385.955C82.1567 385.886 82.5866 385.835 82.9162 385.801C83.2495 385.763 83.492 385.701 83.6435 385.614C83.7988 385.527 83.8764 385.375 83.8764 385.159V385.114C83.8764 384.553 83.723 384.117 83.4162 383.807C83.1132 383.496 82.6529 383.341 82.0355 383.341C81.3954 383.341 80.8935 383.481 80.5298 383.761C80.1662 384.042 79.9105 384.341 79.7628 384.659L78.4901 384.205C78.7173 383.674 79.0204 383.261 79.3991 382.966C79.7817 382.667 80.1984 382.458 80.6491 382.341C81.1037 382.22 81.5507 382.159 81.9901 382.159C82.2704 382.159 82.5923 382.193 82.956 382.261C83.3234 382.326 83.6776 382.46 84.0185 382.665C84.3632 382.869 84.6491 383.178 84.8764 383.591C85.1037 384.004 85.2173 384.557 85.2173 385.25V391H83.8764V389.818H83.8082C83.7173 390.008 83.5658 390.21 83.3537 390.426C83.1416 390.642 82.8594 390.826 82.5071 390.977C82.1548 391.129 81.7249 391.205 81.2173 391.205ZM81.4219 390C81.9522 390 82.3991 389.896 82.7628 389.688C83.1302 389.479 83.4067 389.21 83.5923 388.881C83.7817 388.551 83.8764 388.205 83.8764 387.841V386.614C83.8196 386.682 83.6946 386.744 83.5014 386.801C83.312 386.854 83.0923 386.902 82.8423 386.943C82.5961 386.981 82.3556 387.015 82.1207 387.045C81.8897 387.072 81.7022 387.095 81.5582 387.114C81.2098 387.159 80.884 387.233 80.581 387.335C80.2817 387.434 80.0393 387.583 79.8537 387.784C79.6719 387.981 79.581 388.25 79.581 388.591C79.581 389.057 79.7533 389.409 80.098 389.648C80.4465 389.883 80.8878 390 81.4219 390ZM89.0057 379.364V391H87.6648V379.364H89.0057ZM92.8026 379.364V391H91.4616V379.364H92.8026ZM97.8267 391.205C97.2737 391.205 96.7718 391.1 96.321 390.892C95.8703 390.68 95.5123 390.375 95.2472 389.977C94.982 389.576 94.8494 389.091 94.8494 388.523C94.8494 388.023 94.9479 387.617 95.1449 387.307C95.3419 386.992 95.6051 386.746 95.9347 386.568C96.2642 386.39 96.6278 386.258 97.0256 386.17C97.4271 386.08 97.8305 386.008 98.2358 385.955C98.7661 385.886 99.196 385.835 99.5256 385.801C99.8589 385.763 100.101 385.701 100.253 385.614C100.408 385.527 100.486 385.375 100.486 385.159V385.114C100.486 384.553 100.332 384.117 100.026 383.807C99.7225 383.496 99.2623 383.341 98.6449 383.341C98.0047 383.341 97.5028 383.481 97.1392 383.761C96.7756 384.042 96.5199 384.341 96.3722 384.659L95.0994 384.205C95.3267 383.674 95.6297 383.261 96.0085 382.966C96.3911 382.667 96.8078 382.458 97.2585 382.341C97.7131 382.22 98.16 382.159 98.5994 382.159C98.8797 382.159 99.2017 382.193 99.5653 382.261C99.9328 382.326 100.287 382.46 100.628 382.665C100.973 382.869 101.259 383.178 101.486 383.591C101.713 384.004 101.827 384.557 101.827 385.25V391H100.486V389.818H100.418C100.327 390.008 100.175 390.21 99.9631 390.426C99.7509 390.642 99.4688 390.826 99.1165 390.977C98.7642 391.129 98.3343 391.205 97.8267 391.205ZM98.0312 390C98.5616 390 99.0085 389.896 99.3722 389.688C99.7396 389.479 100.016 389.21 100.202 388.881C100.391 388.551 100.486 388.205 100.486 387.841V386.614C100.429 386.682 100.304 386.744 100.111 386.801C99.9214 386.854 99.7017 386.902 99.4517 386.943C99.2055 386.981 98.965 387.015 98.7301 387.045C98.4991 387.072 98.3116 387.095 98.1676 387.114C97.8191 387.159 97.4934 387.233 97.1903 387.335C96.8911 387.434 96.6487 387.583 96.4631 387.784C96.2813 387.981 96.1903 388.25 96.1903 388.591C96.1903 389.057 96.3627 389.409 96.7074 389.648C97.0559 389.883 97.4972 390 98.0312 390ZM108.07 382.273V383.409H103.547V382.273H108.07ZM104.865 380.182H106.206V388.5C106.206 388.879 106.261 389.163 106.371 389.352C106.484 389.538 106.628 389.663 106.803 389.727C106.981 389.788 107.168 389.818 107.365 389.818C107.513 389.818 107.634 389.811 107.729 389.795C107.823 389.777 107.899 389.761 107.956 389.75L108.229 390.955C108.138 390.989 108.011 391.023 107.848 391.057C107.685 391.095 107.479 391.114 107.229 391.114C106.85 391.114 106.479 391.032 106.115 390.869C105.755 390.706 105.456 390.458 105.217 390.125C104.982 389.792 104.865 389.371 104.865 388.864V380.182ZM110.087 391V382.273H111.428V391H110.087ZM110.768 380.818C110.507 380.818 110.282 380.729 110.092 380.551C109.907 380.373 109.814 380.159 109.814 379.909C109.814 379.659 109.907 379.445 110.092 379.267C110.282 379.089 110.507 379 110.768 379C111.03 379 111.253 379.089 111.439 379.267C111.628 379.445 111.723 379.659 111.723 379.909C111.723 380.159 111.628 380.373 111.439 380.551C111.253 380.729 111.03 380.818 110.768 380.818ZM117.429 391.182C116.641 391.182 115.95 390.994 115.355 390.619C114.764 390.244 114.302 389.72 113.969 389.045C113.639 388.371 113.474 387.583 113.474 386.682C113.474 385.773 113.639 384.979 113.969 384.301C114.302 383.623 114.764 383.097 115.355 382.722C115.95 382.347 116.641 382.159 117.429 382.159C118.217 382.159 118.906 382.347 119.497 382.722C120.092 383.097 120.554 383.623 120.884 384.301C121.217 384.979 121.384 385.773 121.384 386.682C121.384 387.583 121.217 388.371 120.884 389.045C120.554 389.72 120.092 390.244 119.497 390.619C118.906 390.994 118.217 391.182 117.429 391.182ZM117.429 389.977C118.027 389.977 118.52 389.824 118.906 389.517C119.293 389.21 119.579 388.807 119.764 388.307C119.95 387.807 120.043 387.265 120.043 386.682C120.043 386.098 119.95 385.555 119.764 385.051C119.579 384.547 119.293 384.14 118.906 383.83C118.52 383.519 118.027 383.364 117.429 383.364C116.83 383.364 116.338 383.519 115.952 383.83C115.565 384.14 115.279 384.547 115.094 385.051C114.908 385.555 114.815 386.098 114.815 386.682C114.815 387.265 114.908 387.807 115.094 388.307C115.279 388.807 115.565 389.21 115.952 389.517C116.338 389.824 116.83 389.977 117.429 389.977ZM124.771 385.75V391H123.43V382.273H124.726V383.636H124.839C125.044 383.193 125.355 382.837 125.771 382.568C126.188 382.295 126.726 382.159 127.385 382.159C127.976 382.159 128.493 382.28 128.936 382.523C129.379 382.761 129.724 383.125 129.97 383.614C130.216 384.098 130.339 384.712 130.339 385.455V391H128.999V385.545C128.999 384.86 128.821 384.326 128.464 383.943C128.108 383.557 127.62 383.364 126.999 383.364C126.571 383.364 126.188 383.456 125.851 383.642C125.518 383.828 125.254 384.098 125.061 384.455C124.868 384.811 124.771 385.242 124.771 385.75ZM138.972 384.227L137.767 384.568C137.691 384.367 137.58 384.172 137.432 383.983C137.288 383.79 137.091 383.631 136.841 383.506C136.591 383.381 136.271 383.318 135.881 383.318C135.347 383.318 134.902 383.441 134.545 383.688C134.193 383.93 134.017 384.239 134.017 384.614C134.017 384.947 134.138 385.21 134.381 385.403C134.623 385.597 135.002 385.758 135.517 385.886L136.812 386.205C137.593 386.394 138.174 386.684 138.557 387.074C138.939 387.46 139.131 387.958 139.131 388.568C139.131 389.068 138.987 389.515 138.699 389.909C138.415 390.303 138.017 390.614 137.506 390.841C136.994 391.068 136.4 391.182 135.722 391.182C134.831 391.182 134.095 390.989 133.511 390.602C132.928 390.216 132.559 389.652 132.403 388.909L133.676 388.591C133.797 389.061 134.027 389.413 134.364 389.648C134.705 389.883 135.15 390 135.699 390C136.324 390 136.82 389.867 137.188 389.602C137.559 389.333 137.744 389.011 137.744 388.636C137.744 388.333 137.638 388.08 137.426 387.875C137.214 387.667 136.888 387.511 136.449 387.409L134.994 387.068C134.195 386.879 133.608 386.585 133.233 386.188C132.862 385.786 132.676 385.284 132.676 384.682C132.676 384.189 132.814 383.754 133.091 383.375C133.371 382.996 133.752 382.699 134.233 382.483C134.718 382.267 135.267 382.159 135.881 382.159C136.744 382.159 137.422 382.348 137.915 382.727C138.411 383.106 138.763 383.606 138.972 384.227ZM149.195 391.182C148.407 391.182 147.715 390.994 147.121 390.619C146.53 390.244 146.068 389.72 145.734 389.045C145.405 388.371 145.24 387.583 145.24 386.682C145.24 385.773 145.405 384.979 145.734 384.301C146.068 383.623 146.53 383.097 147.121 382.722C147.715 382.347 148.407 382.159 149.195 382.159C149.982 382.159 150.672 382.347 151.263 382.722C151.857 383.097 152.32 383.623 152.649 384.301C152.982 384.979 153.149 385.773 153.149 386.682C153.149 387.583 152.982 388.371 152.649 389.045C152.32 389.72 151.857 390.244 151.263 390.619C150.672 390.994 149.982 391.182 149.195 391.182ZM149.195 389.977C149.793 389.977 150.286 389.824 150.672 389.517C151.058 389.21 151.344 388.807 151.53 388.307C151.715 387.807 151.808 387.265 151.808 386.682C151.808 386.098 151.715 385.555 151.53 385.051C151.344 384.547 151.058 384.14 150.672 383.83C150.286 383.519 149.793 383.364 149.195 383.364C148.596 383.364 148.104 383.519 147.717 383.83C147.331 384.14 147.045 384.547 146.859 385.051C146.674 385.555 146.581 386.098 146.581 386.682C146.581 387.265 146.674 387.807 146.859 388.307C147.045 388.807 147.331 389.21 147.717 389.517C148.104 389.824 148.596 389.977 149.195 389.977ZM155.196 391V382.273H156.491V383.591H156.582C156.741 383.159 157.029 382.809 157.446 382.54C157.863 382.271 158.332 382.136 158.855 382.136C158.954 382.136 159.077 382.138 159.224 382.142C159.372 382.146 159.484 382.152 159.56 382.159V383.523C159.514 383.511 159.41 383.494 159.247 383.472C159.088 383.445 158.92 383.432 158.741 383.432C158.317 383.432 157.938 383.521 157.605 383.699C157.276 383.873 157.014 384.116 156.821 384.426C156.632 384.733 156.537 385.083 156.537 385.477V391H155.196ZM168.217 391.205C167.664 391.205 167.162 391.1 166.712 390.892C166.261 390.68 165.903 390.375 165.638 389.977C165.373 389.576 165.24 389.091 165.24 388.523C165.24 388.023 165.339 387.617 165.536 387.307C165.732 386.992 165.996 386.746 166.325 386.568C166.655 386.39 167.018 386.258 167.416 386.17C167.818 386.08 168.221 386.008 168.626 385.955C169.157 385.886 169.587 385.835 169.916 385.801C170.25 385.763 170.492 385.701 170.643 385.614C170.799 385.527 170.876 385.375 170.876 385.159V385.114C170.876 384.553 170.723 384.117 170.416 383.807C170.113 383.496 169.653 383.341 169.036 383.341C168.395 383.341 167.893 383.481 167.53 383.761C167.166 384.042 166.911 384.341 166.763 384.659L165.49 384.205C165.717 383.674 166.02 383.261 166.399 382.966C166.782 382.667 167.198 382.458 167.649 382.341C168.104 382.22 168.551 382.159 168.99 382.159C169.27 382.159 169.592 382.193 169.956 382.261C170.323 382.326 170.678 382.46 171.018 382.665C171.363 382.869 171.649 383.178 171.876 383.591C172.104 384.004 172.217 384.557 172.217 385.25V391H170.876V389.818H170.808C170.717 390.008 170.566 390.21 170.354 390.426C170.142 390.642 169.859 390.826 169.507 390.977C169.155 391.129 168.725 391.205 168.217 391.205ZM168.422 390C168.952 390 169.399 389.896 169.763 389.688C170.13 389.479 170.407 389.21 170.592 388.881C170.782 388.551 170.876 388.205 170.876 387.841V386.614C170.82 386.682 170.695 386.744 170.501 386.801C170.312 386.854 170.092 386.902 169.842 386.943C169.596 386.981 169.356 387.015 169.121 387.045C168.89 387.072 168.702 387.095 168.558 387.114C168.21 387.159 167.884 387.233 167.581 387.335C167.282 387.434 167.039 387.583 166.854 387.784C166.672 387.981 166.581 388.25 166.581 388.591C166.581 389.057 166.753 389.409 167.098 389.648C167.446 389.883 167.888 390 168.422 390ZM177.96 391.182C177.233 391.182 176.591 390.998 176.034 390.631C175.477 390.259 175.042 389.737 174.727 389.062C174.413 388.384 174.256 387.583 174.256 386.659C174.256 385.742 174.413 384.947 174.727 384.273C175.042 383.598 175.479 383.078 176.04 382.71C176.6 382.343 177.248 382.159 177.983 382.159C178.551 382.159 179 382.254 179.33 382.443C179.663 382.629 179.917 382.841 180.091 383.08C180.269 383.314 180.407 383.508 180.506 383.659H180.619V379.364H181.96V391H180.665V389.659H180.506C180.407 389.818 180.267 390.019 180.085 390.261C179.903 390.5 179.644 390.714 179.307 390.903C178.97 391.089 178.521 391.182 177.96 391.182ZM178.142 389.977C178.68 389.977 179.134 389.837 179.506 389.557C179.877 389.273 180.159 388.881 180.352 388.381C180.545 387.877 180.642 387.295 180.642 386.636C180.642 385.985 180.547 385.415 180.358 384.926C180.169 384.434 179.888 384.051 179.517 383.778C179.146 383.502 178.688 383.364 178.142 383.364C177.574 383.364 177.1 383.509 176.722 383.801C176.347 384.089 176.064 384.481 175.875 384.977C175.689 385.47 175.597 386.023 175.597 386.636C175.597 387.258 175.691 387.822 175.881 388.33C176.074 388.833 176.358 389.235 176.733 389.534C177.112 389.83 177.581 389.977 178.142 389.977ZM184.602 382.273H185.943V391.636C185.943 392.174 185.85 392.64 185.665 393.034C185.483 393.428 185.206 393.733 184.835 393.949C184.468 394.165 184.004 394.273 183.443 394.273C183.398 394.273 183.352 394.273 183.307 394.273C183.261 394.273 183.216 394.273 183.17 394.273V393.023C183.216 393.023 183.258 393.023 183.295 393.023C183.333 393.023 183.375 393.023 183.42 393.023C183.83 393.023 184.129 392.902 184.318 392.659C184.508 392.42 184.602 392.08 184.602 391.636V382.273ZM185.261 380.818C185 380.818 184.775 380.729 184.585 380.551C184.4 380.373 184.307 380.159 184.307 379.909C184.307 379.659 184.4 379.445 184.585 379.267C184.775 379.089 185 379 185.261 379C185.523 379 185.746 379.089 185.932 379.267C186.121 379.445 186.216 379.659 186.216 379.909C186.216 380.159 186.121 380.373 185.932 380.551C185.746 380.729 185.523 380.818 185.261 380.818ZM193.899 387.432V382.273H195.24V391H193.899V389.523H193.808C193.604 389.966 193.286 390.343 192.854 390.653C192.422 390.96 191.876 391.114 191.217 391.114C190.672 391.114 190.187 390.994 189.763 390.756C189.339 390.513 189.005 390.15 188.763 389.665C188.52 389.176 188.399 388.561 188.399 387.818V382.273H189.74V387.727C189.74 388.364 189.918 388.871 190.274 389.25C190.634 389.629 191.092 389.818 191.649 389.818C191.982 389.818 192.321 389.733 192.666 389.562C193.015 389.392 193.306 389.131 193.541 388.778C193.78 388.426 193.899 387.977 193.899 387.432ZM203.878 384.227L202.673 384.568C202.598 384.367 202.486 384.172 202.338 383.983C202.194 383.79 201.997 383.631 201.747 383.506C201.497 383.381 201.177 383.318 200.787 383.318C200.253 383.318 199.808 383.441 199.452 383.688C199.099 383.93 198.923 384.239 198.923 384.614C198.923 384.947 199.045 385.21 199.287 385.403C199.529 385.597 199.908 385.758 200.423 385.886L201.719 386.205C202.499 386.394 203.08 386.684 203.463 387.074C203.846 387.46 204.037 387.958 204.037 388.568C204.037 389.068 203.893 389.515 203.605 389.909C203.321 390.303 202.923 390.614 202.412 390.841C201.901 391.068 201.306 391.182 200.628 391.182C199.738 391.182 199.001 390.989 198.418 390.602C197.834 390.216 197.465 389.652 197.31 388.909L198.582 388.591C198.704 389.061 198.933 389.413 199.27 389.648C199.611 389.883 200.056 390 200.605 390C201.23 390 201.726 389.867 202.094 389.602C202.465 389.333 202.651 389.011 202.651 388.636C202.651 388.333 202.545 388.08 202.332 387.875C202.12 387.667 201.795 387.511 201.355 387.409L199.901 387.068C199.101 386.879 198.514 386.585 198.139 386.188C197.768 385.786 197.582 385.284 197.582 384.682C197.582 384.189 197.721 383.754 197.997 383.375C198.277 382.996 198.658 382.699 199.139 382.483C199.624 382.267 200.173 382.159 200.787 382.159C201.651 382.159 202.329 382.348 202.821 382.727C203.317 383.106 203.67 383.606 203.878 384.227ZM209.851 382.273V383.409H205.328V382.273H209.851ZM206.646 380.182H207.987V388.5C207.987 388.879 208.042 389.163 208.152 389.352C208.266 389.538 208.41 389.663 208.584 389.727C208.762 389.788 208.949 389.818 209.146 389.818C209.294 389.818 209.415 389.811 209.51 389.795C209.605 389.777 209.68 389.761 209.737 389.75L210.01 390.955C209.919 390.989 209.792 391.023 209.629 391.057C209.466 391.095 209.26 391.114 209.01 391.114C208.631 391.114 208.26 391.032 207.896 390.869C207.536 390.706 207.237 390.458 206.999 390.125C206.764 389.792 206.646 389.371 206.646 388.864V380.182ZM211.868 391V382.273H213.163V383.636H213.277C213.459 383.17 213.752 382.809 214.158 382.551C214.563 382.29 215.05 382.159 215.618 382.159C216.194 382.159 216.673 382.29 217.055 382.551C217.442 382.809 217.743 383.17 217.959 383.636H218.05C218.273 383.186 218.608 382.828 219.055 382.562C219.502 382.294 220.038 382.159 220.663 382.159C221.444 382.159 222.082 382.403 222.578 382.892C223.074 383.377 223.322 384.133 223.322 385.159V391H221.982V385.159C221.982 384.515 221.805 384.055 221.453 383.778C221.101 383.502 220.686 383.364 220.209 383.364C219.595 383.364 219.12 383.549 218.783 383.92C218.446 384.288 218.277 384.754 218.277 385.318V391H216.913V385.023C216.913 384.527 216.752 384.127 216.43 383.824C216.108 383.517 215.694 383.364 215.186 383.364C214.838 383.364 214.512 383.456 214.209 383.642C213.91 383.828 213.667 384.085 213.482 384.415C213.3 384.741 213.209 385.117 213.209 385.545V391H211.868ZM229.433 391.182C228.592 391.182 227.867 390.996 227.257 390.625C226.651 390.25 226.183 389.727 225.854 389.057C225.528 388.383 225.365 387.598 225.365 386.705C225.365 385.811 225.528 385.023 225.854 384.341C226.183 383.655 226.642 383.121 227.229 382.739C227.82 382.352 228.509 382.159 229.297 382.159C229.751 382.159 230.2 382.235 230.643 382.386C231.087 382.538 231.49 382.784 231.854 383.125C232.217 383.462 232.507 383.909 232.723 384.466C232.939 385.023 233.047 385.708 233.047 386.523V387.091H226.32V385.932H231.683C231.683 385.439 231.585 385 231.388 384.614C231.195 384.227 230.918 383.922 230.558 383.699C230.202 383.475 229.782 383.364 229.297 383.364C228.763 383.364 228.301 383.496 227.911 383.761C227.524 384.023 227.227 384.364 227.018 384.784C226.81 385.205 226.706 385.655 226.706 386.136V386.909C226.706 387.568 226.82 388.127 227.047 388.585C227.278 389.04 227.598 389.386 228.007 389.625C228.416 389.86 228.892 389.977 229.433 389.977C229.786 389.977 230.104 389.928 230.388 389.83C230.676 389.727 230.924 389.576 231.132 389.375C231.34 389.17 231.501 388.917 231.615 388.614L232.911 388.977C232.774 389.417 232.545 389.803 232.223 390.136C231.901 390.466 231.503 390.723 231.03 390.909C230.556 391.091 230.024 391.182 229.433 391.182ZM236.428 385.75V391H235.087V382.273H236.382V383.636H236.496C236.7 383.193 237.011 382.837 237.428 382.568C237.844 382.295 238.382 382.159 239.041 382.159C239.632 382.159 240.149 382.28 240.592 382.523C241.036 382.761 241.38 383.125 241.626 383.614C241.873 384.098 241.996 384.712 241.996 385.455V391H240.655V385.545C240.655 384.86 240.477 384.326 240.121 383.943C239.765 383.557 239.276 383.364 238.655 383.364C238.227 383.364 237.844 383.456 237.507 383.642C237.174 383.828 236.911 384.098 236.717 384.455C236.524 384.811 236.428 385.242 236.428 385.75ZM248.241 382.273V383.409H243.719V382.273H248.241ZM245.037 380.182H246.378V388.5C246.378 388.879 246.433 389.163 246.543 389.352C246.656 389.538 246.8 389.663 246.974 389.727C247.152 389.788 247.34 389.818 247.537 389.818C247.685 389.818 247.806 389.811 247.901 389.795C247.995 389.777 248.071 389.761 248.128 389.75L248.401 390.955C248.31 390.989 248.183 391.023 248.02 391.057C247.857 391.095 247.651 391.114 247.401 391.114C247.022 391.114 246.651 391.032 246.287 390.869C245.927 390.706 245.628 390.458 245.389 390.125C245.154 389.792 245.037 389.371 245.037 388.864V380.182ZM256.284 384.227L255.08 384.568C255.004 384.367 254.892 384.172 254.744 383.983C254.6 383.79 254.403 383.631 254.153 383.506C253.903 383.381 253.583 383.318 253.193 383.318C252.659 383.318 252.214 383.441 251.858 383.688C251.506 383.93 251.33 384.239 251.33 384.614C251.33 384.947 251.451 385.21 251.693 385.403C251.936 385.597 252.314 385.758 252.83 385.886L254.125 386.205C254.905 386.394 255.487 386.684 255.869 387.074C256.252 387.46 256.443 387.958 256.443 388.568C256.443 389.068 256.299 389.515 256.011 389.909C255.727 390.303 255.33 390.614 254.818 390.841C254.307 391.068 253.712 391.182 253.034 391.182C252.144 391.182 251.407 390.989 250.824 390.602C250.241 390.216 249.871 389.652 249.716 388.909L250.989 388.591C251.11 389.061 251.339 389.413 251.676 389.648C252.017 389.883 252.462 390 253.011 390C253.636 390 254.133 389.867 254.5 389.602C254.871 389.333 255.057 389.011 255.057 388.636C255.057 388.333 254.951 388.08 254.739 387.875C254.527 387.667 254.201 387.511 253.761 387.409L252.307 387.068C251.508 386.879 250.92 386.585 250.545 386.188C250.174 385.786 249.989 385.284 249.989 384.682C249.989 384.189 250.127 383.754 250.403 383.375C250.684 382.996 251.064 382.699 251.545 382.483C252.03 382.267 252.58 382.159 253.193 382.159C254.057 382.159 254.735 382.348 255.227 382.727C255.723 383.106 256.076 383.606 256.284 384.227ZM264.303 385.75V391H262.962V382.273H264.257V383.636H264.371C264.575 383.193 264.886 382.837 265.303 382.568C265.719 382.295 266.257 382.159 266.916 382.159C267.507 382.159 268.024 382.28 268.467 382.523C268.911 382.761 269.255 383.125 269.501 383.614C269.748 384.098 269.871 384.712 269.871 385.455V391H268.53V385.545C268.53 384.86 268.352 384.326 267.996 383.943C267.64 383.557 267.151 383.364 266.53 383.364C266.102 383.364 265.719 383.456 265.382 383.642C265.049 383.828 264.786 384.098 264.592 384.455C264.399 384.811 264.303 385.242 264.303 385.75ZM275.98 391.182C275.139 391.182 274.414 390.996 273.804 390.625C273.198 390.25 272.73 389.727 272.401 389.057C272.075 388.383 271.912 387.598 271.912 386.705C271.912 385.811 272.075 385.023 272.401 384.341C272.73 383.655 273.188 383.121 273.776 382.739C274.366 382.352 275.056 382.159 275.844 382.159C276.298 382.159 276.747 382.235 277.19 382.386C277.634 382.538 278.037 382.784 278.401 383.125C278.764 383.462 279.054 383.909 279.27 384.466C279.486 385.023 279.594 385.708 279.594 386.523V387.091H272.866V385.932H278.23C278.23 385.439 278.132 385 277.935 384.614C277.741 384.227 277.465 383.922 277.105 383.699C276.749 383.475 276.329 383.364 275.844 383.364C275.31 383.364 274.848 383.496 274.457 383.761C274.071 384.023 273.774 384.364 273.565 384.784C273.357 385.205 273.253 385.655 273.253 386.136V386.909C273.253 387.568 273.366 388.127 273.594 388.585C273.825 389.04 274.145 389.386 274.554 389.625C274.963 389.86 275.438 389.977 275.98 389.977C276.332 389.977 276.651 389.928 276.935 389.83C277.223 389.727 277.471 389.576 277.679 389.375C277.887 389.17 278.048 388.917 278.162 388.614L279.457 388.977C279.321 389.417 279.092 389.803 278.77 390.136C278.448 390.466 278.05 390.723 277.577 390.909C277.103 391.091 276.571 391.182 275.98 391.182ZM285.293 391.182C284.452 391.182 283.726 390.996 283.116 390.625C282.51 390.25 282.043 389.727 281.713 389.057C281.387 388.383 281.224 387.598 281.224 386.705C281.224 385.811 281.387 385.023 281.713 384.341C282.043 383.655 282.501 383.121 283.088 382.739C283.679 382.352 284.368 382.159 285.156 382.159C285.611 382.159 286.06 382.235 286.503 382.386C286.946 382.538 287.349 382.784 287.713 383.125C288.077 383.462 288.366 383.909 288.582 384.466C288.798 385.023 288.906 385.708 288.906 386.523V387.091H282.179V385.932H287.543C287.543 385.439 287.444 385 287.247 384.614C287.054 384.227 286.777 383.922 286.418 383.699C286.062 383.475 285.641 383.364 285.156 383.364C284.622 383.364 284.16 383.496 283.77 383.761C283.384 384.023 283.086 384.364 282.878 384.784C282.67 385.205 282.565 385.655 282.565 386.136V386.909C282.565 387.568 282.679 388.127 282.906 388.585C283.137 389.04 283.457 389.386 283.866 389.625C284.276 389.86 284.751 389.977 285.293 389.977C285.645 389.977 285.963 389.928 286.247 389.83C286.535 389.727 286.783 389.576 286.991 389.375C287.2 389.17 287.361 388.917 287.474 388.614L288.77 388.977C288.634 389.417 288.404 389.803 288.082 390.136C287.76 390.466 287.363 390.723 286.889 390.909C286.416 391.091 285.884 391.182 285.293 391.182ZM294.241 391.182C293.514 391.182 292.872 390.998 292.315 390.631C291.759 390.259 291.323 389.737 291.009 389.062C290.694 388.384 290.537 387.583 290.537 386.659C290.537 385.742 290.694 384.947 291.009 384.273C291.323 383.598 291.76 383.078 292.321 382.71C292.882 382.343 293.529 382.159 294.264 382.159C294.832 382.159 295.281 382.254 295.611 382.443C295.944 382.629 296.198 382.841 296.372 383.08C296.55 383.314 296.688 383.508 296.787 383.659H296.901V379.364H298.241V391H296.946V389.659H296.787C296.688 389.818 296.548 390.019 296.366 390.261C296.185 390.5 295.925 390.714 295.588 390.903C295.251 391.089 294.802 391.182 294.241 391.182ZM294.423 389.977C294.961 389.977 295.416 389.837 295.787 389.557C296.158 389.273 296.44 388.881 296.634 388.381C296.827 387.877 296.923 387.295 296.923 386.636C296.923 385.985 296.829 385.415 296.639 384.926C296.45 384.434 296.17 384.051 295.798 383.778C295.427 383.502 294.969 383.364 294.423 383.364C293.855 383.364 293.382 383.509 293.003 383.801C292.628 384.089 292.346 384.481 292.156 384.977C291.971 385.47 291.878 386.023 291.878 386.636C291.878 387.258 291.973 387.822 292.162 388.33C292.355 388.833 292.639 389.235 293.014 389.534C293.393 389.83 293.863 389.977 294.423 389.977ZM304.543 391.182C303.702 391.182 302.976 390.996 302.366 390.625C301.76 390.25 301.293 389.727 300.963 389.057C300.637 388.383 300.474 387.598 300.474 386.705C300.474 385.811 300.637 385.023 300.963 384.341C301.293 383.655 301.751 383.121 302.338 382.739C302.929 382.352 303.618 382.159 304.406 382.159C304.861 382.159 305.31 382.235 305.753 382.386C306.196 382.538 306.599 382.784 306.963 383.125C307.327 383.462 307.616 383.909 307.832 384.466C308.048 385.023 308.156 385.708 308.156 386.523V387.091H301.429V385.932H306.793C306.793 385.439 306.694 385 306.497 384.614C306.304 384.227 306.027 383.922 305.668 383.699C305.312 383.475 304.891 383.364 304.406 383.364C303.872 383.364 303.41 383.496 303.02 383.761C302.634 384.023 302.336 384.364 302.128 384.784C301.92 385.205 301.815 385.655 301.815 386.136V386.909C301.815 387.568 301.929 388.127 302.156 388.585C302.387 389.04 302.707 389.386 303.116 389.625C303.526 389.86 304.001 389.977 304.543 389.977C304.895 389.977 305.213 389.928 305.497 389.83C305.785 389.727 306.033 389.576 306.241 389.375C306.45 389.17 306.611 388.917 306.724 388.614L308.02 388.977C307.884 389.417 307.654 389.803 307.332 390.136C307.01 390.466 306.613 390.723 306.139 390.909C305.666 391.091 305.134 391.182 304.543 391.182ZM313.491 391.182C312.764 391.182 312.122 390.998 311.565 390.631C311.009 390.259 310.573 389.737 310.259 389.062C309.944 388.384 309.787 387.583 309.787 386.659C309.787 385.742 309.944 384.947 310.259 384.273C310.573 383.598 311.01 383.078 311.571 382.71C312.132 382.343 312.779 382.159 313.514 382.159C314.082 382.159 314.531 382.254 314.861 382.443C315.194 382.629 315.448 382.841 315.622 383.08C315.8 383.314 315.938 383.508 316.037 383.659H316.151V379.364H317.491V391H316.196V389.659H316.037C315.938 389.818 315.798 390.019 315.616 390.261C315.435 390.5 315.175 390.714 314.838 390.903C314.501 391.089 314.052 391.182 313.491 391.182ZM313.673 389.977C314.211 389.977 314.666 389.837 315.037 389.557C315.408 389.273 315.69 388.881 315.884 388.381C316.077 387.877 316.173 387.295 316.173 386.636C316.173 385.985 316.079 385.415 315.889 384.926C315.7 384.434 315.42 384.051 315.048 383.778C314.677 383.502 314.219 383.364 313.673 383.364C313.105 383.364 312.632 383.509 312.253 383.801C311.878 384.089 311.596 384.481 311.406 384.977C311.221 385.47 311.128 386.023 311.128 386.636C311.128 387.258 311.223 387.822 311.412 388.33C311.605 388.833 311.889 389.235 312.264 389.534C312.643 389.83 313.113 389.977 313.673 389.977Z" fill="#0C0E0F"/>
<rect width="519" height="316" fill="#FF8130"/>
<rect x="179.696" y="63.6957" width="158.609" height="161.391" rx="10.4348" fill="white"/>
<rect x="179.696" y="63.6957" width="158.609" height="161.391" rx="10.4348" stroke="black" stroke-width="1.3913"/>
<path fill-rule="evenodd" clip-rule="evenodd" d="M258.976 178.68L258.938 178.687L258.691 178.809L258.621 178.822L258.573 178.809L258.326 178.687C258.288 178.675 258.261 178.681 258.242 178.704L258.228 178.739L258.169 180.228L258.186 180.297L258.221 180.342L258.583 180.6L258.635 180.614L258.677 180.6L259.039 180.342L259.08 180.287L259.094 180.228L259.035 178.742C259.026 178.705 259.006 178.684 258.976 178.68ZM259.898 178.287L259.853 178.294L259.209 178.617L259.174 178.652L259.164 178.69L259.226 180.186L259.244 180.228L259.272 180.252L259.971 180.576C260.015 180.587 260.048 180.578 260.072 180.548L260.086 180.499L259.967 178.363C259.956 178.322 259.933 178.296 259.898 178.287ZM257.411 178.294C257.395 178.284 257.377 178.281 257.36 178.285C257.342 178.289 257.327 178.3 257.317 178.315L257.296 178.363L257.178 180.499C257.18 180.541 257.2 180.569 257.237 180.582L257.289 180.576L257.988 180.252L258.023 180.224L258.037 180.186L258.096 178.69L258.086 178.649L258.051 178.614L257.411 178.294Z" fill="#0C0E0F"/>
<path fill-rule="evenodd" clip-rule="evenodd" d="M256.913 104.739C260.708 104.739 264.276 105.755 267.348 107.536C267.763 107.753 268.131 108.052 268.428 108.415C268.725 108.778 268.945 109.198 269.076 109.648C269.207 110.099 269.245 110.571 269.188 111.037C269.132 111.503 268.982 111.952 268.747 112.358C268.512 112.764 268.198 113.119 267.822 113.4C267.447 113.682 267.019 113.884 266.563 113.996C266.107 114.108 265.634 114.126 265.171 114.05C264.708 113.974 264.265 113.805 263.87 113.553C261.754 112.332 259.354 111.689 256.911 111.689C254.469 111.689 252.069 112.333 249.954 113.555C247.838 114.776 246.082 116.534 244.861 118.65C243.641 120.766 242.999 123.166 243 125.609L281.261 125.612C283.106 125.612 284.875 126.345 286.18 127.65C287.484 128.954 288.217 130.724 288.217 132.569V167.351C288.217 169.196 287.484 170.966 286.18 172.27C284.875 173.575 283.106 174.308 281.261 174.308H232.565C230.72 174.308 228.951 173.575 227.646 172.27C226.342 170.966 225.609 169.196 225.609 167.351V132.565C225.609 130.72 226.342 128.951 227.646 127.646C228.951 126.341 230.72 125.609 232.565 125.609H236.043C236.043 120.074 238.242 114.765 242.156 110.852C246.07 106.938 251.378 104.739 256.913 104.739ZM256.913 139.522C255.382 139.522 253.893 140.027 252.678 140.959C251.463 141.891 250.59 143.199 250.194 144.678C249.797 146.157 249.9 147.725 250.486 149.14C251.072 150.555 252.109 151.737 253.435 152.502V156.913C253.435 157.835 253.801 158.72 254.453 159.372C255.106 160.025 255.991 160.391 256.913 160.391C257.835 160.391 258.72 160.025 259.372 159.372C260.025 158.72 260.391 157.835 260.391 156.913V152.502C261.717 151.737 262.754 150.555 263.34 149.14C263.926 147.725 264.029 146.157 263.632 144.678C263.236 143.199 262.363 141.891 261.148 140.959C259.933 140.027 258.444 139.522 256.913 139.522ZM284.454 115.247L287.814 116.151C288.671 116.419 289.39 117.008 289.823 117.795C290.255 118.582 290.367 119.505 290.134 120.372C289.901 121.239 289.342 121.983 288.574 122.447C287.806 122.912 286.888 123.061 286.012 122.864L282.656 121.967C281.768 121.725 281.013 121.142 280.555 120.344C280.096 119.547 279.973 118.6 280.21 117.712C280.448 116.823 281.028 116.065 281.823 115.603C282.619 115.141 283.564 115.013 284.454 115.247ZM279.984 105.052C280.426 105.17 280.839 105.374 281.202 105.652C281.564 105.931 281.868 106.277 282.096 106.673C282.325 107.069 282.473 107.506 282.533 107.959C282.592 108.411 282.562 108.872 282.443 109.313L281.995 110.989C281.878 111.433 281.676 111.848 281.398 112.213C281.121 112.577 280.774 112.883 280.378 113.114C279.982 113.344 279.544 113.493 279.09 113.554C278.636 113.614 278.174 113.584 277.731 113.466C277.289 113.348 276.874 113.143 276.511 112.864C276.148 112.585 275.843 112.236 275.615 111.839C275.387 111.442 275.239 111.003 275.181 110.549C275.122 110.095 275.154 109.633 275.275 109.191L275.727 107.511C275.966 106.621 276.548 105.862 277.347 105.401C278.145 104.939 279.094 104.814 279.984 105.052Z" fill="#0C0E0F"/>
<g clip-path="url(#clip0_33_83)">
<path d="M311.022 233.644C309.422 231.955 307.288 230.8 305.066 230.355C304.088 230.089 303.111 229.911 302.133 229.822C304.622 226.889 304.177 222.444 301.244 219.955C298.311 217.467 293.866 217.911 291.377 220.844C288.888 223.778 289.333 228.222 292.266 230.711C292.8 231.155 293.333 231.511 293.866 231.689V233.644L292.444 232.311C291.2 231.067 289.155 231.067 287.822 232.311C286.577 233.555 286.488 235.511 287.733 236.755L291.822 241.555C292 242.8 292.444 243.955 293.066 245.022C293.511 245.822 294.133 246.622 294.755 247.244V248.933C294.755 249.467 295.111 249.822 295.644 249.822H307.733C308.177 249.822 308.622 249.378 308.622 248.933V246.622C310.311 244.578 311.2 242 311.2 239.422V234.267C311.288 233.911 311.2 233.733 311.022 233.644ZM291.466 225.289C291.466 222.355 293.866 220.044 296.8 220.133C299.733 220.133 302.044 222.533 301.955 225.467C301.955 227.067 301.244 228.489 300 229.467V225.022C299.954 224.252 299.616 223.528 299.054 222.999C298.492 222.47 297.749 222.176 296.977 222.178C295.377 222.089 293.955 223.422 293.955 225.022V229.644C292.444 228.755 291.555 227.067 291.466 225.289ZM309.511 239.333C309.6 241.644 308.8 243.867 307.288 245.644C307.111 245.822 306.933 246 306.933 246.267V248.133H296.622V246.889C296.622 246.622 296.444 246.355 296.266 246.178C295.644 245.644 295.111 245.022 294.666 244.222C294.133 243.333 293.777 242.267 293.6 241.2C293.6 241.022 293.511 240.844 293.422 240.667L289.155 235.6C288.888 235.333 288.711 234.978 288.711 234.533C288.711 234.178 288.888 233.733 289.155 233.467C289.777 232.933 290.666 232.933 291.288 233.467L293.866 236.044V238.711L295.555 237.822V225.022C295.644 224.4 296.177 223.867 296.888 223.955C297.511 223.955 298.133 224.4 298.133 225.022V235.244L299.911 235.6V231.511C300 231.422 300.088 231.422 300.177 231.333C300.8 231.333 301.422 231.422 302.044 231.511V236.044L303.466 236.311V231.689L304.533 231.955C304.977 232.044 305.422 232.222 305.866 232.4V236.844L307.288 237.111V233.022C308.088 233.378 308.8 233.911 309.422 234.533L309.511 239.333Z" fill="black"/>
</g>
<defs>
<clipPath id="clip0_33_83">
<rect width="32" height="32" fill="white" transform="translate(284 218)"/>
</clipPath>
</defs>
</svg>
