<svg width="411" height="512" viewBox="0 0 411 512" fill="none" xmlns="http://www.w3.org/2000/svg">
<rect width="411" height="420" rx="8" fill="#FFBD3E"/>
<rect x="0.5" y="0.5" width="410" height="419" rx="7.5" stroke="black" stroke-opacity="0.5"/>
<g clip-path="url(#clip0_70_2712)">
<rect x="44" y="37" width="480" height="431" rx="20" fill="white"/>
<path d="M44 44C44 39.5817 47.5817 36 52 36H516C520.418 36 524 39.5817 524 44V80H44V44Z" fill="#0C0E0F"/>
<circle cx="70" cy="58" r="4" fill="#FF0606"/>
<circle cx="84" cy="58" r="4" fill="#30C1FF"/>
<circle cx="98" cy="58" r="4" fill="#A3DC2F"/>
<rect x="66" y="98.9998" width="72" height="72" rx="14" fill="#F7F7F7"/>
<path d="M110 124.2H94L92.4 133.8H111.6L110 124.2ZM86 137C86 137 89.2 138.6 102 138.6C114.8 138.6 118 137 118 137L111.6 133.8H92.4L86 137ZM98.8 143.4H105.2V145H98.8V143.4Z" fill="black"/>
<path d="M95.6 149.8C98.251 149.8 100.4 147.651 100.4 145C100.4 142.349 98.251 140.2 95.6 140.2C92.9491 140.2 90.8 142.349 90.8 145C90.8 147.651 92.9491 149.8 95.6 149.8Z" fill="black"/>
<path d="M108.4 149.8C111.051 149.8 113.2 147.651 113.2 145C113.2 142.349 111.051 140.2 108.4 140.2C105.749 140.2 103.6 142.349 103.6 145C103.6 147.651 105.749 149.8 108.4 149.8Z" fill="black"/>
<rect x="156" y="105" width="259" height="12" rx="6" fill="#F7F7F7"/>
<rect x="156" y="153" width="245" height="12" rx="6" fill="#F7F7F7"/>
<rect x="156" y="129" width="269" height="12" rx="6" fill="#F7F7F7"/>
<rect x="66" y="187" width="72" height="72" rx="14" fill="#F7F7F7"/>
<path d="M110 212.2H94L92.4 221.8H111.6L110 212.2ZM86 225C86 225 89.2 226.6 102 226.6C114.8 226.6 118 225 118 225L111.6 221.8H92.4L86 225ZM98.8 231.4H105.2V233H98.8V231.4Z" fill="black"/>
<path d="M95.6 237.8C98.251 237.8 100.4 235.651 100.4 233C100.4 230.349 98.251 228.2 95.6 228.2C92.9491 228.2 90.8 230.349 90.8 233C90.8 235.651 92.9491 237.8 95.6 237.8Z" fill="black"/>
<path d="M108.4 237.8C111.051 237.8 113.2 235.651 113.2 233C113.2 230.349 111.051 228.2 108.4 228.2C105.749 228.2 103.6 230.349 103.6 233C103.6 235.651 105.749 237.8 108.4 237.8Z" fill="black"/>
<rect x="156" y="193" width="259" height="12" rx="6" fill="#F7F7F7"/>
<rect x="156" y="241" width="245" height="12" rx="6" fill="#F7F7F7"/>
<rect x="156" y="217" width="269" height="12" rx="6" fill="#F7F7F7"/>
<rect x="66" y="275" width="72" height="72" rx="14" fill="#F7F7F7"/>
<path d="M110 300.2H94L92.4 309.8H111.6L110 300.2ZM86 313C86 313 89.2 314.6 102 314.6C114.8 314.6 118 313 118 313L111.6 309.8H92.4L86 313ZM98.8 319.4H105.2V321H98.8V319.4Z" fill="black"/>
<path d="M95.6 325.8C98.251 325.8 100.4 323.651 100.4 321C100.4 318.349 98.251 316.2 95.6 316.2C92.9491 316.2 90.8 318.349 90.8 321C90.8 323.651 92.9491 325.8 95.6 325.8Z" fill="black"/>
<path d="M108.4 325.8C111.051 325.8 113.2 323.651 113.2 321C113.2 318.349 111.051 316.2 108.4 316.2C105.749 316.2 103.6 318.349 103.6 321C103.6 323.651 105.749 325.8 108.4 325.8Z" fill="black"/>
<rect x="156" y="281" width="259" height="12" rx="6" fill="#F7F7F7"/>
<rect x="156" y="329" width="245" height="12" rx="6" fill="#F7F7F7"/>
<rect x="156" y="305" width="269" height="12" rx="6" fill="#F7F7F7"/>
<rect x="66" y="363" width="72" height="72" rx="14" fill="#F7F7F7"/>
<rect x="156" y="369" width="259" height="12" rx="6" fill="#F7F7F7"/>
</g>
<path d="M44.5 44C44.5 39.8579 47.8579 36.5 52 36.5H410.5V383.5H52C47.8579 383.5 44.5 380.142 44.5 376V44Z" stroke="black"/>
<path d="M4.77344 454V470H1.39062V454H4.77344ZM10.8223 463.063V470H7.49414V458H10.666V460.117H10.8066C11.0723 459.419 11.5176 458.867 12.1426 458.461C12.7676 458.049 13.5254 457.844 14.416 457.844C15.2493 457.844 15.9759 458.026 16.5957 458.391C17.2155 458.755 17.6973 459.276 18.041 459.953C18.3848 460.625 18.5566 461.427 18.5566 462.359V470H15.2285V462.953C15.2337 462.219 15.0462 461.646 14.666 461.234C14.2858 460.818 13.7624 460.609 13.0957 460.609C12.6478 460.609 12.252 460.706 11.9082 460.898C11.5697 461.091 11.304 461.372 11.1113 461.742C10.9238 462.107 10.8275 462.547 10.8223 463.063ZM31.1641 461.422L28.1172 461.609C28.0651 461.349 27.9531 461.115 27.7813 460.906C27.6094 460.693 27.3828 460.523 27.1016 460.398C26.8255 460.268 26.4948 460.203 26.1094 460.203C25.5938 460.203 25.1589 460.312 24.8047 460.531C24.4505 460.745 24.2734 461.031 24.2734 461.391C24.2734 461.677 24.388 461.919 24.6172 462.117C24.8464 462.315 25.2396 462.474 25.7969 462.594L27.9688 463.031C29.1354 463.271 30.0052 463.656 30.5781 464.187C31.151 464.719 31.4375 465.417 31.4375 466.281C31.4375 467.068 31.2057 467.758 30.7422 468.352C30.2839 468.945 29.6536 469.409 28.8516 469.742C28.0547 470.07 27.1354 470.234 26.0938 470.234C24.5052 470.234 23.2396 469.904 22.2969 469.242C21.3594 468.576 20.8099 467.669 20.6484 466.523L23.9219 466.352C24.0208 466.836 24.2604 467.206 24.6406 467.461C25.0208 467.711 25.5078 467.836 26.1016 467.836C26.6849 467.836 27.1536 467.724 27.5078 467.5C27.8672 467.271 28.0495 466.977 28.0547 466.617C28.0495 466.315 27.9219 466.068 27.6719 465.875C27.4219 465.677 27.0365 465.526 26.5156 465.422L24.4375 465.008C23.2656 464.773 22.3932 464.367 21.8203 463.789C21.2526 463.211 20.9688 462.474 20.9688 461.578C20.9688 460.807 21.1771 460.143 21.5938 459.586C22.0156 459.029 22.6068 458.599 23.3672 458.297C24.1328 457.995 25.0286 457.844 26.0547 457.844C27.5703 457.844 28.763 458.164 29.6328 458.805C30.5078 459.445 31.0182 460.318 31.1641 461.422ZM39.916 458V460.5H32.6895V458H39.916ZM34.3301 455.125H37.6582V466.312C37.6582 466.62 37.7051 466.859 37.7988 467.031C37.8926 467.198 38.0228 467.315 38.1895 467.383C38.3613 467.451 38.5592 467.484 38.7832 467.484C38.9395 467.484 39.0957 467.471 39.252 467.445C39.4082 467.414 39.528 467.391 39.6113 467.375L40.1348 469.852C39.9681 469.904 39.7337 469.964 39.4316 470.031C39.1296 470.104 38.7624 470.148 38.3301 470.164C37.528 470.195 36.8249 470.089 36.2207 469.844C35.6217 469.599 35.1556 469.219 34.8223 468.703C34.4889 468.187 34.3249 467.536 34.3301 466.75V455.125ZM45.5059 470.227C44.7402 470.227 44.0579 470.094 43.459 469.828C42.86 469.557 42.3861 469.159 42.0371 468.633C41.6934 468.102 41.5215 467.44 41.5215 466.648C41.5215 465.982 41.6439 465.422 41.8887 464.969C42.1335 464.516 42.4668 464.151 42.8887 463.875C43.3105 463.599 43.7897 463.391 44.3262 463.25C44.8678 463.109 45.4355 463.01 46.0293 462.953C46.7272 462.88 47.2897 462.812 47.7168 462.75C48.1439 462.682 48.4538 462.583 48.6465 462.453C48.8392 462.323 48.9355 462.13 48.9355 461.875V461.828C48.9355 461.333 48.7793 460.951 48.4668 460.68C48.1595 460.409 47.722 460.273 47.1543 460.273C46.5553 460.273 46.0788 460.406 45.7246 460.672C45.3704 460.932 45.1361 461.26 45.0215 461.656L41.9434 461.406C42.0996 460.677 42.4069 460.047 42.8652 459.516C43.3236 458.979 43.9147 458.568 44.6387 458.281C45.3678 457.99 46.2116 457.844 47.1699 457.844C47.8366 457.844 48.4746 457.922 49.084 458.078C49.6986 458.234 50.2428 458.477 50.7168 458.805C51.196 459.133 51.5736 459.555 51.8496 460.07C52.1257 460.581 52.2637 461.193 52.2637 461.906V470H49.1074V468.336H49.0137C48.821 468.711 48.5632 469.042 48.2402 469.328C47.9173 469.609 47.5293 469.831 47.0762 469.992C46.623 470.148 46.0996 470.227 45.5059 470.227ZM46.459 467.93C46.9486 467.93 47.3809 467.833 47.7559 467.641C48.1309 467.443 48.4251 467.177 48.6387 466.844C48.8522 466.51 48.959 466.133 48.959 465.711V464.438C48.8548 464.505 48.7116 464.568 48.5293 464.625C48.3522 464.677 48.1517 464.727 47.9277 464.773C47.7038 464.815 47.4798 464.854 47.2559 464.891C47.0319 464.922 46.8288 464.951 46.6465 464.977C46.2559 465.034 45.9147 465.125 45.623 465.25C45.3314 465.375 45.1048 465.544 44.9434 465.758C44.7819 465.966 44.7012 466.227 44.7012 466.539C44.7012 466.992 44.8652 467.339 45.1934 467.578C45.5267 467.812 45.9486 467.93 46.459 467.93ZM58.1738 463.063V470H54.8457V458H58.0176V460.117H58.1582C58.4238 459.419 58.8691 458.867 59.4941 458.461C60.1191 458.049 60.877 457.844 61.7676 457.844C62.6009 457.844 63.3275 458.026 63.9473 458.391C64.5671 458.755 65.0488 459.276 65.3926 459.953C65.7363 460.625 65.9082 461.427 65.9082 462.359V470H62.5801V462.953C62.5853 462.219 62.3978 461.646 62.0176 461.234C61.6374 460.818 61.1139 460.609 60.4473 460.609C59.9993 460.609 59.6035 460.706 59.2598 460.898C58.9212 461.091 58.6556 461.372 58.4629 461.742C58.2754 462.107 58.179 462.547 58.1738 463.063ZM74.9141 458V460.5H67.6875V458H74.9141ZM69.3281 455.125H72.6563V466.312C72.6563 466.62 72.7031 466.859 72.7969 467.031C72.8906 467.198 73.0208 467.315 73.1875 467.383C73.3594 467.451 73.5573 467.484 73.7813 467.484C73.9375 467.484 74.0938 467.471 74.25 467.445C74.4062 467.414 74.526 467.391 74.6094 467.375L75.1328 469.852C74.9661 469.904 74.7318 469.964 74.4297 470.031C74.1276 470.104 73.7604 470.148 73.3281 470.164C72.526 470.195 71.8229 470.089 71.2188 469.844C70.6198 469.599 70.1536 469.219 69.8203 468.703C69.487 468.187 69.3229 467.536 69.3281 466.75V455.125ZM85.8379 470L81.2598 454H84.9551L87.6035 465.117H87.7363L90.6582 454H93.8223L96.7363 465.141H96.877L99.5254 454H103.221L98.6426 470H95.3457L92.2988 459.539H92.1738L89.1348 470H85.8379ZM107.102 470.227C106.336 470.227 105.654 470.094 105.055 469.828C104.456 469.557 103.982 469.159 103.633 468.633C103.289 468.102 103.117 467.44 103.117 466.648C103.117 465.982 103.24 465.422 103.484 464.969C103.729 464.516 104.063 464.151 104.484 463.875C104.906 463.599 105.385 463.391 105.922 463.25C106.464 463.109 107.031 463.01 107.625 462.953C108.323 462.88 108.885 462.812 109.312 462.75C109.74 462.682 110.049 462.583 110.242 462.453C110.435 462.323 110.531 462.13 110.531 461.875V461.828C110.531 461.333 110.375 460.951 110.062 460.68C109.755 460.409 109.318 460.273 108.75 460.273C108.151 460.273 107.674 460.406 107.32 460.672C106.966 460.932 106.732 461.26 106.617 461.656L103.539 461.406C103.695 460.677 104.003 460.047 104.461 459.516C104.919 458.979 105.51 458.568 106.234 458.281C106.964 457.99 107.807 457.844 108.766 457.844C109.432 457.844 110.07 457.922 110.68 458.078C111.294 458.234 111.839 458.477 112.313 458.805C112.792 459.133 113.169 459.555 113.445 460.07C113.721 460.581 113.859 461.193 113.859 461.906V470H110.703V468.336H110.609C110.417 468.711 110.159 469.042 109.836 469.328C109.513 469.609 109.125 469.831 108.672 469.992C108.219 470.148 107.695 470.227 107.102 470.227ZM108.055 467.93C108.544 467.93 108.977 467.833 109.352 467.641C109.727 467.443 110.021 467.177 110.234 466.844C110.448 466.51 110.555 466.133 110.555 465.711V464.438C110.451 464.505 110.307 464.568 110.125 464.625C109.948 464.677 109.747 464.727 109.523 464.773C109.299 464.815 109.076 464.854 108.852 464.891C108.628 464.922 108.424 464.951 108.242 464.977C107.852 465.034 107.51 465.125 107.219 465.25C106.927 465.375 106.701 465.544 106.539 465.758C106.378 465.966 106.297 466.227 106.297 466.539C106.297 466.992 106.461 467.339 106.789 467.578C107.122 467.812 107.544 467.93 108.055 467.93ZM119.77 454V470H116.441V454H119.77ZM125.764 454V470H122.436V454H125.764ZM133.898 470.234C132.664 470.234 131.602 469.984 130.711 469.484C129.826 468.979 129.143 468.266 128.664 467.344C128.185 466.417 127.945 465.32 127.945 464.055C127.945 462.82 128.185 461.737 128.664 460.805C129.143 459.872 129.818 459.146 130.688 458.625C131.563 458.104 132.589 457.844 133.766 457.844C134.557 457.844 135.294 457.971 135.977 458.227C136.664 458.477 137.263 458.854 137.773 459.359C138.289 459.865 138.69 460.5 138.977 461.266C139.263 462.026 139.406 462.917 139.406 463.937V464.852H129.273V462.789H136.273C136.273 462.31 136.169 461.885 135.961 461.516C135.753 461.146 135.464 460.857 135.094 460.648C134.729 460.435 134.305 460.328 133.82 460.328C133.315 460.328 132.867 460.445 132.477 460.68C132.091 460.909 131.789 461.219 131.57 461.609C131.352 461.995 131.24 462.424 131.234 462.898V464.859C131.234 465.453 131.344 465.966 131.563 466.398C131.786 466.831 132.102 467.164 132.508 467.398C132.914 467.633 133.396 467.75 133.953 467.75C134.323 467.75 134.661 467.698 134.969 467.594C135.276 467.49 135.539 467.333 135.758 467.125C135.977 466.917 136.143 466.661 136.258 466.359L139.336 466.562C139.18 467.302 138.859 467.948 138.375 468.5C137.896 469.047 137.276 469.474 136.516 469.781C135.76 470.083 134.888 470.234 133.898 470.234ZM147.961 458V460.5H140.734V458H147.961ZM142.375 455.125H145.703V466.312C145.703 466.62 145.75 466.859 145.844 467.031C145.938 467.198 146.068 467.315 146.234 467.383C146.406 467.451 146.604 467.484 146.828 467.484C146.984 467.484 147.141 467.471 147.297 467.445C147.453 467.414 147.573 467.391 147.656 467.375L148.18 469.852C148.013 469.904 147.779 469.964 147.477 470.031C147.174 470.104 146.807 470.148 146.375 470.164C145.573 470.195 144.87 470.089 144.266 469.844C143.667 469.599 143.201 469.219 142.867 468.703C142.534 468.187 142.37 467.536 142.375 466.75V455.125ZM155.283 454H159.455L163.861 464.75H164.049L168.455 454H172.627V470H169.346V459.586H169.213L165.072 469.922H162.838L158.697 459.547H158.564V470H155.283V454ZM180.82 470.234C179.586 470.234 178.523 469.984 177.633 469.484C176.747 468.979 176.065 468.266 175.586 467.344C175.107 466.417 174.867 465.32 174.867 464.055C174.867 462.82 175.107 461.737 175.586 460.805C176.065 459.872 176.74 459.146 177.609 458.625C178.484 458.104 179.51 457.844 180.688 457.844C181.479 457.844 182.216 457.971 182.898 458.227C183.586 458.477 184.185 458.854 184.695 459.359C185.211 459.865 185.612 460.5 185.898 461.266C186.185 462.026 186.328 462.917 186.328 463.937V464.852H176.195V462.789H183.195C183.195 462.31 183.091 461.885 182.883 461.516C182.674 461.146 182.385 460.857 182.016 460.648C181.651 460.435 181.227 460.328 180.742 460.328C180.237 460.328 179.789 460.445 179.398 460.68C179.013 460.909 178.711 461.219 178.492 461.609C178.273 461.995 178.161 462.424 178.156 462.898V464.859C178.156 465.453 178.266 465.966 178.484 466.398C178.708 466.831 179.023 467.164 179.43 467.398C179.836 467.633 180.318 467.75 180.875 467.75C181.245 467.75 181.583 467.698 181.891 467.594C182.198 467.49 182.461 467.333 182.68 467.125C182.898 466.917 183.065 466.661 183.18 466.359L186.258 466.562C186.102 467.302 185.781 467.948 185.297 468.5C184.818 469.047 184.198 469.474 183.438 469.781C182.682 470.083 181.81 470.234 180.82 470.234ZM198.484 461.422L195.438 461.609C195.385 461.349 195.273 461.115 195.102 460.906C194.93 460.693 194.703 460.523 194.422 460.398C194.146 460.268 193.815 460.203 193.43 460.203C192.914 460.203 192.479 460.312 192.125 460.531C191.771 460.745 191.594 461.031 191.594 461.391C191.594 461.677 191.708 461.919 191.938 462.117C192.167 462.315 192.56 462.474 193.117 462.594L195.289 463.031C196.456 463.271 197.326 463.656 197.898 464.187C198.471 464.719 198.758 465.417 198.758 466.281C198.758 467.068 198.526 467.758 198.063 468.352C197.604 468.945 196.974 469.409 196.172 469.742C195.375 470.07 194.456 470.234 193.414 470.234C191.826 470.234 190.56 469.904 189.617 469.242C188.68 468.576 188.13 467.669 187.969 466.523L191.242 466.352C191.341 466.836 191.581 467.206 191.961 467.461C192.341 467.711 192.828 467.836 193.422 467.836C194.005 467.836 194.474 467.724 194.828 467.5C195.188 467.271 195.37 466.977 195.375 466.617C195.37 466.315 195.242 466.068 194.992 465.875C194.742 465.677 194.357 465.526 193.836 465.422L191.758 465.008C190.586 464.773 189.714 464.367 189.141 463.789C188.573 463.211 188.289 462.474 188.289 461.578C188.289 460.807 188.497 460.143 188.914 459.586C189.336 459.029 189.927 458.599 190.688 458.297C191.453 457.995 192.349 457.844 193.375 457.844C194.891 457.844 196.083 458.164 196.953 458.805C197.828 459.445 198.339 460.318 198.484 461.422ZM210.838 461.422L207.791 461.609C207.739 461.349 207.627 461.115 207.455 460.906C207.283 460.693 207.057 460.523 206.775 460.398C206.499 460.268 206.169 460.203 205.783 460.203C205.268 460.203 204.833 460.312 204.479 460.531C204.124 460.745 203.947 461.031 203.947 461.391C203.947 461.677 204.062 461.919 204.291 462.117C204.52 462.315 204.913 462.474 205.471 462.594L207.643 463.031C208.809 463.271 209.679 463.656 210.252 464.187C210.825 464.719 211.111 465.417 211.111 466.281C211.111 467.068 210.88 467.758 210.416 468.352C209.958 468.945 209.327 469.409 208.525 469.742C207.729 470.07 206.809 470.234 205.768 470.234C204.179 470.234 202.913 469.904 201.971 469.242C201.033 468.576 200.484 467.669 200.322 466.523L203.596 466.352C203.695 466.836 203.934 467.206 204.314 467.461C204.695 467.711 205.182 467.836 205.775 467.836C206.359 467.836 206.827 467.724 207.182 467.5C207.541 467.271 207.723 466.977 207.729 466.617C207.723 466.315 207.596 466.068 207.346 465.875C207.096 465.677 206.71 465.526 206.189 465.422L204.111 465.008C202.939 464.773 202.067 464.367 201.494 463.789C200.926 463.211 200.643 462.474 200.643 461.578C200.643 460.807 200.851 460.143 201.268 459.586C201.689 459.029 202.281 458.599 203.041 458.297C203.807 457.995 204.702 457.844 205.729 457.844C207.244 457.844 208.437 458.164 209.307 458.805C210.182 459.445 210.692 460.318 210.838 461.422ZM216.629 470.227C215.863 470.227 215.181 470.094 214.582 469.828C213.983 469.557 213.509 469.159 213.16 468.633C212.816 468.102 212.645 467.44 212.645 466.648C212.645 465.982 212.767 465.422 213.012 464.969C213.257 464.516 213.59 464.151 214.012 463.875C214.434 463.599 214.913 463.391 215.449 463.25C215.991 463.109 216.559 463.01 217.152 462.953C217.85 462.88 218.413 462.812 218.84 462.75C219.267 462.682 219.577 462.583 219.77 462.453C219.962 462.323 220.059 462.13 220.059 461.875V461.828C220.059 461.333 219.902 460.951 219.59 460.68C219.283 460.409 218.845 460.273 218.277 460.273C217.678 460.273 217.202 460.406 216.848 460.672C216.493 460.932 216.259 461.26 216.145 461.656L213.066 461.406C213.223 460.677 213.53 460.047 213.988 459.516C214.447 458.979 215.038 458.568 215.762 458.281C216.491 457.99 217.335 457.844 218.293 457.844C218.96 457.844 219.598 457.922 220.207 458.078C220.822 458.234 221.366 458.477 221.84 458.805C222.319 459.133 222.697 459.555 222.973 460.07C223.249 460.581 223.387 461.193 223.387 461.906V470H220.23V468.336H220.137C219.944 468.711 219.686 469.042 219.363 469.328C219.04 469.609 218.652 469.831 218.199 469.992C217.746 470.148 217.223 470.227 216.629 470.227ZM217.582 467.93C218.072 467.93 218.504 467.833 218.879 467.641C219.254 467.443 219.548 467.177 219.762 466.844C219.975 466.51 220.082 466.133 220.082 465.711V464.438C219.978 464.505 219.835 464.568 219.652 464.625C219.475 464.677 219.275 464.727 219.051 464.773C218.827 464.815 218.603 464.854 218.379 464.891C218.155 464.922 217.952 464.951 217.77 464.977C217.379 465.034 217.038 465.125 216.746 465.25C216.454 465.375 216.228 465.544 216.066 465.758C215.905 465.966 215.824 466.227 215.824 466.539C215.824 466.992 215.988 467.339 216.316 467.578C216.65 467.812 217.072 467.93 217.582 467.93ZM231.375 474.75C230.297 474.75 229.372 474.602 228.602 474.305C227.836 474.013 227.227 473.615 226.773 473.109C226.32 472.604 226.026 472.036 225.891 471.406L228.969 470.992C229.062 471.232 229.211 471.456 229.414 471.664C229.617 471.872 229.885 472.039 230.219 472.164C230.557 472.294 230.969 472.359 231.453 472.359C232.177 472.359 232.773 472.182 233.242 471.828C233.716 471.479 233.953 470.893 233.953 470.07V467.875H233.813C233.667 468.208 233.448 468.523 233.156 468.82C232.865 469.117 232.49 469.359 232.031 469.547C231.573 469.734 231.026 469.828 230.391 469.828C229.49 469.828 228.669 469.62 227.93 469.203C227.195 468.781 226.609 468.138 226.172 467.273C225.74 466.404 225.523 465.305 225.523 463.977C225.523 462.617 225.745 461.482 226.188 460.57C226.63 459.659 227.219 458.977 227.953 458.523C228.693 458.07 229.503 457.844 230.383 457.844C231.055 457.844 231.617 457.958 232.07 458.188C232.523 458.411 232.888 458.693 233.164 459.031C233.445 459.365 233.661 459.693 233.813 460.016H233.938V458H237.242V470.117C237.242 471.138 236.992 471.992 236.492 472.68C235.992 473.367 235.299 473.883 234.414 474.227C233.534 474.576 232.521 474.75 231.375 474.75ZM231.445 467.328C231.982 467.328 232.435 467.195 232.805 466.93C233.18 466.659 233.466 466.273 233.664 465.773C233.867 465.268 233.969 464.664 233.969 463.961C233.969 463.258 233.87 462.648 233.672 462.133C233.474 461.612 233.188 461.208 232.813 460.922C232.438 460.635 231.982 460.492 231.445 460.492C230.898 460.492 230.438 460.641 230.063 460.937C229.688 461.229 229.404 461.635 229.211 462.156C229.018 462.677 228.922 463.279 228.922 463.961C228.922 464.654 229.018 465.253 229.211 465.758C229.409 466.258 229.693 466.646 230.063 466.922C230.438 467.193 230.898 467.328 231.445 467.328ZM239.891 470V458H243.219V470H239.891ZM241.563 456.453C241.068 456.453 240.643 456.289 240.289 455.961C239.94 455.628 239.766 455.229 239.766 454.766C239.766 454.307 239.94 453.914 240.289 453.586C240.643 453.253 241.068 453.086 241.563 453.086C242.057 453.086 242.479 453.253 242.828 453.586C243.182 453.914 243.359 454.307 243.359 454.766C243.359 455.229 243.182 455.628 242.828 455.961C242.479 456.289 242.057 456.453 241.563 456.453ZM249.213 463.063V470H245.885V458H249.057V460.117H249.197C249.463 459.419 249.908 458.867 250.533 458.461C251.158 458.049 251.916 457.844 252.807 457.844C253.64 457.844 254.367 458.026 254.986 458.391C255.606 458.755 256.088 459.276 256.432 459.953C256.775 460.625 256.947 461.427 256.947 462.359V470H253.619V462.953C253.624 462.219 253.437 461.646 253.057 461.234C252.676 460.818 252.153 460.609 251.486 460.609C251.038 460.609 250.643 460.706 250.299 460.898C249.96 461.091 249.695 461.372 249.502 461.742C249.314 462.107 249.218 462.547 249.213 463.063ZM264.977 474.75C263.898 474.75 262.974 474.602 262.203 474.305C261.438 474.013 260.828 473.615 260.375 473.109C259.922 472.604 259.628 472.036 259.492 471.406L262.57 470.992C262.664 471.232 262.813 471.456 263.016 471.664C263.219 471.872 263.487 472.039 263.82 472.164C264.159 472.294 264.57 472.359 265.055 472.359C265.779 472.359 266.375 472.182 266.844 471.828C267.318 471.479 267.555 470.893 267.555 470.07V467.875H267.414C267.268 468.208 267.049 468.523 266.758 468.82C266.466 469.117 266.091 469.359 265.633 469.547C265.174 469.734 264.628 469.828 263.992 469.828C263.091 469.828 262.271 469.62 261.531 469.203C260.797 468.781 260.211 468.138 259.773 467.273C259.341 466.404 259.125 465.305 259.125 463.977C259.125 462.617 259.346 461.482 259.789 460.57C260.232 459.659 260.82 458.977 261.555 458.523C262.294 458.07 263.104 457.844 263.984 457.844C264.656 457.844 265.219 457.958 265.672 458.188C266.125 458.411 266.49 458.693 266.766 459.031C267.047 459.365 267.263 459.693 267.414 460.016H267.539V458H270.844V470.117C270.844 471.138 270.594 471.992 270.094 472.68C269.594 473.367 268.901 473.883 268.016 474.227C267.135 474.576 266.122 474.75 264.977 474.75ZM265.047 467.328C265.583 467.328 266.036 467.195 266.406 466.93C266.781 466.659 267.068 466.273 267.266 465.773C267.469 465.268 267.57 464.664 267.57 463.961C267.57 463.258 267.471 462.648 267.273 462.133C267.076 461.612 266.789 461.208 266.414 460.922C266.039 460.635 265.583 460.492 265.047 460.492C264.5 460.492 264.039 460.641 263.664 460.937C263.289 461.229 263.005 461.635 262.813 462.156C262.62 462.677 262.523 463.279 262.523 463.961C262.523 464.654 262.62 465.253 262.813 465.758C263.01 466.258 263.294 466.646 263.664 466.922C264.039 467.193 264.5 467.328 265.047 467.328Z" fill="#0C0E0F"/>
<path d="M1.40909 507V495.364H5.34091C6.25 495.364 6.99621 495.519 7.57955 495.83C8.16288 496.136 8.5947 496.559 8.875 497.097C9.1553 497.634 9.29545 498.246 9.29545 498.932C9.29545 499.617 9.1553 500.225 8.875 500.756C8.5947 501.286 8.16477 501.703 7.58523 502.006C7.00568 502.305 6.26515 502.455 5.36364 502.455H2.18182V501.182H5.31818C5.93939 501.182 6.43939 501.091 6.81818 500.909C7.20076 500.727 7.47727 500.47 7.64773 500.136C7.82197 499.799 7.90909 499.398 7.90909 498.932C7.90909 498.466 7.82197 498.059 7.64773 497.71C7.47349 497.362 7.19508 497.093 6.8125 496.903C6.42992 496.71 5.92424 496.614 5.29545 496.614H2.81818V507H1.40909ZM6.88636 501.773L9.75 507H8.11364L5.29545 501.773H6.88636ZM15.027 507.182C14.1861 507.182 13.4607 506.996 12.8509 506.625C12.2448 506.25 11.777 505.727 11.4474 505.057C11.1217 504.383 10.9588 503.598 10.9588 502.705C10.9588 501.811 11.1217 501.023 11.4474 500.341C11.777 499.655 12.2353 499.121 12.8224 498.739C13.4134 498.352 14.1027 498.159 14.8906 498.159C15.3452 498.159 15.794 498.235 16.2372 498.386C16.6804 498.538 17.0838 498.784 17.4474 499.125C17.8111 499.462 18.1009 499.909 18.3168 500.466C18.5327 501.023 18.6406 501.708 18.6406 502.523V503.091H11.9134V501.932H17.277C17.277 501.439 17.1785 501 16.9815 500.614C16.7884 500.227 16.5118 499.922 16.152 499.699C15.7959 499.475 15.3755 499.364 14.8906 499.364C14.3565 499.364 13.8944 499.496 13.5043 499.761C13.1179 500.023 12.8205 500.364 12.6122 500.784C12.4039 501.205 12.2997 501.655 12.2997 502.136V502.909C12.2997 503.568 12.4134 504.127 12.6406 504.585C12.8717 505.04 13.1918 505.386 13.6009 505.625C14.0099 505.86 14.4853 505.977 15.027 505.977C15.3793 505.977 15.6974 505.928 15.9815 505.83C16.2694 505.727 16.5175 505.576 16.7259 505.375C16.9342 505.17 17.0952 504.917 17.2088 504.614L18.5043 504.977C18.3679 505.417 18.1387 505.803 17.8168 506.136C17.4948 506.466 17.0971 506.723 16.6236 506.909C16.1501 507.091 15.6179 507.182 15.027 507.182ZM23.2486 507.205C22.6955 507.205 22.1937 507.1 21.7429 506.892C21.2921 506.68 20.9342 506.375 20.669 505.977C20.4039 505.576 20.2713 505.091 20.2713 504.523C20.2713 504.023 20.3698 503.617 20.5668 503.307C20.7637 502.992 21.027 502.746 21.3565 502.568C21.6861 502.39 22.0497 502.258 22.4474 502.17C22.849 502.08 23.2524 502.008 23.6577 501.955C24.188 501.886 24.6179 501.835 24.9474 501.801C25.2808 501.763 25.5232 501.701 25.6747 501.614C25.83 501.527 25.9077 501.375 25.9077 501.159V501.114C25.9077 500.553 25.7543 500.117 25.4474 499.807C25.1444 499.496 24.6842 499.341 24.0668 499.341C23.4266 499.341 22.9247 499.481 22.5611 499.761C22.1974 500.042 21.9418 500.341 21.794 500.659L20.5213 500.205C20.7486 499.674 21.0516 499.261 21.4304 498.966C21.813 498.667 22.2296 498.458 22.6804 498.341C23.1349 498.22 23.5819 498.159 24.0213 498.159C24.3016 498.159 24.6236 498.193 24.9872 498.261C25.3546 498.326 25.7088 498.46 26.0497 498.665C26.3944 498.869 26.6804 499.178 26.9077 499.591C27.1349 500.004 27.2486 500.557 27.2486 501.25V507H25.9077V505.818H25.8395C25.7486 506.008 25.5971 506.21 25.3849 506.426C25.1728 506.642 24.8906 506.826 24.5384 506.977C24.1861 507.129 23.7562 507.205 23.2486 507.205ZM23.4531 506C23.9834 506 24.4304 505.896 24.794 505.688C25.1615 505.479 25.438 505.21 25.6236 504.881C25.813 504.551 25.9077 504.205 25.9077 503.841V502.614C25.8509 502.682 25.7259 502.744 25.5327 502.801C25.3433 502.854 25.1236 502.902 24.8736 502.943C24.6274 502.981 24.3868 503.015 24.152 503.045C23.9209 503.072 23.7334 503.095 23.5895 503.114C23.241 503.159 22.9152 503.233 22.6122 503.335C22.313 503.434 22.0705 503.583 21.8849 503.784C21.7031 503.981 21.6122 504.25 21.6122 504.591C21.6122 505.057 21.7846 505.409 22.1293 505.648C22.4777 505.883 22.919 506 23.4531 506ZM33.2415 507.182C32.4233 507.182 31.7188 506.989 31.1278 506.602C30.5369 506.216 30.0824 505.684 29.7642 505.006C29.446 504.328 29.2869 503.553 29.2869 502.682C29.2869 501.795 29.4498 501.013 29.7756 500.335C30.1051 499.653 30.5634 499.121 31.1506 498.739C31.7415 498.352 32.4309 498.159 33.2188 498.159C33.8324 498.159 34.3854 498.273 34.8778 498.5C35.3703 498.727 35.7737 499.045 36.0881 499.455C36.4025 499.864 36.5975 500.341 36.6733 500.886H35.3324C35.2301 500.489 35.0028 500.136 34.6506 499.83C34.3021 499.519 33.8324 499.364 33.2415 499.364C32.7188 499.364 32.2604 499.5 31.8665 499.773C31.4763 500.042 31.1714 500.422 30.9517 500.915C30.7358 501.403 30.6278 501.977 30.6278 502.636C30.6278 503.311 30.7339 503.898 30.946 504.398C31.1619 504.898 31.465 505.286 31.8551 505.562C32.2491 505.839 32.7112 505.977 33.2415 505.977C33.59 505.977 33.9062 505.917 34.1903 505.795C34.4744 505.674 34.715 505.5 34.9119 505.273C35.1089 505.045 35.2491 504.773 35.3324 504.455H36.6733C36.5975 504.97 36.41 505.434 36.1108 505.847C35.8153 506.256 35.4233 506.581 34.9347 506.824C34.4498 507.062 33.8854 507.182 33.2415 507.182ZM39.9744 501.75V507H38.6335V495.364H39.9744V499.636H40.0881C40.2926 499.186 40.5994 498.828 41.0085 498.562C41.4214 498.294 41.9706 498.159 42.6562 498.159C43.2509 498.159 43.7718 498.278 44.2188 498.517C44.6657 498.752 45.0123 499.114 45.2585 499.602C45.5085 500.087 45.6335 500.705 45.6335 501.455V507H44.2926V501.545C44.2926 500.852 44.1127 500.316 43.7528 499.938C43.3968 499.555 42.9025 499.364 42.2699 499.364C41.8305 499.364 41.4366 499.456 41.0881 499.642C40.7434 499.828 40.4706 500.098 40.2699 500.455C40.0729 500.811 39.9744 501.242 39.9744 501.75ZM55.1548 507.205C54.6018 507.205 54.0999 507.1 53.6491 506.892C53.1984 506.68 52.8404 506.375 52.5753 505.977C52.3101 505.576 52.1776 505.091 52.1776 504.523C52.1776 504.023 52.276 503.617 52.473 503.307C52.67 502.992 52.9332 502.746 53.2628 502.568C53.5923 502.39 53.956 502.258 54.3537 502.17C54.7552 502.08 55.1586 502.008 55.5639 501.955C56.0942 501.886 56.5241 501.835 56.8537 501.801C57.187 501.763 57.4295 501.701 57.581 501.614C57.7363 501.527 57.8139 501.375 57.8139 501.159V501.114C57.8139 500.553 57.6605 500.117 57.3537 499.807C57.0507 499.496 56.5904 499.341 55.973 499.341C55.3329 499.341 54.831 499.481 54.4673 499.761C54.1037 500.042 53.848 500.341 53.7003 500.659L52.4276 500.205C52.6548 499.674 52.9579 499.261 53.3366 498.966C53.7192 498.667 54.1359 498.458 54.5866 498.341C55.0412 498.22 55.4882 498.159 55.9276 498.159C56.2079 498.159 56.5298 498.193 56.8935 498.261C57.2609 498.326 57.6151 498.46 57.956 498.665C58.3007 498.869 58.5866 499.178 58.8139 499.591C59.0412 500.004 59.1548 500.557 59.1548 501.25V507H57.8139V505.818H57.7457C57.6548 506.008 57.5033 506.21 57.2912 506.426C57.0791 506.642 56.7969 506.826 56.4446 506.977C56.0923 507.129 55.6624 507.205 55.1548 507.205ZM55.3594 506C55.8897 506 56.3366 505.896 56.7003 505.688C57.0677 505.479 57.3442 505.21 57.5298 504.881C57.7192 504.551 57.8139 504.205 57.8139 503.841V502.614C57.7571 502.682 57.6321 502.744 57.4389 502.801C57.2495 502.854 57.0298 502.902 56.7798 502.943C56.5336 502.981 56.2931 503.015 56.0582 503.045C55.8272 503.072 55.6397 503.095 55.4957 503.114C55.1473 503.159 54.8215 503.233 54.5185 503.335C54.2192 503.434 53.9768 503.583 53.7912 503.784C53.6094 503.981 53.5185 504.25 53.5185 504.591C53.5185 505.057 53.6908 505.409 54.0355 505.648C54.384 505.883 54.8253 506 55.3594 506ZM62.9432 501.75V507H61.6023V498.273H62.8977V499.636H63.0114C63.2159 499.193 63.5265 498.837 63.9432 498.568C64.3598 498.295 64.8977 498.159 65.5568 498.159C66.1477 498.159 66.6648 498.28 67.108 498.523C67.5511 498.761 67.8958 499.125 68.142 499.614C68.3883 500.098 68.5114 500.712 68.5114 501.455V507H67.1705V501.545C67.1705 500.86 66.9924 500.326 66.6364 499.943C66.2803 499.557 65.7917 499.364 65.1705 499.364C64.7424 499.364 64.3598 499.456 64.0227 499.642C63.6894 499.828 63.4261 500.098 63.233 500.455C63.0398 500.811 62.9432 501.242 62.9432 501.75ZM71.5128 510.273C71.2855 510.273 71.0829 510.254 70.9048 510.216C70.7268 510.182 70.6037 510.148 70.5355 510.114L70.8764 508.932C71.2022 509.015 71.4901 509.045 71.7401 509.023C71.9901 509 72.2116 508.888 72.4048 508.688C72.6018 508.491 72.7817 508.17 72.9446 507.727L73.1946 507.045L69.9673 498.273H71.4219L73.831 505.227H73.9219L76.331 498.273H77.7855L74.081 508.273C73.9143 508.723 73.7079 509.097 73.4616 509.392C73.2154 509.691 72.9295 509.913 72.6037 510.057C72.2817 510.201 71.9181 510.273 71.5128 510.273ZM86.0327 507L83.3736 498.273H84.7827L86.669 504.955H86.7599L88.6236 498.273H90.0554L91.8963 504.932H91.9872L93.8736 498.273H95.2827L92.6236 507H91.3054L89.3963 500.295H89.2599L87.3509 507H86.0327ZM99.6236 507.205C99.0705 507.205 98.5687 507.1 98.1179 506.892C97.6671 506.68 97.3092 506.375 97.044 505.977C96.7789 505.576 96.6463 505.091 96.6463 504.523C96.6463 504.023 96.7448 503.617 96.9418 503.307C97.1387 502.992 97.402 502.746 97.7315 502.568C98.0611 502.39 98.4247 502.258 98.8224 502.17C99.224 502.08 99.6274 502.008 100.033 501.955C100.563 501.886 100.993 501.835 101.322 501.801C101.656 501.763 101.898 501.701 102.05 501.614C102.205 501.527 102.283 501.375 102.283 501.159V501.114C102.283 500.553 102.129 500.117 101.822 499.807C101.519 499.496 101.059 499.341 100.442 499.341C99.8016 499.341 99.2997 499.481 98.9361 499.761C98.5724 500.042 98.3168 500.341 98.169 500.659L96.8963 500.205C97.1236 499.674 97.4266 499.261 97.8054 498.966C98.188 498.667 98.6046 498.458 99.0554 498.341C99.5099 498.22 99.9569 498.159 100.396 498.159C100.677 498.159 100.999 498.193 101.362 498.261C101.73 498.326 102.084 498.46 102.425 498.665C102.769 498.869 103.055 499.178 103.283 499.591C103.51 500.004 103.624 500.557 103.624 501.25V507H102.283V505.818H102.214C102.124 506.008 101.972 506.21 101.76 506.426C101.548 506.642 101.266 506.826 100.913 506.977C100.561 507.129 100.131 507.205 99.6236 507.205ZM99.8281 506C100.358 506 100.805 505.896 101.169 505.688C101.536 505.479 101.813 505.21 101.999 504.881C102.188 504.551 102.283 504.205 102.283 503.841V502.614C102.226 502.682 102.101 502.744 101.908 502.801C101.718 502.854 101.499 502.902 101.249 502.943C101.002 502.981 100.762 503.015 100.527 503.045C100.296 503.072 100.108 503.095 99.9645 503.114C99.616 503.159 99.2902 503.233 98.9872 503.335C98.688 503.434 98.4455 503.583 98.2599 503.784C98.0781 503.981 97.9872 504.25 97.9872 504.591C97.9872 505.057 98.1596 505.409 98.5043 505.648C98.8527 505.883 99.294 506 99.8281 506ZM107.412 495.364V507H106.071V495.364H107.412ZM111.209 495.364V507H109.868V495.364H111.209ZM117.324 507.182C116.483 507.182 115.758 506.996 115.148 506.625C114.542 506.25 114.074 505.727 113.744 505.057C113.419 504.383 113.256 503.598 113.256 502.705C113.256 501.811 113.419 501.023 113.744 500.341C114.074 499.655 114.532 499.121 115.119 498.739C115.71 498.352 116.4 498.159 117.188 498.159C117.642 498.159 118.091 498.235 118.534 498.386C118.977 498.538 119.381 498.784 119.744 499.125C120.108 499.462 120.398 499.909 120.614 500.466C120.83 501.023 120.938 501.708 120.938 502.523V503.091H114.21V501.932H119.574C119.574 501.439 119.475 501 119.278 500.614C119.085 500.227 118.809 499.922 118.449 499.699C118.093 499.475 117.672 499.364 117.188 499.364C116.653 499.364 116.191 499.496 115.801 499.761C115.415 500.023 115.117 500.364 114.909 500.784C114.701 501.205 114.597 501.655 114.597 502.136V502.909C114.597 503.568 114.71 504.127 114.938 504.585C115.169 505.04 115.489 505.386 115.898 505.625C116.307 505.86 116.782 505.977 117.324 505.977C117.676 505.977 117.994 505.928 118.278 505.83C118.566 505.727 118.814 505.576 119.023 505.375C119.231 505.17 119.392 504.917 119.506 504.614L120.801 504.977C120.665 505.417 120.436 505.803 120.114 506.136C119.792 506.466 119.394 506.723 118.92 506.909C118.447 507.091 117.915 507.182 117.324 507.182ZM126.773 498.273V499.409H122.25V498.273H126.773ZM123.568 496.182H124.909V504.5C124.909 504.879 124.964 505.163 125.074 505.352C125.188 505.538 125.331 505.663 125.506 505.727C125.684 505.788 125.871 505.818 126.068 505.818C126.216 505.818 126.337 505.811 126.432 505.795C126.527 505.777 126.602 505.761 126.659 505.75L126.932 506.955C126.841 506.989 126.714 507.023 126.551 507.057C126.388 507.095 126.182 507.114 125.932 507.114C125.553 507.114 125.182 507.032 124.818 506.869C124.458 506.706 124.159 506.458 123.92 506.125C123.686 505.792 123.568 505.371 123.568 504.864V496.182ZM134.631 501.75V507H133.29V495.364H134.631V499.636H134.744C134.949 499.186 135.256 498.828 135.665 498.562C136.078 498.294 136.627 498.159 137.312 498.159C137.907 498.159 138.428 498.278 138.875 498.517C139.322 498.752 139.669 499.114 139.915 499.602C140.165 500.087 140.29 500.705 140.29 501.455V507H138.949V501.545C138.949 500.852 138.769 500.316 138.409 499.938C138.053 499.555 137.559 499.364 136.926 499.364C136.487 499.364 136.093 499.456 135.744 499.642C135.4 499.828 135.127 500.098 134.926 500.455C134.729 500.811 134.631 501.242 134.631 501.75ZM146.288 507.182C145.5 507.182 144.809 506.994 144.214 506.619C143.624 506.244 143.161 505.72 142.828 505.045C142.499 504.371 142.334 503.583 142.334 502.682C142.334 501.773 142.499 500.979 142.828 500.301C143.161 499.623 143.624 499.097 144.214 498.722C144.809 498.347 145.5 498.159 146.288 498.159C147.076 498.159 147.766 498.347 148.357 498.722C148.951 499.097 149.413 499.623 149.743 500.301C150.076 500.979 150.243 501.773 150.243 502.682C150.243 503.583 150.076 504.371 149.743 505.045C149.413 505.72 148.951 506.244 148.357 506.619C147.766 506.994 147.076 507.182 146.288 507.182ZM146.288 505.977C146.887 505.977 147.379 505.824 147.766 505.517C148.152 505.21 148.438 504.807 148.624 504.307C148.809 503.807 148.902 503.265 148.902 502.682C148.902 502.098 148.809 501.555 148.624 501.051C148.438 500.547 148.152 500.14 147.766 499.83C147.379 499.519 146.887 499.364 146.288 499.364C145.69 499.364 145.197 499.519 144.811 499.83C144.425 500.14 144.139 500.547 143.953 501.051C143.768 501.555 143.675 502.098 143.675 502.682C143.675 503.265 143.768 503.807 143.953 504.307C144.139 504.807 144.425 505.21 144.811 505.517C145.197 505.824 145.69 505.977 146.288 505.977ZM153.631 495.364V507H152.29V495.364H153.631ZM159.382 507.182C158.655 507.182 158.013 506.998 157.456 506.631C156.899 506.259 156.464 505.737 156.149 505.062C155.835 504.384 155.678 503.583 155.678 502.659C155.678 501.742 155.835 500.947 156.149 500.273C156.464 499.598 156.901 499.078 157.462 498.71C158.022 498.343 158.67 498.159 159.405 498.159C159.973 498.159 160.422 498.254 160.751 498.443C161.085 498.629 161.339 498.841 161.513 499.08C161.691 499.314 161.829 499.508 161.928 499.659H162.041V495.364H163.382V507H162.087V505.659H161.928C161.829 505.818 161.689 506.019 161.507 506.261C161.325 506.5 161.066 506.714 160.729 506.903C160.392 507.089 159.943 507.182 159.382 507.182ZM159.564 505.977C160.102 505.977 160.556 505.837 160.928 505.557C161.299 505.273 161.581 504.881 161.774 504.381C161.967 503.877 162.064 503.295 162.064 502.636C162.064 501.985 161.969 501.415 161.78 500.926C161.59 500.434 161.31 500.051 160.939 499.778C160.568 499.502 160.109 499.364 159.564 499.364C158.996 499.364 158.522 499.509 158.143 499.801C157.768 500.089 157.486 500.481 157.297 500.977C157.111 501.47 157.018 502.023 157.018 502.636C157.018 503.258 157.113 503.822 157.303 504.33C157.496 504.833 157.78 505.235 158.155 505.534C158.534 505.83 159.003 505.977 159.564 505.977ZM169.683 507.182C168.842 507.182 168.117 506.996 167.507 506.625C166.901 506.25 166.433 505.727 166.104 505.057C165.778 504.383 165.615 503.598 165.615 502.705C165.615 501.811 165.778 501.023 166.104 500.341C166.433 499.655 166.892 499.121 167.479 498.739C168.07 498.352 168.759 498.159 169.547 498.159C170.001 498.159 170.45 498.235 170.893 498.386C171.337 498.538 171.74 498.784 172.104 499.125C172.467 499.462 172.757 499.909 172.973 500.466C173.189 501.023 173.297 501.708 173.297 502.523V503.091H166.57V501.932H171.933C171.933 501.439 171.835 501 171.638 500.614C171.445 500.227 171.168 499.922 170.808 499.699C170.452 499.475 170.032 499.364 169.547 499.364C169.013 499.364 168.551 499.496 168.161 499.761C167.774 500.023 167.477 500.364 167.268 500.784C167.06 501.205 166.956 501.655 166.956 502.136V502.909C166.956 503.568 167.07 504.127 167.297 504.585C167.528 505.04 167.848 505.386 168.257 505.625C168.666 505.86 169.142 505.977 169.683 505.977C170.036 505.977 170.354 505.928 170.638 505.83C170.926 505.727 171.174 505.576 171.382 505.375C171.59 505.17 171.751 504.917 171.865 504.614L173.161 504.977C173.024 505.417 172.795 505.803 172.473 506.136C172.151 506.466 171.753 506.723 171.28 506.909C170.806 507.091 170.274 507.182 169.683 507.182ZM175.337 507V498.273H176.632V499.591H176.723C176.882 499.159 177.17 498.809 177.587 498.54C178.003 498.271 178.473 498.136 178.996 498.136C179.094 498.136 179.217 498.138 179.365 498.142C179.513 498.146 179.625 498.152 179.7 498.159V499.523C179.655 499.511 179.551 499.494 179.388 499.472C179.229 499.445 179.06 499.432 178.882 499.432C178.458 499.432 178.079 499.521 177.746 499.699C177.416 499.873 177.155 500.116 176.962 500.426C176.772 500.733 176.678 501.083 176.678 501.477V507H175.337ZM191.972 500.227L190.767 500.568C190.691 500.367 190.58 500.172 190.432 499.983C190.288 499.79 190.091 499.631 189.841 499.506C189.591 499.381 189.271 499.318 188.881 499.318C188.347 499.318 187.902 499.441 187.545 499.688C187.193 499.93 187.017 500.239 187.017 500.614C187.017 500.947 187.138 501.21 187.381 501.403C187.623 501.597 188.002 501.758 188.517 501.886L189.812 502.205C190.593 502.394 191.174 502.684 191.557 503.074C191.939 503.46 192.131 503.958 192.131 504.568C192.131 505.068 191.987 505.515 191.699 505.909C191.415 506.303 191.017 506.614 190.506 506.841C189.994 507.068 189.4 507.182 188.722 507.182C187.831 507.182 187.095 506.989 186.511 506.602C185.928 506.216 185.559 505.652 185.403 504.909L186.676 504.591C186.797 505.061 187.027 505.413 187.364 505.648C187.705 505.883 188.15 506 188.699 506C189.324 506 189.82 505.867 190.188 505.602C190.559 505.333 190.744 505.011 190.744 504.636C190.744 504.333 190.638 504.08 190.426 503.875C190.214 503.667 189.888 503.511 189.449 503.409L187.994 503.068C187.195 502.879 186.608 502.585 186.233 502.188C185.862 501.786 185.676 501.284 185.676 500.682C185.676 500.189 185.814 499.754 186.091 499.375C186.371 498.996 186.752 498.699 187.233 498.483C187.718 498.267 188.267 498.159 188.881 498.159C189.744 498.159 190.422 498.348 190.915 498.727C191.411 499.106 191.763 499.606 191.972 500.227ZM197.808 507.182C196.967 507.182 196.242 506.996 195.632 506.625C195.026 506.25 194.558 505.727 194.229 505.057C193.903 504.383 193.74 503.598 193.74 502.705C193.74 501.811 193.903 501.023 194.229 500.341C194.558 499.655 195.017 499.121 195.604 498.739C196.195 498.352 196.884 498.159 197.672 498.159C198.126 498.159 198.575 498.235 199.018 498.386C199.462 498.538 199.865 498.784 200.229 499.125C200.592 499.462 200.882 499.909 201.098 500.466C201.314 501.023 201.422 501.708 201.422 502.523V503.091H194.695V501.932H200.058C200.058 501.439 199.96 501 199.763 500.614C199.57 500.227 199.293 499.922 198.933 499.699C198.577 499.475 198.157 499.364 197.672 499.364C197.138 499.364 196.676 499.496 196.286 499.761C195.899 500.023 195.602 500.364 195.393 500.784C195.185 501.205 195.081 501.655 195.081 502.136V502.909C195.081 503.568 195.195 504.127 195.422 504.585C195.653 505.04 195.973 505.386 196.382 505.625C196.791 505.86 197.267 505.977 197.808 505.977C198.161 505.977 198.479 505.928 198.763 505.83C199.051 505.727 199.299 505.576 199.507 505.375C199.715 505.17 199.876 504.917 199.99 504.614L201.286 504.977C201.149 505.417 200.92 505.803 200.598 506.136C200.276 506.466 199.878 506.723 199.405 506.909C198.931 507.091 198.399 507.182 197.808 507.182ZM207.007 507.182C206.189 507.182 205.484 506.989 204.893 506.602C204.303 506.216 203.848 505.684 203.53 505.006C203.212 504.328 203.053 503.553 203.053 502.682C203.053 501.795 203.215 501.013 203.541 500.335C203.871 499.653 204.329 499.121 204.916 498.739C205.507 498.352 206.196 498.159 206.984 498.159C207.598 498.159 208.151 498.273 208.643 498.5C209.136 498.727 209.539 499.045 209.854 499.455C210.168 499.864 210.363 500.341 210.439 500.886H209.098C208.996 500.489 208.768 500.136 208.416 499.83C208.068 499.519 207.598 499.364 207.007 499.364C206.484 499.364 206.026 499.5 205.632 499.773C205.242 500.042 204.937 500.422 204.717 500.915C204.501 501.403 204.393 501.977 204.393 502.636C204.393 503.311 204.5 503.898 204.712 504.398C204.928 504.898 205.231 505.286 205.621 505.562C206.015 505.839 206.477 505.977 207.007 505.977C207.356 505.977 207.672 505.917 207.956 505.795C208.24 505.674 208.481 505.5 208.678 505.273C208.875 505.045 209.015 504.773 209.098 504.455H210.439C210.363 504.97 210.176 505.434 209.876 505.847C209.581 506.256 209.189 506.581 208.7 506.824C208.215 507.062 207.651 507.182 207.007 507.182ZM217.899 503.432V498.273H219.24V507H217.899V505.523H217.808C217.604 505.966 217.286 506.343 216.854 506.653C216.422 506.96 215.876 507.114 215.217 507.114C214.672 507.114 214.187 506.994 213.763 506.756C213.339 506.513 213.005 506.15 212.763 505.665C212.52 505.176 212.399 504.561 212.399 503.818V498.273H213.74V503.727C213.74 504.364 213.918 504.871 214.274 505.25C214.634 505.629 215.092 505.818 215.649 505.818C215.982 505.818 216.321 505.733 216.666 505.562C217.015 505.392 217.306 505.131 217.541 504.778C217.78 504.426 217.899 503.977 217.899 503.432ZM221.696 507V498.273H222.991V499.591H223.082C223.241 499.159 223.529 498.809 223.946 498.54C224.363 498.271 224.832 498.136 225.355 498.136C225.454 498.136 225.577 498.138 225.724 498.142C225.872 498.146 225.984 498.152 226.06 498.159V499.523C226.014 499.511 225.91 499.494 225.747 499.472C225.588 499.445 225.42 499.432 225.241 499.432C224.817 499.432 224.438 499.521 224.105 499.699C223.776 499.873 223.514 500.116 223.321 500.426C223.132 500.733 223.037 501.083 223.037 501.477V507H221.696ZM231.043 507.182C230.202 507.182 229.476 506.996 228.866 506.625C228.26 506.25 227.793 505.727 227.463 505.057C227.137 504.383 226.974 503.598 226.974 502.705C226.974 501.811 227.137 501.023 227.463 500.341C227.793 499.655 228.251 499.121 228.838 498.739C229.429 498.352 230.118 498.159 230.906 498.159C231.361 498.159 231.81 498.235 232.253 498.386C232.696 498.538 233.099 498.784 233.463 499.125C233.827 499.462 234.116 499.909 234.332 500.466C234.548 501.023 234.656 501.708 234.656 502.523V503.091H227.929V501.932H233.293C233.293 501.439 233.194 501 232.997 500.614C232.804 500.227 232.527 499.922 232.168 499.699C231.812 499.475 231.391 499.364 230.906 499.364C230.372 499.364 229.91 499.496 229.52 499.761C229.134 500.023 228.836 500.364 228.628 500.784C228.42 501.205 228.315 501.655 228.315 502.136V502.909C228.315 503.568 228.429 504.127 228.656 504.585C228.887 505.04 229.207 505.386 229.616 505.625C230.026 505.86 230.501 505.977 231.043 505.977C231.395 505.977 231.713 505.928 231.997 505.83C232.285 505.727 232.533 505.576 232.741 505.375C232.95 505.17 233.111 504.917 233.224 504.614L234.52 504.977C234.384 505.417 234.154 505.803 233.832 506.136C233.51 506.466 233.113 506.723 232.639 506.909C232.166 507.091 231.634 507.182 231.043 507.182ZM238.037 495.364V507H236.696V495.364H238.037ZM241.357 510.273C241.129 510.273 240.927 510.254 240.749 510.216C240.571 510.182 240.447 510.148 240.379 510.114L240.72 508.932C241.046 509.015 241.334 509.045 241.584 509.023C241.834 509 242.055 508.888 242.249 508.688C242.446 508.491 242.625 508.17 242.788 507.727L243.038 507.045L239.811 498.273H241.266L243.675 505.227H243.766L246.175 498.273H247.629L243.925 508.273C243.758 508.723 243.552 509.097 243.305 509.392C243.059 509.691 242.773 509.913 242.447 510.057C242.125 510.201 241.762 510.273 241.357 510.273Z" fill="#0C0E0F"/>
<defs>
<clipPath id="clip0_70_2712">
<path d="M44 44C44 39.5817 47.5817 36 52 36H411V384H52C47.5817 384 44 380.418 44 376V44Z" fill="white"/>
</clipPath>
</defs>
</svg>
