<svg width="395" height="460" viewBox="0 0 395 460" fill="none" xmlns="http://www.w3.org/2000/svg">
<rect x="0.5" y="0.5" width="394" height="459" rx="7.5" stroke="black" stroke-opacity="0.5"/>
<path d="M30.7734 347V363H27.3906V347H30.7734ZM36.8223 356.063V363H33.4941V351H36.666V353.117H36.8066C37.0723 352.419 37.5176 351.867 38.1426 351.461C38.7676 351.049 39.5254 350.844 40.416 350.844C41.2493 350.844 41.9759 351.026 42.5957 351.391C43.2155 351.755 43.6973 352.276 44.041 352.953C44.3848 353.625 44.5566 354.427 44.5566 355.359V363H41.2285V355.953C41.2337 355.219 41.0462 354.646 40.666 354.234C40.2858 353.818 39.7624 353.609 39.0957 353.609C38.6478 353.609 38.252 353.706 37.9082 353.898C37.5697 354.091 37.304 354.372 37.1113 354.742C36.9238 355.107 36.8275 355.547 36.8223 356.063ZM57.1641 354.422L54.1172 354.609C54.0651 354.349 53.9531 354.115 53.7813 353.906C53.6094 353.693 53.3828 353.523 53.1016 353.398C52.8255 353.268 52.4948 353.203 52.1094 353.203C51.5938 353.203 51.1589 353.312 50.8047 353.531C50.4505 353.745 50.2734 354.031 50.2734 354.391C50.2734 354.677 50.388 354.919 50.6172 355.117C50.8464 355.315 51.2396 355.474 51.7969 355.594L53.9688 356.031C55.1354 356.271 56.0052 356.656 56.5781 357.187C57.151 357.719 57.4375 358.417 57.4375 359.281C57.4375 360.068 57.2057 360.758 56.7422 361.352C56.2839 361.945 55.6536 362.409 54.8516 362.742C54.0547 363.07 53.1354 363.234 52.0938 363.234C50.5052 363.234 49.2396 362.904 48.2969 362.242C47.3594 361.576 46.8099 360.669 46.6484 359.523L49.9219 359.352C50.0208 359.836 50.2604 360.206 50.6406 360.461C51.0208 360.711 51.5078 360.836 52.1016 360.836C52.6849 360.836 53.1536 360.724 53.5078 360.5C53.8672 360.271 54.0495 359.977 54.0547 359.617C54.0495 359.315 53.9219 359.068 53.6719 358.875C53.4219 358.677 53.0365 358.526 52.5156 358.422L50.4375 358.008C49.2656 357.773 48.3932 357.367 47.8203 356.789C47.2526 356.211 46.9688 355.474 46.9688 354.578C46.9688 353.807 47.1771 353.143 47.5938 352.586C48.0156 352.029 48.6068 351.599 49.3672 351.297C50.1328 350.995 51.0286 350.844 52.0547 350.844C53.5703 350.844 54.763 351.164 55.6328 351.805C56.5078 352.445 57.0182 353.318 57.1641 354.422ZM65.916 351V353.5H58.6895V351H65.916ZM60.3301 348.125H63.6582V359.312C63.6582 359.62 63.7051 359.859 63.7988 360.031C63.8926 360.198 64.0228 360.315 64.1895 360.383C64.3613 360.451 64.5592 360.484 64.7832 360.484C64.9395 360.484 65.0957 360.471 65.252 360.445C65.4082 360.414 65.528 360.391 65.6113 360.375L66.1348 362.852C65.9681 362.904 65.7337 362.964 65.4316 363.031C65.1296 363.104 64.7624 363.148 64.3301 363.164C63.528 363.195 62.8249 363.089 62.2207 362.844C61.6217 362.599 61.1556 362.219 60.8223 361.703C60.4889 361.187 60.3249 360.536 60.3301 359.75V348.125ZM71.5059 363.227C70.7402 363.227 70.0579 363.094 69.459 362.828C68.86 362.557 68.3861 362.159 68.0371 361.633C67.6934 361.102 67.5215 360.44 67.5215 359.648C67.5215 358.982 67.6439 358.422 67.8887 357.969C68.1335 357.516 68.4668 357.151 68.8887 356.875C69.3105 356.599 69.7897 356.391 70.3262 356.25C70.8678 356.109 71.4355 356.01 72.0293 355.953C72.7272 355.88 73.2897 355.812 73.7168 355.75C74.1439 355.682 74.4538 355.583 74.6465 355.453C74.8392 355.323 74.9355 355.13 74.9355 354.875V354.828C74.9355 354.333 74.7793 353.951 74.4668 353.68C74.1595 353.409 73.722 353.273 73.1543 353.273C72.5553 353.273 72.0788 353.406 71.7246 353.672C71.3704 353.932 71.1361 354.26 71.0215 354.656L67.9434 354.406C68.0996 353.677 68.4069 353.047 68.8652 352.516C69.3236 351.979 69.9147 351.568 70.6387 351.281C71.3678 350.99 72.2116 350.844 73.1699 350.844C73.8366 350.844 74.4746 350.922 75.084 351.078C75.6986 351.234 76.2428 351.477 76.7168 351.805C77.196 352.133 77.5736 352.555 77.8496 353.07C78.1257 353.581 78.2637 354.193 78.2637 354.906V363H75.1074V361.336H75.0137C74.821 361.711 74.5632 362.042 74.2402 362.328C73.9173 362.609 73.5293 362.831 73.0762 362.992C72.623 363.148 72.0996 363.227 71.5059 363.227ZM72.459 360.93C72.9486 360.93 73.3809 360.833 73.7559 360.641C74.1309 360.443 74.4251 360.177 74.6387 359.844C74.8522 359.51 74.959 359.133 74.959 358.711V357.438C74.8548 357.505 74.7116 357.568 74.5293 357.625C74.3522 357.677 74.1517 357.727 73.9277 357.773C73.7038 357.815 73.4798 357.854 73.2559 357.891C73.0319 357.922 72.8288 357.951 72.6465 357.977C72.2559 358.034 71.9147 358.125 71.623 358.25C71.3314 358.375 71.1048 358.544 70.9434 358.758C70.7819 358.966 70.7012 359.227 70.7012 359.539C70.7012 359.992 70.8652 360.339 71.1934 360.578C71.5267 360.812 71.9486 360.93 72.459 360.93ZM84.1738 356.063V363H80.8457V351H84.0176V353.117H84.1582C84.4238 352.419 84.8691 351.867 85.4941 351.461C86.1191 351.049 86.877 350.844 87.7676 350.844C88.6009 350.844 89.3275 351.026 89.9473 351.391C90.5671 351.755 91.0488 352.276 91.3926 352.953C91.7363 353.625 91.9082 354.427 91.9082 355.359V363H88.5801V355.953C88.5853 355.219 88.3978 354.646 88.0176 354.234C87.6374 353.818 87.1139 353.609 86.4473 353.609C85.9993 353.609 85.6035 353.706 85.2598 353.898C84.9212 354.091 84.6556 354.372 84.4629 354.742C84.2754 355.107 84.179 355.547 84.1738 356.063ZM100.914 351V353.5H93.6875V351H100.914ZM95.3281 348.125H98.6563V359.312C98.6563 359.62 98.7031 359.859 98.7969 360.031C98.8906 360.198 99.0208 360.315 99.1875 360.383C99.3594 360.451 99.5573 360.484 99.7813 360.484C99.9375 360.484 100.094 360.471 100.25 360.445C100.406 360.414 100.526 360.391 100.609 360.375L101.133 362.852C100.966 362.904 100.732 362.964 100.43 363.031C100.128 363.104 99.7604 363.148 99.3281 363.164C98.526 363.195 97.8229 363.089 97.2188 362.844C96.6198 362.599 96.1536 362.219 95.8203 361.703C95.487 361.187 95.3229 360.536 95.3281 359.75V348.125ZM110.994 363H107.369L112.893 347H117.252L122.768 363H119.143L115.135 350.656H115.01L110.994 363ZM110.768 356.711H119.33V359.352H110.768V356.711ZM129.494 363.234C128.265 363.234 127.208 362.974 126.322 362.453C125.442 361.927 124.765 361.198 124.291 360.266C123.822 359.333 123.588 358.26 123.588 357.047C123.588 355.818 123.825 354.74 124.299 353.812C124.778 352.88 125.458 352.154 126.338 351.633C127.218 351.107 128.265 350.844 129.479 350.844C130.525 350.844 131.442 351.034 132.229 351.414C133.015 351.794 133.637 352.328 134.096 353.016C134.554 353.703 134.807 354.51 134.854 355.438H131.713C131.624 354.839 131.39 354.357 131.01 353.992C130.635 353.622 130.143 353.437 129.533 353.437C129.018 353.437 128.567 353.578 128.182 353.859C127.801 354.135 127.505 354.539 127.291 355.07C127.077 355.602 126.971 356.245 126.971 357C126.971 357.766 127.075 358.417 127.283 358.953C127.497 359.49 127.796 359.898 128.182 360.18C128.567 360.461 129.018 360.602 129.533 360.602C129.913 360.602 130.255 360.523 130.557 360.367C130.864 360.211 131.117 359.984 131.314 359.687C131.518 359.385 131.65 359.023 131.713 358.602H134.854C134.801 359.518 134.551 360.326 134.104 361.023C133.661 361.716 133.049 362.258 132.268 362.648C131.486 363.039 130.562 363.234 129.494 363.234ZM142.406 363.234C141.177 363.234 140.12 362.974 139.234 362.453C138.354 361.927 137.677 361.198 137.203 360.266C136.734 359.333 136.5 358.26 136.5 357.047C136.5 355.818 136.737 354.74 137.211 353.812C137.69 352.88 138.37 352.154 139.25 351.633C140.13 351.107 141.177 350.844 142.391 350.844C143.438 350.844 144.354 351.034 145.141 351.414C145.927 351.794 146.549 352.328 147.008 353.016C147.466 353.703 147.719 354.51 147.766 355.438H144.625C144.536 354.839 144.302 354.357 143.922 353.992C143.547 353.622 143.055 353.437 142.445 353.437C141.93 353.437 141.479 353.578 141.094 353.859C140.714 354.135 140.417 354.539 140.203 355.07C139.99 355.602 139.883 356.245 139.883 357C139.883 357.766 139.987 358.417 140.195 358.953C140.409 359.49 140.708 359.898 141.094 360.18C141.479 360.461 141.93 360.602 142.445 360.602C142.826 360.602 143.167 360.523 143.469 360.367C143.776 360.211 144.029 359.984 144.227 359.687C144.43 359.385 144.563 359.023 144.625 358.602H147.766C147.714 359.518 147.464 360.326 147.016 361.023C146.573 361.716 145.961 362.258 145.18 362.648C144.398 363.039 143.474 363.234 142.406 363.234ZM155.365 363.234C154.131 363.234 153.068 362.984 152.178 362.484C151.292 361.979 150.61 361.266 150.131 360.344C149.652 359.417 149.412 358.32 149.412 357.055C149.412 355.82 149.652 354.737 150.131 353.805C150.61 352.872 151.285 352.146 152.154 351.625C153.029 351.104 154.055 350.844 155.232 350.844C156.024 350.844 156.761 350.971 157.443 351.227C158.131 351.477 158.73 351.854 159.24 352.359C159.756 352.865 160.157 353.5 160.443 354.266C160.73 355.026 160.873 355.917 160.873 356.937V357.852H150.74V355.789H157.74C157.74 355.31 157.636 354.885 157.428 354.516C157.219 354.146 156.93 353.857 156.561 353.648C156.196 353.435 155.771 353.328 155.287 353.328C154.782 353.328 154.334 353.445 153.943 353.68C153.558 353.909 153.256 354.219 153.037 354.609C152.818 354.995 152.706 355.424 152.701 355.898V357.859C152.701 358.453 152.811 358.966 153.029 359.398C153.253 359.831 153.568 360.164 153.975 360.398C154.381 360.633 154.863 360.75 155.42 360.75C155.79 360.75 156.128 360.698 156.436 360.594C156.743 360.49 157.006 360.333 157.225 360.125C157.443 359.917 157.61 359.661 157.725 359.359L160.803 359.562C160.646 360.302 160.326 360.948 159.842 361.5C159.363 362.047 158.743 362.474 157.982 362.781C157.227 363.083 156.355 363.234 155.365 363.234ZM173.029 354.422L169.982 354.609C169.93 354.349 169.818 354.115 169.646 353.906C169.475 353.693 169.248 353.523 168.967 353.398C168.691 353.268 168.36 353.203 167.975 353.203C167.459 353.203 167.024 353.312 166.67 353.531C166.316 353.745 166.139 354.031 166.139 354.391C166.139 354.677 166.253 354.919 166.482 355.117C166.712 355.315 167.105 355.474 167.662 355.594L169.834 356.031C171.001 356.271 171.87 356.656 172.443 357.187C173.016 357.719 173.303 358.417 173.303 359.281C173.303 360.068 173.071 360.758 172.607 361.352C172.149 361.945 171.519 362.409 170.717 362.742C169.92 363.07 169.001 363.234 167.959 363.234C166.37 363.234 165.105 362.904 164.162 362.242C163.225 361.576 162.675 360.669 162.514 359.523L165.787 359.352C165.886 359.836 166.126 360.206 166.506 360.461C166.886 360.711 167.373 360.836 167.967 360.836C168.55 360.836 169.019 360.724 169.373 360.5C169.732 360.271 169.915 359.977 169.92 359.617C169.915 359.315 169.787 359.068 169.537 358.875C169.287 358.677 168.902 358.526 168.381 358.422L166.303 358.008C165.131 357.773 164.258 357.367 163.686 356.789C163.118 356.211 162.834 355.474 162.834 354.578C162.834 353.807 163.042 353.143 163.459 352.586C163.881 352.029 164.472 351.599 165.232 351.297C165.998 350.995 166.894 350.844 167.92 350.844C169.436 350.844 170.628 351.164 171.498 351.805C172.373 352.445 172.883 353.318 173.029 354.422ZM185.383 354.422L182.336 354.609C182.284 354.349 182.172 354.115 182 353.906C181.828 353.693 181.602 353.523 181.32 353.398C181.044 353.268 180.714 353.203 180.328 353.203C179.813 353.203 179.378 353.312 179.023 353.531C178.669 353.745 178.492 354.031 178.492 354.391C178.492 354.677 178.607 354.919 178.836 355.117C179.065 355.315 179.458 355.474 180.016 355.594L182.188 356.031C183.354 356.271 184.224 356.656 184.797 357.187C185.37 357.719 185.656 358.417 185.656 359.281C185.656 360.068 185.424 360.758 184.961 361.352C184.503 361.945 183.872 362.409 183.07 362.742C182.273 363.07 181.354 363.234 180.313 363.234C178.724 363.234 177.458 362.904 176.516 362.242C175.578 361.576 175.029 360.669 174.867 359.523L178.141 359.352C178.24 359.836 178.479 360.206 178.859 360.461C179.24 360.711 179.727 360.836 180.32 360.836C180.904 360.836 181.372 360.724 181.727 360.5C182.086 360.271 182.268 359.977 182.273 359.617C182.268 359.315 182.141 359.068 181.891 358.875C181.641 358.677 181.255 358.526 180.734 358.422L178.656 358.008C177.484 357.773 176.612 357.367 176.039 356.789C175.471 356.211 175.188 355.474 175.188 354.578C175.188 353.807 175.396 353.143 175.813 352.586C176.234 352.029 176.826 351.599 177.586 351.297C178.352 350.995 179.247 350.844 180.273 350.844C181.789 350.844 182.982 351.164 183.852 351.805C184.727 352.445 185.237 353.318 185.383 354.422Z" fill="#0C0E0F"/>
<path d="M36.6364 388.364V400H35.2727L28.9318 390.864H28.8182V400H27.4091V388.364H28.7727L35.1364 397.523H35.25V388.364H36.6364ZM42.8196 400.182C42.0317 400.182 41.3404 399.994 40.7457 399.619C40.1548 399.244 39.6927 398.72 39.3594 398.045C39.0298 397.371 38.8651 396.583 38.8651 395.682C38.8651 394.773 39.0298 393.979 39.3594 393.301C39.6927 392.623 40.1548 392.097 40.7457 391.722C41.3404 391.347 42.0317 391.159 42.8196 391.159C43.6075 391.159 44.2969 391.347 44.8878 391.722C45.4825 392.097 45.9446 392.623 46.2741 393.301C46.6075 393.979 46.7741 394.773 46.7741 395.682C46.7741 396.583 46.6075 397.371 46.2741 398.045C45.9446 398.72 45.4825 399.244 44.8878 399.619C44.2969 399.994 43.6075 400.182 42.8196 400.182ZM42.8196 398.977C43.4181 398.977 43.9105 398.824 44.2969 398.517C44.6832 398.21 44.9692 397.807 45.1548 397.307C45.3404 396.807 45.4332 396.265 45.4332 395.682C45.4332 395.098 45.3404 394.555 45.1548 394.051C44.9692 393.547 44.6832 393.14 44.2969 392.83C43.9105 392.519 43.4181 392.364 42.8196 392.364C42.2211 392.364 41.7287 392.519 41.3423 392.83C40.956 393.14 40.67 393.547 40.4844 394.051C40.2988 394.555 40.206 395.098 40.206 395.682C40.206 396.265 40.2988 396.807 40.4844 397.307C40.67 397.807 40.956 398.21 41.3423 398.517C41.7287 398.824 42.2211 398.977 42.8196 398.977ZM53.321 400V391.273H54.6619V400H53.321ZM54.0028 389.818C53.7415 389.818 53.5161 389.729 53.3267 389.551C53.1411 389.373 53.0483 389.159 53.0483 388.909C53.0483 388.659 53.1411 388.445 53.3267 388.267C53.5161 388.089 53.7415 388 54.0028 388C54.2642 388 54.4877 388.089 54.6733 388.267C54.8627 388.445 54.9574 388.659 54.9574 388.909C54.9574 389.159 54.8627 389.373 54.6733 389.551C54.4877 389.729 54.2642 389.818 54.0028 389.818ZM58.4588 394.75V400H57.1179V391.273H58.4134V392.636H58.527C58.7315 392.193 59.0421 391.837 59.4588 391.568C59.8755 391.295 60.4134 391.159 61.0724 391.159C61.6634 391.159 62.1804 391.28 62.6236 391.523C63.0668 391.761 63.4115 392.125 63.6577 392.614C63.9039 393.098 64.027 393.712 64.027 394.455V400H62.6861V394.545C62.6861 393.86 62.508 393.326 62.152 392.943C61.7959 392.557 61.3073 392.364 60.6861 392.364C60.258 392.364 59.8755 392.456 59.5384 392.642C59.205 392.828 58.9418 393.098 58.7486 393.455C58.5554 393.811 58.4588 394.242 58.4588 394.75ZM72.6591 393.227L71.4545 393.568C71.3788 393.367 71.267 393.172 71.1193 392.983C70.9754 392.79 70.7784 392.631 70.5284 392.506C70.2784 392.381 69.9583 392.318 69.5682 392.318C69.0341 392.318 68.589 392.441 68.233 392.688C67.8807 392.93 67.7045 393.239 67.7045 393.614C67.7045 393.947 67.8258 394.21 68.0682 394.403C68.3106 394.597 68.6894 394.758 69.2045 394.886L70.5 395.205C71.2803 395.394 71.8617 395.684 72.2443 396.074C72.6269 396.46 72.8182 396.958 72.8182 397.568C72.8182 398.068 72.6742 398.515 72.3864 398.909C72.1023 399.303 71.7045 399.614 71.1932 399.841C70.6818 400.068 70.0871 400.182 69.4091 400.182C68.5189 400.182 67.7822 399.989 67.1989 399.602C66.6155 399.216 66.2462 398.652 66.0909 397.909L67.3636 397.591C67.4848 398.061 67.714 398.413 68.0511 398.648C68.392 398.883 68.8371 399 69.3864 399C70.0114 399 70.5076 398.867 70.875 398.602C71.2462 398.333 71.4318 398.011 71.4318 397.636C71.4318 397.333 71.3258 397.08 71.1136 396.875C70.9015 396.667 70.5758 396.511 70.1364 396.409L68.6818 396.068C67.8826 395.879 67.2955 395.585 66.9205 395.188C66.5492 394.786 66.3636 394.284 66.3636 393.682C66.3636 393.189 66.5019 392.754 66.7784 392.375C67.0587 391.996 67.4394 391.699 67.9205 391.483C68.4053 391.267 68.9545 391.159 69.5682 391.159C70.4318 391.159 71.1098 391.348 71.6023 391.727C72.0985 392.106 72.4508 392.606 72.6591 393.227ZM78.6321 391.273V392.409H74.1094V391.273H78.6321ZM75.4276 389.182H76.7685V397.5C76.7685 397.879 76.8234 398.163 76.9332 398.352C77.0469 398.538 77.1908 398.663 77.3651 398.727C77.5431 398.788 77.7306 398.818 77.9276 398.818C78.0753 398.818 78.1965 398.811 78.2912 398.795C78.3859 398.777 78.4616 398.761 78.5185 398.75L78.7912 399.955C78.7003 399.989 78.5734 400.023 78.4105 400.057C78.2476 400.095 78.0412 400.114 77.7912 400.114C77.4124 400.114 77.0412 400.032 76.6776 399.869C76.3177 399.706 76.0185 399.458 75.7798 399.125C75.545 398.792 75.4276 398.371 75.4276 397.864V389.182ZM83.2173 400.205C82.6643 400.205 82.1624 400.1 81.7116 399.892C81.2609 399.68 80.9029 399.375 80.6378 398.977C80.3726 398.576 80.2401 398.091 80.2401 397.523C80.2401 397.023 80.3385 396.617 80.5355 396.307C80.7325 395.992 80.9957 395.746 81.3253 395.568C81.6548 395.39 82.0185 395.258 82.4162 395.17C82.8177 395.08 83.2211 395.008 83.6264 394.955C84.1567 394.886 84.5866 394.835 84.9162 394.801C85.2495 394.763 85.492 394.701 85.6435 394.614C85.7988 394.527 85.8764 394.375 85.8764 394.159V394.114C85.8764 393.553 85.723 393.117 85.4162 392.807C85.1132 392.496 84.6529 392.341 84.0355 392.341C83.3954 392.341 82.8935 392.481 82.5298 392.761C82.1662 393.042 81.9105 393.341 81.7628 393.659L80.4901 393.205C80.7173 392.674 81.0204 392.261 81.3991 391.966C81.7817 391.667 82.1984 391.458 82.6491 391.341C83.1037 391.22 83.5507 391.159 83.9901 391.159C84.2704 391.159 84.5923 391.193 84.956 391.261C85.3234 391.326 85.6776 391.46 86.0185 391.665C86.3632 391.869 86.6491 392.178 86.8764 392.591C87.1037 393.004 87.2173 393.557 87.2173 394.25V400H85.8764V398.818H85.8082C85.7173 399.008 85.5658 399.21 85.3537 399.426C85.1416 399.642 84.8594 399.826 84.5071 399.977C84.1548 400.129 83.7249 400.205 83.2173 400.205ZM83.4219 399C83.9522 399 84.3991 398.896 84.7628 398.688C85.1302 398.479 85.4067 398.21 85.5923 397.881C85.7817 397.551 85.8764 397.205 85.8764 396.841V395.614C85.8196 395.682 85.6946 395.744 85.5014 395.801C85.312 395.854 85.0923 395.902 84.8423 395.943C84.5961 395.981 84.3556 396.015 84.1207 396.045C83.8897 396.072 83.7022 396.095 83.5582 396.114C83.2098 396.159 82.884 396.233 82.581 396.335C82.2817 396.434 82.0393 396.583 81.8537 396.784C81.6719 396.981 81.581 397.25 81.581 397.591C81.581 398.057 81.7533 398.409 82.098 398.648C82.4465 398.883 82.8878 399 83.4219 399ZM91.0057 388.364V400H89.6648V388.364H91.0057ZM94.8026 388.364V400H93.4616V388.364H94.8026ZM99.8267 400.205C99.2737 400.205 98.7718 400.1 98.321 399.892C97.8703 399.68 97.5123 399.375 97.2472 398.977C96.982 398.576 96.8494 398.091 96.8494 397.523C96.8494 397.023 96.9479 396.617 97.1449 396.307C97.3419 395.992 97.6051 395.746 97.9347 395.568C98.2642 395.39 98.6278 395.258 99.0256 395.17C99.4271 395.08 99.8305 395.008 100.236 394.955C100.766 394.886 101.196 394.835 101.526 394.801C101.859 394.763 102.101 394.701 102.253 394.614C102.408 394.527 102.486 394.375 102.486 394.159V394.114C102.486 393.553 102.332 393.117 102.026 392.807C101.723 392.496 101.262 392.341 100.645 392.341C100.005 392.341 99.5028 392.481 99.1392 392.761C98.7756 393.042 98.5199 393.341 98.3722 393.659L97.0994 393.205C97.3267 392.674 97.6297 392.261 98.0085 391.966C98.3911 391.667 98.8078 391.458 99.2585 391.341C99.7131 391.22 100.16 391.159 100.599 391.159C100.88 391.159 101.202 391.193 101.565 391.261C101.933 391.326 102.287 391.46 102.628 391.665C102.973 391.869 103.259 392.178 103.486 392.591C103.713 393.004 103.827 393.557 103.827 394.25V400H102.486V398.818H102.418C102.327 399.008 102.175 399.21 101.963 399.426C101.751 399.642 101.469 399.826 101.116 399.977C100.764 400.129 100.334 400.205 99.8267 400.205ZM100.031 399C100.562 399 101.009 398.896 101.372 398.688C101.74 398.479 102.016 398.21 102.202 397.881C102.391 397.551 102.486 397.205 102.486 396.841V395.614C102.429 395.682 102.304 395.744 102.111 395.801C101.921 395.854 101.702 395.902 101.452 395.943C101.205 395.981 100.965 396.015 100.73 396.045C100.499 396.072 100.312 396.095 100.168 396.114C99.8191 396.159 99.4934 396.233 99.1903 396.335C98.8911 396.434 98.6487 396.583 98.4631 396.784C98.2813 396.981 98.1903 397.25 98.1903 397.591C98.1903 398.057 98.3627 398.409 98.7074 398.648C99.0559 398.883 99.4972 399 100.031 399ZM110.07 391.273V392.409H105.547V391.273H110.07ZM106.865 389.182H108.206V397.5C108.206 397.879 108.261 398.163 108.371 398.352C108.484 398.538 108.628 398.663 108.803 398.727C108.981 398.788 109.168 398.818 109.365 398.818C109.513 398.818 109.634 398.811 109.729 398.795C109.823 398.777 109.899 398.761 109.956 398.75L110.229 399.955C110.138 399.989 110.011 400.023 109.848 400.057C109.685 400.095 109.479 400.114 109.229 400.114C108.85 400.114 108.479 400.032 108.115 399.869C107.755 399.706 107.456 399.458 107.217 399.125C106.982 398.792 106.865 398.371 106.865 397.864V389.182ZM112.087 400V391.273H113.428V400H112.087ZM112.768 389.818C112.507 389.818 112.282 389.729 112.092 389.551C111.907 389.373 111.814 389.159 111.814 388.909C111.814 388.659 111.907 388.445 112.092 388.267C112.282 388.089 112.507 388 112.768 388C113.03 388 113.253 388.089 113.439 388.267C113.628 388.445 113.723 388.659 113.723 388.909C113.723 389.159 113.628 389.373 113.439 389.551C113.253 389.729 113.03 389.818 112.768 389.818ZM119.429 400.182C118.641 400.182 117.95 399.994 117.355 399.619C116.764 399.244 116.302 398.72 115.969 398.045C115.639 397.371 115.474 396.583 115.474 395.682C115.474 394.773 115.639 393.979 115.969 393.301C116.302 392.623 116.764 392.097 117.355 391.722C117.95 391.347 118.641 391.159 119.429 391.159C120.217 391.159 120.906 391.347 121.497 391.722C122.092 392.097 122.554 392.623 122.884 393.301C123.217 393.979 123.384 394.773 123.384 395.682C123.384 396.583 123.217 397.371 122.884 398.045C122.554 398.72 122.092 399.244 121.497 399.619C120.906 399.994 120.217 400.182 119.429 400.182ZM119.429 398.977C120.027 398.977 120.52 398.824 120.906 398.517C121.293 398.21 121.579 397.807 121.764 397.307C121.95 396.807 122.043 396.265 122.043 395.682C122.043 395.098 121.95 394.555 121.764 394.051C121.579 393.547 121.293 393.14 120.906 392.83C120.52 392.519 120.027 392.364 119.429 392.364C118.83 392.364 118.338 392.519 117.952 392.83C117.565 393.14 117.279 393.547 117.094 394.051C116.908 394.555 116.815 395.098 116.815 395.682C116.815 396.265 116.908 396.807 117.094 397.307C117.279 397.807 117.565 398.21 117.952 398.517C118.338 398.824 118.83 398.977 119.429 398.977ZM126.771 394.75V400H125.43V391.273H126.726V392.636H126.839C127.044 392.193 127.355 391.837 127.771 391.568C128.188 391.295 128.726 391.159 129.385 391.159C129.976 391.159 130.493 391.28 130.936 391.523C131.379 391.761 131.724 392.125 131.97 392.614C132.216 393.098 132.339 393.712 132.339 394.455V400H130.999V394.545C130.999 393.86 130.821 393.326 130.464 392.943C130.108 392.557 129.62 392.364 128.999 392.364C128.571 392.364 128.188 392.456 127.851 392.642C127.518 392.828 127.254 393.098 127.061 393.455C126.868 393.811 126.771 394.242 126.771 394.75ZM140.972 393.227L139.767 393.568C139.691 393.367 139.58 393.172 139.432 392.983C139.288 392.79 139.091 392.631 138.841 392.506C138.591 392.381 138.271 392.318 137.881 392.318C137.347 392.318 136.902 392.441 136.545 392.688C136.193 392.93 136.017 393.239 136.017 393.614C136.017 393.947 136.138 394.21 136.381 394.403C136.623 394.597 137.002 394.758 137.517 394.886L138.812 395.205C139.593 395.394 140.174 395.684 140.557 396.074C140.939 396.46 141.131 396.958 141.131 397.568C141.131 398.068 140.987 398.515 140.699 398.909C140.415 399.303 140.017 399.614 139.506 399.841C138.994 400.068 138.4 400.182 137.722 400.182C136.831 400.182 136.095 399.989 135.511 399.602C134.928 399.216 134.559 398.652 134.403 397.909L135.676 397.591C135.797 398.061 136.027 398.413 136.364 398.648C136.705 398.883 137.15 399 137.699 399C138.324 399 138.82 398.867 139.188 398.602C139.559 398.333 139.744 398.011 139.744 397.636C139.744 397.333 139.638 397.08 139.426 396.875C139.214 396.667 138.888 396.511 138.449 396.409L136.994 396.068C136.195 395.879 135.608 395.585 135.233 395.188C134.862 394.786 134.676 394.284 134.676 393.682C134.676 393.189 134.814 392.754 135.091 392.375C135.371 391.996 135.752 391.699 136.233 391.483C136.718 391.267 137.267 391.159 137.881 391.159C138.744 391.159 139.422 391.348 139.915 391.727C140.411 392.106 140.763 392.606 140.972 393.227ZM151.195 400.182C150.407 400.182 149.715 399.994 149.121 399.619C148.53 399.244 148.068 398.72 147.734 398.045C147.405 397.371 147.24 396.583 147.24 395.682C147.24 394.773 147.405 393.979 147.734 393.301C148.068 392.623 148.53 392.097 149.121 391.722C149.715 391.347 150.407 391.159 151.195 391.159C151.982 391.159 152.672 391.347 153.263 391.722C153.857 392.097 154.32 392.623 154.649 393.301C154.982 393.979 155.149 394.773 155.149 395.682C155.149 396.583 154.982 397.371 154.649 398.045C154.32 398.72 153.857 399.244 153.263 399.619C152.672 399.994 151.982 400.182 151.195 400.182ZM151.195 398.977C151.793 398.977 152.286 398.824 152.672 398.517C153.058 398.21 153.344 397.807 153.53 397.307C153.715 396.807 153.808 396.265 153.808 395.682C153.808 395.098 153.715 394.555 153.53 394.051C153.344 393.547 153.058 393.14 152.672 392.83C152.286 392.519 151.793 392.364 151.195 392.364C150.596 392.364 150.104 392.519 149.717 392.83C149.331 393.14 149.045 393.547 148.859 394.051C148.674 394.555 148.581 395.098 148.581 395.682C148.581 396.265 148.674 396.807 148.859 397.307C149.045 397.807 149.331 398.21 149.717 398.517C150.104 398.824 150.596 398.977 151.195 398.977ZM157.196 400V391.273H158.491V392.591H158.582C158.741 392.159 159.029 391.809 159.446 391.54C159.863 391.271 160.332 391.136 160.855 391.136C160.954 391.136 161.077 391.138 161.224 391.142C161.372 391.146 161.484 391.152 161.56 391.159V392.523C161.514 392.511 161.41 392.494 161.247 392.472C161.088 392.445 160.92 392.432 160.741 392.432C160.317 392.432 159.938 392.521 159.605 392.699C159.276 392.873 159.014 393.116 158.821 393.426C158.632 393.733 158.537 394.083 158.537 394.477V400H157.196ZM170.217 400.205C169.664 400.205 169.162 400.1 168.712 399.892C168.261 399.68 167.903 399.375 167.638 398.977C167.373 398.576 167.24 398.091 167.24 397.523C167.24 397.023 167.339 396.617 167.536 396.307C167.732 395.992 167.996 395.746 168.325 395.568C168.655 395.39 169.018 395.258 169.416 395.17C169.818 395.08 170.221 395.008 170.626 394.955C171.157 394.886 171.587 394.835 171.916 394.801C172.25 394.763 172.492 394.701 172.643 394.614C172.799 394.527 172.876 394.375 172.876 394.159V394.114C172.876 393.553 172.723 393.117 172.416 392.807C172.113 392.496 171.653 392.341 171.036 392.341C170.395 392.341 169.893 392.481 169.53 392.761C169.166 393.042 168.911 393.341 168.763 393.659L167.49 393.205C167.717 392.674 168.02 392.261 168.399 391.966C168.782 391.667 169.198 391.458 169.649 391.341C170.104 391.22 170.551 391.159 170.99 391.159C171.27 391.159 171.592 391.193 171.956 391.261C172.323 391.326 172.678 391.46 173.018 391.665C173.363 391.869 173.649 392.178 173.876 392.591C174.104 393.004 174.217 393.557 174.217 394.25V400H172.876V398.818H172.808C172.717 399.008 172.566 399.21 172.354 399.426C172.142 399.642 171.859 399.826 171.507 399.977C171.155 400.129 170.725 400.205 170.217 400.205ZM170.422 399C170.952 399 171.399 398.896 171.763 398.688C172.13 398.479 172.407 398.21 172.592 397.881C172.782 397.551 172.876 397.205 172.876 396.841V395.614C172.82 395.682 172.695 395.744 172.501 395.801C172.312 395.854 172.092 395.902 171.842 395.943C171.596 395.981 171.356 396.015 171.121 396.045C170.89 396.072 170.702 396.095 170.558 396.114C170.21 396.159 169.884 396.233 169.581 396.335C169.282 396.434 169.039 396.583 168.854 396.784C168.672 396.981 168.581 397.25 168.581 397.591C168.581 398.057 168.753 398.409 169.098 398.648C169.446 398.883 169.888 399 170.422 399ZM179.96 400.182C179.233 400.182 178.591 399.998 178.034 399.631C177.477 399.259 177.042 398.737 176.727 398.062C176.413 397.384 176.256 396.583 176.256 395.659C176.256 394.742 176.413 393.947 176.727 393.273C177.042 392.598 177.479 392.078 178.04 391.71C178.6 391.343 179.248 391.159 179.983 391.159C180.551 391.159 181 391.254 181.33 391.443C181.663 391.629 181.917 391.841 182.091 392.08C182.269 392.314 182.407 392.508 182.506 392.659H182.619V388.364H183.96V400H182.665V398.659H182.506C182.407 398.818 182.267 399.019 182.085 399.261C181.903 399.5 181.644 399.714 181.307 399.903C180.97 400.089 180.521 400.182 179.96 400.182ZM180.142 398.977C180.68 398.977 181.134 398.837 181.506 398.557C181.877 398.273 182.159 397.881 182.352 397.381C182.545 396.877 182.642 396.295 182.642 395.636C182.642 394.985 182.547 394.415 182.358 393.926C182.169 393.434 181.888 393.051 181.517 392.778C181.146 392.502 180.688 392.364 180.142 392.364C179.574 392.364 179.1 392.509 178.722 392.801C178.347 393.089 178.064 393.481 177.875 393.977C177.689 394.47 177.597 395.023 177.597 395.636C177.597 396.258 177.691 396.822 177.881 397.33C178.074 397.833 178.358 398.235 178.733 398.534C179.112 398.83 179.581 398.977 180.142 398.977ZM186.602 391.273H187.943V400.636C187.943 401.174 187.85 401.64 187.665 402.034C187.483 402.428 187.206 402.733 186.835 402.949C186.468 403.165 186.004 403.273 185.443 403.273C185.398 403.273 185.352 403.273 185.307 403.273C185.261 403.273 185.216 403.273 185.17 403.273V402.023C185.216 402.023 185.258 402.023 185.295 402.023C185.333 402.023 185.375 402.023 185.42 402.023C185.83 402.023 186.129 401.902 186.318 401.659C186.508 401.42 186.602 401.08 186.602 400.636V391.273ZM187.261 389.818C187 389.818 186.775 389.729 186.585 389.551C186.4 389.373 186.307 389.159 186.307 388.909C186.307 388.659 186.4 388.445 186.585 388.267C186.775 388.089 187 388 187.261 388C187.523 388 187.746 388.089 187.932 388.267C188.121 388.445 188.216 388.659 188.216 388.909C188.216 389.159 188.121 389.373 187.932 389.551C187.746 389.729 187.523 389.818 187.261 389.818ZM195.899 396.432V391.273H197.24V400H195.899V398.523H195.808C195.604 398.966 195.286 399.343 194.854 399.653C194.422 399.96 193.876 400.114 193.217 400.114C192.672 400.114 192.187 399.994 191.763 399.756C191.339 399.513 191.005 399.15 190.763 398.665C190.52 398.176 190.399 397.561 190.399 396.818V391.273H191.74V396.727C191.74 397.364 191.918 397.871 192.274 398.25C192.634 398.629 193.092 398.818 193.649 398.818C193.982 398.818 194.321 398.733 194.666 398.562C195.015 398.392 195.306 398.131 195.541 397.778C195.78 397.426 195.899 396.977 195.899 396.432ZM205.878 393.227L204.673 393.568C204.598 393.367 204.486 393.172 204.338 392.983C204.194 392.79 203.997 392.631 203.747 392.506C203.497 392.381 203.177 392.318 202.787 392.318C202.253 392.318 201.808 392.441 201.452 392.688C201.099 392.93 200.923 393.239 200.923 393.614C200.923 393.947 201.045 394.21 201.287 394.403C201.529 394.597 201.908 394.758 202.423 394.886L203.719 395.205C204.499 395.394 205.08 395.684 205.463 396.074C205.846 396.46 206.037 396.958 206.037 397.568C206.037 398.068 205.893 398.515 205.605 398.909C205.321 399.303 204.923 399.614 204.412 399.841C203.901 400.068 203.306 400.182 202.628 400.182C201.738 400.182 201.001 399.989 200.418 399.602C199.834 399.216 199.465 398.652 199.31 397.909L200.582 397.591C200.704 398.061 200.933 398.413 201.27 398.648C201.611 398.883 202.056 399 202.605 399C203.23 399 203.726 398.867 204.094 398.602C204.465 398.333 204.651 398.011 204.651 397.636C204.651 397.333 204.545 397.08 204.332 396.875C204.12 396.667 203.795 396.511 203.355 396.409L201.901 396.068C201.101 395.879 200.514 395.585 200.139 395.188C199.768 394.786 199.582 394.284 199.582 393.682C199.582 393.189 199.721 392.754 199.997 392.375C200.277 391.996 200.658 391.699 201.139 391.483C201.624 391.267 202.173 391.159 202.787 391.159C203.651 391.159 204.329 391.348 204.821 391.727C205.317 392.106 205.67 392.606 205.878 393.227ZM211.851 391.273V392.409H207.328V391.273H211.851ZM208.646 389.182H209.987V397.5C209.987 397.879 210.042 398.163 210.152 398.352C210.266 398.538 210.41 398.663 210.584 398.727C210.762 398.788 210.949 398.818 211.146 398.818C211.294 398.818 211.415 398.811 211.51 398.795C211.605 398.777 211.68 398.761 211.737 398.75L212.01 399.955C211.919 399.989 211.792 400.023 211.629 400.057C211.466 400.095 211.26 400.114 211.01 400.114C210.631 400.114 210.26 400.032 209.896 399.869C209.536 399.706 209.237 399.458 208.999 399.125C208.764 398.792 208.646 398.371 208.646 397.864V389.182ZM213.868 400V391.273H215.163V392.636H215.277C215.459 392.17 215.752 391.809 216.158 391.551C216.563 391.29 217.05 391.159 217.618 391.159C218.194 391.159 218.673 391.29 219.055 391.551C219.442 391.809 219.743 392.17 219.959 392.636H220.05C220.273 392.186 220.608 391.828 221.055 391.562C221.502 391.294 222.038 391.159 222.663 391.159C223.444 391.159 224.082 391.403 224.578 391.892C225.074 392.377 225.322 393.133 225.322 394.159V400H223.982V394.159C223.982 393.515 223.805 393.055 223.453 392.778C223.101 392.502 222.686 392.364 222.209 392.364C221.595 392.364 221.12 392.549 220.783 392.92C220.446 393.288 220.277 393.754 220.277 394.318V400H218.913V394.023C218.913 393.527 218.752 393.127 218.43 392.824C218.108 392.517 217.694 392.364 217.186 392.364C216.838 392.364 216.512 392.456 216.209 392.642C215.91 392.828 215.667 393.085 215.482 393.415C215.3 393.741 215.209 394.117 215.209 394.545V400H213.868ZM231.433 400.182C230.592 400.182 229.867 399.996 229.257 399.625C228.651 399.25 228.183 398.727 227.854 398.057C227.528 397.383 227.365 396.598 227.365 395.705C227.365 394.811 227.528 394.023 227.854 393.341C228.183 392.655 228.642 392.121 229.229 391.739C229.82 391.352 230.509 391.159 231.297 391.159C231.751 391.159 232.2 391.235 232.643 391.386C233.087 391.538 233.49 391.784 233.854 392.125C234.217 392.462 234.507 392.909 234.723 393.466C234.939 394.023 235.047 394.708 235.047 395.523V396.091H228.32V394.932H233.683C233.683 394.439 233.585 394 233.388 393.614C233.195 393.227 232.918 392.922 232.558 392.699C232.202 392.475 231.782 392.364 231.297 392.364C230.763 392.364 230.301 392.496 229.911 392.761C229.524 393.023 229.227 393.364 229.018 393.784C228.81 394.205 228.706 394.655 228.706 395.136V395.909C228.706 396.568 228.82 397.127 229.047 397.585C229.278 398.04 229.598 398.386 230.007 398.625C230.416 398.86 230.892 398.977 231.433 398.977C231.786 398.977 232.104 398.928 232.388 398.83C232.676 398.727 232.924 398.576 233.132 398.375C233.34 398.17 233.501 397.917 233.615 397.614L234.911 397.977C234.774 398.417 234.545 398.803 234.223 399.136C233.901 399.466 233.503 399.723 233.03 399.909C232.556 400.091 232.024 400.182 231.433 400.182ZM238.428 394.75V400H237.087V391.273H238.382V392.636H238.496C238.7 392.193 239.011 391.837 239.428 391.568C239.844 391.295 240.382 391.159 241.041 391.159C241.632 391.159 242.149 391.28 242.592 391.523C243.036 391.761 243.38 392.125 243.626 392.614C243.873 393.098 243.996 393.712 243.996 394.455V400H242.655V394.545C242.655 393.86 242.477 393.326 242.121 392.943C241.765 392.557 241.276 392.364 240.655 392.364C240.227 392.364 239.844 392.456 239.507 392.642C239.174 392.828 238.911 393.098 238.717 393.455C238.524 393.811 238.428 394.242 238.428 394.75ZM250.241 391.273V392.409H245.719V391.273H250.241ZM247.037 389.182H248.378V397.5C248.378 397.879 248.433 398.163 248.543 398.352C248.656 398.538 248.8 398.663 248.974 398.727C249.152 398.788 249.34 398.818 249.537 398.818C249.685 398.818 249.806 398.811 249.901 398.795C249.995 398.777 250.071 398.761 250.128 398.75L250.401 399.955C250.31 399.989 250.183 400.023 250.02 400.057C249.857 400.095 249.651 400.114 249.401 400.114C249.022 400.114 248.651 400.032 248.287 399.869C247.927 399.706 247.628 399.458 247.389 399.125C247.154 398.792 247.037 398.371 247.037 397.864V389.182ZM258.284 393.227L257.08 393.568C257.004 393.367 256.892 393.172 256.744 392.983C256.6 392.79 256.403 392.631 256.153 392.506C255.903 392.381 255.583 392.318 255.193 392.318C254.659 392.318 254.214 392.441 253.858 392.688C253.506 392.93 253.33 393.239 253.33 393.614C253.33 393.947 253.451 394.21 253.693 394.403C253.936 394.597 254.314 394.758 254.83 394.886L256.125 395.205C256.905 395.394 257.487 395.684 257.869 396.074C258.252 396.46 258.443 396.958 258.443 397.568C258.443 398.068 258.299 398.515 258.011 398.909C257.727 399.303 257.33 399.614 256.818 399.841C256.307 400.068 255.712 400.182 255.034 400.182C254.144 400.182 253.407 399.989 252.824 399.602C252.241 399.216 251.871 398.652 251.716 397.909L252.989 397.591C253.11 398.061 253.339 398.413 253.676 398.648C254.017 398.883 254.462 399 255.011 399C255.636 399 256.133 398.867 256.5 398.602C256.871 398.333 257.057 398.011 257.057 397.636C257.057 397.333 256.951 397.08 256.739 396.875C256.527 396.667 256.201 396.511 255.761 396.409L254.307 396.068C253.508 395.879 252.92 395.585 252.545 395.188C252.174 394.786 251.989 394.284 251.989 393.682C251.989 393.189 252.127 392.754 252.403 392.375C252.684 391.996 253.064 391.699 253.545 391.483C254.03 391.267 254.58 391.159 255.193 391.159C256.057 391.159 256.735 391.348 257.227 391.727C257.723 392.106 258.076 392.606 258.284 393.227ZM266.303 394.75V400H264.962V391.273H266.257V392.636H266.371C266.575 392.193 266.886 391.837 267.303 391.568C267.719 391.295 268.257 391.159 268.916 391.159C269.507 391.159 270.024 391.28 270.467 391.523C270.911 391.761 271.255 392.125 271.501 392.614C271.748 393.098 271.871 393.712 271.871 394.455V400H270.53V394.545C270.53 393.86 270.352 393.326 269.996 392.943C269.64 392.557 269.151 392.364 268.53 392.364C268.102 392.364 267.719 392.456 267.382 392.642C267.049 392.828 266.786 393.098 266.592 393.455C266.399 393.811 266.303 394.242 266.303 394.75ZM277.98 400.182C277.139 400.182 276.414 399.996 275.804 399.625C275.198 399.25 274.73 398.727 274.401 398.057C274.075 397.383 273.912 396.598 273.912 395.705C273.912 394.811 274.075 394.023 274.401 393.341C274.73 392.655 275.188 392.121 275.776 391.739C276.366 391.352 277.056 391.159 277.844 391.159C278.298 391.159 278.747 391.235 279.19 391.386C279.634 391.538 280.037 391.784 280.401 392.125C280.764 392.462 281.054 392.909 281.27 393.466C281.486 394.023 281.594 394.708 281.594 395.523V396.091H274.866V394.932H280.23C280.23 394.439 280.132 394 279.935 393.614C279.741 393.227 279.465 392.922 279.105 392.699C278.749 392.475 278.329 392.364 277.844 392.364C277.31 392.364 276.848 392.496 276.457 392.761C276.071 393.023 275.774 393.364 275.565 393.784C275.357 394.205 275.253 394.655 275.253 395.136V395.909C275.253 396.568 275.366 397.127 275.594 397.585C275.825 398.04 276.145 398.386 276.554 398.625C276.963 398.86 277.438 398.977 277.98 398.977C278.332 398.977 278.651 398.928 278.935 398.83C279.223 398.727 279.471 398.576 279.679 398.375C279.887 398.17 280.048 397.917 280.162 397.614L281.457 397.977C281.321 398.417 281.092 398.803 280.77 399.136C280.448 399.466 280.05 399.723 279.577 399.909C279.103 400.091 278.571 400.182 277.98 400.182ZM287.293 400.182C286.452 400.182 285.726 399.996 285.116 399.625C284.51 399.25 284.043 398.727 283.713 398.057C283.387 397.383 283.224 396.598 283.224 395.705C283.224 394.811 283.387 394.023 283.713 393.341C284.043 392.655 284.501 392.121 285.088 391.739C285.679 391.352 286.368 391.159 287.156 391.159C287.611 391.159 288.06 391.235 288.503 391.386C288.946 391.538 289.349 391.784 289.713 392.125C290.077 392.462 290.366 392.909 290.582 393.466C290.798 394.023 290.906 394.708 290.906 395.523V396.091H284.179V394.932H289.543C289.543 394.439 289.444 394 289.247 393.614C289.054 393.227 288.777 392.922 288.418 392.699C288.062 392.475 287.641 392.364 287.156 392.364C286.622 392.364 286.16 392.496 285.77 392.761C285.384 393.023 285.086 393.364 284.878 393.784C284.67 394.205 284.565 394.655 284.565 395.136V395.909C284.565 396.568 284.679 397.127 284.906 397.585C285.137 398.04 285.457 398.386 285.866 398.625C286.276 398.86 286.751 398.977 287.293 398.977C287.645 398.977 287.963 398.928 288.247 398.83C288.535 398.727 288.783 398.576 288.991 398.375C289.2 398.17 289.361 397.917 289.474 397.614L290.77 397.977C290.634 398.417 290.404 398.803 290.082 399.136C289.76 399.466 289.363 399.723 288.889 399.909C288.416 400.091 287.884 400.182 287.293 400.182ZM296.241 400.182C295.514 400.182 294.872 399.998 294.315 399.631C293.759 399.259 293.323 398.737 293.009 398.062C292.694 397.384 292.537 396.583 292.537 395.659C292.537 394.742 292.694 393.947 293.009 393.273C293.323 392.598 293.76 392.078 294.321 391.71C294.882 391.343 295.529 391.159 296.264 391.159C296.832 391.159 297.281 391.254 297.611 391.443C297.944 391.629 298.198 391.841 298.372 392.08C298.55 392.314 298.688 392.508 298.787 392.659H298.901V388.364H300.241V400H298.946V398.659H298.787C298.688 398.818 298.548 399.019 298.366 399.261C298.185 399.5 297.925 399.714 297.588 399.903C297.251 400.089 296.802 400.182 296.241 400.182ZM296.423 398.977C296.961 398.977 297.416 398.837 297.787 398.557C298.158 398.273 298.44 397.881 298.634 397.381C298.827 396.877 298.923 396.295 298.923 395.636C298.923 394.985 298.829 394.415 298.639 393.926C298.45 393.434 298.17 393.051 297.798 392.778C297.427 392.502 296.969 392.364 296.423 392.364C295.855 392.364 295.382 392.509 295.003 392.801C294.628 393.089 294.346 393.481 294.156 393.977C293.971 394.47 293.878 395.023 293.878 395.636C293.878 396.258 293.973 396.822 294.162 397.33C294.355 397.833 294.639 398.235 295.014 398.534C295.393 398.83 295.863 398.977 296.423 398.977ZM306.543 400.182C305.702 400.182 304.976 399.996 304.366 399.625C303.76 399.25 303.293 398.727 302.963 398.057C302.637 397.383 302.474 396.598 302.474 395.705C302.474 394.811 302.637 394.023 302.963 393.341C303.293 392.655 303.751 392.121 304.338 391.739C304.929 391.352 305.618 391.159 306.406 391.159C306.861 391.159 307.31 391.235 307.753 391.386C308.196 391.538 308.599 391.784 308.963 392.125C309.327 392.462 309.616 392.909 309.832 393.466C310.048 394.023 310.156 394.708 310.156 395.523V396.091H303.429V394.932H308.793C308.793 394.439 308.694 394 308.497 393.614C308.304 393.227 308.027 392.922 307.668 392.699C307.312 392.475 306.891 392.364 306.406 392.364C305.872 392.364 305.41 392.496 305.02 392.761C304.634 393.023 304.336 393.364 304.128 393.784C303.92 394.205 303.815 394.655 303.815 395.136V395.909C303.815 396.568 303.929 397.127 304.156 397.585C304.387 398.04 304.707 398.386 305.116 398.625C305.526 398.86 306.001 398.977 306.543 398.977C306.895 398.977 307.213 398.928 307.497 398.83C307.785 398.727 308.033 398.576 308.241 398.375C308.45 398.17 308.611 397.917 308.724 397.614L310.02 397.977C309.884 398.417 309.654 398.803 309.332 399.136C309.01 399.466 308.613 399.723 308.139 399.909C307.666 400.091 307.134 400.182 306.543 400.182ZM315.491 400.182C314.764 400.182 314.122 399.998 313.565 399.631C313.009 399.259 312.573 398.737 312.259 398.062C311.944 397.384 311.787 396.583 311.787 395.659C311.787 394.742 311.944 393.947 312.259 393.273C312.573 392.598 313.01 392.078 313.571 391.71C314.132 391.343 314.779 391.159 315.514 391.159C316.082 391.159 316.531 391.254 316.861 391.443C317.194 391.629 317.448 391.841 317.622 392.08C317.8 392.314 317.938 392.508 318.037 392.659H318.151V388.364H319.491V400H318.196V398.659H318.037C317.938 398.818 317.798 399.019 317.616 399.261C317.435 399.5 317.175 399.714 316.838 399.903C316.501 400.089 316.052 400.182 315.491 400.182ZM315.673 398.977C316.211 398.977 316.666 398.837 317.037 398.557C317.408 398.273 317.69 397.881 317.884 397.381C318.077 396.877 318.173 396.295 318.173 395.636C318.173 394.985 318.079 394.415 317.889 393.926C317.7 393.434 317.42 393.051 317.048 392.778C316.677 392.502 316.219 392.364 315.673 392.364C315.105 392.364 314.632 392.509 314.253 392.801C313.878 393.089 313.596 393.481 313.406 393.977C313.221 394.47 313.128 395.023 313.128 395.636C313.128 396.258 313.223 396.822 313.412 397.33C313.605 397.833 313.889 398.235 314.264 398.534C314.643 398.83 315.113 398.977 315.673 398.977Z" fill="#0C0E0F"/>
<rect width="395" height="316" fill="white"/>
<rect width="395" height="316" fill="#FF8130"/>
<rect x="117.696" y="66.6957" width="158.609" height="161.391" rx="10.4348" fill="white"/>
<rect x="117.696" y="66.6957" width="158.609" height="161.391" rx="10.4348" stroke="black" stroke-width="1.3913"/>
<path fill-rule="evenodd" clip-rule="evenodd" d="M194.913 107.739C198.708 107.739 202.277 108.755 205.348 110.536C205.764 110.753 206.131 111.052 206.428 111.415C206.725 111.778 206.945 112.198 207.076 112.648C207.207 113.099 207.245 113.571 207.189 114.037C207.132 114.503 206.982 114.952 206.747 115.358C206.512 115.764 206.198 116.119 205.822 116.4C205.447 116.682 205.019 116.884 204.563 116.996C204.108 117.108 203.634 117.126 203.171 117.05C202.708 116.974 202.266 116.805 201.87 116.553C199.754 115.332 197.354 114.689 194.911 114.689C192.469 114.689 190.069 115.333 187.954 116.555C185.838 117.776 184.082 119.534 182.862 121.65C181.641 123.766 180.999 126.166 181 128.609L219.261 128.612C221.106 128.612 222.875 129.345 224.18 130.65C225.485 131.954 226.217 133.724 226.217 135.569V170.351C226.217 172.196 225.485 173.966 224.18 175.27C222.875 176.575 221.106 177.308 219.261 177.308H170.565C168.72 177.308 166.951 176.575 165.646 175.27C164.342 173.966 163.609 172.196 163.609 170.351V135.565C163.609 133.72 164.342 131.951 165.646 130.646C166.951 129.341 168.72 128.609 170.565 128.609H174.044C174.044 123.074 176.242 117.765 180.156 113.852C184.07 109.938 189.378 107.739 194.913 107.739ZM194.913 142.522C193.382 142.522 191.893 143.027 190.678 143.959C189.464 144.891 188.59 146.199 188.194 147.678C187.798 149.157 187.9 150.725 188.486 152.14C189.072 153.555 190.109 154.737 191.435 155.502V159.913C191.435 160.835 191.801 161.72 192.454 162.372C193.106 163.025 193.991 163.391 194.913 163.391C195.836 163.391 196.72 163.025 197.373 162.372C198.025 161.72 198.391 160.835 198.391 159.913V155.502C199.717 154.737 200.754 153.555 201.34 152.14C201.926 150.725 202.029 149.157 201.632 147.678C201.236 146.199 200.363 144.891 199.148 143.959C197.933 143.027 196.444 142.522 194.913 142.522ZM222.454 118.247L225.814 119.151C226.671 119.419 227.391 120.008 227.823 120.795C228.255 121.582 228.367 122.505 228.134 123.372C227.902 124.239 227.343 124.983 226.574 125.447C225.806 125.912 224.888 126.061 224.012 125.864L220.656 124.967C219.768 124.725 219.013 124.142 218.555 123.344C218.097 122.547 217.973 121.6 218.21 120.712C218.448 119.823 219.028 119.065 219.823 118.603C220.619 118.141 221.564 118.013 222.454 118.247ZM217.984 108.052C218.426 108.17 218.839 108.374 219.202 108.652C219.564 108.931 219.868 109.277 220.097 109.673C220.325 110.069 220.473 110.506 220.533 110.959C220.592 111.411 220.562 111.872 220.444 112.313L219.995 113.989C219.878 114.433 219.676 114.848 219.398 115.213C219.121 115.577 218.774 115.883 218.378 116.114C217.982 116.344 217.544 116.493 217.09 116.554C216.636 116.614 216.174 116.584 215.732 116.466C215.289 116.348 214.874 116.143 214.511 115.864C214.148 115.585 213.843 115.236 213.615 114.839C213.387 114.442 213.239 114.003 213.181 113.549C213.122 113.095 213.154 112.633 213.275 112.191L213.727 110.511C213.966 109.621 214.548 108.862 215.347 108.401C216.145 107.939 217.094 107.814 217.984 108.052Z" fill="black"/>
<g clip-path="url(#clip0_70_2281)">
<path d="M248.022 233.644C246.422 231.955 244.289 230.8 242.066 230.355C241.089 230.089 240.111 229.911 239.133 229.822C241.622 226.889 241.177 222.444 238.244 219.955C235.311 217.467 230.866 217.911 228.377 220.844C225.889 223.778 226.333 228.222 229.266 230.711C229.8 231.155 230.333 231.511 230.866 231.689V233.644L229.444 232.311C228.2 231.067 226.155 231.067 224.822 232.311C223.577 233.555 223.489 235.511 224.733 236.755L228.822 241.555C229 242.8 229.444 243.955 230.066 245.022C230.511 245.822 231.133 246.622 231.755 247.244V248.933C231.755 249.467 232.111 249.822 232.644 249.822H244.733C245.177 249.822 245.622 249.378 245.622 248.933V246.622C247.311 244.578 248.2 242 248.2 239.422V234.267C248.289 233.911 248.2 233.733 248.022 233.644ZM228.466 225.289C228.466 222.355 230.866 220.044 233.8 220.133C236.733 220.133 239.044 222.533 238.955 225.467C238.955 227.067 238.244 228.489 237 229.467V225.022C236.954 224.252 236.616 223.528 236.054 222.999C235.492 222.47 234.749 222.176 233.977 222.178C232.377 222.089 230.955 223.422 230.955 225.022V229.644C229.444 228.755 228.555 227.067 228.466 225.289ZM246.511 239.333C246.6 241.644 245.8 243.867 244.289 245.644C244.111 245.822 243.933 246 243.933 246.267V248.133H233.622V246.889C233.622 246.622 233.444 246.355 233.266 246.178C232.644 245.644 232.111 245.022 231.666 244.222C231.133 243.333 230.777 242.267 230.6 241.2C230.6 241.022 230.511 240.844 230.422 240.667L226.155 235.6C225.889 235.333 225.711 234.978 225.711 234.533C225.711 234.178 225.889 233.733 226.155 233.467C226.777 232.933 227.666 232.933 228.289 233.467L230.866 236.044V238.711L232.555 237.822V225.022C232.644 224.4 233.177 223.867 233.889 223.955C234.511 223.955 235.133 224.4 235.133 225.022V235.244L236.911 235.6V231.511C237 231.422 237.089 231.422 237.177 231.333C237.8 231.333 238.422 231.422 239.044 231.511V236.044L240.466 236.311V231.689L241.533 231.955C241.977 232.044 242.422 232.222 242.866 232.4V236.844L244.289 237.111V233.022C245.089 233.378 245.8 233.911 246.422 234.533L246.511 239.333Z" fill="black"/>
</g>
<defs>
<clipPath id="clip0_70_2281">
<rect width="32" height="32" fill="white" transform="translate(221 218)"/>
</clipPath>
</defs>
</svg>
