<?xml version="1.0" standalone="no"?>
<!DOCTYPE svg PUBLIC "-//W3C//DTD SVG 20010904//EN"
 "http://www.w3.org/TR/2001/REC-SVG-20010904/DTD/svg10.dtd">
<svg version="1.0" xmlns="http://www.w3.org/2000/svg"
 width="50.000000pt" height="50.000000pt" viewBox="0 0 50.000000 50.000000"
 preserveAspectRatio="xMidYMid meet">

<g transform="translate(0.000000,50.000000) scale(0.100000,-0.100000)"
fill="#000000" stroke="none">
<path d="M0 250 l0 -170 140 0 c87 0 140 4 140 10 0 6 -50 10 -130 10 -98 0
-130 3 -130 13 1 6 32 36 71 66 l70 53 25 -23 c31 -29 77 -29 109 1 20 19 27
21 40 10 19 -16 32 -6 16 13 -9 11 1 25 49 66 l60 52 0 -75 c0 -44 4 -76 10
-76 6 0 10 43 10 110 l0 110 -240 0 -240 0 0 -170z m458 136 c-3 -16 -203
-186 -217 -186 -19 0 -221 174 -221 190 0 6 80 10 221 10 186 0 220 -2 217
-14z m-349 -169 c-19 -16 -46 -37 -61 -48 l-28 -20 0 101 0 102 61 -53 62 -53
-34 -29z"/>
<path d="M351 186 c-87 -48 -50 -186 49 -186 51 0 100 49 100 99 0 75 -83 124
-149 87z m104 -31 c50 -49 15 -135 -55 -135 -41 0 -80 39 -80 80 0 70 86 105
135 55z"/>
<path d="M390 135 c0 -20 -5 -25 -25 -25 -14 0 -25 -4 -25 -10 0 -5 11 -10 25
-10 20 0 25 -5 25 -25 0 -14 5 -25 10 -25 6 0 10 11 10 25 0 20 5 25 25 25 14
0 25 5 25 10 0 6 -11 10 -25 10 -20 0 -25 5 -25 25 0 14 -4 25 -10 25 -5 0
-10 -11 -10 -25z"/>
</g>
</svg>
