<svg width="395" height="460" viewBox="0 0 395 460" fill="none" xmlns="http://www.w3.org/2000/svg">
<rect x="0.5" y="0.5" width="394" height="459" rx="7.5" stroke="black" stroke-opacity="0.5"/>
<path d="M40.7734 347V363H37.8516L30.8906 352.93H30.7734V363H27.3906V347H30.3594L37.2656 357.062H37.4063V347H40.7734ZM48.9277 363.234C47.7142 363.234 46.6647 362.977 45.7793 362.461C44.8991 361.94 44.2194 361.216 43.7402 360.289C43.2611 359.357 43.0215 358.276 43.0215 357.047C43.0215 355.807 43.2611 354.724 43.7402 353.797C44.2194 352.865 44.8991 352.141 45.7793 351.625C46.6647 351.104 47.7142 350.844 48.9277 350.844C50.1413 350.844 51.1882 351.104 52.0684 351.625C52.9538 352.141 53.6361 352.865 54.1152 353.797C54.5944 354.724 54.834 355.807 54.834 357.047C54.834 358.276 54.5944 359.357 54.1152 360.289C53.6361 361.216 52.9538 361.94 52.0684 362.461C51.1882 362.977 50.1413 363.234 48.9277 363.234ZM48.9434 360.656C49.4954 360.656 49.9564 360.5 50.3262 360.188C50.696 359.87 50.9746 359.437 51.1621 358.891C51.3548 358.344 51.4512 357.721 51.4512 357.023C51.4512 356.326 51.3548 355.703 51.1621 355.156C50.9746 354.609 50.696 354.177 50.3262 353.859C49.9564 353.542 49.4954 353.383 48.9434 353.383C48.3861 353.383 47.9173 353.542 47.5371 353.859C47.1621 354.177 46.8783 354.609 46.6855 355.156C46.498 355.703 46.4043 356.326 46.4043 357.023C46.4043 357.721 46.498 358.344 46.6855 358.891C46.8783 359.437 47.1621 359.87 47.5371 360.188C47.9173 360.5 48.3861 360.656 48.9434 360.656ZM70.832 351.602C70.7695 350.971 70.5013 350.482 70.0273 350.133C69.5534 349.784 68.9102 349.609 68.0977 349.609C67.5456 349.609 67.0794 349.687 66.6992 349.844C66.319 349.995 66.0273 350.206 65.8242 350.477C65.6263 350.747 65.5273 351.055 65.5273 351.398C65.5169 351.685 65.5768 351.935 65.707 352.148C65.8424 352.362 66.0273 352.547 66.2617 352.703C66.4961 352.854 66.7669 352.987 67.0742 353.102C67.3815 353.211 67.7096 353.305 68.0586 353.383L69.4961 353.727C70.194 353.883 70.8346 354.091 71.418 354.352C72.0013 354.612 72.5065 354.932 72.9336 355.312C73.3607 355.693 73.6914 356.141 73.9258 356.656C74.1654 357.172 74.2878 357.763 74.293 358.43C74.2878 359.409 74.0378 360.258 73.543 360.977C73.0534 361.69 72.3451 362.245 71.418 362.641C70.4961 363.031 69.3841 363.227 68.082 363.227C66.7904 363.227 65.6654 363.029 64.707 362.633C63.7539 362.237 63.0091 361.651 62.4727 360.875C61.9414 360.094 61.6628 359.128 61.6367 357.977H64.9102C64.9466 358.513 65.1003 358.961 65.3711 359.32C65.6471 359.674 66.0143 359.943 66.4727 360.125C66.9362 360.302 67.4596 360.391 68.043 360.391C68.6159 360.391 69.1133 360.307 69.5352 360.141C69.9622 359.974 70.293 359.742 70.5273 359.445C70.7617 359.148 70.8789 358.807 70.8789 358.422C70.8789 358.062 70.7721 357.76 70.5586 357.516C70.3503 357.271 70.043 357.062 69.6367 356.891C69.2357 356.719 68.7435 356.562 68.1602 356.422L66.418 355.984C65.069 355.656 64.0039 355.143 63.2227 354.445C62.4414 353.747 62.0534 352.807 62.0586 351.625C62.0534 350.656 62.3112 349.81 62.832 349.086C63.3581 348.362 64.0794 347.797 64.9961 347.391C65.9128 346.984 66.9544 346.781 68.1211 346.781C69.3086 346.781 70.3451 346.984 71.2305 347.391C72.1211 347.797 72.8138 348.362 73.3086 349.086C73.8034 349.81 74.0586 350.648 74.0742 351.602H70.832ZM81.9277 363.234C80.6986 363.234 79.6413 362.974 78.7559 362.453C77.8757 361.927 77.1986 361.198 76.7246 360.266C76.2559 359.333 76.0215 358.26 76.0215 357.047C76.0215 355.818 76.2585 354.74 76.7324 353.812C77.2116 352.88 77.8913 352.154 78.7715 351.633C79.6517 351.107 80.6986 350.844 81.9121 350.844C82.959 350.844 83.8757 351.034 84.6621 351.414C85.4486 351.794 86.071 352.328 86.5293 353.016C86.9876 353.703 87.2402 354.51 87.2871 355.438H84.1465C84.0579 354.839 83.8236 354.357 83.4434 353.992C83.0684 353.622 82.5762 353.437 81.9668 353.437C81.4512 353.437 81.0007 353.578 80.6152 353.859C80.235 354.135 79.9382 354.539 79.7246 355.07C79.5111 355.602 79.4043 356.245 79.4043 357C79.4043 357.766 79.5085 358.417 79.7168 358.953C79.9303 359.49 80.2298 359.898 80.6152 360.18C81.0007 360.461 81.4512 360.602 81.9668 360.602C82.347 360.602 82.6882 360.523 82.9902 360.367C83.2975 360.211 83.5501 359.984 83.748 359.687C83.9512 359.385 84.084 359.023 84.1465 358.602H87.2871C87.235 359.518 86.985 360.326 86.5371 361.023C86.0944 361.716 85.4824 362.258 84.7012 362.648C83.9199 363.039 82.9954 363.234 81.9277 363.234ZM89.418 363V351H92.6445V353.094H92.7695C92.9883 352.349 93.3555 351.786 93.8711 351.406C94.3867 351.021 94.9805 350.828 95.6523 350.828C95.819 350.828 95.9987 350.839 96.1914 350.859C96.3841 350.88 96.5534 350.909 96.6992 350.945V353.898C96.543 353.852 96.3268 353.81 96.0508 353.773C95.7747 353.737 95.5221 353.719 95.293 353.719C94.8034 353.719 94.3659 353.826 93.9805 354.039C93.6003 354.247 93.2982 354.539 93.0742 354.914C92.8555 355.289 92.7461 355.721 92.7461 356.211V363H89.418ZM98.4199 363V351H101.748V363H98.4199ZM100.092 349.453C99.597 349.453 99.1725 349.289 98.8184 348.961C98.4694 348.628 98.2949 348.229 98.2949 347.766C98.2949 347.307 98.4694 346.914 98.8184 346.586C99.1725 346.253 99.597 346.086 100.092 346.086C100.587 346.086 101.008 346.253 101.357 346.586C101.712 346.914 101.889 347.307 101.889 347.766C101.889 348.229 101.712 348.628 101.357 348.961C101.008 349.289 100.587 349.453 100.092 349.453ZM104.414 367.5V351H107.695V353.016H107.844C107.99 352.693 108.201 352.365 108.477 352.031C108.758 351.693 109.122 351.411 109.57 351.188C110.023 350.958 110.586 350.844 111.258 350.844C112.133 350.844 112.94 351.073 113.68 351.531C114.419 351.984 115.01 352.669 115.453 353.586C115.896 354.497 116.117 355.641 116.117 357.016C116.117 358.354 115.901 359.484 115.469 360.406C115.042 361.323 114.458 362.018 113.719 362.492C112.984 362.961 112.161 363.195 111.25 363.195C110.604 363.195 110.055 363.089 109.602 362.875C109.154 362.661 108.786 362.393 108.5 362.07C108.214 361.742 107.995 361.411 107.844 361.078H107.742V367.5H104.414ZM107.672 357C107.672 357.714 107.771 358.336 107.969 358.867C108.167 359.398 108.453 359.812 108.828 360.109C109.203 360.401 109.659 360.547 110.195 360.547C110.737 360.547 111.195 360.398 111.57 360.102C111.945 359.799 112.229 359.383 112.422 358.852C112.62 358.315 112.719 357.698 112.719 357C112.719 356.307 112.622 355.698 112.43 355.172C112.237 354.646 111.953 354.234 111.578 353.937C111.203 353.641 110.742 353.492 110.195 353.492C109.654 353.492 109.195 353.635 108.82 353.922C108.451 354.208 108.167 354.615 107.969 355.141C107.771 355.667 107.672 356.286 107.672 357ZM124.719 351V353.5H117.492V351H124.719ZM119.133 348.125H122.461V359.312C122.461 359.62 122.508 359.859 122.602 360.031C122.695 360.198 122.826 360.315 122.992 360.383C123.164 360.451 123.362 360.484 123.586 360.484C123.742 360.484 123.898 360.471 124.055 360.445C124.211 360.414 124.331 360.391 124.414 360.375L124.938 362.852C124.771 362.904 124.536 362.964 124.234 363.031C123.932 363.104 123.565 363.148 123.133 363.164C122.331 363.195 121.628 363.089 121.023 362.844C120.424 362.599 119.958 362.219 119.625 361.703C119.292 361.187 119.128 360.536 119.133 359.75V348.125ZM136.721 354.422L133.674 354.609C133.622 354.349 133.51 354.115 133.338 353.906C133.166 353.693 132.939 353.523 132.658 353.398C132.382 353.268 132.051 353.203 131.666 353.203C131.15 353.203 130.715 353.312 130.361 353.531C130.007 353.745 129.83 354.031 129.83 354.391C129.83 354.677 129.945 354.919 130.174 355.117C130.403 355.315 130.796 355.474 131.354 355.594L133.525 356.031C134.692 356.271 135.562 356.656 136.135 357.187C136.708 357.719 136.994 358.417 136.994 359.281C136.994 360.068 136.762 360.758 136.299 361.352C135.84 361.945 135.21 362.409 134.408 362.742C133.611 363.07 132.692 363.234 131.65 363.234C130.062 363.234 128.796 362.904 127.854 362.242C126.916 361.576 126.367 360.669 126.205 359.523L129.479 359.352C129.577 359.836 129.817 360.206 130.197 360.461C130.577 360.711 131.064 360.836 131.658 360.836C132.242 360.836 132.71 360.724 133.064 360.5C133.424 360.271 133.606 359.977 133.611 359.617C133.606 359.315 133.479 359.068 133.229 358.875C132.979 358.677 132.593 358.526 132.072 358.422L129.994 358.008C128.822 357.773 127.95 357.367 127.377 356.789C126.809 356.211 126.525 355.474 126.525 354.578C126.525 353.807 126.734 353.143 127.15 352.586C127.572 352.029 128.163 351.599 128.924 351.297C129.689 350.995 130.585 350.844 131.611 350.844C133.127 350.844 134.32 351.164 135.189 351.805C136.064 352.445 136.575 353.318 136.721 354.422ZM149.604 363.234C148.39 363.234 147.34 362.977 146.455 362.461C145.575 361.94 144.895 361.216 144.416 360.289C143.937 359.357 143.697 358.276 143.697 357.047C143.697 355.807 143.937 354.724 144.416 353.797C144.895 352.865 145.575 352.141 146.455 351.625C147.34 351.104 148.39 350.844 149.604 350.844C150.817 350.844 151.864 351.104 152.744 351.625C153.63 352.141 154.312 352.865 154.791 353.797C155.27 354.724 155.51 355.807 155.51 357.047C155.51 358.276 155.27 359.357 154.791 360.289C154.312 361.216 153.63 361.94 152.744 362.461C151.864 362.977 150.817 363.234 149.604 363.234ZM149.619 360.656C150.171 360.656 150.632 360.5 151.002 360.188C151.372 359.87 151.65 359.437 151.838 358.891C152.031 358.344 152.127 357.721 152.127 357.023C152.127 356.326 152.031 355.703 151.838 355.156C151.65 354.609 151.372 354.177 151.002 353.859C150.632 353.542 150.171 353.383 149.619 353.383C149.062 353.383 148.593 353.542 148.213 353.859C147.838 354.177 147.554 354.609 147.361 355.156C147.174 355.703 147.08 356.326 147.08 357.023C147.08 357.721 147.174 358.344 147.361 358.891C147.554 359.437 147.838 359.87 148.213 360.188C148.593 360.5 149.062 360.656 149.619 360.656ZM157.674 363V351H160.9V353.094H161.025C161.244 352.349 161.611 351.786 162.127 351.406C162.643 351.021 163.236 350.828 163.908 350.828C164.075 350.828 164.255 350.839 164.447 350.859C164.64 350.88 164.809 350.909 164.955 350.945V353.898C164.799 353.852 164.583 353.81 164.307 353.773C164.031 353.737 163.778 353.719 163.549 353.719C163.059 353.719 162.622 353.826 162.236 354.039C161.856 354.247 161.554 354.539 161.33 354.914C161.111 355.289 161.002 355.721 161.002 356.211V363H157.674ZM171.83 363V347H175.213V353.602H182.08V347H185.455V363H182.08V356.391H175.213V363H171.83ZM193.65 363.234C192.416 363.234 191.354 362.984 190.463 362.484C189.577 361.979 188.895 361.266 188.416 360.344C187.937 359.417 187.697 358.32 187.697 357.055C187.697 355.82 187.937 354.737 188.416 353.805C188.895 352.872 189.57 352.146 190.439 351.625C191.314 351.104 192.34 350.844 193.518 350.844C194.309 350.844 195.046 350.971 195.729 351.227C196.416 351.477 197.015 351.854 197.525 352.359C198.041 352.865 198.442 353.5 198.729 354.266C199.015 355.026 199.158 355.917 199.158 356.937V357.852H189.025V355.789H196.025C196.025 355.31 195.921 354.885 195.713 354.516C195.505 354.146 195.215 353.857 194.846 353.648C194.481 353.435 194.057 353.328 193.572 353.328C193.067 353.328 192.619 353.445 192.229 353.68C191.843 353.909 191.541 354.219 191.322 354.609C191.104 354.995 190.992 355.424 190.986 355.898V357.859C190.986 358.453 191.096 358.966 191.314 359.398C191.538 359.831 191.854 360.164 192.26 360.398C192.666 360.633 193.148 360.75 193.705 360.75C194.075 360.75 194.413 360.698 194.721 360.594C195.028 360.49 195.291 360.333 195.51 360.125C195.729 359.917 195.895 359.661 196.01 359.359L199.088 359.562C198.932 360.302 198.611 360.948 198.127 361.5C197.648 362.047 197.028 362.474 196.268 362.781C195.512 363.083 194.64 363.234 193.65 363.234ZM203.896 351L206.1 355.195L208.357 351H211.771L208.295 357L211.865 363H208.467L206.1 358.852L203.771 363H200.334L203.896 357L200.459 351H203.896ZM217.74 363.195C216.829 363.195 216.003 362.961 215.264 362.492C214.529 362.018 213.946 361.323 213.514 360.406C213.087 359.484 212.873 358.354 212.873 357.016C212.873 355.641 213.094 354.497 213.537 353.586C213.98 352.669 214.568 351.984 215.303 351.531C216.042 351.073 216.852 350.844 217.732 350.844C218.404 350.844 218.964 350.958 219.412 351.188C219.865 351.411 220.23 351.693 220.506 352.031C220.787 352.365 221.001 352.693 221.146 353.016H221.248V347H224.568V363H221.287V361.078H221.146C220.99 361.411 220.769 361.742 220.482 362.07C220.201 362.393 219.834 362.661 219.381 362.875C218.933 363.089 218.386 363.195 217.74 363.195ZM218.795 360.547C219.331 360.547 219.785 360.401 220.154 360.109C220.529 359.812 220.816 359.398 221.014 358.867C221.217 358.336 221.318 357.714 221.318 357C221.318 356.286 221.219 355.667 221.021 355.141C220.824 354.615 220.537 354.208 220.162 353.922C219.787 353.635 219.331 353.492 218.795 353.492C218.248 353.492 217.787 353.641 217.412 353.937C217.037 354.234 216.753 354.646 216.561 355.172C216.368 355.698 216.271 356.307 216.271 357C216.271 357.698 216.368 358.315 216.561 358.852C216.758 359.383 217.042 359.799 217.412 360.102C217.787 360.398 218.248 360.547 218.795 360.547ZM230.727 363.227C229.961 363.227 229.279 363.094 228.68 362.828C228.081 362.557 227.607 362.159 227.258 361.633C226.914 361.102 226.742 360.44 226.742 359.648C226.742 358.982 226.865 358.422 227.109 357.969C227.354 357.516 227.688 357.151 228.109 356.875C228.531 356.599 229.01 356.391 229.547 356.25C230.089 356.109 230.656 356.01 231.25 355.953C231.948 355.88 232.51 355.812 232.938 355.75C233.365 355.682 233.674 355.583 233.867 355.453C234.06 355.323 234.156 355.13 234.156 354.875V354.828C234.156 354.333 234 353.951 233.687 353.68C233.38 353.409 232.943 353.273 232.375 353.273C231.776 353.273 231.299 353.406 230.945 353.672C230.591 353.932 230.357 354.26 230.242 354.656L227.164 354.406C227.32 353.677 227.628 353.047 228.086 352.516C228.544 351.979 229.135 351.568 229.859 351.281C230.589 350.99 231.432 350.844 232.391 350.844C233.057 350.844 233.695 350.922 234.305 351.078C234.919 351.234 235.464 351.477 235.938 351.805C236.417 352.133 236.794 352.555 237.07 353.07C237.346 353.581 237.484 354.193 237.484 354.906V363H234.328V361.336H234.234C234.042 361.711 233.784 362.042 233.461 362.328C233.138 362.609 232.75 362.831 232.297 362.992C231.844 363.148 231.32 363.227 230.727 363.227ZM231.68 360.93C232.169 360.93 232.602 360.833 232.977 360.641C233.352 360.443 233.646 360.177 233.859 359.844C234.073 359.51 234.18 359.133 234.18 358.711V357.438C234.076 357.505 233.932 357.568 233.75 357.625C233.573 357.677 233.372 357.727 233.148 357.773C232.924 357.815 232.701 357.854 232.477 357.891C232.253 357.922 232.049 357.951 231.867 357.977C231.477 358.034 231.135 358.125 230.844 358.25C230.552 358.375 230.326 358.544 230.164 358.758C230.003 358.966 229.922 359.227 229.922 359.539C229.922 359.992 230.086 360.339 230.414 360.578C230.747 360.812 231.169 360.93 231.68 360.93ZM246.449 351V353.5H239.223V351H246.449ZM240.863 348.125H244.191V359.312C244.191 359.62 244.238 359.859 244.332 360.031C244.426 360.198 244.556 360.315 244.723 360.383C244.895 360.451 245.092 360.484 245.316 360.484C245.473 360.484 245.629 360.471 245.785 360.445C245.941 360.414 246.061 360.391 246.145 360.375L246.668 362.852C246.501 362.904 246.267 362.964 245.965 363.031C245.663 363.104 245.296 363.148 244.863 363.164C244.061 363.195 243.358 363.089 242.754 362.844C242.155 362.599 241.689 362.219 241.355 361.703C241.022 361.187 240.858 360.536 240.863 359.75V348.125ZM252.039 363.227C251.273 363.227 250.591 363.094 249.992 362.828C249.393 362.557 248.919 362.159 248.57 361.633C248.227 361.102 248.055 360.44 248.055 359.648C248.055 358.982 248.177 358.422 248.422 357.969C248.667 357.516 249 357.151 249.422 356.875C249.844 356.599 250.323 356.391 250.859 356.25C251.401 356.109 251.969 356.01 252.563 355.953C253.26 355.88 253.823 355.812 254.25 355.75C254.677 355.682 254.987 355.583 255.18 355.453C255.372 355.323 255.469 355.13 255.469 354.875V354.828C255.469 354.333 255.313 353.951 255 353.68C254.693 353.409 254.255 353.273 253.687 353.273C253.089 353.273 252.612 353.406 252.258 353.672C251.904 353.932 251.669 354.26 251.555 354.656L248.477 354.406C248.633 353.677 248.94 353.047 249.398 352.516C249.857 351.979 250.448 351.568 251.172 351.281C251.901 350.99 252.745 350.844 253.703 350.844C254.37 350.844 255.008 350.922 255.617 351.078C256.232 351.234 256.776 351.477 257.25 351.805C257.729 352.133 258.107 352.555 258.383 353.07C258.659 353.581 258.797 354.193 258.797 354.906V363H255.641V361.336H255.547C255.354 361.711 255.096 362.042 254.773 362.328C254.451 362.609 254.062 362.831 253.609 362.992C253.156 363.148 252.633 363.227 252.039 363.227ZM252.992 360.93C253.482 360.93 253.914 360.833 254.289 360.641C254.664 360.443 254.958 360.177 255.172 359.844C255.385 359.51 255.492 359.133 255.492 358.711V357.438C255.388 357.505 255.245 357.568 255.063 357.625C254.885 357.677 254.685 357.727 254.461 357.773C254.237 357.815 254.013 357.854 253.789 357.891C253.565 357.922 253.362 357.951 253.18 357.977C252.789 358.034 252.448 358.125 252.156 358.25C251.865 358.375 251.638 358.544 251.477 358.758C251.315 358.966 251.234 359.227 251.234 359.539C251.234 359.992 251.398 360.339 251.727 360.578C252.06 360.812 252.482 360.93 252.992 360.93ZM41.5078 384.602H38.0859C38.0234 384.159 37.8958 383.766 37.7031 383.422C37.5104 383.073 37.263 382.776 36.9609 382.531C36.6589 382.286 36.3099 382.099 35.9141 381.969C35.5234 381.839 35.099 381.773 34.6406 381.773C33.8125 381.773 33.0911 381.979 32.4766 382.391C31.862 382.797 31.3854 383.391 31.0469 384.172C30.7083 384.948 30.5391 385.891 30.5391 387C30.5391 388.141 30.7083 389.099 31.0469 389.875C31.3906 390.651 31.8698 391.237 32.4844 391.633C33.099 392.029 33.8099 392.227 34.6172 392.227C35.0703 392.227 35.4896 392.167 35.875 392.047C36.2656 391.927 36.612 391.753 36.9141 391.523C37.2161 391.289 37.4661 391.005 37.6641 390.672C37.8672 390.339 38.0078 389.958 38.0859 389.531L41.5078 389.547C41.4193 390.281 41.1979 390.99 40.8438 391.672C40.4948 392.349 40.0234 392.956 39.4297 393.492C38.8411 394.023 38.138 394.445 37.3203 394.758C36.5078 395.065 35.5885 395.219 34.5625 395.219C33.1354 395.219 31.8594 394.896 30.7344 394.25C29.6146 393.604 28.7292 392.669 28.0781 391.445C27.4323 390.221 27.1094 388.74 27.1094 387C27.1094 385.255 27.4375 383.771 28.0938 382.547C28.75 381.323 29.6406 380.391 30.7656 379.75C31.8906 379.104 33.1563 378.781 34.5625 378.781C35.4896 378.781 36.349 378.911 37.1406 379.172C37.9375 379.432 38.6432 379.812 39.2578 380.312C39.8724 380.807 40.3724 381.414 40.7578 382.133C41.1484 382.852 41.3984 383.674 41.5078 384.602ZM49.293 395.234C48.0794 395.234 47.0299 394.977 46.1445 394.461C45.2643 393.94 44.5846 393.216 44.1055 392.289C43.6263 391.357 43.3867 390.276 43.3867 389.047C43.3867 387.807 43.6263 386.724 44.1055 385.797C44.5846 384.865 45.2643 384.141 46.1445 383.625C47.0299 383.104 48.0794 382.844 49.293 382.844C50.5065 382.844 51.5534 383.104 52.4336 383.625C53.319 384.141 54.0013 384.865 54.4805 385.797C54.9596 386.724 55.1992 387.807 55.1992 389.047C55.1992 390.276 54.9596 391.357 54.4805 392.289C54.0013 393.216 53.319 393.94 52.4336 394.461C51.5534 394.977 50.5065 395.234 49.293 395.234ZM49.3086 392.656C49.8607 392.656 50.3216 392.5 50.6914 392.188C51.0612 391.87 51.3398 391.437 51.5273 390.891C51.7201 390.344 51.8164 389.721 51.8164 389.023C51.8164 388.326 51.7201 387.703 51.5273 387.156C51.3398 386.609 51.0612 386.177 50.6914 385.859C50.3216 385.542 49.8607 385.383 49.3086 385.383C48.7513 385.383 48.2826 385.542 47.9023 385.859C47.5273 386.177 47.2435 386.609 47.0508 387.156C46.8633 387.703 46.7695 388.326 46.7695 389.023C46.7695 389.721 46.8633 390.344 47.0508 390.891C47.2435 391.437 47.5273 391.87 47.9023 392.188C48.2826 392.5 48.7513 392.656 49.3086 392.656ZM60.6914 388.063V395H57.3633V383H60.5352V385.117H60.6758C60.9414 384.419 61.3867 383.867 62.0117 383.461C62.6367 383.049 63.3945 382.844 64.2852 382.844C65.1185 382.844 65.8451 383.026 66.4648 383.391C67.0846 383.755 67.5664 384.276 67.9102 384.953C68.2539 385.625 68.4258 386.427 68.4258 387.359V395H65.0977V387.953C65.1029 387.219 64.9154 386.646 64.5352 386.234C64.1549 385.818 63.6315 385.609 62.9648 385.609C62.5169 385.609 62.1211 385.706 61.7773 385.898C61.4388 386.091 61.1732 386.372 60.9805 386.742C60.793 387.107 60.6966 387.547 60.6914 388.063ZM81.8066 383L77.6113 395H73.8613L69.666 383H73.1816L75.6738 391.586H75.7988L78.2832 383H81.8066ZM88.5918 395.234C87.3574 395.234 86.2949 394.984 85.4043 394.484C84.5189 393.979 83.8366 393.266 83.3574 392.344C82.8783 391.417 82.6387 390.32 82.6387 389.055C82.6387 387.82 82.8783 386.737 83.3574 385.805C83.8366 384.872 84.5111 384.146 85.3809 383.625C86.2559 383.104 87.2819 382.844 88.459 382.844C89.2507 382.844 89.9876 382.971 90.6699 383.227C91.3574 383.477 91.9564 383.854 92.4668 384.359C92.9824 384.865 93.3835 385.5 93.6699 386.266C93.9564 387.026 94.0996 387.917 94.0996 388.937V389.852H83.9668V387.789H90.9668C90.9668 387.31 90.8626 386.885 90.6543 386.516C90.446 386.146 90.1569 385.857 89.7871 385.648C89.4225 385.435 88.998 385.328 88.5137 385.328C88.0085 385.328 87.5605 385.445 87.1699 385.68C86.7845 385.909 86.4824 386.219 86.2637 386.609C86.0449 386.995 85.9329 387.424 85.9277 387.898V389.859C85.9277 390.453 86.0371 390.966 86.2559 391.398C86.4798 391.831 86.7949 392.164 87.2012 392.398C87.6074 392.633 88.0892 392.75 88.6465 392.75C89.0163 392.75 89.3548 392.698 89.6621 392.594C89.9694 392.49 90.2324 392.333 90.4512 392.125C90.6699 391.917 90.8366 391.661 90.9512 391.359L94.0293 391.562C93.873 392.302 93.5527 392.948 93.0684 393.5C92.5892 394.047 91.9694 394.474 91.209 394.781C90.4538 395.083 89.5814 395.234 88.5918 395.234ZM96.2715 395V383H99.498V385.094H99.623C99.8418 384.349 100.209 383.786 100.725 383.406C101.24 383.021 101.834 382.828 102.506 382.828C102.673 382.828 102.852 382.839 103.045 382.859C103.238 382.88 103.407 382.909 103.553 382.945V385.898C103.396 385.852 103.18 385.81 102.904 385.773C102.628 385.737 102.376 385.719 102.146 385.719C101.657 385.719 101.219 385.826 100.834 386.039C100.454 386.247 100.152 386.539 99.9277 386.914C99.709 387.289 99.5996 387.721 99.5996 388.211V395H96.2715ZM115.258 386.422L112.211 386.609C112.159 386.349 112.047 386.115 111.875 385.906C111.703 385.693 111.477 385.523 111.195 385.398C110.919 385.268 110.589 385.203 110.203 385.203C109.688 385.203 109.253 385.312 108.898 385.531C108.544 385.745 108.367 386.031 108.367 386.391C108.367 386.677 108.482 386.919 108.711 387.117C108.94 387.315 109.333 387.474 109.891 387.594L112.063 388.031C113.229 388.271 114.099 388.656 114.672 389.187C115.245 389.719 115.531 390.417 115.531 391.281C115.531 392.068 115.299 392.758 114.836 393.352C114.378 393.945 113.747 394.409 112.945 394.742C112.148 395.07 111.229 395.234 110.188 395.234C108.599 395.234 107.333 394.904 106.391 394.242C105.453 393.576 104.904 392.669 104.742 391.523L108.016 391.352C108.115 391.836 108.354 392.206 108.734 392.461C109.115 392.711 109.602 392.836 110.195 392.836C110.779 392.836 111.247 392.724 111.602 392.5C111.961 392.271 112.143 391.977 112.148 391.617C112.143 391.315 112.016 391.068 111.766 390.875C111.516 390.677 111.13 390.526 110.609 390.422L108.531 390.008C107.359 389.773 106.487 389.367 105.914 388.789C105.346 388.211 105.062 387.474 105.062 386.578C105.062 385.807 105.271 385.143 105.688 384.586C106.109 384.029 106.701 383.599 107.461 383.297C108.227 382.995 109.122 382.844 110.148 382.844C111.664 382.844 112.857 383.164 113.727 383.805C114.602 384.445 115.112 385.318 115.258 386.422ZM117.627 395V383H120.955V395H117.627ZM119.299 381.453C118.804 381.453 118.38 381.289 118.025 380.961C117.676 380.628 117.502 380.229 117.502 379.766C117.502 379.307 117.676 378.914 118.025 378.586C118.38 378.253 118.804 378.086 119.299 378.086C119.794 378.086 120.215 378.253 120.564 378.586C120.919 378.914 121.096 379.307 121.096 379.766C121.096 380.229 120.919 380.628 120.564 380.961C120.215 381.289 119.794 381.453 119.299 381.453ZM129.043 395.234C127.829 395.234 126.78 394.977 125.895 394.461C125.014 393.94 124.335 393.216 123.855 392.289C123.376 391.357 123.137 390.276 123.137 389.047C123.137 387.807 123.376 386.724 123.855 385.797C124.335 384.865 125.014 384.141 125.895 383.625C126.78 383.104 127.829 382.844 129.043 382.844C130.257 382.844 131.303 383.104 132.184 383.625C133.069 384.141 133.751 384.865 134.23 385.797C134.71 386.724 134.949 387.807 134.949 389.047C134.949 390.276 134.71 391.357 134.23 392.289C133.751 393.216 133.069 393.94 132.184 394.461C131.303 394.977 130.257 395.234 129.043 395.234ZM129.059 392.656C129.611 392.656 130.072 392.5 130.441 392.188C130.811 391.87 131.09 391.437 131.277 390.891C131.47 390.344 131.566 389.721 131.566 389.023C131.566 388.326 131.47 387.703 131.277 387.156C131.09 386.609 130.811 386.177 130.441 385.859C130.072 385.542 129.611 385.383 129.059 385.383C128.501 385.383 128.033 385.542 127.652 385.859C127.277 386.177 126.993 386.609 126.801 387.156C126.613 387.703 126.52 388.326 126.52 389.023C126.52 389.721 126.613 390.344 126.801 390.891C126.993 391.437 127.277 391.87 127.652 392.188C128.033 392.5 128.501 392.656 129.059 392.656ZM140.441 388.063V395H137.113V383H140.285V385.117H140.426C140.691 384.419 141.137 383.867 141.762 383.461C142.387 383.049 143.145 382.844 144.035 382.844C144.868 382.844 145.595 383.026 146.215 383.391C146.835 383.755 147.316 384.276 147.66 384.953C148.004 385.625 148.176 386.427 148.176 387.359V395H144.848V387.953C144.853 387.219 144.665 386.646 144.285 386.234C143.905 385.818 143.382 385.609 142.715 385.609C142.267 385.609 141.871 385.706 141.527 385.898C141.189 386.091 140.923 386.372 140.73 386.742C140.543 387.107 140.447 387.547 140.441 388.063ZM160.783 386.422L157.736 386.609C157.684 386.349 157.572 386.115 157.4 385.906C157.229 385.693 157.002 385.523 156.721 385.398C156.445 385.268 156.114 385.203 155.729 385.203C155.213 385.203 154.778 385.312 154.424 385.531C154.07 385.745 153.893 386.031 153.893 386.391C153.893 386.677 154.007 386.919 154.236 387.117C154.465 387.315 154.859 387.474 155.416 387.594L157.588 388.031C158.755 388.271 159.624 388.656 160.197 389.187C160.77 389.719 161.057 390.417 161.057 391.281C161.057 392.068 160.825 392.758 160.361 393.352C159.903 393.945 159.273 394.409 158.471 394.742C157.674 395.07 156.755 395.234 155.713 395.234C154.124 395.234 152.859 394.904 151.916 394.242C150.979 393.576 150.429 392.669 150.268 391.523L153.541 391.352C153.64 391.836 153.88 392.206 154.26 392.461C154.64 392.711 155.127 392.836 155.721 392.836C156.304 392.836 156.773 392.724 157.127 392.5C157.486 392.271 157.669 391.977 157.674 391.617C157.669 391.315 157.541 391.068 157.291 390.875C157.041 390.677 156.656 390.526 156.135 390.422L154.057 390.008C152.885 389.773 152.012 389.367 151.439 388.789C150.872 388.211 150.588 387.474 150.588 386.578C150.588 385.807 150.796 385.143 151.213 384.586C151.635 384.029 152.226 383.599 152.986 383.297C153.752 382.995 154.648 382.844 155.674 382.844C157.189 382.844 158.382 383.164 159.252 383.805C160.127 384.445 160.637 385.318 160.783 386.422Z" fill="#0C0E0F"/>
<path d="M31.8636 420.364H33.2727V428.682C33.2727 429.424 33.1364 430.055 32.8636 430.574C32.5909 431.093 32.2064 431.487 31.7102 431.756C31.214 432.025 30.6288 432.159 29.9545 432.159C29.3182 432.159 28.7519 432.044 28.2557 431.812C27.7595 431.578 27.3693 431.244 27.0852 430.812C26.8011 430.381 26.6591 429.867 26.6591 429.273H28.0455C28.0455 429.602 28.1269 429.89 28.2898 430.136C28.4564 430.379 28.6837 430.568 28.9716 430.705C29.2595 430.841 29.5871 430.909 29.9545 430.909C30.3598 430.909 30.7045 430.824 30.9886 430.653C31.2727 430.483 31.4886 430.233 31.6364 429.903C31.7879 429.57 31.8636 429.163 31.8636 428.682V420.364ZM41.4148 428.432V423.273H42.7557V432H41.4148V430.523H41.3239C41.1193 430.966 40.8011 431.343 40.3693 431.653C39.9375 431.96 39.392 432.114 38.733 432.114C38.1875 432.114 37.7027 431.994 37.2784 431.756C36.8542 431.513 36.5208 431.15 36.2784 430.665C36.036 430.176 35.9148 429.561 35.9148 428.818V423.273H37.2557V428.727C37.2557 429.364 37.4337 429.871 37.7898 430.25C38.1496 430.629 38.608 430.818 39.1648 430.818C39.4981 430.818 39.8371 430.733 40.1818 430.562C40.5303 430.392 40.822 430.131 41.0568 429.778C41.2955 429.426 41.4148 428.977 41.4148 428.432ZM51.3935 425.227L50.1889 425.568C50.1132 425.367 50.0014 425.172 49.8537 424.983C49.7098 424.79 49.5128 424.631 49.2628 424.506C49.0128 424.381 48.6927 424.318 48.3026 424.318C47.7685 424.318 47.3234 424.441 46.9673 424.688C46.6151 424.93 46.4389 425.239 46.4389 425.614C46.4389 425.947 46.5601 426.21 46.8026 426.403C47.045 426.597 47.4238 426.758 47.9389 426.886L49.2344 427.205C50.0147 427.394 50.5961 427.684 50.9787 428.074C51.3613 428.46 51.5526 428.958 51.5526 429.568C51.5526 430.068 51.4086 430.515 51.1207 430.909C50.8366 431.303 50.4389 431.614 49.9276 431.841C49.4162 432.068 48.8215 432.182 48.1435 432.182C47.2533 432.182 46.5166 431.989 45.9332 431.602C45.3499 431.216 44.9806 430.652 44.8253 429.909L46.098 429.591C46.2192 430.061 46.4484 430.413 46.7855 430.648C47.1264 430.883 47.5715 431 48.1207 431C48.7457 431 49.242 430.867 49.6094 430.602C49.9806 430.333 50.1662 430.011 50.1662 429.636C50.1662 429.333 50.0601 429.08 49.848 428.875C49.6359 428.667 49.3101 428.511 48.8707 428.409L47.4162 428.068C46.617 427.879 46.0298 427.585 45.6548 427.188C45.2836 426.786 45.098 426.284 45.098 425.682C45.098 425.189 45.2363 424.754 45.5128 424.375C45.7931 423.996 46.1738 423.699 46.6548 423.483C47.1397 423.267 47.6889 423.159 48.3026 423.159C49.1662 423.159 49.8442 423.348 50.3366 423.727C50.8329 424.106 51.1851 424.606 51.3935 425.227ZM57.3665 423.273V424.409H52.8438V423.273H57.3665ZM54.1619 421.182H55.5028V429.5C55.5028 429.879 55.5578 430.163 55.6676 430.352C55.7813 430.538 55.9252 430.663 56.0994 430.727C56.2775 430.788 56.465 430.818 56.6619 430.818C56.8097 430.818 56.9309 430.811 57.0256 430.795C57.1203 430.777 57.196 430.761 57.2528 430.75L57.5256 431.955C57.4347 431.989 57.3078 432.023 57.1449 432.057C56.982 432.095 56.7756 432.114 56.5256 432.114C56.1468 432.114 55.7756 432.032 55.4119 431.869C55.0521 431.706 54.7528 431.458 54.5142 431.125C54.2794 430.792 54.1619 430.371 54.1619 429.864V421.182ZM67.429 432.182C66.6108 432.182 65.9063 431.989 65.3153 431.602C64.7244 431.216 64.2699 430.684 63.9517 430.006C63.6335 429.328 63.4744 428.553 63.4744 427.682C63.4744 426.795 63.6373 426.013 63.9631 425.335C64.2926 424.653 64.7509 424.121 65.3381 423.739C65.929 423.352 66.6184 423.159 67.4062 423.159C68.0199 423.159 68.5729 423.273 69.0653 423.5C69.5578 423.727 69.9612 424.045 70.2756 424.455C70.59 424.864 70.785 425.341 70.8608 425.886H69.5199C69.4176 425.489 69.1903 425.136 68.8381 424.83C68.4896 424.519 68.0199 424.364 67.429 424.364C66.9063 424.364 66.4479 424.5 66.054 424.773C65.6638 425.042 65.3589 425.422 65.1392 425.915C64.9233 426.403 64.8153 426.977 64.8153 427.636C64.8153 428.311 64.9214 428.898 65.1335 429.398C65.3494 429.898 65.6525 430.286 66.0426 430.562C66.4366 430.839 66.8987 430.977 67.429 430.977C67.7775 430.977 68.0938 430.917 68.3778 430.795C68.6619 430.674 68.9025 430.5 69.0994 430.273C69.2964 430.045 69.4366 429.773 69.5199 429.455H70.8608C70.785 429.97 70.5975 430.434 70.2983 430.847C70.0028 431.256 69.6108 431.581 69.1222 431.824C68.6373 432.062 68.0729 432.182 67.429 432.182ZM76.3665 432.182C75.5786 432.182 74.8873 431.994 74.2926 431.619C73.7017 431.244 73.2396 430.72 72.9062 430.045C72.5767 429.371 72.4119 428.583 72.4119 427.682C72.4119 426.773 72.5767 425.979 72.9062 425.301C73.2396 424.623 73.7017 424.097 74.2926 423.722C74.8873 423.347 75.5786 423.159 76.3665 423.159C77.1544 423.159 77.8438 423.347 78.4347 423.722C79.0294 424.097 79.4915 424.623 79.821 425.301C80.1544 425.979 80.321 426.773 80.321 427.682C80.321 428.583 80.1544 429.371 79.821 430.045C79.4915 430.72 79.0294 431.244 78.4347 431.619C77.8438 431.994 77.1544 432.182 76.3665 432.182ZM76.3665 430.977C76.965 430.977 77.4574 430.824 77.8438 430.517C78.2301 430.21 78.5161 429.807 78.7017 429.307C78.8873 428.807 78.9801 428.265 78.9801 427.682C78.9801 427.098 78.8873 426.555 78.7017 426.051C78.5161 425.547 78.2301 425.14 77.8438 424.83C77.4574 424.519 76.965 424.364 76.3665 424.364C75.768 424.364 75.2756 424.519 74.8892 424.83C74.5028 425.14 74.2169 425.547 74.0312 426.051C73.8456 426.555 73.7528 427.098 73.7528 427.682C73.7528 428.265 73.8456 428.807 74.0312 429.307C74.2169 429.807 74.5028 430.21 74.8892 430.517C75.2756 430.824 75.768 430.977 76.3665 430.977ZM83.7088 426.75V432H82.3679V423.273H83.6634V424.636H83.777C83.9815 424.193 84.2921 423.837 84.7088 423.568C85.1255 423.295 85.6634 423.159 86.3224 423.159C86.9134 423.159 87.4304 423.28 87.8736 423.523C88.3168 423.761 88.6615 424.125 88.9077 424.614C89.1539 425.098 89.277 425.712 89.277 426.455V432H87.9361V426.545C87.9361 425.86 87.758 425.326 87.402 424.943C87.0459 424.557 86.5573 424.364 85.9361 424.364C85.508 424.364 85.1255 424.456 84.7884 424.642C84.455 424.828 84.1918 425.098 83.9986 425.455C83.8054 425.811 83.7088 426.242 83.7088 426.75ZM93.0682 426.75V432H91.7273V423.273H93.0227V424.636H93.1364C93.3409 424.193 93.6515 423.837 94.0682 423.568C94.4848 423.295 95.0227 423.159 95.6818 423.159C96.2727 423.159 96.7898 423.28 97.233 423.523C97.6761 423.761 98.0208 424.125 98.267 424.614C98.5133 425.098 98.6364 425.712 98.6364 426.455V432H97.2955V426.545C97.2955 425.86 97.1174 425.326 96.7614 424.943C96.4053 424.557 95.9167 424.364 95.2955 424.364C94.8674 424.364 94.4848 424.456 94.1477 424.642C93.8144 424.828 93.5511 425.098 93.358 425.455C93.1648 425.811 93.0682 426.242 93.0682 426.75ZM104.746 432.182C103.905 432.182 103.179 431.996 102.57 431.625C101.964 431.25 101.496 430.727 101.166 430.057C100.84 429.383 100.678 428.598 100.678 427.705C100.678 426.811 100.84 426.023 101.166 425.341C101.496 424.655 101.954 424.121 102.541 423.739C103.132 423.352 103.821 423.159 104.609 423.159C105.064 423.159 105.513 423.235 105.956 423.386C106.399 423.538 106.803 423.784 107.166 424.125C107.53 424.462 107.82 424.909 108.036 425.466C108.251 426.023 108.359 426.708 108.359 427.523V428.091H101.632V426.932H106.996C106.996 426.439 106.897 426 106.7 425.614C106.507 425.227 106.231 424.922 105.871 424.699C105.515 424.475 105.094 424.364 104.609 424.364C104.075 424.364 103.613 424.496 103.223 424.761C102.837 425.023 102.539 425.364 102.331 425.784C102.123 426.205 102.018 426.655 102.018 427.136V427.909C102.018 428.568 102.132 429.127 102.359 429.585C102.59 430.04 102.911 430.386 103.32 430.625C103.729 430.86 104.204 430.977 104.746 430.977C105.098 430.977 105.416 430.928 105.7 430.83C105.988 430.727 106.236 430.576 106.445 430.375C106.653 430.17 106.814 429.917 106.928 429.614L108.223 429.977C108.087 430.417 107.857 430.803 107.536 431.136C107.214 431.466 106.816 431.723 106.342 431.909C105.869 432.091 105.337 432.182 104.746 432.182ZM113.945 432.182C113.126 432.182 112.422 431.989 111.831 431.602C111.24 431.216 110.786 430.684 110.467 430.006C110.149 429.328 109.99 428.553 109.99 427.682C109.99 426.795 110.153 426.013 110.479 425.335C110.808 424.653 111.267 424.121 111.854 423.739C112.445 423.352 113.134 423.159 113.922 423.159C114.536 423.159 115.089 423.273 115.581 423.5C116.073 423.727 116.477 424.045 116.791 424.455C117.106 424.864 117.301 425.341 117.376 425.886H116.036C115.933 425.489 115.706 425.136 115.354 424.83C115.005 424.519 114.536 424.364 113.945 424.364C113.422 424.364 112.964 424.5 112.57 424.773C112.179 425.042 111.875 425.422 111.655 425.915C111.439 426.403 111.331 426.977 111.331 427.636C111.331 428.311 111.437 428.898 111.649 429.398C111.865 429.898 112.168 430.286 112.558 430.562C112.952 430.839 113.414 430.977 113.945 430.977C114.293 430.977 114.609 430.917 114.893 430.795C115.178 430.674 115.418 430.5 115.615 430.273C115.812 430.045 115.952 429.773 116.036 429.455H117.376C117.301 429.97 117.113 430.434 116.814 430.847C116.518 431.256 116.126 431.581 115.638 431.824C115.153 432.062 114.589 432.182 113.945 432.182ZM123.132 423.273V424.409H118.609V423.273H123.132ZM119.928 421.182H121.268V429.5C121.268 429.879 121.323 430.163 121.433 430.352C121.547 430.538 121.691 430.663 121.865 430.727C122.043 430.788 122.231 430.818 122.428 430.818C122.575 430.818 122.696 430.811 122.791 430.795C122.886 430.777 122.962 430.761 123.018 430.75L123.291 431.955C123.2 431.989 123.073 432.023 122.911 432.057C122.748 432.095 122.541 432.114 122.291 432.114C121.912 432.114 121.541 432.032 121.178 431.869C120.818 431.706 120.518 431.458 120.28 431.125C120.045 430.792 119.928 430.371 119.928 429.864V421.182ZM132.217 432.205C131.664 432.205 131.162 432.1 130.712 431.892C130.261 431.68 129.903 431.375 129.638 430.977C129.373 430.576 129.24 430.091 129.24 429.523C129.24 429.023 129.339 428.617 129.536 428.307C129.732 427.992 129.996 427.746 130.325 427.568C130.655 427.39 131.018 427.258 131.416 427.17C131.818 427.08 132.221 427.008 132.626 426.955C133.157 426.886 133.587 426.835 133.916 426.801C134.25 426.763 134.492 426.701 134.643 426.614C134.799 426.527 134.876 426.375 134.876 426.159V426.114C134.876 425.553 134.723 425.117 134.416 424.807C134.113 424.496 133.653 424.341 133.036 424.341C132.395 424.341 131.893 424.481 131.53 424.761C131.166 425.042 130.911 425.341 130.763 425.659L129.49 425.205C129.717 424.674 130.02 424.261 130.399 423.966C130.782 423.667 131.198 423.458 131.649 423.341C132.104 423.22 132.551 423.159 132.99 423.159C133.27 423.159 133.592 423.193 133.956 423.261C134.323 423.326 134.678 423.46 135.018 423.665C135.363 423.869 135.649 424.178 135.876 424.591C136.104 425.004 136.217 425.557 136.217 426.25V432H134.876V430.818H134.808C134.717 431.008 134.566 431.21 134.354 431.426C134.142 431.642 133.859 431.826 133.507 431.977C133.155 432.129 132.725 432.205 132.217 432.205ZM132.422 431C132.952 431 133.399 430.896 133.763 430.688C134.13 430.479 134.407 430.21 134.592 429.881C134.782 429.551 134.876 429.205 134.876 428.841V427.614C134.82 427.682 134.695 427.744 134.501 427.801C134.312 427.854 134.092 427.902 133.842 427.943C133.596 427.981 133.356 428.015 133.121 428.045C132.89 428.072 132.702 428.095 132.558 428.114C132.21 428.159 131.884 428.233 131.581 428.335C131.282 428.434 131.039 428.583 130.854 428.784C130.672 428.981 130.581 429.25 130.581 429.591C130.581 430.057 130.753 430.409 131.098 430.648C131.446 430.883 131.888 431 132.422 431ZM140.006 426.75V432H138.665V423.273H139.96V424.636H140.074C140.278 424.193 140.589 423.837 141.006 423.568C141.422 423.295 141.96 423.159 142.619 423.159C143.21 423.159 143.727 423.28 144.17 423.523C144.614 423.761 144.958 424.125 145.205 424.614C145.451 425.098 145.574 425.712 145.574 426.455V432H144.233V426.545C144.233 425.86 144.055 425.326 143.699 424.943C143.343 424.557 142.854 424.364 142.233 424.364C141.805 424.364 141.422 424.456 141.085 424.642C140.752 424.828 140.489 425.098 140.295 425.455C140.102 425.811 140.006 426.242 140.006 426.75ZM151.32 432.182C150.592 432.182 149.95 431.998 149.393 431.631C148.837 431.259 148.401 430.737 148.087 430.062C147.772 429.384 147.615 428.583 147.615 427.659C147.615 426.742 147.772 425.947 148.087 425.273C148.401 424.598 148.839 424.078 149.399 423.71C149.96 423.343 150.607 423.159 151.342 423.159C151.911 423.159 152.359 423.254 152.689 423.443C153.022 423.629 153.276 423.841 153.45 424.08C153.628 424.314 153.767 424.508 153.865 424.659H153.979V420.364H155.32V432H154.024V430.659H153.865C153.767 430.818 153.626 431.019 153.445 431.261C153.263 431.5 153.003 431.714 152.666 431.903C152.329 432.089 151.88 432.182 151.32 432.182ZM151.501 430.977C152.039 430.977 152.494 430.837 152.865 430.557C153.236 430.273 153.518 429.881 153.712 429.381C153.905 428.877 154.001 428.295 154.001 427.636C154.001 426.985 153.907 426.415 153.717 425.926C153.528 425.434 153.248 425.051 152.876 424.778C152.505 424.502 152.047 424.364 151.501 424.364C150.933 424.364 150.46 424.509 150.081 424.801C149.706 425.089 149.424 425.481 149.234 425.977C149.049 426.47 148.956 427.023 148.956 427.636C148.956 428.258 149.051 428.822 149.24 429.33C149.433 429.833 149.717 430.235 150.092 430.534C150.471 430.83 150.941 430.977 151.501 430.977ZM168.643 425.227L167.439 425.568C167.363 425.367 167.251 425.172 167.104 424.983C166.96 424.79 166.763 424.631 166.513 424.506C166.263 424.381 165.943 424.318 165.553 424.318C165.018 424.318 164.573 424.441 164.217 424.688C163.865 424.93 163.689 425.239 163.689 425.614C163.689 425.947 163.81 426.21 164.053 426.403C164.295 426.597 164.674 426.758 165.189 426.886L166.484 427.205C167.265 427.394 167.846 427.684 168.229 428.074C168.611 428.46 168.803 428.958 168.803 429.568C168.803 430.068 168.659 430.515 168.371 430.909C168.087 431.303 167.689 431.614 167.178 431.841C166.666 432.068 166.071 432.182 165.393 432.182C164.503 432.182 163.767 431.989 163.183 431.602C162.6 431.216 162.231 430.652 162.075 429.909L163.348 429.591C163.469 430.061 163.698 430.413 164.036 430.648C164.376 430.883 164.821 431 165.371 431C165.996 431 166.492 430.867 166.859 430.602C167.231 430.333 167.416 430.011 167.416 429.636C167.416 429.333 167.31 429.08 167.098 428.875C166.886 428.667 166.56 428.511 166.121 428.409L164.666 428.068C163.867 427.879 163.28 427.585 162.905 427.188C162.534 426.786 162.348 426.284 162.348 425.682C162.348 425.189 162.486 424.754 162.763 424.375C163.043 423.996 163.424 423.699 163.905 423.483C164.39 423.267 164.939 423.159 165.553 423.159C166.416 423.159 167.094 423.348 167.587 423.727C168.083 424.106 168.435 424.606 168.643 425.227ZM174.48 432.182C173.639 432.182 172.914 431.996 172.304 431.625C171.698 431.25 171.23 430.727 170.901 430.057C170.575 429.383 170.412 428.598 170.412 427.705C170.412 426.811 170.575 426.023 170.901 425.341C171.23 424.655 171.688 424.121 172.276 423.739C172.866 423.352 173.556 423.159 174.344 423.159C174.798 423.159 175.247 423.235 175.69 423.386C176.134 423.538 176.537 423.784 176.901 424.125C177.264 424.462 177.554 424.909 177.77 425.466C177.986 426.023 178.094 426.708 178.094 427.523V428.091H171.366V426.932H176.73C176.73 426.439 176.632 426 176.435 425.614C176.241 425.227 175.965 424.922 175.605 424.699C175.249 424.475 174.829 424.364 174.344 424.364C173.81 424.364 173.348 424.496 172.957 424.761C172.571 425.023 172.274 425.364 172.065 425.784C171.857 426.205 171.753 426.655 171.753 427.136V427.909C171.753 428.568 171.866 429.127 172.094 429.585C172.325 430.04 172.645 430.386 173.054 430.625C173.463 430.86 173.938 430.977 174.48 430.977C174.832 430.977 175.151 430.928 175.435 430.83C175.723 430.727 175.971 430.576 176.179 430.375C176.387 430.17 176.548 429.917 176.662 429.614L177.957 429.977C177.821 430.417 177.592 430.803 177.27 431.136C176.948 431.466 176.55 431.723 176.077 431.909C175.603 432.091 175.071 432.182 174.48 432.182ZM181.474 426.75V432H180.134V423.273H181.429V424.636H181.543C181.747 424.193 182.058 423.837 182.474 423.568C182.891 423.295 183.429 423.159 184.088 423.159C184.679 423.159 185.196 423.28 185.639 423.523C186.082 423.761 186.427 424.125 186.673 424.614C186.92 425.098 187.043 425.712 187.043 426.455V432H185.702V426.545C185.702 425.86 185.524 425.326 185.168 424.943C184.812 424.557 184.323 424.364 183.702 424.364C183.274 424.364 182.891 424.456 182.554 424.642C182.221 424.828 181.957 425.098 181.764 425.455C181.571 425.811 181.474 426.242 181.474 426.75ZM192.788 432.182C192.061 432.182 191.419 431.998 190.862 431.631C190.305 431.259 189.87 430.737 189.555 430.062C189.241 429.384 189.084 428.583 189.084 427.659C189.084 426.742 189.241 425.947 189.555 425.273C189.87 424.598 190.307 424.078 190.868 423.71C191.429 423.343 192.076 423.159 192.811 423.159C193.379 423.159 193.828 423.254 194.158 423.443C194.491 423.629 194.745 423.841 194.919 424.08C195.097 424.314 195.235 424.508 195.334 424.659H195.447V420.364H196.788V432H195.493V430.659H195.334C195.235 430.818 195.095 431.019 194.913 431.261C194.732 431.5 194.472 431.714 194.135 431.903C193.798 432.089 193.349 432.182 192.788 432.182ZM192.97 430.977C193.508 430.977 193.963 430.837 194.334 430.557C194.705 430.273 194.987 429.881 195.18 429.381C195.374 428.877 195.47 428.295 195.47 427.636C195.47 426.985 195.375 426.415 195.186 425.926C194.997 425.434 194.716 425.051 194.345 424.778C193.974 424.502 193.516 424.364 192.97 424.364C192.402 424.364 191.929 424.509 191.55 424.801C191.175 425.089 190.893 425.481 190.703 425.977C190.518 426.47 190.425 427.023 190.425 427.636C190.425 428.258 190.519 428.822 190.709 429.33C190.902 429.833 191.186 430.235 191.561 430.534C191.94 430.83 192.41 430.977 192.97 430.977ZM200.408 432.091C200.127 432.091 199.887 431.991 199.686 431.79C199.485 431.589 199.385 431.348 199.385 431.068C199.385 430.788 199.485 430.547 199.686 430.347C199.887 430.146 200.127 430.045 200.408 430.045C200.688 430.045 200.929 430.146 201.129 430.347C201.33 430.547 201.43 430.788 201.43 431.068C201.43 431.254 201.383 431.424 201.288 431.58C201.197 431.735 201.074 431.86 200.919 431.955C200.768 432.045 200.597 432.091 200.408 432.091Z" fill="#0C0E0F"/>
<g clip-path="url(#clip0_70_1677)">
<rect width="395" height="316" fill="white"/>
<rect width="395" height="316" fill="#00827B"/>
<g clip-path="url(#clip1_70_1677)">
<rect x="25.5544" y="52.2773" width="342.178" height="325.782" rx="14.2574" fill="white"/>
<rect x="25.9109" y="52.6338" width="341.465" height="325.069" rx="13.901" stroke="black" stroke-opacity="0.5" stroke-width="0.712871"/>
<path d="M25.5544 57.2674C25.5544 54.1178 28.1078 51.5645 31.2574 51.5645H362.03C365.179 51.5645 367.733 54.1178 367.733 57.2674V82.9308H25.5544V57.2674Z" fill="black"/>
<circle cx="44.0892" cy="67.2475" r="2.85149" fill="#FF0606"/>
<circle cx="54.0693" cy="67.2475" r="2.85149" fill="#30C1FF"/>
<circle cx="64.0495" cy="67.2475" r="2.85149" fill="#A3DC2F"/>
<rect x="41.2377" y="96.4751" width="51.3267" height="51.3267" rx="9.9802" fill="#F3F3F3"/>
<path fill-rule="evenodd" clip-rule="evenodd" d="M64.3418 111.445H64.3786H68.7655H68.8023C70.3067 111.445 71.4861 111.445 72.4341 111.523C73.3994 111.602 74.1968 111.765 74.9185 112.133C76.1052 112.737 77.0699 113.702 77.6745 114.889C78.0422 115.61 78.2055 116.408 78.2844 117.373C78.3618 118.321 78.3618 119.5 78.3618 121.005V121.005V121.042V123.235V123.272V123.272C78.3618 124.776 78.3618 125.956 78.2844 126.904C78.2055 127.869 78.0422 128.666 77.6745 129.388C77.0699 130.575 76.1052 131.54 74.9185 132.144C74.1968 132.512 73.3994 132.675 72.4341 132.754C71.4861 132.831 70.3067 132.831 68.8024 132.831H68.8023H68.7655H64.3786H64.3417H64.3417H64.3416C62.8373 132.831 61.6579 132.831 60.71 132.754C59.7447 132.675 58.9472 132.512 58.2254 132.144C57.0389 131.54 56.0741 130.575 55.4696 129.388C55.1018 128.666 54.9385 127.869 54.8597 126.904C54.7822 125.956 54.7822 124.776 54.7822 123.272V123.235V121.042V121.005C54.7822 119.5 54.7822 118.321 54.8597 117.373C54.9385 116.408 55.1018 115.61 55.4696 114.889C56.0741 113.702 57.0389 112.737 58.2254 112.133C58.9472 111.765 59.7447 111.602 60.71 111.523C61.6579 111.445 62.8374 111.445 64.3418 111.445ZM60.4479 117.067C60.07 116.815 59.5593 116.917 59.3073 117.295C59.0553 117.673 59.1574 118.184 59.5354 118.436L60.6321 119.167L60.7597 119.252C62.403 120.348 63.3808 121 64.4364 121.318C65.8292 121.738 67.3148 121.738 68.7077 121.318C69.7632 121 70.7411 120.348 72.3843 119.252L72.5119 119.167L73.6086 118.436C73.9866 118.184 74.0888 117.673 73.8367 117.295C73.5848 116.917 73.0741 116.815 72.6961 117.067L71.5994 117.798C69.7895 119.005 69.0251 119.504 68.233 119.743C67.1498 120.069 65.9943 120.069 64.911 119.743C64.119 119.504 63.3546 119.005 61.5447 117.798L60.4479 117.067Z" fill="black"/>
<rect x="105.396" y="100.752" width="184.634" height="8.55446" rx="4.27723" fill="#F3F3F3"/>
<rect x="105.396" y="134.97" width="174.653" height="8.55446" rx="4.27723" fill="#F3F3F3"/>
<rect x="105.396" y="117.861" width="191.762" height="8.55446" rx="4.27723" fill="#F3F3F3"/>
<path d="M351.337 102.178C352.317 102.178 353.119 101.376 353.119 100.396C353.119 99.4158 352.317 98.6139 351.337 98.6139C350.356 98.6139 349.554 99.4158 349.554 100.396C349.554 101.376 350.356 102.178 351.337 102.178Z" fill="#F0EEEE"/>
<path d="M338.861 102.178C339.842 102.178 340.644 101.376 340.644 100.396C340.644 99.4158 339.842 98.6139 338.861 98.6139C337.881 98.6139 337.079 99.4158 337.079 100.396C337.079 101.376 337.881 102.178 338.861 102.178Z" fill="#F0EEEE"/>
<path d="M345.099 102.178C346.079 102.178 346.881 101.376 346.881 100.396C346.881 99.4158 346.079 98.6139 345.099 98.6139C344.119 98.6139 343.317 99.4158 343.317 100.396C343.317 101.376 344.119 102.178 345.099 102.178Z" fill="#F0EEEE"/>
<rect x="41.2377" y="162.772" width="51.3267" height="51.3267" rx="9.9802" fill="#F3F3F3"/>
<path fill-rule="evenodd" clip-rule="evenodd" d="M64.3418 177.742H64.3786H68.7655H68.8023C70.3067 177.742 71.4861 177.742 72.4341 177.82C73.3994 177.899 74.1968 178.062 74.9185 178.43C76.1052 179.034 77.0699 179.999 77.6745 181.186C78.0422 181.907 78.2055 182.705 78.2844 183.67C78.3618 184.618 78.3618 185.798 78.3618 187.302V187.302V187.339V189.532V189.569V189.569C78.3618 191.073 78.3618 192.253 78.2844 193.201C78.2055 194.166 78.0422 194.964 77.6745 195.685C77.0699 196.872 76.1052 197.837 74.9185 198.441C74.1968 198.809 73.3994 198.972 72.4341 199.051C71.4861 199.129 70.3067 199.129 68.8024 199.129H68.8023H68.7655H64.3786H64.3417H64.3417H64.3416C62.8373 199.129 61.6579 199.129 60.71 199.051C59.7447 198.972 58.9472 198.809 58.2254 198.441C57.0389 197.837 56.0741 196.872 55.4696 195.685C55.1018 194.964 54.9385 194.166 54.8597 193.201C54.7822 192.253 54.7822 191.073 54.7822 189.569V189.532V187.339V187.302C54.7822 185.798 54.7822 184.618 54.8597 183.67C54.9385 182.705 55.1018 181.907 55.4696 181.186C56.0741 179.999 57.0389 179.034 58.2254 178.43C58.9472 178.062 59.7447 177.899 60.71 177.82C61.6579 177.742 62.8374 177.742 64.3418 177.742ZM60.4479 183.364C60.07 183.112 59.5593 183.214 59.3073 183.592C59.0553 183.97 59.1574 184.481 59.5354 184.733L60.6321 185.464L60.7597 185.549C62.403 186.645 63.3808 187.297 64.4364 187.615C65.8292 188.035 67.3148 188.035 68.7077 187.615C69.7632 187.297 70.7411 186.645 72.3843 185.549L72.5119 185.464L73.6086 184.733C73.9866 184.481 74.0888 183.97 73.8367 183.592C73.5848 183.214 73.0741 183.112 72.6961 183.364L71.5994 184.095C69.7895 185.302 69.0251 185.801 68.233 186.04C67.1498 186.366 65.9943 186.366 64.911 186.04C64.119 185.801 63.3546 185.302 61.5447 184.095L60.4479 183.364Z" fill="black"/>
<rect x="105.396" y="167.049" width="184.634" height="8.55446" rx="4.27723" fill="#F3F3F3"/>
<rect x="105.396" y="201.267" width="174.653" height="8.55446" rx="4.27723" fill="#F3F3F3"/>
<rect x="105.396" y="184.158" width="191.762" height="8.55446" rx="4.27723" fill="#F3F3F3"/>
<path d="M351.337 168.475C352.317 168.475 353.119 167.673 353.119 166.693C353.119 165.713 352.317 164.911 351.337 164.911C350.356 164.911 349.554 165.713 349.554 166.693C349.554 167.673 350.356 168.475 351.337 168.475Z" fill="#F0EEEE"/>
<path d="M338.861 168.475C339.842 168.475 340.644 167.673 340.644 166.693C340.644 165.713 339.842 164.911 338.861 164.911C337.881 164.911 337.079 165.713 337.079 166.693C337.079 167.673 337.881 168.475 338.861 168.475Z" fill="#F0EEEE"/>
<path d="M345.099 168.475C346.079 168.475 346.881 167.673 346.881 166.693C346.881 165.713 346.079 164.911 345.099 164.911C344.119 164.911 343.317 165.713 343.317 166.693C343.317 167.673 344.119 168.475 345.099 168.475Z" fill="#F0EEEE"/>
<rect x="41.2377" y="229.069" width="51.3267" height="51.3267" rx="9.9802" fill="#F3F3F3"/>
<path fill-rule="evenodd" clip-rule="evenodd" d="M64.3418 244.04H64.3786H68.7655H68.8023C70.3067 244.04 71.4861 244.04 72.4341 244.117C73.3994 244.196 74.1968 244.359 74.9185 244.727C76.1052 245.331 77.0699 246.296 77.6745 247.483C78.0422 248.205 78.2055 249.002 78.2844 249.967C78.3618 250.915 78.3618 252.095 78.3618 253.599V253.599V253.636V255.829V255.866V255.866C78.3618 257.371 78.3618 258.55 78.2844 259.498C78.2055 260.463 78.0422 261.261 77.6745 261.982C77.0699 263.169 76.1052 264.134 74.9185 264.738C74.1968 265.106 73.3994 265.269 72.4341 265.348C71.4861 265.426 70.3067 265.426 68.8024 265.426H68.8023H68.7655H64.3786H64.3417H64.3417H64.3416C62.8373 265.426 61.6579 265.426 60.71 265.348C59.7447 265.269 58.9472 265.106 58.2254 264.738C57.0389 264.134 56.0741 263.169 55.4696 261.982C55.1018 261.261 54.9385 260.463 54.8597 259.498C54.7822 258.55 54.7822 257.371 54.7822 255.866V255.829V253.636V253.599C54.7822 252.095 54.7822 250.915 54.8597 249.967C54.9385 249.002 55.1018 248.205 55.4696 247.483C56.0741 246.296 57.0389 245.331 58.2254 244.727C58.9472 244.359 59.7447 244.196 60.71 244.117C61.6579 244.04 62.8374 244.04 64.3418 244.04ZM60.4479 249.661C60.07 249.409 59.5593 249.511 59.3073 249.889C59.0553 250.267 59.1574 250.778 59.5354 251.03L60.6321 251.761L60.7597 251.846C62.403 252.942 63.3808 253.594 64.4364 253.912C65.8292 254.332 67.3148 254.332 68.7077 253.912C69.7632 253.594 70.7411 252.942 72.3843 251.846L72.5119 251.761L73.6086 251.03C73.9866 250.778 74.0888 250.267 73.8367 249.889C73.5848 249.511 73.0741 249.409 72.6961 249.661L71.5994 250.392C69.7895 251.599 69.0251 252.098 68.233 252.337C67.1498 252.663 65.9943 252.663 64.911 252.337C64.119 252.098 63.3546 251.599 61.5447 250.392L60.4479 249.661Z" fill="#DADADA"/>
<rect x="105.396" y="233.346" width="184.634" height="8.55446" rx="4.27723" fill="#F3F3F3"/>
<rect x="105.396" y="267.564" width="174.653" height="8.55446" rx="4.27723" fill="#F3F3F3"/>
<rect x="105.396" y="250.455" width="191.762" height="8.55446" rx="4.27723" fill="#F3F3F3"/>
<path d="M351.337 239.049C352.317 239.049 353.119 238.247 353.119 237.267C353.119 236.287 352.317 235.485 351.337 235.485C350.356 235.485 349.554 236.287 349.554 237.267C349.554 238.247 350.356 239.049 351.337 239.049Z" fill="#F0EEEE"/>
<path d="M338.861 239.049C339.842 239.049 340.644 238.247 340.644 237.267C340.644 236.287 339.842 235.485 338.861 235.485C337.881 235.485 337.079 236.287 337.079 237.267C337.079 238.247 337.881 239.049 338.861 239.049Z" fill="#F0EEEE"/>
<path d="M345.099 239.049C346.079 239.049 346.881 238.247 346.881 237.267C346.881 236.287 346.079 235.485 345.099 235.485C344.119 235.485 343.317 236.287 343.317 237.267C343.317 238.247 344.119 239.049 345.099 239.049Z" fill="#F0EEEE"/>
<rect x="41.2377" y="295.366" width="51.3267" height="51.3267" rx="9.9802" fill="#F3F3F3"/>
<path fill-rule="evenodd" clip-rule="evenodd" d="M64.3418 310.336H64.3786H68.7655H68.8023C70.3067 310.336 71.4861 310.336 72.4341 310.414C73.3994 310.493 74.1968 310.656 74.9185 311.024C76.1052 311.628 77.0699 312.593 77.6745 313.78C78.0422 314.501 78.2055 315.299 78.2844 316.264C78.3618 317.212 78.3618 318.391 78.3618 319.896V319.896V319.933V322.126V322.163V322.163C78.3618 323.667 78.3618 324.847 78.2844 325.795C78.2055 326.76 78.0422 327.558 77.6745 328.279C77.0699 329.466 76.1052 330.431 74.9185 331.035C74.1968 331.403 73.3994 331.566 72.4341 331.645C71.4861 331.723 70.3067 331.723 68.8024 331.723H68.8023H68.7655H64.3786H64.3417H64.3417H64.3416C62.8373 331.723 61.6579 331.723 60.71 331.645C59.7447 331.566 58.9472 331.403 58.2254 331.035C57.0389 330.431 56.0741 329.466 55.4696 328.279C55.1018 327.558 54.9385 326.76 54.8597 325.795C54.7822 324.847 54.7822 323.667 54.7822 322.163V322.126V319.933V319.896C54.7822 318.392 54.7822 317.212 54.8597 316.264C54.9385 315.299 55.1018 314.501 55.4696 313.78C56.0741 312.593 57.0389 311.628 58.2254 311.024C58.9472 310.656 59.7447 310.493 60.71 310.414C61.6579 310.336 62.8374 310.336 64.3418 310.336ZM60.4479 315.958C60.07 315.706 59.5593 315.808 59.3073 316.186C59.0553 316.564 59.1574 317.075 59.5354 317.327L60.6321 318.058L60.7597 318.143C62.403 319.239 63.3808 319.891 64.4364 320.209C65.8292 320.629 67.3148 320.629 68.7077 320.209C69.7632 319.891 70.7411 319.239 72.3843 318.143L72.5119 318.058L73.6086 317.327C73.9866 317.075 74.0888 316.564 73.8367 316.186C73.5848 315.808 73.0741 315.706 72.6961 315.958L71.5994 316.689C69.7895 317.896 69.0251 318.395 68.233 318.634C67.1498 318.96 65.9943 318.96 64.911 318.634C64.119 318.395 63.3546 317.896 61.5447 316.689L60.4479 315.958Z" fill="#DADADA"/>
<rect x="105.396" y="299.643" width="184.634" height="8.55446" rx="4.27723" fill="#F3F3F3"/>
<path d="M351.337 301.069C352.317 301.069 353.119 300.267 353.119 299.287C353.119 298.307 352.317 297.505 351.337 297.505C350.356 297.505 349.554 298.307 349.554 299.287C349.554 300.267 350.356 301.069 351.337 301.069Z" fill="#F0EEEE"/>
<path d="M338.861 301.069C339.842 301.069 340.644 300.267 340.644 299.287C340.644 298.307 339.842 297.505 338.861 297.505C337.881 297.505 337.079 298.307 337.079 299.287C337.079 300.267 337.881 301.069 338.861 301.069Z" fill="#F0EEEE"/>
<path d="M345.099 301.069C346.079 301.069 346.881 300.267 346.881 299.287C346.881 298.307 346.079 297.505 345.099 297.505C344.119 297.505 343.317 298.307 343.317 299.287C343.317 300.267 344.119 301.069 345.099 301.069Z" fill="#F0EEEE"/>
<rect x="25.9109" y="52.6338" width="341.465" height="325.069" rx="13.901" fill="white" stroke="black" stroke-width="0.712871"/>
<path d="M25.5544 57.2674C25.5544 54.1178 28.1078 51.5645 31.2574 51.5645H362.03C365.179 51.5645 367.733 54.1178 367.733 57.2674V82.9308H25.5544V57.2674Z" fill="black"/>
<circle cx="44.0892" cy="67.2475" r="2.85149" fill="#FF0606"/>
<circle cx="54.0693" cy="67.2475" r="2.85149" fill="#30C1FF"/>
<circle cx="64.0495" cy="67.2475" r="2.85149" fill="#A3DC2F"/>
<rect x="41.2377" y="96.4751" width="51.3267" height="51.3267" rx="9.9802" fill="#F3F3F3"/>
<path fill-rule="evenodd" clip-rule="evenodd" d="M64.3418 111.445H64.3786H68.7655H68.8023C70.3067 111.445 71.4861 111.445 72.4341 111.523C73.3994 111.602 74.1968 111.765 74.9185 112.133C76.1052 112.737 77.0699 113.702 77.6745 114.889C78.0422 115.61 78.2055 116.408 78.2844 117.373C78.3618 118.321 78.3618 119.5 78.3618 121.005V121.005V121.042V123.235V123.272V123.272C78.3618 124.776 78.3618 125.956 78.2844 126.904C78.2055 127.869 78.0422 128.666 77.6745 129.388C77.0699 130.575 76.1052 131.54 74.9185 132.144C74.1968 132.512 73.3994 132.675 72.4341 132.754C71.4861 132.831 70.3067 132.831 68.8024 132.831H68.8023H68.7655H64.3786H64.3417H64.3417H64.3416C62.8373 132.831 61.6579 132.831 60.71 132.754C59.7447 132.675 58.9472 132.512 58.2254 132.144C57.0389 131.54 56.0741 130.575 55.4696 129.388C55.1018 128.666 54.9385 127.869 54.8597 126.904C54.7822 125.956 54.7822 124.776 54.7822 123.272V123.235V121.042V121.005C54.7822 119.5 54.7822 118.321 54.8597 117.373C54.9385 116.408 55.1018 115.61 55.4696 114.889C56.0741 113.702 57.0389 112.737 58.2254 112.133C58.9472 111.765 59.7447 111.602 60.71 111.523C61.6579 111.445 62.8374 111.445 64.3418 111.445ZM60.4479 117.067C60.07 116.815 59.5593 116.917 59.3073 117.295C59.0553 117.673 59.1574 118.184 59.5354 118.436L60.6321 119.167L60.7597 119.252C62.403 120.348 63.3808 121 64.4364 121.318C65.8292 121.738 67.3148 121.738 68.7077 121.318C69.7632 121 70.7411 120.348 72.3843 119.252L72.5119 119.167L73.6086 118.436C73.9866 118.184 74.0888 117.673 73.8367 117.295C73.5848 116.917 73.0741 116.815 72.6961 117.067L71.5994 117.798C69.7895 119.005 69.0251 119.504 68.233 119.743C67.1498 120.069 65.9943 120.069 64.911 119.743C64.119 119.504 63.3546 119.005 61.5447 117.798L60.4479 117.067Z" fill="black"/>
<rect x="105.396" y="100.752" width="184.634" height="8.55446" rx="4.27723" fill="#F3F3F3"/>
<rect x="105.396" y="134.97" width="174.653" height="8.55446" rx="4.27723" fill="#F3F3F3"/>
<rect x="105.396" y="117.861" width="191.762" height="8.55446" rx="4.27723" fill="#F3F3F3"/>
<path d="M351.337 102.178C352.317 102.178 353.119 101.376 353.119 100.396C353.119 99.4158 352.317 98.6139 351.337 98.6139C350.356 98.6139 349.554 99.4158 349.554 100.396C349.554 101.376 350.356 102.178 351.337 102.178Z" fill="#F0EEEE"/>
<path d="M338.861 102.178C339.842 102.178 340.644 101.376 340.644 100.396C340.644 99.4158 339.842 98.6139 338.861 98.6139C337.881 98.6139 337.079 99.4158 337.079 100.396C337.079 101.376 337.881 102.178 338.861 102.178Z" fill="#F0EEEE"/>
<path d="M345.099 102.178C346.079 102.178 346.881 101.376 346.881 100.396C346.881 99.4158 346.079 98.6139 345.099 98.6139C344.119 98.6139 343.317 99.4158 343.317 100.396C343.317 101.376 344.119 102.178 345.099 102.178Z" fill="#F0EEEE"/>
<rect x="41.2377" y="162.772" width="51.3267" height="51.3267" rx="9.9802" fill="#F3F3F3"/>
<path fill-rule="evenodd" clip-rule="evenodd" d="M64.3418 177.742H64.3786H68.7655H68.8023C70.3067 177.742 71.4861 177.742 72.4341 177.82C73.3994 177.899 74.1968 178.062 74.9185 178.43C76.1052 179.034 77.0699 179.999 77.6745 181.186C78.0422 181.907 78.2055 182.705 78.2844 183.67C78.3618 184.618 78.3618 185.798 78.3618 187.302V187.302V187.339V189.532V189.569V189.569C78.3618 191.073 78.3618 192.253 78.2844 193.201C78.2055 194.166 78.0422 194.964 77.6745 195.685C77.0699 196.872 76.1052 197.837 74.9185 198.441C74.1968 198.809 73.3994 198.972 72.4341 199.051C71.4861 199.129 70.3067 199.129 68.8024 199.129H68.8023H68.7655H64.3786H64.3417H64.3417H64.3416C62.8373 199.129 61.6579 199.129 60.71 199.051C59.7447 198.972 58.9472 198.809 58.2254 198.441C57.0389 197.837 56.0741 196.872 55.4696 195.685C55.1018 194.964 54.9385 194.166 54.8597 193.201C54.7822 192.253 54.7822 191.073 54.7822 189.569V189.532V187.339V187.302C54.7822 185.798 54.7822 184.618 54.8597 183.67C54.9385 182.705 55.1018 181.907 55.4696 181.186C56.0741 179.999 57.0389 179.034 58.2254 178.43C58.9472 178.062 59.7447 177.899 60.71 177.82C61.6579 177.742 62.8374 177.742 64.3418 177.742ZM60.4479 183.364C60.07 183.112 59.5593 183.214 59.3073 183.592C59.0553 183.97 59.1574 184.481 59.5354 184.733L60.6321 185.464L60.7597 185.549C62.403 186.645 63.3808 187.297 64.4364 187.615C65.8292 188.035 67.3148 188.035 68.7077 187.615C69.7632 187.297 70.7411 186.645 72.3843 185.549L72.5119 185.464L73.6086 184.733C73.9866 184.481 74.0888 183.97 73.8367 183.592C73.5848 183.214 73.0741 183.112 72.6961 183.364L71.5994 184.095C69.7895 185.302 69.0251 185.801 68.233 186.04C67.1498 186.366 65.9943 186.366 64.911 186.04C64.119 185.801 63.3546 185.302 61.5447 184.095L60.4479 183.364Z" fill="black"/>
<rect x="105.396" y="167.049" width="184.634" height="8.55446" rx="4.27723" fill="#F3F3F3"/>
<rect x="105.396" y="201.267" width="174.653" height="8.55446" rx="4.27723" fill="#F3F3F3"/>
<rect x="105.396" y="184.158" width="191.762" height="8.55446" rx="4.27723" fill="#F3F3F3"/>
<path d="M351.337 168.475C352.317 168.475 353.119 167.673 353.119 166.693C353.119 165.713 352.317 164.911 351.337 164.911C350.356 164.911 349.554 165.713 349.554 166.693C349.554 167.673 350.356 168.475 351.337 168.475Z" fill="#F0EEEE"/>
<path d="M338.861 168.475C339.842 168.475 340.644 167.673 340.644 166.693C340.644 165.713 339.842 164.911 338.861 164.911C337.881 164.911 337.079 165.713 337.079 166.693C337.079 167.673 337.881 168.475 338.861 168.475Z" fill="#F0EEEE"/>
<path d="M345.099 168.475C346.079 168.475 346.881 167.673 346.881 166.693C346.881 165.713 346.079 164.911 345.099 164.911C344.119 164.911 343.317 165.713 343.317 166.693C343.317 167.673 344.119 168.475 345.099 168.475Z" fill="#F0EEEE"/>
<rect x="41.2377" y="228.772" width="51.3267" height="51.3267" rx="9.9802" fill="#F3F3F3"/>
<path fill-rule="evenodd" clip-rule="evenodd" d="M64.3418 243.742H64.3786H68.7655H68.8023C70.3067 243.742 71.4861 243.742 72.4341 243.82C73.3994 243.899 74.1968 244.062 74.9185 244.43C76.1052 245.034 77.0699 245.999 77.6745 247.186C78.0422 247.907 78.2055 248.705 78.2844 249.67C78.3618 250.618 78.3618 251.798 78.3618 253.302V253.302V253.339V255.532V255.569V255.569C78.3618 257.073 78.3618 258.253 78.2844 259.201C78.2055 260.166 78.0422 260.964 77.6745 261.685C77.0699 262.872 76.1052 263.837 74.9185 264.441C74.1968 264.809 73.3994 264.972 72.4341 265.051C71.4861 265.129 70.3067 265.129 68.8024 265.129H68.8023H68.7655H64.3786H64.3417H64.3417H64.3416C62.8373 265.129 61.6579 265.129 60.71 265.051C59.7447 264.972 58.9472 264.809 58.2254 264.441C57.0389 263.837 56.0741 262.872 55.4696 261.685C55.1018 260.964 54.9385 260.166 54.8597 259.201C54.7822 258.253 54.7822 257.073 54.7822 255.569V255.532V253.339V253.302C54.7822 251.798 54.7822 250.618 54.8597 249.67C54.9385 248.705 55.1018 247.907 55.4696 247.186C56.0741 245.999 57.0389 245.034 58.2254 244.43C58.9472 244.062 59.7447 243.899 60.71 243.82C61.6579 243.742 62.8374 243.742 64.3418 243.742ZM60.4479 249.364C60.07 249.112 59.5593 249.214 59.3073 249.592C59.0553 249.97 59.1574 250.481 59.5354 250.733L60.6321 251.464L60.7597 251.549C62.403 252.645 63.3808 253.297 64.4364 253.615C65.8292 254.035 67.3148 254.035 68.7077 253.615C69.7632 253.297 70.7411 252.645 72.3843 251.549L72.5119 251.464L73.6086 250.733C73.9866 250.481 74.0888 249.97 73.8367 249.592C73.5848 249.214 73.0741 249.112 72.6961 249.364L71.5994 250.095C69.7895 251.302 69.0251 251.801 68.233 252.04C67.1498 252.366 65.9943 252.366 64.911 252.04C64.119 251.801 63.3546 251.302 61.5447 250.095L60.4479 249.364Z" fill="black"/>
<rect x="105.396" y="233.346" width="184.634" height="8.55446" rx="4.27723" fill="#F3F3F3"/>
<rect x="105.396" y="267.564" width="174.653" height="8.55446" rx="4.27723" fill="#F3F3F3"/>
<rect x="105.396" y="250.455" width="191.762" height="8.55446" rx="4.27723" fill="#F3F3F3"/>
<path d="M351.337 239.049C352.317 239.049 353.119 238.247 353.119 237.267C353.119 236.287 352.317 235.485 351.337 235.485C350.356 235.485 349.554 236.287 349.554 237.267C349.554 238.247 350.356 239.049 351.337 239.049Z" fill="#F0EEEE"/>
<path d="M338.861 239.049C339.842 239.049 340.644 238.247 340.644 237.267C340.644 236.287 339.842 235.485 338.861 235.485C337.881 235.485 337.079 236.287 337.079 237.267C337.079 238.247 337.881 239.049 338.861 239.049Z" fill="#F0EEEE"/>
<path d="M345.099 239.049C346.079 239.049 346.881 238.247 346.881 237.267C346.881 236.287 346.079 235.485 345.099 235.485C344.119 235.485 343.317 236.287 343.317 237.267C343.317 238.247 344.119 239.049 345.099 239.049Z" fill="#F0EEEE"/>
<rect x="41.2377" y="295.772" width="51.3267" height="51.3267" rx="9.9802" fill="#F3F3F3"/>
<path fill-rule="evenodd" clip-rule="evenodd" d="M64.3418 310.742H64.3786H68.7655H68.8023C70.3067 310.742 71.4861 310.742 72.4341 310.82C73.3994 310.899 74.1968 311.062 74.9185 311.43C76.1052 312.034 77.0699 312.999 77.6745 314.186C78.0422 314.907 78.2055 315.705 78.2844 316.67C78.3618 317.618 78.3618 318.798 78.3618 320.302V320.302V320.339V322.532V322.569V322.569C78.3618 324.073 78.3618 325.253 78.2844 326.201C78.2055 327.166 78.0422 327.964 77.6745 328.685C77.0699 329.872 76.1052 330.837 74.9185 331.441C74.1968 331.809 73.3994 331.972 72.4341 332.051C71.4861 332.129 70.3067 332.129 68.8024 332.129H68.8023H68.7655H64.3786H64.3417H64.3417H64.3416C62.8373 332.129 61.6579 332.129 60.71 332.051C59.7447 331.972 58.9472 331.809 58.2254 331.441C57.0389 330.837 56.0741 329.872 55.4696 328.685C55.1018 327.964 54.9385 327.166 54.8597 326.201C54.7822 325.253 54.7822 324.073 54.7822 322.569V322.532V320.339V320.302C54.7822 318.798 54.7822 317.618 54.8597 316.67C54.9385 315.705 55.1018 314.907 55.4696 314.186C56.0741 312.999 57.0389 312.034 58.2254 311.43C58.9472 311.062 59.7447 310.899 60.71 310.82C61.6579 310.742 62.8374 310.742 64.3418 310.742ZM60.4479 316.364C60.07 316.112 59.5593 316.214 59.3073 316.592C59.0553 316.97 59.1574 317.481 59.5354 317.733L60.6321 318.464L60.7597 318.549C62.403 319.645 63.3808 320.297 64.4364 320.615C65.8292 321.035 67.3148 321.035 68.7077 320.615C69.7632 320.297 70.7411 319.645 72.3843 318.549L72.5119 318.464L73.6086 317.733C73.9866 317.481 74.0888 316.97 73.8367 316.592C73.5848 316.214 73.0741 316.112 72.6961 316.364L71.5994 317.095C69.7895 318.302 69.0251 318.801 68.233 319.04C67.1498 319.366 65.9943 319.366 64.911 319.04C64.119 318.801 63.3546 318.302 61.5447 317.095L60.4479 316.364Z" fill="black"/>
<rect x="105.396" y="299.643" width="184.634" height="8.55446" rx="4.27723" fill="#F3F3F3"/>
<path d="M351.337 301.069C352.317 301.069 353.119 300.267 353.119 299.287C353.119 298.307 352.317 297.505 351.337 297.505C350.356 297.505 349.554 298.307 349.554 299.287C349.554 300.267 350.356 301.069 351.337 301.069Z" fill="#F0EEEE"/>
<path d="M338.861 301.069C339.842 301.069 340.644 300.267 340.644 299.287C340.644 298.307 339.842 297.505 338.861 297.505C337.881 297.505 337.079 298.307 337.079 299.287C337.079 300.267 337.881 301.069 338.861 301.069Z" fill="#F0EEEE"/>
<path d="M345.099 301.069C346.079 301.069 346.881 300.267 346.881 299.287C346.881 298.307 346.079 297.505 345.099 297.505C344.119 297.505 343.317 298.307 343.317 299.287C343.317 300.267 344.119 301.069 345.099 301.069Z" fill="#F0EEEE"/>
</g>
</g>
<defs>
<clipPath id="clip0_70_1677">
<rect width="395" height="316" fill="white"/>
</clipPath>
<clipPath id="clip1_70_1677">
<rect width="360" height="269" fill="white" transform="translate(17 48)"/>
</clipPath>
</defs>
</svg>
