<svg width="737" height="316" viewBox="0 0 737 316" fill="none" xmlns="http://www.w3.org/2000/svg">
<g clip-path="url(#clip0_58_701)">
<rect width="737" height="316" fill="#00827B"/>
<g clip-path="url(#clip1_58_701)">
<rect x="128" y="36" width="480" height="457" rx="20" fill="white"/>
<rect x="128.5" y="36.5" width="479" height="456" rx="19.5" stroke="black" stroke-opacity="0.5"/>
<path d="M128 43C128 38.5817 131.582 35 136 35H600C604.418 35 608 38.5817 608 43V79H128V43Z" fill="black"/>
<circle cx="154" cy="57" r="4" fill="#FF0606"/>
<circle cx="168" cy="57" r="4" fill="#30C1FF"/>
<circle cx="182" cy="57" r="4" fill="#A3DC2F"/>
<rect x="150" y="97.9998" width="72" height="72" rx="14" fill="#F3F3F3"/>
<path fill-rule="evenodd" clip-rule="evenodd" d="M182.41 119H182.462H188.615H188.667C190.777 119 192.432 119 193.762 119.108C195.116 119.219 196.234 119.448 197.247 119.964C198.911 120.812 200.265 122.165 201.113 123.83C201.629 124.842 201.858 125.961 201.968 127.315C202.077 128.645 202.077 130.299 202.077 132.409V132.41V132.461V135.538V135.59V135.59C202.077 137.7 202.077 139.355 201.968 140.685C201.858 142.039 201.629 143.157 201.113 144.17C200.265 145.834 198.911 147.187 197.247 148.036C196.234 148.551 195.116 148.781 193.762 148.891C192.432 149 190.777 149 188.667 149H188.667H188.615H182.462H182.41H182.41H182.41C180.299 149 178.645 149 177.315 148.891C175.961 148.781 174.843 148.551 173.83 148.036C172.166 147.187 170.812 145.834 169.964 144.17C169.448 143.157 169.219 142.039 169.109 140.685C169 139.355 169 137.7 169 135.59V135.538V132.461V132.41C169 130.299 169 128.645 169.109 127.315C169.219 125.961 169.448 124.842 169.964 123.83C170.812 122.165 172.166 120.812 173.83 119.964C174.843 119.448 175.961 119.219 177.315 119.108C178.645 119 180.3 119 182.41 119ZM176.948 126.886C176.418 126.532 175.701 126.676 175.348 127.206C174.994 127.736 175.137 128.452 175.668 128.806L177.206 129.832L177.385 129.951C179.69 131.488 181.062 132.403 182.543 132.849C184.496 133.438 186.58 133.438 188.534 132.849C190.015 132.403 191.387 131.488 193.692 129.951L193.871 129.832L195.409 128.806C195.94 128.452 196.083 127.736 195.729 127.206C195.376 126.676 194.659 126.532 194.129 126.886L192.591 127.911C190.052 129.604 188.98 130.305 187.868 130.639C186.349 131.097 184.728 131.097 183.208 130.639C182.097 130.305 181.025 129.604 178.486 127.911L176.948 126.886Z" fill="black"/>
<rect x="240" y="104" width="259" height="12" rx="6" fill="#F3F3F3"/>
<rect x="240" y="152" width="245" height="12" rx="6" fill="#F3F3F3"/>
<rect x="240" y="128" width="269" height="12" rx="6" fill="#F3F3F3"/>
<path d="M585 106C586.375 106 587.5 104.875 587.5 103.5C587.5 102.125 586.375 101 585 101C583.625 101 582.5 102.125 582.5 103.5C582.5 104.875 583.625 106 585 106Z" fill="#F0EEEE"/>
<path d="M567.5 106C568.875 106 570 104.875 570 103.5C570 102.125 568.875 101 567.5 101C566.125 101 565 102.125 565 103.5C565 104.875 566.125 106 567.5 106Z" fill="#F0EEEE"/>
<path d="M576.25 106C577.625 106 578.75 104.875 578.75 103.5C578.75 102.125 577.625 101 576.25 101C574.875 101 573.75 102.125 573.75 103.5C573.75 104.875 574.875 106 576.25 106Z" fill="#F0EEEE"/>
<rect x="150" y="191" width="72" height="72" rx="14" fill="#F3F3F3"/>
<path fill-rule="evenodd" clip-rule="evenodd" d="M182.41 212H182.462H188.615H188.667C190.777 212 192.432 212 193.762 212.108C195.116 212.219 196.234 212.448 197.247 212.964C198.911 213.812 200.265 215.165 201.113 216.83C201.629 217.842 201.858 218.961 201.968 220.315C202.077 221.645 202.077 223.299 202.077 225.409V225.41V225.461V228.538V228.59V228.59C202.077 230.7 202.077 232.355 201.968 233.685C201.858 235.039 201.629 236.157 201.113 237.17C200.265 238.834 198.911 240.187 197.247 241.036C196.234 241.551 195.116 241.781 193.762 241.891C192.432 242 190.777 242 188.667 242H188.667H188.615H182.462H182.41H182.41H182.41C180.299 242 178.645 242 177.315 241.891C175.961 241.781 174.843 241.551 173.83 241.036C172.166 240.187 170.812 238.834 169.964 237.17C169.448 236.157 169.219 235.039 169.109 233.685C169 232.355 169 230.7 169 228.59V228.538V225.461V225.41C169 223.299 169 221.645 169.109 220.315C169.219 218.961 169.448 217.842 169.964 216.83C170.812 215.165 172.166 213.812 173.83 212.964C174.843 212.448 175.961 212.219 177.315 212.108C178.645 212 180.3 212 182.41 212ZM176.948 219.886C176.418 219.532 175.701 219.676 175.348 220.206C174.994 220.736 175.137 221.452 175.668 221.806L177.206 222.832L177.385 222.951C179.69 224.488 181.062 225.403 182.543 225.849C184.496 226.438 186.58 226.438 188.534 225.849C190.015 225.403 191.387 224.488 193.692 222.951L193.871 222.832L195.409 221.806C195.94 221.452 196.083 220.736 195.729 220.206C195.376 219.676 194.659 219.532 194.129 219.886L192.591 220.911C190.052 222.604 188.98 223.305 187.868 223.639C186.349 224.097 184.728 224.097 183.208 223.639C182.097 223.305 181.025 222.604 178.486 220.911L176.948 219.886Z" fill="black"/>
<rect x="240" y="197" width="259" height="12" rx="6" fill="#F3F3F3"/>
<rect x="240" y="245" width="245" height="12" rx="6" fill="#F3F3F3"/>
<rect x="240" y="221" width="269" height="12" rx="6" fill="#F3F3F3"/>
<path d="M585 199C586.375 199 587.5 197.875 587.5 196.5C587.5 195.125 586.375 194 585 194C583.625 194 582.5 195.125 582.5 196.5C582.5 197.875 583.625 199 585 199Z" fill="#F0EEEE"/>
<path d="M567.5 199C568.875 199 570 197.875 570 196.5C570 195.125 568.875 194 567.5 194C566.125 194 565 195.125 565 196.5C565 197.875 566.125 199 567.5 199Z" fill="#F0EEEE"/>
<path d="M576.25 199C577.625 199 578.75 197.875 578.75 196.5C578.75 195.125 577.625 194 576.25 194C574.875 194 573.75 195.125 573.75 196.5C573.75 197.875 574.875 199 576.25 199Z" fill="#F0EEEE"/>
<rect x="150" y="284" width="72" height="72" rx="14" fill="#F3F3F3"/>
<path fill-rule="evenodd" clip-rule="evenodd" d="M182.41 305H182.462H188.615H188.667C190.777 305 192.432 305 193.762 305.108C195.116 305.219 196.234 305.448 197.247 305.964C198.911 306.812 200.265 308.165 201.113 309.83C201.629 310.842 201.858 311.961 201.968 313.315C202.077 314.645 202.077 316.299 202.077 318.409V318.41V318.461V321.538V321.59V321.59C202.077 323.7 202.077 325.355 201.968 326.685C201.858 328.039 201.629 329.157 201.113 330.17C200.265 331.834 198.911 333.187 197.247 334.036C196.234 334.551 195.116 334.781 193.762 334.891C192.432 335 190.777 335 188.667 335H188.667H188.615H182.462H182.41H182.41H182.41C180.299 335 178.645 335 177.315 334.891C175.961 334.781 174.843 334.551 173.83 334.036C172.166 333.187 170.812 331.834 169.964 330.17C169.448 329.157 169.219 328.039 169.109 326.685C169 325.355 169 323.7 169 321.59V321.538V318.461V318.41C169 316.299 169 314.645 169.109 313.315C169.219 311.961 169.448 310.842 169.964 309.83C170.812 308.165 172.166 306.812 173.83 305.964C174.843 305.448 175.961 305.219 177.315 305.108C178.645 305 180.3 305 182.41 305ZM176.948 312.886C176.418 312.532 175.701 312.676 175.348 313.206C174.994 313.736 175.137 314.452 175.668 314.806L177.206 315.832L177.385 315.951C179.69 317.488 181.062 318.403 182.543 318.849C184.496 319.438 186.58 319.438 188.534 318.849C190.015 318.403 191.387 317.488 193.692 315.951L193.871 315.832L195.409 314.806C195.94 314.452 196.083 313.736 195.729 313.206C195.376 312.676 194.659 312.532 194.129 312.886L192.591 313.911C190.052 315.604 188.98 316.305 187.868 316.639C186.349 317.097 184.728 317.097 183.208 316.639C182.097 316.305 181.025 315.604 178.486 313.911L176.948 312.886Z" fill="#DADADA"/>
<rect x="240" y="290" width="259" height="12" rx="6" fill="#F3F3F3"/>
<rect x="240" y="314" width="269" height="12" rx="6" fill="#F3F3F3"/>
<path d="M585 298C586.375 298 587.5 296.875 587.5 295.5C587.5 294.125 586.375 293 585 293C583.625 293 582.5 294.125 582.5 295.5C582.5 296.875 583.625 298 585 298Z" fill="#F0EEEE"/>
<path d="M567.5 298C568.875 298 570 296.875 570 295.5C570 294.125 568.875 293 567.5 293C566.125 293 565 294.125 565 295.5C565 296.875 566.125 298 567.5 298Z" fill="#F0EEEE"/>
<path d="M576.25 298C577.625 298 578.75 296.875 578.75 295.5C578.75 294.125 577.625 293 576.25 293C574.875 293 573.75 294.125 573.75 295.5C573.75 296.875 574.875 298 576.25 298Z" fill="#F0EEEE"/>
<rect x="128.5" y="36.5" width="479" height="456" rx="19.5" fill="white" stroke="black"/>
<path d="M128 43C128 38.5817 131.582 35 136 35H600C604.418 35 608 38.5817 608 43V79H128V43Z" fill="black"/>
<circle cx="154" cy="57" r="4" fill="#FF0606"/>
<circle cx="168" cy="57" r="4" fill="#30C1FF"/>
<circle cx="182" cy="57" r="4" fill="#A3DC2F"/>
<rect x="150" y="97.9998" width="72" height="72" rx="14" fill="#F3F3F3"/>
<path fill-rule="evenodd" clip-rule="evenodd" d="M182.41 119H182.462H188.615H188.667C190.777 119 192.432 119 193.762 119.108C195.116 119.219 196.234 119.448 197.247 119.964C198.911 120.812 200.265 122.165 201.113 123.83C201.629 124.842 201.858 125.961 201.968 127.315C202.077 128.645 202.077 130.299 202.077 132.409V132.41V132.461V135.538V135.59V135.59C202.077 137.7 202.077 139.355 201.968 140.685C201.858 142.039 201.629 143.157 201.113 144.17C200.265 145.834 198.911 147.187 197.247 148.036C196.234 148.551 195.116 148.781 193.762 148.891C192.432 149 190.777 149 188.667 149H188.667H188.615H182.462H182.41H182.41H182.41C180.299 149 178.645 149 177.315 148.891C175.961 148.781 174.843 148.551 173.83 148.036C172.166 147.187 170.812 145.834 169.964 144.17C169.448 143.157 169.219 142.039 169.109 140.685C169 139.355 169 137.7 169 135.59V135.538V132.461V132.41C169 130.299 169 128.645 169.109 127.315C169.219 125.961 169.448 124.842 169.964 123.83C170.812 122.165 172.166 120.812 173.83 119.964C174.843 119.448 175.961 119.219 177.315 119.108C178.645 119 180.3 119 182.41 119ZM176.948 126.886C176.418 126.532 175.701 126.676 175.348 127.206C174.994 127.736 175.137 128.452 175.668 128.806L177.206 129.832L177.385 129.951C179.69 131.488 181.062 132.403 182.543 132.849C184.496 133.438 186.58 133.438 188.534 132.849C190.015 132.403 191.387 131.488 193.692 129.951L193.871 129.832L195.409 128.806C195.94 128.452 196.083 127.736 195.729 127.206C195.376 126.676 194.659 126.532 194.129 126.886L192.591 127.911C190.052 129.604 188.98 130.305 187.868 130.639C186.349 131.097 184.728 131.097 183.208 130.639C182.097 130.305 181.025 129.604 178.486 127.911L176.948 126.886Z" fill="#0C0E0F"/>
<rect x="240" y="104" width="259" height="12" rx="6" fill="#F3F3F3"/>
<rect x="240" y="152" width="245" height="12" rx="6" fill="#F3F3F3"/>
<rect x="240" y="128" width="269" height="12" rx="6" fill="#F3F3F3"/>
<path d="M585 106C586.375 106 587.5 104.875 587.5 103.5C587.5 102.125 586.375 101 585 101C583.625 101 582.5 102.125 582.5 103.5C582.5 104.875 583.625 106 585 106Z" fill="#F0EEEE"/>
<path d="M567.5 106C568.875 106 570 104.875 570 103.5C570 102.125 568.875 101 567.5 101C566.125 101 565 102.125 565 103.5C565 104.875 566.125 106 567.5 106Z" fill="#F0EEEE"/>
<path d="M576.25 106C577.625 106 578.75 104.875 578.75 103.5C578.75 102.125 577.625 101 576.25 101C574.875 101 573.75 102.125 573.75 103.5C573.75 104.875 574.875 106 576.25 106Z" fill="#F0EEEE"/>
<rect x="150" y="191" width="72" height="72" rx="14" fill="#F3F3F3"/>
<path fill-rule="evenodd" clip-rule="evenodd" d="M182.41 212H182.462H188.615H188.667C190.777 212 192.432 212 193.762 212.108C195.116 212.219 196.234 212.448 197.247 212.964C198.911 213.812 200.265 215.165 201.113 216.83C201.629 217.842 201.858 218.961 201.968 220.315C202.077 221.645 202.077 223.299 202.077 225.409V225.41V225.461V228.538V228.59V228.59C202.077 230.7 202.077 232.355 201.968 233.685C201.858 235.039 201.629 236.157 201.113 237.17C200.265 238.834 198.911 240.187 197.247 241.036C196.234 241.551 195.116 241.781 193.762 241.891C192.432 242 190.777 242 188.667 242H188.667H188.615H182.462H182.41H182.41H182.41C180.299 242 178.645 242 177.315 241.891C175.961 241.781 174.843 241.551 173.83 241.036C172.166 240.187 170.812 238.834 169.964 237.17C169.448 236.157 169.219 235.039 169.109 233.685C169 232.355 169 230.7 169 228.59V228.538V225.461V225.41C169 223.299 169 221.645 169.109 220.315C169.219 218.961 169.448 217.842 169.964 216.83C170.812 215.165 172.166 213.812 173.83 212.964C174.843 212.448 175.961 212.219 177.315 212.108C178.645 212 180.3 212 182.41 212ZM176.948 219.886C176.418 219.532 175.701 219.676 175.348 220.206C174.994 220.736 175.137 221.452 175.668 221.806L177.206 222.832L177.385 222.951C179.69 224.488 181.062 225.403 182.543 225.849C184.496 226.438 186.58 226.438 188.534 225.849C190.015 225.403 191.387 224.488 193.692 222.951L193.871 222.832L195.409 221.806C195.94 221.452 196.083 220.736 195.729 220.206C195.376 219.676 194.659 219.532 194.129 219.886L192.591 220.911C190.052 222.604 188.98 223.305 187.868 223.639C186.349 224.097 184.728 224.097 183.208 223.639C182.097 223.305 181.025 222.604 178.486 220.911L176.948 219.886Z" fill="#0C0E0F"/>
<rect x="240" y="197" width="259" height="12" rx="6" fill="#F3F3F3"/>
<rect x="240" y="245" width="245" height="12" rx="6" fill="#F3F3F3"/>
<rect x="240" y="221" width="269" height="12" rx="6" fill="#F3F3F3"/>
<path d="M585 199C586.375 199 587.5 197.875 587.5 196.5C587.5 195.125 586.375 194 585 194C583.625 194 582.5 195.125 582.5 196.5C582.5 197.875 583.625 199 585 199Z" fill="#F0EEEE"/>
<path d="M567.5 199C568.875 199 570 197.875 570 196.5C570 195.125 568.875 194 567.5 194C566.125 194 565 195.125 565 196.5C565 197.875 566.125 199 567.5 199Z" fill="#F0EEEE"/>
<path d="M576.25 199C577.625 199 578.75 197.875 578.75 196.5C578.75 195.125 577.625 194 576.25 194C574.875 194 573.75 195.125 573.75 196.5C573.75 197.875 574.875 199 576.25 199Z" fill="#F0EEEE"/>
<rect x="150" y="284" width="72" height="72" rx="14" fill="#F3F3F3"/>
<path fill-rule="evenodd" clip-rule="evenodd" d="M182.41 305H182.462H188.615H188.667C190.777 305 192.432 305 193.762 305.108C195.116 305.219 196.234 305.448 197.247 305.964C198.911 306.812 200.265 308.165 201.113 309.83C201.629 310.842 201.858 311.961 201.968 313.315C202.077 314.645 202.077 316.299 202.077 318.409V318.41V318.461V321.538V321.59V321.59C202.077 323.7 202.077 325.355 201.968 326.685C201.858 328.039 201.629 329.157 201.113 330.17C200.265 331.834 198.911 333.187 197.247 334.036C196.234 334.551 195.116 334.781 193.762 334.891C192.432 335 190.777 335 188.667 335H188.667H188.615H182.462H182.41H182.41H182.41C180.299 335 178.645 335 177.315 334.891C175.961 334.781 174.843 334.551 173.83 334.036C172.166 333.187 170.812 331.834 169.964 330.17C169.448 329.157 169.219 328.039 169.109 326.685C169 325.355 169 323.7 169 321.59V321.538V318.461V318.41C169 316.299 169 314.645 169.109 313.315C169.219 311.961 169.448 310.842 169.964 309.83C170.812 308.165 172.166 306.812 173.83 305.964C174.843 305.448 175.961 305.219 177.315 305.108C178.645 305 180.3 305 182.41 305ZM176.948 312.886C176.418 312.532 175.701 312.676 175.348 313.206C174.994 313.736 175.137 314.452 175.668 314.806L177.206 315.832L177.385 315.951C179.69 317.488 181.062 318.403 182.543 318.849C184.496 319.438 186.58 319.438 188.534 318.849C190.015 318.403 191.387 317.488 193.692 315.951L193.871 315.832L195.409 314.806C195.94 314.452 196.083 313.736 195.729 313.206C195.376 312.676 194.659 312.532 194.129 312.886L192.591 313.911C190.052 315.604 188.98 316.305 187.868 316.639C186.349 317.097 184.728 317.097 183.208 316.639C182.097 316.305 181.025 315.604 178.486 313.911L176.948 312.886Z" fill="#0C0E0F"/>
<rect x="240" y="290" width="259" height="12" rx="6" fill="#F3F3F3"/>
<rect x="240" y="314" width="269" height="12" rx="6" fill="#F3F3F3"/>
<path d="M585 298C586.375 298 587.5 296.875 587.5 295.5C587.5 294.125 586.375 293 585 293C583.625 293 582.5 294.125 582.5 295.5C582.5 296.875 583.625 298 585 298Z" fill="#F0EEEE"/>
<path d="M567.5 298C568.875 298 570 296.875 570 295.5C570 294.125 568.875 293 567.5 293C566.125 293 565 294.125 565 295.5C565 296.875 566.125 298 567.5 298Z" fill="#F0EEEE"/>
<path d="M576.25 298C577.625 298 578.75 296.875 578.75 295.5C578.75 294.125 577.625 293 576.25 293C574.875 293 573.75 294.125 573.75 295.5C573.75 296.875 574.875 298 576.25 298Z" fill="#F0EEEE"/>
</g>
</g>
<defs>
<clipPath id="clip0_58_701">
<rect width="737" height="316" fill="white"/>
</clipPath>
<clipPath id="clip1_58_701">
<rect width="505" height="287" fill="white" transform="translate(116 30)"/>
</clipPath>
</defs>
</svg>
