<svg width="737" height="423" viewBox="0 0 737 423" fill="none" xmlns="http://www.w3.org/2000/svg">
<rect x="0.5" y="0.5" width="736" height="422" rx="7.5" stroke="black" stroke-opacity="0.5"/>
<path d="M38.7734 338V354H35.8516L28.8906 343.93H28.7734V354H25.3906V338H28.3594L35.2656 348.062H35.4063V338H38.7734ZM46.9277 354.234C45.7142 354.234 44.6647 353.977 43.7793 353.461C42.8991 352.94 42.2194 352.216 41.7402 351.289C41.2611 350.357 41.0215 349.276 41.0215 348.047C41.0215 346.807 41.2611 345.724 41.7402 344.797C42.2194 343.865 42.8991 343.141 43.7793 342.625C44.6647 342.104 45.7142 341.844 46.9277 341.844C48.1413 341.844 49.1882 342.104 50.0684 342.625C50.9538 343.141 51.6361 343.865 52.1152 344.797C52.5944 345.724 52.834 346.807 52.834 348.047C52.834 349.276 52.5944 350.357 52.1152 351.289C51.6361 352.216 50.9538 352.94 50.0684 353.461C49.1882 353.977 48.1413 354.234 46.9277 354.234ZM46.9434 351.656C47.4954 351.656 47.9564 351.5 48.3262 351.188C48.696 350.87 48.9746 350.437 49.1621 349.891C49.3548 349.344 49.4512 348.721 49.4512 348.023C49.4512 347.326 49.3548 346.703 49.1621 346.156C48.9746 345.609 48.696 345.177 48.3262 344.859C47.9564 344.542 47.4954 344.383 46.9434 344.383C46.3861 344.383 45.9173 344.542 45.5371 344.859C45.1621 345.177 44.8783 345.609 44.6855 346.156C44.498 346.703 44.4043 347.326 44.4043 348.023C44.4043 348.721 44.498 349.344 44.6855 349.891C44.8783 350.437 45.1621 350.87 45.5371 351.188C45.9173 351.5 46.3861 351.656 46.9434 351.656ZM68.832 342.602C68.7695 341.971 68.5013 341.482 68.0273 341.133C67.5534 340.784 66.9102 340.609 66.0977 340.609C65.5456 340.609 65.0794 340.687 64.6992 340.844C64.319 340.995 64.0273 341.206 63.8242 341.477C63.6263 341.747 63.5273 342.055 63.5273 342.398C63.5169 342.685 63.5768 342.935 63.707 343.148C63.8424 343.362 64.0273 343.547 64.2617 343.703C64.4961 343.854 64.7669 343.987 65.0742 344.102C65.3815 344.211 65.7096 344.305 66.0586 344.383L67.4961 344.727C68.194 344.883 68.8346 345.091 69.418 345.352C70.0013 345.612 70.5065 345.932 70.9336 346.312C71.3607 346.693 71.6914 347.141 71.9258 347.656C72.1654 348.172 72.2878 348.763 72.293 349.43C72.2878 350.409 72.0378 351.258 71.543 351.977C71.0534 352.69 70.3451 353.245 69.418 353.641C68.4961 354.031 67.3841 354.227 66.082 354.227C64.7904 354.227 63.6654 354.029 62.707 353.633C61.7539 353.237 61.0091 352.651 60.4727 351.875C59.9414 351.094 59.6628 350.128 59.6367 348.977H62.9102C62.9466 349.513 63.1003 349.961 63.3711 350.32C63.6471 350.674 64.0143 350.943 64.4727 351.125C64.9362 351.302 65.4596 351.391 66.043 351.391C66.6159 351.391 67.1133 351.307 67.5352 351.141C67.9622 350.974 68.293 350.742 68.5273 350.445C68.7617 350.148 68.8789 349.807 68.8789 349.422C68.8789 349.062 68.7721 348.76 68.5586 348.516C68.3503 348.271 68.043 348.062 67.6367 347.891C67.2357 347.719 66.7435 347.562 66.1602 347.422L64.418 346.984C63.069 346.656 62.0039 346.143 61.2227 345.445C60.4414 344.747 60.0534 343.807 60.0586 342.625C60.0534 341.656 60.3112 340.81 60.832 340.086C61.3581 339.362 62.0794 338.797 62.9961 338.391C63.9128 337.984 64.9544 337.781 66.1211 337.781C67.3086 337.781 68.3451 337.984 69.2305 338.391C70.1211 338.797 70.8138 339.362 71.3086 340.086C71.8034 340.81 72.0586 341.648 72.0742 342.602H68.832ZM79.9277 354.234C78.6986 354.234 77.6413 353.974 76.7559 353.453C75.8757 352.927 75.1986 352.198 74.7246 351.266C74.2559 350.333 74.0215 349.26 74.0215 348.047C74.0215 346.818 74.2585 345.74 74.7324 344.812C75.2116 343.88 75.8913 343.154 76.7715 342.633C77.6517 342.107 78.6986 341.844 79.9121 341.844C80.959 341.844 81.8757 342.034 82.6621 342.414C83.4486 342.794 84.071 343.328 84.5293 344.016C84.9876 344.703 85.2402 345.51 85.2871 346.438H82.1465C82.0579 345.839 81.8236 345.357 81.4434 344.992C81.0684 344.622 80.5762 344.437 79.9668 344.437C79.4512 344.437 79.0007 344.578 78.6152 344.859C78.235 345.135 77.9382 345.539 77.7246 346.07C77.5111 346.602 77.4043 347.245 77.4043 348C77.4043 348.766 77.5085 349.417 77.7168 349.953C77.9303 350.49 78.2298 350.898 78.6152 351.18C79.0007 351.461 79.4512 351.602 79.9668 351.602C80.347 351.602 80.6882 351.523 80.9902 351.367C81.2975 351.211 81.5501 350.984 81.748 350.687C81.9512 350.385 82.084 350.023 82.1465 349.602H85.2871C85.235 350.518 84.985 351.326 84.5371 352.023C84.0944 352.716 83.4824 353.258 82.7012 353.648C81.9199 354.039 80.9954 354.234 79.9277 354.234ZM87.418 354V342H90.6445V344.094H90.7695C90.9883 343.349 91.3555 342.786 91.8711 342.406C92.3867 342.021 92.9805 341.828 93.6523 341.828C93.819 341.828 93.9987 341.839 94.1914 341.859C94.3841 341.88 94.5534 341.909 94.6992 341.945V344.898C94.543 344.852 94.3268 344.81 94.0508 344.773C93.7747 344.737 93.5221 344.719 93.293 344.719C92.8034 344.719 92.3659 344.826 91.9805 345.039C91.6003 345.247 91.2982 345.539 91.0742 345.914C90.8555 346.289 90.7461 346.721 90.7461 347.211V354H87.418ZM96.4199 354V342H99.748V354H96.4199ZM98.0918 340.453C97.597 340.453 97.1725 340.289 96.8184 339.961C96.4694 339.628 96.2949 339.229 96.2949 338.766C96.2949 338.307 96.4694 337.914 96.8184 337.586C97.1725 337.253 97.597 337.086 98.0918 337.086C98.5866 337.086 99.0085 337.253 99.3574 337.586C99.7116 337.914 99.8887 338.307 99.8887 338.766C99.8887 339.229 99.7116 339.628 99.3574 339.961C99.0085 340.289 98.5866 340.453 98.0918 340.453ZM102.414 358.5V342H105.695V344.016H105.844C105.99 343.693 106.201 343.365 106.477 343.031C106.758 342.693 107.122 342.411 107.57 342.188C108.023 341.958 108.586 341.844 109.258 341.844C110.133 341.844 110.94 342.073 111.68 342.531C112.419 342.984 113.01 343.669 113.453 344.586C113.896 345.497 114.117 346.641 114.117 348.016C114.117 349.354 113.901 350.484 113.469 351.406C113.042 352.323 112.458 353.018 111.719 353.492C110.984 353.961 110.161 354.195 109.25 354.195C108.604 354.195 108.055 354.089 107.602 353.875C107.154 353.661 106.786 353.393 106.5 353.07C106.214 352.742 105.995 352.411 105.844 352.078H105.742V358.5H102.414ZM105.672 348C105.672 348.714 105.771 349.336 105.969 349.867C106.167 350.398 106.453 350.812 106.828 351.109C107.203 351.401 107.659 351.547 108.195 351.547C108.737 351.547 109.195 351.398 109.57 351.102C109.945 350.799 110.229 350.383 110.422 349.852C110.62 349.315 110.719 348.698 110.719 348C110.719 347.307 110.622 346.698 110.43 346.172C110.237 345.646 109.953 345.234 109.578 344.937C109.203 344.641 108.742 344.492 108.195 344.492C107.654 344.492 107.195 344.635 106.82 344.922C106.451 345.208 106.167 345.615 105.969 346.141C105.771 346.667 105.672 347.286 105.672 348ZM122.719 342V344.5H115.492V342H122.719ZM117.133 339.125H120.461V350.312C120.461 350.62 120.508 350.859 120.602 351.031C120.695 351.198 120.826 351.315 120.992 351.383C121.164 351.451 121.362 351.484 121.586 351.484C121.742 351.484 121.898 351.471 122.055 351.445C122.211 351.414 122.331 351.391 122.414 351.375L122.938 353.852C122.771 353.904 122.536 353.964 122.234 354.031C121.932 354.104 121.565 354.148 121.133 354.164C120.331 354.195 119.628 354.089 119.023 353.844C118.424 353.599 117.958 353.219 117.625 352.703C117.292 352.187 117.128 351.536 117.133 350.75V339.125ZM134.721 345.422L131.674 345.609C131.622 345.349 131.51 345.115 131.338 344.906C131.166 344.693 130.939 344.523 130.658 344.398C130.382 344.268 130.051 344.203 129.666 344.203C129.15 344.203 128.715 344.312 128.361 344.531C128.007 344.745 127.83 345.031 127.83 345.391C127.83 345.677 127.945 345.919 128.174 346.117C128.403 346.315 128.796 346.474 129.354 346.594L131.525 347.031C132.692 347.271 133.562 347.656 134.135 348.187C134.708 348.719 134.994 349.417 134.994 350.281C134.994 351.068 134.762 351.758 134.299 352.352C133.84 352.945 133.21 353.409 132.408 353.742C131.611 354.07 130.692 354.234 129.65 354.234C128.062 354.234 126.796 353.904 125.854 353.242C124.916 352.576 124.367 351.669 124.205 350.523L127.479 350.352C127.577 350.836 127.817 351.206 128.197 351.461C128.577 351.711 129.064 351.836 129.658 351.836C130.242 351.836 130.71 351.724 131.064 351.5C131.424 351.271 131.606 350.977 131.611 350.617C131.606 350.315 131.479 350.068 131.229 349.875C130.979 349.677 130.593 349.526 130.072 349.422L127.994 349.008C126.822 348.773 125.95 348.367 125.377 347.789C124.809 347.211 124.525 346.474 124.525 345.578C124.525 344.807 124.734 344.143 125.15 343.586C125.572 343.029 126.163 342.599 126.924 342.297C127.689 341.995 128.585 341.844 129.611 341.844C131.127 341.844 132.32 342.164 133.189 342.805C134.064 343.445 134.575 344.318 134.721 345.422ZM147.604 354.234C146.39 354.234 145.34 353.977 144.455 353.461C143.575 352.94 142.895 352.216 142.416 351.289C141.937 350.357 141.697 349.276 141.697 348.047C141.697 346.807 141.937 345.724 142.416 344.797C142.895 343.865 143.575 343.141 144.455 342.625C145.34 342.104 146.39 341.844 147.604 341.844C148.817 341.844 149.864 342.104 150.744 342.625C151.63 343.141 152.312 343.865 152.791 344.797C153.27 345.724 153.51 346.807 153.51 348.047C153.51 349.276 153.27 350.357 152.791 351.289C152.312 352.216 151.63 352.94 150.744 353.461C149.864 353.977 148.817 354.234 147.604 354.234ZM147.619 351.656C148.171 351.656 148.632 351.5 149.002 351.188C149.372 350.87 149.65 350.437 149.838 349.891C150.031 349.344 150.127 348.721 150.127 348.023C150.127 347.326 150.031 346.703 149.838 346.156C149.65 345.609 149.372 345.177 149.002 344.859C148.632 344.542 148.171 344.383 147.619 344.383C147.062 344.383 146.593 344.542 146.213 344.859C145.838 345.177 145.554 345.609 145.361 346.156C145.174 346.703 145.08 347.326 145.08 348.023C145.08 348.721 145.174 349.344 145.361 349.891C145.554 350.437 145.838 350.87 146.213 351.188C146.593 351.5 147.062 351.656 147.619 351.656ZM155.674 354V342H158.9V344.094H159.025C159.244 343.349 159.611 342.786 160.127 342.406C160.643 342.021 161.236 341.828 161.908 341.828C162.075 341.828 162.255 341.839 162.447 341.859C162.64 341.88 162.809 341.909 162.955 341.945V344.898C162.799 344.852 162.583 344.81 162.307 344.773C162.031 344.737 161.778 344.719 161.549 344.719C161.059 344.719 160.622 344.826 160.236 345.039C159.856 345.247 159.554 345.539 159.33 345.914C159.111 346.289 159.002 346.721 159.002 347.211V354H155.674ZM169.83 354V338H173.213V344.602H180.08V338H183.455V354H180.08V347.391H173.213V354H169.83ZM191.65 354.234C190.416 354.234 189.354 353.984 188.463 353.484C187.577 352.979 186.895 352.266 186.416 351.344C185.937 350.417 185.697 349.32 185.697 348.055C185.697 346.82 185.937 345.737 186.416 344.805C186.895 343.872 187.57 343.146 188.439 342.625C189.314 342.104 190.34 341.844 191.518 341.844C192.309 341.844 193.046 341.971 193.729 342.227C194.416 342.477 195.015 342.854 195.525 343.359C196.041 343.865 196.442 344.5 196.729 345.266C197.015 346.026 197.158 346.917 197.158 347.937V348.852H187.025V346.789H194.025C194.025 346.31 193.921 345.885 193.713 345.516C193.505 345.146 193.215 344.857 192.846 344.648C192.481 344.435 192.057 344.328 191.572 344.328C191.067 344.328 190.619 344.445 190.229 344.68C189.843 344.909 189.541 345.219 189.322 345.609C189.104 345.995 188.992 346.424 188.986 346.898V348.859C188.986 349.453 189.096 349.966 189.314 350.398C189.538 350.831 189.854 351.164 190.26 351.398C190.666 351.633 191.148 351.75 191.705 351.75C192.075 351.75 192.413 351.698 192.721 351.594C193.028 351.49 193.291 351.333 193.51 351.125C193.729 350.917 193.895 350.661 194.01 350.359L197.088 350.562C196.932 351.302 196.611 351.948 196.127 352.5C195.648 353.047 195.028 353.474 194.268 353.781C193.512 354.083 192.64 354.234 191.65 354.234ZM201.896 342L204.1 346.195L206.357 342H209.771L206.295 348L209.865 354H206.467L204.1 349.852L201.771 354H198.334L201.896 348L198.459 342H201.896ZM215.74 354.195C214.829 354.195 214.003 353.961 213.264 353.492C212.529 353.018 211.946 352.323 211.514 351.406C211.087 350.484 210.873 349.354 210.873 348.016C210.873 346.641 211.094 345.497 211.537 344.586C211.98 343.669 212.568 342.984 213.303 342.531C214.042 342.073 214.852 341.844 215.732 341.844C216.404 341.844 216.964 341.958 217.412 342.188C217.865 342.411 218.23 342.693 218.506 343.031C218.787 343.365 219.001 343.693 219.146 344.016H219.248V338H222.568V354H219.287V352.078H219.146C218.99 352.411 218.769 352.742 218.482 353.07C218.201 353.393 217.834 353.661 217.381 353.875C216.933 354.089 216.386 354.195 215.74 354.195ZM216.795 351.547C217.331 351.547 217.785 351.401 218.154 351.109C218.529 350.812 218.816 350.398 219.014 349.867C219.217 349.336 219.318 348.714 219.318 348C219.318 347.286 219.219 346.667 219.021 346.141C218.824 345.615 218.537 345.208 218.162 344.922C217.787 344.635 217.331 344.492 216.795 344.492C216.248 344.492 215.787 344.641 215.412 344.937C215.037 345.234 214.753 345.646 214.561 346.172C214.368 346.698 214.271 347.307 214.271 348C214.271 348.698 214.368 349.315 214.561 349.852C214.758 350.383 215.042 350.799 215.412 351.102C215.787 351.398 216.248 351.547 216.795 351.547ZM228.727 354.227C227.961 354.227 227.279 354.094 226.68 353.828C226.081 353.557 225.607 353.159 225.258 352.633C224.914 352.102 224.742 351.44 224.742 350.648C224.742 349.982 224.865 349.422 225.109 348.969C225.354 348.516 225.688 348.151 226.109 347.875C226.531 347.599 227.01 347.391 227.547 347.25C228.089 347.109 228.656 347.01 229.25 346.953C229.948 346.88 230.51 346.812 230.938 346.75C231.365 346.682 231.674 346.583 231.867 346.453C232.06 346.323 232.156 346.13 232.156 345.875V345.828C232.156 345.333 232 344.951 231.687 344.68C231.38 344.409 230.943 344.273 230.375 344.273C229.776 344.273 229.299 344.406 228.945 344.672C228.591 344.932 228.357 345.26 228.242 345.656L225.164 345.406C225.32 344.677 225.628 344.047 226.086 343.516C226.544 342.979 227.135 342.568 227.859 342.281C228.589 341.99 229.432 341.844 230.391 341.844C231.057 341.844 231.695 341.922 232.305 342.078C232.919 342.234 233.464 342.477 233.938 342.805C234.417 343.133 234.794 343.555 235.07 344.07C235.346 344.581 235.484 345.193 235.484 345.906V354H232.328V352.336H232.234C232.042 352.711 231.784 353.042 231.461 353.328C231.138 353.609 230.75 353.831 230.297 353.992C229.844 354.148 229.32 354.227 228.727 354.227ZM229.68 351.93C230.169 351.93 230.602 351.833 230.977 351.641C231.352 351.443 231.646 351.177 231.859 350.844C232.073 350.51 232.18 350.133 232.18 349.711V348.438C232.076 348.505 231.932 348.568 231.75 348.625C231.573 348.677 231.372 348.727 231.148 348.773C230.924 348.815 230.701 348.854 230.477 348.891C230.253 348.922 230.049 348.951 229.867 348.977C229.477 349.034 229.135 349.125 228.844 349.25C228.552 349.375 228.326 349.544 228.164 349.758C228.003 349.966 227.922 350.227 227.922 350.539C227.922 350.992 228.086 351.339 228.414 351.578C228.747 351.812 229.169 351.93 229.68 351.93ZM244.449 342V344.5H237.223V342H244.449ZM238.863 339.125H242.191V350.312C242.191 350.62 242.238 350.859 242.332 351.031C242.426 351.198 242.556 351.315 242.723 351.383C242.895 351.451 243.092 351.484 243.316 351.484C243.473 351.484 243.629 351.471 243.785 351.445C243.941 351.414 244.061 351.391 244.145 351.375L244.668 353.852C244.501 353.904 244.267 353.964 243.965 354.031C243.663 354.104 243.296 354.148 242.863 354.164C242.061 354.195 241.358 354.089 240.754 353.844C240.155 353.599 239.689 353.219 239.355 352.703C239.022 352.187 238.858 351.536 238.863 350.75V339.125ZM250.039 354.227C249.273 354.227 248.591 354.094 247.992 353.828C247.393 353.557 246.919 353.159 246.57 352.633C246.227 352.102 246.055 351.44 246.055 350.648C246.055 349.982 246.177 349.422 246.422 348.969C246.667 348.516 247 348.151 247.422 347.875C247.844 347.599 248.323 347.391 248.859 347.25C249.401 347.109 249.969 347.01 250.563 346.953C251.26 346.88 251.823 346.812 252.25 346.75C252.677 346.682 252.987 346.583 253.18 346.453C253.372 346.323 253.469 346.13 253.469 345.875V345.828C253.469 345.333 253.313 344.951 253 344.68C252.693 344.409 252.255 344.273 251.687 344.273C251.089 344.273 250.612 344.406 250.258 344.672C249.904 344.932 249.669 345.26 249.555 345.656L246.477 345.406C246.633 344.677 246.94 344.047 247.398 343.516C247.857 342.979 248.448 342.568 249.172 342.281C249.901 341.99 250.745 341.844 251.703 341.844C252.37 341.844 253.008 341.922 253.617 342.078C254.232 342.234 254.776 342.477 255.25 342.805C255.729 343.133 256.107 343.555 256.383 344.07C256.659 344.581 256.797 345.193 256.797 345.906V354H253.641V352.336H253.547C253.354 352.711 253.096 353.042 252.773 353.328C252.451 353.609 252.062 353.831 251.609 353.992C251.156 354.148 250.633 354.227 250.039 354.227ZM250.992 351.93C251.482 351.93 251.914 351.833 252.289 351.641C252.664 351.443 252.958 351.177 253.172 350.844C253.385 350.51 253.492 350.133 253.492 349.711V348.438C253.388 348.505 253.245 348.568 253.063 348.625C252.885 348.677 252.685 348.727 252.461 348.773C252.237 348.815 252.013 348.854 251.789 348.891C251.565 348.922 251.362 348.951 251.18 348.977C250.789 349.034 250.448 349.125 250.156 349.25C249.865 349.375 249.638 349.544 249.477 349.758C249.315 349.966 249.234 350.227 249.234 350.539C249.234 350.992 249.398 351.339 249.727 351.578C250.06 351.812 250.482 351.93 250.992 351.93ZM278.65 343.602H275.229C275.166 343.159 275.038 342.766 274.846 342.422C274.653 342.073 274.406 341.776 274.104 341.531C273.801 341.286 273.452 341.099 273.057 340.969C272.666 340.839 272.242 340.773 271.783 340.773C270.955 340.773 270.234 340.979 269.619 341.391C269.005 341.797 268.528 342.391 268.189 343.172C267.851 343.948 267.682 344.891 267.682 346C267.682 347.141 267.851 348.099 268.189 348.875C268.533 349.651 269.012 350.237 269.627 350.633C270.242 351.029 270.952 351.227 271.76 351.227C272.213 351.227 272.632 351.167 273.018 351.047C273.408 350.927 273.755 350.753 274.057 350.523C274.359 350.289 274.609 350.005 274.807 349.672C275.01 349.339 275.15 348.958 275.229 348.531L278.65 348.547C278.562 349.281 278.34 349.99 277.986 350.672C277.637 351.349 277.166 351.956 276.572 352.492C275.984 353.023 275.281 353.445 274.463 353.758C273.65 354.065 272.731 354.219 271.705 354.219C270.278 354.219 269.002 353.896 267.877 353.25C266.757 352.604 265.872 351.669 265.221 350.445C264.575 349.221 264.252 347.74 264.252 346C264.252 344.255 264.58 342.771 265.236 341.547C265.893 340.323 266.783 339.391 267.908 338.75C269.033 338.104 270.299 337.781 271.705 337.781C272.632 337.781 273.492 337.911 274.283 338.172C275.08 338.432 275.786 338.812 276.4 339.312C277.015 339.807 277.515 340.414 277.9 341.133C278.291 341.852 278.541 342.674 278.65 343.602ZM286.436 354.234C285.222 354.234 284.173 353.977 283.287 353.461C282.407 352.94 281.727 352.216 281.248 351.289C280.769 350.357 280.529 349.276 280.529 348.047C280.529 346.807 280.769 345.724 281.248 344.797C281.727 343.865 282.407 343.141 283.287 342.625C284.173 342.104 285.222 341.844 286.436 341.844C287.649 341.844 288.696 342.104 289.576 342.625C290.462 343.141 291.144 343.865 291.623 344.797C292.102 345.724 292.342 346.807 292.342 348.047C292.342 349.276 292.102 350.357 291.623 351.289C291.144 352.216 290.462 352.94 289.576 353.461C288.696 353.977 287.649 354.234 286.436 354.234ZM286.451 351.656C287.003 351.656 287.464 351.5 287.834 351.188C288.204 350.87 288.482 350.437 288.67 349.891C288.863 349.344 288.959 348.721 288.959 348.023C288.959 347.326 288.863 346.703 288.67 346.156C288.482 345.609 288.204 345.177 287.834 344.859C287.464 344.542 287.003 344.383 286.451 344.383C285.894 344.383 285.425 344.542 285.045 344.859C284.67 345.177 284.386 345.609 284.193 346.156C284.006 346.703 283.912 347.326 283.912 348.023C283.912 348.721 284.006 349.344 284.193 349.891C284.386 350.437 284.67 350.87 285.045 351.188C285.425 351.5 285.894 351.656 286.451 351.656ZM297.834 347.063V354H294.506V342H297.678V344.117H297.818C298.084 343.419 298.529 342.867 299.154 342.461C299.779 342.049 300.537 341.844 301.428 341.844C302.261 341.844 302.988 342.026 303.607 342.391C304.227 342.755 304.709 343.276 305.053 343.953C305.396 344.625 305.568 345.427 305.568 346.359V354H302.24V346.953C302.245 346.219 302.058 345.646 301.678 345.234C301.298 344.818 300.774 344.609 300.107 344.609C299.66 344.609 299.264 344.706 298.92 344.898C298.581 345.091 298.316 345.372 298.123 345.742C297.936 346.107 297.839 346.547 297.834 347.063ZM318.949 342L314.754 354H311.004L306.809 342H310.324L312.816 350.586H312.941L315.426 342H318.949ZM325.734 354.234C324.5 354.234 323.438 353.984 322.547 353.484C321.661 352.979 320.979 352.266 320.5 351.344C320.021 350.417 319.781 349.32 319.781 348.055C319.781 346.82 320.021 345.737 320.5 344.805C320.979 343.872 321.654 343.146 322.523 342.625C323.398 342.104 324.424 341.844 325.602 341.844C326.393 341.844 327.13 341.971 327.813 342.227C328.5 342.477 329.099 342.854 329.609 343.359C330.125 343.865 330.526 344.5 330.813 345.266C331.099 346.026 331.242 346.917 331.242 347.937V348.852H321.109V346.789H328.109C328.109 346.31 328.005 345.885 327.797 345.516C327.589 345.146 327.299 344.857 326.93 344.648C326.565 344.435 326.141 344.328 325.656 344.328C325.151 344.328 324.703 344.445 324.313 344.68C323.927 344.909 323.625 345.219 323.406 345.609C323.188 345.995 323.076 346.424 323.07 346.898V348.859C323.07 349.453 323.18 349.966 323.398 350.398C323.622 350.831 323.938 351.164 324.344 351.398C324.75 351.633 325.232 351.75 325.789 351.75C326.159 351.75 326.497 351.698 326.805 351.594C327.112 351.49 327.375 351.333 327.594 351.125C327.813 350.917 327.979 350.661 328.094 350.359L331.172 350.562C331.016 351.302 330.695 351.948 330.211 352.5C329.732 353.047 329.112 353.474 328.352 353.781C327.596 354.083 326.724 354.234 325.734 354.234ZM333.414 354V342H336.641V344.094H336.766C336.984 343.349 337.352 342.786 337.867 342.406C338.383 342.021 338.977 341.828 339.648 341.828C339.815 341.828 339.995 341.839 340.188 341.859C340.38 341.88 340.549 341.909 340.695 341.945V344.898C340.539 344.852 340.323 344.81 340.047 344.773C339.771 344.737 339.518 344.719 339.289 344.719C338.799 344.719 338.362 344.826 337.977 345.039C337.596 345.247 337.294 345.539 337.07 345.914C336.852 346.289 336.742 346.721 336.742 347.211V354H333.414ZM352.4 345.422L349.354 345.609C349.301 345.349 349.189 345.115 349.018 344.906C348.846 344.693 348.619 344.523 348.338 344.398C348.062 344.268 347.731 344.203 347.346 344.203C346.83 344.203 346.395 344.312 346.041 344.531C345.687 344.745 345.51 345.031 345.51 345.391C345.51 345.677 345.624 345.919 345.854 346.117C346.083 346.315 346.476 346.474 347.033 346.594L349.205 347.031C350.372 347.271 351.242 347.656 351.814 348.187C352.387 348.719 352.674 349.417 352.674 350.281C352.674 351.068 352.442 351.758 351.979 352.352C351.52 352.945 350.89 353.409 350.088 353.742C349.291 354.07 348.372 354.234 347.33 354.234C345.742 354.234 344.476 353.904 343.533 353.242C342.596 352.576 342.046 351.669 341.885 350.523L345.158 350.352C345.257 350.836 345.497 351.206 345.877 351.461C346.257 351.711 346.744 351.836 347.338 351.836C347.921 351.836 348.39 351.724 348.744 351.5C349.104 351.271 349.286 350.977 349.291 350.617C349.286 350.315 349.158 350.068 348.908 349.875C348.658 349.677 348.273 349.526 347.752 349.422L345.674 349.008C344.502 348.773 343.63 348.367 343.057 347.789C342.489 347.211 342.205 346.474 342.205 345.578C342.205 344.807 342.413 344.143 342.83 343.586C343.252 343.029 343.843 342.599 344.604 342.297C345.369 341.995 346.265 341.844 347.291 341.844C348.807 341.844 349.999 342.164 350.869 342.805C351.744 343.445 352.255 344.318 352.4 345.422ZM354.77 354V342H358.098V354H354.77ZM356.441 340.453C355.947 340.453 355.522 340.289 355.168 339.961C354.819 339.628 354.645 339.229 354.645 338.766C354.645 338.307 354.819 337.914 355.168 337.586C355.522 337.253 355.947 337.086 356.441 337.086C356.936 337.086 357.358 337.253 357.707 337.586C358.061 337.914 358.238 338.307 358.238 338.766C358.238 339.229 358.061 339.628 357.707 339.961C357.358 340.289 356.936 340.453 356.441 340.453ZM366.186 354.234C364.972 354.234 363.923 353.977 363.037 353.461C362.157 352.94 361.477 352.216 360.998 351.289C360.519 350.357 360.279 349.276 360.279 348.047C360.279 346.807 360.519 345.724 360.998 344.797C361.477 343.865 362.157 343.141 363.037 342.625C363.923 342.104 364.972 341.844 366.186 341.844C367.399 341.844 368.446 342.104 369.326 342.625C370.212 343.141 370.894 343.865 371.373 344.797C371.852 345.724 372.092 346.807 372.092 348.047C372.092 349.276 371.852 350.357 371.373 351.289C370.894 352.216 370.212 352.94 369.326 353.461C368.446 353.977 367.399 354.234 366.186 354.234ZM366.201 351.656C366.753 351.656 367.214 351.5 367.584 351.188C367.954 350.87 368.232 350.437 368.42 349.891C368.613 349.344 368.709 348.721 368.709 348.023C368.709 347.326 368.613 346.703 368.42 346.156C368.232 345.609 367.954 345.177 367.584 344.859C367.214 344.542 366.753 344.383 366.201 344.383C365.644 344.383 365.175 344.542 364.795 344.859C364.42 345.177 364.136 345.609 363.943 346.156C363.756 346.703 363.662 347.326 363.662 348.023C363.662 348.721 363.756 349.344 363.943 349.891C364.136 350.437 364.42 350.87 364.795 351.188C365.175 351.5 365.644 351.656 366.201 351.656ZM377.584 347.063V354H374.256V342H377.428V344.117H377.568C377.834 343.419 378.279 342.867 378.904 342.461C379.529 342.049 380.287 341.844 381.178 341.844C382.011 341.844 382.738 342.026 383.357 342.391C383.977 342.755 384.459 343.276 384.803 343.953C385.146 344.625 385.318 345.427 385.318 346.359V354H381.99V346.953C381.995 346.219 381.808 345.646 381.428 345.234C381.048 344.818 380.524 344.609 379.857 344.609C379.41 344.609 379.014 344.706 378.67 344.898C378.331 345.091 378.066 345.372 377.873 345.742C377.686 346.107 377.589 346.547 377.584 347.063ZM397.926 345.422L394.879 345.609C394.827 345.349 394.715 345.115 394.543 344.906C394.371 344.693 394.145 344.523 393.863 344.398C393.587 344.268 393.257 344.203 392.871 344.203C392.355 344.203 391.921 344.312 391.566 344.531C391.212 344.745 391.035 345.031 391.035 345.391C391.035 345.677 391.15 345.919 391.379 346.117C391.608 346.315 392.001 346.474 392.559 346.594L394.73 347.031C395.897 347.271 396.767 347.656 397.34 348.187C397.913 348.719 398.199 349.417 398.199 350.281C398.199 351.068 397.967 351.758 397.504 352.352C397.046 352.945 396.415 353.409 395.613 353.742C394.816 354.07 393.897 354.234 392.855 354.234C391.267 354.234 390.001 353.904 389.059 353.242C388.121 352.576 387.572 351.669 387.41 350.523L390.684 350.352C390.783 350.836 391.022 351.206 391.402 351.461C391.783 351.711 392.27 351.836 392.863 351.836C393.447 351.836 393.915 351.724 394.27 351.5C394.629 351.271 394.811 350.977 394.816 350.617C394.811 350.315 394.684 350.068 394.434 349.875C394.184 349.677 393.798 349.526 393.277 349.422L391.199 349.008C390.027 348.773 389.155 348.367 388.582 347.789C388.014 347.211 387.73 346.474 387.73 345.578C387.73 344.807 387.939 344.143 388.355 343.586C388.777 343.029 389.368 342.599 390.129 342.297C390.895 341.995 391.79 341.844 392.816 341.844C394.332 341.844 395.525 342.164 396.395 342.805C397.27 343.445 397.78 344.318 397.926 345.422Z" fill="#0C0E0F"/>
<path d="M29.8636 379.364H31.2727V387.682C31.2727 388.424 31.1364 389.055 30.8636 389.574C30.5909 390.093 30.2064 390.487 29.7102 390.756C29.214 391.025 28.6288 391.159 27.9545 391.159C27.3182 391.159 26.7519 391.044 26.2557 390.812C25.7595 390.578 25.3693 390.244 25.0852 389.812C24.8011 389.381 24.6591 388.867 24.6591 388.273H26.0455C26.0455 388.602 26.1269 388.89 26.2898 389.136C26.4564 389.379 26.6837 389.568 26.9716 389.705C27.2595 389.841 27.5871 389.909 27.9545 389.909C28.3598 389.909 28.7045 389.824 28.9886 389.653C29.2727 389.483 29.4886 389.233 29.6364 388.903C29.7879 388.57 29.8636 388.163 29.8636 387.682V379.364ZM39.4148 387.432V382.273H40.7557V391H39.4148V389.523H39.3239C39.1193 389.966 38.8011 390.343 38.3693 390.653C37.9375 390.96 37.392 391.114 36.733 391.114C36.1875 391.114 35.7027 390.994 35.2784 390.756C34.8542 390.513 34.5208 390.15 34.2784 389.665C34.036 389.176 33.9148 388.561 33.9148 387.818V382.273H35.2557V387.727C35.2557 388.364 35.4337 388.871 35.7898 389.25C36.1496 389.629 36.608 389.818 37.1648 389.818C37.4981 389.818 37.8371 389.733 38.1818 389.562C38.5303 389.392 38.822 389.131 39.0568 388.778C39.2955 388.426 39.4148 387.977 39.4148 387.432ZM49.3935 384.227L48.1889 384.568C48.1132 384.367 48.0014 384.172 47.8537 383.983C47.7098 383.79 47.5128 383.631 47.2628 383.506C47.0128 383.381 46.6927 383.318 46.3026 383.318C45.7685 383.318 45.3234 383.441 44.9673 383.688C44.6151 383.93 44.4389 384.239 44.4389 384.614C44.4389 384.947 44.5601 385.21 44.8026 385.403C45.045 385.597 45.4238 385.758 45.9389 385.886L47.2344 386.205C48.0147 386.394 48.5961 386.684 48.9787 387.074C49.3613 387.46 49.5526 387.958 49.5526 388.568C49.5526 389.068 49.4086 389.515 49.1207 389.909C48.8366 390.303 48.4389 390.614 47.9276 390.841C47.4162 391.068 46.8215 391.182 46.1435 391.182C45.2533 391.182 44.5166 390.989 43.9332 390.602C43.3499 390.216 42.9806 389.652 42.8253 388.909L44.098 388.591C44.2192 389.061 44.4484 389.413 44.7855 389.648C45.1264 389.883 45.5715 390 46.1207 390C46.7457 390 47.242 389.867 47.6094 389.602C47.9806 389.333 48.1662 389.011 48.1662 388.636C48.1662 388.333 48.0601 388.08 47.848 387.875C47.6359 387.667 47.3101 387.511 46.8707 387.409L45.4162 387.068C44.617 386.879 44.0298 386.585 43.6548 386.188C43.2836 385.786 43.098 385.284 43.098 384.682C43.098 384.189 43.2363 383.754 43.5128 383.375C43.7931 382.996 44.1738 382.699 44.6548 382.483C45.1397 382.267 45.6889 382.159 46.3026 382.159C47.1662 382.159 47.8442 382.348 48.3366 382.727C48.8329 383.106 49.1851 383.606 49.3935 384.227ZM55.3665 382.273V383.409H50.8438V382.273H55.3665ZM52.1619 380.182H53.5028V388.5C53.5028 388.879 53.5578 389.163 53.6676 389.352C53.7813 389.538 53.9252 389.663 54.0994 389.727C54.2775 389.788 54.465 389.818 54.6619 389.818C54.8097 389.818 54.9309 389.811 55.0256 389.795C55.1203 389.777 55.196 389.761 55.2528 389.75L55.5256 390.955C55.4347 390.989 55.3078 391.023 55.1449 391.057C54.982 391.095 54.7756 391.114 54.5256 391.114C54.1468 391.114 53.7756 391.032 53.4119 390.869C53.0521 390.706 52.7528 390.458 52.5142 390.125C52.2794 389.792 52.1619 389.371 52.1619 388.864V380.182ZM65.429 391.182C64.6108 391.182 63.9063 390.989 63.3153 390.602C62.7244 390.216 62.2699 389.684 61.9517 389.006C61.6335 388.328 61.4744 387.553 61.4744 386.682C61.4744 385.795 61.6373 385.013 61.9631 384.335C62.2926 383.653 62.7509 383.121 63.3381 382.739C63.929 382.352 64.6184 382.159 65.4062 382.159C66.0199 382.159 66.5729 382.273 67.0653 382.5C67.5578 382.727 67.9612 383.045 68.2756 383.455C68.59 383.864 68.785 384.341 68.8608 384.886H67.5199C67.4176 384.489 67.1903 384.136 66.8381 383.83C66.4896 383.519 66.0199 383.364 65.429 383.364C64.9063 383.364 64.4479 383.5 64.054 383.773C63.6638 384.042 63.3589 384.422 63.1392 384.915C62.9233 385.403 62.8153 385.977 62.8153 386.636C62.8153 387.311 62.9214 387.898 63.1335 388.398C63.3494 388.898 63.6525 389.286 64.0426 389.562C64.4366 389.839 64.8987 389.977 65.429 389.977C65.7775 389.977 66.0938 389.917 66.3778 389.795C66.6619 389.674 66.9025 389.5 67.0994 389.273C67.2964 389.045 67.4366 388.773 67.5199 388.455H68.8608C68.785 388.97 68.5975 389.434 68.2983 389.847C68.0028 390.256 67.6108 390.581 67.1222 390.824C66.6373 391.062 66.0729 391.182 65.429 391.182ZM74.3665 391.182C73.5786 391.182 72.8873 390.994 72.2926 390.619C71.7017 390.244 71.2396 389.72 70.9062 389.045C70.5767 388.371 70.4119 387.583 70.4119 386.682C70.4119 385.773 70.5767 384.979 70.9062 384.301C71.2396 383.623 71.7017 383.097 72.2926 382.722C72.8873 382.347 73.5786 382.159 74.3665 382.159C75.1544 382.159 75.8438 382.347 76.4347 382.722C77.0294 383.097 77.4915 383.623 77.821 384.301C78.1544 384.979 78.321 385.773 78.321 386.682C78.321 387.583 78.1544 388.371 77.821 389.045C77.4915 389.72 77.0294 390.244 76.4347 390.619C75.8438 390.994 75.1544 391.182 74.3665 391.182ZM74.3665 389.977C74.965 389.977 75.4574 389.824 75.8438 389.517C76.2301 389.21 76.5161 388.807 76.7017 388.307C76.8873 387.807 76.9801 387.265 76.9801 386.682C76.9801 386.098 76.8873 385.555 76.7017 385.051C76.5161 384.547 76.2301 384.14 75.8438 383.83C75.4574 383.519 74.965 383.364 74.3665 383.364C73.768 383.364 73.2756 383.519 72.8892 383.83C72.5028 384.14 72.2169 384.547 72.0312 385.051C71.8456 385.555 71.7528 386.098 71.7528 386.682C71.7528 387.265 71.8456 387.807 72.0312 388.307C72.2169 388.807 72.5028 389.21 72.8892 389.517C73.2756 389.824 73.768 389.977 74.3665 389.977ZM81.7088 385.75V391H80.3679V382.273H81.6634V383.636H81.777C81.9815 383.193 82.2921 382.837 82.7088 382.568C83.1255 382.295 83.6634 382.159 84.3224 382.159C84.9134 382.159 85.4304 382.28 85.8736 382.523C86.3168 382.761 86.6615 383.125 86.9077 383.614C87.1539 384.098 87.277 384.712 87.277 385.455V391H85.9361V385.545C85.9361 384.86 85.758 384.326 85.402 383.943C85.0459 383.557 84.5573 383.364 83.9361 383.364C83.508 383.364 83.1255 383.456 82.7884 383.642C82.455 383.828 82.1918 384.098 81.9986 384.455C81.8054 384.811 81.7088 385.242 81.7088 385.75ZM91.0682 385.75V391H89.7273V382.273H91.0227V383.636H91.1364C91.3409 383.193 91.6515 382.837 92.0682 382.568C92.4848 382.295 93.0227 382.159 93.6818 382.159C94.2727 382.159 94.7898 382.28 95.233 382.523C95.6761 382.761 96.0208 383.125 96.267 383.614C96.5133 384.098 96.6364 384.712 96.6364 385.455V391H95.2955V385.545C95.2955 384.86 95.1174 384.326 94.7614 383.943C94.4053 383.557 93.9167 383.364 93.2955 383.364C92.8674 383.364 92.4848 383.456 92.1477 383.642C91.8144 383.828 91.5511 384.098 91.358 384.455C91.1648 384.811 91.0682 385.242 91.0682 385.75ZM102.746 391.182C101.905 391.182 101.179 390.996 100.57 390.625C99.9635 390.25 99.4957 389.727 99.1662 389.057C98.8404 388.383 98.6776 387.598 98.6776 386.705C98.6776 385.811 98.8404 385.023 99.1662 384.341C99.4957 383.655 99.9541 383.121 100.541 382.739C101.132 382.352 101.821 382.159 102.609 382.159C103.064 382.159 103.513 382.235 103.956 382.386C104.399 382.538 104.803 382.784 105.166 383.125C105.53 383.462 105.82 383.909 106.036 384.466C106.251 385.023 106.359 385.708 106.359 386.523V387.091H99.6321V385.932H104.996C104.996 385.439 104.897 385 104.7 384.614C104.507 384.227 104.231 383.922 103.871 383.699C103.515 383.475 103.094 383.364 102.609 383.364C102.075 383.364 101.613 383.496 101.223 383.761C100.837 384.023 100.539 384.364 100.331 384.784C100.123 385.205 100.018 385.655 100.018 386.136V386.909C100.018 387.568 100.132 388.127 100.359 388.585C100.59 389.04 100.911 389.386 101.32 389.625C101.729 389.86 102.204 389.977 102.746 389.977C103.098 389.977 103.416 389.928 103.7 389.83C103.988 389.727 104.236 389.576 104.445 389.375C104.653 389.17 104.814 388.917 104.928 388.614L106.223 388.977C106.087 389.417 105.857 389.803 105.536 390.136C105.214 390.466 104.816 390.723 104.342 390.909C103.869 391.091 103.337 391.182 102.746 391.182ZM111.945 391.182C111.126 391.182 110.422 390.989 109.831 390.602C109.24 390.216 108.786 389.684 108.467 389.006C108.149 388.328 107.99 387.553 107.99 386.682C107.99 385.795 108.153 385.013 108.479 384.335C108.808 383.653 109.267 383.121 109.854 382.739C110.445 382.352 111.134 382.159 111.922 382.159C112.536 382.159 113.089 382.273 113.581 382.5C114.073 382.727 114.477 383.045 114.791 383.455C115.106 383.864 115.301 384.341 115.376 384.886H114.036C113.933 384.489 113.706 384.136 113.354 383.83C113.005 383.519 112.536 383.364 111.945 383.364C111.422 383.364 110.964 383.5 110.57 383.773C110.179 384.042 109.875 384.422 109.655 384.915C109.439 385.403 109.331 385.977 109.331 386.636C109.331 387.311 109.437 387.898 109.649 388.398C109.865 388.898 110.168 389.286 110.558 389.562C110.952 389.839 111.414 389.977 111.945 389.977C112.293 389.977 112.609 389.917 112.893 389.795C113.178 389.674 113.418 389.5 113.615 389.273C113.812 389.045 113.952 388.773 114.036 388.455H115.376C115.301 388.97 115.113 389.434 114.814 389.847C114.518 390.256 114.126 390.581 113.638 390.824C113.153 391.062 112.589 391.182 111.945 391.182ZM121.132 382.273V383.409H116.609V382.273H121.132ZM117.928 380.182H119.268V388.5C119.268 388.879 119.323 389.163 119.433 389.352C119.547 389.538 119.691 389.663 119.865 389.727C120.043 389.788 120.231 389.818 120.428 389.818C120.575 389.818 120.696 389.811 120.791 389.795C120.886 389.777 120.962 389.761 121.018 389.75L121.291 390.955C121.2 390.989 121.073 391.023 120.911 391.057C120.748 391.095 120.541 391.114 120.291 391.114C119.912 391.114 119.541 391.032 119.178 390.869C118.818 390.706 118.518 390.458 118.28 390.125C118.045 389.792 117.928 389.371 117.928 388.864V380.182ZM130.217 391.205C129.664 391.205 129.162 391.1 128.712 390.892C128.261 390.68 127.903 390.375 127.638 389.977C127.373 389.576 127.24 389.091 127.24 388.523C127.24 388.023 127.339 387.617 127.536 387.307C127.732 386.992 127.996 386.746 128.325 386.568C128.655 386.39 129.018 386.258 129.416 386.17C129.818 386.08 130.221 386.008 130.626 385.955C131.157 385.886 131.587 385.835 131.916 385.801C132.25 385.763 132.492 385.701 132.643 385.614C132.799 385.527 132.876 385.375 132.876 385.159V385.114C132.876 384.553 132.723 384.117 132.416 383.807C132.113 383.496 131.653 383.341 131.036 383.341C130.395 383.341 129.893 383.481 129.53 383.761C129.166 384.042 128.911 384.341 128.763 384.659L127.49 384.205C127.717 383.674 128.02 383.261 128.399 382.966C128.782 382.667 129.198 382.458 129.649 382.341C130.104 382.22 130.551 382.159 130.99 382.159C131.27 382.159 131.592 382.193 131.956 382.261C132.323 382.326 132.678 382.46 133.018 382.665C133.363 382.869 133.649 383.178 133.876 383.591C134.104 384.004 134.217 384.557 134.217 385.25V391H132.876V389.818H132.808C132.717 390.008 132.566 390.21 132.354 390.426C132.142 390.642 131.859 390.826 131.507 390.977C131.155 391.129 130.725 391.205 130.217 391.205ZM130.422 390C130.952 390 131.399 389.896 131.763 389.688C132.13 389.479 132.407 389.21 132.592 388.881C132.782 388.551 132.876 388.205 132.876 387.841V386.614C132.82 386.682 132.695 386.744 132.501 386.801C132.312 386.854 132.092 386.902 131.842 386.943C131.596 386.981 131.356 387.015 131.121 387.045C130.89 387.072 130.702 387.095 130.558 387.114C130.21 387.159 129.884 387.233 129.581 387.335C129.282 387.434 129.039 387.583 128.854 387.784C128.672 387.981 128.581 388.25 128.581 388.591C128.581 389.057 128.753 389.409 129.098 389.648C129.446 389.883 129.888 390 130.422 390ZM138.006 385.75V391H136.665V382.273H137.96V383.636H138.074C138.278 383.193 138.589 382.837 139.006 382.568C139.422 382.295 139.96 382.159 140.619 382.159C141.21 382.159 141.727 382.28 142.17 382.523C142.614 382.761 142.958 383.125 143.205 383.614C143.451 384.098 143.574 384.712 143.574 385.455V391H142.233V385.545C142.233 384.86 142.055 384.326 141.699 383.943C141.343 383.557 140.854 383.364 140.233 383.364C139.805 383.364 139.422 383.456 139.085 383.642C138.752 383.828 138.489 384.098 138.295 384.455C138.102 384.811 138.006 385.242 138.006 385.75ZM149.32 391.182C148.592 391.182 147.95 390.998 147.393 390.631C146.837 390.259 146.401 389.737 146.087 389.062C145.772 388.384 145.615 387.583 145.615 386.659C145.615 385.742 145.772 384.947 146.087 384.273C146.401 383.598 146.839 383.078 147.399 382.71C147.96 382.343 148.607 382.159 149.342 382.159C149.911 382.159 150.359 382.254 150.689 382.443C151.022 382.629 151.276 382.841 151.45 383.08C151.628 383.314 151.767 383.508 151.865 383.659H151.979V379.364H153.32V391H152.024V389.659H151.865C151.767 389.818 151.626 390.019 151.445 390.261C151.263 390.5 151.003 390.714 150.666 390.903C150.329 391.089 149.88 391.182 149.32 391.182ZM149.501 389.977C150.039 389.977 150.494 389.837 150.865 389.557C151.236 389.273 151.518 388.881 151.712 388.381C151.905 387.877 152.001 387.295 152.001 386.636C152.001 385.985 151.907 385.415 151.717 384.926C151.528 384.434 151.248 384.051 150.876 383.778C150.505 383.502 150.047 383.364 149.501 383.364C148.933 383.364 148.46 383.509 148.081 383.801C147.706 384.089 147.424 384.481 147.234 384.977C147.049 385.47 146.956 386.023 146.956 386.636C146.956 387.258 147.051 387.822 147.24 388.33C147.433 388.833 147.717 389.235 148.092 389.534C148.471 389.83 148.941 389.977 149.501 389.977ZM166.643 384.227L165.439 384.568C165.363 384.367 165.251 384.172 165.104 383.983C164.96 383.79 164.763 383.631 164.513 383.506C164.263 383.381 163.943 383.318 163.553 383.318C163.018 383.318 162.573 383.441 162.217 383.688C161.865 383.93 161.689 384.239 161.689 384.614C161.689 384.947 161.81 385.21 162.053 385.403C162.295 385.597 162.674 385.758 163.189 385.886L164.484 386.205C165.265 386.394 165.846 386.684 166.229 387.074C166.611 387.46 166.803 387.958 166.803 388.568C166.803 389.068 166.659 389.515 166.371 389.909C166.087 390.303 165.689 390.614 165.178 390.841C164.666 391.068 164.071 391.182 163.393 391.182C162.503 391.182 161.767 390.989 161.183 390.602C160.6 390.216 160.231 389.652 160.075 388.909L161.348 388.591C161.469 389.061 161.698 389.413 162.036 389.648C162.376 389.883 162.821 390 163.371 390C163.996 390 164.492 389.867 164.859 389.602C165.231 389.333 165.416 389.011 165.416 388.636C165.416 388.333 165.31 388.08 165.098 387.875C164.886 387.667 164.56 387.511 164.121 387.409L162.666 387.068C161.867 386.879 161.28 386.585 160.905 386.188C160.534 385.786 160.348 385.284 160.348 384.682C160.348 384.189 160.486 383.754 160.763 383.375C161.043 382.996 161.424 382.699 161.905 382.483C162.39 382.267 162.939 382.159 163.553 382.159C164.416 382.159 165.094 382.348 165.587 382.727C166.083 383.106 166.435 383.606 166.643 384.227ZM172.48 391.182C171.639 391.182 170.914 390.996 170.304 390.625C169.698 390.25 169.23 389.727 168.901 389.057C168.575 388.383 168.412 387.598 168.412 386.705C168.412 385.811 168.575 385.023 168.901 384.341C169.23 383.655 169.688 383.121 170.276 382.739C170.866 382.352 171.556 382.159 172.344 382.159C172.798 382.159 173.247 382.235 173.69 382.386C174.134 382.538 174.537 382.784 174.901 383.125C175.264 383.462 175.554 383.909 175.77 384.466C175.986 385.023 176.094 385.708 176.094 386.523V387.091H169.366V385.932H174.73C174.73 385.439 174.632 385 174.435 384.614C174.241 384.227 173.965 383.922 173.605 383.699C173.249 383.475 172.829 383.364 172.344 383.364C171.81 383.364 171.348 383.496 170.957 383.761C170.571 384.023 170.274 384.364 170.065 384.784C169.857 385.205 169.753 385.655 169.753 386.136V386.909C169.753 387.568 169.866 388.127 170.094 388.585C170.325 389.04 170.645 389.386 171.054 389.625C171.463 389.86 171.938 389.977 172.48 389.977C172.832 389.977 173.151 389.928 173.435 389.83C173.723 389.727 173.971 389.576 174.179 389.375C174.387 389.17 174.548 388.917 174.662 388.614L175.957 388.977C175.821 389.417 175.592 389.803 175.27 390.136C174.948 390.466 174.55 390.723 174.077 390.909C173.603 391.091 173.071 391.182 172.48 391.182ZM179.474 385.75V391H178.134V382.273H179.429V383.636H179.543C179.747 383.193 180.058 382.837 180.474 382.568C180.891 382.295 181.429 382.159 182.088 382.159C182.679 382.159 183.196 382.28 183.639 382.523C184.082 382.761 184.427 383.125 184.673 383.614C184.92 384.098 185.043 384.712 185.043 385.455V391H183.702V385.545C183.702 384.86 183.524 384.326 183.168 383.943C182.812 383.557 182.323 383.364 181.702 383.364C181.274 383.364 180.891 383.456 180.554 383.642C180.221 383.828 179.957 384.098 179.764 384.455C179.571 384.811 179.474 385.242 179.474 385.75ZM190.788 391.182C190.061 391.182 189.419 390.998 188.862 390.631C188.305 390.259 187.87 389.737 187.555 389.062C187.241 388.384 187.084 387.583 187.084 386.659C187.084 385.742 187.241 384.947 187.555 384.273C187.87 383.598 188.307 383.078 188.868 382.71C189.429 382.343 190.076 382.159 190.811 382.159C191.379 382.159 191.828 382.254 192.158 382.443C192.491 382.629 192.745 382.841 192.919 383.08C193.097 383.314 193.235 383.508 193.334 383.659H193.447V379.364H194.788V391H193.493V389.659H193.334C193.235 389.818 193.095 390.019 192.913 390.261C192.732 390.5 192.472 390.714 192.135 390.903C191.798 391.089 191.349 391.182 190.788 391.182ZM190.97 389.977C191.508 389.977 191.963 389.837 192.334 389.557C192.705 389.273 192.987 388.881 193.18 388.381C193.374 387.877 193.47 387.295 193.47 386.636C193.47 385.985 193.375 385.415 193.186 384.926C192.997 384.434 192.716 384.051 192.345 383.778C191.974 383.502 191.516 383.364 190.97 383.364C190.402 383.364 189.929 383.509 189.55 383.801C189.175 384.089 188.893 384.481 188.703 384.977C188.518 385.47 188.425 386.023 188.425 386.636C188.425 387.258 188.519 387.822 188.709 388.33C188.902 388.833 189.186 389.235 189.561 389.534C189.94 389.83 190.41 389.977 190.97 389.977ZM198.408 391.091C198.127 391.091 197.887 390.991 197.686 390.79C197.485 390.589 197.385 390.348 197.385 390.068C197.385 389.788 197.485 389.547 197.686 389.347C197.887 389.146 198.127 389.045 198.408 389.045C198.688 389.045 198.929 389.146 199.129 389.347C199.33 389.547 199.43 389.788 199.43 390.068C199.43 390.254 199.383 390.424 199.288 390.58C199.197 390.735 199.074 390.86 198.919 390.955C198.768 391.045 198.597 391.091 198.408 391.091Z" fill="#0C0E0F"/>
<g clip-path="url(#clip0_33_87)">
<rect width="737" height="316" fill="#00827B"/>
<g clip-path="url(#clip1_33_87)">
<rect x="128" y="36" width="480" height="457" rx="20" fill="white"/>
<rect x="128.5" y="36.5" width="479" height="456" rx="19.5" stroke="black" stroke-opacity="0.5"/>
<path d="M128 43C128 38.5817 131.582 35 136 35H600C604.418 35 608 38.5817 608 43V79H128V43Z" fill="black"/>
<circle cx="154" cy="57" r="4" fill="#FF0606"/>
<circle cx="168" cy="57" r="4" fill="#30C1FF"/>
<circle cx="182" cy="57" r="4" fill="#A3DC2F"/>
<rect x="150" y="97.9998" width="72" height="72" rx="14" fill="#F3F3F3"/>
<path fill-rule="evenodd" clip-rule="evenodd" d="M182.41 119H182.462H188.615H188.667C190.777 119 192.432 119 193.762 119.108C195.116 119.219 196.234 119.448 197.247 119.964C198.911 120.812 200.265 122.165 201.113 123.83C201.629 124.842 201.858 125.961 201.968 127.315C202.077 128.645 202.077 130.299 202.077 132.409V132.41V132.461V135.538V135.59V135.59C202.077 137.7 202.077 139.355 201.968 140.685C201.858 142.039 201.629 143.157 201.113 144.17C200.265 145.834 198.911 147.187 197.247 148.036C196.234 148.551 195.116 148.781 193.762 148.891C192.432 149 190.777 149 188.667 149H188.667H188.615H182.462H182.41H182.41H182.41C180.299 149 178.645 149 177.315 148.891C175.961 148.781 174.843 148.551 173.83 148.036C172.166 147.187 170.812 145.834 169.964 144.17C169.448 143.157 169.219 142.039 169.109 140.685C169 139.355 169 137.7 169 135.59V135.538V132.461V132.41C169 130.299 169 128.645 169.109 127.315C169.219 125.961 169.448 124.842 169.964 123.83C170.812 122.165 172.166 120.812 173.83 119.964C174.843 119.448 175.961 119.219 177.315 119.108C178.645 119 180.3 119 182.41 119ZM176.948 126.886C176.418 126.532 175.701 126.676 175.348 127.206C174.994 127.736 175.137 128.452 175.668 128.806L177.206 129.832L177.385 129.951C179.69 131.488 181.062 132.403 182.543 132.849C184.496 133.438 186.58 133.438 188.534 132.849C190.015 132.403 191.387 131.488 193.692 129.951L193.871 129.832L195.409 128.806C195.94 128.452 196.083 127.736 195.729 127.206C195.376 126.676 194.659 126.532 194.129 126.886L192.591 127.911C190.052 129.604 188.98 130.305 187.868 130.639C186.349 131.097 184.728 131.097 183.208 130.639C182.097 130.305 181.025 129.604 178.486 127.911L176.948 126.886Z" fill="black"/>
<rect x="240" y="104" width="259" height="12" rx="6" fill="#F3F3F3"/>
<rect x="240" y="152" width="245" height="12" rx="6" fill="#F3F3F3"/>
<rect x="240" y="128" width="269" height="12" rx="6" fill="#F3F3F3"/>
<path d="M585 106C586.375 106 587.5 104.875 587.5 103.5C587.5 102.125 586.375 101 585 101C583.625 101 582.5 102.125 582.5 103.5C582.5 104.875 583.625 106 585 106Z" fill="#F0EEEE"/>
<path d="M567.5 106C568.875 106 570 104.875 570 103.5C570 102.125 568.875 101 567.5 101C566.125 101 565 102.125 565 103.5C565 104.875 566.125 106 567.5 106Z" fill="#F0EEEE"/>
<path d="M576.25 106C577.625 106 578.75 104.875 578.75 103.5C578.75 102.125 577.625 101 576.25 101C574.875 101 573.75 102.125 573.75 103.5C573.75 104.875 574.875 106 576.25 106Z" fill="#F0EEEE"/>
<rect x="150" y="191" width="72" height="72" rx="14" fill="#F3F3F3"/>
<path fill-rule="evenodd" clip-rule="evenodd" d="M182.41 212H182.462H188.615H188.667C190.777 212 192.432 212 193.762 212.108C195.116 212.219 196.234 212.448 197.247 212.964C198.911 213.812 200.265 215.165 201.113 216.83C201.629 217.842 201.858 218.961 201.968 220.315C202.077 221.645 202.077 223.299 202.077 225.409V225.41V225.461V228.538V228.59V228.59C202.077 230.7 202.077 232.355 201.968 233.685C201.858 235.039 201.629 236.157 201.113 237.17C200.265 238.834 198.911 240.187 197.247 241.036C196.234 241.551 195.116 241.781 193.762 241.891C192.432 242 190.777 242 188.667 242H188.667H188.615H182.462H182.41H182.41H182.41C180.299 242 178.645 242 177.315 241.891C175.961 241.781 174.843 241.551 173.83 241.036C172.166 240.187 170.812 238.834 169.964 237.17C169.448 236.157 169.219 235.039 169.109 233.685C169 232.355 169 230.7 169 228.59V228.538V225.461V225.41C169 223.299 169 221.645 169.109 220.315C169.219 218.961 169.448 217.842 169.964 216.83C170.812 215.165 172.166 213.812 173.83 212.964C174.843 212.448 175.961 212.219 177.315 212.108C178.645 212 180.3 212 182.41 212ZM176.948 219.886C176.418 219.532 175.701 219.676 175.348 220.206C174.994 220.736 175.137 221.452 175.668 221.806L177.206 222.832L177.385 222.951C179.69 224.488 181.062 225.403 182.543 225.849C184.496 226.438 186.58 226.438 188.534 225.849C190.015 225.403 191.387 224.488 193.692 222.951L193.871 222.832L195.409 221.806C195.94 221.452 196.083 220.736 195.729 220.206C195.376 219.676 194.659 219.532 194.129 219.886L192.591 220.911C190.052 222.604 188.98 223.305 187.868 223.639C186.349 224.097 184.728 224.097 183.208 223.639C182.097 223.305 181.025 222.604 178.486 220.911L176.948 219.886Z" fill="black"/>
<rect x="240" y="197" width="259" height="12" rx="6" fill="#F3F3F3"/>
<rect x="240" y="245" width="245" height="12" rx="6" fill="#F3F3F3"/>
<rect x="240" y="221" width="269" height="12" rx="6" fill="#F3F3F3"/>
<path d="M585 199C586.375 199 587.5 197.875 587.5 196.5C587.5 195.125 586.375 194 585 194C583.625 194 582.5 195.125 582.5 196.5C582.5 197.875 583.625 199 585 199Z" fill="#F0EEEE"/>
<path d="M567.5 199C568.875 199 570 197.875 570 196.5C570 195.125 568.875 194 567.5 194C566.125 194 565 195.125 565 196.5C565 197.875 566.125 199 567.5 199Z" fill="#F0EEEE"/>
<path d="M576.25 199C577.625 199 578.75 197.875 578.75 196.5C578.75 195.125 577.625 194 576.25 194C574.875 194 573.75 195.125 573.75 196.5C573.75 197.875 574.875 199 576.25 199Z" fill="#F0EEEE"/>
<rect x="150" y="284" width="72" height="72" rx="14" fill="#F3F3F3"/>
<path fill-rule="evenodd" clip-rule="evenodd" d="M182.41 305H182.462H188.615H188.667C190.777 305 192.432 305 193.762 305.108C195.116 305.219 196.234 305.448 197.247 305.964C198.911 306.812 200.265 308.165 201.113 309.83C201.629 310.842 201.858 311.961 201.968 313.315C202.077 314.645 202.077 316.299 202.077 318.409V318.41V318.461V321.538V321.59V321.59C202.077 323.7 202.077 325.355 201.968 326.685C201.858 328.039 201.629 329.157 201.113 330.17C200.265 331.834 198.911 333.187 197.247 334.036C196.234 334.551 195.116 334.781 193.762 334.891C192.432 335 190.777 335 188.667 335H188.667H188.615H182.462H182.41H182.41H182.41C180.299 335 178.645 335 177.315 334.891C175.961 334.781 174.843 334.551 173.83 334.036C172.166 333.187 170.812 331.834 169.964 330.17C169.448 329.157 169.219 328.039 169.109 326.685C169 325.355 169 323.7 169 321.59V321.538V318.461V318.41C169 316.299 169 314.645 169.109 313.315C169.219 311.961 169.448 310.842 169.964 309.83C170.812 308.165 172.166 306.812 173.83 305.964C174.843 305.448 175.961 305.219 177.315 305.108C178.645 305 180.3 305 182.41 305ZM176.948 312.886C176.418 312.532 175.701 312.676 175.348 313.206C174.994 313.736 175.137 314.452 175.668 314.806L177.206 315.832L177.385 315.951C179.69 317.488 181.062 318.403 182.543 318.849C184.496 319.438 186.58 319.438 188.534 318.849C190.015 318.403 191.387 317.488 193.692 315.951L193.871 315.832L195.409 314.806C195.94 314.452 196.083 313.736 195.729 313.206C195.376 312.676 194.659 312.532 194.129 312.886L192.591 313.911C190.052 315.604 188.98 316.305 187.868 316.639C186.349 317.097 184.728 317.097 183.208 316.639C182.097 316.305 181.025 315.604 178.486 313.911L176.948 312.886Z" fill="#DADADA"/>
<rect x="240" y="290" width="259" height="12" rx="6" fill="#F3F3F3"/>
<rect x="240" y="314" width="269" height="12" rx="6" fill="#F3F3F3"/>
<path d="M585 298C586.375 298 587.5 296.875 587.5 295.5C587.5 294.125 586.375 293 585 293C583.625 293 582.5 294.125 582.5 295.5C582.5 296.875 583.625 298 585 298Z" fill="#F0EEEE"/>
<path d="M567.5 298C568.875 298 570 296.875 570 295.5C570 294.125 568.875 293 567.5 293C566.125 293 565 294.125 565 295.5C565 296.875 566.125 298 567.5 298Z" fill="#F0EEEE"/>
<path d="M576.25 298C577.625 298 578.75 296.875 578.75 295.5C578.75 294.125 577.625 293 576.25 293C574.875 293 573.75 294.125 573.75 295.5C573.75 296.875 574.875 298 576.25 298Z" fill="#F0EEEE"/>
<rect x="128.5" y="36.5" width="479" height="456" rx="19.5" fill="white" stroke="black"/>
<path d="M128 43C128 38.5817 131.582 35 136 35H600C604.418 35 608 38.5817 608 43V79H128V43Z" fill="black"/>
<circle cx="154" cy="57" r="4" fill="#FF0606"/>
<circle cx="168" cy="57" r="4" fill="#30C1FF"/>
<circle cx="182" cy="57" r="4" fill="#A3DC2F"/>
<rect x="150" y="97.9998" width="72" height="72" rx="14" fill="#F3F3F3"/>
<path fill-rule="evenodd" clip-rule="evenodd" d="M182.41 119H182.462H188.615H188.667C190.777 119 192.432 119 193.762 119.108C195.116 119.219 196.234 119.448 197.247 119.964C198.911 120.812 200.265 122.165 201.113 123.83C201.629 124.842 201.858 125.961 201.968 127.315C202.077 128.645 202.077 130.299 202.077 132.409V132.41V132.461V135.538V135.59V135.59C202.077 137.7 202.077 139.355 201.968 140.685C201.858 142.039 201.629 143.157 201.113 144.17C200.265 145.834 198.911 147.187 197.247 148.036C196.234 148.551 195.116 148.781 193.762 148.891C192.432 149 190.777 149 188.667 149H188.667H188.615H182.462H182.41H182.41H182.41C180.299 149 178.645 149 177.315 148.891C175.961 148.781 174.843 148.551 173.83 148.036C172.166 147.187 170.812 145.834 169.964 144.17C169.448 143.157 169.219 142.039 169.109 140.685C169 139.355 169 137.7 169 135.59V135.538V132.461V132.41C169 130.299 169 128.645 169.109 127.315C169.219 125.961 169.448 124.842 169.964 123.83C170.812 122.165 172.166 120.812 173.83 119.964C174.843 119.448 175.961 119.219 177.315 119.108C178.645 119 180.3 119 182.41 119ZM176.948 126.886C176.418 126.532 175.701 126.676 175.348 127.206C174.994 127.736 175.137 128.452 175.668 128.806L177.206 129.832L177.385 129.951C179.69 131.488 181.062 132.403 182.543 132.849C184.496 133.438 186.58 133.438 188.534 132.849C190.015 132.403 191.387 131.488 193.692 129.951L193.871 129.832L195.409 128.806C195.94 128.452 196.083 127.736 195.729 127.206C195.376 126.676 194.659 126.532 194.129 126.886L192.591 127.911C190.052 129.604 188.98 130.305 187.868 130.639C186.349 131.097 184.728 131.097 183.208 130.639C182.097 130.305 181.025 129.604 178.486 127.911L176.948 126.886Z" fill="#0C0E0F"/>
<rect x="240" y="104" width="259" height="12" rx="6" fill="#F3F3F3"/>
<rect x="240" y="152" width="245" height="12" rx="6" fill="#F3F3F3"/>
<rect x="240" y="128" width="269" height="12" rx="6" fill="#F3F3F3"/>
<path d="M585 106C586.375 106 587.5 104.875 587.5 103.5C587.5 102.125 586.375 101 585 101C583.625 101 582.5 102.125 582.5 103.5C582.5 104.875 583.625 106 585 106Z" fill="#F0EEEE"/>
<path d="M567.5 106C568.875 106 570 104.875 570 103.5C570 102.125 568.875 101 567.5 101C566.125 101 565 102.125 565 103.5C565 104.875 566.125 106 567.5 106Z" fill="#F0EEEE"/>
<path d="M576.25 106C577.625 106 578.75 104.875 578.75 103.5C578.75 102.125 577.625 101 576.25 101C574.875 101 573.75 102.125 573.75 103.5C573.75 104.875 574.875 106 576.25 106Z" fill="#F0EEEE"/>
<rect x="150" y="191" width="72" height="72" rx="14" fill="#F3F3F3"/>
<path fill-rule="evenodd" clip-rule="evenodd" d="M182.41 212H182.462H188.615H188.667C190.777 212 192.432 212 193.762 212.108C195.116 212.219 196.234 212.448 197.247 212.964C198.911 213.812 200.265 215.165 201.113 216.83C201.629 217.842 201.858 218.961 201.968 220.315C202.077 221.645 202.077 223.299 202.077 225.409V225.41V225.461V228.538V228.59V228.59C202.077 230.7 202.077 232.355 201.968 233.685C201.858 235.039 201.629 236.157 201.113 237.17C200.265 238.834 198.911 240.187 197.247 241.036C196.234 241.551 195.116 241.781 193.762 241.891C192.432 242 190.777 242 188.667 242H188.667H188.615H182.462H182.41H182.41H182.41C180.299 242 178.645 242 177.315 241.891C175.961 241.781 174.843 241.551 173.83 241.036C172.166 240.187 170.812 238.834 169.964 237.17C169.448 236.157 169.219 235.039 169.109 233.685C169 232.355 169 230.7 169 228.59V228.538V225.461V225.41C169 223.299 169 221.645 169.109 220.315C169.219 218.961 169.448 217.842 169.964 216.83C170.812 215.165 172.166 213.812 173.83 212.964C174.843 212.448 175.961 212.219 177.315 212.108C178.645 212 180.3 212 182.41 212ZM176.948 219.886C176.418 219.532 175.701 219.676 175.348 220.206C174.994 220.736 175.137 221.452 175.668 221.806L177.206 222.832L177.385 222.951C179.69 224.488 181.062 225.403 182.543 225.849C184.496 226.438 186.58 226.438 188.534 225.849C190.015 225.403 191.387 224.488 193.692 222.951L193.871 222.832L195.409 221.806C195.94 221.452 196.083 220.736 195.729 220.206C195.376 219.676 194.659 219.532 194.129 219.886L192.591 220.911C190.052 222.604 188.98 223.305 187.868 223.639C186.349 224.097 184.728 224.097 183.208 223.639C182.097 223.305 181.025 222.604 178.486 220.911L176.948 219.886Z" fill="#0C0E0F"/>
<rect x="240" y="197" width="259" height="12" rx="6" fill="#F3F3F3"/>
<rect x="240" y="245" width="245" height="12" rx="6" fill="#F3F3F3"/>
<rect x="240" y="221" width="269" height="12" rx="6" fill="#F3F3F3"/>
<path d="M585 199C586.375 199 587.5 197.875 587.5 196.5C587.5 195.125 586.375 194 585 194C583.625 194 582.5 195.125 582.5 196.5C582.5 197.875 583.625 199 585 199Z" fill="#F0EEEE"/>
<path d="M567.5 199C568.875 199 570 197.875 570 196.5C570 195.125 568.875 194 567.5 194C566.125 194 565 195.125 565 196.5C565 197.875 566.125 199 567.5 199Z" fill="#F0EEEE"/>
<path d="M576.25 199C577.625 199 578.75 197.875 578.75 196.5C578.75 195.125 577.625 194 576.25 194C574.875 194 573.75 195.125 573.75 196.5C573.75 197.875 574.875 199 576.25 199Z" fill="#F0EEEE"/>
<rect x="150" y="284" width="72" height="72" rx="14" fill="#F3F3F3"/>
<path fill-rule="evenodd" clip-rule="evenodd" d="M182.41 305H182.462H188.615H188.667C190.777 305 192.432 305 193.762 305.108C195.116 305.219 196.234 305.448 197.247 305.964C198.911 306.812 200.265 308.165 201.113 309.83C201.629 310.842 201.858 311.961 201.968 313.315C202.077 314.645 202.077 316.299 202.077 318.409V318.41V318.461V321.538V321.59V321.59C202.077 323.7 202.077 325.355 201.968 326.685C201.858 328.039 201.629 329.157 201.113 330.17C200.265 331.834 198.911 333.187 197.247 334.036C196.234 334.551 195.116 334.781 193.762 334.891C192.432 335 190.777 335 188.667 335H188.667H188.615H182.462H182.41H182.41H182.41C180.299 335 178.645 335 177.315 334.891C175.961 334.781 174.843 334.551 173.83 334.036C172.166 333.187 170.812 331.834 169.964 330.17C169.448 329.157 169.219 328.039 169.109 326.685C169 325.355 169 323.7 169 321.59V321.538V318.461V318.41C169 316.299 169 314.645 169.109 313.315C169.219 311.961 169.448 310.842 169.964 309.83C170.812 308.165 172.166 306.812 173.83 305.964C174.843 305.448 175.961 305.219 177.315 305.108C178.645 305 180.3 305 182.41 305ZM176.948 312.886C176.418 312.532 175.701 312.676 175.348 313.206C174.994 313.736 175.137 314.452 175.668 314.806L177.206 315.832L177.385 315.951C179.69 317.488 181.062 318.403 182.543 318.849C184.496 319.438 186.58 319.438 188.534 318.849C190.015 318.403 191.387 317.488 193.692 315.951L193.871 315.832L195.409 314.806C195.94 314.452 196.083 313.736 195.729 313.206C195.376 312.676 194.659 312.532 194.129 312.886L192.591 313.911C190.052 315.604 188.98 316.305 187.868 316.639C186.349 317.097 184.728 317.097 183.208 316.639C182.097 316.305 181.025 315.604 178.486 313.911L176.948 312.886Z" fill="#0C0E0F"/>
<rect x="240" y="290" width="259" height="12" rx="6" fill="#F3F3F3"/>
<rect x="240" y="314" width="269" height="12" rx="6" fill="#F3F3F3"/>
<path d="M585 298C586.375 298 587.5 296.875 587.5 295.5C587.5 294.125 586.375 293 585 293C583.625 293 582.5 294.125 582.5 295.5C582.5 296.875 583.625 298 585 298Z" fill="#F0EEEE"/>
<path d="M567.5 298C568.875 298 570 296.875 570 295.5C570 294.125 568.875 293 567.5 293C566.125 293 565 294.125 565 295.5C565 296.875 566.125 298 567.5 298Z" fill="#F0EEEE"/>
<path d="M576.25 298C577.625 298 578.75 296.875 578.75 295.5C578.75 294.125 577.625 293 576.25 293C574.875 293 573.75 294.125 573.75 295.5C573.75 296.875 574.875 298 576.25 298Z" fill="#F0EEEE"/>
</g>
</g>
<defs>
<clipPath id="clip0_33_87">
<rect width="737" height="316" fill="white"/>
</clipPath>
<clipPath id="clip1_33_87">
<rect width="505" height="287" fill="white" transform="translate(116 30)"/>
</clipPath>
</defs>
</svg>
