<svg width="628" height="460" viewBox="0 0 628 460" fill="none" xmlns="http://www.w3.org/2000/svg">
<rect x="0.5" y="0.5" width="627" height="459" rx="7.5" stroke="black" stroke-opacity="0.5"/>
<g clip-path="url(#clip0_158_1856)">
<rect width="628" height="316" fill="#00827B"/>
<g clip-path="url(#clip1_158_1856)">
<rect x="73" y="36" width="480" height="457" rx="20" fill="white"/>
<rect x="73.5" y="36.5" width="479" height="456" rx="19.5" stroke="black" stroke-opacity="0.5"/>
<path d="M73 43C73 38.5817 76.5817 35 81 35H545C549.418 35 553 38.5817 553 43V79H73V43Z" fill="black"/>
<circle cx="99" cy="57" r="4" fill="#FF0606"/>
<circle cx="113" cy="57" r="4" fill="#30C1FF"/>
<circle cx="127" cy="57" r="4" fill="#A3DC2F"/>
<rect x="95" y="97.9998" width="72" height="72" rx="14" fill="#F3F3F3"/>
<path fill-rule="evenodd" clip-rule="evenodd" d="M127.41 119H127.462H133.615H133.667C135.777 119 137.432 119 138.762 119.108C140.116 119.219 141.234 119.448 142.247 119.964C143.911 120.812 145.265 122.165 146.113 123.83C146.629 124.842 146.858 125.961 146.968 127.315C147.077 128.645 147.077 130.299 147.077 132.409V132.41V132.461V135.538V135.59V135.59C147.077 137.7 147.077 139.355 146.968 140.685C146.858 142.039 146.629 143.157 146.113 144.17C145.265 145.834 143.911 147.187 142.247 148.036C141.234 148.551 140.116 148.781 138.762 148.891C137.432 149 135.777 149 133.667 149H133.667H133.615H127.462H127.41H127.41H127.41C125.299 149 123.645 149 122.315 148.891C120.961 148.781 119.843 148.551 118.83 148.036C117.166 147.187 115.812 145.834 114.964 144.17C114.448 143.157 114.219 142.039 114.109 140.685C114 139.355 114 137.7 114 135.59V135.538V132.461V132.41C114 130.299 114 128.645 114.109 127.315C114.219 125.961 114.448 124.842 114.964 123.83C115.812 122.165 117.166 120.812 118.83 119.964C119.843 119.448 120.961 119.219 122.315 119.108C123.645 119 125.3 119 127.41 119ZM121.948 126.886C121.418 126.532 120.701 126.676 120.348 127.206C119.994 127.736 120.137 128.452 120.668 128.806L122.206 129.832L122.385 129.951C124.69 131.488 126.062 132.403 127.543 132.849C129.496 133.438 131.58 133.438 133.534 132.849C135.015 132.403 136.387 131.488 138.692 129.951L138.871 129.832L140.409 128.806C140.94 128.452 141.083 127.736 140.729 127.206C140.376 126.676 139.659 126.532 139.129 126.886L137.591 127.911C135.052 129.604 133.98 130.305 132.868 130.639C131.349 131.097 129.728 131.097 128.208 130.639C127.097 130.305 126.025 129.604 123.486 127.911L121.948 126.886Z" fill="black"/>
<rect x="185" y="104" width="259" height="12" rx="6" fill="#F3F3F3"/>
<rect x="185" y="152" width="245" height="12" rx="6" fill="#F3F3F3"/>
<rect x="185" y="128" width="269" height="12" rx="6" fill="#F3F3F3"/>
<path d="M530 106C531.375 106 532.5 104.875 532.5 103.5C532.5 102.125 531.375 101 530 101C528.625 101 527.5 102.125 527.5 103.5C527.5 104.875 528.625 106 530 106Z" fill="#F0EEEE"/>
<path d="M512.5 106C513.875 106 515 104.875 515 103.5C515 102.125 513.875 101 512.5 101C511.125 101 510 102.125 510 103.5C510 104.875 511.125 106 512.5 106Z" fill="#F0EEEE"/>
<path d="M521.25 106C522.625 106 523.75 104.875 523.75 103.5C523.75 102.125 522.625 101 521.25 101C519.875 101 518.75 102.125 518.75 103.5C518.75 104.875 519.875 106 521.25 106Z" fill="#F0EEEE"/>
<rect x="95" y="191" width="72" height="72" rx="14" fill="#F3F3F3"/>
<path fill-rule="evenodd" clip-rule="evenodd" d="M127.41 212H127.462H133.615H133.667C135.777 212 137.432 212 138.762 212.108C140.116 212.219 141.234 212.448 142.247 212.964C143.911 213.812 145.265 215.165 146.113 216.83C146.629 217.842 146.858 218.961 146.968 220.315C147.077 221.645 147.077 223.299 147.077 225.409V225.41V225.461V228.538V228.59V228.59C147.077 230.7 147.077 232.355 146.968 233.685C146.858 235.039 146.629 236.157 146.113 237.17C145.265 238.834 143.911 240.187 142.247 241.036C141.234 241.551 140.116 241.781 138.762 241.891C137.432 242 135.777 242 133.667 242H133.667H133.615H127.462H127.41H127.41H127.41C125.299 242 123.645 242 122.315 241.891C120.961 241.781 119.843 241.551 118.83 241.036C117.166 240.187 115.812 238.834 114.964 237.17C114.448 236.157 114.219 235.039 114.109 233.685C114 232.355 114 230.7 114 228.59V228.538V225.461V225.41C114 223.299 114 221.645 114.109 220.315C114.219 218.961 114.448 217.842 114.964 216.83C115.812 215.165 117.166 213.812 118.83 212.964C119.843 212.448 120.961 212.219 122.315 212.108C123.645 212 125.3 212 127.41 212ZM121.948 219.886C121.418 219.532 120.701 219.676 120.348 220.206C119.994 220.736 120.137 221.452 120.668 221.806L122.206 222.832L122.385 222.951C124.69 224.488 126.062 225.403 127.543 225.849C129.496 226.438 131.58 226.438 133.534 225.849C135.015 225.403 136.387 224.488 138.692 222.951L138.871 222.832L140.409 221.806C140.94 221.452 141.083 220.736 140.729 220.206C140.376 219.676 139.659 219.532 139.129 219.886L137.591 220.911C135.052 222.604 133.98 223.305 132.868 223.639C131.349 224.097 129.728 224.097 128.208 223.639C127.097 223.305 126.025 222.604 123.486 220.911L121.948 219.886Z" fill="black"/>
<rect x="185" y="197" width="259" height="12" rx="6" fill="#F3F3F3"/>
<rect x="185" y="245" width="245" height="12" rx="6" fill="#F3F3F3"/>
<rect x="185" y="221" width="269" height="12" rx="6" fill="#F3F3F3"/>
<path d="M530 199C531.375 199 532.5 197.875 532.5 196.5C532.5 195.125 531.375 194 530 194C528.625 194 527.5 195.125 527.5 196.5C527.5 197.875 528.625 199 530 199Z" fill="#F0EEEE"/>
<path d="M512.5 199C513.875 199 515 197.875 515 196.5C515 195.125 513.875 194 512.5 194C511.125 194 510 195.125 510 196.5C510 197.875 511.125 199 512.5 199Z" fill="#F0EEEE"/>
<path d="M521.25 199C522.625 199 523.75 197.875 523.75 196.5C523.75 195.125 522.625 194 521.25 194C519.875 194 518.75 195.125 518.75 196.5C518.75 197.875 519.875 199 521.25 199Z" fill="#F0EEEE"/>
<rect x="95" y="284" width="72" height="72" rx="14" fill="#F3F3F3"/>
<path fill-rule="evenodd" clip-rule="evenodd" d="M127.41 305H127.462H133.615H133.667C135.777 305 137.432 305 138.762 305.108C140.116 305.219 141.234 305.448 142.247 305.964C143.911 306.812 145.265 308.165 146.113 309.83C146.629 310.842 146.858 311.961 146.968 313.315C147.077 314.645 147.077 316.299 147.077 318.409V318.41V318.461V321.538V321.59V321.59C147.077 323.7 147.077 325.355 146.968 326.685C146.858 328.039 146.629 329.157 146.113 330.17C145.265 331.834 143.911 333.187 142.247 334.036C141.234 334.551 140.116 334.781 138.762 334.891C137.432 335 135.777 335 133.667 335H133.667H133.615H127.462H127.41H127.41H127.41C125.299 335 123.645 335 122.315 334.891C120.961 334.781 119.843 334.551 118.83 334.036C117.166 333.187 115.812 331.834 114.964 330.17C114.448 329.157 114.219 328.039 114.109 326.685C114 325.355 114 323.7 114 321.59V321.538V318.461V318.41C114 316.299 114 314.645 114.109 313.315C114.219 311.961 114.448 310.842 114.964 309.83C115.812 308.165 117.166 306.812 118.83 305.964C119.843 305.448 120.961 305.219 122.315 305.108C123.645 305 125.3 305 127.41 305ZM121.948 312.886C121.418 312.532 120.701 312.676 120.348 313.206C119.994 313.736 120.137 314.452 120.668 314.806L122.206 315.832L122.385 315.951C124.69 317.488 126.062 318.403 127.543 318.849C129.496 319.438 131.58 319.438 133.534 318.849C135.015 318.403 136.387 317.488 138.692 315.951L138.871 315.832L140.409 314.806C140.94 314.452 141.083 313.736 140.729 313.206C140.376 312.676 139.659 312.532 139.129 312.886L137.591 313.911C135.052 315.604 133.98 316.305 132.868 316.639C131.349 317.097 129.728 317.097 128.208 316.639C127.097 316.305 126.025 315.604 123.486 313.911L121.948 312.886Z" fill="#DADADA"/>
<rect x="185" y="290" width="259" height="12" rx="6" fill="#F3F3F3"/>
<rect x="185" y="314" width="269" height="12" rx="6" fill="#F3F3F3"/>
<path d="M530 298C531.375 298 532.5 296.875 532.5 295.5C532.5 294.125 531.375 293 530 293C528.625 293 527.5 294.125 527.5 295.5C527.5 296.875 528.625 298 530 298Z" fill="#F0EEEE"/>
<path d="M512.5 298C513.875 298 515 296.875 515 295.5C515 294.125 513.875 293 512.5 293C511.125 293 510 294.125 510 295.5C510 296.875 511.125 298 512.5 298Z" fill="#F0EEEE"/>
<path d="M521.25 298C522.625 298 523.75 296.875 523.75 295.5C523.75 294.125 522.625 293 521.25 293C519.875 293 518.75 294.125 518.75 295.5C518.75 296.875 519.875 298 521.25 298Z" fill="#F0EEEE"/>
<rect x="73.5" y="36.5" width="479" height="456" rx="19.5" fill="white" stroke="black"/>
<path d="M73 43C73 38.5817 76.5817 35 81 35H545C549.418 35 553 38.5817 553 43V79H73V43Z" fill="black"/>
<circle cx="99" cy="57" r="4" fill="#FF0606"/>
<circle cx="113" cy="57" r="4" fill="#30C1FF"/>
<circle cx="127" cy="57" r="4" fill="#A3DC2F"/>
<rect x="95" y="97.9998" width="72" height="72" rx="14" fill="#F3F3F3"/>
<path fill-rule="evenodd" clip-rule="evenodd" d="M127.41 119H127.462H133.615H133.667C135.777 119 137.432 119 138.762 119.108C140.116 119.219 141.234 119.448 142.247 119.964C143.911 120.812 145.265 122.165 146.113 123.83C146.629 124.842 146.858 125.961 146.968 127.315C147.077 128.645 147.077 130.299 147.077 132.409V132.41V132.461V135.538V135.59V135.59C147.077 137.7 147.077 139.355 146.968 140.685C146.858 142.039 146.629 143.157 146.113 144.17C145.265 145.834 143.911 147.187 142.247 148.036C141.234 148.551 140.116 148.781 138.762 148.891C137.432 149 135.777 149 133.667 149H133.667H133.615H127.462H127.41H127.41H127.41C125.299 149 123.645 149 122.315 148.891C120.961 148.781 119.843 148.551 118.83 148.036C117.166 147.187 115.812 145.834 114.964 144.17C114.448 143.157 114.219 142.039 114.109 140.685C114 139.355 114 137.7 114 135.59V135.538V132.461V132.41C114 130.299 114 128.645 114.109 127.315C114.219 125.961 114.448 124.842 114.964 123.83C115.812 122.165 117.166 120.812 118.83 119.964C119.843 119.448 120.961 119.219 122.315 119.108C123.645 119 125.3 119 127.41 119ZM121.948 126.886C121.418 126.532 120.701 126.676 120.348 127.206C119.994 127.736 120.137 128.452 120.668 128.806L122.206 129.832L122.385 129.951C124.69 131.488 126.062 132.403 127.543 132.849C129.496 133.438 131.58 133.438 133.534 132.849C135.015 132.403 136.387 131.488 138.692 129.951L138.871 129.832L140.409 128.806C140.94 128.452 141.083 127.736 140.729 127.206C140.376 126.676 139.659 126.532 139.129 126.886L137.591 127.911C135.052 129.604 133.98 130.305 132.868 130.639C131.349 131.097 129.728 131.097 128.208 130.639C127.097 130.305 126.025 129.604 123.486 127.911L121.948 126.886Z" fill="#0C0E0F"/>
<rect x="185" y="104" width="259" height="12" rx="6" fill="#F3F3F3"/>
<rect x="185" y="152" width="245" height="12" rx="6" fill="#F3F3F3"/>
<rect x="185" y="128" width="269" height="12" rx="6" fill="#F3F3F3"/>
<path d="M530 106C531.375 106 532.5 104.875 532.5 103.5C532.5 102.125 531.375 101 530 101C528.625 101 527.5 102.125 527.5 103.5C527.5 104.875 528.625 106 530 106Z" fill="#F0EEEE"/>
<path d="M512.5 106C513.875 106 515 104.875 515 103.5C515 102.125 513.875 101 512.5 101C511.125 101 510 102.125 510 103.5C510 104.875 511.125 106 512.5 106Z" fill="#F0EEEE"/>
<path d="M521.25 106C522.625 106 523.75 104.875 523.75 103.5C523.75 102.125 522.625 101 521.25 101C519.875 101 518.75 102.125 518.75 103.5C518.75 104.875 519.875 106 521.25 106Z" fill="#F0EEEE"/>
<rect x="95" y="191" width="72" height="72" rx="14" fill="#F3F3F3"/>
<path fill-rule="evenodd" clip-rule="evenodd" d="M127.41 212H127.462H133.615H133.667C135.777 212 137.432 212 138.762 212.108C140.116 212.219 141.234 212.448 142.247 212.964C143.911 213.812 145.265 215.165 146.113 216.83C146.629 217.842 146.858 218.961 146.968 220.315C147.077 221.645 147.077 223.299 147.077 225.409V225.41V225.461V228.538V228.59V228.59C147.077 230.7 147.077 232.355 146.968 233.685C146.858 235.039 146.629 236.157 146.113 237.17C145.265 238.834 143.911 240.187 142.247 241.036C141.234 241.551 140.116 241.781 138.762 241.891C137.432 242 135.777 242 133.667 242H133.667H133.615H127.462H127.41H127.41H127.41C125.299 242 123.645 242 122.315 241.891C120.961 241.781 119.843 241.551 118.83 241.036C117.166 240.187 115.812 238.834 114.964 237.17C114.448 236.157 114.219 235.039 114.109 233.685C114 232.355 114 230.7 114 228.59V228.538V225.461V225.41C114 223.299 114 221.645 114.109 220.315C114.219 218.961 114.448 217.842 114.964 216.83C115.812 215.165 117.166 213.812 118.83 212.964C119.843 212.448 120.961 212.219 122.315 212.108C123.645 212 125.3 212 127.41 212ZM121.948 219.886C121.418 219.532 120.701 219.676 120.348 220.206C119.994 220.736 120.137 221.452 120.668 221.806L122.206 222.832L122.385 222.951C124.69 224.488 126.062 225.403 127.543 225.849C129.496 226.438 131.58 226.438 133.534 225.849C135.015 225.403 136.387 224.488 138.692 222.951L138.871 222.832L140.409 221.806C140.94 221.452 141.083 220.736 140.729 220.206C140.376 219.676 139.659 219.532 139.129 219.886L137.591 220.911C135.052 222.604 133.98 223.305 132.868 223.639C131.349 224.097 129.728 224.097 128.208 223.639C127.097 223.305 126.025 222.604 123.486 220.911L121.948 219.886Z" fill="#0C0E0F"/>
<rect x="185" y="197" width="259" height="12" rx="6" fill="#F3F3F3"/>
<rect x="185" y="245" width="245" height="12" rx="6" fill="#F3F3F3"/>
<rect x="185" y="221" width="269" height="12" rx="6" fill="#F3F3F3"/>
<path d="M530 199C531.375 199 532.5 197.875 532.5 196.5C532.5 195.125 531.375 194 530 194C528.625 194 527.5 195.125 527.5 196.5C527.5 197.875 528.625 199 530 199Z" fill="#F0EEEE"/>
<path d="M512.5 199C513.875 199 515 197.875 515 196.5C515 195.125 513.875 194 512.5 194C511.125 194 510 195.125 510 196.5C510 197.875 511.125 199 512.5 199Z" fill="#F0EEEE"/>
<path d="M521.25 199C522.625 199 523.75 197.875 523.75 196.5C523.75 195.125 522.625 194 521.25 194C519.875 194 518.75 195.125 518.75 196.5C518.75 197.875 519.875 199 521.25 199Z" fill="#F0EEEE"/>
<rect x="95" y="284" width="72" height="72" rx="14" fill="#F3F3F3"/>
<path fill-rule="evenodd" clip-rule="evenodd" d="M127.41 305H127.462H133.615H133.667C135.777 305 137.432 305 138.762 305.108C140.116 305.219 141.234 305.448 142.247 305.964C143.911 306.812 145.265 308.165 146.113 309.83C146.629 310.842 146.858 311.961 146.968 313.315C147.077 314.645 147.077 316.299 147.077 318.409V318.41V318.461V321.538V321.59V321.59C147.077 323.7 147.077 325.355 146.968 326.685C146.858 328.039 146.629 329.157 146.113 330.17C145.265 331.834 143.911 333.187 142.247 334.036C141.234 334.551 140.116 334.781 138.762 334.891C137.432 335 135.777 335 133.667 335H133.667H133.615H127.462H127.41H127.41H127.41C125.299 335 123.645 335 122.315 334.891C120.961 334.781 119.843 334.551 118.83 334.036C117.166 333.187 115.812 331.834 114.964 330.17C114.448 329.157 114.219 328.039 114.109 326.685C114 325.355 114 323.7 114 321.59V321.538V318.461V318.41C114 316.299 114 314.645 114.109 313.315C114.219 311.961 114.448 310.842 114.964 309.83C115.812 308.165 117.166 306.812 118.83 305.964C119.843 305.448 120.961 305.219 122.315 305.108C123.645 305 125.3 305 127.41 305ZM121.948 312.886C121.418 312.532 120.701 312.676 120.348 313.206C119.994 313.736 120.137 314.452 120.668 314.806L122.206 315.832L122.385 315.951C124.69 317.488 126.062 318.403 127.543 318.849C129.496 319.438 131.58 319.438 133.534 318.849C135.015 318.403 136.387 317.488 138.692 315.951L138.871 315.832L140.409 314.806C140.94 314.452 141.083 313.736 140.729 313.206C140.376 312.676 139.659 312.532 139.129 312.886L137.591 313.911C135.052 315.604 133.98 316.305 132.868 316.639C131.349 317.097 129.728 317.097 128.208 316.639C127.097 316.305 126.025 315.604 123.486 313.911L121.948 312.886Z" fill="#0C0E0F"/>
<rect x="185" y="290" width="259" height="12" rx="6" fill="#F3F3F3"/>
<rect x="185" y="314" width="269" height="12" rx="6" fill="#F3F3F3"/>
<path d="M530 298C531.375 298 532.5 296.875 532.5 295.5C532.5 294.125 531.375 293 530 293C528.625 293 527.5 294.125 527.5 295.5C527.5 296.875 528.625 298 530 298Z" fill="#F0EEEE"/>
<path d="M512.5 298C513.875 298 515 296.875 515 295.5C515 294.125 513.875 293 512.5 293C511.125 293 510 294.125 510 295.5C510 296.875 511.125 298 512.5 298Z" fill="#F0EEEE"/>
<path d="M521.25 298C522.625 298 523.75 296.875 523.75 295.5C523.75 294.125 522.625 293 521.25 293C519.875 293 518.75 294.125 518.75 295.5C518.75 296.875 519.875 298 521.25 298Z" fill="#F0EEEE"/>
</g>
</g>
<path d="M50.7734 356V372H47.8516L40.8906 361.93H40.7734V372H37.3906V356H40.3594L47.2656 366.062H47.4063V356H50.7734ZM58.9277 372.234C57.7142 372.234 56.6647 371.977 55.7793 371.461C54.8991 370.94 54.2194 370.216 53.7402 369.289C53.2611 368.357 53.0215 367.276 53.0215 366.047C53.0215 364.807 53.2611 363.724 53.7402 362.797C54.2194 361.865 54.8991 361.141 55.7793 360.625C56.6647 360.104 57.7142 359.844 58.9277 359.844C60.1413 359.844 61.1882 360.104 62.0684 360.625C62.9538 361.141 63.6361 361.865 64.1152 362.797C64.5944 363.724 64.834 364.807 64.834 366.047C64.834 367.276 64.5944 368.357 64.1152 369.289C63.6361 370.216 62.9538 370.94 62.0684 371.461C61.1882 371.977 60.1413 372.234 58.9277 372.234ZM58.9434 369.656C59.4954 369.656 59.9564 369.5 60.3262 369.188C60.696 368.87 60.9746 368.437 61.1621 367.891C61.3548 367.344 61.4512 366.721 61.4512 366.023C61.4512 365.326 61.3548 364.703 61.1621 364.156C60.9746 363.609 60.696 363.177 60.3262 362.859C59.9564 362.542 59.4954 362.383 58.9434 362.383C58.3861 362.383 57.9173 362.542 57.5371 362.859C57.1621 363.177 56.8783 363.609 56.6855 364.156C56.498 364.703 56.4043 365.326 56.4043 366.023C56.4043 366.721 56.498 367.344 56.6855 367.891C56.8783 368.437 57.1621 368.87 57.5371 369.188C57.9173 369.5 58.3861 369.656 58.9434 369.656ZM80.832 360.602C80.7695 359.971 80.5013 359.482 80.0273 359.133C79.5534 358.784 78.9102 358.609 78.0977 358.609C77.5456 358.609 77.0794 358.687 76.6992 358.844C76.319 358.995 76.0273 359.206 75.8242 359.477C75.6263 359.747 75.5273 360.055 75.5273 360.398C75.5169 360.685 75.5768 360.935 75.707 361.148C75.8424 361.362 76.0273 361.547 76.2617 361.703C76.4961 361.854 76.7669 361.987 77.0742 362.102C77.3815 362.211 77.7096 362.305 78.0586 362.383L79.4961 362.727C80.194 362.883 80.8346 363.091 81.418 363.352C82.0013 363.612 82.5065 363.932 82.9336 364.312C83.3607 364.693 83.6914 365.141 83.9258 365.656C84.1654 366.172 84.2878 366.763 84.293 367.43C84.2878 368.409 84.0378 369.258 83.543 369.977C83.0534 370.69 82.3451 371.245 81.418 371.641C80.4961 372.031 79.3841 372.227 78.082 372.227C76.7904 372.227 75.6654 372.029 74.707 371.633C73.7539 371.237 73.0091 370.651 72.4727 369.875C71.9414 369.094 71.6628 368.128 71.6367 366.977H74.9102C74.9466 367.513 75.1003 367.961 75.3711 368.32C75.6471 368.674 76.0143 368.943 76.4727 369.125C76.9362 369.302 77.4596 369.391 78.043 369.391C78.6159 369.391 79.1133 369.307 79.5352 369.141C79.9622 368.974 80.293 368.742 80.5273 368.445C80.7617 368.148 80.8789 367.807 80.8789 367.422C80.8789 367.062 80.7721 366.76 80.5586 366.516C80.3503 366.271 80.043 366.062 79.6367 365.891C79.2357 365.719 78.7435 365.562 78.1602 365.422L76.418 364.984C75.069 364.656 74.0039 364.143 73.2227 363.445C72.4414 362.747 72.0534 361.807 72.0586 360.625C72.0534 359.656 72.3112 358.81 72.832 358.086C73.3581 357.362 74.0794 356.797 74.9961 356.391C75.9128 355.984 76.9544 355.781 78.1211 355.781C79.3086 355.781 80.3451 355.984 81.2305 356.391C82.1211 356.797 82.8138 357.362 83.3086 358.086C83.8034 358.81 84.0586 359.648 84.0742 360.602H80.832ZM91.9277 372.234C90.6986 372.234 89.6413 371.974 88.7559 371.453C87.8757 370.927 87.1986 370.198 86.7246 369.266C86.2559 368.333 86.0215 367.26 86.0215 366.047C86.0215 364.818 86.2585 363.74 86.7324 362.812C87.2116 361.88 87.8913 361.154 88.7715 360.633C89.6517 360.107 90.6986 359.844 91.9121 359.844C92.959 359.844 93.8757 360.034 94.6621 360.414C95.4486 360.794 96.071 361.328 96.5293 362.016C96.9876 362.703 97.2402 363.51 97.2871 364.438H94.1465C94.0579 363.839 93.8236 363.357 93.4434 362.992C93.0684 362.622 92.5762 362.437 91.9668 362.437C91.4512 362.437 91.0007 362.578 90.6152 362.859C90.235 363.135 89.9382 363.539 89.7246 364.07C89.5111 364.602 89.4043 365.245 89.4043 366C89.4043 366.766 89.5085 367.417 89.7168 367.953C89.9303 368.49 90.2298 368.898 90.6152 369.18C91.0007 369.461 91.4512 369.602 91.9668 369.602C92.347 369.602 92.6882 369.523 92.9902 369.367C93.2975 369.211 93.5501 368.984 93.748 368.687C93.9512 368.385 94.084 368.023 94.1465 367.602H97.2871C97.235 368.518 96.985 369.326 96.5371 370.023C96.0944 370.716 95.4824 371.258 94.7012 371.648C93.9199 372.039 92.9954 372.234 91.9277 372.234ZM99.418 372V360H102.645V362.094H102.77C102.988 361.349 103.355 360.786 103.871 360.406C104.387 360.021 104.98 359.828 105.652 359.828C105.819 359.828 105.999 359.839 106.191 359.859C106.384 359.88 106.553 359.909 106.699 359.945V362.898C106.543 362.852 106.327 362.81 106.051 362.773C105.775 362.737 105.522 362.719 105.293 362.719C104.803 362.719 104.366 362.826 103.98 363.039C103.6 363.247 103.298 363.539 103.074 363.914C102.855 364.289 102.746 364.721 102.746 365.211V372H99.418ZM108.42 372V360H111.748V372H108.42ZM110.092 358.453C109.597 358.453 109.173 358.289 108.818 357.961C108.469 357.628 108.295 357.229 108.295 356.766C108.295 356.307 108.469 355.914 108.818 355.586C109.173 355.253 109.597 355.086 110.092 355.086C110.587 355.086 111.008 355.253 111.357 355.586C111.712 355.914 111.889 356.307 111.889 356.766C111.889 357.229 111.712 357.628 111.357 357.961C111.008 358.289 110.587 358.453 110.092 358.453ZM114.414 376.5V360H117.695V362.016H117.844C117.99 361.693 118.201 361.365 118.477 361.031C118.758 360.693 119.122 360.411 119.57 360.188C120.023 359.958 120.586 359.844 121.258 359.844C122.133 359.844 122.94 360.073 123.68 360.531C124.419 360.984 125.01 361.669 125.453 362.586C125.896 363.497 126.117 364.641 126.117 366.016C126.117 367.354 125.901 368.484 125.469 369.406C125.042 370.323 124.458 371.018 123.719 371.492C122.984 371.961 122.161 372.195 121.25 372.195C120.604 372.195 120.055 372.089 119.602 371.875C119.154 371.661 118.786 371.393 118.5 371.07C118.214 370.742 117.995 370.411 117.844 370.078H117.742V376.5H114.414ZM117.672 366C117.672 366.714 117.771 367.336 117.969 367.867C118.167 368.398 118.453 368.812 118.828 369.109C119.203 369.401 119.659 369.547 120.195 369.547C120.737 369.547 121.195 369.398 121.57 369.102C121.945 368.799 122.229 368.383 122.422 367.852C122.62 367.315 122.719 366.698 122.719 366C122.719 365.307 122.622 364.698 122.43 364.172C122.237 363.646 121.953 363.234 121.578 362.937C121.203 362.641 120.742 362.492 120.195 362.492C119.654 362.492 119.195 362.635 118.82 362.922C118.451 363.208 118.167 363.615 117.969 364.141C117.771 364.667 117.672 365.286 117.672 366ZM134.719 360V362.5H127.492V360H134.719ZM129.133 357.125H132.461V368.312C132.461 368.62 132.508 368.859 132.602 369.031C132.695 369.198 132.826 369.315 132.992 369.383C133.164 369.451 133.362 369.484 133.586 369.484C133.742 369.484 133.898 369.471 134.055 369.445C134.211 369.414 134.331 369.391 134.414 369.375L134.938 371.852C134.771 371.904 134.536 371.964 134.234 372.031C133.932 372.104 133.565 372.148 133.133 372.164C132.331 372.195 131.628 372.089 131.023 371.844C130.424 371.599 129.958 371.219 129.625 370.703C129.292 370.187 129.128 369.536 129.133 368.75V357.125ZM146.721 363.422L143.674 363.609C143.622 363.349 143.51 363.115 143.338 362.906C143.166 362.693 142.939 362.523 142.658 362.398C142.382 362.268 142.051 362.203 141.666 362.203C141.15 362.203 140.715 362.312 140.361 362.531C140.007 362.745 139.83 363.031 139.83 363.391C139.83 363.677 139.945 363.919 140.174 364.117C140.403 364.315 140.796 364.474 141.354 364.594L143.525 365.031C144.692 365.271 145.562 365.656 146.135 366.187C146.708 366.719 146.994 367.417 146.994 368.281C146.994 369.068 146.762 369.758 146.299 370.352C145.84 370.945 145.21 371.409 144.408 371.742C143.611 372.07 142.692 372.234 141.65 372.234C140.062 372.234 138.796 371.904 137.854 371.242C136.916 370.576 136.367 369.669 136.205 368.523L139.479 368.352C139.577 368.836 139.817 369.206 140.197 369.461C140.577 369.711 141.064 369.836 141.658 369.836C142.242 369.836 142.71 369.724 143.064 369.5C143.424 369.271 143.606 368.977 143.611 368.617C143.606 368.315 143.479 368.068 143.229 367.875C142.979 367.677 142.593 367.526 142.072 367.422L139.994 367.008C138.822 366.773 137.95 366.367 137.377 365.789C136.809 365.211 136.525 364.474 136.525 363.578C136.525 362.807 136.734 362.143 137.15 361.586C137.572 361.029 138.163 360.599 138.924 360.297C139.689 359.995 140.585 359.844 141.611 359.844C143.127 359.844 144.32 360.164 145.189 360.805C146.064 361.445 146.575 362.318 146.721 363.422ZM159.604 372.234C158.39 372.234 157.34 371.977 156.455 371.461C155.575 370.94 154.895 370.216 154.416 369.289C153.937 368.357 153.697 367.276 153.697 366.047C153.697 364.807 153.937 363.724 154.416 362.797C154.895 361.865 155.575 361.141 156.455 360.625C157.34 360.104 158.39 359.844 159.604 359.844C160.817 359.844 161.864 360.104 162.744 360.625C163.63 361.141 164.312 361.865 164.791 362.797C165.27 363.724 165.51 364.807 165.51 366.047C165.51 367.276 165.27 368.357 164.791 369.289C164.312 370.216 163.63 370.94 162.744 371.461C161.864 371.977 160.817 372.234 159.604 372.234ZM159.619 369.656C160.171 369.656 160.632 369.5 161.002 369.188C161.372 368.87 161.65 368.437 161.838 367.891C162.031 367.344 162.127 366.721 162.127 366.023C162.127 365.326 162.031 364.703 161.838 364.156C161.65 363.609 161.372 363.177 161.002 362.859C160.632 362.542 160.171 362.383 159.619 362.383C159.062 362.383 158.593 362.542 158.213 362.859C157.838 363.177 157.554 363.609 157.361 364.156C157.174 364.703 157.08 365.326 157.08 366.023C157.08 366.721 157.174 367.344 157.361 367.891C157.554 368.437 157.838 368.87 158.213 369.188C158.593 369.5 159.062 369.656 159.619 369.656ZM167.674 372V360H170.9V362.094H171.025C171.244 361.349 171.611 360.786 172.127 360.406C172.643 360.021 173.236 359.828 173.908 359.828C174.075 359.828 174.255 359.839 174.447 359.859C174.64 359.88 174.809 359.909 174.955 359.945V362.898C174.799 362.852 174.583 362.81 174.307 362.773C174.031 362.737 173.778 362.719 173.549 362.719C173.059 362.719 172.622 362.826 172.236 363.039C171.856 363.247 171.554 363.539 171.33 363.914C171.111 364.289 171.002 364.721 171.002 365.211V372H167.674ZM181.83 372V356H185.213V362.602H192.08V356H195.455V372H192.08V365.391H185.213V372H181.83ZM203.65 372.234C202.416 372.234 201.354 371.984 200.463 371.484C199.577 370.979 198.895 370.266 198.416 369.344C197.937 368.417 197.697 367.32 197.697 366.055C197.697 364.82 197.937 363.737 198.416 362.805C198.895 361.872 199.57 361.146 200.439 360.625C201.314 360.104 202.34 359.844 203.518 359.844C204.309 359.844 205.046 359.971 205.729 360.227C206.416 360.477 207.015 360.854 207.525 361.359C208.041 361.865 208.442 362.5 208.729 363.266C209.015 364.026 209.158 364.917 209.158 365.937V366.852H199.025V364.789H206.025C206.025 364.31 205.921 363.885 205.713 363.516C205.505 363.146 205.215 362.857 204.846 362.648C204.481 362.435 204.057 362.328 203.572 362.328C203.067 362.328 202.619 362.445 202.229 362.68C201.843 362.909 201.541 363.219 201.322 363.609C201.104 363.995 200.992 364.424 200.986 364.898V366.859C200.986 367.453 201.096 367.966 201.314 368.398C201.538 368.831 201.854 369.164 202.26 369.398C202.666 369.633 203.148 369.75 203.705 369.75C204.075 369.75 204.413 369.698 204.721 369.594C205.028 369.49 205.291 369.333 205.51 369.125C205.729 368.917 205.895 368.661 206.01 368.359L209.088 368.562C208.932 369.302 208.611 369.948 208.127 370.5C207.648 371.047 207.028 371.474 206.268 371.781C205.512 372.083 204.64 372.234 203.65 372.234ZM213.896 360L216.1 364.195L218.357 360H221.771L218.295 366L221.865 372H218.467L216.1 367.852L213.771 372H210.334L213.896 366L210.459 360H213.896ZM227.74 372.195C226.829 372.195 226.003 371.961 225.264 371.492C224.529 371.018 223.946 370.323 223.514 369.406C223.087 368.484 222.873 367.354 222.873 366.016C222.873 364.641 223.094 363.497 223.537 362.586C223.98 361.669 224.568 360.984 225.303 360.531C226.042 360.073 226.852 359.844 227.732 359.844C228.404 359.844 228.964 359.958 229.412 360.188C229.865 360.411 230.23 360.693 230.506 361.031C230.787 361.365 231.001 361.693 231.146 362.016H231.248V356H234.568V372H231.287V370.078H231.146C230.99 370.411 230.769 370.742 230.482 371.07C230.201 371.393 229.834 371.661 229.381 371.875C228.933 372.089 228.386 372.195 227.74 372.195ZM228.795 369.547C229.331 369.547 229.785 369.401 230.154 369.109C230.529 368.812 230.816 368.398 231.014 367.867C231.217 367.336 231.318 366.714 231.318 366C231.318 365.286 231.219 364.667 231.021 364.141C230.824 363.615 230.537 363.208 230.162 362.922C229.787 362.635 229.331 362.492 228.795 362.492C228.248 362.492 227.787 362.641 227.412 362.937C227.037 363.234 226.753 363.646 226.561 364.172C226.368 364.698 226.271 365.307 226.271 366C226.271 366.698 226.368 367.315 226.561 367.852C226.758 368.383 227.042 368.799 227.412 369.102C227.787 369.398 228.248 369.547 228.795 369.547ZM240.727 372.227C239.961 372.227 239.279 372.094 238.68 371.828C238.081 371.557 237.607 371.159 237.258 370.633C236.914 370.102 236.742 369.44 236.742 368.648C236.742 367.982 236.865 367.422 237.109 366.969C237.354 366.516 237.688 366.151 238.109 365.875C238.531 365.599 239.01 365.391 239.547 365.25C240.089 365.109 240.656 365.01 241.25 364.953C241.948 364.88 242.51 364.812 242.938 364.75C243.365 364.682 243.674 364.583 243.867 364.453C244.06 364.323 244.156 364.13 244.156 363.875V363.828C244.156 363.333 244 362.951 243.687 362.68C243.38 362.409 242.943 362.273 242.375 362.273C241.776 362.273 241.299 362.406 240.945 362.672C240.591 362.932 240.357 363.26 240.242 363.656L237.164 363.406C237.32 362.677 237.628 362.047 238.086 361.516C238.544 360.979 239.135 360.568 239.859 360.281C240.589 359.99 241.432 359.844 242.391 359.844C243.057 359.844 243.695 359.922 244.305 360.078C244.919 360.234 245.464 360.477 245.938 360.805C246.417 361.133 246.794 361.555 247.07 362.07C247.346 362.581 247.484 363.193 247.484 363.906V372H244.328V370.336H244.234C244.042 370.711 243.784 371.042 243.461 371.328C243.138 371.609 242.75 371.831 242.297 371.992C241.844 372.148 241.32 372.227 240.727 372.227ZM241.68 369.93C242.169 369.93 242.602 369.833 242.977 369.641C243.352 369.443 243.646 369.177 243.859 368.844C244.073 368.51 244.18 368.133 244.18 367.711V366.438C244.076 366.505 243.932 366.568 243.75 366.625C243.573 366.677 243.372 366.727 243.148 366.773C242.924 366.815 242.701 366.854 242.477 366.891C242.253 366.922 242.049 366.951 241.867 366.977C241.477 367.034 241.135 367.125 240.844 367.25C240.552 367.375 240.326 367.544 240.164 367.758C240.003 367.966 239.922 368.227 239.922 368.539C239.922 368.992 240.086 369.339 240.414 369.578C240.747 369.812 241.169 369.93 241.68 369.93ZM256.449 360V362.5H249.223V360H256.449ZM250.863 357.125H254.191V368.312C254.191 368.62 254.238 368.859 254.332 369.031C254.426 369.198 254.556 369.315 254.723 369.383C254.895 369.451 255.092 369.484 255.316 369.484C255.473 369.484 255.629 369.471 255.785 369.445C255.941 369.414 256.061 369.391 256.145 369.375L256.668 371.852C256.501 371.904 256.267 371.964 255.965 372.031C255.663 372.104 255.296 372.148 254.863 372.164C254.061 372.195 253.358 372.089 252.754 371.844C252.155 371.599 251.689 371.219 251.355 370.703C251.022 370.187 250.858 369.536 250.863 368.75V357.125ZM262.039 372.227C261.273 372.227 260.591 372.094 259.992 371.828C259.393 371.557 258.919 371.159 258.57 370.633C258.227 370.102 258.055 369.44 258.055 368.648C258.055 367.982 258.177 367.422 258.422 366.969C258.667 366.516 259 366.151 259.422 365.875C259.844 365.599 260.323 365.391 260.859 365.25C261.401 365.109 261.969 365.01 262.563 364.953C263.26 364.88 263.823 364.812 264.25 364.75C264.677 364.682 264.987 364.583 265.18 364.453C265.372 364.323 265.469 364.13 265.469 363.875V363.828C265.469 363.333 265.313 362.951 265 362.68C264.693 362.409 264.255 362.273 263.687 362.273C263.089 362.273 262.612 362.406 262.258 362.672C261.904 362.932 261.669 363.26 261.555 363.656L258.477 363.406C258.633 362.677 258.94 362.047 259.398 361.516C259.857 360.979 260.448 360.568 261.172 360.281C261.901 359.99 262.745 359.844 263.703 359.844C264.37 359.844 265.008 359.922 265.617 360.078C266.232 360.234 266.776 360.477 267.25 360.805C267.729 361.133 268.107 361.555 268.383 362.07C268.659 362.581 268.797 363.193 268.797 363.906V372H265.641V370.336H265.547C265.354 370.711 265.096 371.042 264.773 371.328C264.451 371.609 264.062 371.831 263.609 371.992C263.156 372.148 262.633 372.227 262.039 372.227ZM262.992 369.93C263.482 369.93 263.914 369.833 264.289 369.641C264.664 369.443 264.958 369.177 265.172 368.844C265.385 368.51 265.492 368.133 265.492 367.711V366.438C265.388 366.505 265.245 366.568 265.063 366.625C264.885 366.677 264.685 366.727 264.461 366.773C264.237 366.815 264.013 366.854 263.789 366.891C263.565 366.922 263.362 366.951 263.18 366.977C262.789 367.034 262.448 367.125 262.156 367.25C261.865 367.375 261.638 367.544 261.477 367.758C261.315 367.966 261.234 368.227 261.234 368.539C261.234 368.992 261.398 369.339 261.727 369.578C262.06 369.812 262.482 369.93 262.992 369.93ZM290.65 361.602H287.229C287.166 361.159 287.038 360.766 286.846 360.422C286.653 360.073 286.406 359.776 286.104 359.531C285.801 359.286 285.452 359.099 285.057 358.969C284.666 358.839 284.242 358.773 283.783 358.773C282.955 358.773 282.234 358.979 281.619 359.391C281.005 359.797 280.528 360.391 280.189 361.172C279.851 361.948 279.682 362.891 279.682 364C279.682 365.141 279.851 366.099 280.189 366.875C280.533 367.651 281.012 368.237 281.627 368.633C282.242 369.029 282.952 369.227 283.76 369.227C284.213 369.227 284.632 369.167 285.018 369.047C285.408 368.927 285.755 368.753 286.057 368.523C286.359 368.289 286.609 368.005 286.807 367.672C287.01 367.339 287.15 366.958 287.229 366.531L290.65 366.547C290.562 367.281 290.34 367.99 289.986 368.672C289.637 369.349 289.166 369.956 288.572 370.492C287.984 371.023 287.281 371.445 286.463 371.758C285.65 372.065 284.731 372.219 283.705 372.219C282.278 372.219 281.002 371.896 279.877 371.25C278.757 370.604 277.872 369.669 277.221 368.445C276.575 367.221 276.252 365.74 276.252 364C276.252 362.255 276.58 360.771 277.236 359.547C277.893 358.323 278.783 357.391 279.908 356.75C281.033 356.104 282.299 355.781 283.705 355.781C284.632 355.781 285.492 355.911 286.283 356.172C287.08 356.432 287.786 356.812 288.4 357.312C289.015 357.807 289.515 358.414 289.9 359.133C290.291 359.852 290.541 360.674 290.65 361.602ZM298.436 372.234C297.222 372.234 296.173 371.977 295.287 371.461C294.407 370.94 293.727 370.216 293.248 369.289C292.769 368.357 292.529 367.276 292.529 366.047C292.529 364.807 292.769 363.724 293.248 362.797C293.727 361.865 294.407 361.141 295.287 360.625C296.173 360.104 297.222 359.844 298.436 359.844C299.649 359.844 300.696 360.104 301.576 360.625C302.462 361.141 303.144 361.865 303.623 362.797C304.102 363.724 304.342 364.807 304.342 366.047C304.342 367.276 304.102 368.357 303.623 369.289C303.144 370.216 302.462 370.94 301.576 371.461C300.696 371.977 299.649 372.234 298.436 372.234ZM298.451 369.656C299.003 369.656 299.464 369.5 299.834 369.188C300.204 368.87 300.482 368.437 300.67 367.891C300.863 367.344 300.959 366.721 300.959 366.023C300.959 365.326 300.863 364.703 300.67 364.156C300.482 363.609 300.204 363.177 299.834 362.859C299.464 362.542 299.003 362.383 298.451 362.383C297.894 362.383 297.425 362.542 297.045 362.859C296.67 363.177 296.386 363.609 296.193 364.156C296.006 364.703 295.912 365.326 295.912 366.023C295.912 366.721 296.006 367.344 296.193 367.891C296.386 368.437 296.67 368.87 297.045 369.188C297.425 369.5 297.894 369.656 298.451 369.656ZM309.834 365.063V372H306.506V360H309.678V362.117H309.818C310.084 361.419 310.529 360.867 311.154 360.461C311.779 360.049 312.537 359.844 313.428 359.844C314.261 359.844 314.988 360.026 315.607 360.391C316.227 360.755 316.709 361.276 317.053 361.953C317.396 362.625 317.568 363.427 317.568 364.359V372H314.24V364.953C314.245 364.219 314.058 363.646 313.678 363.234C313.298 362.818 312.774 362.609 312.107 362.609C311.66 362.609 311.264 362.706 310.92 362.898C310.581 363.091 310.316 363.372 310.123 363.742C309.936 364.107 309.839 364.547 309.834 365.063ZM330.949 360L326.754 372H323.004L318.809 360H322.324L324.816 368.586H324.941L327.426 360H330.949ZM337.734 372.234C336.5 372.234 335.438 371.984 334.547 371.484C333.661 370.979 332.979 370.266 332.5 369.344C332.021 368.417 331.781 367.32 331.781 366.055C331.781 364.82 332.021 363.737 332.5 362.805C332.979 361.872 333.654 361.146 334.523 360.625C335.398 360.104 336.424 359.844 337.602 359.844C338.393 359.844 339.13 359.971 339.813 360.227C340.5 360.477 341.099 360.854 341.609 361.359C342.125 361.865 342.526 362.5 342.813 363.266C343.099 364.026 343.242 364.917 343.242 365.937V366.852H333.109V364.789H340.109C340.109 364.31 340.005 363.885 339.797 363.516C339.589 363.146 339.299 362.857 338.93 362.648C338.565 362.435 338.141 362.328 337.656 362.328C337.151 362.328 336.703 362.445 336.313 362.68C335.927 362.909 335.625 363.219 335.406 363.609C335.188 363.995 335.076 364.424 335.07 364.898V366.859C335.07 367.453 335.18 367.966 335.398 368.398C335.622 368.831 335.938 369.164 336.344 369.398C336.75 369.633 337.232 369.75 337.789 369.75C338.159 369.75 338.497 369.698 338.805 369.594C339.112 369.49 339.375 369.333 339.594 369.125C339.813 368.917 339.979 368.661 340.094 368.359L343.172 368.562C343.016 369.302 342.695 369.948 342.211 370.5C341.732 371.047 341.112 371.474 340.352 371.781C339.596 372.083 338.724 372.234 337.734 372.234ZM345.414 372V360H348.641V362.094H348.766C348.984 361.349 349.352 360.786 349.867 360.406C350.383 360.021 350.977 359.828 351.648 359.828C351.815 359.828 351.995 359.839 352.188 359.859C352.38 359.88 352.549 359.909 352.695 359.945V362.898C352.539 362.852 352.323 362.81 352.047 362.773C351.771 362.737 351.518 362.719 351.289 362.719C350.799 362.719 350.362 362.826 349.977 363.039C349.596 363.247 349.294 363.539 349.07 363.914C348.852 364.289 348.742 364.721 348.742 365.211V372H345.414ZM364.4 363.422L361.354 363.609C361.301 363.349 361.189 363.115 361.018 362.906C360.846 362.693 360.619 362.523 360.338 362.398C360.062 362.268 359.731 362.203 359.346 362.203C358.83 362.203 358.395 362.312 358.041 362.531C357.687 362.745 357.51 363.031 357.51 363.391C357.51 363.677 357.624 363.919 357.854 364.117C358.083 364.315 358.476 364.474 359.033 364.594L361.205 365.031C362.372 365.271 363.242 365.656 363.814 366.187C364.387 366.719 364.674 367.417 364.674 368.281C364.674 369.068 364.442 369.758 363.979 370.352C363.52 370.945 362.89 371.409 362.088 371.742C361.291 372.07 360.372 372.234 359.33 372.234C357.742 372.234 356.476 371.904 355.533 371.242C354.596 370.576 354.046 369.669 353.885 368.523L357.158 368.352C357.257 368.836 357.497 369.206 357.877 369.461C358.257 369.711 358.744 369.836 359.338 369.836C359.921 369.836 360.39 369.724 360.744 369.5C361.104 369.271 361.286 368.977 361.291 368.617C361.286 368.315 361.158 368.068 360.908 367.875C360.658 367.677 360.273 367.526 359.752 367.422L357.674 367.008C356.502 366.773 355.63 366.367 355.057 365.789C354.489 365.211 354.205 364.474 354.205 363.578C354.205 362.807 354.413 362.143 354.83 361.586C355.252 361.029 355.843 360.599 356.604 360.297C357.369 359.995 358.265 359.844 359.291 359.844C360.807 359.844 361.999 360.164 362.869 360.805C363.744 361.445 364.255 362.318 364.4 363.422ZM366.77 372V360H370.098V372H366.77ZM368.441 358.453C367.947 358.453 367.522 358.289 367.168 357.961C366.819 357.628 366.645 357.229 366.645 356.766C366.645 356.307 366.819 355.914 367.168 355.586C367.522 355.253 367.947 355.086 368.441 355.086C368.936 355.086 369.358 355.253 369.707 355.586C370.061 355.914 370.238 356.307 370.238 356.766C370.238 357.229 370.061 357.628 369.707 357.961C369.358 358.289 368.936 358.453 368.441 358.453ZM378.186 372.234C376.972 372.234 375.923 371.977 375.037 371.461C374.157 370.94 373.477 370.216 372.998 369.289C372.519 368.357 372.279 367.276 372.279 366.047C372.279 364.807 372.519 363.724 372.998 362.797C373.477 361.865 374.157 361.141 375.037 360.625C375.923 360.104 376.972 359.844 378.186 359.844C379.399 359.844 380.446 360.104 381.326 360.625C382.212 361.141 382.894 361.865 383.373 362.797C383.852 363.724 384.092 364.807 384.092 366.047C384.092 367.276 383.852 368.357 383.373 369.289C382.894 370.216 382.212 370.94 381.326 371.461C380.446 371.977 379.399 372.234 378.186 372.234ZM378.201 369.656C378.753 369.656 379.214 369.5 379.584 369.188C379.954 368.87 380.232 368.437 380.42 367.891C380.613 367.344 380.709 366.721 380.709 366.023C380.709 365.326 380.613 364.703 380.42 364.156C380.232 363.609 379.954 363.177 379.584 362.859C379.214 362.542 378.753 362.383 378.201 362.383C377.644 362.383 377.175 362.542 376.795 362.859C376.42 363.177 376.136 363.609 375.943 364.156C375.756 364.703 375.662 365.326 375.662 366.023C375.662 366.721 375.756 367.344 375.943 367.891C376.136 368.437 376.42 368.87 376.795 369.188C377.175 369.5 377.644 369.656 378.201 369.656ZM389.584 365.063V372H386.256V360H389.428V362.117H389.568C389.834 361.419 390.279 360.867 390.904 360.461C391.529 360.049 392.287 359.844 393.178 359.844C394.011 359.844 394.738 360.026 395.357 360.391C395.977 360.755 396.459 361.276 396.803 361.953C397.146 362.625 397.318 363.427 397.318 364.359V372H393.99V364.953C393.995 364.219 393.808 363.646 393.428 363.234C393.048 362.818 392.524 362.609 391.857 362.609C391.41 362.609 391.014 362.706 390.67 362.898C390.331 363.091 390.066 363.372 389.873 363.742C389.686 364.107 389.589 364.547 389.584 365.063ZM409.926 363.422L406.879 363.609C406.827 363.349 406.715 363.115 406.543 362.906C406.371 362.693 406.145 362.523 405.863 362.398C405.587 362.268 405.257 362.203 404.871 362.203C404.355 362.203 403.921 362.312 403.566 362.531C403.212 362.745 403.035 363.031 403.035 363.391C403.035 363.677 403.15 363.919 403.379 364.117C403.608 364.315 404.001 364.474 404.559 364.594L406.73 365.031C407.897 365.271 408.767 365.656 409.34 366.187C409.913 366.719 410.199 367.417 410.199 368.281C410.199 369.068 409.967 369.758 409.504 370.352C409.046 370.945 408.415 371.409 407.613 371.742C406.816 372.07 405.897 372.234 404.855 372.234C403.267 372.234 402.001 371.904 401.059 371.242C400.121 370.576 399.572 369.669 399.41 368.523L402.684 368.352C402.783 368.836 403.022 369.206 403.402 369.461C403.783 369.711 404.27 369.836 404.863 369.836C405.447 369.836 405.915 369.724 406.27 369.5C406.629 369.271 406.811 368.977 406.816 368.617C406.811 368.315 406.684 368.068 406.434 367.875C406.184 367.677 405.798 367.526 405.277 367.422L403.199 367.008C402.027 366.773 401.155 366.367 400.582 365.789C400.014 365.211 399.73 364.474 399.73 363.578C399.73 362.807 399.939 362.143 400.355 361.586C400.777 361.029 401.368 360.599 402.129 360.297C402.895 359.995 403.79 359.844 404.816 359.844C406.332 359.844 407.525 360.164 408.395 360.805C409.27 361.445 409.78 362.318 409.926 363.422Z" fill="#0C0E0F"/>
<path d="M41.8636 397.364H43.2727V405.682C43.2727 406.424 43.1364 407.055 42.8636 407.574C42.5909 408.093 42.2064 408.487 41.7102 408.756C41.214 409.025 40.6288 409.159 39.9545 409.159C39.3182 409.159 38.7519 409.044 38.2557 408.812C37.7595 408.578 37.3693 408.244 37.0852 407.812C36.8011 407.381 36.6591 406.867 36.6591 406.273H38.0455C38.0455 406.602 38.1269 406.89 38.2898 407.136C38.4564 407.379 38.6837 407.568 38.9716 407.705C39.2595 407.841 39.5871 407.909 39.9545 407.909C40.3598 407.909 40.7045 407.824 40.9886 407.653C41.2727 407.483 41.4886 407.233 41.6364 406.903C41.7879 406.57 41.8636 406.163 41.8636 405.682V397.364ZM51.4148 405.432V400.273H52.7557V409H51.4148V407.523H51.3239C51.1193 407.966 50.8011 408.343 50.3693 408.653C49.9375 408.96 49.392 409.114 48.733 409.114C48.1875 409.114 47.7027 408.994 47.2784 408.756C46.8542 408.513 46.5208 408.15 46.2784 407.665C46.036 407.176 45.9148 406.561 45.9148 405.818V400.273H47.2557V405.727C47.2557 406.364 47.4337 406.871 47.7898 407.25C48.1496 407.629 48.608 407.818 49.1648 407.818C49.4981 407.818 49.8371 407.733 50.1818 407.562C50.5303 407.392 50.822 407.131 51.0568 406.778C51.2955 406.426 51.4148 405.977 51.4148 405.432ZM61.3935 402.227L60.1889 402.568C60.1132 402.367 60.0014 402.172 59.8537 401.983C59.7098 401.79 59.5128 401.631 59.2628 401.506C59.0128 401.381 58.6927 401.318 58.3026 401.318C57.7685 401.318 57.3234 401.441 56.9673 401.688C56.6151 401.93 56.4389 402.239 56.4389 402.614C56.4389 402.947 56.5601 403.21 56.8026 403.403C57.045 403.597 57.4238 403.758 57.9389 403.886L59.2344 404.205C60.0147 404.394 60.5961 404.684 60.9787 405.074C61.3613 405.46 61.5526 405.958 61.5526 406.568C61.5526 407.068 61.4086 407.515 61.1207 407.909C60.8366 408.303 60.4389 408.614 59.9276 408.841C59.4162 409.068 58.8215 409.182 58.1435 409.182C57.2533 409.182 56.5166 408.989 55.9332 408.602C55.3499 408.216 54.9806 407.652 54.8253 406.909L56.098 406.591C56.2192 407.061 56.4484 407.413 56.7855 407.648C57.1264 407.883 57.5715 408 58.1207 408C58.7457 408 59.242 407.867 59.6094 407.602C59.9806 407.333 60.1662 407.011 60.1662 406.636C60.1662 406.333 60.0601 406.08 59.848 405.875C59.6359 405.667 59.3101 405.511 58.8707 405.409L57.4162 405.068C56.617 404.879 56.0298 404.585 55.6548 404.188C55.2836 403.786 55.098 403.284 55.098 402.682C55.098 402.189 55.2363 401.754 55.5128 401.375C55.7931 400.996 56.1738 400.699 56.6548 400.483C57.1397 400.267 57.6889 400.159 58.3026 400.159C59.1662 400.159 59.8442 400.348 60.3366 400.727C60.8329 401.106 61.1851 401.606 61.3935 402.227ZM67.3665 400.273V401.409H62.8438V400.273H67.3665ZM64.1619 398.182H65.5028V406.5C65.5028 406.879 65.5578 407.163 65.6676 407.352C65.7813 407.538 65.9252 407.663 66.0994 407.727C66.2775 407.788 66.465 407.818 66.6619 407.818C66.8097 407.818 66.9309 407.811 67.0256 407.795C67.1203 407.777 67.196 407.761 67.2528 407.75L67.5256 408.955C67.4347 408.989 67.3078 409.023 67.1449 409.057C66.982 409.095 66.7756 409.114 66.5256 409.114C66.1468 409.114 65.7756 409.032 65.4119 408.869C65.0521 408.706 64.7528 408.458 64.5142 408.125C64.2794 407.792 64.1619 407.371 64.1619 406.864V398.182ZM77.429 409.182C76.6108 409.182 75.9063 408.989 75.3153 408.602C74.7244 408.216 74.2699 407.684 73.9517 407.006C73.6335 406.328 73.4744 405.553 73.4744 404.682C73.4744 403.795 73.6373 403.013 73.9631 402.335C74.2926 401.653 74.7509 401.121 75.3381 400.739C75.929 400.352 76.6184 400.159 77.4062 400.159C78.0199 400.159 78.5729 400.273 79.0653 400.5C79.5578 400.727 79.9612 401.045 80.2756 401.455C80.59 401.864 80.785 402.341 80.8608 402.886H79.5199C79.4176 402.489 79.1903 402.136 78.8381 401.83C78.4896 401.519 78.0199 401.364 77.429 401.364C76.9063 401.364 76.4479 401.5 76.054 401.773C75.6638 402.042 75.3589 402.422 75.1392 402.915C74.9233 403.403 74.8153 403.977 74.8153 404.636C74.8153 405.311 74.9214 405.898 75.1335 406.398C75.3494 406.898 75.6525 407.286 76.0426 407.562C76.4366 407.839 76.8987 407.977 77.429 407.977C77.7775 407.977 78.0938 407.917 78.3778 407.795C78.6619 407.674 78.9025 407.5 79.0994 407.273C79.2964 407.045 79.4366 406.773 79.5199 406.455H80.8608C80.785 406.97 80.5975 407.434 80.2983 407.847C80.0028 408.256 79.6108 408.581 79.1222 408.824C78.6373 409.062 78.0729 409.182 77.429 409.182ZM86.3665 409.182C85.5786 409.182 84.8873 408.994 84.2926 408.619C83.7017 408.244 83.2396 407.72 82.9062 407.045C82.5767 406.371 82.4119 405.583 82.4119 404.682C82.4119 403.773 82.5767 402.979 82.9062 402.301C83.2396 401.623 83.7017 401.097 84.2926 400.722C84.8873 400.347 85.5786 400.159 86.3665 400.159C87.1544 400.159 87.8438 400.347 88.4347 400.722C89.0294 401.097 89.4915 401.623 89.821 402.301C90.1544 402.979 90.321 403.773 90.321 404.682C90.321 405.583 90.1544 406.371 89.821 407.045C89.4915 407.72 89.0294 408.244 88.4347 408.619C87.8438 408.994 87.1544 409.182 86.3665 409.182ZM86.3665 407.977C86.965 407.977 87.4574 407.824 87.8438 407.517C88.2301 407.21 88.5161 406.807 88.7017 406.307C88.8873 405.807 88.9801 405.265 88.9801 404.682C88.9801 404.098 88.8873 403.555 88.7017 403.051C88.5161 402.547 88.2301 402.14 87.8438 401.83C87.4574 401.519 86.965 401.364 86.3665 401.364C85.768 401.364 85.2756 401.519 84.8892 401.83C84.5028 402.14 84.2169 402.547 84.0312 403.051C83.8456 403.555 83.7528 404.098 83.7528 404.682C83.7528 405.265 83.8456 405.807 84.0312 406.307C84.2169 406.807 84.5028 407.21 84.8892 407.517C85.2756 407.824 85.768 407.977 86.3665 407.977ZM93.7088 403.75V409H92.3679V400.273H93.6634V401.636H93.777C93.9815 401.193 94.2921 400.837 94.7088 400.568C95.1255 400.295 95.6634 400.159 96.3224 400.159C96.9134 400.159 97.4304 400.28 97.8736 400.523C98.3168 400.761 98.6615 401.125 98.9077 401.614C99.1539 402.098 99.277 402.712 99.277 403.455V409H97.9361V403.545C97.9361 402.86 97.758 402.326 97.402 401.943C97.0459 401.557 96.5573 401.364 95.9361 401.364C95.508 401.364 95.1255 401.456 94.7884 401.642C94.455 401.828 94.1918 402.098 93.9986 402.455C93.8054 402.811 93.7088 403.242 93.7088 403.75ZM103.068 403.75V409H101.727V400.273H103.023V401.636H103.136C103.341 401.193 103.652 400.837 104.068 400.568C104.485 400.295 105.023 400.159 105.682 400.159C106.273 400.159 106.79 400.28 107.233 400.523C107.676 400.761 108.021 401.125 108.267 401.614C108.513 402.098 108.636 402.712 108.636 403.455V409H107.295V403.545C107.295 402.86 107.117 402.326 106.761 401.943C106.405 401.557 105.917 401.364 105.295 401.364C104.867 401.364 104.485 401.456 104.148 401.642C103.814 401.828 103.551 402.098 103.358 402.455C103.165 402.811 103.068 403.242 103.068 403.75ZM114.746 409.182C113.905 409.182 113.179 408.996 112.57 408.625C111.964 408.25 111.496 407.727 111.166 407.057C110.84 406.383 110.678 405.598 110.678 404.705C110.678 403.811 110.84 403.023 111.166 402.341C111.496 401.655 111.954 401.121 112.541 400.739C113.132 400.352 113.821 400.159 114.609 400.159C115.064 400.159 115.513 400.235 115.956 400.386C116.399 400.538 116.803 400.784 117.166 401.125C117.53 401.462 117.82 401.909 118.036 402.466C118.251 403.023 118.359 403.708 118.359 404.523V405.091H111.632V403.932H116.996C116.996 403.439 116.897 403 116.7 402.614C116.507 402.227 116.231 401.922 115.871 401.699C115.515 401.475 115.094 401.364 114.609 401.364C114.075 401.364 113.613 401.496 113.223 401.761C112.837 402.023 112.539 402.364 112.331 402.784C112.123 403.205 112.018 403.655 112.018 404.136V404.909C112.018 405.568 112.132 406.127 112.359 406.585C112.59 407.04 112.911 407.386 113.32 407.625C113.729 407.86 114.204 407.977 114.746 407.977C115.098 407.977 115.416 407.928 115.7 407.83C115.988 407.727 116.236 407.576 116.445 407.375C116.653 407.17 116.814 406.917 116.928 406.614L118.223 406.977C118.087 407.417 117.857 407.803 117.536 408.136C117.214 408.466 116.816 408.723 116.342 408.909C115.869 409.091 115.337 409.182 114.746 409.182ZM123.945 409.182C123.126 409.182 122.422 408.989 121.831 408.602C121.24 408.216 120.786 407.684 120.467 407.006C120.149 406.328 119.99 405.553 119.99 404.682C119.99 403.795 120.153 403.013 120.479 402.335C120.808 401.653 121.267 401.121 121.854 400.739C122.445 400.352 123.134 400.159 123.922 400.159C124.536 400.159 125.089 400.273 125.581 400.5C126.073 400.727 126.477 401.045 126.791 401.455C127.106 401.864 127.301 402.341 127.376 402.886H126.036C125.933 402.489 125.706 402.136 125.354 401.83C125.005 401.519 124.536 401.364 123.945 401.364C123.422 401.364 122.964 401.5 122.57 401.773C122.179 402.042 121.875 402.422 121.655 402.915C121.439 403.403 121.331 403.977 121.331 404.636C121.331 405.311 121.437 405.898 121.649 406.398C121.865 406.898 122.168 407.286 122.558 407.562C122.952 407.839 123.414 407.977 123.945 407.977C124.293 407.977 124.609 407.917 124.893 407.795C125.178 407.674 125.418 407.5 125.615 407.273C125.812 407.045 125.952 406.773 126.036 406.455H127.376C127.301 406.97 127.113 407.434 126.814 407.847C126.518 408.256 126.126 408.581 125.638 408.824C125.153 409.062 124.589 409.182 123.945 409.182ZM133.132 400.273V401.409H128.609V400.273H133.132ZM129.928 398.182H131.268V406.5C131.268 406.879 131.323 407.163 131.433 407.352C131.547 407.538 131.691 407.663 131.865 407.727C132.043 407.788 132.231 407.818 132.428 407.818C132.575 407.818 132.696 407.811 132.791 407.795C132.886 407.777 132.962 407.761 133.018 407.75L133.291 408.955C133.2 408.989 133.073 409.023 132.911 409.057C132.748 409.095 132.541 409.114 132.291 409.114C131.912 409.114 131.541 409.032 131.178 408.869C130.818 408.706 130.518 408.458 130.28 408.125C130.045 407.792 129.928 407.371 129.928 406.864V398.182ZM142.217 409.205C141.664 409.205 141.162 409.1 140.712 408.892C140.261 408.68 139.903 408.375 139.638 407.977C139.373 407.576 139.24 407.091 139.24 406.523C139.24 406.023 139.339 405.617 139.536 405.307C139.732 404.992 139.996 404.746 140.325 404.568C140.655 404.39 141.018 404.258 141.416 404.17C141.818 404.08 142.221 404.008 142.626 403.955C143.157 403.886 143.587 403.835 143.916 403.801C144.25 403.763 144.492 403.701 144.643 403.614C144.799 403.527 144.876 403.375 144.876 403.159V403.114C144.876 402.553 144.723 402.117 144.416 401.807C144.113 401.496 143.653 401.341 143.036 401.341C142.395 401.341 141.893 401.481 141.53 401.761C141.166 402.042 140.911 402.341 140.763 402.659L139.49 402.205C139.717 401.674 140.02 401.261 140.399 400.966C140.782 400.667 141.198 400.458 141.649 400.341C142.104 400.22 142.551 400.159 142.99 400.159C143.27 400.159 143.592 400.193 143.956 400.261C144.323 400.326 144.678 400.46 145.018 400.665C145.363 400.869 145.649 401.178 145.876 401.591C146.104 402.004 146.217 402.557 146.217 403.25V409H144.876V407.818H144.808C144.717 408.008 144.566 408.21 144.354 408.426C144.142 408.642 143.859 408.826 143.507 408.977C143.155 409.129 142.725 409.205 142.217 409.205ZM142.422 408C142.952 408 143.399 407.896 143.763 407.688C144.13 407.479 144.407 407.21 144.592 406.881C144.782 406.551 144.876 406.205 144.876 405.841V404.614C144.82 404.682 144.695 404.744 144.501 404.801C144.312 404.854 144.092 404.902 143.842 404.943C143.596 404.981 143.356 405.015 143.121 405.045C142.89 405.072 142.702 405.095 142.558 405.114C142.21 405.159 141.884 405.233 141.581 405.335C141.282 405.434 141.039 405.583 140.854 405.784C140.672 405.981 140.581 406.25 140.581 406.591C140.581 407.057 140.753 407.409 141.098 407.648C141.446 407.883 141.888 408 142.422 408ZM150.006 403.75V409H148.665V400.273H149.96V401.636H150.074C150.278 401.193 150.589 400.837 151.006 400.568C151.422 400.295 151.96 400.159 152.619 400.159C153.21 400.159 153.727 400.28 154.17 400.523C154.614 400.761 154.958 401.125 155.205 401.614C155.451 402.098 155.574 402.712 155.574 403.455V409H154.233V403.545C154.233 402.86 154.055 402.326 153.699 401.943C153.343 401.557 152.854 401.364 152.233 401.364C151.805 401.364 151.422 401.456 151.085 401.642C150.752 401.828 150.489 402.098 150.295 402.455C150.102 402.811 150.006 403.242 150.006 403.75ZM161.32 409.182C160.592 409.182 159.95 408.998 159.393 408.631C158.837 408.259 158.401 407.737 158.087 407.062C157.772 406.384 157.615 405.583 157.615 404.659C157.615 403.742 157.772 402.947 158.087 402.273C158.401 401.598 158.839 401.078 159.399 400.71C159.96 400.343 160.607 400.159 161.342 400.159C161.911 400.159 162.359 400.254 162.689 400.443C163.022 400.629 163.276 400.841 163.45 401.08C163.628 401.314 163.767 401.508 163.865 401.659H163.979V397.364H165.32V409H164.024V407.659H163.865C163.767 407.818 163.626 408.019 163.445 408.261C163.263 408.5 163.003 408.714 162.666 408.903C162.329 409.089 161.88 409.182 161.32 409.182ZM161.501 407.977C162.039 407.977 162.494 407.837 162.865 407.557C163.236 407.273 163.518 406.881 163.712 406.381C163.905 405.877 164.001 405.295 164.001 404.636C164.001 403.985 163.907 403.415 163.717 402.926C163.528 402.434 163.248 402.051 162.876 401.778C162.505 401.502 162.047 401.364 161.501 401.364C160.933 401.364 160.46 401.509 160.081 401.801C159.706 402.089 159.424 402.481 159.234 402.977C159.049 403.47 158.956 404.023 158.956 404.636C158.956 405.258 159.051 405.822 159.24 406.33C159.433 406.833 159.717 407.235 160.092 407.534C160.471 407.83 160.941 407.977 161.501 407.977ZM178.643 402.227L177.439 402.568C177.363 402.367 177.251 402.172 177.104 401.983C176.96 401.79 176.763 401.631 176.513 401.506C176.263 401.381 175.943 401.318 175.553 401.318C175.018 401.318 174.573 401.441 174.217 401.688C173.865 401.93 173.689 402.239 173.689 402.614C173.689 402.947 173.81 403.21 174.053 403.403C174.295 403.597 174.674 403.758 175.189 403.886L176.484 404.205C177.265 404.394 177.846 404.684 178.229 405.074C178.611 405.46 178.803 405.958 178.803 406.568C178.803 407.068 178.659 407.515 178.371 407.909C178.087 408.303 177.689 408.614 177.178 408.841C176.666 409.068 176.071 409.182 175.393 409.182C174.503 409.182 173.767 408.989 173.183 408.602C172.6 408.216 172.231 407.652 172.075 406.909L173.348 406.591C173.469 407.061 173.698 407.413 174.036 407.648C174.376 407.883 174.821 408 175.371 408C175.996 408 176.492 407.867 176.859 407.602C177.231 407.333 177.416 407.011 177.416 406.636C177.416 406.333 177.31 406.08 177.098 405.875C176.886 405.667 176.56 405.511 176.121 405.409L174.666 405.068C173.867 404.879 173.28 404.585 172.905 404.188C172.534 403.786 172.348 403.284 172.348 402.682C172.348 402.189 172.486 401.754 172.763 401.375C173.043 400.996 173.424 400.699 173.905 400.483C174.39 400.267 174.939 400.159 175.553 400.159C176.416 400.159 177.094 400.348 177.587 400.727C178.083 401.106 178.435 401.606 178.643 402.227ZM184.48 409.182C183.639 409.182 182.914 408.996 182.304 408.625C181.698 408.25 181.23 407.727 180.901 407.057C180.575 406.383 180.412 405.598 180.412 404.705C180.412 403.811 180.575 403.023 180.901 402.341C181.23 401.655 181.688 401.121 182.276 400.739C182.866 400.352 183.556 400.159 184.344 400.159C184.798 400.159 185.247 400.235 185.69 400.386C186.134 400.538 186.537 400.784 186.901 401.125C187.264 401.462 187.554 401.909 187.77 402.466C187.986 403.023 188.094 403.708 188.094 404.523V405.091H181.366V403.932H186.73C186.73 403.439 186.632 403 186.435 402.614C186.241 402.227 185.965 401.922 185.605 401.699C185.249 401.475 184.829 401.364 184.344 401.364C183.81 401.364 183.348 401.496 182.957 401.761C182.571 402.023 182.274 402.364 182.065 402.784C181.857 403.205 181.753 403.655 181.753 404.136V404.909C181.753 405.568 181.866 406.127 182.094 406.585C182.325 407.04 182.645 407.386 183.054 407.625C183.463 407.86 183.938 407.977 184.48 407.977C184.832 407.977 185.151 407.928 185.435 407.83C185.723 407.727 185.971 407.576 186.179 407.375C186.387 407.17 186.548 406.917 186.662 406.614L187.957 406.977C187.821 407.417 187.592 407.803 187.27 408.136C186.948 408.466 186.55 408.723 186.077 408.909C185.603 409.091 185.071 409.182 184.48 409.182ZM191.474 403.75V409H190.134V400.273H191.429V401.636H191.543C191.747 401.193 192.058 400.837 192.474 400.568C192.891 400.295 193.429 400.159 194.088 400.159C194.679 400.159 195.196 400.28 195.639 400.523C196.082 400.761 196.427 401.125 196.673 401.614C196.92 402.098 197.043 402.712 197.043 403.455V409H195.702V403.545C195.702 402.86 195.524 402.326 195.168 401.943C194.812 401.557 194.323 401.364 193.702 401.364C193.274 401.364 192.891 401.456 192.554 401.642C192.221 401.828 191.957 402.098 191.764 402.455C191.571 402.811 191.474 403.242 191.474 403.75ZM202.788 409.182C202.061 409.182 201.419 408.998 200.862 408.631C200.305 408.259 199.87 407.737 199.555 407.062C199.241 406.384 199.084 405.583 199.084 404.659C199.084 403.742 199.241 402.947 199.555 402.273C199.87 401.598 200.307 401.078 200.868 400.71C201.429 400.343 202.076 400.159 202.811 400.159C203.379 400.159 203.828 400.254 204.158 400.443C204.491 400.629 204.745 400.841 204.919 401.08C205.097 401.314 205.235 401.508 205.334 401.659H205.447V397.364H206.788V409H205.493V407.659H205.334C205.235 407.818 205.095 408.019 204.913 408.261C204.732 408.5 204.472 408.714 204.135 408.903C203.798 409.089 203.349 409.182 202.788 409.182ZM202.97 407.977C203.508 407.977 203.963 407.837 204.334 407.557C204.705 407.273 204.987 406.881 205.18 406.381C205.374 405.877 205.47 405.295 205.47 404.636C205.47 403.985 205.375 403.415 205.186 402.926C204.997 402.434 204.716 402.051 204.345 401.778C203.974 401.502 203.516 401.364 202.97 401.364C202.402 401.364 201.929 401.509 201.55 401.801C201.175 402.089 200.893 402.481 200.703 402.977C200.518 403.47 200.425 404.023 200.425 404.636C200.425 405.258 200.519 405.822 200.709 406.33C200.902 406.833 201.186 407.235 201.561 407.534C201.94 407.83 202.41 407.977 202.97 407.977ZM210.408 409.091C210.127 409.091 209.887 408.991 209.686 408.79C209.485 408.589 209.385 408.348 209.385 408.068C209.385 407.788 209.485 407.547 209.686 407.347C209.887 407.146 210.127 407.045 210.408 407.045C210.688 407.045 210.929 407.146 211.129 407.347C211.33 407.547 211.43 407.788 211.43 408.068C211.43 408.254 211.383 408.424 211.288 408.58C211.197 408.735 211.074 408.86 210.919 408.955C210.768 409.045 210.597 409.091 210.408 409.091Z" fill="#0C0E0F"/>
<defs>
<clipPath id="clip0_158_1856">
<rect width="628" height="316" fill="white"/>
</clipPath>
<clipPath id="clip1_158_1856">
<rect width="505" height="287" fill="white" transform="translate(61 30)"/>
</clipPath>
</defs>
</svg>
