<svg width="628" height="460" viewBox="0 0 628 460" fill="none" xmlns="http://www.w3.org/2000/svg">
<rect x="0.5" y="0.5" width="627" height="459" rx="7.5" stroke="black" stroke-opacity="0.5"/>
<rect width="627" height="316" fill="#9896FF"/>
<rect x="25.5" y="44.5" width="575" height="95.0027" rx="7.5" fill="white"/>
<rect x="25.5" y="44.5" width="575" height="95.0027" rx="7.5" stroke="black"/>
<path opacity="0.3" d="M86.9003 71.2749H86.9008H93.8258V112.739C93.8258 114.747 93.0279 116.673 91.6077 118.094C90.1875 119.514 88.2613 120.312 86.2529 120.312H53.0729C51.0645 120.312 49.1382 119.514 47.718 118.094C46.2978 116.673 45.5 114.747 45.5 112.739V64.0729C45.5 62.0645 46.2978 60.1383 47.718 58.7181C49.1382 57.2979 51.0645 56.5 53.0729 56.5H80.2118V64.5889V64.5897C80.2144 66.3625 80.92 68.0619 82.1739 69.3152C83.4277 70.5685 85.1275 71.2732 86.9003 71.2749Z" fill="#FCFCFC" stroke="#0C0E0F"/>
<path d="M80.8614 64.5888V56.3842L93.9832 70.6249H86.9006C85.2999 70.6234 83.7651 69.987 82.633 68.8555C81.5009 67.7239 80.8638 66.1895 80.8614 64.5888Z" fill="#0C0E0F" stroke="#0C0E0F" stroke-width="0.299999"/>
<path d="M84.1797 80.9688H53.2052C52.9476 80.9681 52.7008 80.8654 52.5186 80.6832C52.3364 80.5011 52.2337 80.2542 52.233 79.9966C52.2331 79.7385 52.3354 79.491 52.5176 79.3083C52.6999 79.1256 52.9471 79.0226 53.2052 79.0218H84.1797C84.4378 79.0226 84.685 79.1256 84.8673 79.3083C85.0494 79.491 85.1518 79.7384 85.1519 79.9964C85.1512 80.2541 85.0485 80.501 84.8663 80.6832C84.6841 80.8654 84.4373 80.9681 84.1797 80.9688Z" fill="#0C0E0F" stroke="#0C0E0F" stroke-width="0.299999"/>
<path d="M84.1797 87.68H53.2052C52.9476 87.6793 52.7008 87.5766 52.5186 87.3944C52.3364 87.2122 52.2337 86.9654 52.233 86.7078C52.2331 86.4497 52.3354 86.2022 52.5176 86.0195C52.6999 85.8368 52.9471 85.7337 53.2052 85.733H84.1797C84.4378 85.7337 84.685 85.8368 84.8673 86.0195C85.0494 86.2021 85.1518 86.4496 85.1519 86.7076C85.1512 86.9653 85.0485 87.2122 84.8663 87.3944C84.6841 87.5766 84.4373 87.6793 84.1797 87.68Z" fill="#0C0E0F" stroke="#0C0E0F" stroke-width="0.299999"/>
<path d="M84.1797 94.3907H53.2052C52.9471 94.39 52.6999 94.2869 52.5176 94.1042C52.3354 93.9215 52.2331 93.674 52.233 93.4159C52.2337 93.1583 52.3364 92.9115 52.5186 92.7293C52.7008 92.5471 52.9476 92.4444 53.2052 92.4437H84.1797C84.4373 92.4444 84.6841 92.5471 84.8663 92.7293C85.0485 92.9115 85.1512 93.1584 85.1519 93.4161C85.1518 93.6741 85.0494 93.9216 84.8673 94.1042C84.685 94.2869 84.4377 94.39 84.1797 94.3907Z" fill="#0C0E0F" stroke="#0C0E0F" stroke-width="0.299999"/>
<path d="M84.1799 101.099H53.205C52.9472 101.099 52.7 100.997 52.5177 100.814C52.3354 100.632 52.233 100.385 52.233 100.127C52.233 99.8688 52.3354 99.6212 52.5176 99.4384C52.6999 99.2557 52.9471 99.1527 53.2052 99.152H84.1797C84.4378 99.1527 84.685 99.2557 84.8673 99.4384C85.0495 99.6212 85.1519 99.8688 85.1519 100.127C85.1519 100.385 85.0495 100.632 84.8672 100.814C84.6849 100.997 84.4377 101.099 84.1799 101.099Z" fill="#0C0E0F" stroke="#0C0E0F" stroke-width="0.299999"/>
<path d="M62.6703 107.333H100.182C102.76 107.333 104.85 109.423 104.85 112.001V123.185C104.85 125.763 102.76 127.853 100.182 127.853H62.6703C60.0922 127.853 58.0023 125.763 58.0023 123.185V112.001C58.0023 109.423 60.0922 107.333 62.6703 107.333Z" fill="#0C0E0F" stroke="#0C0E0F" stroke-width="0.299999"/>
<path d="M70.5179 120.164V122.045H68.5589V120.164H70.5179Z" fill="white" stroke="#0C0E0F" stroke-width="0.299999"/>
<path d="M73.6406 114.761H71.3636V113.324H78.1346V114.761H75.8336H75.6836V114.911V122.045H73.7906V114.911V114.761H73.6406Z" fill="white" stroke="#0C0E0F" stroke-width="0.299999"/>
<path d="M81.0546 122.045H78.9114L81.6522 117.63L81.7036 117.547L81.6489 117.466L78.835 113.324H81.0615L82.8678 115.976L83.0011 116.172L83.1211 115.968L84.6736 113.324H86.8039L84.1036 117.636L84.0517 117.719L84.1066 117.8L86.9839 122.045H84.7574L82.9 119.303L82.7662 119.105L82.6461 119.311L81.0546 122.045Z" fill="white" stroke="#0C0E0F" stroke-width="0.299999"/>
<path d="M89.9457 114.761H87.6717V113.324H94.4396V114.761H92.1417H91.9917V114.911V122.045H90.0957V114.911V114.761H89.9457Z" fill="white" stroke="#0C0E0F" stroke-width="0.299999"/>
<rect x="129" y="66.0012" width="374" height="52" rx="8" fill="white"/>
<rect x="145" y="82.0012" width="20" height="20" rx="10" fill="black" fill-opacity="0.05"/>
<rect x="173" y="82.0012" width="72" height="20" rx="10" fill="black" fill-opacity="0.05"/>
<rect x="253" y="82.0027" width="237" height="20" rx="10" fill="black" fill-opacity="0.05"/>
<g clip-path="url(#clip0_158_1948)">
<g clip-path="url(#clip1_158_1948)">
<path d="M559.205 60.4702L558.769 61.9543V105.02L559.205 105.456L579.196 93.6398L559.205 60.4702Z" fill="#343434"/>
<path d="M559.206 60.4702L539.215 93.6398L559.206 105.457V84.5535V60.4702Z" fill="#8C8C8C"/>
<path d="M559.205 109.241L558.959 109.541V124.883L559.205 125.601L579.208 97.4309L559.205 109.241Z" fill="#3C3C3B"/>
<path d="M559.206 125.601V109.241L539.215 97.4304L559.206 125.601Z" fill="#8C8C8C"/>
<path d="M559.205 105.456L579.196 93.64L559.205 84.5537V105.456Z" fill="#141414"/>
<path d="M539.215 93.64L559.206 105.456V84.5537L539.215 93.64Z" fill="#393939"/>
</g>
</g>
<path d="M564.08 88.9524V89.4604H564.588C566.034 89.4604 567.127 90.5536 567.127 92V99.1112C567.127 100.558 566.034 101.651 564.588 101.651H554.429C552.983 101.651 551.889 100.558 551.889 99.1112V92C551.889 90.5536 552.983 89.4604 554.429 89.4604H554.937V88.9524V86.9207C554.937 84.3568 556.944 82.3492 559.508 82.3492C562.072 82.3492 564.08 84.3568 564.08 86.9207V88.9524ZM562.556 89.4604H563.064V88.9524V86.9207C563.064 84.9132 561.516 83.3651 559.508 83.3651C557.501 83.3651 555.953 84.9132 555.953 86.9207V88.9524V89.4604H556.461H562.556ZM561.032 97.0794V95.8659C561.807 95.0345 561.66 93.7251 560.867 93.0471C560.016 92.2141 558.788 92.4081 558.032 93.1647C557.239 93.9576 557.351 95.0865 557.985 95.8529V97.0794C557.985 97.4996 558.127 97.8892 558.413 98.1751C558.699 98.4609 559.088 98.6032 559.508 98.6032C559.929 98.6032 560.318 98.4609 560.604 98.1751C560.89 97.8892 561.032 97.4996 561.032 97.0794Z" fill="#0C0E0F" stroke="white" stroke-width="1.01587"/>
<rect x="25.5" y="175.503" width="575" height="95.0027" rx="7.5" fill="white"/>
<rect x="25.5" y="175.503" width="575" height="95.0027" rx="7.5" stroke="black"/>
<path opacity="0.3" d="M86.9003 202.278H86.9008H93.8258V243.741C93.8258 245.75 93.0279 247.676 91.6077 249.096C90.1875 250.517 88.2613 251.314 86.2529 251.314H53.0729C51.0645 251.314 49.1382 250.517 47.718 249.096C46.2978 247.676 45.5 245.75 45.5 243.741V195.076C45.5 193.067 46.2978 191.141 47.718 189.721C49.1382 188.301 51.0645 187.503 53.0729 187.503H80.2118V195.592V195.592C80.2144 197.365 80.92 199.065 82.1739 200.318C83.4277 201.571 85.1275 202.276 86.9003 202.278Z" fill="#FCFCFC" stroke="#0C0E0F"/>
<path d="M80.8614 195.592V187.387L93.9832 201.628H86.9006C85.2999 201.626 83.7651 200.99 82.633 199.858C81.5009 198.727 80.8638 197.192 80.8614 195.592Z" fill="#0C0E0F" stroke="#0C0E0F" stroke-width="0.299999"/>
<path d="M84.1797 211.972H53.2052C52.9476 211.971 52.7008 211.868 52.5186 211.686C52.3364 211.504 52.2337 211.257 52.233 210.999C52.2331 210.741 52.3354 210.494 52.5176 210.311C52.6999 210.128 52.9471 210.025 53.2052 210.025H84.1797C84.4378 210.025 84.685 210.128 84.8673 210.311C85.0494 210.494 85.1518 210.741 85.1519 210.999C85.1512 211.257 85.0485 211.504 84.8663 211.686C84.6841 211.868 84.4373 211.971 84.1797 211.972Z" fill="#0C0E0F" stroke="#0C0E0F" stroke-width="0.299999"/>
<path d="M84.1797 218.683H53.2052C52.9476 218.682 52.7008 218.579 52.5186 218.397C52.3364 218.215 52.2337 217.968 52.233 217.71C52.2331 217.452 52.3354 217.205 52.5176 217.022C52.6999 216.839 52.9471 216.736 53.2052 216.736H84.1797C84.4378 216.736 84.685 216.839 84.8673 217.022C85.0494 217.205 85.1518 217.452 85.1519 217.71C85.1512 217.968 85.0485 218.215 84.8663 218.397C84.6841 218.579 84.4373 218.682 84.1797 218.683Z" fill="#0C0E0F" stroke="#0C0E0F" stroke-width="0.299999"/>
<path d="M84.1797 225.393H53.2052C52.9471 225.393 52.6999 225.29 52.5176 225.107C52.3354 224.924 52.2331 224.677 52.233 224.419C52.2337 224.161 52.3364 223.914 52.5186 223.732C52.7008 223.55 52.9476 223.447 53.2052 223.446H84.1797C84.4373 223.447 84.6841 223.55 84.8663 223.732C85.0485 223.914 85.1512 224.161 85.1519 224.419C85.1518 224.677 85.0494 224.924 84.8673 225.107C84.685 225.29 84.4377 225.393 84.1797 225.393Z" fill="#0C0E0F" stroke="#0C0E0F" stroke-width="0.299999"/>
<path d="M84.1799 232.102H53.205C52.9472 232.102 52.7 231.999 52.5177 231.817C52.3354 231.635 52.233 231.387 52.233 231.13C52.233 230.871 52.3354 230.624 52.5176 230.441C52.6999 230.258 52.9471 230.155 53.2052 230.155H84.1797C84.4378 230.155 84.685 230.258 84.8673 230.441C85.0495 230.624 85.1519 230.871 85.1519 231.13C85.1519 231.387 85.0495 231.635 84.8672 231.817C84.6849 231.999 84.4377 232.102 84.1799 232.102Z" fill="#0C0E0F" stroke="#0C0E0F" stroke-width="0.299999"/>
<path d="M62.6703 238.335H100.182C102.76 238.335 104.85 240.425 104.85 243.003V254.187C104.85 256.765 102.76 258.855 100.182 258.855H62.6703C60.0922 258.855 58.0023 256.765 58.0023 254.187V243.003C58.0023 240.425 60.0922 238.335 62.6703 238.335Z" fill="#0C0E0F" stroke="#0C0E0F" stroke-width="0.299999"/>
<path d="M70.5179 251.166V253.047H68.5589V251.166H70.5179Z" fill="white" stroke="#0C0E0F" stroke-width="0.299999"/>
<path d="M73.6406 245.764H71.3636V244.327H78.1346V245.764H75.8336H75.6836V245.914V253.047H73.7906V245.914V245.764H73.6406Z" fill="white" stroke="#0C0E0F" stroke-width="0.299999"/>
<path d="M81.0546 253.047H78.9114L81.6522 248.633L81.7036 248.55L81.6489 248.469L78.835 244.327H81.0615L82.8678 246.979L83.0011 247.175L83.1211 246.97L84.6736 244.327H86.8039L84.1036 248.639L84.0517 248.722L84.1066 248.803L86.9839 253.047H84.7574L82.9 250.305L82.7662 250.108L82.6461 250.314L81.0546 253.047Z" fill="white" stroke="#0C0E0F" stroke-width="0.299999"/>
<path d="M89.9457 245.764H87.6717V244.327H94.4396V245.764H92.1417H91.9917V245.914V253.047H90.0957V245.914V245.764H89.9457Z" fill="white" stroke="#0C0E0F" stroke-width="0.299999"/>
<rect x="129" y="197.004" width="374" height="52" rx="8" fill="white"/>
<rect x="145" y="213.004" width="20" height="20" rx="10" fill="black"/>
<rect x="173" y="213.004" width="72" height="20" rx="10" fill="black" fill-opacity="0.05"/>
<rect x="253" y="213.005" width="237" height="20" rx="10" fill="black" fill-opacity="0.05"/>
<g clip-path="url(#clip2_158_1948)">
<g clip-path="url(#clip3_158_1948)">
<path d="M559.205 191.473L558.769 192.957V236.023L559.205 236.459L579.196 224.643L559.205 191.473Z" fill="#343434"/>
<path d="M559.206 191.473L539.215 224.643L559.206 236.459V215.556V191.473Z" fill="#8C8C8C"/>
<path d="M559.205 240.244L558.959 240.544V255.885L559.205 256.604L579.208 228.434L559.205 240.244Z" fill="#3C3C3B"/>
<path d="M559.206 256.604V240.244L539.215 228.433L559.206 256.604Z" fill="#8C8C8C"/>
<path d="M559.205 236.459L579.196 224.643L559.205 215.556V236.459Z" fill="#141414"/>
<path d="M539.215 224.643L559.206 236.459V215.556L539.215 224.643Z" fill="#393939"/>
</g>
</g>
<path d="M564.08 219.955V220.463H564.588C566.034 220.463 567.127 221.556 567.127 223.003V230.114C567.127 231.56 566.034 232.654 564.588 232.654H554.429C552.983 232.654 551.889 231.56 551.889 230.114V223.003C551.889 221.556 552.983 220.463 554.429 220.463H554.937V219.955V217.923C554.937 215.359 556.944 213.352 559.508 213.352C562.072 213.352 564.08 215.359 564.08 217.923V219.955ZM562.556 220.463H563.064V219.955V217.923C563.064 215.916 561.516 214.368 559.508 214.368C557.501 214.368 555.953 215.916 555.953 217.923V219.955V220.463H556.461H562.556ZM561.032 228.082V226.869C561.807 226.037 561.66 224.728 560.867 224.05C560.016 223.217 558.788 223.411 558.032 224.167C557.239 224.96 557.351 226.089 557.985 226.856V228.082C557.985 228.502 558.127 228.892 558.413 229.178C558.699 229.464 559.088 229.606 559.508 229.606C559.929 229.606 560.318 229.464 560.604 229.178C560.89 228.892 561.032 228.502 561.032 228.082Z" fill="#0C0E0F" stroke="white" stroke-width="1.01587"/>
<path d="M52.0938 364C52.0938 365.745 51.763 367.229 51.1016 368.453C50.4453 369.677 49.5495 370.612 48.4141 371.258C47.2839 371.898 46.013 372.219 44.6016 372.219C43.1797 372.219 41.9036 371.896 40.7734 371.25C39.6432 370.604 38.75 369.669 38.0938 368.445C37.4375 367.221 37.1094 365.74 37.1094 364C37.1094 362.255 37.4375 360.771 38.0938 359.547C38.75 358.323 39.6432 357.391 40.7734 356.75C41.9036 356.104 43.1797 355.781 44.6016 355.781C46.013 355.781 47.2839 356.104 48.4141 356.75C49.5495 357.391 50.4453 358.323 51.1016 359.547C51.763 360.771 52.0938 362.255 52.0938 364ZM48.6641 364C48.6641 362.87 48.4948 361.917 48.1562 361.141C47.8229 360.365 47.3516 359.776 46.7422 359.375C46.1328 358.974 45.4193 358.773 44.6016 358.773C43.7839 358.773 43.0703 358.974 42.4609 359.375C41.8516 359.776 41.3776 360.365 41.0391 361.141C40.7057 361.917 40.5391 362.87 40.5391 364C40.5391 365.13 40.7057 366.083 41.0391 366.859C41.3776 367.635 41.8516 368.224 42.4609 368.625C43.0703 369.026 43.7839 369.227 44.6016 369.227C45.4193 369.227 46.1328 369.026 46.7422 368.625C47.3516 368.224 47.8229 367.635 48.1562 366.859C48.4948 366.083 48.6641 365.13 48.6641 364ZM57.8652 365.063V372H54.5371V360H57.709V362.117H57.8496C58.1152 361.419 58.5605 360.867 59.1855 360.461C59.8105 360.049 60.5684 359.844 61.459 359.844C62.2923 359.844 63.0189 360.026 63.6387 360.391C64.2585 360.755 64.7402 361.276 65.084 361.953C65.4277 362.625 65.5996 363.427 65.5996 364.359V372H62.2715V364.953C62.2767 364.219 62.0892 363.646 61.709 363.234C61.3288 362.818 60.8053 362.609 60.1387 362.609C59.6908 362.609 59.2949 362.706 58.9512 362.898C58.6126 363.091 58.347 363.372 58.1543 363.742C57.9668 364.107 57.8704 364.547 57.8652 365.063ZM75.6992 364.109V366.75H68.4023V364.109H75.6992ZM92.7148 361.602H89.293C89.2305 361.159 89.1029 360.766 88.9102 360.422C88.7174 360.073 88.4701 359.776 88.168 359.531C87.8659 359.286 87.5169 359.099 87.1211 358.969C86.7305 358.839 86.306 358.773 85.8477 358.773C85.0195 358.773 84.2982 358.979 83.6836 359.391C83.069 359.797 82.5924 360.391 82.2539 361.172C81.9154 361.948 81.7461 362.891 81.7461 364C81.7461 365.141 81.9154 366.099 82.2539 366.875C82.5977 367.651 83.0768 368.237 83.6914 368.633C84.306 369.029 85.0169 369.227 85.8242 369.227C86.2773 369.227 86.6966 369.167 87.082 369.047C87.4727 368.927 87.819 368.753 88.1211 368.523C88.4232 368.289 88.6732 368.005 88.8711 367.672C89.0742 367.339 89.2148 366.958 89.293 366.531L92.7148 366.547C92.6263 367.281 92.4049 367.99 92.0508 368.672C91.7018 369.349 91.2305 369.956 90.6367 370.492C90.0482 371.023 89.3451 371.445 88.5273 371.758C87.7148 372.065 86.7956 372.219 85.7695 372.219C84.3424 372.219 83.0664 371.896 81.9414 371.25C80.8216 370.604 79.9362 369.669 79.2852 368.445C78.6393 367.221 78.3164 365.74 78.3164 364C78.3164 362.255 78.6445 360.771 79.3008 359.547C79.957 358.323 80.8477 357.391 81.9727 356.75C83.0977 356.104 84.3633 355.781 85.7695 355.781C86.6966 355.781 87.556 355.911 88.3477 356.172C89.1445 356.432 89.8503 356.812 90.4648 357.312C91.0794 357.807 91.5794 358.414 91.9648 359.133C92.3555 359.852 92.6055 360.674 92.7148 361.602ZM98.4063 365.063V372H95.0781V356H98.3125V362.117H98.4531C98.724 361.409 99.1615 360.854 99.7656 360.453C100.37 360.047 101.128 359.844 102.039 359.844C102.872 359.844 103.599 360.026 104.219 360.391C104.844 360.75 105.328 361.268 105.672 361.945C106.021 362.617 106.193 363.422 106.188 364.359V372H102.859V364.953C102.865 364.214 102.677 363.638 102.297 363.227C101.922 362.815 101.396 362.609 100.719 362.609C100.266 362.609 99.8646 362.706 99.5156 362.898C99.1719 363.091 98.901 363.372 98.7031 363.742C98.5104 364.107 98.4115 364.547 98.4063 365.063ZM112.229 372.227C111.463 372.227 110.781 372.094 110.182 371.828C109.583 371.557 109.109 371.159 108.76 370.633C108.416 370.102 108.244 369.44 108.244 368.648C108.244 367.982 108.367 367.422 108.611 366.969C108.856 366.516 109.189 366.151 109.611 365.875C110.033 365.599 110.512 365.391 111.049 365.25C111.59 365.109 112.158 365.01 112.752 364.953C113.45 364.88 114.012 364.812 114.439 364.75C114.867 364.682 115.176 364.583 115.369 364.453C115.562 364.323 115.658 364.13 115.658 363.875V363.828C115.658 363.333 115.502 362.951 115.189 362.68C114.882 362.409 114.445 362.273 113.877 362.273C113.278 362.273 112.801 362.406 112.447 362.672C112.093 362.932 111.859 363.26 111.744 363.656L108.666 363.406C108.822 362.677 109.13 362.047 109.588 361.516C110.046 360.979 110.637 360.568 111.361 360.281C112.09 359.99 112.934 359.844 113.893 359.844C114.559 359.844 115.197 359.922 115.807 360.078C116.421 360.234 116.965 360.477 117.439 360.805C117.919 361.133 118.296 361.555 118.572 362.07C118.848 362.581 118.986 363.193 118.986 363.906V372H115.83V370.336H115.736C115.544 370.711 115.286 371.042 114.963 371.328C114.64 371.609 114.252 371.831 113.799 371.992C113.346 372.148 112.822 372.227 112.229 372.227ZM113.182 369.93C113.671 369.93 114.104 369.833 114.479 369.641C114.854 369.443 115.148 369.177 115.361 368.844C115.575 368.51 115.682 368.133 115.682 367.711V366.438C115.577 366.505 115.434 366.568 115.252 366.625C115.075 366.677 114.874 366.727 114.65 366.773C114.426 366.815 114.202 366.854 113.979 366.891C113.755 366.922 113.551 366.951 113.369 366.977C112.979 367.034 112.637 367.125 112.346 367.25C112.054 367.375 111.827 367.544 111.666 367.758C111.505 367.966 111.424 368.227 111.424 368.539C111.424 368.992 111.588 369.339 111.916 369.578C112.249 369.812 112.671 369.93 113.182 369.93ZM121.568 372V360H124.896V372H121.568ZM123.24 358.453C122.745 358.453 122.321 358.289 121.967 357.961C121.618 357.628 121.443 357.229 121.443 356.766C121.443 356.307 121.618 355.914 121.967 355.586C122.321 355.253 122.745 355.086 123.24 355.086C123.735 355.086 124.157 355.253 124.506 355.586C124.86 355.914 125.037 356.307 125.037 356.766C125.037 357.229 124.86 357.628 124.506 357.961C124.157 358.289 123.735 358.453 123.24 358.453ZM130.891 365.063V372H127.563V360H130.734V362.117H130.875C131.141 361.419 131.586 360.867 132.211 360.461C132.836 360.049 133.594 359.844 134.484 359.844C135.318 359.844 136.044 360.026 136.664 360.391C137.284 360.755 137.766 361.276 138.109 361.953C138.453 362.625 138.625 363.427 138.625 364.359V372H135.297V364.953C135.302 364.219 135.115 363.646 134.734 363.234C134.354 362.818 133.831 362.609 133.164 362.609C132.716 362.609 132.32 362.706 131.977 362.898C131.638 363.091 131.372 363.372 131.18 363.742C130.992 364.107 130.896 364.547 130.891 365.063ZM144.865 369.812L144.779 370.672C144.712 371.359 144.581 372.044 144.389 372.727C144.201 373.414 144.003 374.036 143.795 374.594C143.592 375.151 143.428 375.589 143.303 375.906H141.146C141.225 375.599 141.331 375.169 141.467 374.617C141.602 374.07 141.73 373.456 141.85 372.773C141.969 372.091 142.045 371.396 142.076 370.687L142.115 369.812H144.865ZM152.311 372V356H158.623C159.837 356 160.87 356.232 161.725 356.695C162.579 357.154 163.23 357.792 163.678 358.609C164.131 359.422 164.357 360.359 164.357 361.422C164.357 362.484 164.128 363.422 163.67 364.234C163.212 365.047 162.548 365.68 161.678 366.133C160.813 366.586 159.766 366.812 158.537 366.812H154.514V364.102H157.99C158.641 364.102 159.178 363.99 159.6 363.766C160.027 363.536 160.344 363.221 160.553 362.82C160.766 362.414 160.873 361.948 160.873 361.422C160.873 360.891 160.766 360.427 160.553 360.031C160.344 359.63 160.027 359.32 159.6 359.102C159.173 358.878 158.631 358.766 157.975 358.766H155.693V372H152.311ZM171.768 372.234C170.533 372.234 169.471 371.984 168.58 371.484C167.695 370.979 167.012 370.266 166.533 369.344C166.054 368.417 165.814 367.32 165.814 366.055C165.814 364.82 166.054 363.737 166.533 362.805C167.012 361.872 167.687 361.146 168.557 360.625C169.432 360.104 170.458 359.844 171.635 359.844C172.426 359.844 173.163 359.971 173.846 360.227C174.533 360.477 175.132 360.854 175.643 361.359C176.158 361.865 176.559 362.5 176.846 363.266C177.132 364.026 177.275 364.917 177.275 365.937V366.852H167.143V364.789H174.143C174.143 364.31 174.038 363.885 173.83 363.516C173.622 363.146 173.333 362.857 172.963 362.648C172.598 362.435 172.174 362.328 171.689 362.328C171.184 362.328 170.736 362.445 170.346 362.68C169.96 362.909 169.658 363.219 169.439 363.609C169.221 363.995 169.109 364.424 169.104 364.898V366.859C169.104 367.453 169.213 367.966 169.432 368.398C169.656 368.831 169.971 369.164 170.377 369.398C170.783 369.633 171.265 369.75 171.822 369.75C172.192 369.75 172.531 369.698 172.838 369.594C173.145 369.49 173.408 369.333 173.627 369.125C173.846 368.917 174.012 368.661 174.127 368.359L177.205 368.562C177.049 369.302 176.729 369.948 176.244 370.5C175.765 371.047 175.145 371.474 174.385 371.781C173.63 372.083 172.757 372.234 171.768 372.234ZM179.447 372V360H182.674V362.094H182.799C183.018 361.349 183.385 360.786 183.9 360.406C184.416 360.021 185.01 359.828 185.682 359.828C185.848 359.828 186.028 359.839 186.221 359.859C186.413 359.88 186.583 359.909 186.729 359.945V362.898C186.572 362.852 186.356 362.81 186.08 362.773C185.804 362.737 185.551 362.719 185.322 362.719C184.833 362.719 184.395 362.826 184.01 363.039C183.63 363.247 183.327 363.539 183.104 363.914C182.885 364.289 182.775 364.721 182.775 365.211V372H179.447ZM188.449 372V360H191.621V362.117H191.762C192.012 361.414 192.428 360.859 193.012 360.453C193.595 360.047 194.293 359.844 195.105 359.844C195.928 359.844 196.629 360.049 197.207 360.461C197.785 360.867 198.171 361.419 198.363 362.117H198.488C198.733 361.43 199.176 360.88 199.816 360.469C200.462 360.052 201.225 359.844 202.105 359.844C203.225 359.844 204.134 360.201 204.832 360.914C205.535 361.622 205.887 362.628 205.887 363.93V372H202.566V364.586C202.566 363.919 202.389 363.419 202.035 363.086C201.681 362.753 201.238 362.586 200.707 362.586C200.103 362.586 199.632 362.779 199.293 363.164C198.954 363.544 198.785 364.047 198.785 364.672V372H195.559V364.516C195.559 363.927 195.389 363.458 195.051 363.109C194.717 362.76 194.277 362.586 193.73 362.586C193.361 362.586 193.027 362.68 192.73 362.867C192.439 363.049 192.207 363.307 192.035 363.641C191.863 363.969 191.777 364.354 191.777 364.797V372H188.449ZM211.938 372.227C211.172 372.227 210.49 372.094 209.891 371.828C209.292 371.557 208.818 371.159 208.469 370.633C208.125 370.102 207.953 369.44 207.953 368.648C207.953 367.982 208.076 367.422 208.32 366.969C208.565 366.516 208.898 366.151 209.32 365.875C209.742 365.599 210.221 365.391 210.758 365.25C211.299 365.109 211.867 365.01 212.461 364.953C213.159 364.88 213.721 364.812 214.148 364.75C214.576 364.682 214.885 364.583 215.078 364.453C215.271 364.323 215.367 364.13 215.367 363.875V363.828C215.367 363.333 215.211 362.951 214.898 362.68C214.591 362.409 214.154 362.273 213.586 362.273C212.987 362.273 212.51 362.406 212.156 362.672C211.802 362.932 211.568 363.26 211.453 363.656L208.375 363.406C208.531 362.677 208.839 362.047 209.297 361.516C209.755 360.979 210.346 360.568 211.07 360.281C211.799 359.99 212.643 359.844 213.602 359.844C214.268 359.844 214.906 359.922 215.516 360.078C216.13 360.234 216.674 360.477 217.148 360.805C217.628 361.133 218.005 361.555 218.281 362.07C218.557 362.581 218.695 363.193 218.695 363.906V372H215.539V370.336H215.445C215.253 370.711 214.995 371.042 214.672 371.328C214.349 371.609 213.961 371.831 213.508 371.992C213.055 372.148 212.531 372.227 211.938 372.227ZM212.891 369.93C213.38 369.93 213.813 369.833 214.187 369.641C214.562 369.443 214.857 369.177 215.07 368.844C215.284 368.51 215.391 368.133 215.391 367.711V366.438C215.286 366.505 215.143 366.568 214.961 366.625C214.784 366.677 214.583 366.727 214.359 366.773C214.135 366.815 213.911 366.854 213.688 366.891C213.464 366.922 213.26 366.951 213.078 366.977C212.688 367.034 212.346 367.125 212.055 367.25C211.763 367.375 211.536 367.544 211.375 367.758C211.214 367.966 211.133 368.227 211.133 368.539C211.133 368.992 211.297 369.339 211.625 369.578C211.958 369.812 212.38 369.93 212.891 369.93ZM224.605 365.063V372H221.277V360H224.449V362.117H224.59C224.855 361.419 225.301 360.867 225.926 360.461C226.551 360.049 227.309 359.844 228.199 359.844C229.033 359.844 229.759 360.026 230.379 360.391C230.999 360.755 231.48 361.276 231.824 361.953C232.168 362.625 232.34 363.427 232.34 364.359V372H229.012V364.953C229.017 364.219 228.829 363.646 228.449 363.234C228.069 362.818 227.546 362.609 226.879 362.609C226.431 362.609 226.035 362.706 225.691 362.898C225.353 363.091 225.087 363.372 224.895 363.742C224.707 364.107 224.611 364.547 224.605 365.063ZM240.432 372.234C239.197 372.234 238.135 371.984 237.244 371.484C236.359 370.979 235.676 370.266 235.197 369.344C234.718 368.417 234.479 367.32 234.479 366.055C234.479 364.82 234.718 363.737 235.197 362.805C235.676 361.872 236.351 361.146 237.221 360.625C238.096 360.104 239.122 359.844 240.299 359.844C241.09 359.844 241.827 359.971 242.51 360.227C243.197 360.477 243.796 360.854 244.307 361.359C244.822 361.865 245.223 362.5 245.51 363.266C245.796 364.026 245.939 364.917 245.939 365.937V366.852H235.807V364.789H242.807C242.807 364.31 242.702 363.885 242.494 363.516C242.286 363.146 241.997 362.857 241.627 362.648C241.262 362.435 240.838 362.328 240.354 362.328C239.848 362.328 239.4 362.445 239.01 362.68C238.624 362.909 238.322 363.219 238.104 363.609C237.885 363.995 237.773 364.424 237.768 364.898V366.859C237.768 367.453 237.877 367.966 238.096 368.398C238.32 368.831 238.635 369.164 239.041 369.398C239.447 369.633 239.929 369.75 240.486 369.75C240.856 369.75 241.195 369.698 241.502 369.594C241.809 369.49 242.072 369.333 242.291 369.125C242.51 368.917 242.676 368.661 242.791 368.359L245.869 368.562C245.713 369.302 245.393 369.948 244.908 370.5C244.429 371.047 243.809 371.474 243.049 371.781C242.294 372.083 241.421 372.234 240.432 372.234ZM251.439 365.063V372H248.111V360H251.283V362.117H251.424C251.689 361.419 252.135 360.867 252.76 360.461C253.385 360.049 254.143 359.844 255.033 359.844C255.867 359.844 256.593 360.026 257.213 360.391C257.833 360.755 258.314 361.276 258.658 361.953C259.002 362.625 259.174 363.427 259.174 364.359V372H255.846V364.953C255.851 364.219 255.663 363.646 255.283 363.234C254.903 362.818 254.38 362.609 253.713 362.609C253.265 362.609 252.869 362.706 252.525 362.898C252.187 363.091 251.921 363.372 251.729 363.742C251.541 364.107 251.445 364.547 251.439 365.063ZM268.18 360V362.5H260.953V360H268.18ZM262.594 357.125H265.922V368.312C265.922 368.62 265.969 368.859 266.063 369.031C266.156 369.198 266.286 369.315 266.453 369.383C266.625 369.451 266.823 369.484 267.047 369.484C267.203 369.484 267.359 369.471 267.516 369.445C267.672 369.414 267.792 369.391 267.875 369.375L268.398 371.852C268.232 371.904 267.997 371.964 267.695 372.031C267.393 372.104 267.026 372.148 266.594 372.164C265.792 372.195 265.089 372.089 264.484 371.844C263.885 371.599 263.419 371.219 263.086 370.703C262.753 370.187 262.589 369.536 262.594 368.75V357.125ZM280.346 372.234C279.242 372.234 278.288 372.036 277.486 371.641C276.684 371.245 276.067 370.708 275.635 370.031C275.208 369.349 274.994 368.589 274.994 367.75C274.994 367.125 275.119 366.57 275.369 366.086C275.619 365.602 275.968 365.156 276.416 364.75C276.864 364.339 277.385 363.93 277.979 363.523L281.08 361.484C281.481 361.229 281.775 360.961 281.963 360.68C282.15 360.393 282.244 360.083 282.244 359.75C282.244 359.432 282.117 359.138 281.861 358.867C281.606 358.596 281.244 358.464 280.775 358.469C280.463 358.469 280.192 358.539 279.963 358.68C279.734 358.815 279.554 358.995 279.424 359.219C279.299 359.437 279.236 359.682 279.236 359.953C279.236 360.286 279.33 360.625 279.518 360.969C279.705 361.312 279.955 361.677 280.268 362.062C280.58 362.443 280.921 362.854 281.291 363.297L288.877 372H285.408L279.08 364.953C278.663 364.479 278.247 363.984 277.83 363.469C277.419 362.948 277.075 362.396 276.799 361.812C276.523 361.224 276.385 360.586 276.385 359.898C276.385 359.122 276.564 358.424 276.924 357.805C277.288 357.185 277.799 356.695 278.455 356.336C279.111 355.971 279.877 355.789 280.752 355.789C281.606 355.789 282.343 355.964 282.963 356.312C283.588 356.656 284.067 357.115 284.4 357.687C284.739 358.255 284.908 358.88 284.908 359.562C284.908 360.318 284.721 361.003 284.346 361.617C283.976 362.227 283.455 362.773 282.783 363.258L279.518 365.609C279.075 365.932 278.747 366.263 278.533 366.602C278.325 366.935 278.221 367.255 278.221 367.562C278.221 367.943 278.314 368.284 278.502 368.586C278.689 368.888 278.955 369.128 279.299 369.305C279.643 369.477 280.046 369.562 280.51 369.562C281.072 369.562 281.627 369.435 282.174 369.18C282.726 368.919 283.226 368.552 283.674 368.078C284.127 367.599 284.489 367.031 284.76 366.375C285.031 365.719 285.166 364.992 285.166 364.195H287.924C287.924 365.174 287.817 366.057 287.604 366.844C287.39 367.625 287.093 368.307 286.713 368.891C286.333 369.469 285.898 369.943 285.408 370.312C285.252 370.411 285.101 370.505 284.955 370.594C284.809 370.682 284.658 370.776 284.502 370.875C283.908 371.354 283.244 371.701 282.51 371.914C281.781 372.128 281.059 372.234 280.346 372.234ZM304.098 360.602C304.035 359.971 303.767 359.482 303.293 359.133C302.819 358.784 302.176 358.609 301.363 358.609C300.811 358.609 300.345 358.687 299.965 358.844C299.585 358.995 299.293 359.206 299.09 359.477C298.892 359.747 298.793 360.055 298.793 360.398C298.783 360.685 298.842 360.935 298.973 361.148C299.108 361.362 299.293 361.547 299.527 361.703C299.762 361.854 300.033 361.987 300.34 362.102C300.647 362.211 300.975 362.305 301.324 362.383L302.762 362.727C303.46 362.883 304.1 363.091 304.684 363.352C305.267 363.612 305.772 363.932 306.199 364.312C306.626 364.693 306.957 365.141 307.191 365.656C307.431 366.172 307.553 366.763 307.559 367.43C307.553 368.409 307.303 369.258 306.809 369.977C306.319 370.69 305.611 371.245 304.684 371.641C303.762 372.031 302.65 372.227 301.348 372.227C300.056 372.227 298.931 372.029 297.973 371.633C297.02 371.237 296.275 370.651 295.738 369.875C295.207 369.094 294.928 368.128 294.902 366.977H298.176C298.212 367.513 298.366 367.961 298.637 368.32C298.913 368.674 299.28 368.943 299.738 369.125C300.202 369.302 300.725 369.391 301.309 369.391C301.882 369.391 302.379 369.307 302.801 369.141C303.228 368.974 303.559 368.742 303.793 368.445C304.027 368.148 304.145 367.807 304.145 367.422C304.145 367.062 304.038 366.76 303.824 366.516C303.616 366.271 303.309 366.062 302.902 365.891C302.501 365.719 302.009 365.562 301.426 365.422L299.684 364.984C298.335 364.656 297.27 364.143 296.488 363.445C295.707 362.747 295.319 361.807 295.324 360.625C295.319 359.656 295.577 358.81 296.098 358.086C296.624 357.362 297.345 356.797 298.262 356.391C299.178 355.984 300.22 355.781 301.387 355.781C302.574 355.781 303.611 355.984 304.496 356.391C305.387 356.797 306.079 357.362 306.574 358.086C307.069 358.81 307.324 359.648 307.34 360.602H304.098ZM315.24 372.234C314.006 372.234 312.943 371.984 312.053 371.484C311.167 370.979 310.485 370.266 310.006 369.344C309.527 368.417 309.287 367.32 309.287 366.055C309.287 364.82 309.527 363.737 310.006 362.805C310.485 361.872 311.16 361.146 312.029 360.625C312.904 360.104 313.93 359.844 315.107 359.844C315.899 359.844 316.636 359.971 317.318 360.227C318.006 360.477 318.605 360.854 319.115 361.359C319.631 361.865 320.032 362.5 320.318 363.266C320.605 364.026 320.748 364.917 320.748 365.937V366.852H310.615V364.789H317.615C317.615 364.31 317.511 363.885 317.303 363.516C317.094 363.146 316.805 362.857 316.436 362.648C316.071 362.435 315.646 362.328 315.162 362.328C314.657 362.328 314.209 362.445 313.818 362.68C313.433 362.909 313.131 363.219 312.912 363.609C312.693 363.995 312.581 364.424 312.576 364.898V366.859C312.576 367.453 312.686 367.966 312.904 368.398C313.128 368.831 313.443 369.164 313.85 369.398C314.256 369.633 314.738 369.75 315.295 369.75C315.665 369.75 316.003 369.698 316.311 369.594C316.618 369.49 316.881 369.333 317.1 369.125C317.318 368.917 317.485 368.661 317.6 368.359L320.678 368.562C320.521 369.302 320.201 369.948 319.717 370.5C319.238 371.047 318.618 371.474 317.857 371.781C317.102 372.083 316.23 372.234 315.24 372.234ZM328.342 372.234C327.113 372.234 326.055 371.974 325.17 371.453C324.29 370.927 323.613 370.198 323.139 369.266C322.67 368.333 322.436 367.26 322.436 366.047C322.436 364.818 322.673 363.74 323.146 362.812C323.626 361.88 324.305 361.154 325.186 360.633C326.066 360.107 327.113 359.844 328.326 359.844C329.373 359.844 330.29 360.034 331.076 360.414C331.863 360.794 332.485 361.328 332.943 362.016C333.402 362.703 333.654 363.51 333.701 364.438H330.561C330.472 363.839 330.238 363.357 329.857 362.992C329.482 362.622 328.99 362.437 328.381 362.437C327.865 362.437 327.415 362.578 327.029 362.859C326.649 363.135 326.352 363.539 326.139 364.07C325.925 364.602 325.818 365.245 325.818 366C325.818 366.766 325.923 367.417 326.131 367.953C326.344 368.49 326.644 368.898 327.029 369.18C327.415 369.461 327.865 369.602 328.381 369.602C328.761 369.602 329.102 369.523 329.404 369.367C329.712 369.211 329.964 368.984 330.162 368.687C330.365 368.385 330.498 368.023 330.561 367.602H333.701C333.649 368.518 333.399 369.326 332.951 370.023C332.508 370.716 331.896 371.258 331.115 371.648C330.334 372.039 329.41 372.234 328.342 372.234ZM343.527 366.891V360H346.855V372H343.66V369.82H343.535C343.264 370.523 342.814 371.089 342.184 371.516C341.559 371.943 340.796 372.156 339.895 372.156C339.092 372.156 338.387 371.974 337.777 371.609C337.168 371.245 336.691 370.727 336.348 370.055C336.009 369.383 335.837 368.578 335.832 367.641V360H339.16V367.047C339.165 367.755 339.355 368.315 339.73 368.727C340.105 369.138 340.608 369.344 341.238 369.344C341.639 369.344 342.014 369.253 342.363 369.07C342.712 368.883 342.993 368.607 343.207 368.242C343.426 367.878 343.533 367.427 343.527 366.891ZM349.518 372V360H352.744V362.094H352.869C353.088 361.349 353.455 360.786 353.971 360.406C354.486 360.021 355.08 359.828 355.752 359.828C355.919 359.828 356.098 359.839 356.291 359.859C356.484 359.88 356.653 359.909 356.799 359.945V362.898C356.643 362.852 356.426 362.81 356.15 362.773C355.874 362.737 355.622 362.719 355.393 362.719C354.903 362.719 354.465 362.826 354.08 363.039C353.7 363.247 353.398 363.539 353.174 363.914C352.955 364.289 352.846 364.721 352.846 365.211V372H349.518ZM363.43 372.234C362.195 372.234 361.133 371.984 360.242 371.484C359.357 370.979 358.674 370.266 358.195 369.344C357.716 368.417 357.477 367.32 357.477 366.055C357.477 364.82 357.716 363.737 358.195 362.805C358.674 361.872 359.349 361.146 360.219 360.625C361.094 360.104 362.12 359.844 363.297 359.844C364.089 359.844 364.826 359.971 365.508 360.227C366.195 360.477 366.794 360.854 367.305 361.359C367.82 361.865 368.221 362.5 368.508 363.266C368.794 364.026 368.938 364.917 368.938 365.937V366.852H358.805V364.789H365.805C365.805 364.31 365.701 363.885 365.492 363.516C365.284 363.146 364.995 362.857 364.625 362.648C364.26 362.435 363.836 362.328 363.352 362.328C362.846 362.328 362.398 362.445 362.008 362.68C361.622 362.909 361.32 363.219 361.102 363.609C360.883 363.995 360.771 364.424 360.766 364.898V366.859C360.766 367.453 360.875 367.966 361.094 368.398C361.318 368.831 361.633 369.164 362.039 369.398C362.445 369.633 362.927 369.75 363.484 369.75C363.854 369.75 364.193 369.698 364.5 369.594C364.807 369.49 365.07 369.333 365.289 369.125C365.508 368.917 365.674 368.661 365.789 368.359L368.867 368.562C368.711 369.302 368.391 369.948 367.906 370.5C367.427 371.047 366.807 371.474 366.047 371.781C365.292 372.083 364.419 372.234 363.43 372.234Z" fill="#0C0E0F"/>
<path d="M37.4091 397.364H39.0909L43.0455 407.023H43.1818L47.1364 397.364H48.8182V409H47.5V400.159H47.3864L43.75 409H42.4773L38.8409 400.159H38.7273V409H37.4091V397.364ZM55.1207 409.182C54.2798 409.182 53.5545 408.996 52.9446 408.625C52.3385 408.25 51.8707 407.727 51.5412 407.057C51.2154 406.383 51.0526 405.598 51.0526 404.705C51.0526 403.811 51.2154 403.023 51.5412 402.341C51.8707 401.655 52.3291 401.121 52.9162 400.739C53.5071 400.352 54.1965 400.159 54.9844 400.159C55.4389 400.159 55.8878 400.235 56.331 400.386C56.7741 400.538 57.1776 400.784 57.5412 401.125C57.9048 401.462 58.1946 401.909 58.4105 402.466C58.6264 403.023 58.7344 403.708 58.7344 404.523V405.091H52.0071V403.932H57.3707C57.3707 403.439 57.2723 403 57.0753 402.614C56.8821 402.227 56.6056 401.922 56.2457 401.699C55.8897 401.475 55.4692 401.364 54.9844 401.364C54.4503 401.364 53.9882 401.496 53.598 401.761C53.2116 402.023 52.9143 402.364 52.706 402.784C52.4976 403.205 52.3935 403.655 52.3935 404.136V404.909C52.3935 405.568 52.5071 406.127 52.7344 406.585C52.9654 407.04 53.2855 407.386 53.6946 407.625C54.1037 407.86 54.5791 407.977 55.1207 407.977C55.473 407.977 55.7912 407.928 56.0753 407.83C56.3632 407.727 56.6113 407.576 56.8196 407.375C57.0279 407.17 57.1889 406.917 57.3026 406.614L58.598 406.977C58.4616 407.417 58.2325 407.803 57.9105 408.136C57.5885 408.466 57.1908 408.723 56.7173 408.909C56.2438 409.091 55.7116 409.182 55.1207 409.182ZM66.956 402.227L65.7514 402.568C65.6757 402.367 65.5639 402.172 65.4162 401.983C65.2723 401.79 65.0753 401.631 64.8253 401.506C64.5753 401.381 64.2552 401.318 63.8651 401.318C63.331 401.318 62.8859 401.441 62.5298 401.688C62.1776 401.93 62.0014 402.239 62.0014 402.614C62.0014 402.947 62.1226 403.21 62.3651 403.403C62.6075 403.597 62.9863 403.758 63.5014 403.886L64.7969 404.205C65.5772 404.394 66.1586 404.684 66.5412 405.074C66.9238 405.46 67.1151 405.958 67.1151 406.568C67.1151 407.068 66.9711 407.515 66.6832 407.909C66.3991 408.303 66.0014 408.614 65.4901 408.841C64.9787 409.068 64.384 409.182 63.706 409.182C62.8158 409.182 62.0791 408.989 61.4957 408.602C60.9124 408.216 60.5431 407.652 60.3878 406.909L61.6605 406.591C61.7817 407.061 62.0109 407.413 62.348 407.648C62.6889 407.883 63.134 408 63.6832 408C64.3082 408 64.8045 407.867 65.1719 407.602C65.5431 407.333 65.7287 407.011 65.7287 406.636C65.7287 406.333 65.6226 406.08 65.4105 405.875C65.1984 405.667 64.8726 405.511 64.4332 405.409L62.9787 405.068C62.1795 404.879 61.5923 404.585 61.2173 404.188C60.8461 403.786 60.6605 403.284 60.6605 402.682C60.6605 402.189 60.7988 401.754 61.0753 401.375C61.3556 400.996 61.7363 400.699 62.2173 400.483C62.7022 400.267 63.2514 400.159 63.8651 400.159C64.7287 400.159 65.4067 400.348 65.8991 400.727C66.3954 401.106 66.7476 401.606 66.956 402.227ZM75.3153 402.227L74.1108 402.568C74.035 402.367 73.9233 402.172 73.7756 401.983C73.6316 401.79 73.4347 401.631 73.1847 401.506C72.9347 401.381 72.6146 401.318 72.2244 401.318C71.6903 401.318 71.2453 401.441 70.8892 401.688C70.5369 401.93 70.3608 402.239 70.3608 402.614C70.3608 402.947 70.482 403.21 70.7244 403.403C70.9669 403.597 71.3456 403.758 71.8608 403.886L73.1562 404.205C73.9366 404.394 74.518 404.684 74.9006 405.074C75.2831 405.46 75.4744 405.958 75.4744 406.568C75.4744 407.068 75.3305 407.515 75.0426 407.909C74.7585 408.303 74.3608 408.614 73.8494 408.841C73.3381 409.068 72.7434 409.182 72.0653 409.182C71.1752 409.182 70.4384 408.989 69.8551 408.602C69.2718 408.216 68.9025 407.652 68.7472 406.909L70.0199 406.591C70.1411 407.061 70.3703 407.413 70.7074 407.648C71.0483 407.883 71.4934 408 72.0426 408C72.6676 408 73.1638 407.867 73.5312 407.602C73.9025 407.333 74.0881 407.011 74.0881 406.636C74.0881 406.333 73.982 406.08 73.7699 405.875C73.5578 405.667 73.232 405.511 72.7926 405.409L71.3381 405.068C70.5388 404.879 69.9517 404.585 69.5767 404.188C69.2055 403.786 69.0199 403.284 69.0199 402.682C69.0199 402.189 69.1581 401.754 69.4347 401.375C69.715 400.996 70.0956 400.699 70.5767 400.483C71.0616 400.267 71.6108 400.159 72.2244 400.159C73.0881 400.159 73.7661 400.348 74.2585 400.727C74.7547 401.106 75.107 401.606 75.3153 402.227ZM80.0611 409.205C79.508 409.205 79.0062 409.1 78.5554 408.892C78.1046 408.68 77.7467 408.375 77.4815 407.977C77.2164 407.576 77.0838 407.091 77.0838 406.523C77.0838 406.023 77.1823 405.617 77.3793 405.307C77.5762 404.992 77.8395 404.746 78.169 404.568C78.4986 404.39 78.8622 404.258 79.2599 404.17C79.6615 404.08 80.0649 404.008 80.4702 403.955C81.0005 403.886 81.4304 403.835 81.7599 403.801C82.0933 403.763 82.3357 403.701 82.4872 403.614C82.6425 403.527 82.7202 403.375 82.7202 403.159V403.114C82.7202 402.553 82.5668 402.117 82.2599 401.807C81.9569 401.496 81.4967 401.341 80.8793 401.341C80.2391 401.341 79.7372 401.481 79.3736 401.761C79.0099 402.042 78.7543 402.341 78.6065 402.659L77.3338 402.205C77.5611 401.674 77.8641 401.261 78.2429 400.966C78.6255 400.667 79.0421 400.458 79.4929 400.341C79.9474 400.22 80.3944 400.159 80.8338 400.159C81.1141 400.159 81.4361 400.193 81.7997 400.261C82.1671 400.326 82.5213 400.46 82.8622 400.665C83.2069 400.869 83.4929 401.178 83.7202 401.591C83.9474 402.004 84.0611 402.557 84.0611 403.25V409H82.7202V407.818H82.652C82.5611 408.008 82.4096 408.21 82.1974 408.426C81.9853 408.642 81.7031 408.826 81.3509 408.977C80.9986 409.129 80.5687 409.205 80.0611 409.205ZM80.2656 408C80.7959 408 81.2429 407.896 81.6065 407.688C81.974 407.479 82.2505 407.21 82.4361 406.881C82.6255 406.551 82.7202 406.205 82.7202 405.841V404.614C82.6634 404.682 82.5384 404.744 82.3452 404.801C82.1558 404.854 81.9361 404.902 81.6861 404.943C81.4399 404.981 81.1993 405.015 80.9645 405.045C80.7334 405.072 80.5459 405.095 80.402 405.114C80.0535 405.159 79.7277 405.233 79.4247 405.335C79.1255 405.434 78.883 405.583 78.6974 405.784C78.5156 405.981 78.4247 406.25 78.4247 406.591C78.4247 407.057 78.5971 407.409 78.9418 407.648C79.2902 407.883 79.7315 408 80.2656 408ZM90.0312 412.455C89.3835 412.455 88.8267 412.371 88.3608 412.205C87.8949 412.042 87.5066 411.826 87.196 411.557C86.8892 411.292 86.6449 411.008 86.4631 410.705L87.5312 409.955C87.6525 410.114 87.8059 410.295 87.9915 410.5C88.1771 410.708 88.4309 410.888 88.7528 411.04C89.0786 411.195 89.5047 411.273 90.0312 411.273C90.7358 411.273 91.3172 411.102 91.7756 410.761C92.2339 410.42 92.4631 409.886 92.4631 409.159V407.386H92.3494C92.2509 407.545 92.1108 407.742 91.929 407.977C91.7509 408.208 91.4934 408.415 91.1562 408.597C90.8229 408.775 90.3722 408.864 89.804 408.864C89.0994 408.864 88.4669 408.697 87.9062 408.364C87.3494 408.03 86.9081 407.545 86.5824 406.909C86.2604 406.273 86.0994 405.5 86.0994 404.591C86.0994 403.697 86.2566 402.919 86.571 402.256C86.8854 401.589 87.3229 401.074 87.8835 400.71C88.4441 400.343 89.0919 400.159 89.8267 400.159C90.3949 400.159 90.8456 400.254 91.179 400.443C91.5161 400.629 91.7737 400.841 91.9517 401.08C92.1335 401.314 92.2737 401.508 92.3722 401.659H92.5085V400.273H93.804V409.25C93.804 410 93.6335 410.61 93.2926 411.08C92.9555 411.553 92.5009 411.9 91.929 412.119C91.3608 412.343 90.7282 412.455 90.0312 412.455ZM89.9858 407.659C90.5237 407.659 90.9782 407.536 91.3494 407.29C91.7206 407.044 92.0028 406.689 92.196 406.227C92.3892 405.765 92.4858 405.212 92.4858 404.568C92.4858 403.939 92.3911 403.384 92.2017 402.903C92.0123 402.422 91.732 402.045 91.3608 401.773C90.9896 401.5 90.5313 401.364 89.9858 401.364C89.4176 401.364 88.9441 401.508 88.5653 401.795C88.1903 402.083 87.9081 402.47 87.7188 402.955C87.5331 403.439 87.4403 403.977 87.4403 404.568C87.4403 405.174 87.535 405.71 87.7244 406.176C87.9176 406.638 88.2017 407.002 88.5767 407.267C88.9555 407.528 89.4252 407.659 89.9858 407.659ZM99.9176 409.182C99.0767 409.182 98.3513 408.996 97.7415 408.625C97.1354 408.25 96.6676 407.727 96.3381 407.057C96.0123 406.383 95.8494 405.598 95.8494 404.705C95.8494 403.811 96.0123 403.023 96.3381 402.341C96.6676 401.655 97.1259 401.121 97.7131 400.739C98.304 400.352 98.9934 400.159 99.7812 400.159C100.236 400.159 100.685 400.235 101.128 400.386C101.571 400.538 101.974 400.784 102.338 401.125C102.702 401.462 102.991 401.909 103.207 402.466C103.423 403.023 103.531 403.708 103.531 404.523V405.091H96.804V403.932H102.168C102.168 403.439 102.069 403 101.872 402.614C101.679 402.227 101.402 401.922 101.043 401.699C100.687 401.475 100.266 401.364 99.7812 401.364C99.2472 401.364 98.785 401.496 98.3949 401.761C98.0085 402.023 97.7112 402.364 97.5028 402.784C97.2945 403.205 97.1903 403.655 97.1903 404.136V404.909C97.1903 405.568 97.304 406.127 97.5312 406.585C97.7623 407.04 98.0824 407.386 98.4915 407.625C98.9006 407.86 99.3759 407.977 99.9176 407.977C100.27 407.977 100.588 407.928 100.872 407.83C101.16 407.727 101.408 407.576 101.616 407.375C101.825 407.17 101.986 406.917 102.099 406.614L103.395 406.977C103.259 407.417 103.029 407.803 102.707 408.136C102.385 408.466 101.988 408.723 101.514 408.909C101.041 409.091 100.509 409.182 99.9176 409.182ZM111.753 402.227L110.548 402.568C110.473 402.367 110.361 402.172 110.213 401.983C110.069 401.79 109.872 401.631 109.622 401.506C109.372 401.381 109.052 401.318 108.662 401.318C108.128 401.318 107.683 401.441 107.327 401.688C106.974 401.93 106.798 402.239 106.798 402.614C106.798 402.947 106.92 403.21 107.162 403.403C107.404 403.597 107.783 403.758 108.298 403.886L109.594 404.205C110.374 404.394 110.955 404.684 111.338 405.074C111.721 405.46 111.912 405.958 111.912 406.568C111.912 407.068 111.768 407.515 111.48 407.909C111.196 408.303 110.798 408.614 110.287 408.841C109.776 409.068 109.181 409.182 108.503 409.182C107.613 409.182 106.876 408.989 106.293 408.602C105.709 408.216 105.34 407.652 105.185 406.909L106.457 406.591C106.579 407.061 106.808 407.413 107.145 407.648C107.486 407.883 107.931 408 108.48 408C109.105 408 109.601 407.867 109.969 407.602C110.34 407.333 110.526 407.011 110.526 406.636C110.526 406.333 110.42 406.08 110.207 405.875C109.995 405.667 109.67 405.511 109.23 405.409L107.776 405.068C106.976 404.879 106.389 404.585 106.014 404.188C105.643 403.786 105.457 403.284 105.457 402.682C105.457 402.189 105.596 401.754 105.872 401.375C106.152 400.996 106.533 400.699 107.014 400.483C107.499 400.267 108.048 400.159 108.662 400.159C109.526 400.159 110.204 400.348 110.696 400.727C111.192 401.106 111.545 401.606 111.753 402.227ZM119.771 397.364V409H118.43V397.364H119.771ZM122.227 409V400.273H123.568V409H122.227ZM122.909 398.818C122.648 398.818 122.422 398.729 122.233 398.551C122.047 398.373 121.955 398.159 121.955 397.909C121.955 397.659 122.047 397.445 122.233 397.267C122.422 397.089 122.648 397 122.909 397C123.17 397 123.394 397.089 123.58 397.267C123.769 397.445 123.864 397.659 123.864 397.909C123.864 398.159 123.769 398.373 123.58 398.551C123.394 398.729 123.17 398.818 122.909 398.818ZM133.161 400.273L129.933 409H128.57L125.342 400.273H126.797L129.206 407.227H129.297L131.706 400.273H133.161ZM138.277 409.182C137.436 409.182 136.711 408.996 136.101 408.625C135.495 408.25 135.027 407.727 134.697 407.057C134.372 406.383 134.209 405.598 134.209 404.705C134.209 403.811 134.372 403.023 134.697 402.341C135.027 401.655 135.485 401.121 136.072 400.739C136.663 400.352 137.353 400.159 138.141 400.159C138.595 400.159 139.044 400.235 139.487 400.386C139.93 400.538 140.334 400.784 140.697 401.125C141.061 401.462 141.351 401.909 141.567 402.466C141.783 403.023 141.891 403.708 141.891 404.523V405.091H135.163V403.932H140.527C140.527 403.439 140.429 403 140.232 402.614C140.038 402.227 139.762 401.922 139.402 401.699C139.046 401.475 138.625 401.364 138.141 401.364C137.607 401.364 137.144 401.496 136.754 401.761C136.368 402.023 136.071 402.364 135.862 402.784C135.654 403.205 135.55 403.655 135.55 404.136V404.909C135.55 405.568 135.663 406.127 135.891 406.585C136.122 407.04 136.442 407.386 136.851 407.625C137.26 407.86 137.735 407.977 138.277 407.977C138.629 407.977 138.947 407.928 139.232 407.83C139.519 407.727 139.768 407.576 139.976 407.375C140.184 407.17 140.345 406.917 140.459 406.614L141.754 406.977C141.618 407.417 141.389 407.803 141.067 408.136C140.745 408.466 140.347 408.723 139.874 408.909C139.4 409.091 138.868 409.182 138.277 409.182ZM152.317 400.273V401.409H147.612V400.273H152.317ZM149.021 409V399.068C149.021 398.568 149.139 398.152 149.374 397.818C149.608 397.485 149.913 397.235 150.288 397.068C150.663 396.902 151.059 396.818 151.476 396.818C151.805 396.818 152.074 396.845 152.283 396.898C152.491 396.951 152.646 397 152.749 397.045L152.362 398.205C152.294 398.182 152.199 398.153 152.078 398.119C151.961 398.085 151.805 398.068 151.612 398.068C151.169 398.068 150.849 398.18 150.652 398.403C150.459 398.627 150.362 398.955 150.362 399.386V409H149.021ZM157.382 409.182C156.594 409.182 155.903 408.994 155.308 408.619C154.717 408.244 154.255 407.72 153.922 407.045C153.592 406.371 153.428 405.583 153.428 404.682C153.428 403.773 153.592 402.979 153.922 402.301C154.255 401.623 154.717 401.097 155.308 400.722C155.903 400.347 156.594 400.159 157.382 400.159C158.17 400.159 158.859 400.347 159.45 400.722C160.045 401.097 160.507 401.623 160.837 402.301C161.17 402.979 161.337 403.773 161.337 404.682C161.337 405.583 161.17 406.371 160.837 407.045C160.507 407.72 160.045 408.244 159.45 408.619C158.859 408.994 158.17 409.182 157.382 409.182ZM157.382 407.977C157.981 407.977 158.473 407.824 158.859 407.517C159.246 407.21 159.532 406.807 159.717 406.307C159.903 405.807 159.996 405.265 159.996 404.682C159.996 404.098 159.903 403.555 159.717 403.051C159.532 402.547 159.246 402.14 158.859 401.83C158.473 401.519 157.981 401.364 157.382 401.364C156.784 401.364 156.291 401.519 155.905 401.83C155.518 402.14 155.232 402.547 155.047 403.051C154.861 403.555 154.768 404.098 154.768 404.682C154.768 405.265 154.861 405.807 155.047 406.307C155.232 406.807 155.518 407.21 155.905 407.517C156.291 407.824 156.784 407.977 157.382 407.977ZM163.384 409V400.273H164.679V401.591H164.77C164.929 401.159 165.217 400.809 165.634 400.54C166.05 400.271 166.52 400.136 167.043 400.136C167.141 400.136 167.264 400.138 167.412 400.142C167.56 400.146 167.671 400.152 167.747 400.159V401.523C167.702 401.511 167.598 401.494 167.435 401.472C167.276 401.445 167.107 401.432 166.929 401.432C166.505 401.432 166.126 401.521 165.793 401.699C165.463 401.873 165.202 402.116 165.009 402.426C164.819 402.733 164.724 403.083 164.724 403.477V409H163.384ZM172.73 409.182C171.889 409.182 171.164 408.996 170.554 408.625C169.948 408.25 169.48 407.727 169.151 407.057C168.825 406.383 168.662 405.598 168.662 404.705C168.662 403.811 168.825 403.023 169.151 402.341C169.48 401.655 169.938 401.121 170.526 400.739C171.116 400.352 171.806 400.159 172.594 400.159C173.048 400.159 173.497 400.235 173.94 400.386C174.384 400.538 174.787 400.784 175.151 401.125C175.514 401.462 175.804 401.909 176.02 402.466C176.236 403.023 176.344 403.708 176.344 404.523V405.091H169.616V403.932H174.98C174.98 403.439 174.882 403 174.685 402.614C174.491 402.227 174.215 401.922 173.855 401.699C173.499 401.475 173.079 401.364 172.594 401.364C172.06 401.364 171.598 401.496 171.207 401.761C170.821 402.023 170.524 402.364 170.315 402.784C170.107 403.205 170.003 403.655 170.003 404.136V404.909C170.003 405.568 170.116 406.127 170.344 406.585C170.575 407.04 170.895 407.386 171.304 407.625C171.713 407.86 172.188 407.977 172.73 407.977C173.082 407.977 173.401 407.928 173.685 407.83C173.973 407.727 174.221 407.576 174.429 407.375C174.637 407.17 174.798 406.917 174.912 406.614L176.207 406.977C176.071 407.417 175.842 407.803 175.52 408.136C175.198 408.466 174.8 408.723 174.327 408.909C173.853 409.091 173.321 409.182 172.73 409.182ZM185.254 400.273L182.027 409H180.663L177.436 400.273H178.891L181.3 407.227H181.391L183.8 400.273H185.254ZM190.371 409.182C189.53 409.182 188.804 408.996 188.195 408.625C187.589 408.25 187.121 407.727 186.791 407.057C186.465 406.383 186.303 405.598 186.303 404.705C186.303 403.811 186.465 403.023 186.791 402.341C187.121 401.655 187.579 401.121 188.166 400.739C188.757 400.352 189.446 400.159 190.234 400.159C190.689 400.159 191.138 400.235 191.581 400.386C192.024 400.538 192.428 400.784 192.791 401.125C193.155 401.462 193.445 401.909 193.661 402.466C193.876 403.023 193.984 403.708 193.984 404.523V405.091H187.257V403.932H192.621C192.621 403.439 192.522 403 192.325 402.614C192.132 402.227 191.856 401.922 191.496 401.699C191.14 401.475 190.719 401.364 190.234 401.364C189.7 401.364 189.238 401.496 188.848 401.761C188.462 402.023 188.164 402.364 187.956 402.784C187.748 403.205 187.643 403.655 187.643 404.136V404.909C187.643 405.568 187.757 406.127 187.984 406.585C188.215 407.04 188.536 407.386 188.945 407.625C189.354 407.86 189.829 407.977 190.371 407.977C190.723 407.977 191.041 407.928 191.325 407.83C191.613 407.727 191.861 407.576 192.07 407.375C192.278 407.17 192.439 406.917 192.553 406.614L193.848 406.977C193.712 407.417 193.482 407.803 193.161 408.136C192.839 408.466 192.441 408.723 191.967 408.909C191.494 409.091 190.962 409.182 190.371 409.182ZM196.024 409V400.273H197.32V401.591H197.411C197.57 401.159 197.857 400.809 198.274 400.54C198.691 400.271 199.161 400.136 199.683 400.136C199.782 400.136 199.905 400.138 200.053 400.142C200.2 400.146 200.312 400.152 200.388 400.159V401.523C200.342 401.511 200.238 401.494 200.075 401.472C199.916 401.445 199.748 401.432 199.57 401.432C199.145 401.432 198.767 401.521 198.433 401.699C198.104 401.873 197.842 402.116 197.649 402.426C197.46 402.733 197.365 403.083 197.365 403.477V409H196.024ZM210.023 409.182C209.235 409.182 208.544 408.994 207.949 408.619C207.358 408.244 206.896 407.72 206.562 407.045C206.233 406.371 206.068 405.583 206.068 404.682C206.068 403.773 206.233 402.979 206.562 402.301C206.896 401.623 207.358 401.097 207.949 400.722C208.544 400.347 209.235 400.159 210.023 400.159C210.811 400.159 211.5 400.347 212.091 400.722C212.686 401.097 213.148 401.623 213.477 402.301C213.811 402.979 213.977 403.773 213.977 404.682C213.977 405.583 213.811 406.371 213.477 407.045C213.148 407.72 212.686 408.244 212.091 408.619C211.5 408.994 210.811 409.182 210.023 409.182ZM210.023 407.977C210.621 407.977 211.114 407.824 211.5 407.517C211.886 407.21 212.172 406.807 212.358 406.307C212.544 405.807 212.636 405.265 212.636 404.682C212.636 404.098 212.544 403.555 212.358 403.051C212.172 402.547 211.886 402.14 211.5 401.83C211.114 401.519 210.621 401.364 210.023 401.364C209.424 401.364 208.932 401.519 208.545 401.83C208.159 402.14 207.873 402.547 207.688 403.051C207.502 403.555 207.409 404.098 207.409 404.682C207.409 405.265 207.502 405.807 207.688 406.307C207.873 406.807 208.159 407.21 208.545 407.517C208.932 407.824 209.424 407.977 210.023 407.977ZM217.365 403.75V409H216.024V400.273H217.32V401.636H217.433C217.638 401.193 217.948 400.837 218.365 400.568C218.782 400.295 219.32 400.159 219.979 400.159C220.57 400.159 221.087 400.28 221.53 400.523C221.973 400.761 222.318 401.125 222.564 401.614C222.81 402.098 222.933 402.712 222.933 403.455V409H221.592V403.545C221.592 402.86 221.414 402.326 221.058 401.943C220.702 401.557 220.214 401.364 219.592 401.364C219.164 401.364 218.782 401.456 218.445 401.642C218.111 401.828 217.848 402.098 217.655 402.455C217.462 402.811 217.365 403.242 217.365 403.75ZM233.679 400.273V401.409H229.156V400.273H233.679ZM230.474 398.182H231.815V406.5C231.815 406.879 231.87 407.163 231.98 407.352C232.094 407.538 232.238 407.663 232.412 407.727C232.59 407.788 232.777 407.818 232.974 407.818C233.122 407.818 233.243 407.811 233.338 407.795C233.433 407.777 233.509 407.761 233.565 407.75L233.838 408.955C233.747 408.989 233.62 409.023 233.457 409.057C233.295 409.095 233.088 409.114 232.838 409.114C232.459 409.114 232.088 409.032 231.724 408.869C231.365 408.706 231.065 408.458 230.827 408.125C230.592 407.792 230.474 407.371 230.474 406.864V398.182ZM237.224 403.75V409H235.884V397.364H237.224V401.636H237.338C237.543 401.186 237.849 400.828 238.259 400.562C238.671 400.294 239.221 400.159 239.906 400.159C240.501 400.159 241.022 400.278 241.469 400.517C241.916 400.752 242.262 401.114 242.509 401.602C242.759 402.087 242.884 402.705 242.884 403.455V409H241.543V403.545C241.543 402.852 241.363 402.316 241.003 401.938C240.647 401.555 240.152 401.364 239.52 401.364C239.08 401.364 238.687 401.456 238.338 401.642C237.993 401.828 237.721 402.098 237.52 402.455C237.323 402.811 237.224 403.242 237.224 403.75ZM248.996 409.182C248.155 409.182 247.429 408.996 246.82 408.625C246.214 408.25 245.746 407.727 245.416 407.057C245.09 406.383 244.928 405.598 244.928 404.705C244.928 403.811 245.09 403.023 245.416 402.341C245.746 401.655 246.204 401.121 246.791 400.739C247.382 400.352 248.071 400.159 248.859 400.159C249.314 400.159 249.763 400.235 250.206 400.386C250.649 400.538 251.053 400.784 251.416 401.125C251.78 401.462 252.07 401.909 252.286 402.466C252.501 403.023 252.609 403.708 252.609 404.523V405.091H245.882V403.932H251.246C251.246 403.439 251.147 403 250.95 402.614C250.757 402.227 250.481 401.922 250.121 401.699C249.765 401.475 249.344 401.364 248.859 401.364C248.325 401.364 247.863 401.496 247.473 401.761C247.087 402.023 246.789 402.364 246.581 402.784C246.373 403.205 246.268 403.655 246.268 404.136V404.909C246.268 405.568 246.382 406.127 246.609 406.585C246.84 407.04 247.161 407.386 247.57 407.625C247.979 407.86 248.454 407.977 248.996 407.977C249.348 407.977 249.666 407.928 249.95 407.83C250.238 407.727 250.486 407.576 250.695 407.375C250.903 407.17 251.064 406.917 251.178 406.614L252.473 406.977C252.337 407.417 252.107 407.803 251.786 408.136C251.464 408.466 251.066 408.723 250.592 408.909C250.119 409.091 249.587 409.182 248.996 409.182ZM259.331 409V397.364H260.672V401.659H260.786C260.884 401.508 261.02 401.314 261.195 401.08C261.373 400.841 261.626 400.629 261.956 400.443C262.289 400.254 262.74 400.159 263.308 400.159C264.043 400.159 264.691 400.343 265.251 400.71C265.812 401.078 266.25 401.598 266.564 402.273C266.878 402.947 267.036 403.742 267.036 404.659C267.036 405.583 266.878 406.384 266.564 407.062C266.25 407.737 265.814 408.259 265.257 408.631C264.7 408.998 264.058 409.182 263.331 409.182C262.77 409.182 262.321 409.089 261.984 408.903C261.647 408.714 261.388 408.5 261.206 408.261C261.024 408.019 260.884 407.818 260.786 407.659H260.626V409H259.331ZM260.649 404.636C260.649 405.295 260.746 405.877 260.939 406.381C261.132 406.881 261.414 407.273 261.786 407.557C262.157 407.837 262.611 407.977 263.149 407.977C263.71 407.977 264.178 407.83 264.553 407.534C264.931 407.235 265.215 406.833 265.405 406.33C265.598 405.822 265.695 405.258 265.695 404.636C265.695 404.023 265.6 403.47 265.411 402.977C265.225 402.481 264.943 402.089 264.564 401.801C264.189 401.509 263.717 401.364 263.149 401.364C262.604 401.364 262.145 401.502 261.774 401.778C261.403 402.051 261.123 402.434 260.933 402.926C260.744 403.415 260.649 403.985 260.649 404.636ZM270.428 397.364V409H269.087V397.364H270.428ZM276.429 409.182C275.641 409.182 274.95 408.994 274.355 408.619C273.764 408.244 273.302 407.72 272.969 407.045C272.639 406.371 272.474 405.583 272.474 404.682C272.474 403.773 272.639 402.979 272.969 402.301C273.302 401.623 273.764 401.097 274.355 400.722C274.95 400.347 275.641 400.159 276.429 400.159C277.217 400.159 277.906 400.347 278.497 400.722C279.092 401.097 279.554 401.623 279.884 402.301C280.217 402.979 280.384 403.773 280.384 404.682C280.384 405.583 280.217 406.371 279.884 407.045C279.554 407.72 279.092 408.244 278.497 408.619C277.906 408.994 277.217 409.182 276.429 409.182ZM276.429 407.977C277.027 407.977 277.52 407.824 277.906 407.517C278.293 407.21 278.579 406.807 278.764 406.307C278.95 405.807 279.043 405.265 279.043 404.682C279.043 404.098 278.95 403.555 278.764 403.051C278.579 402.547 278.293 402.14 277.906 401.83C277.52 401.519 277.027 401.364 276.429 401.364C275.83 401.364 275.338 401.519 274.952 401.83C274.565 402.14 274.279 402.547 274.094 403.051C273.908 403.555 273.815 404.098 273.815 404.682C273.815 405.265 273.908 405.807 274.094 406.307C274.279 406.807 274.565 407.21 274.952 407.517C275.338 407.824 275.83 407.977 276.429 407.977ZM285.976 409.182C285.158 409.182 284.453 408.989 283.862 408.602C283.271 408.216 282.817 407.684 282.499 407.006C282.18 406.328 282.021 405.553 282.021 404.682C282.021 403.795 282.184 403.013 282.51 402.335C282.839 401.653 283.298 401.121 283.885 400.739C284.476 400.352 285.165 400.159 285.953 400.159C286.567 400.159 287.12 400.273 287.612 400.5C288.105 400.727 288.508 401.045 288.822 401.455C289.137 401.864 289.332 402.341 289.408 402.886H288.067C287.964 402.489 287.737 402.136 287.385 401.83C287.036 401.519 286.567 401.364 285.976 401.364C285.453 401.364 284.995 401.5 284.601 401.773C284.211 402.042 283.906 402.422 283.686 402.915C283.47 403.403 283.362 403.977 283.362 404.636C283.362 405.311 283.468 405.898 283.68 406.398C283.896 406.898 284.199 407.286 284.589 407.562C284.983 407.839 285.446 407.977 285.976 407.977C286.324 407.977 286.641 407.917 286.925 407.795C287.209 407.674 287.449 407.5 287.646 407.273C287.843 407.045 287.983 406.773 288.067 406.455H289.408C289.332 406.97 289.144 407.434 288.845 407.847C288.55 408.256 288.158 408.581 287.669 408.824C287.184 409.062 286.62 409.182 285.976 409.182ZM292.618 405.818L292.595 404.159H292.868L296.686 400.273H298.345L294.277 404.386H294.163L292.618 405.818ZM291.368 409V397.364H292.709V409H291.368ZM296.913 409L293.504 404.682L294.459 403.75L298.618 409H296.913ZM303.257 409.182C302.439 409.182 301.734 408.989 301.143 408.602C300.553 408.216 300.098 407.684 299.78 407.006C299.462 406.328 299.303 405.553 299.303 404.682C299.303 403.795 299.465 403.013 299.791 402.335C300.121 401.653 300.579 401.121 301.166 400.739C301.757 400.352 302.446 400.159 303.234 400.159C303.848 400.159 304.401 400.273 304.893 400.5C305.386 400.727 305.789 401.045 306.104 401.455C306.418 401.864 306.613 402.341 306.689 402.886H305.348C305.246 402.489 305.018 402.136 304.666 401.83C304.318 401.519 303.848 401.364 303.257 401.364C302.734 401.364 302.276 401.5 301.882 401.773C301.492 402.042 301.187 402.422 300.967 402.915C300.751 403.403 300.643 403.977 300.643 404.636C300.643 405.311 300.75 405.898 300.962 406.398C301.178 406.898 301.481 407.286 301.871 407.562C302.265 407.839 302.727 407.977 303.257 407.977C303.606 407.977 303.922 407.917 304.206 407.795C304.49 407.674 304.731 407.5 304.928 407.273C305.125 407.045 305.265 406.773 305.348 406.455H306.689C306.613 406.97 306.426 407.434 306.126 407.847C305.831 408.256 305.439 408.581 304.95 408.824C304.465 409.062 303.901 409.182 303.257 409.182ZM309.99 403.75V409H308.649V397.364H309.99V401.636H310.104C310.308 401.186 310.615 400.828 311.024 400.562C311.437 400.294 311.986 400.159 312.672 400.159C313.267 400.159 313.787 400.278 314.234 400.517C314.681 400.752 315.028 401.114 315.274 401.602C315.524 402.087 315.649 402.705 315.649 403.455V409H314.308V403.545C314.308 402.852 314.128 402.316 313.768 401.938C313.412 401.555 312.918 401.364 312.286 401.364C311.846 401.364 311.452 401.456 311.104 401.642C310.759 401.828 310.486 402.098 310.286 402.455C310.089 402.811 309.99 403.242 309.99 403.75ZM320.67 409.205C320.117 409.205 319.616 409.1 319.165 408.892C318.714 408.68 318.356 408.375 318.091 407.977C317.826 407.576 317.693 407.091 317.693 406.523C317.693 406.023 317.792 405.617 317.989 405.307C318.186 404.992 318.449 404.746 318.778 404.568C319.108 404.39 319.472 404.258 319.869 404.17C320.271 404.08 320.674 404.008 321.08 403.955C321.61 403.886 322.04 403.835 322.369 403.801C322.703 403.763 322.945 403.701 323.097 403.614C323.252 403.527 323.33 403.375 323.33 403.159V403.114C323.33 402.553 323.176 402.117 322.869 401.807C322.566 401.496 322.106 401.341 321.489 401.341C320.848 401.341 320.347 401.481 319.983 401.761C319.619 402.042 319.364 402.341 319.216 402.659L317.943 402.205C318.17 401.674 318.473 401.261 318.852 400.966C319.235 400.667 319.652 400.458 320.102 400.341C320.557 400.22 321.004 400.159 321.443 400.159C321.723 400.159 322.045 400.193 322.409 400.261C322.777 400.326 323.131 400.46 323.472 400.665C323.816 400.869 324.102 401.178 324.33 401.591C324.557 402.004 324.67 402.557 324.67 403.25V409H323.33V407.818H323.261C323.17 408.008 323.019 408.21 322.807 408.426C322.595 408.642 322.313 408.826 321.96 408.977C321.608 409.129 321.178 409.205 320.67 409.205ZM320.875 408C321.405 408 321.852 407.896 322.216 407.688C322.583 407.479 322.86 407.21 323.045 406.881C323.235 406.551 323.33 406.205 323.33 405.841V404.614C323.273 404.682 323.148 404.744 322.955 404.801C322.765 404.854 322.545 404.902 322.295 404.943C322.049 404.981 321.809 405.015 321.574 405.045C321.343 405.072 321.155 405.095 321.011 405.114C320.663 405.159 320.337 405.233 320.034 405.335C319.735 405.434 319.492 405.583 319.307 405.784C319.125 405.981 319.034 406.25 319.034 406.591C319.034 407.057 319.206 407.409 319.551 407.648C319.9 407.883 320.341 408 320.875 408ZM327.118 409V400.273H328.459V409H327.118ZM327.8 398.818C327.538 398.818 327.313 398.729 327.124 398.551C326.938 398.373 326.845 398.159 326.845 397.909C326.845 397.659 326.938 397.445 327.124 397.267C327.313 397.089 327.538 397 327.8 397C328.061 397 328.285 397.089 328.47 397.267C328.66 397.445 328.754 397.659 328.754 397.909C328.754 398.159 328.66 398.373 328.47 398.551C328.285 398.729 328.061 398.818 327.8 398.818ZM332.256 403.75V409H330.915V400.273H332.21V401.636H332.324C332.528 401.193 332.839 400.837 333.256 400.568C333.672 400.295 334.21 400.159 334.869 400.159C335.46 400.159 335.977 400.28 336.42 400.523C336.864 400.761 337.208 401.125 337.455 401.614C337.701 402.098 337.824 402.712 337.824 403.455V409H336.483V403.545C336.483 402.86 336.305 402.326 335.949 401.943C335.593 401.557 335.104 401.364 334.483 401.364C334.055 401.364 333.672 401.456 333.335 401.642C333.002 401.828 332.739 402.098 332.545 402.455C332.352 402.811 332.256 403.242 332.256 403.75ZM341.251 409.091C340.971 409.091 340.731 408.991 340.53 408.79C340.329 408.589 340.229 408.348 340.229 408.068C340.229 407.788 340.329 407.547 340.53 407.347C340.731 407.146 340.971 407.045 341.251 407.045C341.532 407.045 341.772 407.146 341.973 407.347C342.174 407.547 342.274 407.788 342.274 408.068C342.274 408.254 342.227 408.424 342.132 408.58C342.041 408.735 341.918 408.86 341.763 408.955C341.611 409.045 341.441 409.091 341.251 409.091Z" fill="#0C0E0F"/>
<defs>
<clipPath id="clip0_158_1948">
<rect width="65.1457" height="65.1457" fill="white" transform="translate(527 60.4702)"/>
</clipPath>
<clipPath id="clip1_158_1948">
<rect width="39.9935" height="65.1457" fill="white" transform="translate(539.215 60.4702)"/>
</clipPath>
<clipPath id="clip2_158_1948">
<rect width="65.1457" height="65.1457" fill="white" transform="translate(527 191.473)"/>
</clipPath>
<clipPath id="clip3_158_1948">
<rect width="39.9935" height="65.1457" fill="white" transform="translate(539.215 191.473)"/>
</clipPath>
</defs>
</svg>
