<svg width="737" height="423" viewBox="0 0 737 423" fill="none" xmlns="http://www.w3.org/2000/svg">
<rect width="737" height="423" rx="8" fill="white"/>
<rect x="0.5" y="0.5" width="736" height="422" rx="7.5" stroke="black" stroke-opacity="0.5"/>
<path d="M40.0938 346C40.0938 347.745 39.763 349.229 39.1016 350.453C38.4453 351.677 37.5495 352.612 36.4141 353.258C35.2839 353.898 34.013 354.219 32.6016 354.219C31.1797 354.219 29.9036 353.896 28.7734 353.25C27.6432 352.604 26.75 351.669 26.0938 350.445C25.4375 349.221 25.1094 347.74 25.1094 346C25.1094 344.255 25.4375 342.771 26.0938 341.547C26.75 340.323 27.6432 339.391 28.7734 338.75C29.9036 338.104 31.1797 337.781 32.6016 337.781C34.013 337.781 35.2839 338.104 36.4141 338.75C37.5495 339.391 38.4453 340.323 39.1016 341.547C39.763 342.771 40.0938 344.255 40.0938 346ZM36.6641 346C36.6641 344.87 36.4948 343.917 36.1562 343.141C35.8229 342.365 35.3516 341.776 34.7422 341.375C34.1328 340.974 33.4193 340.773 32.6016 340.773C31.7839 340.773 31.0703 340.974 30.4609 341.375C29.8516 341.776 29.3776 342.365 29.0391 343.141C28.7057 343.917 28.5391 344.87 28.5391 346C28.5391 347.13 28.7057 348.083 29.0391 348.859C29.3776 349.635 29.8516 350.224 30.4609 350.625C31.0703 351.026 31.7839 351.227 32.6016 351.227C33.4193 351.227 34.1328 351.026 34.7422 350.625C35.3516 350.224 35.8229 349.635 36.1562 348.859C36.4948 348.083 36.6641 347.13 36.6641 346ZM45.8652 347.063V354H42.5371V342H45.709V344.117H45.8496C46.1152 343.419 46.5605 342.867 47.1855 342.461C47.8105 342.049 48.5684 341.844 49.459 341.844C50.2923 341.844 51.0189 342.026 51.6387 342.391C52.2585 342.755 52.7402 343.276 53.084 343.953C53.4277 344.625 53.5996 345.427 53.5996 346.359V354H50.2715V346.953C50.2767 346.219 50.0892 345.646 49.709 345.234C49.3288 344.818 48.8053 344.609 48.1387 344.609C47.6908 344.609 47.2949 344.706 46.9512 344.898C46.6126 345.091 46.347 345.372 46.1543 345.742C45.9668 346.107 45.8704 346.547 45.8652 347.063ZM63.6992 346.109V348.75H56.4023V346.109H63.6992ZM80.7148 343.602H77.293C77.2305 343.159 77.1029 342.766 76.9102 342.422C76.7174 342.073 76.4701 341.776 76.168 341.531C75.8659 341.286 75.5169 341.099 75.1211 340.969C74.7305 340.839 74.306 340.773 73.8477 340.773C73.0195 340.773 72.2982 340.979 71.6836 341.391C71.069 341.797 70.5924 342.391 70.2539 343.172C69.9154 343.948 69.7461 344.891 69.7461 346C69.7461 347.141 69.9154 348.099 70.2539 348.875C70.5977 349.651 71.0768 350.237 71.6914 350.633C72.306 351.029 73.0169 351.227 73.8242 351.227C74.2773 351.227 74.6966 351.167 75.082 351.047C75.4727 350.927 75.819 350.753 76.1211 350.523C76.4232 350.289 76.6732 350.005 76.8711 349.672C77.0742 349.339 77.2148 348.958 77.293 348.531L80.7148 348.547C80.6263 349.281 80.4049 349.99 80.0508 350.672C79.7018 351.349 79.2305 351.956 78.6367 352.492C78.0482 353.023 77.3451 353.445 76.5273 353.758C75.7148 354.065 74.7956 354.219 73.7695 354.219C72.3424 354.219 71.0664 353.896 69.9414 353.25C68.8216 352.604 67.9362 351.669 67.2852 350.445C66.6393 349.221 66.3164 347.74 66.3164 346C66.3164 344.255 66.6445 342.771 67.3008 341.547C67.957 340.323 68.8477 339.391 69.9727 338.75C71.0977 338.104 72.3633 337.781 73.7695 337.781C74.6966 337.781 75.556 337.911 76.3477 338.172C77.1445 338.432 77.8503 338.812 78.4648 339.312C79.0794 339.807 79.5794 340.414 79.9648 341.133C80.3555 341.852 80.6055 342.674 80.7148 343.602ZM86.4063 347.063V354H83.0781V338H86.3125V344.117H86.4531C86.724 343.409 87.1615 342.854 87.7656 342.453C88.3698 342.047 89.1276 341.844 90.0391 341.844C90.8724 341.844 91.599 342.026 92.2188 342.391C92.8438 342.75 93.3281 343.268 93.6719 343.945C94.0208 344.617 94.1927 345.422 94.1875 346.359V354H90.8594V346.953C90.8646 346.214 90.6771 345.638 90.2969 345.227C89.9219 344.815 89.3958 344.609 88.7188 344.609C88.2656 344.609 87.8646 344.706 87.5156 344.898C87.1719 345.091 86.901 345.372 86.7031 345.742C86.5104 346.107 86.4115 346.547 86.4063 347.063ZM100.229 354.227C99.4629 354.227 98.7806 354.094 98.1816 353.828C97.5827 353.557 97.1087 353.159 96.7598 352.633C96.416 352.102 96.2441 351.44 96.2441 350.648C96.2441 349.982 96.3665 349.422 96.6113 348.969C96.8561 348.516 97.1895 348.151 97.6113 347.875C98.0332 347.599 98.5124 347.391 99.0488 347.25C99.5905 347.109 100.158 347.01 100.752 346.953C101.45 346.88 102.012 346.812 102.439 346.75C102.867 346.682 103.176 346.583 103.369 346.453C103.562 346.323 103.658 346.13 103.658 345.875V345.828C103.658 345.333 103.502 344.951 103.189 344.68C102.882 344.409 102.445 344.273 101.877 344.273C101.278 344.273 100.801 344.406 100.447 344.672C100.093 344.932 99.8587 345.26 99.7441 345.656L96.666 345.406C96.8223 344.677 97.1296 344.047 97.5879 343.516C98.0462 342.979 98.6374 342.568 99.3613 342.281C100.09 341.99 100.934 341.844 101.893 341.844C102.559 341.844 103.197 341.922 103.807 342.078C104.421 342.234 104.965 342.477 105.439 342.805C105.919 343.133 106.296 343.555 106.572 344.07C106.848 344.581 106.986 345.193 106.986 345.906V354H103.83V352.336H103.736C103.544 352.711 103.286 353.042 102.963 353.328C102.64 353.609 102.252 353.831 101.799 353.992C101.346 354.148 100.822 354.227 100.229 354.227ZM101.182 351.93C101.671 351.93 102.104 351.833 102.479 351.641C102.854 351.443 103.148 351.177 103.361 350.844C103.575 350.51 103.682 350.133 103.682 349.711V348.438C103.577 348.505 103.434 348.568 103.252 348.625C103.075 348.677 102.874 348.727 102.65 348.773C102.426 348.815 102.202 348.854 101.979 348.891C101.755 348.922 101.551 348.951 101.369 348.977C100.979 349.034 100.637 349.125 100.346 349.25C100.054 349.375 99.8275 349.544 99.666 349.758C99.5046 349.966 99.4238 350.227 99.4238 350.539C99.4238 350.992 99.5879 351.339 99.916 351.578C100.249 351.812 100.671 351.93 101.182 351.93ZM109.568 354V342H112.896V354H109.568ZM111.24 340.453C110.745 340.453 110.321 340.289 109.967 339.961C109.618 339.628 109.443 339.229 109.443 338.766C109.443 338.307 109.618 337.914 109.967 337.586C110.321 337.253 110.745 337.086 111.24 337.086C111.735 337.086 112.157 337.253 112.506 337.586C112.86 337.914 113.037 338.307 113.037 338.766C113.037 339.229 112.86 339.628 112.506 339.961C112.157 340.289 111.735 340.453 111.24 340.453ZM118.891 347.063V354H115.563V342H118.734V344.117H118.875C119.141 343.419 119.586 342.867 120.211 342.461C120.836 342.049 121.594 341.844 122.484 341.844C123.318 341.844 124.044 342.026 124.664 342.391C125.284 342.755 125.766 343.276 126.109 343.953C126.453 344.625 126.625 345.427 126.625 346.359V354H123.297V346.953C123.302 346.219 123.115 345.646 122.734 345.234C122.354 344.818 121.831 344.609 121.164 344.609C120.716 344.609 120.32 344.706 119.977 344.898C119.638 345.091 119.372 345.372 119.18 345.742C118.992 346.107 118.896 346.547 118.891 347.063ZM132.865 351.812L132.779 352.672C132.712 353.359 132.581 354.044 132.389 354.727C132.201 355.414 132.003 356.036 131.795 356.594C131.592 357.151 131.428 357.589 131.303 357.906H129.146C129.225 357.599 129.331 357.169 129.467 356.617C129.602 356.07 129.73 355.456 129.85 354.773C129.969 354.091 130.045 353.396 130.076 352.687L130.115 351.812H132.865ZM140.311 354V338H146.623C147.837 338 148.87 338.232 149.725 338.695C150.579 339.154 151.23 339.792 151.678 340.609C152.131 341.422 152.357 342.359 152.357 343.422C152.357 344.484 152.128 345.422 151.67 346.234C151.212 347.047 150.548 347.68 149.678 348.133C148.813 348.586 147.766 348.812 146.537 348.812H142.514V346.102H145.99C146.641 346.102 147.178 345.99 147.6 345.766C148.027 345.536 148.344 345.221 148.553 344.82C148.766 344.414 148.873 343.948 148.873 343.422C148.873 342.891 148.766 342.427 148.553 342.031C148.344 341.63 148.027 341.32 147.6 341.102C147.173 340.878 146.631 340.766 145.975 340.766H143.693V354H140.311ZM159.768 354.234C158.533 354.234 157.471 353.984 156.58 353.484C155.695 352.979 155.012 352.266 154.533 351.344C154.054 350.417 153.814 349.32 153.814 348.055C153.814 346.82 154.054 345.737 154.533 344.805C155.012 343.872 155.687 343.146 156.557 342.625C157.432 342.104 158.458 341.844 159.635 341.844C160.426 341.844 161.163 341.971 161.846 342.227C162.533 342.477 163.132 342.854 163.643 343.359C164.158 343.865 164.559 344.5 164.846 345.266C165.132 346.026 165.275 346.917 165.275 347.937V348.852H155.143V346.789H162.143C162.143 346.31 162.038 345.885 161.83 345.516C161.622 345.146 161.333 344.857 160.963 344.648C160.598 344.435 160.174 344.328 159.689 344.328C159.184 344.328 158.736 344.445 158.346 344.68C157.96 344.909 157.658 345.219 157.439 345.609C157.221 345.995 157.109 346.424 157.104 346.898V348.859C157.104 349.453 157.213 349.966 157.432 350.398C157.656 350.831 157.971 351.164 158.377 351.398C158.783 351.633 159.265 351.75 159.822 351.75C160.192 351.75 160.531 351.698 160.838 351.594C161.145 351.49 161.408 351.333 161.627 351.125C161.846 350.917 162.012 350.661 162.127 350.359L165.205 350.562C165.049 351.302 164.729 351.948 164.244 352.5C163.765 353.047 163.145 353.474 162.385 353.781C161.63 354.083 160.757 354.234 159.768 354.234ZM167.447 354V342H170.674V344.094H170.799C171.018 343.349 171.385 342.786 171.9 342.406C172.416 342.021 173.01 341.828 173.682 341.828C173.848 341.828 174.028 341.839 174.221 341.859C174.413 341.88 174.583 341.909 174.729 341.945V344.898C174.572 344.852 174.356 344.81 174.08 344.773C173.804 344.737 173.551 344.719 173.322 344.719C172.833 344.719 172.395 344.826 172.01 345.039C171.63 345.247 171.327 345.539 171.104 345.914C170.885 346.289 170.775 346.721 170.775 347.211V354H167.447ZM176.449 354V342H179.621V344.117H179.762C180.012 343.414 180.428 342.859 181.012 342.453C181.595 342.047 182.293 341.844 183.105 341.844C183.928 341.844 184.629 342.049 185.207 342.461C185.785 342.867 186.171 343.419 186.363 344.117H186.488C186.733 343.43 187.176 342.88 187.816 342.469C188.462 342.052 189.225 341.844 190.105 341.844C191.225 341.844 192.134 342.201 192.832 342.914C193.535 343.622 193.887 344.628 193.887 345.93V354H190.566V346.586C190.566 345.919 190.389 345.419 190.035 345.086C189.681 344.753 189.238 344.586 188.707 344.586C188.103 344.586 187.632 344.779 187.293 345.164C186.954 345.544 186.785 346.047 186.785 346.672V354H183.559V346.516C183.559 345.927 183.389 345.458 183.051 345.109C182.717 344.76 182.277 344.586 181.73 344.586C181.361 344.586 181.027 344.68 180.73 344.867C180.439 345.049 180.207 345.307 180.035 345.641C179.863 345.969 179.777 346.354 179.777 346.797V354H176.449ZM199.938 354.227C199.172 354.227 198.49 354.094 197.891 353.828C197.292 353.557 196.818 353.159 196.469 352.633C196.125 352.102 195.953 351.44 195.953 350.648C195.953 349.982 196.076 349.422 196.32 348.969C196.565 348.516 196.898 348.151 197.32 347.875C197.742 347.599 198.221 347.391 198.758 347.25C199.299 347.109 199.867 347.01 200.461 346.953C201.159 346.88 201.721 346.812 202.148 346.75C202.576 346.682 202.885 346.583 203.078 346.453C203.271 346.323 203.367 346.13 203.367 345.875V345.828C203.367 345.333 203.211 344.951 202.898 344.68C202.591 344.409 202.154 344.273 201.586 344.273C200.987 344.273 200.51 344.406 200.156 344.672C199.802 344.932 199.568 345.26 199.453 345.656L196.375 345.406C196.531 344.677 196.839 344.047 197.297 343.516C197.755 342.979 198.346 342.568 199.07 342.281C199.799 341.99 200.643 341.844 201.602 341.844C202.268 341.844 202.906 341.922 203.516 342.078C204.13 342.234 204.674 342.477 205.148 342.805C205.628 343.133 206.005 343.555 206.281 344.07C206.557 344.581 206.695 345.193 206.695 345.906V354H203.539V352.336H203.445C203.253 352.711 202.995 353.042 202.672 353.328C202.349 353.609 201.961 353.831 201.508 353.992C201.055 354.148 200.531 354.227 199.938 354.227ZM200.891 351.93C201.38 351.93 201.813 351.833 202.187 351.641C202.562 351.443 202.857 351.177 203.07 350.844C203.284 350.51 203.391 350.133 203.391 349.711V348.438C203.286 348.505 203.143 348.568 202.961 348.625C202.784 348.677 202.583 348.727 202.359 348.773C202.135 348.815 201.911 348.854 201.688 348.891C201.464 348.922 201.26 348.951 201.078 348.977C200.688 349.034 200.346 349.125 200.055 349.25C199.763 349.375 199.536 349.544 199.375 349.758C199.214 349.966 199.133 350.227 199.133 350.539C199.133 350.992 199.297 351.339 199.625 351.578C199.958 351.812 200.38 351.93 200.891 351.93ZM212.605 347.063V354H209.277V342H212.449V344.117H212.59C212.855 343.419 213.301 342.867 213.926 342.461C214.551 342.049 215.309 341.844 216.199 341.844C217.033 341.844 217.759 342.026 218.379 342.391C218.999 342.755 219.48 343.276 219.824 343.953C220.168 344.625 220.34 345.427 220.34 346.359V354H217.012V346.953C217.017 346.219 216.829 345.646 216.449 345.234C216.069 344.818 215.546 344.609 214.879 344.609C214.431 344.609 214.035 344.706 213.691 344.898C213.353 345.091 213.087 345.372 212.895 345.742C212.707 346.107 212.611 346.547 212.605 347.063ZM228.432 354.234C227.197 354.234 226.135 353.984 225.244 353.484C224.359 352.979 223.676 352.266 223.197 351.344C222.718 350.417 222.479 349.32 222.479 348.055C222.479 346.82 222.718 345.737 223.197 344.805C223.676 343.872 224.351 343.146 225.221 342.625C226.096 342.104 227.122 341.844 228.299 341.844C229.09 341.844 229.827 341.971 230.51 342.227C231.197 342.477 231.796 342.854 232.307 343.359C232.822 343.865 233.223 344.5 233.51 345.266C233.796 346.026 233.939 346.917 233.939 347.937V348.852H223.807V346.789H230.807C230.807 346.31 230.702 345.885 230.494 345.516C230.286 345.146 229.997 344.857 229.627 344.648C229.262 344.435 228.838 344.328 228.354 344.328C227.848 344.328 227.4 344.445 227.01 344.68C226.624 344.909 226.322 345.219 226.104 345.609C225.885 345.995 225.773 346.424 225.768 346.898V348.859C225.768 349.453 225.877 349.966 226.096 350.398C226.32 350.831 226.635 351.164 227.041 351.398C227.447 351.633 227.929 351.75 228.486 351.75C228.856 351.75 229.195 351.698 229.502 351.594C229.809 351.49 230.072 351.333 230.291 351.125C230.51 350.917 230.676 350.661 230.791 350.359L233.869 350.562C233.713 351.302 233.393 351.948 232.908 352.5C232.429 353.047 231.809 353.474 231.049 353.781C230.294 354.083 229.421 354.234 228.432 354.234ZM239.439 347.063V354H236.111V342H239.283V344.117H239.424C239.689 343.419 240.135 342.867 240.76 342.461C241.385 342.049 242.143 341.844 243.033 341.844C243.867 341.844 244.593 342.026 245.213 342.391C245.833 342.755 246.314 343.276 246.658 343.953C247.002 344.625 247.174 345.427 247.174 346.359V354H243.846V346.953C243.851 346.219 243.663 345.646 243.283 345.234C242.903 344.818 242.38 344.609 241.713 344.609C241.265 344.609 240.869 344.706 240.525 344.898C240.187 345.091 239.921 345.372 239.729 345.742C239.541 346.107 239.445 346.547 239.439 347.063ZM256.18 342V344.5H248.953V342H256.18ZM250.594 339.125H253.922V350.312C253.922 350.62 253.969 350.859 254.063 351.031C254.156 351.198 254.286 351.315 254.453 351.383C254.625 351.451 254.823 351.484 255.047 351.484C255.203 351.484 255.359 351.471 255.516 351.445C255.672 351.414 255.792 351.391 255.875 351.375L256.398 353.852C256.232 353.904 255.997 353.964 255.695 354.031C255.393 354.104 255.026 354.148 254.594 354.164C253.792 354.195 253.089 354.089 252.484 353.844C251.885 353.599 251.419 353.219 251.086 352.703C250.753 352.187 250.589 351.536 250.594 350.75V339.125ZM268.346 354.234C267.242 354.234 266.288 354.036 265.486 353.641C264.684 353.245 264.067 352.708 263.635 352.031C263.208 351.349 262.994 350.589 262.994 349.75C262.994 349.125 263.119 348.57 263.369 348.086C263.619 347.602 263.968 347.156 264.416 346.75C264.864 346.339 265.385 345.93 265.979 345.523L269.08 343.484C269.481 343.229 269.775 342.961 269.963 342.68C270.15 342.393 270.244 342.083 270.244 341.75C270.244 341.432 270.117 341.138 269.861 340.867C269.606 340.596 269.244 340.464 268.775 340.469C268.463 340.469 268.192 340.539 267.963 340.68C267.734 340.815 267.554 340.995 267.424 341.219C267.299 341.437 267.236 341.682 267.236 341.953C267.236 342.286 267.33 342.625 267.518 342.969C267.705 343.312 267.955 343.677 268.268 344.062C268.58 344.443 268.921 344.854 269.291 345.297L276.877 354H273.408L267.08 346.953C266.663 346.479 266.247 345.984 265.83 345.469C265.419 344.948 265.075 344.396 264.799 343.812C264.523 343.224 264.385 342.586 264.385 341.898C264.385 341.122 264.564 340.424 264.924 339.805C265.288 339.185 265.799 338.695 266.455 338.336C267.111 337.971 267.877 337.789 268.752 337.789C269.606 337.789 270.343 337.964 270.963 338.312C271.588 338.656 272.067 339.115 272.4 339.687C272.739 340.255 272.908 340.88 272.908 341.562C272.908 342.318 272.721 343.003 272.346 343.617C271.976 344.227 271.455 344.773 270.783 345.258L267.518 347.609C267.075 347.932 266.747 348.263 266.533 348.602C266.325 348.935 266.221 349.255 266.221 349.562C266.221 349.943 266.314 350.284 266.502 350.586C266.689 350.888 266.955 351.128 267.299 351.305C267.643 351.477 268.046 351.562 268.51 351.562C269.072 351.562 269.627 351.435 270.174 351.18C270.726 350.919 271.226 350.552 271.674 350.078C272.127 349.599 272.489 349.031 272.76 348.375C273.031 347.719 273.166 346.992 273.166 346.195H275.924C275.924 347.174 275.817 348.057 275.604 348.844C275.39 349.625 275.093 350.307 274.713 350.891C274.333 351.469 273.898 351.943 273.408 352.312C273.252 352.411 273.101 352.505 272.955 352.594C272.809 352.682 272.658 352.776 272.502 352.875C271.908 353.354 271.244 353.701 270.51 353.914C269.781 354.128 269.059 354.234 268.346 354.234ZM292.098 342.602C292.035 341.971 291.767 341.482 291.293 341.133C290.819 340.784 290.176 340.609 289.363 340.609C288.811 340.609 288.345 340.687 287.965 340.844C287.585 340.995 287.293 341.206 287.09 341.477C286.892 341.747 286.793 342.055 286.793 342.398C286.783 342.685 286.842 342.935 286.973 343.148C287.108 343.362 287.293 343.547 287.527 343.703C287.762 343.854 288.033 343.987 288.34 344.102C288.647 344.211 288.975 344.305 289.324 344.383L290.762 344.727C291.46 344.883 292.1 345.091 292.684 345.352C293.267 345.612 293.772 345.932 294.199 346.312C294.626 346.693 294.957 347.141 295.191 347.656C295.431 348.172 295.553 348.763 295.559 349.43C295.553 350.409 295.303 351.258 294.809 351.977C294.319 352.69 293.611 353.245 292.684 353.641C291.762 354.031 290.65 354.227 289.348 354.227C288.056 354.227 286.931 354.029 285.973 353.633C285.02 353.237 284.275 352.651 283.738 351.875C283.207 351.094 282.928 350.128 282.902 348.977H286.176C286.212 349.513 286.366 349.961 286.637 350.32C286.913 350.674 287.28 350.943 287.738 351.125C288.202 351.302 288.725 351.391 289.309 351.391C289.882 351.391 290.379 351.307 290.801 351.141C291.228 350.974 291.559 350.742 291.793 350.445C292.027 350.148 292.145 349.807 292.145 349.422C292.145 349.062 292.038 348.76 291.824 348.516C291.616 348.271 291.309 348.062 290.902 347.891C290.501 347.719 290.009 347.562 289.426 347.422L287.684 346.984C286.335 346.656 285.27 346.143 284.488 345.445C283.707 344.747 283.319 343.807 283.324 342.625C283.319 341.656 283.577 340.81 284.098 340.086C284.624 339.362 285.345 338.797 286.262 338.391C287.178 337.984 288.22 337.781 289.387 337.781C290.574 337.781 291.611 337.984 292.496 338.391C293.387 338.797 294.079 339.362 294.574 340.086C295.069 340.81 295.324 341.648 295.34 342.602H292.098ZM303.24 354.234C302.006 354.234 300.943 353.984 300.053 353.484C299.167 352.979 298.485 352.266 298.006 351.344C297.527 350.417 297.287 349.32 297.287 348.055C297.287 346.82 297.527 345.737 298.006 344.805C298.485 343.872 299.16 343.146 300.029 342.625C300.904 342.104 301.93 341.844 303.107 341.844C303.899 341.844 304.636 341.971 305.318 342.227C306.006 342.477 306.605 342.854 307.115 343.359C307.631 343.865 308.032 344.5 308.318 345.266C308.605 346.026 308.748 346.917 308.748 347.937V348.852H298.615V346.789H305.615C305.615 346.31 305.511 345.885 305.303 345.516C305.094 345.146 304.805 344.857 304.436 344.648C304.071 344.435 303.646 344.328 303.162 344.328C302.657 344.328 302.209 344.445 301.818 344.68C301.433 344.909 301.131 345.219 300.912 345.609C300.693 345.995 300.581 346.424 300.576 346.898V348.859C300.576 349.453 300.686 349.966 300.904 350.398C301.128 350.831 301.443 351.164 301.85 351.398C302.256 351.633 302.738 351.75 303.295 351.75C303.665 351.75 304.003 351.698 304.311 351.594C304.618 351.49 304.881 351.333 305.1 351.125C305.318 350.917 305.485 350.661 305.6 350.359L308.678 350.562C308.521 351.302 308.201 351.948 307.717 352.5C307.238 353.047 306.618 353.474 305.857 353.781C305.102 354.083 304.23 354.234 303.24 354.234ZM316.342 354.234C315.113 354.234 314.055 353.974 313.17 353.453C312.29 352.927 311.613 352.198 311.139 351.266C310.67 350.333 310.436 349.26 310.436 348.047C310.436 346.818 310.673 345.74 311.146 344.812C311.626 343.88 312.305 343.154 313.186 342.633C314.066 342.107 315.113 341.844 316.326 341.844C317.373 341.844 318.29 342.034 319.076 342.414C319.863 342.794 320.485 343.328 320.943 344.016C321.402 344.703 321.654 345.51 321.701 346.438H318.561C318.472 345.839 318.238 345.357 317.857 344.992C317.482 344.622 316.99 344.437 316.381 344.437C315.865 344.437 315.415 344.578 315.029 344.859C314.649 345.135 314.352 345.539 314.139 346.07C313.925 346.602 313.818 347.245 313.818 348C313.818 348.766 313.923 349.417 314.131 349.953C314.344 350.49 314.644 350.898 315.029 351.18C315.415 351.461 315.865 351.602 316.381 351.602C316.761 351.602 317.102 351.523 317.404 351.367C317.712 351.211 317.964 350.984 318.162 350.687C318.365 350.385 318.498 350.023 318.561 349.602H321.701C321.649 350.518 321.399 351.326 320.951 352.023C320.508 352.716 319.896 353.258 319.115 353.648C318.334 354.039 317.41 354.234 316.342 354.234ZM331.527 348.891V342H334.855V354H331.66V351.82H331.535C331.264 352.523 330.814 353.089 330.184 353.516C329.559 353.943 328.796 354.156 327.895 354.156C327.092 354.156 326.387 353.974 325.777 353.609C325.168 353.245 324.691 352.727 324.348 352.055C324.009 351.383 323.837 350.578 323.832 349.641V342H327.16V349.047C327.165 349.755 327.355 350.315 327.73 350.727C328.105 351.138 328.608 351.344 329.238 351.344C329.639 351.344 330.014 351.253 330.363 351.07C330.712 350.883 330.993 350.607 331.207 350.242C331.426 349.878 331.533 349.427 331.527 348.891ZM337.518 354V342H340.744V344.094H340.869C341.088 343.349 341.455 342.786 341.971 342.406C342.486 342.021 343.08 341.828 343.752 341.828C343.919 341.828 344.098 341.839 344.291 341.859C344.484 341.88 344.653 341.909 344.799 341.945V344.898C344.643 344.852 344.426 344.81 344.15 344.773C343.874 344.737 343.622 344.719 343.393 344.719C342.903 344.719 342.465 344.826 342.08 345.039C341.7 345.247 341.398 345.539 341.174 345.914C340.955 346.289 340.846 346.721 340.846 347.211V354H337.518ZM351.43 354.234C350.195 354.234 349.133 353.984 348.242 353.484C347.357 352.979 346.674 352.266 346.195 351.344C345.716 350.417 345.477 349.32 345.477 348.055C345.477 346.82 345.716 345.737 346.195 344.805C346.674 343.872 347.349 343.146 348.219 342.625C349.094 342.104 350.12 341.844 351.297 341.844C352.089 341.844 352.826 341.971 353.508 342.227C354.195 342.477 354.794 342.854 355.305 343.359C355.82 343.865 356.221 344.5 356.508 345.266C356.794 346.026 356.938 346.917 356.938 347.937V348.852H346.805V346.789H353.805C353.805 346.31 353.701 345.885 353.492 345.516C353.284 345.146 352.995 344.857 352.625 344.648C352.26 344.435 351.836 344.328 351.352 344.328C350.846 344.328 350.398 344.445 350.008 344.68C349.622 344.909 349.32 345.219 349.102 345.609C348.883 345.995 348.771 346.424 348.766 346.898V348.859C348.766 349.453 348.875 349.966 349.094 350.398C349.318 350.831 349.633 351.164 350.039 351.398C350.445 351.633 350.927 351.75 351.484 351.75C351.854 351.75 352.193 351.698 352.5 351.594C352.807 351.49 353.07 351.333 353.289 351.125C353.508 350.917 353.674 350.661 353.789 350.359L356.867 350.562C356.711 351.302 356.391 351.948 355.906 352.5C355.427 353.047 354.807 353.474 354.047 353.781C353.292 354.083 352.419 354.234 351.43 354.234Z" fill="#0C0E0F"/>
<path d="M25.4091 379.364H27.0909L31.0455 389.023H31.1818L35.1364 379.364H36.8182V391H35.5V382.159H35.3864L31.75 391H30.4773L26.8409 382.159H26.7273V391H25.4091V379.364ZM43.1207 391.182C42.2798 391.182 41.5545 390.996 40.9446 390.625C40.3385 390.25 39.8707 389.727 39.5412 389.057C39.2154 388.383 39.0526 387.598 39.0526 386.705C39.0526 385.811 39.2154 385.023 39.5412 384.341C39.8707 383.655 40.3291 383.121 40.9162 382.739C41.5071 382.352 42.1965 382.159 42.9844 382.159C43.4389 382.159 43.8878 382.235 44.331 382.386C44.7741 382.538 45.1776 382.784 45.5412 383.125C45.9048 383.462 46.1946 383.909 46.4105 384.466C46.6264 385.023 46.7344 385.708 46.7344 386.523V387.091H40.0071V385.932H45.3707C45.3707 385.439 45.2723 385 45.0753 384.614C44.8821 384.227 44.6056 383.922 44.2457 383.699C43.8897 383.475 43.4692 383.364 42.9844 383.364C42.4503 383.364 41.9882 383.496 41.598 383.761C41.2116 384.023 40.9143 384.364 40.706 384.784C40.4976 385.205 40.3935 385.655 40.3935 386.136V386.909C40.3935 387.568 40.5071 388.127 40.7344 388.585C40.9654 389.04 41.2855 389.386 41.6946 389.625C42.1037 389.86 42.5791 389.977 43.1207 389.977C43.473 389.977 43.7912 389.928 44.0753 389.83C44.3632 389.727 44.6113 389.576 44.8196 389.375C45.0279 389.17 45.1889 388.917 45.3026 388.614L46.598 388.977C46.4616 389.417 46.2325 389.803 45.9105 390.136C45.5885 390.466 45.1908 390.723 44.7173 390.909C44.2438 391.091 43.7116 391.182 43.1207 391.182ZM54.956 384.227L53.7514 384.568C53.6757 384.367 53.5639 384.172 53.4162 383.983C53.2723 383.79 53.0753 383.631 52.8253 383.506C52.5753 383.381 52.2552 383.318 51.8651 383.318C51.331 383.318 50.8859 383.441 50.5298 383.688C50.1776 383.93 50.0014 384.239 50.0014 384.614C50.0014 384.947 50.1226 385.21 50.3651 385.403C50.6075 385.597 50.9863 385.758 51.5014 385.886L52.7969 386.205C53.5772 386.394 54.1586 386.684 54.5412 387.074C54.9238 387.46 55.1151 387.958 55.1151 388.568C55.1151 389.068 54.9711 389.515 54.6832 389.909C54.3991 390.303 54.0014 390.614 53.4901 390.841C52.9787 391.068 52.384 391.182 51.706 391.182C50.8158 391.182 50.0791 390.989 49.4957 390.602C48.9124 390.216 48.5431 389.652 48.3878 388.909L49.6605 388.591C49.7817 389.061 50.0109 389.413 50.348 389.648C50.6889 389.883 51.134 390 51.6832 390C52.3082 390 52.8045 389.867 53.1719 389.602C53.5431 389.333 53.7287 389.011 53.7287 388.636C53.7287 388.333 53.6226 388.08 53.4105 387.875C53.1984 387.667 52.8726 387.511 52.4332 387.409L50.9787 387.068C50.1795 386.879 49.5923 386.585 49.2173 386.188C48.8461 385.786 48.6605 385.284 48.6605 384.682C48.6605 384.189 48.7988 383.754 49.0753 383.375C49.3556 382.996 49.7363 382.699 50.2173 382.483C50.7022 382.267 51.2514 382.159 51.8651 382.159C52.7287 382.159 53.4067 382.348 53.8991 382.727C54.3954 383.106 54.7476 383.606 54.956 384.227ZM63.3153 384.227L62.1108 384.568C62.035 384.367 61.9233 384.172 61.7756 383.983C61.6316 383.79 61.4347 383.631 61.1847 383.506C60.9347 383.381 60.6146 383.318 60.2244 383.318C59.6903 383.318 59.2453 383.441 58.8892 383.688C58.5369 383.93 58.3608 384.239 58.3608 384.614C58.3608 384.947 58.482 385.21 58.7244 385.403C58.9669 385.597 59.3456 385.758 59.8608 385.886L61.1562 386.205C61.9366 386.394 62.518 386.684 62.9006 387.074C63.2831 387.46 63.4744 387.958 63.4744 388.568C63.4744 389.068 63.3305 389.515 63.0426 389.909C62.7585 390.303 62.3608 390.614 61.8494 390.841C61.3381 391.068 60.7434 391.182 60.0653 391.182C59.1752 391.182 58.4384 390.989 57.8551 390.602C57.2718 390.216 56.9025 389.652 56.7472 388.909L58.0199 388.591C58.1411 389.061 58.3703 389.413 58.7074 389.648C59.0483 389.883 59.4934 390 60.0426 390C60.6676 390 61.1638 389.867 61.5312 389.602C61.9025 389.333 62.0881 389.011 62.0881 388.636C62.0881 388.333 61.982 388.08 61.7699 387.875C61.5578 387.667 61.232 387.511 60.7926 387.409L59.3381 387.068C58.5388 386.879 57.9517 386.585 57.5767 386.188C57.2055 385.786 57.0199 385.284 57.0199 384.682C57.0199 384.189 57.1581 383.754 57.4347 383.375C57.715 382.996 58.0956 382.699 58.5767 382.483C59.0616 382.267 59.6108 382.159 60.2244 382.159C61.0881 382.159 61.7661 382.348 62.2585 382.727C62.7547 383.106 63.107 383.606 63.3153 384.227ZM68.0611 391.205C67.508 391.205 67.0062 391.1 66.5554 390.892C66.1046 390.68 65.7467 390.375 65.4815 389.977C65.2164 389.576 65.0838 389.091 65.0838 388.523C65.0838 388.023 65.1823 387.617 65.3793 387.307C65.5762 386.992 65.8395 386.746 66.169 386.568C66.4986 386.39 66.8622 386.258 67.2599 386.17C67.6615 386.08 68.0649 386.008 68.4702 385.955C69.0005 385.886 69.4304 385.835 69.7599 385.801C70.0933 385.763 70.3357 385.701 70.4872 385.614C70.6425 385.527 70.7202 385.375 70.7202 385.159V385.114C70.7202 384.553 70.5668 384.117 70.2599 383.807C69.9569 383.496 69.4967 383.341 68.8793 383.341C68.2391 383.341 67.7372 383.481 67.3736 383.761C67.0099 384.042 66.7543 384.341 66.6065 384.659L65.3338 384.205C65.5611 383.674 65.8641 383.261 66.2429 382.966C66.6255 382.667 67.0421 382.458 67.4929 382.341C67.9474 382.22 68.3944 382.159 68.8338 382.159C69.1141 382.159 69.4361 382.193 69.7997 382.261C70.1671 382.326 70.5213 382.46 70.8622 382.665C71.2069 382.869 71.4929 383.178 71.7202 383.591C71.9474 384.004 72.0611 384.557 72.0611 385.25V391H70.7202V389.818H70.652C70.5611 390.008 70.4096 390.21 70.1974 390.426C69.9853 390.642 69.7031 390.826 69.3509 390.977C68.9986 391.129 68.5687 391.205 68.0611 391.205ZM68.2656 390C68.7959 390 69.2429 389.896 69.6065 389.688C69.974 389.479 70.2505 389.21 70.4361 388.881C70.6255 388.551 70.7202 388.205 70.7202 387.841V386.614C70.6634 386.682 70.5384 386.744 70.3452 386.801C70.1558 386.854 69.9361 386.902 69.6861 386.943C69.4399 386.981 69.1993 387.015 68.9645 387.045C68.7334 387.072 68.5459 387.095 68.402 387.114C68.0535 387.159 67.7277 387.233 67.4247 387.335C67.1255 387.434 66.883 387.583 66.6974 387.784C66.5156 387.981 66.4247 388.25 66.4247 388.591C66.4247 389.057 66.5971 389.409 66.9418 389.648C67.2902 389.883 67.7315 390 68.2656 390ZM78.0312 394.455C77.3835 394.455 76.8267 394.371 76.3608 394.205C75.8949 394.042 75.5066 393.826 75.196 393.557C74.8892 393.292 74.6449 393.008 74.4631 392.705L75.5312 391.955C75.6525 392.114 75.8059 392.295 75.9915 392.5C76.1771 392.708 76.4309 392.888 76.7528 393.04C77.0786 393.195 77.5047 393.273 78.0312 393.273C78.7358 393.273 79.3172 393.102 79.7756 392.761C80.2339 392.42 80.4631 391.886 80.4631 391.159V389.386H80.3494C80.2509 389.545 80.1108 389.742 79.929 389.977C79.7509 390.208 79.4934 390.415 79.1562 390.597C78.8229 390.775 78.3722 390.864 77.804 390.864C77.0994 390.864 76.4669 390.697 75.9062 390.364C75.3494 390.03 74.9081 389.545 74.5824 388.909C74.2604 388.273 74.0994 387.5 74.0994 386.591C74.0994 385.697 74.2566 384.919 74.571 384.256C74.8854 383.589 75.3229 383.074 75.8835 382.71C76.4441 382.343 77.0919 382.159 77.8267 382.159C78.3949 382.159 78.8456 382.254 79.179 382.443C79.5161 382.629 79.7737 382.841 79.9517 383.08C80.1335 383.314 80.2737 383.508 80.3722 383.659H80.5085V382.273H81.804V391.25C81.804 392 81.6335 392.61 81.2926 393.08C80.9555 393.553 80.5009 393.9 79.929 394.119C79.3608 394.343 78.7282 394.455 78.0312 394.455ZM77.9858 389.659C78.5237 389.659 78.9782 389.536 79.3494 389.29C79.7206 389.044 80.0028 388.689 80.196 388.227C80.3892 387.765 80.4858 387.212 80.4858 386.568C80.4858 385.939 80.3911 385.384 80.2017 384.903C80.0123 384.422 79.732 384.045 79.3608 383.773C78.9896 383.5 78.5313 383.364 77.9858 383.364C77.4176 383.364 76.9441 383.508 76.5653 383.795C76.1903 384.083 75.9081 384.47 75.7188 384.955C75.5331 385.439 75.4403 385.977 75.4403 386.568C75.4403 387.174 75.535 387.71 75.7244 388.176C75.9176 388.638 76.2017 389.002 76.5767 389.267C76.9555 389.528 77.4252 389.659 77.9858 389.659ZM87.9176 391.182C87.0767 391.182 86.3513 390.996 85.7415 390.625C85.1354 390.25 84.6676 389.727 84.3381 389.057C84.0123 388.383 83.8494 387.598 83.8494 386.705C83.8494 385.811 84.0123 385.023 84.3381 384.341C84.6676 383.655 85.1259 383.121 85.7131 382.739C86.304 382.352 86.9934 382.159 87.7812 382.159C88.2358 382.159 88.6847 382.235 89.1278 382.386C89.571 382.538 89.9744 382.784 90.3381 383.125C90.7017 383.462 90.9915 383.909 91.2074 384.466C91.4233 385.023 91.5312 385.708 91.5312 386.523V387.091H84.804V385.932H90.1676C90.1676 385.439 90.0691 385 89.8722 384.614C89.679 384.227 89.4025 383.922 89.0426 383.699C88.6866 383.475 88.2661 383.364 87.7812 383.364C87.2472 383.364 86.785 383.496 86.3949 383.761C86.0085 384.023 85.7112 384.364 85.5028 384.784C85.2945 385.205 85.1903 385.655 85.1903 386.136V386.909C85.1903 387.568 85.304 388.127 85.5312 388.585C85.7623 389.04 86.0824 389.386 86.4915 389.625C86.9006 389.86 87.3759 389.977 87.9176 389.977C88.2699 389.977 88.5881 389.928 88.8722 389.83C89.16 389.727 89.4081 389.576 89.6165 389.375C89.8248 389.17 89.9858 388.917 90.0994 388.614L91.3949 388.977C91.2585 389.417 91.0294 389.803 90.7074 390.136C90.3854 390.466 89.9877 390.723 89.5142 390.909C89.0407 391.091 88.5085 391.182 87.9176 391.182ZM99.7528 384.227L98.5483 384.568C98.4725 384.367 98.3608 384.172 98.2131 383.983C98.0691 383.79 97.8722 383.631 97.6222 383.506C97.3722 383.381 97.0521 383.318 96.6619 383.318C96.1278 383.318 95.6828 383.441 95.3267 383.688C94.9744 383.93 94.7983 384.239 94.7983 384.614C94.7983 384.947 94.9195 385.21 95.1619 385.403C95.4044 385.597 95.7831 385.758 96.2983 385.886L97.5938 386.205C98.3741 386.394 98.9555 386.684 99.3381 387.074C99.7206 387.46 99.9119 387.958 99.9119 388.568C99.9119 389.068 99.768 389.515 99.4801 389.909C99.196 390.303 98.7983 390.614 98.2869 390.841C97.7756 391.068 97.1809 391.182 96.5028 391.182C95.6127 391.182 94.8759 390.989 94.2926 390.602C93.7093 390.216 93.34 389.652 93.1847 388.909L94.4574 388.591C94.5786 389.061 94.8078 389.413 95.1449 389.648C95.4858 389.883 95.9309 390 96.4801 390C97.1051 390 97.6013 389.867 97.9688 389.602C98.34 389.333 98.5256 389.011 98.5256 388.636C98.5256 388.333 98.4195 388.08 98.2074 387.875C97.9953 387.667 97.6695 387.511 97.2301 387.409L95.7756 387.068C94.9763 386.879 94.3892 386.585 94.0142 386.188C93.643 385.786 93.4574 385.284 93.4574 384.682C93.4574 384.189 93.5956 383.754 93.8722 383.375C94.1525 382.996 94.5331 382.699 95.0142 382.483C95.4991 382.267 96.0483 382.159 96.6619 382.159C97.5256 382.159 98.2036 382.348 98.696 382.727C99.1922 383.106 99.5445 383.606 99.7528 384.227ZM107.771 379.364V391H106.43V379.364H107.771ZM110.227 391V382.273H111.568V391H110.227ZM110.909 380.818C110.648 380.818 110.422 380.729 110.233 380.551C110.047 380.373 109.955 380.159 109.955 379.909C109.955 379.659 110.047 379.445 110.233 379.267C110.422 379.089 110.648 379 110.909 379C111.17 379 111.394 379.089 111.58 379.267C111.769 379.445 111.864 379.659 111.864 379.909C111.864 380.159 111.769 380.373 111.58 380.551C111.394 380.729 111.17 380.818 110.909 380.818ZM121.161 382.273L117.933 391H116.57L113.342 382.273H114.797L117.206 389.227H117.297L119.706 382.273H121.161ZM126.277 391.182C125.436 391.182 124.711 390.996 124.101 390.625C123.495 390.25 123.027 389.727 122.697 389.057C122.372 388.383 122.209 387.598 122.209 386.705C122.209 385.811 122.372 385.023 122.697 384.341C123.027 383.655 123.485 383.121 124.072 382.739C124.663 382.352 125.353 382.159 126.141 382.159C126.595 382.159 127.044 382.235 127.487 382.386C127.93 382.538 128.334 382.784 128.697 383.125C129.061 383.462 129.351 383.909 129.567 384.466C129.783 385.023 129.891 385.708 129.891 386.523V387.091H123.163V385.932H128.527C128.527 385.439 128.429 385 128.232 384.614C128.038 384.227 127.762 383.922 127.402 383.699C127.046 383.475 126.625 383.364 126.141 383.364C125.607 383.364 125.144 383.496 124.754 383.761C124.368 384.023 124.071 384.364 123.862 384.784C123.654 385.205 123.55 385.655 123.55 386.136V386.909C123.55 387.568 123.663 388.127 123.891 388.585C124.122 389.04 124.442 389.386 124.851 389.625C125.26 389.86 125.735 389.977 126.277 389.977C126.629 389.977 126.947 389.928 127.232 389.83C127.519 389.727 127.768 389.576 127.976 389.375C128.184 389.17 128.345 388.917 128.459 388.614L129.754 388.977C129.618 389.417 129.389 389.803 129.067 390.136C128.745 390.466 128.347 390.723 127.874 390.909C127.4 391.091 126.868 391.182 126.277 391.182ZM140.317 382.273V383.409H135.612V382.273H140.317ZM137.021 391V381.068C137.021 380.568 137.139 380.152 137.374 379.818C137.608 379.485 137.913 379.235 138.288 379.068C138.663 378.902 139.059 378.818 139.476 378.818C139.805 378.818 140.074 378.845 140.283 378.898C140.491 378.951 140.646 379 140.749 379.045L140.362 380.205C140.294 380.182 140.199 380.153 140.078 380.119C139.961 380.085 139.805 380.068 139.612 380.068C139.169 380.068 138.849 380.18 138.652 380.403C138.459 380.627 138.362 380.955 138.362 381.386V391H137.021ZM145.382 391.182C144.594 391.182 143.903 390.994 143.308 390.619C142.717 390.244 142.255 389.72 141.922 389.045C141.592 388.371 141.428 387.583 141.428 386.682C141.428 385.773 141.592 384.979 141.922 384.301C142.255 383.623 142.717 383.097 143.308 382.722C143.903 382.347 144.594 382.159 145.382 382.159C146.17 382.159 146.859 382.347 147.45 382.722C148.045 383.097 148.507 383.623 148.837 384.301C149.17 384.979 149.337 385.773 149.337 386.682C149.337 387.583 149.17 388.371 148.837 389.045C148.507 389.72 148.045 390.244 147.45 390.619C146.859 390.994 146.17 391.182 145.382 391.182ZM145.382 389.977C145.981 389.977 146.473 389.824 146.859 389.517C147.246 389.21 147.532 388.807 147.717 388.307C147.903 387.807 147.996 387.265 147.996 386.682C147.996 386.098 147.903 385.555 147.717 385.051C147.532 384.547 147.246 384.14 146.859 383.83C146.473 383.519 145.981 383.364 145.382 383.364C144.784 383.364 144.291 383.519 143.905 383.83C143.518 384.14 143.232 384.547 143.047 385.051C142.861 385.555 142.768 386.098 142.768 386.682C142.768 387.265 142.861 387.807 143.047 388.307C143.232 388.807 143.518 389.21 143.905 389.517C144.291 389.824 144.784 389.977 145.382 389.977ZM151.384 391V382.273H152.679V383.591H152.77C152.929 383.159 153.217 382.809 153.634 382.54C154.05 382.271 154.52 382.136 155.043 382.136C155.141 382.136 155.264 382.138 155.412 382.142C155.56 382.146 155.671 382.152 155.747 382.159V383.523C155.702 383.511 155.598 383.494 155.435 383.472C155.276 383.445 155.107 383.432 154.929 383.432C154.505 383.432 154.126 383.521 153.793 383.699C153.463 383.873 153.202 384.116 153.009 384.426C152.819 384.733 152.724 385.083 152.724 385.477V391H151.384ZM160.73 391.182C159.889 391.182 159.164 390.996 158.554 390.625C157.948 390.25 157.48 389.727 157.151 389.057C156.825 388.383 156.662 387.598 156.662 386.705C156.662 385.811 156.825 385.023 157.151 384.341C157.48 383.655 157.938 383.121 158.526 382.739C159.116 382.352 159.806 382.159 160.594 382.159C161.048 382.159 161.497 382.235 161.94 382.386C162.384 382.538 162.787 382.784 163.151 383.125C163.514 383.462 163.804 383.909 164.02 384.466C164.236 385.023 164.344 385.708 164.344 386.523V387.091H157.616V385.932H162.98C162.98 385.439 162.882 385 162.685 384.614C162.491 384.227 162.215 383.922 161.855 383.699C161.499 383.475 161.079 383.364 160.594 383.364C160.06 383.364 159.598 383.496 159.207 383.761C158.821 384.023 158.524 384.364 158.315 384.784C158.107 385.205 158.003 385.655 158.003 386.136V386.909C158.003 387.568 158.116 388.127 158.344 388.585C158.575 389.04 158.895 389.386 159.304 389.625C159.713 389.86 160.188 389.977 160.73 389.977C161.082 389.977 161.401 389.928 161.685 389.83C161.973 389.727 162.221 389.576 162.429 389.375C162.637 389.17 162.798 388.917 162.912 388.614L164.207 388.977C164.071 389.417 163.842 389.803 163.52 390.136C163.198 390.466 162.8 390.723 162.327 390.909C161.853 391.091 161.321 391.182 160.73 391.182ZM173.254 382.273L170.027 391H168.663L165.436 382.273H166.891L169.3 389.227H169.391L171.8 382.273H173.254ZM178.371 391.182C177.53 391.182 176.804 390.996 176.195 390.625C175.589 390.25 175.121 389.727 174.791 389.057C174.465 388.383 174.303 387.598 174.303 386.705C174.303 385.811 174.465 385.023 174.791 384.341C175.121 383.655 175.579 383.121 176.166 382.739C176.757 382.352 177.446 382.159 178.234 382.159C178.689 382.159 179.138 382.235 179.581 382.386C180.024 382.538 180.428 382.784 180.791 383.125C181.155 383.462 181.445 383.909 181.661 384.466C181.876 385.023 181.984 385.708 181.984 386.523V387.091H175.257V385.932H180.621C180.621 385.439 180.522 385 180.325 384.614C180.132 384.227 179.856 383.922 179.496 383.699C179.14 383.475 178.719 383.364 178.234 383.364C177.7 383.364 177.238 383.496 176.848 383.761C176.462 384.023 176.164 384.364 175.956 384.784C175.748 385.205 175.643 385.655 175.643 386.136V386.909C175.643 387.568 175.757 388.127 175.984 388.585C176.215 389.04 176.536 389.386 176.945 389.625C177.354 389.86 177.829 389.977 178.371 389.977C178.723 389.977 179.041 389.928 179.325 389.83C179.613 389.727 179.861 389.576 180.07 389.375C180.278 389.17 180.439 388.917 180.553 388.614L181.848 388.977C181.712 389.417 181.482 389.803 181.161 390.136C180.839 390.466 180.441 390.723 179.967 390.909C179.494 391.091 178.962 391.182 178.371 391.182ZM184.024 391V382.273H185.32V383.591H185.411C185.57 383.159 185.857 382.809 186.274 382.54C186.691 382.271 187.161 382.136 187.683 382.136C187.782 382.136 187.905 382.138 188.053 382.142C188.2 382.146 188.312 382.152 188.388 382.159V383.523C188.342 383.511 188.238 383.494 188.075 383.472C187.916 383.445 187.748 383.432 187.57 383.432C187.145 383.432 186.767 383.521 186.433 383.699C186.104 383.873 185.842 384.116 185.649 384.426C185.46 384.733 185.365 385.083 185.365 385.477V391H184.024ZM198.023 391.182C197.235 391.182 196.544 390.994 195.949 390.619C195.358 390.244 194.896 389.72 194.562 389.045C194.233 388.371 194.068 387.583 194.068 386.682C194.068 385.773 194.233 384.979 194.562 384.301C194.896 383.623 195.358 383.097 195.949 382.722C196.544 382.347 197.235 382.159 198.023 382.159C198.811 382.159 199.5 382.347 200.091 382.722C200.686 383.097 201.148 383.623 201.477 384.301C201.811 384.979 201.977 385.773 201.977 386.682C201.977 387.583 201.811 388.371 201.477 389.045C201.148 389.72 200.686 390.244 200.091 390.619C199.5 390.994 198.811 391.182 198.023 391.182ZM198.023 389.977C198.621 389.977 199.114 389.824 199.5 389.517C199.886 389.21 200.172 388.807 200.358 388.307C200.544 387.807 200.636 387.265 200.636 386.682C200.636 386.098 200.544 385.555 200.358 385.051C200.172 384.547 199.886 384.14 199.5 383.83C199.114 383.519 198.621 383.364 198.023 383.364C197.424 383.364 196.932 383.519 196.545 383.83C196.159 384.14 195.873 384.547 195.688 385.051C195.502 385.555 195.409 386.098 195.409 386.682C195.409 387.265 195.502 387.807 195.688 388.307C195.873 388.807 196.159 389.21 196.545 389.517C196.932 389.824 197.424 389.977 198.023 389.977ZM205.365 385.75V391H204.024V382.273H205.32V383.636H205.433C205.638 383.193 205.948 382.837 206.365 382.568C206.782 382.295 207.32 382.159 207.979 382.159C208.57 382.159 209.087 382.28 209.53 382.523C209.973 382.761 210.318 383.125 210.564 383.614C210.81 384.098 210.933 384.712 210.933 385.455V391H209.592V385.545C209.592 384.86 209.414 384.326 209.058 383.943C208.702 383.557 208.214 383.364 207.592 383.364C207.164 383.364 206.782 383.456 206.445 383.642C206.111 383.828 205.848 384.098 205.655 384.455C205.462 384.811 205.365 385.242 205.365 385.75ZM221.679 382.273V383.409H217.156V382.273H221.679ZM218.474 380.182H219.815V388.5C219.815 388.879 219.87 389.163 219.98 389.352C220.094 389.538 220.238 389.663 220.412 389.727C220.59 389.788 220.777 389.818 220.974 389.818C221.122 389.818 221.243 389.811 221.338 389.795C221.433 389.777 221.509 389.761 221.565 389.75L221.838 390.955C221.747 390.989 221.62 391.023 221.457 391.057C221.295 391.095 221.088 391.114 220.838 391.114C220.459 391.114 220.088 391.032 219.724 390.869C219.365 390.706 219.065 390.458 218.827 390.125C218.592 389.792 218.474 389.371 218.474 388.864V380.182ZM225.224 385.75V391H223.884V379.364H225.224V383.636H225.338C225.543 383.186 225.849 382.828 226.259 382.562C226.671 382.294 227.221 382.159 227.906 382.159C228.501 382.159 229.022 382.278 229.469 382.517C229.916 382.752 230.262 383.114 230.509 383.602C230.759 384.087 230.884 384.705 230.884 385.455V391H229.543V385.545C229.543 384.852 229.363 384.316 229.003 383.938C228.647 383.555 228.152 383.364 227.52 383.364C227.08 383.364 226.687 383.456 226.338 383.642C225.993 383.828 225.721 384.098 225.52 384.455C225.323 384.811 225.224 385.242 225.224 385.75ZM236.996 391.182C236.155 391.182 235.429 390.996 234.82 390.625C234.214 390.25 233.746 389.727 233.416 389.057C233.09 388.383 232.928 387.598 232.928 386.705C232.928 385.811 233.09 385.023 233.416 384.341C233.746 383.655 234.204 383.121 234.791 382.739C235.382 382.352 236.071 382.159 236.859 382.159C237.314 382.159 237.763 382.235 238.206 382.386C238.649 382.538 239.053 382.784 239.416 383.125C239.78 383.462 240.07 383.909 240.286 384.466C240.501 385.023 240.609 385.708 240.609 386.523V387.091H233.882V385.932H239.246C239.246 385.439 239.147 385 238.95 384.614C238.757 384.227 238.481 383.922 238.121 383.699C237.765 383.475 237.344 383.364 236.859 383.364C236.325 383.364 235.863 383.496 235.473 383.761C235.087 384.023 234.789 384.364 234.581 384.784C234.373 385.205 234.268 385.655 234.268 386.136V386.909C234.268 387.568 234.382 388.127 234.609 388.585C234.84 389.04 235.161 389.386 235.57 389.625C235.979 389.86 236.454 389.977 236.996 389.977C237.348 389.977 237.666 389.928 237.95 389.83C238.238 389.727 238.486 389.576 238.695 389.375C238.903 389.17 239.064 388.917 239.178 388.614L240.473 388.977C240.337 389.417 240.107 389.803 239.786 390.136C239.464 390.466 239.066 390.723 238.592 390.909C238.119 391.091 237.587 391.182 236.996 391.182ZM247.331 391V379.364H248.672V383.659H248.786C248.884 383.508 249.02 383.314 249.195 383.08C249.373 382.841 249.626 382.629 249.956 382.443C250.289 382.254 250.74 382.159 251.308 382.159C252.043 382.159 252.691 382.343 253.251 382.71C253.812 383.078 254.25 383.598 254.564 384.273C254.878 384.947 255.036 385.742 255.036 386.659C255.036 387.583 254.878 388.384 254.564 389.062C254.25 389.737 253.814 390.259 253.257 390.631C252.7 390.998 252.058 391.182 251.331 391.182C250.77 391.182 250.321 391.089 249.984 390.903C249.647 390.714 249.388 390.5 249.206 390.261C249.024 390.019 248.884 389.818 248.786 389.659H248.626V391H247.331ZM248.649 386.636C248.649 387.295 248.746 387.877 248.939 388.381C249.132 388.881 249.414 389.273 249.786 389.557C250.157 389.837 250.611 389.977 251.149 389.977C251.71 389.977 252.178 389.83 252.553 389.534C252.931 389.235 253.215 388.833 253.405 388.33C253.598 387.822 253.695 387.258 253.695 386.636C253.695 386.023 253.6 385.47 253.411 384.977C253.225 384.481 252.943 384.089 252.564 383.801C252.189 383.509 251.717 383.364 251.149 383.364C250.604 383.364 250.145 383.502 249.774 383.778C249.403 384.051 249.123 384.434 248.933 384.926C248.744 385.415 248.649 385.985 248.649 386.636ZM258.428 379.364V391H257.087V379.364H258.428ZM264.429 391.182C263.641 391.182 262.95 390.994 262.355 390.619C261.764 390.244 261.302 389.72 260.969 389.045C260.639 388.371 260.474 387.583 260.474 386.682C260.474 385.773 260.639 384.979 260.969 384.301C261.302 383.623 261.764 383.097 262.355 382.722C262.95 382.347 263.641 382.159 264.429 382.159C265.217 382.159 265.906 382.347 266.497 382.722C267.092 383.097 267.554 383.623 267.884 384.301C268.217 384.979 268.384 385.773 268.384 386.682C268.384 387.583 268.217 388.371 267.884 389.045C267.554 389.72 267.092 390.244 266.497 390.619C265.906 390.994 265.217 391.182 264.429 391.182ZM264.429 389.977C265.027 389.977 265.52 389.824 265.906 389.517C266.293 389.21 266.579 388.807 266.764 388.307C266.95 387.807 267.043 387.265 267.043 386.682C267.043 386.098 266.95 385.555 266.764 385.051C266.579 384.547 266.293 384.14 265.906 383.83C265.52 383.519 265.027 383.364 264.429 383.364C263.83 383.364 263.338 383.519 262.952 383.83C262.565 384.14 262.279 384.547 262.094 385.051C261.908 385.555 261.815 386.098 261.815 386.682C261.815 387.265 261.908 387.807 262.094 388.307C262.279 388.807 262.565 389.21 262.952 389.517C263.338 389.824 263.83 389.977 264.429 389.977ZM273.976 391.182C273.158 391.182 272.453 390.989 271.862 390.602C271.271 390.216 270.817 389.684 270.499 389.006C270.18 388.328 270.021 387.553 270.021 386.682C270.021 385.795 270.184 385.013 270.51 384.335C270.839 383.653 271.298 383.121 271.885 382.739C272.476 382.352 273.165 382.159 273.953 382.159C274.567 382.159 275.12 382.273 275.612 382.5C276.105 382.727 276.508 383.045 276.822 383.455C277.137 383.864 277.332 384.341 277.408 384.886H276.067C275.964 384.489 275.737 384.136 275.385 383.83C275.036 383.519 274.567 383.364 273.976 383.364C273.453 383.364 272.995 383.5 272.601 383.773C272.211 384.042 271.906 384.422 271.686 384.915C271.47 385.403 271.362 385.977 271.362 386.636C271.362 387.311 271.468 387.898 271.68 388.398C271.896 388.898 272.199 389.286 272.589 389.562C272.983 389.839 273.446 389.977 273.976 389.977C274.324 389.977 274.641 389.917 274.925 389.795C275.209 389.674 275.449 389.5 275.646 389.273C275.843 389.045 275.983 388.773 276.067 388.455H277.408C277.332 388.97 277.144 389.434 276.845 389.847C276.55 390.256 276.158 390.581 275.669 390.824C275.184 391.062 274.62 391.182 273.976 391.182ZM280.618 387.818L280.595 386.159H280.868L284.686 382.273H286.345L282.277 386.386H282.163L280.618 387.818ZM279.368 391V379.364H280.709V391H279.368ZM284.913 391L281.504 386.682L282.459 385.75L286.618 391H284.913ZM291.257 391.182C290.439 391.182 289.734 390.989 289.143 390.602C288.553 390.216 288.098 389.684 287.78 389.006C287.462 388.328 287.303 387.553 287.303 386.682C287.303 385.795 287.465 385.013 287.791 384.335C288.121 383.653 288.579 383.121 289.166 382.739C289.757 382.352 290.446 382.159 291.234 382.159C291.848 382.159 292.401 382.273 292.893 382.5C293.386 382.727 293.789 383.045 294.104 383.455C294.418 383.864 294.613 384.341 294.689 384.886H293.348C293.246 384.489 293.018 384.136 292.666 383.83C292.318 383.519 291.848 383.364 291.257 383.364C290.734 383.364 290.276 383.5 289.882 383.773C289.492 384.042 289.187 384.422 288.967 384.915C288.751 385.403 288.643 385.977 288.643 386.636C288.643 387.311 288.75 387.898 288.962 388.398C289.178 388.898 289.481 389.286 289.871 389.562C290.265 389.839 290.727 389.977 291.257 389.977C291.606 389.977 291.922 389.917 292.206 389.795C292.49 389.674 292.731 389.5 292.928 389.273C293.125 389.045 293.265 388.773 293.348 388.455H294.689C294.613 388.97 294.426 389.434 294.126 389.847C293.831 390.256 293.439 390.581 292.95 390.824C292.465 391.062 291.901 391.182 291.257 391.182ZM297.99 385.75V391H296.649V379.364H297.99V383.636H298.104C298.308 383.186 298.615 382.828 299.024 382.562C299.437 382.294 299.986 382.159 300.672 382.159C301.267 382.159 301.787 382.278 302.234 382.517C302.681 382.752 303.028 383.114 303.274 383.602C303.524 384.087 303.649 384.705 303.649 385.455V391H302.308V385.545C302.308 384.852 302.128 384.316 301.768 383.938C301.412 383.555 300.918 383.364 300.286 383.364C299.846 383.364 299.452 383.456 299.104 383.642C298.759 383.828 298.486 384.098 298.286 384.455C298.089 384.811 297.99 385.242 297.99 385.75ZM308.67 391.205C308.117 391.205 307.616 391.1 307.165 390.892C306.714 390.68 306.356 390.375 306.091 389.977C305.826 389.576 305.693 389.091 305.693 388.523C305.693 388.023 305.792 387.617 305.989 387.307C306.186 386.992 306.449 386.746 306.778 386.568C307.108 386.39 307.472 386.258 307.869 386.17C308.271 386.08 308.674 386.008 309.08 385.955C309.61 385.886 310.04 385.835 310.369 385.801C310.703 385.763 310.945 385.701 311.097 385.614C311.252 385.527 311.33 385.375 311.33 385.159V385.114C311.33 384.553 311.176 384.117 310.869 383.807C310.566 383.496 310.106 383.341 309.489 383.341C308.848 383.341 308.347 383.481 307.983 383.761C307.619 384.042 307.364 384.341 307.216 384.659L305.943 384.205C306.17 383.674 306.473 383.261 306.852 382.966C307.235 382.667 307.652 382.458 308.102 382.341C308.557 382.22 309.004 382.159 309.443 382.159C309.723 382.159 310.045 382.193 310.409 382.261C310.777 382.326 311.131 382.46 311.472 382.665C311.816 382.869 312.102 383.178 312.33 383.591C312.557 384.004 312.67 384.557 312.67 385.25V391H311.33V389.818H311.261C311.17 390.008 311.019 390.21 310.807 390.426C310.595 390.642 310.313 390.826 309.96 390.977C309.608 391.129 309.178 391.205 308.67 391.205ZM308.875 390C309.405 390 309.852 389.896 310.216 389.688C310.583 389.479 310.86 389.21 311.045 388.881C311.235 388.551 311.33 388.205 311.33 387.841V386.614C311.273 386.682 311.148 386.744 310.955 386.801C310.765 386.854 310.545 386.902 310.295 386.943C310.049 386.981 309.809 387.015 309.574 387.045C309.343 387.072 309.155 387.095 309.011 387.114C308.663 387.159 308.337 387.233 308.034 387.335C307.735 387.434 307.492 387.583 307.307 387.784C307.125 387.981 307.034 388.25 307.034 388.591C307.034 389.057 307.206 389.409 307.551 389.648C307.9 389.883 308.341 390 308.875 390ZM315.118 391V382.273H316.459V391H315.118ZM315.8 380.818C315.538 380.818 315.313 380.729 315.124 380.551C314.938 380.373 314.845 380.159 314.845 379.909C314.845 379.659 314.938 379.445 315.124 379.267C315.313 379.089 315.538 379 315.8 379C316.061 379 316.285 379.089 316.47 379.267C316.66 379.445 316.754 379.659 316.754 379.909C316.754 380.159 316.66 380.373 316.47 380.551C316.285 380.729 316.061 380.818 315.8 380.818ZM320.256 385.75V391H318.915V382.273H320.21V383.636H320.324C320.528 383.193 320.839 382.837 321.256 382.568C321.672 382.295 322.21 382.159 322.869 382.159C323.46 382.159 323.977 382.28 324.42 382.523C324.864 382.761 325.208 383.125 325.455 383.614C325.701 384.098 325.824 384.712 325.824 385.455V391H324.483V385.545C324.483 384.86 324.305 384.326 323.949 383.943C323.593 383.557 323.104 383.364 322.483 383.364C322.055 383.364 321.672 383.456 321.335 383.642C321.002 383.828 320.739 384.098 320.545 384.455C320.352 384.811 320.256 385.242 320.256 385.75ZM329.251 391.091C328.971 391.091 328.731 390.991 328.53 390.79C328.329 390.589 328.229 390.348 328.229 390.068C328.229 389.788 328.329 389.547 328.53 389.347C328.731 389.146 328.971 389.045 329.251 389.045C329.532 389.045 329.772 389.146 329.973 389.347C330.174 389.547 330.274 389.788 330.274 390.068C330.274 390.254 330.227 390.424 330.132 390.58C330.041 390.735 329.918 390.86 329.763 390.955C329.611 391.045 329.441 391.091 329.251 391.091Z" fill="#0C0E0F"/>
<rect width="737" height="316" fill="#9896FF"/>
<rect x="29.5" y="44.5" width="678" height="95.0027" rx="7.5" fill="white"/>
<rect x="29.5" y="44.5" width="678" height="95.0027" rx="7.5" stroke="black"/>
<path opacity="0.3" d="M90.9003 71.2749H90.9008H97.8258V112.739C97.8258 114.747 97.0279 116.673 95.6077 118.094C94.1875 119.514 92.2613 120.312 90.2529 120.312H57.0729C55.0645 120.312 53.1382 119.514 51.718 118.094C50.2978 116.673 49.5 114.747 49.5 112.739V64.0729C49.5 62.0645 50.2978 60.1383 51.718 58.7181C53.1382 57.2979 55.0645 56.5 57.0729 56.5H84.2118V64.5889V64.5897C84.2144 66.3625 84.92 68.0619 86.1739 69.3152C87.4277 70.5685 89.1275 71.2732 90.9003 71.2749Z" fill="#FCFCFC" stroke="#0C0E0F"/>
<path d="M84.8614 64.5888V56.3842L97.9832 70.6249H90.9006C89.2999 70.6234 87.7651 69.987 86.633 68.8555C85.5009 67.7239 84.8638 66.1895 84.8614 64.5888Z" fill="#0C0E0F" stroke="#0C0E0F" stroke-width="0.299999"/>
<path d="M88.1797 80.9688H57.2052C56.9476 80.9681 56.7008 80.8654 56.5186 80.6832C56.3364 80.5011 56.2337 80.2542 56.233 79.9966C56.2331 79.7385 56.3354 79.491 56.5176 79.3083C56.6999 79.1256 56.9471 79.0226 57.2052 79.0218H88.1797C88.4378 79.0226 88.685 79.1256 88.8673 79.3083C89.0494 79.491 89.1518 79.7384 89.1519 79.9964C89.1512 80.2541 89.0485 80.501 88.8663 80.6832C88.6841 80.8654 88.4373 80.9681 88.1797 80.9688Z" fill="#0C0E0F" stroke="#0C0E0F" stroke-width="0.299999"/>
<path d="M88.1797 87.68H57.2052C56.9476 87.6793 56.7008 87.5766 56.5186 87.3944C56.3364 87.2122 56.2337 86.9654 56.233 86.7078C56.2331 86.4497 56.3354 86.2022 56.5176 86.0195C56.6999 85.8368 56.9471 85.7337 57.2052 85.733H88.1797C88.4378 85.7337 88.685 85.8368 88.8673 86.0195C89.0494 86.2021 89.1518 86.4496 89.1519 86.7076C89.1512 86.9653 89.0485 87.2122 88.8663 87.3944C88.6841 87.5766 88.4373 87.6793 88.1797 87.68Z" fill="#0C0E0F" stroke="#0C0E0F" stroke-width="0.299999"/>
<path d="M88.1797 94.3907H57.2052C56.9471 94.39 56.6999 94.2869 56.5176 94.1042C56.3354 93.9215 56.2331 93.674 56.233 93.4159C56.2337 93.1583 56.3364 92.9115 56.5186 92.7293C56.7008 92.5471 56.9476 92.4444 57.2052 92.4437H88.1797C88.4373 92.4444 88.6841 92.5471 88.8663 92.7293C89.0485 92.9115 89.1512 93.1584 89.1519 93.4161C89.1518 93.6741 89.0494 93.9216 88.8673 94.1042C88.685 94.2869 88.4377 94.39 88.1797 94.3907Z" fill="#0C0E0F" stroke="#0C0E0F" stroke-width="0.299999"/>
<path d="M88.1799 101.099H57.205C56.9472 101.099 56.7 100.997 56.5177 100.814C56.3354 100.632 56.233 100.385 56.233 100.127C56.233 99.8688 56.3354 99.6212 56.5176 99.4384C56.6999 99.2557 56.9471 99.1527 57.2052 99.152H88.1797C88.4378 99.1527 88.685 99.2557 88.8673 99.4384C89.0495 99.6212 89.1519 99.8688 89.1519 100.127C89.1519 100.385 89.0495 100.632 88.8672 100.814C88.6849 100.997 88.4377 101.099 88.1799 101.099Z" fill="#0C0E0F" stroke="#0C0E0F" stroke-width="0.299999"/>
<path d="M66.6703 107.333H104.182C106.76 107.333 108.85 109.423 108.85 112.001V123.185C108.85 125.763 106.76 127.853 104.182 127.853H66.6703C64.0922 127.853 62.0023 125.763 62.0023 123.185V112.001C62.0023 109.423 64.0922 107.333 66.6703 107.333Z" fill="#0C0E0F" stroke="#0C0E0F" stroke-width="0.299999"/>
<path d="M74.5179 120.164V122.045H72.5589V120.164H74.5179Z" fill="white" stroke="#0C0E0F" stroke-width="0.299999"/>
<path d="M77.6406 114.761H75.3636V113.324H82.1346V114.761H79.8336H79.6836V114.911V122.045H77.7906V114.911V114.761H77.6406Z" fill="white" stroke="#0C0E0F" stroke-width="0.299999"/>
<path d="M85.0546 122.045H82.9114L85.6522 117.63L85.7036 117.547L85.6489 117.466L82.835 113.324H85.0615L86.8678 115.976L87.0011 116.172L87.1211 115.968L88.6736 113.324H90.8039L88.1036 117.636L88.0517 117.719L88.1066 117.8L90.9839 122.045H88.7574L86.9 119.303L86.7662 119.105L86.6461 119.311L85.0546 122.045Z" fill="white" stroke="#0C0E0F" stroke-width="0.299999"/>
<path d="M93.9457 114.761H91.6717V113.324H98.4396V114.761H96.1417H95.9917V114.911V122.045H94.0957V114.911V114.761H93.9457Z" fill="white" stroke="#0C0E0F" stroke-width="0.299999"/>
<rect x="133" y="66.0012" width="448" height="52" rx="8" fill="white"/>
<rect x="149" y="82.0012" width="20" height="20" rx="10" fill="black" fill-opacity="0.05"/>
<rect x="177" y="82.0012" width="72" height="20" rx="10" fill="black" fill-opacity="0.05"/>
<rect x="253" y="82.0012" width="312" height="20" rx="10" fill="black" fill-opacity="0.05"/>
<g clip-path="url(#clip0_33_91)">
<g clip-path="url(#clip1_33_91)">
<path d="M637.205 60.4702L636.769 61.9543V105.02L637.205 105.456L657.196 93.6398L637.205 60.4702Z" fill="#343434"/>
<path d="M637.206 60.4702L617.215 93.6398L637.206 105.457V84.5535V60.4702Z" fill="#8C8C8C"/>
<path d="M637.205 109.241L636.959 109.541V124.883L637.205 125.601L657.208 97.4309L637.205 109.241Z" fill="#3C3C3B"/>
<path d="M637.206 125.601V109.241L617.215 97.4304L637.206 125.601Z" fill="#8C8C8C"/>
<path d="M637.205 105.456L657.196 93.64L637.205 84.5537V105.456Z" fill="#141414"/>
<path d="M617.215 93.64L637.206 105.456V84.5537L617.215 93.64Z" fill="#393939"/>
</g>
</g>
<path d="M642.08 88.9524V89.4604H642.588C644.034 89.4604 645.127 90.5536 645.127 92V99.1112C645.127 100.558 644.034 101.651 642.588 101.651H632.429C630.983 101.651 629.889 100.558 629.889 99.1112V92C629.889 90.5536 630.983 89.4604 632.429 89.4604H632.937V88.9524V86.9207C632.937 84.3568 634.944 82.3492 637.508 82.3492C640.072 82.3492 642.08 84.3568 642.08 86.9207V88.9524ZM640.556 89.4604H641.064V88.9524V86.9207C641.064 84.9132 639.516 83.3651 637.508 83.3651C635.501 83.3651 633.953 84.9132 633.953 86.9207V88.9524V89.4604H634.461H640.556ZM639.032 97.0794V95.8659C639.807 95.0345 639.66 93.7251 638.867 93.0471C638.016 92.2141 636.788 92.4081 636.032 93.1647C635.239 93.9576 635.351 95.0865 635.985 95.8529V97.0794C635.985 97.4996 636.127 97.8892 636.413 98.1751C636.699 98.4609 637.088 98.6032 637.508 98.6032C637.929 98.6032 638.318 98.4609 638.604 98.1751C638.89 97.8892 639.032 97.4996 639.032 97.0794Z" fill="#0C0E0F" stroke="white" stroke-width="1.01587"/>
<rect x="29.5" y="175.503" width="678" height="95.0027" rx="7.5" fill="white"/>
<rect x="29.5" y="175.503" width="678" height="95.0027" rx="7.5" stroke="black"/>
<path opacity="0.3" d="M90.9003 202.278H90.9008H97.8258V243.741C97.8258 245.75 97.0279 247.676 95.6077 249.096C94.1875 250.517 92.2613 251.314 90.2529 251.314H57.0729C55.0645 251.314 53.1382 250.517 51.718 249.096C50.2978 247.676 49.5 245.75 49.5 243.741V195.076C49.5 193.067 50.2978 191.141 51.718 189.721C53.1382 188.301 55.0645 187.503 57.0729 187.503H84.2118V195.592V195.592C84.2144 197.365 84.92 199.065 86.1739 200.318C87.4277 201.571 89.1275 202.276 90.9003 202.278Z" fill="#FCFCFC" stroke="#0C0E0F"/>
<path d="M84.8614 195.592V187.387L97.9832 201.628H90.9006C89.2999 201.626 87.7651 200.99 86.633 199.858C85.5009 198.727 84.8638 197.192 84.8614 195.592Z" fill="#0C0E0F" stroke="#0C0E0F" stroke-width="0.299999"/>
<path d="M88.1797 211.972H57.2052C56.9476 211.971 56.7008 211.868 56.5186 211.686C56.3364 211.504 56.2337 211.257 56.233 210.999C56.2331 210.741 56.3354 210.494 56.5176 210.311C56.6999 210.128 56.9471 210.025 57.2052 210.025H88.1797C88.4378 210.025 88.685 210.128 88.8673 210.311C89.0494 210.494 89.1518 210.741 89.1519 210.999C89.1512 211.257 89.0485 211.504 88.8663 211.686C88.6841 211.868 88.4373 211.971 88.1797 211.972Z" fill="#0C0E0F" stroke="#0C0E0F" stroke-width="0.299999"/>
<path d="M88.1797 218.683H57.2052C56.9476 218.682 56.7008 218.579 56.5186 218.397C56.3364 218.215 56.2337 217.968 56.233 217.71C56.2331 217.452 56.3354 217.205 56.5176 217.022C56.6999 216.839 56.9471 216.736 57.2052 216.736H88.1797C88.4378 216.736 88.685 216.839 88.8673 217.022C89.0494 217.205 89.1518 217.452 89.1519 217.71C89.1512 217.968 89.0485 218.215 88.8663 218.397C88.6841 218.579 88.4373 218.682 88.1797 218.683Z" fill="#0C0E0F" stroke="#0C0E0F" stroke-width="0.299999"/>
<path d="M88.1797 225.393H57.2052C56.9471 225.393 56.6999 225.29 56.5176 225.107C56.3354 224.924 56.2331 224.677 56.233 224.419C56.2337 224.161 56.3364 223.914 56.5186 223.732C56.7008 223.55 56.9476 223.447 57.2052 223.446H88.1797C88.4373 223.447 88.6841 223.55 88.8663 223.732C89.0485 223.914 89.1512 224.161 89.1519 224.419C89.1518 224.677 89.0494 224.924 88.8673 225.107C88.685 225.29 88.4377 225.393 88.1797 225.393Z" fill="#0C0E0F" stroke="#0C0E0F" stroke-width="0.299999"/>
<path d="M88.1799 232.102H57.205C56.9472 232.102 56.7 231.999 56.5177 231.817C56.3354 231.635 56.233 231.387 56.233 231.13C56.233 230.871 56.3354 230.624 56.5176 230.441C56.6999 230.258 56.9471 230.155 57.2052 230.155H88.1797C88.4378 230.155 88.685 230.258 88.8673 230.441C89.0495 230.624 89.1519 230.871 89.1519 231.13C89.1519 231.387 89.0495 231.635 88.8672 231.817C88.6849 231.999 88.4377 232.102 88.1799 232.102Z" fill="#0C0E0F" stroke="#0C0E0F" stroke-width="0.299999"/>
<path d="M66.6703 238.335H104.182C106.76 238.335 108.85 240.425 108.85 243.003V254.187C108.85 256.765 106.76 258.855 104.182 258.855H66.6703C64.0922 258.855 62.0023 256.765 62.0023 254.187V243.003C62.0023 240.425 64.0922 238.335 66.6703 238.335Z" fill="#0C0E0F" stroke="#0C0E0F" stroke-width="0.299999"/>
<path d="M74.5179 251.166V253.047H72.5589V251.166H74.5179Z" fill="white" stroke="#0C0E0F" stroke-width="0.299999"/>
<path d="M77.6406 245.764H75.3636V244.327H82.1346V245.764H79.8336H79.6836V245.914V253.047H77.7906V245.914V245.764H77.6406Z" fill="white" stroke="#0C0E0F" stroke-width="0.299999"/>
<path d="M85.0546 253.047H82.9114L85.6522 248.633L85.7036 248.55L85.6489 248.469L82.835 244.327H85.0615L86.8678 246.979L87.0011 247.175L87.1211 246.97L88.6736 244.327H90.8039L88.1036 248.639L88.0517 248.722L88.1066 248.803L90.9839 253.047H88.7574L86.9 250.305L86.7662 250.108L86.6461 250.314L85.0546 253.047Z" fill="white" stroke="#0C0E0F" stroke-width="0.299999"/>
<path d="M93.9457 245.764H91.6717V244.327H98.4396V245.764H96.1417H95.9917V245.914V253.047H94.0957V245.914V245.764H93.9457Z" fill="white" stroke="#0C0E0F" stroke-width="0.299999"/>
<rect x="133" y="197.004" width="448" height="52" rx="8" fill="white"/>
<rect x="149" y="213.004" width="20" height="20" rx="10" fill="black"/>
<rect x="177" y="213.004" width="72" height="20" rx="10" fill="black" fill-opacity="0.05"/>
<rect x="253" y="213.004" width="312" height="20" rx="10" fill="black" fill-opacity="0.05"/>
<g clip-path="url(#clip2_33_91)">
<g clip-path="url(#clip3_33_91)">
<path d="M637.205 191.473L636.769 192.957V236.023L637.205 236.459L657.196 224.643L637.205 191.473Z" fill="#343434"/>
<path d="M637.206 191.473L617.215 224.643L637.206 236.459V215.556V191.473Z" fill="#8C8C8C"/>
<path d="M637.205 240.244L636.959 240.544V255.885L637.205 256.604L657.208 228.434L637.205 240.244Z" fill="#3C3C3B"/>
<path d="M637.206 256.604V240.244L617.215 228.433L637.206 256.604Z" fill="#8C8C8C"/>
<path d="M637.205 236.459L657.196 224.643L637.205 215.556V236.459Z" fill="#141414"/>
<path d="M617.215 224.643L637.206 236.459V215.556L617.215 224.643Z" fill="#393939"/>
</g>
</g>
<path d="M642.08 219.955V220.463H642.588C644.034 220.463 645.127 221.556 645.127 223.003V230.114C645.127 231.56 644.034 232.654 642.588 232.654H632.429C630.983 232.654 629.889 231.56 629.889 230.114V223.003C629.889 221.556 630.983 220.463 632.429 220.463H632.937V219.955V217.923C632.937 215.359 634.944 213.352 637.508 213.352C640.072 213.352 642.08 215.359 642.08 217.923V219.955ZM640.556 220.463H641.064V219.955V217.923C641.064 215.916 639.516 214.368 637.508 214.368C635.501 214.368 633.953 215.916 633.953 217.923V219.955V220.463H634.461H640.556ZM639.032 228.082V226.869C639.807 226.037 639.66 224.728 638.867 224.05C638.016 223.217 636.788 223.411 636.032 224.167C635.239 224.96 635.351 226.089 635.985 226.856V228.082C635.985 228.502 636.127 228.892 636.413 229.178C636.699 229.464 637.088 229.606 637.508 229.606C637.929 229.606 638.318 229.464 638.604 229.178C638.89 228.892 639.032 228.502 639.032 228.082Z" fill="black" stroke="white" stroke-width="1.01587"/>
<defs>
<clipPath id="clip0_33_91">
<rect width="65.1457" height="65.1457" fill="white" transform="translate(605 60.4702)"/>
</clipPath>
<clipPath id="clip1_33_91">
<rect width="39.9935" height="65.1457" fill="white" transform="translate(617.215 60.4702)"/>
</clipPath>
<clipPath id="clip2_33_91">
<rect width="65.1457" height="65.1457" fill="white" transform="translate(605 191.473)"/>
</clipPath>
<clipPath id="clip3_33_91">
<rect width="39.9935" height="65.1457" fill="white" transform="translate(617.215 191.473)"/>
</clipPath>
</defs>
</svg>
