<svg width="395" height="460" viewBox="0 0 395 460" fill="none" xmlns="http://www.w3.org/2000/svg">
<rect x="0.5" y="0.5" width="394" height="459" rx="7.5" stroke="black" stroke-opacity="0.5"/>
<path d="M42.0938 355C42.0938 356.745 41.763 358.229 41.1016 359.453C40.4453 360.677 39.5495 361.612 38.4141 362.258C37.2839 362.898 36.013 363.219 34.6016 363.219C33.1797 363.219 31.9036 362.896 30.7734 362.25C29.6432 361.604 28.75 360.669 28.0938 359.445C27.4375 358.221 27.1094 356.74 27.1094 355C27.1094 353.255 27.4375 351.771 28.0938 350.547C28.75 349.323 29.6432 348.391 30.7734 347.75C31.9036 347.104 33.1797 346.781 34.6016 346.781C36.013 346.781 37.2839 347.104 38.4141 347.75C39.5495 348.391 40.4453 349.323 41.1016 350.547C41.763 351.771 42.0938 353.255 42.0938 355ZM38.6641 355C38.6641 353.87 38.4948 352.917 38.1562 352.141C37.8229 351.365 37.3516 350.776 36.7422 350.375C36.1328 349.974 35.4193 349.773 34.6016 349.773C33.7839 349.773 33.0703 349.974 32.4609 350.375C31.8516 350.776 31.3776 351.365 31.0391 352.141C30.7057 352.917 30.5391 353.87 30.5391 355C30.5391 356.13 30.7057 357.083 31.0391 357.859C31.3776 358.635 31.8516 359.224 32.4609 359.625C33.0703 360.026 33.7839 360.227 34.6016 360.227C35.4193 360.227 36.1328 360.026 36.7422 359.625C37.3516 359.224 37.8229 358.635 38.1562 357.859C38.4948 357.083 38.6641 356.13 38.6641 355ZM47.8652 356.063V363H44.5371V351H47.709V353.117H47.8496C48.1152 352.419 48.5605 351.867 49.1855 351.461C49.8105 351.049 50.5684 350.844 51.459 350.844C52.2923 350.844 53.0189 351.026 53.6387 351.391C54.2585 351.755 54.7402 352.276 55.084 352.953C55.4277 353.625 55.5996 354.427 55.5996 355.359V363H52.2715V355.953C52.2767 355.219 52.0892 354.646 51.709 354.234C51.3288 353.818 50.8053 353.609 50.1387 353.609C49.6908 353.609 49.2949 353.706 48.9512 353.898C48.6126 354.091 48.347 354.372 48.1543 354.742C47.9668 355.107 47.8704 355.547 47.8652 356.063ZM65.6992 355.109V357.75H58.4023V355.109H65.6992ZM82.7148 352.602H79.293C79.2305 352.159 79.1029 351.766 78.9102 351.422C78.7174 351.073 78.4701 350.776 78.168 350.531C77.8659 350.286 77.5169 350.099 77.1211 349.969C76.7305 349.839 76.306 349.773 75.8477 349.773C75.0195 349.773 74.2982 349.979 73.6836 350.391C73.069 350.797 72.5924 351.391 72.2539 352.172C71.9154 352.948 71.7461 353.891 71.7461 355C71.7461 356.141 71.9154 357.099 72.2539 357.875C72.5977 358.651 73.0768 359.237 73.6914 359.633C74.306 360.029 75.0169 360.227 75.8242 360.227C76.2773 360.227 76.6966 360.167 77.082 360.047C77.4727 359.927 77.819 359.753 78.1211 359.523C78.4232 359.289 78.6732 359.005 78.8711 358.672C79.0742 358.339 79.2148 357.958 79.293 357.531L82.7148 357.547C82.6263 358.281 82.4049 358.99 82.0508 359.672C81.7018 360.349 81.2305 360.956 80.6367 361.492C80.0482 362.023 79.3451 362.445 78.5273 362.758C77.7148 363.065 76.7956 363.219 75.7695 363.219C74.3424 363.219 73.0664 362.896 71.9414 362.25C70.8216 361.604 69.9362 360.669 69.2852 359.445C68.6393 358.221 68.3164 356.74 68.3164 355C68.3164 353.255 68.6445 351.771 69.3008 350.547C69.957 349.323 70.8477 348.391 71.9727 347.75C73.0977 347.104 74.3633 346.781 75.7695 346.781C76.6966 346.781 77.556 346.911 78.3477 347.172C79.1445 347.432 79.8503 347.812 80.4648 348.312C81.0794 348.807 81.5794 349.414 81.9648 350.133C82.3555 350.852 82.6055 351.674 82.7148 352.602ZM88.4063 356.063V363H85.0781V347H88.3125V353.117H88.4531C88.724 352.409 89.1615 351.854 89.7656 351.453C90.3698 351.047 91.1276 350.844 92.0391 350.844C92.8724 350.844 93.599 351.026 94.2188 351.391C94.8438 351.75 95.3281 352.268 95.6719 352.945C96.0208 353.617 96.1927 354.422 96.1875 355.359V363H92.8594V355.953C92.8646 355.214 92.6771 354.638 92.2969 354.227C91.9219 353.815 91.3958 353.609 90.7188 353.609C90.2656 353.609 89.8646 353.706 89.5156 353.898C89.1719 354.091 88.901 354.372 88.7031 354.742C88.5104 355.107 88.4115 355.547 88.4063 356.063ZM102.229 363.227C101.463 363.227 100.781 363.094 100.182 362.828C99.5827 362.557 99.1087 362.159 98.7598 361.633C98.416 361.102 98.2441 360.44 98.2441 359.648C98.2441 358.982 98.3665 358.422 98.6113 357.969C98.8561 357.516 99.1895 357.151 99.6113 356.875C100.033 356.599 100.512 356.391 101.049 356.25C101.59 356.109 102.158 356.01 102.752 355.953C103.45 355.88 104.012 355.812 104.439 355.75C104.867 355.682 105.176 355.583 105.369 355.453C105.562 355.323 105.658 355.13 105.658 354.875V354.828C105.658 354.333 105.502 353.951 105.189 353.68C104.882 353.409 104.445 353.273 103.877 353.273C103.278 353.273 102.801 353.406 102.447 353.672C102.093 353.932 101.859 354.26 101.744 354.656L98.666 354.406C98.8223 353.677 99.1296 353.047 99.5879 352.516C100.046 351.979 100.637 351.568 101.361 351.281C102.09 350.99 102.934 350.844 103.893 350.844C104.559 350.844 105.197 350.922 105.807 351.078C106.421 351.234 106.965 351.477 107.439 351.805C107.919 352.133 108.296 352.555 108.572 353.07C108.848 353.581 108.986 354.193 108.986 354.906V363H105.83V361.336H105.736C105.544 361.711 105.286 362.042 104.963 362.328C104.64 362.609 104.252 362.831 103.799 362.992C103.346 363.148 102.822 363.227 102.229 363.227ZM103.182 360.93C103.671 360.93 104.104 360.833 104.479 360.641C104.854 360.443 105.148 360.177 105.361 359.844C105.575 359.51 105.682 359.133 105.682 358.711V357.438C105.577 357.505 105.434 357.568 105.252 357.625C105.075 357.677 104.874 357.727 104.65 357.773C104.426 357.815 104.202 357.854 103.979 357.891C103.755 357.922 103.551 357.951 103.369 357.977C102.979 358.034 102.637 358.125 102.346 358.25C102.054 358.375 101.827 358.544 101.666 358.758C101.505 358.966 101.424 359.227 101.424 359.539C101.424 359.992 101.588 360.339 101.916 360.578C102.249 360.812 102.671 360.93 103.182 360.93ZM111.568 363V351H114.896V363H111.568ZM113.24 349.453C112.745 349.453 112.321 349.289 111.967 348.961C111.618 348.628 111.443 348.229 111.443 347.766C111.443 347.307 111.618 346.914 111.967 346.586C112.321 346.253 112.745 346.086 113.24 346.086C113.735 346.086 114.157 346.253 114.506 346.586C114.86 346.914 115.037 347.307 115.037 347.766C115.037 348.229 114.86 348.628 114.506 348.961C114.157 349.289 113.735 349.453 113.24 349.453ZM120.891 356.063V363H117.563V351H120.734V353.117H120.875C121.141 352.419 121.586 351.867 122.211 351.461C122.836 351.049 123.594 350.844 124.484 350.844C125.318 350.844 126.044 351.026 126.664 351.391C127.284 351.755 127.766 352.276 128.109 352.953C128.453 353.625 128.625 354.427 128.625 355.359V363H125.297V355.953C125.302 355.219 125.115 354.646 124.734 354.234C124.354 353.818 123.831 353.609 123.164 353.609C122.716 353.609 122.32 353.706 121.977 353.898C121.638 354.091 121.372 354.372 121.18 354.742C120.992 355.107 120.896 355.547 120.891 356.063ZM134.865 360.812L134.779 361.672C134.712 362.359 134.581 363.044 134.389 363.727C134.201 364.414 134.003 365.036 133.795 365.594C133.592 366.151 133.428 366.589 133.303 366.906H131.146C131.225 366.599 131.331 366.169 131.467 365.617C131.602 365.07 131.73 364.456 131.85 363.773C131.969 363.091 132.045 362.396 132.076 361.687L132.115 360.812H134.865ZM142.311 363V347H148.623C149.837 347 150.87 347.232 151.725 347.695C152.579 348.154 153.23 348.792 153.678 349.609C154.131 350.422 154.357 351.359 154.357 352.422C154.357 353.484 154.128 354.422 153.67 355.234C153.212 356.047 152.548 356.68 151.678 357.133C150.813 357.586 149.766 357.812 148.537 357.812H144.514V355.102H147.99C148.641 355.102 149.178 354.99 149.6 354.766C150.027 354.536 150.344 354.221 150.553 353.82C150.766 353.414 150.873 352.948 150.873 352.422C150.873 351.891 150.766 351.427 150.553 351.031C150.344 350.63 150.027 350.32 149.6 350.102C149.173 349.878 148.631 349.766 147.975 349.766H145.693V363H142.311ZM161.768 363.234C160.533 363.234 159.471 362.984 158.58 362.484C157.695 361.979 157.012 361.266 156.533 360.344C156.054 359.417 155.814 358.32 155.814 357.055C155.814 355.82 156.054 354.737 156.533 353.805C157.012 352.872 157.687 352.146 158.557 351.625C159.432 351.104 160.458 350.844 161.635 350.844C162.426 350.844 163.163 350.971 163.846 351.227C164.533 351.477 165.132 351.854 165.643 352.359C166.158 352.865 166.559 353.5 166.846 354.266C167.132 355.026 167.275 355.917 167.275 356.937V357.852H157.143V355.789H164.143C164.143 355.31 164.038 354.885 163.83 354.516C163.622 354.146 163.333 353.857 162.963 353.648C162.598 353.435 162.174 353.328 161.689 353.328C161.184 353.328 160.736 353.445 160.346 353.68C159.96 353.909 159.658 354.219 159.439 354.609C159.221 354.995 159.109 355.424 159.104 355.898V357.859C159.104 358.453 159.213 358.966 159.432 359.398C159.656 359.831 159.971 360.164 160.377 360.398C160.783 360.633 161.265 360.75 161.822 360.75C162.192 360.75 162.531 360.698 162.838 360.594C163.145 360.49 163.408 360.333 163.627 360.125C163.846 359.917 164.012 359.661 164.127 359.359L167.205 359.562C167.049 360.302 166.729 360.948 166.244 361.5C165.765 362.047 165.145 362.474 164.385 362.781C163.63 363.083 162.757 363.234 161.768 363.234ZM169.447 363V351H172.674V353.094H172.799C173.018 352.349 173.385 351.786 173.9 351.406C174.416 351.021 175.01 350.828 175.682 350.828C175.848 350.828 176.028 350.839 176.221 350.859C176.413 350.88 176.583 350.909 176.729 350.945V353.898C176.572 353.852 176.356 353.81 176.08 353.773C175.804 353.737 175.551 353.719 175.322 353.719C174.833 353.719 174.395 353.826 174.01 354.039C173.63 354.247 173.327 354.539 173.104 354.914C172.885 355.289 172.775 355.721 172.775 356.211V363H169.447ZM178.449 363V351H181.621V353.117H181.762C182.012 352.414 182.428 351.859 183.012 351.453C183.595 351.047 184.293 350.844 185.105 350.844C185.928 350.844 186.629 351.049 187.207 351.461C187.785 351.867 188.171 352.419 188.363 353.117H188.488C188.733 352.43 189.176 351.88 189.816 351.469C190.462 351.052 191.225 350.844 192.105 350.844C193.225 350.844 194.134 351.201 194.832 351.914C195.535 352.622 195.887 353.628 195.887 354.93V363H192.566V355.586C192.566 354.919 192.389 354.419 192.035 354.086C191.681 353.753 191.238 353.586 190.707 353.586C190.103 353.586 189.632 353.779 189.293 354.164C188.954 354.544 188.785 355.047 188.785 355.672V363H185.559V355.516C185.559 354.927 185.389 354.458 185.051 354.109C184.717 353.76 184.277 353.586 183.73 353.586C183.361 353.586 183.027 353.68 182.73 353.867C182.439 354.049 182.207 354.307 182.035 354.641C181.863 354.969 181.777 355.354 181.777 355.797V363H178.449ZM201.938 363.227C201.172 363.227 200.49 363.094 199.891 362.828C199.292 362.557 198.818 362.159 198.469 361.633C198.125 361.102 197.953 360.44 197.953 359.648C197.953 358.982 198.076 358.422 198.32 357.969C198.565 357.516 198.898 357.151 199.32 356.875C199.742 356.599 200.221 356.391 200.758 356.25C201.299 356.109 201.867 356.01 202.461 355.953C203.159 355.88 203.721 355.812 204.148 355.75C204.576 355.682 204.885 355.583 205.078 355.453C205.271 355.323 205.367 355.13 205.367 354.875V354.828C205.367 354.333 205.211 353.951 204.898 353.68C204.591 353.409 204.154 353.273 203.586 353.273C202.987 353.273 202.51 353.406 202.156 353.672C201.802 353.932 201.568 354.26 201.453 354.656L198.375 354.406C198.531 353.677 198.839 353.047 199.297 352.516C199.755 351.979 200.346 351.568 201.07 351.281C201.799 350.99 202.643 350.844 203.602 350.844C204.268 350.844 204.906 350.922 205.516 351.078C206.13 351.234 206.674 351.477 207.148 351.805C207.628 352.133 208.005 352.555 208.281 353.07C208.557 353.581 208.695 354.193 208.695 354.906V363H205.539V361.336H205.445C205.253 361.711 204.995 362.042 204.672 362.328C204.349 362.609 203.961 362.831 203.508 362.992C203.055 363.148 202.531 363.227 201.938 363.227ZM202.891 360.93C203.38 360.93 203.813 360.833 204.187 360.641C204.562 360.443 204.857 360.177 205.07 359.844C205.284 359.51 205.391 359.133 205.391 358.711V357.438C205.286 357.505 205.143 357.568 204.961 357.625C204.784 357.677 204.583 357.727 204.359 357.773C204.135 357.815 203.911 357.854 203.688 357.891C203.464 357.922 203.26 357.951 203.078 357.977C202.688 358.034 202.346 358.125 202.055 358.25C201.763 358.375 201.536 358.544 201.375 358.758C201.214 358.966 201.133 359.227 201.133 359.539C201.133 359.992 201.297 360.339 201.625 360.578C201.958 360.812 202.38 360.93 202.891 360.93ZM214.605 356.063V363H211.277V351H214.449V353.117H214.59C214.855 352.419 215.301 351.867 215.926 351.461C216.551 351.049 217.309 350.844 218.199 350.844C219.033 350.844 219.759 351.026 220.379 351.391C220.999 351.755 221.48 352.276 221.824 352.953C222.168 353.625 222.34 354.427 222.34 355.359V363H219.012V355.953C219.017 355.219 218.829 354.646 218.449 354.234C218.069 353.818 217.546 353.609 216.879 353.609C216.431 353.609 216.035 353.706 215.691 353.898C215.353 354.091 215.087 354.372 214.895 354.742C214.707 355.107 214.611 355.547 214.605 356.063ZM230.432 363.234C229.197 363.234 228.135 362.984 227.244 362.484C226.359 361.979 225.676 361.266 225.197 360.344C224.718 359.417 224.479 358.32 224.479 357.055C224.479 355.82 224.718 354.737 225.197 353.805C225.676 352.872 226.351 352.146 227.221 351.625C228.096 351.104 229.122 350.844 230.299 350.844C231.09 350.844 231.827 350.971 232.51 351.227C233.197 351.477 233.796 351.854 234.307 352.359C234.822 352.865 235.223 353.5 235.51 354.266C235.796 355.026 235.939 355.917 235.939 356.937V357.852H225.807V355.789H232.807C232.807 355.31 232.702 354.885 232.494 354.516C232.286 354.146 231.997 353.857 231.627 353.648C231.262 353.435 230.838 353.328 230.354 353.328C229.848 353.328 229.4 353.445 229.01 353.68C228.624 353.909 228.322 354.219 228.104 354.609C227.885 354.995 227.773 355.424 227.768 355.898V357.859C227.768 358.453 227.877 358.966 228.096 359.398C228.32 359.831 228.635 360.164 229.041 360.398C229.447 360.633 229.929 360.75 230.486 360.75C230.856 360.75 231.195 360.698 231.502 360.594C231.809 360.49 232.072 360.333 232.291 360.125C232.51 359.917 232.676 359.661 232.791 359.359L235.869 359.562C235.713 360.302 235.393 360.948 234.908 361.5C234.429 362.047 233.809 362.474 233.049 362.781C232.294 363.083 231.421 363.234 230.432 363.234ZM241.439 356.063V363H238.111V351H241.283V353.117H241.424C241.689 352.419 242.135 351.867 242.76 351.461C243.385 351.049 244.143 350.844 245.033 350.844C245.867 350.844 246.593 351.026 247.213 351.391C247.833 351.755 248.314 352.276 248.658 352.953C249.002 353.625 249.174 354.427 249.174 355.359V363H245.846V355.953C245.851 355.219 245.663 354.646 245.283 354.234C244.903 353.818 244.38 353.609 243.713 353.609C243.265 353.609 242.869 353.706 242.525 353.898C242.187 354.091 241.921 354.372 241.729 354.742C241.541 355.107 241.445 355.547 241.439 356.063ZM258.18 351V353.5H250.953V351H258.18ZM252.594 348.125H255.922V359.312C255.922 359.62 255.969 359.859 256.063 360.031C256.156 360.198 256.286 360.315 256.453 360.383C256.625 360.451 256.823 360.484 257.047 360.484C257.203 360.484 257.359 360.471 257.516 360.445C257.672 360.414 257.792 360.391 257.875 360.375L258.398 362.852C258.232 362.904 257.997 362.964 257.695 363.031C257.393 363.104 257.026 363.148 256.594 363.164C255.792 363.195 255.089 363.089 254.484 362.844C253.885 362.599 253.419 362.219 253.086 361.703C252.753 361.187 252.589 360.536 252.594 359.75V348.125ZM270.346 363.234C269.242 363.234 268.288 363.036 267.486 362.641C266.684 362.245 266.067 361.708 265.635 361.031C265.208 360.349 264.994 359.589 264.994 358.75C264.994 358.125 265.119 357.57 265.369 357.086C265.619 356.602 265.968 356.156 266.416 355.75C266.864 355.339 267.385 354.93 267.979 354.523L271.08 352.484C271.481 352.229 271.775 351.961 271.963 351.68C272.15 351.393 272.244 351.083 272.244 350.75C272.244 350.432 272.117 350.138 271.861 349.867C271.606 349.596 271.244 349.464 270.775 349.469C270.463 349.469 270.192 349.539 269.963 349.68C269.734 349.815 269.554 349.995 269.424 350.219C269.299 350.437 269.236 350.682 269.236 350.953C269.236 351.286 269.33 351.625 269.518 351.969C269.705 352.312 269.955 352.677 270.268 353.062C270.58 353.443 270.921 353.854 271.291 354.297L278.877 363H275.408L269.08 355.953C268.663 355.479 268.247 354.984 267.83 354.469C267.419 353.948 267.075 353.396 266.799 352.812C266.523 352.224 266.385 351.586 266.385 350.898C266.385 350.122 266.564 349.424 266.924 348.805C267.288 348.185 267.799 347.695 268.455 347.336C269.111 346.971 269.877 346.789 270.752 346.789C271.606 346.789 272.343 346.964 272.963 347.312C273.588 347.656 274.067 348.115 274.4 348.687C274.739 349.255 274.908 349.88 274.908 350.562C274.908 351.318 274.721 352.003 274.346 352.617C273.976 353.227 273.455 353.773 272.783 354.258L269.518 356.609C269.075 356.932 268.747 357.263 268.533 357.602C268.325 357.935 268.221 358.255 268.221 358.562C268.221 358.943 268.314 359.284 268.502 359.586C268.689 359.888 268.955 360.128 269.299 360.305C269.643 360.477 270.046 360.562 270.51 360.562C271.072 360.562 271.627 360.435 272.174 360.18C272.726 359.919 273.226 359.552 273.674 359.078C274.127 358.599 274.489 358.031 274.76 357.375C275.031 356.719 275.166 355.992 275.166 355.195H277.924C277.924 356.174 277.817 357.057 277.604 357.844C277.39 358.625 277.093 359.307 276.713 359.891C276.333 360.469 275.898 360.943 275.408 361.312C275.252 361.411 275.101 361.505 274.955 361.594C274.809 361.682 274.658 361.776 274.502 361.875C273.908 362.354 273.244 362.701 272.51 362.914C271.781 363.128 271.059 363.234 270.346 363.234ZM294.098 351.602C294.035 350.971 293.767 350.482 293.293 350.133C292.819 349.784 292.176 349.609 291.363 349.609C290.811 349.609 290.345 349.687 289.965 349.844C289.585 349.995 289.293 350.206 289.09 350.477C288.892 350.747 288.793 351.055 288.793 351.398C288.783 351.685 288.842 351.935 288.973 352.148C289.108 352.362 289.293 352.547 289.527 352.703C289.762 352.854 290.033 352.987 290.34 353.102C290.647 353.211 290.975 353.305 291.324 353.383L292.762 353.727C293.46 353.883 294.1 354.091 294.684 354.352C295.267 354.612 295.772 354.932 296.199 355.312C296.626 355.693 296.957 356.141 297.191 356.656C297.431 357.172 297.553 357.763 297.559 358.43C297.553 359.409 297.303 360.258 296.809 360.977C296.319 361.69 295.611 362.245 294.684 362.641C293.762 363.031 292.65 363.227 291.348 363.227C290.056 363.227 288.931 363.029 287.973 362.633C287.02 362.237 286.275 361.651 285.738 360.875C285.207 360.094 284.928 359.128 284.902 357.977H288.176C288.212 358.513 288.366 358.961 288.637 359.32C288.913 359.674 289.28 359.943 289.738 360.125C290.202 360.302 290.725 360.391 291.309 360.391C291.882 360.391 292.379 360.307 292.801 360.141C293.228 359.974 293.559 359.742 293.793 359.445C294.027 359.148 294.145 358.807 294.145 358.422C294.145 358.062 294.038 357.76 293.824 357.516C293.616 357.271 293.309 357.062 292.902 356.891C292.501 356.719 292.009 356.562 291.426 356.422L289.684 355.984C288.335 355.656 287.27 355.143 286.488 354.445C285.707 353.747 285.319 352.807 285.324 351.625C285.319 350.656 285.577 349.81 286.098 349.086C286.624 348.362 287.345 347.797 288.262 347.391C289.178 346.984 290.22 346.781 291.387 346.781C292.574 346.781 293.611 346.984 294.496 347.391C295.387 347.797 296.079 348.362 296.574 349.086C297.069 349.81 297.324 350.648 297.34 351.602H294.098ZM305.24 363.234C304.006 363.234 302.943 362.984 302.053 362.484C301.167 361.979 300.485 361.266 300.006 360.344C299.527 359.417 299.287 358.32 299.287 357.055C299.287 355.82 299.527 354.737 300.006 353.805C300.485 352.872 301.16 352.146 302.029 351.625C302.904 351.104 303.93 350.844 305.107 350.844C305.899 350.844 306.636 350.971 307.318 351.227C308.006 351.477 308.605 351.854 309.115 352.359C309.631 352.865 310.032 353.5 310.318 354.266C310.605 355.026 310.748 355.917 310.748 356.937V357.852H300.615V355.789H307.615C307.615 355.31 307.511 354.885 307.303 354.516C307.094 354.146 306.805 353.857 306.436 353.648C306.071 353.435 305.646 353.328 305.162 353.328C304.657 353.328 304.209 353.445 303.818 353.68C303.433 353.909 303.131 354.219 302.912 354.609C302.693 354.995 302.581 355.424 302.576 355.898V357.859C302.576 358.453 302.686 358.966 302.904 359.398C303.128 359.831 303.443 360.164 303.85 360.398C304.256 360.633 304.738 360.75 305.295 360.75C305.665 360.75 306.003 360.698 306.311 360.594C306.618 360.49 306.881 360.333 307.1 360.125C307.318 359.917 307.485 359.661 307.6 359.359L310.678 359.562C310.521 360.302 310.201 360.948 309.717 361.5C309.238 362.047 308.618 362.474 307.857 362.781C307.102 363.083 306.23 363.234 305.24 363.234ZM318.342 363.234C317.113 363.234 316.055 362.974 315.17 362.453C314.29 361.927 313.613 361.198 313.139 360.266C312.67 359.333 312.436 358.26 312.436 357.047C312.436 355.818 312.673 354.74 313.146 353.812C313.626 352.88 314.305 352.154 315.186 351.633C316.066 351.107 317.113 350.844 318.326 350.844C319.373 350.844 320.29 351.034 321.076 351.414C321.863 351.794 322.485 352.328 322.943 353.016C323.402 353.703 323.654 354.51 323.701 355.438H320.561C320.472 354.839 320.238 354.357 319.857 353.992C319.482 353.622 318.99 353.437 318.381 353.437C317.865 353.437 317.415 353.578 317.029 353.859C316.649 354.135 316.352 354.539 316.139 355.07C315.925 355.602 315.818 356.245 315.818 357C315.818 357.766 315.923 358.417 316.131 358.953C316.344 359.49 316.644 359.898 317.029 360.18C317.415 360.461 317.865 360.602 318.381 360.602C318.761 360.602 319.102 360.523 319.404 360.367C319.712 360.211 319.964 359.984 320.162 359.687C320.365 359.385 320.498 359.023 320.561 358.602H323.701C323.649 359.518 323.399 360.326 322.951 361.023C322.508 361.716 321.896 362.258 321.115 362.648C320.334 363.039 319.41 363.234 318.342 363.234ZM333.527 357.891V351H336.855V363H333.66V360.82H333.535C333.264 361.523 332.814 362.089 332.184 362.516C331.559 362.943 330.796 363.156 329.895 363.156C329.092 363.156 328.387 362.974 327.777 362.609C327.168 362.245 326.691 361.727 326.348 361.055C326.009 360.383 325.837 359.578 325.832 358.641V351H329.16V358.047C329.165 358.755 329.355 359.315 329.73 359.727C330.105 360.138 330.608 360.344 331.238 360.344C331.639 360.344 332.014 360.253 332.363 360.07C332.712 359.883 332.993 359.607 333.207 359.242C333.426 358.878 333.533 358.427 333.527 357.891ZM339.518 363V351H342.744V353.094H342.869C343.088 352.349 343.455 351.786 343.971 351.406C344.486 351.021 345.08 350.828 345.752 350.828C345.919 350.828 346.098 350.839 346.291 350.859C346.484 350.88 346.653 350.909 346.799 350.945V353.898C346.643 353.852 346.426 353.81 346.15 353.773C345.874 353.737 345.622 353.719 345.393 353.719C344.903 353.719 344.465 353.826 344.08 354.039C343.7 354.247 343.398 354.539 343.174 354.914C342.955 355.289 342.846 355.721 342.846 356.211V363H339.518ZM353.43 363.234C352.195 363.234 351.133 362.984 350.242 362.484C349.357 361.979 348.674 361.266 348.195 360.344C347.716 359.417 347.477 358.32 347.477 357.055C347.477 355.82 347.716 354.737 348.195 353.805C348.674 352.872 349.349 352.146 350.219 351.625C351.094 351.104 352.12 350.844 353.297 350.844C354.089 350.844 354.826 350.971 355.508 351.227C356.195 351.477 356.794 351.854 357.305 352.359C357.82 352.865 358.221 353.5 358.508 354.266C358.794 355.026 358.938 355.917 358.938 356.937V357.852H348.805V355.789H355.805C355.805 355.31 355.701 354.885 355.492 354.516C355.284 354.146 354.995 353.857 354.625 353.648C354.26 353.435 353.836 353.328 353.352 353.328C352.846 353.328 352.398 353.445 352.008 353.68C351.622 353.909 351.32 354.219 351.102 354.609C350.883 354.995 350.771 355.424 350.766 355.898V357.859C350.766 358.453 350.875 358.966 351.094 359.398C351.318 359.831 351.633 360.164 352.039 360.398C352.445 360.633 352.927 360.75 353.484 360.75C353.854 360.75 354.193 360.698 354.5 360.594C354.807 360.49 355.07 360.333 355.289 360.125C355.508 359.917 355.674 359.661 355.789 359.359L358.867 359.562C358.711 360.302 358.391 360.948 357.906 361.5C357.427 362.047 356.807 362.474 356.047 362.781C355.292 363.083 354.419 363.234 353.43 363.234Z" fill="#0C0E0F"/>
<path d="M27.4091 388.364H29.0909L33.0455 398.023H33.1818L37.1364 388.364H38.8182V400H37.5V391.159H37.3864L33.75 400H32.4773L28.8409 391.159H28.7273V400H27.4091V388.364ZM45.1207 400.182C44.2798 400.182 43.5545 399.996 42.9446 399.625C42.3385 399.25 41.8707 398.727 41.5412 398.057C41.2154 397.383 41.0526 396.598 41.0526 395.705C41.0526 394.811 41.2154 394.023 41.5412 393.341C41.8707 392.655 42.3291 392.121 42.9162 391.739C43.5071 391.352 44.1965 391.159 44.9844 391.159C45.4389 391.159 45.8878 391.235 46.331 391.386C46.7741 391.538 47.1776 391.784 47.5412 392.125C47.9048 392.462 48.1946 392.909 48.4105 393.466C48.6264 394.023 48.7344 394.708 48.7344 395.523V396.091H42.0071V394.932H47.3707C47.3707 394.439 47.2723 394 47.0753 393.614C46.8821 393.227 46.6056 392.922 46.2457 392.699C45.8897 392.475 45.4692 392.364 44.9844 392.364C44.4503 392.364 43.9882 392.496 43.598 392.761C43.2116 393.023 42.9143 393.364 42.706 393.784C42.4976 394.205 42.3935 394.655 42.3935 395.136V395.909C42.3935 396.568 42.5071 397.127 42.7344 397.585C42.9654 398.04 43.2855 398.386 43.6946 398.625C44.1037 398.86 44.5791 398.977 45.1207 398.977C45.473 398.977 45.7912 398.928 46.0753 398.83C46.3632 398.727 46.6113 398.576 46.8196 398.375C47.0279 398.17 47.1889 397.917 47.3026 397.614L48.598 397.977C48.4616 398.417 48.2325 398.803 47.9105 399.136C47.5885 399.466 47.1908 399.723 46.7173 399.909C46.2438 400.091 45.7116 400.182 45.1207 400.182ZM56.956 393.227L55.7514 393.568C55.6757 393.367 55.5639 393.172 55.4162 392.983C55.2723 392.79 55.0753 392.631 54.8253 392.506C54.5753 392.381 54.2552 392.318 53.8651 392.318C53.331 392.318 52.8859 392.441 52.5298 392.688C52.1776 392.93 52.0014 393.239 52.0014 393.614C52.0014 393.947 52.1226 394.21 52.3651 394.403C52.6075 394.597 52.9863 394.758 53.5014 394.886L54.7969 395.205C55.5772 395.394 56.1586 395.684 56.5412 396.074C56.9238 396.46 57.1151 396.958 57.1151 397.568C57.1151 398.068 56.9711 398.515 56.6832 398.909C56.3991 399.303 56.0014 399.614 55.4901 399.841C54.9787 400.068 54.384 400.182 53.706 400.182C52.8158 400.182 52.0791 399.989 51.4957 399.602C50.9124 399.216 50.5431 398.652 50.3878 397.909L51.6605 397.591C51.7817 398.061 52.0109 398.413 52.348 398.648C52.6889 398.883 53.134 399 53.6832 399C54.3082 399 54.8045 398.867 55.1719 398.602C55.5431 398.333 55.7287 398.011 55.7287 397.636C55.7287 397.333 55.6226 397.08 55.4105 396.875C55.1984 396.667 54.8726 396.511 54.4332 396.409L52.9787 396.068C52.1795 395.879 51.5923 395.585 51.2173 395.188C50.8461 394.786 50.6605 394.284 50.6605 393.682C50.6605 393.189 50.7988 392.754 51.0753 392.375C51.3556 391.996 51.7363 391.699 52.2173 391.483C52.7022 391.267 53.2514 391.159 53.8651 391.159C54.7287 391.159 55.4067 391.348 55.8991 391.727C56.3954 392.106 56.7476 392.606 56.956 393.227ZM65.3153 393.227L64.1108 393.568C64.035 393.367 63.9233 393.172 63.7756 392.983C63.6316 392.79 63.4347 392.631 63.1847 392.506C62.9347 392.381 62.6146 392.318 62.2244 392.318C61.6903 392.318 61.2453 392.441 60.8892 392.688C60.5369 392.93 60.3608 393.239 60.3608 393.614C60.3608 393.947 60.482 394.21 60.7244 394.403C60.9669 394.597 61.3456 394.758 61.8608 394.886L63.1562 395.205C63.9366 395.394 64.518 395.684 64.9006 396.074C65.2831 396.46 65.4744 396.958 65.4744 397.568C65.4744 398.068 65.3305 398.515 65.0426 398.909C64.7585 399.303 64.3608 399.614 63.8494 399.841C63.3381 400.068 62.7434 400.182 62.0653 400.182C61.1752 400.182 60.4384 399.989 59.8551 399.602C59.2718 399.216 58.9025 398.652 58.7472 397.909L60.0199 397.591C60.1411 398.061 60.3703 398.413 60.7074 398.648C61.0483 398.883 61.4934 399 62.0426 399C62.6676 399 63.1638 398.867 63.5312 398.602C63.9025 398.333 64.0881 398.011 64.0881 397.636C64.0881 397.333 63.982 397.08 63.7699 396.875C63.5578 396.667 63.232 396.511 62.7926 396.409L61.3381 396.068C60.5388 395.879 59.9517 395.585 59.5767 395.188C59.2055 394.786 59.0199 394.284 59.0199 393.682C59.0199 393.189 59.1581 392.754 59.4347 392.375C59.715 391.996 60.0956 391.699 60.5767 391.483C61.0616 391.267 61.6108 391.159 62.2244 391.159C63.0881 391.159 63.7661 391.348 64.2585 391.727C64.7547 392.106 65.107 392.606 65.3153 393.227ZM70.0611 400.205C69.508 400.205 69.0062 400.1 68.5554 399.892C68.1046 399.68 67.7467 399.375 67.4815 398.977C67.2164 398.576 67.0838 398.091 67.0838 397.523C67.0838 397.023 67.1823 396.617 67.3793 396.307C67.5762 395.992 67.8395 395.746 68.169 395.568C68.4986 395.39 68.8622 395.258 69.2599 395.17C69.6615 395.08 70.0649 395.008 70.4702 394.955C71.0005 394.886 71.4304 394.835 71.7599 394.801C72.0933 394.763 72.3357 394.701 72.4872 394.614C72.6425 394.527 72.7202 394.375 72.7202 394.159V394.114C72.7202 393.553 72.5668 393.117 72.2599 392.807C71.9569 392.496 71.4967 392.341 70.8793 392.341C70.2391 392.341 69.7372 392.481 69.3736 392.761C69.0099 393.042 68.7543 393.341 68.6065 393.659L67.3338 393.205C67.5611 392.674 67.8641 392.261 68.2429 391.966C68.6255 391.667 69.0421 391.458 69.4929 391.341C69.9474 391.22 70.3944 391.159 70.8338 391.159C71.1141 391.159 71.4361 391.193 71.7997 391.261C72.1671 391.326 72.5213 391.46 72.8622 391.665C73.2069 391.869 73.4929 392.178 73.7202 392.591C73.9474 393.004 74.0611 393.557 74.0611 394.25V400H72.7202V398.818H72.652C72.5611 399.008 72.4096 399.21 72.1974 399.426C71.9853 399.642 71.7031 399.826 71.3509 399.977C70.9986 400.129 70.5687 400.205 70.0611 400.205ZM70.2656 399C70.7959 399 71.2429 398.896 71.6065 398.688C71.974 398.479 72.2505 398.21 72.4361 397.881C72.6255 397.551 72.7202 397.205 72.7202 396.841V395.614C72.6634 395.682 72.5384 395.744 72.3452 395.801C72.1558 395.854 71.9361 395.902 71.6861 395.943C71.4399 395.981 71.1993 396.015 70.9645 396.045C70.7334 396.072 70.5459 396.095 70.402 396.114C70.0535 396.159 69.7277 396.233 69.4247 396.335C69.1255 396.434 68.883 396.583 68.6974 396.784C68.5156 396.981 68.4247 397.25 68.4247 397.591C68.4247 398.057 68.5971 398.409 68.9418 398.648C69.2902 398.883 69.7315 399 70.2656 399ZM80.0312 403.455C79.3835 403.455 78.8267 403.371 78.3608 403.205C77.8949 403.042 77.5066 402.826 77.196 402.557C76.8892 402.292 76.6449 402.008 76.4631 401.705L77.5312 400.955C77.6525 401.114 77.8059 401.295 77.9915 401.5C78.1771 401.708 78.4309 401.888 78.7528 402.04C79.0786 402.195 79.5047 402.273 80.0312 402.273C80.7358 402.273 81.3172 402.102 81.7756 401.761C82.2339 401.42 82.4631 400.886 82.4631 400.159V398.386H82.3494C82.2509 398.545 82.1108 398.742 81.929 398.977C81.7509 399.208 81.4934 399.415 81.1562 399.597C80.8229 399.775 80.3722 399.864 79.804 399.864C79.0994 399.864 78.4669 399.697 77.9062 399.364C77.3494 399.03 76.9081 398.545 76.5824 397.909C76.2604 397.273 76.0994 396.5 76.0994 395.591C76.0994 394.697 76.2566 393.919 76.571 393.256C76.8854 392.589 77.3229 392.074 77.8835 391.71C78.4441 391.343 79.0919 391.159 79.8267 391.159C80.3949 391.159 80.8456 391.254 81.179 391.443C81.5161 391.629 81.7737 391.841 81.9517 392.08C82.1335 392.314 82.2737 392.508 82.3722 392.659H82.5085V391.273H83.804V400.25C83.804 401 83.6335 401.61 83.2926 402.08C82.9555 402.553 82.5009 402.9 81.929 403.119C81.3608 403.343 80.7282 403.455 80.0312 403.455ZM79.9858 398.659C80.5237 398.659 80.9782 398.536 81.3494 398.29C81.7206 398.044 82.0028 397.689 82.196 397.227C82.3892 396.765 82.4858 396.212 82.4858 395.568C82.4858 394.939 82.3911 394.384 82.2017 393.903C82.0123 393.422 81.732 393.045 81.3608 392.773C80.9896 392.5 80.5313 392.364 79.9858 392.364C79.4176 392.364 78.9441 392.508 78.5653 392.795C78.1903 393.083 77.9081 393.47 77.7188 393.955C77.5331 394.439 77.4403 394.977 77.4403 395.568C77.4403 396.174 77.535 396.71 77.7244 397.176C77.9176 397.638 78.2017 398.002 78.5767 398.267C78.9555 398.528 79.4252 398.659 79.9858 398.659ZM89.9176 400.182C89.0767 400.182 88.3513 399.996 87.7415 399.625C87.1354 399.25 86.6676 398.727 86.3381 398.057C86.0123 397.383 85.8494 396.598 85.8494 395.705C85.8494 394.811 86.0123 394.023 86.3381 393.341C86.6676 392.655 87.1259 392.121 87.7131 391.739C88.304 391.352 88.9934 391.159 89.7812 391.159C90.2358 391.159 90.6847 391.235 91.1278 391.386C91.571 391.538 91.9744 391.784 92.3381 392.125C92.7017 392.462 92.9915 392.909 93.2074 393.466C93.4233 394.023 93.5312 394.708 93.5312 395.523V396.091H86.804V394.932H92.1676C92.1676 394.439 92.0691 394 91.8722 393.614C91.679 393.227 91.4025 392.922 91.0426 392.699C90.6866 392.475 90.2661 392.364 89.7812 392.364C89.2472 392.364 88.785 392.496 88.3949 392.761C88.0085 393.023 87.7112 393.364 87.5028 393.784C87.2945 394.205 87.1903 394.655 87.1903 395.136V395.909C87.1903 396.568 87.304 397.127 87.5312 397.585C87.7623 398.04 88.0824 398.386 88.4915 398.625C88.9006 398.86 89.3759 398.977 89.9176 398.977C90.2699 398.977 90.5881 398.928 90.8722 398.83C91.16 398.727 91.4081 398.576 91.6165 398.375C91.8248 398.17 91.9858 397.917 92.0994 397.614L93.3949 397.977C93.2585 398.417 93.0294 398.803 92.7074 399.136C92.3854 399.466 91.9877 399.723 91.5142 399.909C91.0407 400.091 90.5085 400.182 89.9176 400.182ZM101.753 393.227L100.548 393.568C100.473 393.367 100.361 393.172 100.213 392.983C100.069 392.79 99.8722 392.631 99.6222 392.506C99.3722 392.381 99.0521 392.318 98.6619 392.318C98.1278 392.318 97.6828 392.441 97.3267 392.688C96.9744 392.93 96.7983 393.239 96.7983 393.614C96.7983 393.947 96.9195 394.21 97.1619 394.403C97.4044 394.597 97.7831 394.758 98.2983 394.886L99.5938 395.205C100.374 395.394 100.955 395.684 101.338 396.074C101.721 396.46 101.912 396.958 101.912 397.568C101.912 398.068 101.768 398.515 101.48 398.909C101.196 399.303 100.798 399.614 100.287 399.841C99.7756 400.068 99.1809 400.182 98.5028 400.182C97.6127 400.182 96.8759 399.989 96.2926 399.602C95.7093 399.216 95.34 398.652 95.1847 397.909L96.4574 397.591C96.5786 398.061 96.8078 398.413 97.1449 398.648C97.4858 398.883 97.9309 399 98.4801 399C99.1051 399 99.6013 398.867 99.9688 398.602C100.34 398.333 100.526 398.011 100.526 397.636C100.526 397.333 100.42 397.08 100.207 396.875C99.9953 396.667 99.6695 396.511 99.2301 396.409L97.7756 396.068C96.9763 395.879 96.3892 395.585 96.0142 395.188C95.643 394.786 95.4574 394.284 95.4574 393.682C95.4574 393.189 95.5956 392.754 95.8722 392.375C96.1525 391.996 96.5331 391.699 97.0142 391.483C97.4991 391.267 98.0483 391.159 98.6619 391.159C99.5256 391.159 100.204 391.348 100.696 391.727C101.192 392.106 101.545 392.606 101.753 393.227ZM109.771 388.364V400H108.43V388.364H109.771ZM112.227 400V391.273H113.568V400H112.227ZM112.909 389.818C112.648 389.818 112.422 389.729 112.233 389.551C112.047 389.373 111.955 389.159 111.955 388.909C111.955 388.659 112.047 388.445 112.233 388.267C112.422 388.089 112.648 388 112.909 388C113.17 388 113.394 388.089 113.58 388.267C113.769 388.445 113.864 388.659 113.864 388.909C113.864 389.159 113.769 389.373 113.58 389.551C113.394 389.729 113.17 389.818 112.909 389.818ZM123.161 391.273L119.933 400H118.57L115.342 391.273H116.797L119.206 398.227H119.297L121.706 391.273H123.161ZM128.277 400.182C127.436 400.182 126.711 399.996 126.101 399.625C125.495 399.25 125.027 398.727 124.697 398.057C124.372 397.383 124.209 396.598 124.209 395.705C124.209 394.811 124.372 394.023 124.697 393.341C125.027 392.655 125.485 392.121 126.072 391.739C126.663 391.352 127.353 391.159 128.141 391.159C128.595 391.159 129.044 391.235 129.487 391.386C129.93 391.538 130.334 391.784 130.697 392.125C131.061 392.462 131.351 392.909 131.567 393.466C131.783 394.023 131.891 394.708 131.891 395.523V396.091H125.163V394.932H130.527C130.527 394.439 130.429 394 130.232 393.614C130.038 393.227 129.762 392.922 129.402 392.699C129.046 392.475 128.625 392.364 128.141 392.364C127.607 392.364 127.144 392.496 126.754 392.761C126.368 393.023 126.071 393.364 125.862 393.784C125.654 394.205 125.55 394.655 125.55 395.136V395.909C125.55 396.568 125.663 397.127 125.891 397.585C126.122 398.04 126.442 398.386 126.851 398.625C127.26 398.86 127.735 398.977 128.277 398.977C128.629 398.977 128.947 398.928 129.232 398.83C129.519 398.727 129.768 398.576 129.976 398.375C130.184 398.17 130.345 397.917 130.459 397.614L131.754 397.977C131.618 398.417 131.389 398.803 131.067 399.136C130.745 399.466 130.347 399.723 129.874 399.909C129.4 400.091 128.868 400.182 128.277 400.182ZM142.317 391.273V392.409H137.612V391.273H142.317ZM139.021 400V390.068C139.021 389.568 139.139 389.152 139.374 388.818C139.608 388.485 139.913 388.235 140.288 388.068C140.663 387.902 141.059 387.818 141.476 387.818C141.805 387.818 142.074 387.845 142.283 387.898C142.491 387.951 142.646 388 142.749 388.045L142.362 389.205C142.294 389.182 142.199 389.153 142.078 389.119C141.961 389.085 141.805 389.068 141.612 389.068C141.169 389.068 140.849 389.18 140.652 389.403C140.459 389.627 140.362 389.955 140.362 390.386V400H139.021ZM147.382 400.182C146.594 400.182 145.903 399.994 145.308 399.619C144.717 399.244 144.255 398.72 143.922 398.045C143.592 397.371 143.428 396.583 143.428 395.682C143.428 394.773 143.592 393.979 143.922 393.301C144.255 392.623 144.717 392.097 145.308 391.722C145.903 391.347 146.594 391.159 147.382 391.159C148.17 391.159 148.859 391.347 149.45 391.722C150.045 392.097 150.507 392.623 150.837 393.301C151.17 393.979 151.337 394.773 151.337 395.682C151.337 396.583 151.17 397.371 150.837 398.045C150.507 398.72 150.045 399.244 149.45 399.619C148.859 399.994 148.17 400.182 147.382 400.182ZM147.382 398.977C147.981 398.977 148.473 398.824 148.859 398.517C149.246 398.21 149.532 397.807 149.717 397.307C149.903 396.807 149.996 396.265 149.996 395.682C149.996 395.098 149.903 394.555 149.717 394.051C149.532 393.547 149.246 393.14 148.859 392.83C148.473 392.519 147.981 392.364 147.382 392.364C146.784 392.364 146.291 392.519 145.905 392.83C145.518 393.14 145.232 393.547 145.047 394.051C144.861 394.555 144.768 395.098 144.768 395.682C144.768 396.265 144.861 396.807 145.047 397.307C145.232 397.807 145.518 398.21 145.905 398.517C146.291 398.824 146.784 398.977 147.382 398.977ZM153.384 400V391.273H154.679V392.591H154.77C154.929 392.159 155.217 391.809 155.634 391.54C156.05 391.271 156.52 391.136 157.043 391.136C157.141 391.136 157.264 391.138 157.412 391.142C157.56 391.146 157.671 391.152 157.747 391.159V392.523C157.702 392.511 157.598 392.494 157.435 392.472C157.276 392.445 157.107 392.432 156.929 392.432C156.505 392.432 156.126 392.521 155.793 392.699C155.463 392.873 155.202 393.116 155.009 393.426C154.819 393.733 154.724 394.083 154.724 394.477V400H153.384ZM162.73 400.182C161.889 400.182 161.164 399.996 160.554 399.625C159.948 399.25 159.48 398.727 159.151 398.057C158.825 397.383 158.662 396.598 158.662 395.705C158.662 394.811 158.825 394.023 159.151 393.341C159.48 392.655 159.938 392.121 160.526 391.739C161.116 391.352 161.806 391.159 162.594 391.159C163.048 391.159 163.497 391.235 163.94 391.386C164.384 391.538 164.787 391.784 165.151 392.125C165.514 392.462 165.804 392.909 166.02 393.466C166.236 394.023 166.344 394.708 166.344 395.523V396.091H159.616V394.932H164.98C164.98 394.439 164.882 394 164.685 393.614C164.491 393.227 164.215 392.922 163.855 392.699C163.499 392.475 163.079 392.364 162.594 392.364C162.06 392.364 161.598 392.496 161.207 392.761C160.821 393.023 160.524 393.364 160.315 393.784C160.107 394.205 160.003 394.655 160.003 395.136V395.909C160.003 396.568 160.116 397.127 160.344 397.585C160.575 398.04 160.895 398.386 161.304 398.625C161.713 398.86 162.188 398.977 162.73 398.977C163.082 398.977 163.401 398.928 163.685 398.83C163.973 398.727 164.221 398.576 164.429 398.375C164.637 398.17 164.798 397.917 164.912 397.614L166.207 397.977C166.071 398.417 165.842 398.803 165.52 399.136C165.198 399.466 164.8 399.723 164.327 399.909C163.853 400.091 163.321 400.182 162.73 400.182ZM175.254 391.273L172.027 400H170.663L167.436 391.273H168.891L171.3 398.227H171.391L173.8 391.273H175.254ZM180.371 400.182C179.53 400.182 178.804 399.996 178.195 399.625C177.589 399.25 177.121 398.727 176.791 398.057C176.465 397.383 176.303 396.598 176.303 395.705C176.303 394.811 176.465 394.023 176.791 393.341C177.121 392.655 177.579 392.121 178.166 391.739C178.757 391.352 179.446 391.159 180.234 391.159C180.689 391.159 181.138 391.235 181.581 391.386C182.024 391.538 182.428 391.784 182.791 392.125C183.155 392.462 183.445 392.909 183.661 393.466C183.876 394.023 183.984 394.708 183.984 395.523V396.091H177.257V394.932H182.621C182.621 394.439 182.522 394 182.325 393.614C182.132 393.227 181.856 392.922 181.496 392.699C181.14 392.475 180.719 392.364 180.234 392.364C179.7 392.364 179.238 392.496 178.848 392.761C178.462 393.023 178.164 393.364 177.956 393.784C177.748 394.205 177.643 394.655 177.643 395.136V395.909C177.643 396.568 177.757 397.127 177.984 397.585C178.215 398.04 178.536 398.386 178.945 398.625C179.354 398.86 179.829 398.977 180.371 398.977C180.723 398.977 181.041 398.928 181.325 398.83C181.613 398.727 181.861 398.576 182.07 398.375C182.278 398.17 182.439 397.917 182.553 397.614L183.848 397.977C183.712 398.417 183.482 398.803 183.161 399.136C182.839 399.466 182.441 399.723 181.967 399.909C181.494 400.091 180.962 400.182 180.371 400.182ZM186.024 400V391.273H187.32V392.591H187.411C187.57 392.159 187.857 391.809 188.274 391.54C188.691 391.271 189.161 391.136 189.683 391.136C189.782 391.136 189.905 391.138 190.053 391.142C190.2 391.146 190.312 391.152 190.388 391.159V392.523C190.342 392.511 190.238 392.494 190.075 392.472C189.916 392.445 189.748 392.432 189.57 392.432C189.145 392.432 188.767 392.521 188.433 392.699C188.104 392.873 187.842 393.116 187.649 393.426C187.46 393.733 187.365 394.083 187.365 394.477V400H186.024ZM200.023 400.182C199.235 400.182 198.544 399.994 197.949 399.619C197.358 399.244 196.896 398.72 196.562 398.045C196.233 397.371 196.068 396.583 196.068 395.682C196.068 394.773 196.233 393.979 196.562 393.301C196.896 392.623 197.358 392.097 197.949 391.722C198.544 391.347 199.235 391.159 200.023 391.159C200.811 391.159 201.5 391.347 202.091 391.722C202.686 392.097 203.148 392.623 203.477 393.301C203.811 393.979 203.977 394.773 203.977 395.682C203.977 396.583 203.811 397.371 203.477 398.045C203.148 398.72 202.686 399.244 202.091 399.619C201.5 399.994 200.811 400.182 200.023 400.182ZM200.023 398.977C200.621 398.977 201.114 398.824 201.5 398.517C201.886 398.21 202.172 397.807 202.358 397.307C202.544 396.807 202.636 396.265 202.636 395.682C202.636 395.098 202.544 394.555 202.358 394.051C202.172 393.547 201.886 393.14 201.5 392.83C201.114 392.519 200.621 392.364 200.023 392.364C199.424 392.364 198.932 392.519 198.545 392.83C198.159 393.14 197.873 393.547 197.688 394.051C197.502 394.555 197.409 395.098 197.409 395.682C197.409 396.265 197.502 396.807 197.688 397.307C197.873 397.807 198.159 398.21 198.545 398.517C198.932 398.824 199.424 398.977 200.023 398.977ZM207.365 394.75V400H206.024V391.273H207.32V392.636H207.433C207.638 392.193 207.948 391.837 208.365 391.568C208.782 391.295 209.32 391.159 209.979 391.159C210.57 391.159 211.087 391.28 211.53 391.523C211.973 391.761 212.318 392.125 212.564 392.614C212.81 393.098 212.933 393.712 212.933 394.455V400H211.592V394.545C211.592 393.86 211.414 393.326 211.058 392.943C210.702 392.557 210.214 392.364 209.592 392.364C209.164 392.364 208.782 392.456 208.445 392.642C208.111 392.828 207.848 393.098 207.655 393.455C207.462 393.811 207.365 394.242 207.365 394.75ZM223.679 391.273V392.409H219.156V391.273H223.679ZM220.474 389.182H221.815V397.5C221.815 397.879 221.87 398.163 221.98 398.352C222.094 398.538 222.238 398.663 222.412 398.727C222.59 398.788 222.777 398.818 222.974 398.818C223.122 398.818 223.243 398.811 223.338 398.795C223.433 398.777 223.509 398.761 223.565 398.75L223.838 399.955C223.747 399.989 223.62 400.023 223.457 400.057C223.295 400.095 223.088 400.114 222.838 400.114C222.459 400.114 222.088 400.032 221.724 399.869C221.365 399.706 221.065 399.458 220.827 399.125C220.592 398.792 220.474 398.371 220.474 397.864V389.182ZM227.224 394.75V400H225.884V388.364H227.224V392.636H227.338C227.543 392.186 227.849 391.828 228.259 391.562C228.671 391.294 229.221 391.159 229.906 391.159C230.501 391.159 231.022 391.278 231.469 391.517C231.916 391.752 232.262 392.114 232.509 392.602C232.759 393.087 232.884 393.705 232.884 394.455V400H231.543V394.545C231.543 393.852 231.363 393.316 231.003 392.938C230.647 392.555 230.152 392.364 229.52 392.364C229.08 392.364 228.687 392.456 228.338 392.642C227.993 392.828 227.721 393.098 227.52 393.455C227.323 393.811 227.224 394.242 227.224 394.75ZM238.996 400.182C238.155 400.182 237.429 399.996 236.82 399.625C236.214 399.25 235.746 398.727 235.416 398.057C235.09 397.383 234.928 396.598 234.928 395.705C234.928 394.811 235.09 394.023 235.416 393.341C235.746 392.655 236.204 392.121 236.791 391.739C237.382 391.352 238.071 391.159 238.859 391.159C239.314 391.159 239.763 391.235 240.206 391.386C240.649 391.538 241.053 391.784 241.416 392.125C241.78 392.462 242.07 392.909 242.286 393.466C242.501 394.023 242.609 394.708 242.609 395.523V396.091H235.882V394.932H241.246C241.246 394.439 241.147 394 240.95 393.614C240.757 393.227 240.481 392.922 240.121 392.699C239.765 392.475 239.344 392.364 238.859 392.364C238.325 392.364 237.863 392.496 237.473 392.761C237.087 393.023 236.789 393.364 236.581 393.784C236.373 394.205 236.268 394.655 236.268 395.136V395.909C236.268 396.568 236.382 397.127 236.609 397.585C236.84 398.04 237.161 398.386 237.57 398.625C237.979 398.86 238.454 398.977 238.996 398.977C239.348 398.977 239.666 398.928 239.95 398.83C240.238 398.727 240.486 398.576 240.695 398.375C240.903 398.17 241.064 397.917 241.178 397.614L242.473 397.977C242.337 398.417 242.107 398.803 241.786 399.136C241.464 399.466 241.066 399.723 240.592 399.909C240.119 400.091 239.587 400.182 238.996 400.182ZM249.331 400V388.364H250.672V392.659H250.786C250.884 392.508 251.02 392.314 251.195 392.08C251.373 391.841 251.626 391.629 251.956 391.443C252.289 391.254 252.74 391.159 253.308 391.159C254.043 391.159 254.691 391.343 255.251 391.71C255.812 392.078 256.25 392.598 256.564 393.273C256.878 393.947 257.036 394.742 257.036 395.659C257.036 396.583 256.878 397.384 256.564 398.062C256.25 398.737 255.814 399.259 255.257 399.631C254.7 399.998 254.058 400.182 253.331 400.182C252.77 400.182 252.321 400.089 251.984 399.903C251.647 399.714 251.388 399.5 251.206 399.261C251.024 399.019 250.884 398.818 250.786 398.659H250.626V400H249.331ZM250.649 395.636C250.649 396.295 250.746 396.877 250.939 397.381C251.132 397.881 251.414 398.273 251.786 398.557C252.157 398.837 252.611 398.977 253.149 398.977C253.71 398.977 254.178 398.83 254.553 398.534C254.931 398.235 255.215 397.833 255.405 397.33C255.598 396.822 255.695 396.258 255.695 395.636C255.695 395.023 255.6 394.47 255.411 393.977C255.225 393.481 254.943 393.089 254.564 392.801C254.189 392.509 253.717 392.364 253.149 392.364C252.604 392.364 252.145 392.502 251.774 392.778C251.403 393.051 251.123 393.434 250.933 393.926C250.744 394.415 250.649 394.985 250.649 395.636ZM260.428 388.364V400H259.087V388.364H260.428ZM266.429 400.182C265.641 400.182 264.95 399.994 264.355 399.619C263.764 399.244 263.302 398.72 262.969 398.045C262.639 397.371 262.474 396.583 262.474 395.682C262.474 394.773 262.639 393.979 262.969 393.301C263.302 392.623 263.764 392.097 264.355 391.722C264.95 391.347 265.641 391.159 266.429 391.159C267.217 391.159 267.906 391.347 268.497 391.722C269.092 392.097 269.554 392.623 269.884 393.301C270.217 393.979 270.384 394.773 270.384 395.682C270.384 396.583 270.217 397.371 269.884 398.045C269.554 398.72 269.092 399.244 268.497 399.619C267.906 399.994 267.217 400.182 266.429 400.182ZM266.429 398.977C267.027 398.977 267.52 398.824 267.906 398.517C268.293 398.21 268.579 397.807 268.764 397.307C268.95 396.807 269.043 396.265 269.043 395.682C269.043 395.098 268.95 394.555 268.764 394.051C268.579 393.547 268.293 393.14 267.906 392.83C267.52 392.519 267.027 392.364 266.429 392.364C265.83 392.364 265.338 392.519 264.952 392.83C264.565 393.14 264.279 393.547 264.094 394.051C263.908 394.555 263.815 395.098 263.815 395.682C263.815 396.265 263.908 396.807 264.094 397.307C264.279 397.807 264.565 398.21 264.952 398.517C265.338 398.824 265.83 398.977 266.429 398.977ZM275.976 400.182C275.158 400.182 274.453 399.989 273.862 399.602C273.271 399.216 272.817 398.684 272.499 398.006C272.18 397.328 272.021 396.553 272.021 395.682C272.021 394.795 272.184 394.013 272.51 393.335C272.839 392.653 273.298 392.121 273.885 391.739C274.476 391.352 275.165 391.159 275.953 391.159C276.567 391.159 277.12 391.273 277.612 391.5C278.105 391.727 278.508 392.045 278.822 392.455C279.137 392.864 279.332 393.341 279.408 393.886H278.067C277.964 393.489 277.737 393.136 277.385 392.83C277.036 392.519 276.567 392.364 275.976 392.364C275.453 392.364 274.995 392.5 274.601 392.773C274.211 393.042 273.906 393.422 273.686 393.915C273.47 394.403 273.362 394.977 273.362 395.636C273.362 396.311 273.468 396.898 273.68 397.398C273.896 397.898 274.199 398.286 274.589 398.562C274.983 398.839 275.446 398.977 275.976 398.977C276.324 398.977 276.641 398.917 276.925 398.795C277.209 398.674 277.449 398.5 277.646 398.273C277.843 398.045 277.983 397.773 278.067 397.455H279.408C279.332 397.97 279.144 398.434 278.845 398.847C278.55 399.256 278.158 399.581 277.669 399.824C277.184 400.062 276.62 400.182 275.976 400.182ZM282.618 396.818L282.595 395.159H282.868L286.686 391.273H288.345L284.277 395.386H284.163L282.618 396.818ZM281.368 400V388.364H282.709V400H281.368ZM286.913 400L283.504 395.682L284.459 394.75L288.618 400H286.913ZM293.257 400.182C292.439 400.182 291.734 399.989 291.143 399.602C290.553 399.216 290.098 398.684 289.78 398.006C289.462 397.328 289.303 396.553 289.303 395.682C289.303 394.795 289.465 394.013 289.791 393.335C290.121 392.653 290.579 392.121 291.166 391.739C291.757 391.352 292.446 391.159 293.234 391.159C293.848 391.159 294.401 391.273 294.893 391.5C295.386 391.727 295.789 392.045 296.104 392.455C296.418 392.864 296.613 393.341 296.689 393.886H295.348C295.246 393.489 295.018 393.136 294.666 392.83C294.318 392.519 293.848 392.364 293.257 392.364C292.734 392.364 292.276 392.5 291.882 392.773C291.492 393.042 291.187 393.422 290.967 393.915C290.751 394.403 290.643 394.977 290.643 395.636C290.643 396.311 290.75 396.898 290.962 397.398C291.178 397.898 291.481 398.286 291.871 398.562C292.265 398.839 292.727 398.977 293.257 398.977C293.606 398.977 293.922 398.917 294.206 398.795C294.49 398.674 294.731 398.5 294.928 398.273C295.125 398.045 295.265 397.773 295.348 397.455H296.689C296.613 397.97 296.426 398.434 296.126 398.847C295.831 399.256 295.439 399.581 294.95 399.824C294.465 400.062 293.901 400.182 293.257 400.182ZM299.99 394.75V400H298.649V388.364H299.99V392.636H300.104C300.308 392.186 300.615 391.828 301.024 391.562C301.437 391.294 301.986 391.159 302.672 391.159C303.267 391.159 303.787 391.278 304.234 391.517C304.681 391.752 305.028 392.114 305.274 392.602C305.524 393.087 305.649 393.705 305.649 394.455V400H304.308V394.545C304.308 393.852 304.128 393.316 303.768 392.938C303.412 392.555 302.918 392.364 302.286 392.364C301.846 392.364 301.452 392.456 301.104 392.642C300.759 392.828 300.486 393.098 300.286 393.455C300.089 393.811 299.99 394.242 299.99 394.75ZM310.67 400.205C310.117 400.205 309.616 400.1 309.165 399.892C308.714 399.68 308.356 399.375 308.091 398.977C307.826 398.576 307.693 398.091 307.693 397.523C307.693 397.023 307.792 396.617 307.989 396.307C308.186 395.992 308.449 395.746 308.778 395.568C309.108 395.39 309.472 395.258 309.869 395.17C310.271 395.08 310.674 395.008 311.08 394.955C311.61 394.886 312.04 394.835 312.369 394.801C312.703 394.763 312.945 394.701 313.097 394.614C313.252 394.527 313.33 394.375 313.33 394.159V394.114C313.33 393.553 313.176 393.117 312.869 392.807C312.566 392.496 312.106 392.341 311.489 392.341C310.848 392.341 310.347 392.481 309.983 392.761C309.619 393.042 309.364 393.341 309.216 393.659L307.943 393.205C308.17 392.674 308.473 392.261 308.852 391.966C309.235 391.667 309.652 391.458 310.102 391.341C310.557 391.22 311.004 391.159 311.443 391.159C311.723 391.159 312.045 391.193 312.409 391.261C312.777 391.326 313.131 391.46 313.472 391.665C313.816 391.869 314.102 392.178 314.33 392.591C314.557 393.004 314.67 393.557 314.67 394.25V400H313.33V398.818H313.261C313.17 399.008 313.019 399.21 312.807 399.426C312.595 399.642 312.313 399.826 311.96 399.977C311.608 400.129 311.178 400.205 310.67 400.205ZM310.875 399C311.405 399 311.852 398.896 312.216 398.688C312.583 398.479 312.86 398.21 313.045 397.881C313.235 397.551 313.33 397.205 313.33 396.841V395.614C313.273 395.682 313.148 395.744 312.955 395.801C312.765 395.854 312.545 395.902 312.295 395.943C312.049 395.981 311.809 396.015 311.574 396.045C311.343 396.072 311.155 396.095 311.011 396.114C310.663 396.159 310.337 396.233 310.034 396.335C309.735 396.434 309.492 396.583 309.307 396.784C309.125 396.981 309.034 397.25 309.034 397.591C309.034 398.057 309.206 398.409 309.551 398.648C309.9 398.883 310.341 399 310.875 399ZM317.118 400V391.273H318.459V400H317.118ZM317.8 389.818C317.538 389.818 317.313 389.729 317.124 389.551C316.938 389.373 316.845 389.159 316.845 388.909C316.845 388.659 316.938 388.445 317.124 388.267C317.313 388.089 317.538 388 317.8 388C318.061 388 318.285 388.089 318.47 388.267C318.66 388.445 318.754 388.659 318.754 388.909C318.754 389.159 318.66 389.373 318.47 389.551C318.285 389.729 318.061 389.818 317.8 389.818ZM322.256 394.75V400H320.915V391.273H322.21V392.636H322.324C322.528 392.193 322.839 391.837 323.256 391.568C323.672 391.295 324.21 391.159 324.869 391.159C325.46 391.159 325.977 391.28 326.42 391.523C326.864 391.761 327.208 392.125 327.455 392.614C327.701 393.098 327.824 393.712 327.824 394.455V400H326.483V394.545C326.483 393.86 326.305 393.326 325.949 392.943C325.593 392.557 325.104 392.364 324.483 392.364C324.055 392.364 323.672 392.456 323.335 392.642C323.002 392.828 322.739 393.098 322.545 393.455C322.352 393.811 322.256 394.242 322.256 394.75ZM331.251 400.091C330.971 400.091 330.731 399.991 330.53 399.79C330.329 399.589 330.229 399.348 330.229 399.068C330.229 398.788 330.329 398.547 330.53 398.347C330.731 398.146 330.971 398.045 331.251 398.045C331.532 398.045 331.772 398.146 331.973 398.347C332.174 398.547 332.274 398.788 332.274 399.068C332.274 399.254 332.227 399.424 332.132 399.58C332.041 399.735 331.918 399.86 331.763 399.955C331.611 400.045 331.441 400.091 331.251 400.091Z" fill="#0C0E0F"/>
<rect width="395" height="316" fill="white"/>
<rect width="395" height="316" fill="#9896FF"/>
<rect x="17.2651" y="28.2651" width="359.47" height="50.3696" rx="3.97644" fill="white"/>
<rect x="17.2651" y="28.2651" width="359.47" height="50.3696" rx="3.97644" stroke="black" stroke-width="0.530191"/>
<path opacity="0.3" d="M49.8191 42.4609H49.8193H53.4909V64.4447C53.4909 65.5096 53.0679 66.5309 52.3149 67.2838C51.5619 68.0368 50.5407 68.4599 49.4758 68.4599H31.8841C30.8192 68.4599 29.7979 68.0368 29.045 67.2838C28.292 66.5309 27.869 65.5096 27.869 64.4447V38.6425C27.869 37.5776 28.292 36.5564 29.045 35.8034C29.7979 35.0504 30.8192 34.6274 31.8841 34.6274H46.2729V38.9161L46.2729 38.9165C46.2742 39.8564 46.6484 40.7574 47.3131 41.4219C47.9779 42.0864 48.8792 42.46 49.8191 42.4609Z" fill="#FCFCFC" stroke="#0C0E0F" stroke-width="0.530191"/>
<path d="M46.6174 38.916L46.6174 34.566L53.5744 42.1163H49.8193C48.9706 42.1155 48.1569 41.7781 47.5566 41.1782C46.9564 40.5782 46.6186 39.7646 46.6174 38.916Z" fill="#0C0E0F" stroke="#0C0E0F" stroke-width="0.159057"/>
<path d="M48.3765 47.6006H31.9541C31.8175 47.6002 31.6867 47.5458 31.5901 47.4492C31.4935 47.3526 31.4391 47.2217 31.4387 47.0851C31.4387 46.9483 31.4929 46.8171 31.5896 46.7202C31.6862 46.6233 31.8173 46.5687 31.9541 46.5683H48.3765C48.5133 46.5687 48.6444 46.6233 48.7411 46.7202C48.8377 46.817 48.8919 46.9482 48.892 47.085C48.8916 47.2216 48.8372 47.3526 48.7406 47.4492C48.644 47.5458 48.5131 47.6002 48.3765 47.6006Z" fill="#0C0E0F" stroke="#0C0E0F" stroke-width="0.159057"/>
<path d="M48.3765 51.1587H31.9541C31.8175 51.1583 31.6867 51.1039 31.5901 51.0073C31.4935 50.9107 31.4391 50.7798 31.4387 50.6432C31.4387 50.5064 31.4929 50.3752 31.5896 50.2783C31.6862 50.1814 31.8173 50.1268 31.9541 50.1264H48.3765C48.5133 50.1268 48.6444 50.1814 48.7411 50.2783C48.8377 50.3751 48.8919 50.5063 48.892 50.6431C48.8916 50.7797 48.8372 50.9107 48.7406 51.0073C48.644 51.1039 48.5131 51.1583 48.3765 51.1587Z" fill="#0C0E0F" stroke="#0C0E0F" stroke-width="0.159057"/>
<path d="M48.3765 54.7168H31.9541C31.8173 54.7164 31.6862 54.6618 31.5896 54.5649C31.4929 54.468 31.4387 54.3368 31.4387 54.2C31.4391 54.0634 31.4935 53.9325 31.5901 53.8359C31.6867 53.7393 31.8175 53.6849 31.9541 53.6845H48.3765C48.5131 53.6849 48.644 53.7393 48.7406 53.8359C48.8372 53.9325 48.8916 54.0634 48.892 54.2001C48.8919 54.3369 48.8377 54.4681 48.7411 54.5649C48.6444 54.6618 48.5133 54.7164 48.3765 54.7168Z" fill="#0C0E0F" stroke="#0C0E0F" stroke-width="0.159057"/>
<path d="M48.3766 58.2734H31.954C31.8173 58.2734 31.6863 58.2191 31.5896 58.1225C31.493 58.0258 31.4387 57.8948 31.4387 57.7581C31.4387 57.6212 31.4929 57.4899 31.5896 57.393C31.6862 57.2962 31.8173 57.2415 31.9541 57.2411H48.3765C48.5133 57.2415 48.6444 57.2962 48.7411 57.393C48.8377 57.4899 48.892 57.6212 48.892 57.7581C48.892 57.8948 48.8377 58.0258 48.741 58.1225C48.6444 58.2191 48.5133 58.2734 48.3766 58.2734Z" fill="#0C0E0F" stroke="#0C0E0F" stroke-width="0.159057"/>
<path d="M36.9726 61.5783H56.861C58.2279 61.5783 59.336 62.6864 59.336 64.0532V69.9829C59.336 71.3497 58.2279 72.4578 56.861 72.4578H36.9726C35.6057 72.4578 34.4976 71.3497 34.4976 69.9829V64.0532C34.4976 62.6864 35.6057 61.5783 36.9726 61.5783Z" fill="#0C0E0F" stroke="#0C0E0F" stroke-width="0.159057"/>
<path d="M41.1333 68.3813V69.3786H40.0947V68.3813H41.1333Z" fill="white" stroke="#0C0E0F" stroke-width="0.159057"/>
<path d="M42.789 65.5167H41.5817V64.7548H45.1717V65.5167H43.9517H43.8721V65.5962V69.3786H42.8685V65.5962V65.5167H42.789Z" fill="white" stroke="#0C0E0F" stroke-width="0.159057"/>
<path d="M46.7197 69.3786H45.5834L47.0365 67.0379L47.0638 66.994L47.0348 66.9512L45.5429 64.7548H46.7233L47.681 66.1611L47.7517 66.2649L47.8153 66.1566L48.6385 64.7548H49.7679L48.3362 67.0412L48.3087 67.0851L48.3378 67.128L49.8633 69.3786H48.6829L47.6981 67.9248L47.6271 67.82L47.5635 67.9293L46.7197 69.3786Z" fill="white" stroke="#0C0E0F" stroke-width="0.159057"/>
<path d="M51.4337 65.5167H50.2281V64.7548H53.8164V65.5167H52.598H52.5185V65.5962V69.3786H51.5132V65.5962V65.5167H51.4337Z" fill="white" stroke="#0C0E0F" stroke-width="0.159057"/>
<rect x="72.14" y="39.6648" width="237.526" height="27.57" rx="4.24153" fill="white"/>
<rect x="80.623" y="48.1479" width="10.6038" height="10.6038" rx="5.30191" fill="black" fill-opacity="0.05"/>
<rect x="95.4684" y="48.1479" width="38.1738" height="10.6038" rx="5.30191" fill="black" fill-opacity="0.05"/>
<rect x="135.763" y="48.1479" width="165.42" height="10.6038" rx="5.30191" fill="black" fill-opacity="0.05"/>
<g clip-path="url(#clip0_70_2022)">
<g clip-path="url(#clip1_70_2022)">
<path d="M339.199 36.9937L338.971 37.7682V60.2448L339.199 60.4722L349.632 54.3051L339.199 36.9937Z" fill="#343434"/>
<path d="M339.199 36.9937L328.765 54.3051L339.199 60.4723V49.5629V36.9937Z" fill="#8C8C8C"/>
<path d="M339.199 62.4477L339.07 62.6043V70.6109L339.199 70.986L349.638 56.2837L339.199 62.4477Z" fill="#3C3C3B"/>
<path d="M339.199 70.9858V62.4475L328.765 56.2834L339.199 70.9858Z" fill="#8C8C8C"/>
<path d="M339.199 60.4723L349.632 54.3052L339.199 49.563V60.4723Z" fill="#141414"/>
<path d="M328.766 54.3052L339.199 60.4723V49.563L328.766 54.3052Z" fill="#393939"/>
</g>
</g>
<path d="M341.743 51.8588V52.1239H342.008C342.763 52.1239 343.333 52.6945 343.333 53.4494V57.1607C343.333 57.9156 342.763 58.4862 342.008 58.4862H336.706C335.951 58.4862 335.38 57.9156 335.38 57.1607V53.4494C335.38 52.6945 335.951 52.1239 336.706 52.1239H336.971V51.8588V50.7984C336.971 49.4603 338.019 48.4126 339.357 48.4126C340.695 48.4126 341.743 49.4603 341.743 50.7984V51.8588ZM340.947 52.1239H341.212V51.8588V50.7984C341.212 49.7507 340.404 48.9427 339.357 48.9427C338.309 48.9427 337.501 49.7507 337.501 50.7984V51.8588V52.1239H337.766H340.947ZM340.152 56.1003V55.467C340.557 55.0331 340.48 54.3497 340.066 53.9959C339.622 53.5611 338.981 53.6624 338.586 54.0572C338.172 54.471 338.23 55.0602 338.561 55.4602V56.1003C338.561 56.3196 338.636 56.523 338.785 56.6722C338.934 56.8214 339.137 56.8956 339.357 56.8956C339.576 56.8956 339.779 56.8214 339.928 56.6722C340.078 56.523 340.152 56.3196 340.152 56.1003Z" fill="black" stroke="white" stroke-width="0.530191"/>
<rect x="17.2651" y="97.7216" width="359.47" height="50.3696" rx="3.97644" fill="white"/>
<rect x="17.2651" y="97.7216" width="359.47" height="50.3696" rx="3.97644" stroke="black" stroke-width="0.530191"/>
<path opacity="0.3" d="M49.8191 111.917H49.8193H53.4909V133.901C53.4909 134.966 53.0679 135.987 52.3149 136.74C51.5619 137.493 50.5407 137.916 49.4758 137.916H31.8841C30.8192 137.916 29.7979 137.493 29.045 136.74C28.292 135.987 27.869 134.966 27.869 133.901V108.099C27.869 107.034 28.292 106.013 29.045 105.26C29.7979 104.507 30.8192 104.084 31.8841 104.084H46.2729V108.373L46.2729 108.373C46.2742 109.313 46.6484 110.214 47.3131 110.878C47.9779 111.543 48.8792 111.917 49.8191 111.917Z" fill="#FCFCFC" stroke="#0C0E0F" stroke-width="0.530191"/>
<path d="M46.6174 108.373L46.6174 104.023L53.5744 111.573H49.8193C48.9706 111.572 48.1569 111.235 47.5566 110.635C46.9564 110.035 46.6186 109.221 46.6174 108.373Z" fill="#0C0E0F" stroke="#0C0E0F" stroke-width="0.159057"/>
<path d="M48.3765 117.057H31.9541C31.8175 117.057 31.6867 117.002 31.5901 116.906C31.4935 116.809 31.4391 116.678 31.4387 116.542C31.4387 116.405 31.4929 116.274 31.5896 116.177C31.6862 116.08 31.8173 116.025 31.9541 116.025H48.3765C48.5133 116.025 48.6444 116.08 48.7411 116.177C48.8377 116.274 48.8919 116.405 48.892 116.542C48.8916 116.678 48.8372 116.809 48.7406 116.906C48.644 117.002 48.5131 117.057 48.3765 117.057Z" fill="#0C0E0F" stroke="#0C0E0F" stroke-width="0.159057"/>
<path d="M48.3765 120.615H31.9541C31.8175 120.615 31.6867 120.56 31.5901 120.464C31.4935 120.367 31.4391 120.236 31.4387 120.1C31.4387 119.963 31.4929 119.832 31.5896 119.735C31.6862 119.638 31.8173 119.583 31.9541 119.583H48.3765C48.5133 119.583 48.6444 119.638 48.7411 119.735C48.8377 119.832 48.8919 119.963 48.892 120.1C48.8916 120.236 48.8372 120.367 48.7406 120.464C48.644 120.56 48.5131 120.615 48.3765 120.615Z" fill="#0C0E0F" stroke="#0C0E0F" stroke-width="0.159057"/>
<path d="M48.3765 124.173H31.9541C31.8173 124.173 31.6862 124.118 31.5896 124.021C31.4929 123.925 31.4387 123.793 31.4387 123.657C31.4391 123.52 31.4935 123.389 31.5901 123.292C31.6867 123.196 31.8175 123.141 31.9541 123.141H48.3765C48.5131 123.141 48.644 123.196 48.7406 123.292C48.8372 123.389 48.8916 123.52 48.892 123.657C48.8919 123.793 48.8377 123.925 48.7411 124.021C48.6444 124.118 48.5133 124.173 48.3765 124.173Z" fill="#0C0E0F" stroke="#0C0E0F" stroke-width="0.159057"/>
<path d="M48.3766 127.73H31.954C31.8173 127.73 31.6863 127.676 31.5896 127.579C31.493 127.482 31.4387 127.351 31.4387 127.215C31.4387 127.078 31.4929 126.946 31.5896 126.85C31.6862 126.753 31.8173 126.698 31.9541 126.698H48.3765C48.5133 126.698 48.6444 126.753 48.7411 126.85C48.8377 126.946 48.892 127.078 48.892 127.215C48.892 127.351 48.8377 127.482 48.741 127.579C48.6444 127.676 48.5133 127.73 48.3766 127.73Z" fill="#0C0E0F" stroke="#0C0E0F" stroke-width="0.159057"/>
<path d="M36.9726 131.035H56.861C58.2279 131.035 59.336 132.143 59.336 133.51V139.439C59.336 140.806 58.2279 141.914 56.861 141.914H36.9726C35.6057 141.914 34.4976 140.806 34.4976 139.439V133.51C34.4976 132.143 35.6057 131.035 36.9726 131.035Z" fill="#0C0E0F" stroke="#0C0E0F" stroke-width="0.159057"/>
<path d="M41.1333 137.838V138.835H40.0947V137.838H41.1333Z" fill="white" stroke="#0C0E0F" stroke-width="0.159057"/>
<path d="M42.789 134.973H41.5817V134.211H45.1717V134.973H43.9517H43.8721V135.053V138.835H42.8685V135.053V134.973H42.789Z" fill="white" stroke="#0C0E0F" stroke-width="0.159057"/>
<path d="M46.7197 138.835H45.5834L47.0365 136.494L47.0638 136.451L47.0348 136.408L45.5429 134.211H46.7233L47.681 135.618L47.7517 135.721L47.8153 135.613L48.6385 134.211H49.7679L48.3362 136.498L48.3087 136.542L48.3378 136.585L49.8633 138.835H48.6829L47.6981 137.381L47.6271 137.277L47.5635 137.386L46.7197 138.835Z" fill="white" stroke="#0C0E0F" stroke-width="0.159057"/>
<path d="M51.4337 134.973H50.2281V134.211H53.8164V134.973H52.598H52.5185V135.053V138.835H51.5132V135.053V134.973H51.4337Z" fill="white" stroke="#0C0E0F" stroke-width="0.159057"/>
<rect x="72.14" y="109.121" width="237.526" height="27.57" rx="4.24153" fill="white"/>
<rect x="80.623" y="117.604" width="10.6038" height="10.6038" rx="5.30191" fill="black"/>
<rect x="95.4684" y="117.604" width="38.1738" height="10.6038" rx="5.30191" fill="black" fill-opacity="0.05"/>
<rect x="135.763" y="117.604" width="165.42" height="10.6038" rx="5.30191" fill="black" fill-opacity="0.05"/>
<g clip-path="url(#clip2_70_2022)">
<g clip-path="url(#clip3_70_2022)">
<path d="M339.199 106.45L338.971 107.225V129.701L339.199 129.929L349.632 123.762L339.199 106.45Z" fill="#343434"/>
<path d="M339.199 106.45L328.765 123.762L339.199 129.929V119.019V106.45Z" fill="#8C8C8C"/>
<path d="M339.199 131.904L339.07 132.061V140.067L339.199 140.443L349.638 125.74L339.199 131.904Z" fill="#3C3C3B"/>
<path d="M339.199 140.442V131.904L328.765 125.74L339.199 140.442Z" fill="#8C8C8C"/>
<path d="M339.199 129.929L349.632 123.762L339.199 119.02V129.929Z" fill="#141414"/>
<path d="M328.766 123.762L339.199 129.929V119.02L328.766 123.762Z" fill="#393939"/>
</g>
</g>
<path d="M341.743 121.315V121.58H342.008C342.763 121.58 343.333 122.151 343.333 122.906V126.617C343.333 127.372 342.763 127.943 342.008 127.943H336.706C335.951 127.943 335.38 127.372 335.38 126.617V122.906C335.38 122.151 335.951 121.58 336.706 121.58H336.971V121.315V120.255C336.971 118.917 338.019 117.869 339.357 117.869C340.695 117.869 341.743 118.917 341.743 120.255V121.315ZM340.947 121.58H341.212V121.315V120.255C341.212 119.207 340.404 118.399 339.357 118.399C338.309 118.399 337.501 119.207 337.501 120.255V121.315V121.58H337.766H340.947ZM340.152 125.557V124.924C340.557 124.49 340.48 123.806 340.066 123.452C339.622 123.018 338.981 123.119 338.586 123.514C338.172 123.928 338.23 124.517 338.561 124.917V125.557C338.561 125.776 338.636 125.98 338.785 126.129C338.934 126.278 339.137 126.352 339.357 126.352C339.576 126.352 339.779 126.278 339.928 126.129C340.078 125.98 340.152 125.776 340.152 125.557Z" fill="black" stroke="white" stroke-width="0.530191"/>
<rect x="17.2651" y="167.178" width="359.47" height="50.3696" rx="3.97644" fill="white"/>
<rect x="17.2651" y="167.178" width="359.47" height="50.3696" rx="3.97644" stroke="black" stroke-width="0.530191"/>
<path opacity="0.3" d="M49.8191 181.374H49.8193H53.4909V203.358C53.4909 204.423 53.0679 205.444 52.3149 206.197C51.5619 206.95 50.5407 207.373 49.4758 207.373H31.8841C30.8192 207.373 29.7979 206.95 29.045 206.197C28.292 205.444 27.869 204.423 27.869 203.358V177.556C27.869 176.491 28.292 175.469 29.045 174.717C29.7979 173.964 30.8192 173.54 31.8841 173.54H46.2729V177.829L46.2729 177.83C46.2742 178.769 46.6484 179.671 47.3131 180.335C47.9779 180.999 48.8792 181.373 49.8191 181.374Z" fill="#FCFCFC" stroke="#0C0E0F" stroke-width="0.530191"/>
<path d="M46.6174 177.829L46.6174 173.479L53.5744 181.029H49.8193C48.9706 181.029 48.1569 180.691 47.5566 180.091C46.9564 179.491 46.6186 178.678 46.6174 177.829Z" fill="#0C0E0F" stroke="#0C0E0F" stroke-width="0.159057"/>
<path d="M48.3765 186.514H31.9541C31.8175 186.513 31.6867 186.459 31.5901 186.362C31.4935 186.266 31.4391 186.135 31.4387 185.998C31.4387 185.861 31.4929 185.73 31.5896 185.633C31.6862 185.536 31.8173 185.482 31.9541 185.481H48.3765C48.5133 185.482 48.6444 185.536 48.7411 185.633C48.8377 185.73 48.8919 185.861 48.892 185.998C48.8916 186.135 48.8372 186.266 48.7406 186.362C48.644 186.459 48.5131 186.513 48.3765 186.514Z" fill="#0C0E0F" stroke="#0C0E0F" stroke-width="0.159057"/>
<path d="M48.3765 190.072H31.9541C31.8175 190.071 31.6867 190.017 31.5901 189.92C31.4935 189.824 31.4391 189.693 31.4387 189.556C31.4387 189.419 31.4929 189.288 31.5896 189.191C31.6862 189.094 31.8173 189.04 31.9541 189.039H48.3765C48.5133 189.04 48.6444 189.094 48.7411 189.191C48.8377 189.288 48.8919 189.419 48.892 189.556C48.8916 189.693 48.8372 189.824 48.7406 189.92C48.644 190.017 48.5131 190.071 48.3765 190.072Z" fill="#0C0E0F" stroke="#0C0E0F" stroke-width="0.159057"/>
<path d="M48.3765 193.63H31.9541C31.8173 193.629 31.6862 193.575 31.5896 193.478C31.4929 193.381 31.4387 193.25 31.4387 193.113C31.4391 192.976 31.4935 192.846 31.5901 192.749C31.6867 192.652 31.8175 192.598 31.9541 192.598H48.3765C48.5131 192.598 48.644 192.652 48.7406 192.749C48.8372 192.846 48.8916 192.977 48.892 193.113C48.8919 193.25 48.8377 193.381 48.7411 193.478C48.6444 193.575 48.5133 193.629 48.3765 193.63Z" fill="#0C0E0F" stroke="#0C0E0F" stroke-width="0.159057"/>
<path d="M48.3766 197.187H31.954C31.8173 197.187 31.6863 197.132 31.5896 197.036C31.493 196.939 31.4387 196.808 31.4387 196.671C31.4387 196.534 31.4929 196.403 31.5896 196.306C31.6862 196.209 31.8173 196.155 31.9541 196.154H48.3765C48.5133 196.155 48.6444 196.209 48.7411 196.306C48.8377 196.403 48.892 196.534 48.892 196.671C48.892 196.808 48.8377 196.939 48.741 197.036C48.6444 197.132 48.5133 197.187 48.3766 197.187Z" fill="#0C0E0F" stroke="#0C0E0F" stroke-width="0.159057"/>
<path d="M36.9726 200.491H56.861C58.2279 200.491 59.336 201.599 59.336 202.966V208.896C59.336 210.263 58.2279 211.371 56.861 211.371H36.9726C35.6057 211.371 34.4976 210.263 34.4976 208.896V202.966C34.4976 201.599 35.6057 200.491 36.9726 200.491Z" fill="#0C0E0F" stroke="#0C0E0F" stroke-width="0.159057"/>
<path d="M41.1333 207.294V208.292H40.0947V207.294H41.1333Z" fill="white" stroke="#0C0E0F" stroke-width="0.159057"/>
<path d="M42.789 204.43H41.5817V203.668H45.1717V204.43H43.9517H43.8721V204.509V208.292H42.8685V204.509V204.43H42.789Z" fill="white" stroke="#0C0E0F" stroke-width="0.159057"/>
<path d="M46.7197 208.292H45.5834L47.0365 205.951L47.0638 205.907L47.0348 205.864L45.5429 203.668H46.7233L47.681 205.074L47.7517 205.178L47.8153 205.07L48.6385 203.668H49.7679L48.3362 205.954L48.3087 205.998L48.3378 206.041L49.8633 208.292H48.6829L47.6981 206.838L47.6271 206.733L47.5635 206.842L46.7197 208.292Z" fill="white" stroke="#0C0E0F" stroke-width="0.159057"/>
<path d="M51.4337 204.43H50.2281V203.668H53.8164V204.43H52.598H52.5185V204.509V208.292H51.5132V204.509V204.43H51.4337Z" fill="white" stroke="#0C0E0F" stroke-width="0.159057"/>
<rect x="72.14" y="178.578" width="237.526" height="27.57" rx="4.24153" fill="white"/>
<rect x="80.623" y="187.061" width="10.6038" height="10.6038" rx="5.30191" fill="black"/>
<rect x="95.4684" y="187.061" width="38.1738" height="10.6038" rx="5.30191" fill="black"/>
<rect x="135.763" y="187.061" width="165.42" height="10.6038" rx="5.30191" fill="black" fill-opacity="0.05"/>
<g clip-path="url(#clip4_70_2022)">
<g clip-path="url(#clip5_70_2022)">
<path d="M339.199 175.906L338.971 176.681V199.158L339.199 199.385L349.632 193.218L339.199 175.906Z" fill="#343434"/>
<path d="M339.199 175.906L328.765 193.218L339.199 199.385V188.476V175.906Z" fill="#8C8C8C"/>
<path d="M339.199 201.361L339.07 201.517V209.524L339.199 209.899L349.638 195.197L339.199 201.361Z" fill="#3C3C3B"/>
<path d="M339.199 209.899V201.36L328.765 195.196L339.199 209.899Z" fill="#8C8C8C"/>
<path d="M339.199 199.385L349.632 193.218L339.199 188.476V199.385Z" fill="#141414"/>
<path d="M328.766 193.218L339.199 199.385V188.476L328.766 193.218Z" fill="#393939"/>
</g>
</g>
<path d="M341.743 190.772V191.037H342.008C342.763 191.037 343.333 191.607 343.333 192.362V196.074C343.333 196.828 342.763 197.399 342.008 197.399H336.706C335.951 197.399 335.38 196.828 335.38 196.074V192.362C335.38 191.607 335.951 191.037 336.706 191.037H336.971V190.772V189.711C336.971 188.373 338.019 187.325 339.357 187.325C340.695 187.325 341.743 188.373 341.743 189.711V190.772ZM340.947 191.037H341.212V190.772V189.711C341.212 188.664 340.404 187.856 339.357 187.856C338.309 187.856 337.501 188.664 337.501 189.711V190.772V191.037H337.766H340.947ZM340.152 195.013V194.38C340.557 193.946 340.48 193.263 340.066 192.909C339.622 192.474 338.981 192.575 338.586 192.97C338.172 193.384 338.23 193.973 338.561 194.373V195.013C338.561 195.232 338.636 195.436 338.785 195.585C338.934 195.734 339.137 195.808 339.357 195.808C339.576 195.808 339.779 195.734 339.928 195.585C340.078 195.436 340.152 195.232 340.152 195.013Z" fill="black" stroke="white" stroke-width="0.530191"/>
<rect x="17.2651" y="236.634" width="359.47" height="50.3696" rx="3.97644" fill="white"/>
<rect x="17.2651" y="236.634" width="359.47" height="50.3696" rx="3.97644" stroke="black" stroke-width="0.530191"/>
<path opacity="0.3" d="M49.8191 250.83H49.8193H53.4909V272.814C53.4909 273.879 53.0679 274.9 52.3149 275.653C51.5619 276.406 50.5407 276.829 49.4758 276.829H31.8841C30.8192 276.829 29.7979 276.406 29.045 275.653C28.292 274.9 27.869 273.879 27.869 272.814V247.012C27.869 245.947 28.292 244.926 29.045 244.173C29.7979 243.42 30.8192 242.997 31.8841 242.997H46.2729V247.285L46.2729 247.286C46.2742 248.226 46.6484 249.127 47.3131 249.791C47.9779 250.456 48.8792 250.829 49.8191 250.83Z" fill="#FCFCFC" stroke="#0C0E0F" stroke-width="0.530191"/>
<path d="M46.6174 247.285L46.6174 242.935L53.5744 250.486H49.8193C48.9706 250.485 48.1569 250.148 47.5566 249.548C46.9564 248.948 46.6186 248.134 46.6174 247.285Z" fill="#0C0E0F" stroke="#0C0E0F" stroke-width="0.159057"/>
<path d="M48.3765 255.97H31.9541C31.8175 255.97 31.6867 255.915 31.5901 255.819C31.4935 255.722 31.4391 255.591 31.4387 255.455C31.4387 255.318 31.4929 255.186 31.5896 255.09C31.6862 254.993 31.8173 254.938 31.9541 254.938H48.3765C48.5133 254.938 48.6444 254.993 48.7411 255.09C48.8377 255.186 48.8919 255.318 48.892 255.454C48.8916 255.591 48.8372 255.722 48.7406 255.819C48.644 255.915 48.5131 255.97 48.3765 255.97Z" fill="#0C0E0F" stroke="#0C0E0F" stroke-width="0.159057"/>
<path d="M48.3765 259.528H31.9541C31.8175 259.528 31.6867 259.473 31.5901 259.377C31.4935 259.28 31.4391 259.149 31.4387 259.013C31.4387 258.876 31.4929 258.745 31.5896 258.648C31.6862 258.551 31.8173 258.496 31.9541 258.496H48.3765C48.5133 258.496 48.6444 258.551 48.7411 258.648C48.8377 258.745 48.8919 258.876 48.892 259.013C48.8916 259.149 48.8372 259.28 48.7406 259.377C48.644 259.473 48.5131 259.528 48.3765 259.528Z" fill="#0C0E0F" stroke="#0C0E0F" stroke-width="0.159057"/>
<path d="M48.3765 263.086H31.9541C31.8173 263.086 31.6862 263.031 31.5896 262.934C31.4929 262.837 31.4387 262.706 31.4387 262.569C31.4391 262.433 31.4935 262.302 31.5901 262.205C31.6867 262.109 31.8175 262.054 31.9541 262.054H48.3765C48.5131 262.054 48.644 262.109 48.7406 262.205C48.8372 262.302 48.8916 262.433 48.892 262.569C48.8919 262.706 48.8377 262.837 48.7411 262.934C48.6444 263.031 48.5133 263.086 48.3765 263.086Z" fill="#0C0E0F" stroke="#0C0E0F" stroke-width="0.159057"/>
<path d="M48.3766 266.643H31.954C31.8173 266.643 31.6863 266.589 31.5896 266.492C31.493 266.395 31.4387 266.264 31.4387 266.127C31.4387 265.991 31.4929 265.859 31.5896 265.762C31.6862 265.666 31.8173 265.611 31.9541 265.611H48.3765C48.5133 265.611 48.6444 265.666 48.7411 265.762C48.8377 265.859 48.892 265.991 48.892 266.127C48.892 266.264 48.8377 266.395 48.741 266.492C48.6444 266.589 48.5133 266.643 48.3766 266.643Z" fill="#0C0E0F" stroke="#0C0E0F" stroke-width="0.159057"/>
<path d="M36.9726 269.948H56.861C58.2279 269.948 59.336 271.056 59.336 272.423V278.352C59.336 279.719 58.2279 280.827 56.861 280.827H36.9726C35.6057 280.827 34.4976 279.719 34.4976 278.352V272.423C34.4976 271.056 35.6057 269.948 36.9726 269.948Z" fill="#0C0E0F" stroke="#0C0E0F" stroke-width="0.159057"/>
<path d="M41.1333 276.751V277.748H40.0947V276.751H41.1333Z" fill="white" stroke="#0C0E0F" stroke-width="0.159057"/>
<path d="M42.789 273.886H41.5817V273.124H45.1717V273.886H43.9517H43.8721V273.966V277.748H42.8685V273.966V273.886H42.789Z" fill="white" stroke="#0C0E0F" stroke-width="0.159057"/>
<path d="M46.7197 277.748H45.5834L47.0365 275.407L47.0638 275.363L47.0348 275.321L45.5429 273.124H46.7233L47.681 274.53L47.7517 274.634L47.8153 274.526L48.6385 273.124H49.7679L48.3362 275.411L48.3087 275.455L48.3378 275.497L49.8633 277.748H48.6829L47.6981 276.294L47.6271 276.189L47.5635 276.299L46.7197 277.748Z" fill="white" stroke="#0C0E0F" stroke-width="0.159057"/>
<path d="M51.4337 273.886H50.2281V273.124H53.8164V273.886H52.598H52.5185V273.966V277.748H51.5132V273.966V273.886H51.4337Z" fill="white" stroke="#0C0E0F" stroke-width="0.159057"/>
<rect x="72.14" y="248.034" width="237.526" height="27.57" rx="4.24153" fill="white"/>
<rect x="80.623" y="256.517" width="10.6038" height="10.6038" rx="5.30191" fill="black"/>
<rect x="95.4684" y="256.517" width="38.1738" height="10.6038" rx="5.30191" fill="black"/>
<rect x="135.763" y="256.517" width="165.42" height="10.6038" rx="5.30191" fill="black"/>
<g clip-path="url(#clip6_70_2022)">
<g clip-path="url(#clip7_70_2022)">
<path d="M339.199 245.906L338.971 246.681V269.158L339.199 269.385L349.632 263.218L339.199 245.906Z" fill="#343434"/>
<path d="M339.199 245.906L328.765 263.218L339.199 269.385V258.476V245.906Z" fill="#8C8C8C"/>
<path d="M339.199 271.361L339.07 271.517V279.524L339.199 279.899L349.638 265.197L339.199 271.361Z" fill="#3C3C3B"/>
<path d="M339.199 279.899V271.36L328.765 265.196L339.199 279.899Z" fill="#8C8C8C"/>
<path d="M339.199 269.385L349.632 263.218L339.199 258.476V269.385Z" fill="#141414"/>
<path d="M328.766 263.218L339.199 269.385V258.476L328.766 263.218Z" fill="#393939"/>
</g>
</g>
<path d="M341.743 260.772V261.037H342.008C342.763 261.037 343.333 261.607 343.333 262.362V266.074C343.333 266.828 342.763 267.399 342.008 267.399H336.706C335.951 267.399 335.38 266.828 335.38 266.074V262.362C335.38 261.607 335.951 261.037 336.706 261.037H336.971V260.772V259.711C336.971 258.373 338.019 257.325 339.357 257.325C340.695 257.325 341.743 258.373 341.743 259.711V260.772ZM340.947 261.037H341.212V260.772V259.711C341.212 258.664 340.404 257.856 339.357 257.856C338.309 257.856 337.501 258.664 337.501 259.711V260.772V261.037H337.766H340.947ZM340.152 265.013V264.38C340.557 263.946 340.48 263.263 340.066 262.909C339.622 262.474 338.981 262.575 338.586 262.97C338.172 263.384 338.23 263.973 338.561 264.373V265.013C338.561 265.232 338.636 265.436 338.785 265.585C338.934 265.734 339.137 265.808 339.357 265.808C339.576 265.808 339.779 265.734 339.928 265.585C340.078 265.436 340.152 265.232 340.152 265.013Z" fill="black" stroke="white" stroke-width="0.530191"/>
<path d="M341.743 260.228V260.493H342.008C342.763 260.493 343.333 261.064 343.333 261.819V265.53C343.333 266.285 342.763 266.855 342.008 266.855H336.706C335.951 266.855 335.38 266.285 335.38 265.53V261.819C335.38 261.064 335.951 260.493 336.706 260.493H336.971V260.228V259.168C336.971 257.829 338.019 256.782 339.357 256.782C340.695 256.782 341.743 257.829 341.743 259.168V260.228ZM340.947 260.493H341.212V260.228V259.168C341.212 258.12 340.404 257.312 339.357 257.312C338.309 257.312 337.501 258.12 337.501 259.168V260.228V260.493H337.766H340.947ZM340.152 264.469V263.836C340.557 263.402 340.48 262.719 340.066 262.365C339.622 261.93 338.981 262.032 338.586 262.426C338.172 262.84 338.23 263.429 338.561 263.829V264.469C338.561 264.689 338.636 264.892 338.785 265.041C338.934 265.191 339.137 265.265 339.357 265.265C339.576 265.265 339.779 265.191 339.928 265.041C340.078 264.892 340.152 264.689 340.152 264.469Z" fill="black" stroke="white" stroke-width="0.530191"/>
<defs>
<clipPath id="clip0_70_2022">
<rect width="34" height="34" fill="white" transform="translate(322.39 36.9937)"/>
</clipPath>
<clipPath id="clip1_70_2022">
<rect width="20.8729" height="34" fill="white" transform="translate(328.765 36.9937)"/>
</clipPath>
<clipPath id="clip2_70_2022">
<rect width="34" height="34" fill="white" transform="translate(322.39 106.45)"/>
</clipPath>
<clipPath id="clip3_70_2022">
<rect width="20.8729" height="34" fill="white" transform="translate(328.765 106.45)"/>
</clipPath>
<clipPath id="clip4_70_2022">
<rect width="34" height="34" fill="white" transform="translate(322.39 175.906)"/>
</clipPath>
<clipPath id="clip5_70_2022">
<rect width="20.8729" height="34" fill="white" transform="translate(328.765 175.906)"/>
</clipPath>
<clipPath id="clip6_70_2022">
<rect width="34" height="34" fill="white" transform="translate(322.39 245.906)"/>
</clipPath>
<clipPath id="clip7_70_2022">
<rect width="20.8729" height="34" fill="white" transform="translate(328.765 245.906)"/>
</clipPath>
</defs>
</svg>
