<svg width="411" height="512" viewBox="0 0 411 512" fill="none" xmlns="http://www.w3.org/2000/svg">
<rect width="411" height="420" rx="8" fill="#39D1F9"/>
<rect x="0.5" y="0.5" width="410" height="419" rx="7.5" stroke="black" stroke-opacity="0.5"/>
<g clip-path="url(#clip0_70_2713)">
<rect x="44" y="37" width="480" height="431" rx="20" fill="white"/>
<path d="M44 44C44 39.5817 47.5817 36 52 36H516C520.418 36 524 39.5817 524 44V80H44V44Z" fill="#0C0E0F"/>
<circle cx="70" cy="58" r="4" fill="#FF0606"/>
<circle cx="84" cy="58" r="4" fill="#30C1FF"/>
<circle cx="98" cy="58" r="4" fill="#A3DC2F"/>
<rect x="66" y="98.9998" width="72" height="72" rx="14" fill="#F7F7F7"/>
<path d="M112.666 141V131L104.333 126.313M99.6663 126.313L91.333 131V141M93.333 144.125L102 149L107.333 146L110.666 144.125" stroke="black" stroke-width="2.66667" stroke-linecap="round" stroke-linejoin="round"/>
<path d="M99.9998 133.5L97.9998 134.667V139.333L99.9998 140.5L102 141.667L104 140.5L106 139.333V134.667L104 133.5L102 132.333L99.9998 133.5Z" fill="black" stroke="black" stroke-width="2.66667" stroke-linecap="round" stroke-linejoin="round"/>
<path d="M102 132.333V127.667M106 139L110.666 141.667M97.9997 139L93.333 141.667" stroke="black" stroke-width="2.66667" stroke-linecap="round" stroke-linejoin="round"/>
<path d="M102 127.667C103.104 127.667 104 126.771 104 125.667C104 124.562 103.104 123.667 102 123.667C100.895 123.667 99.9998 124.562 99.9998 125.667C99.9998 126.771 100.895 127.667 102 127.667Z" fill="black" stroke="black" stroke-width="2.66667" stroke-linecap="round" stroke-linejoin="round"/>
<path d="M91.333 145C92.4376 145 93.333 144.105 93.333 143C93.333 141.895 92.4376 141 91.333 141C90.2284 141 89.333 141.895 89.333 143C89.333 144.105 90.2284 145 91.333 145Z" fill="black" stroke="black" stroke-width="2.66667" stroke-linecap="round" stroke-linejoin="round"/>
<path d="M112.667 145C113.771 145 114.667 144.105 114.667 143C114.667 141.895 113.771 141 112.667 141C111.562 141 110.667 141.895 110.667 143C110.667 144.105 111.562 145 112.667 145Z" fill="black" stroke="black" stroke-width="2.66667" stroke-linecap="round" stroke-linejoin="round"/>
<rect x="156" y="105" width="259" height="12" rx="6" fill="#F7F7F7"/>
<rect x="156" y="153" width="245" height="12" rx="6" fill="#F7F7F7"/>
<rect x="156" y="129" width="269" height="12" rx="6" fill="#F7F7F7"/>
<rect x="66" y="187" width="72" height="72" rx="14" fill="#F7F7F7"/>
<path d="M112.666 229V219L104.333 214.313M99.6663 214.313L91.333 219V229M93.333 232.125L102 237L107.333 234L110.666 232.125" stroke="black" stroke-width="2.66667" stroke-linecap="round" stroke-linejoin="round"/>
<path d="M99.9998 221.5L97.9998 222.667V227.333L99.9998 228.5L102 229.667L104 228.5L106 227.333V222.667L104 221.5L102 220.333L99.9998 221.5Z" fill="black" stroke="black" stroke-width="2.66667" stroke-linecap="round" stroke-linejoin="round"/>
<path d="M102 220.333V215.667M106 227L110.666 229.667M97.9997 227L93.333 229.667" stroke="black" stroke-width="2.66667" stroke-linecap="round" stroke-linejoin="round"/>
<path d="M102 215.667C103.104 215.667 104 214.771 104 213.667C104 212.562 103.104 211.667 102 211.667C100.895 211.667 99.9998 212.562 99.9998 213.667C99.9998 214.771 100.895 215.667 102 215.667Z" fill="black" stroke="black" stroke-width="2.66667" stroke-linecap="round" stroke-linejoin="round"/>
<path d="M91.333 233C92.4376 233 93.333 232.105 93.333 231C93.333 229.895 92.4376 229 91.333 229C90.2284 229 89.333 229.895 89.333 231C89.333 232.105 90.2284 233 91.333 233Z" fill="black" stroke="black" stroke-width="2.66667" stroke-linecap="round" stroke-linejoin="round"/>
<path d="M112.667 233C113.771 233 114.667 232.105 114.667 231C114.667 229.895 113.771 229 112.667 229C111.562 229 110.667 229.895 110.667 231C110.667 232.105 111.562 233 112.667 233Z" fill="black" stroke="black" stroke-width="2.66667" stroke-linecap="round" stroke-linejoin="round"/>
<rect x="156" y="193" width="259" height="12" rx="6" fill="#F7F7F7"/>
<rect x="156" y="241" width="245" height="12" rx="6" fill="#F7F7F7"/>
<rect x="156" y="217" width="269" height="12" rx="6" fill="#F7F7F7"/>
<rect x="66" y="275" width="72" height="72" rx="14" fill="#F7F7F7"/>
<path d="M112.666 317V307L104.333 302.313M99.6663 302.313L91.333 307V317M93.333 320.125L102 325L107.333 322L110.666 320.125" stroke="black" stroke-width="2.66667" stroke-linecap="round" stroke-linejoin="round"/>
<path d="M99.9998 309.5L97.9998 310.667V315.333L99.9998 316.5L102 317.667L104 316.5L106 315.333V310.667L104 309.5L102 308.333L99.9998 309.5Z" fill="black" stroke="black" stroke-width="2.66667" stroke-linecap="round" stroke-linejoin="round"/>
<path d="M102 308.333V303.667M106 315L110.666 317.667M97.9997 315L93.333 317.667" stroke="black" stroke-width="2.66667" stroke-linecap="round" stroke-linejoin="round"/>
<path d="M102 303.667C103.104 303.667 104 302.771 104 301.667C104 300.562 103.104 299.667 102 299.667C100.895 299.667 99.9998 300.562 99.9998 301.667C99.9998 302.771 100.895 303.667 102 303.667Z" fill="black" stroke="black" stroke-width="2.66667" stroke-linecap="round" stroke-linejoin="round"/>
<path d="M91.333 321C92.4376 321 93.333 320.105 93.333 319C93.333 317.895 92.4376 317 91.333 317C90.2284 317 89.333 317.895 89.333 319C89.333 320.105 90.2284 321 91.333 321Z" fill="black" stroke="black" stroke-width="2.66667" stroke-linecap="round" stroke-linejoin="round"/>
<path d="M112.667 321C113.771 321 114.667 320.105 114.667 319C114.667 317.895 113.771 317 112.667 317C111.562 317 110.667 317.895 110.667 319C110.667 320.105 111.562 321 112.667 321Z" fill="black" stroke="black" stroke-width="2.66667" stroke-linecap="round" stroke-linejoin="round"/>
<rect x="156" y="281" width="259" height="12" rx="6" fill="#F7F7F7"/>
<rect x="156" y="329" width="245" height="12" rx="6" fill="#F7F7F7"/>
<rect x="156" y="305" width="269" height="12" rx="6" fill="#F7F7F7"/>
<rect x="66" y="363" width="72" height="72" rx="14" fill="#F7F7F7"/>
<rect x="156" y="369" width="259" height="12" rx="6" fill="#F7F7F7"/>
</g>
<path d="M44.5 44C44.5 39.8579 47.8579 36.5 52 36.5H410.5V383.5H52C47.8579 383.5 44.5 380.142 44.5 376V44Z" stroke="black"/>
<path d="M1.39062 470V454H7.70313C8.91667 454 9.95052 454.232 10.8047 454.695C11.6589 455.154 12.3099 455.792 12.7578 456.609C13.2109 457.422 13.4375 458.359 13.4375 459.422C13.4375 460.484 13.2083 461.422 12.75 462.234C12.2917 463.047 11.6276 463.68 10.7578 464.133C9.89323 464.586 8.84635 464.812 7.61719 464.812H3.59375V462.102H7.07031C7.72135 462.102 8.25781 461.99 8.67969 461.766C9.10677 461.536 9.42448 461.221 9.63281 460.82C9.84635 460.414 9.95313 459.948 9.95313 459.422C9.95313 458.891 9.84635 458.427 9.63281 458.031C9.42448 457.63 9.10677 457.32 8.67969 457.102C8.2526 456.878 7.71094 456.766 7.05469 456.766H4.77344V470H1.39062ZM15.5723 470V458H18.7988V460.094H18.9238C19.1426 459.349 19.5098 458.786 20.0254 458.406C20.541 458.021 21.1348 457.828 21.8066 457.828C21.9733 457.828 22.153 457.839 22.3457 457.859C22.5384 457.88 22.7077 457.909 22.8535 457.945V460.898C22.6973 460.852 22.4811 460.81 22.2051 460.773C21.929 460.737 21.6764 460.719 21.4473 460.719C20.9577 460.719 20.5202 460.826 20.1348 461.039C19.7546 461.247 19.4525 461.539 19.2285 461.914C19.0098 462.289 18.9004 462.721 18.9004 463.211V470H15.5723ZM24.5742 470V458H27.9023V470H24.5742ZM26.2461 456.453C25.7513 456.453 25.3268 456.289 24.9727 455.961C24.6237 455.628 24.4492 455.229 24.4492 454.766C24.4492 454.307 24.6237 453.914 24.9727 453.586C25.3268 453.253 25.7513 453.086 26.2461 453.086C26.7409 453.086 27.1628 453.253 27.5117 453.586C27.8659 453.914 28.043 454.307 28.043 454.766C28.043 455.229 27.8659 455.628 27.5117 455.961C27.1628 456.289 26.7409 456.453 26.2461 456.453ZM41.7559 458L37.5605 470H33.8105L29.6152 458H33.1309L35.623 466.586H35.748L38.2324 458H41.7559ZM46.5586 470.227C45.793 470.227 45.1107 470.094 44.5117 469.828C43.9128 469.557 43.4388 469.159 43.0898 468.633C42.7461 468.102 42.5742 467.44 42.5742 466.648C42.5742 465.982 42.6966 465.422 42.9414 464.969C43.1862 464.516 43.5195 464.151 43.9414 463.875C44.3633 463.599 44.8424 463.391 45.3789 463.25C45.9206 463.109 46.4883 463.01 47.082 462.953C47.7799 462.88 48.3424 462.812 48.7695 462.75C49.1966 462.682 49.5065 462.583 49.6992 462.453C49.8919 462.323 49.9883 462.13 49.9883 461.875V461.828C49.9883 461.333 49.832 460.951 49.5195 460.68C49.2122 460.409 48.7747 460.273 48.207 460.273C47.6081 460.273 47.1315 460.406 46.7773 460.672C46.4232 460.932 46.1888 461.26 46.0742 461.656L42.9961 461.406C43.1523 460.677 43.4596 460.047 43.918 459.516C44.3763 458.979 44.9674 458.568 45.6914 458.281C46.4206 457.99 47.2643 457.844 48.2227 457.844C48.8893 457.844 49.5273 457.922 50.1367 458.078C50.7513 458.234 51.2956 458.477 51.7695 458.805C52.2487 459.133 52.6263 459.555 52.9023 460.07C53.1784 460.581 53.3164 461.193 53.3164 461.906V470H50.1602V468.336H50.0664C49.8737 468.711 49.6159 469.042 49.293 469.328C48.9701 469.609 48.582 469.831 48.1289 469.992C47.6758 470.148 47.1523 470.227 46.5586 470.227ZM47.5117 467.93C48.0013 467.93 48.4336 467.833 48.8086 467.641C49.1836 467.443 49.4779 467.177 49.6914 466.844C49.9049 466.51 50.0117 466.133 50.0117 465.711V464.438C49.9076 464.505 49.7643 464.568 49.582 464.625C49.4049 464.677 49.2044 464.727 48.9805 464.773C48.7565 464.815 48.5326 464.854 48.3086 464.891C48.0846 464.922 47.8815 464.951 47.6992 464.977C47.3086 465.034 46.9674 465.125 46.6758 465.25C46.3841 465.375 46.1576 465.544 45.9961 465.758C45.8346 465.966 45.7539 466.227 45.7539 466.539C45.7539 466.992 45.918 467.339 46.2461 467.578C46.5794 467.812 47.0013 467.93 47.5117 467.93ZM62.2812 458V460.5H55.0547V458H62.2812ZM56.6953 455.125H60.0234V466.312C60.0234 466.62 60.0703 466.859 60.1641 467.031C60.2578 467.198 60.388 467.315 60.5547 467.383C60.7266 467.451 60.9245 467.484 61.1484 467.484C61.3047 467.484 61.4609 467.471 61.6172 467.445C61.7734 467.414 61.8932 467.391 61.9766 467.375L62.5 469.852C62.3333 469.904 62.099 469.964 61.7969 470.031C61.4948 470.104 61.1276 470.148 60.6953 470.164C59.8932 470.195 59.1901 470.089 58.5859 469.844C57.987 469.599 57.5208 469.219 57.1875 468.703C56.8542 468.187 56.6901 467.536 56.6953 466.75V455.125ZM69.7891 470.234C68.5547 470.234 67.4922 469.984 66.6016 469.484C65.7161 468.979 65.0339 468.266 64.5547 467.344C64.0755 466.417 63.8359 465.32 63.8359 464.055C63.8359 462.82 64.0755 461.737 64.5547 460.805C65.0339 459.872 65.7083 459.146 66.5781 458.625C67.4531 458.104 68.4792 457.844 69.6563 457.844C70.4479 457.844 71.1849 457.971 71.8672 458.227C72.5547 458.477 73.1536 458.854 73.6641 459.359C74.1797 459.865 74.5807 460.5 74.8672 461.266C75.1536 462.026 75.2969 462.917 75.2969 463.937V464.852H65.1641V462.789H72.1641C72.1641 462.31 72.0599 461.885 71.8516 461.516C71.6432 461.146 71.3542 460.857 70.9844 460.648C70.6198 460.435 70.1953 460.328 69.7109 460.328C69.2057 460.328 68.7578 460.445 68.3672 460.68C67.9818 460.909 67.6797 461.219 67.4609 461.609C67.2422 461.995 67.1302 462.424 67.125 462.898V464.859C67.125 465.453 67.2344 465.966 67.4531 466.398C67.6771 466.831 67.9922 467.164 68.3984 467.398C68.8047 467.633 69.2865 467.75 69.8437 467.75C70.2135 467.75 70.5521 467.698 70.8594 467.594C71.1667 467.49 71.4297 467.333 71.6484 467.125C71.8672 466.917 72.0339 466.661 72.1484 466.359L75.2266 466.562C75.0703 467.302 74.75 467.948 74.2656 468.5C73.7865 469.047 73.1667 469.474 72.4063 469.781C71.651 470.083 70.7786 470.234 69.7891 470.234ZM97.3262 462C97.3262 463.745 96.9954 465.229 96.334 466.453C95.6777 467.677 94.7819 468.612 93.6465 469.258C92.5163 469.898 91.2454 470.219 89.834 470.219C88.4121 470.219 87.1361 469.896 86.0059 469.25C84.8757 468.604 83.9824 467.669 83.3262 466.445C82.6699 465.221 82.3418 463.74 82.3418 462C82.3418 460.255 82.6699 458.771 83.3262 457.547C83.9824 456.323 84.8757 455.391 86.0059 454.75C87.1361 454.104 88.4121 453.781 89.834 453.781C91.2454 453.781 92.5163 454.104 93.6465 454.75C94.7819 455.391 95.6777 456.323 96.334 457.547C96.9954 458.771 97.3262 460.255 97.3262 462ZM93.8965 462C93.8965 460.87 93.7272 459.917 93.3887 459.141C93.0553 458.365 92.584 457.776 91.9746 457.375C91.3652 456.974 90.6517 456.773 89.834 456.773C89.0163 456.773 88.3027 456.974 87.6934 457.375C87.084 457.776 86.61 458.365 86.2715 459.141C85.9382 459.917 85.7715 460.87 85.7715 462C85.7715 463.13 85.9382 464.083 86.2715 464.859C86.61 465.635 87.084 466.224 87.6934 466.625C88.3027 467.026 89.0163 467.227 89.834 467.227C90.6517 467.227 91.3652 467.026 91.9746 466.625C92.584 466.224 93.0553 465.635 93.3887 464.859C93.7272 464.083 93.8965 463.13 93.8965 462ZM103.098 463.063V470H99.7695V458H102.941V460.117H103.082C103.348 459.419 103.793 458.867 104.418 458.461C105.043 458.049 105.801 457.844 106.691 457.844C107.525 457.844 108.251 458.026 108.871 458.391C109.491 458.755 109.973 459.276 110.316 459.953C110.66 460.625 110.832 461.427 110.832 462.359V470H107.504V462.953C107.509 462.219 107.322 461.646 106.941 461.234C106.561 460.818 106.038 460.609 105.371 460.609C104.923 460.609 104.527 460.706 104.184 460.898C103.845 461.091 103.579 461.372 103.387 461.742C103.199 462.107 103.103 462.547 103.098 463.063ZM120.932 462.109V464.75H113.635V462.109H120.932ZM137.947 459.602H134.525C134.463 459.159 134.335 458.766 134.143 458.422C133.95 458.073 133.702 457.776 133.4 457.531C133.098 457.286 132.749 457.099 132.354 456.969C131.963 456.839 131.538 456.773 131.08 456.773C130.252 456.773 129.531 456.979 128.916 457.391C128.301 457.797 127.825 458.391 127.486 459.172C127.148 459.948 126.979 460.891 126.979 462C126.979 463.141 127.148 464.099 127.486 464.875C127.83 465.651 128.309 466.237 128.924 466.633C129.538 467.029 130.249 467.227 131.057 467.227C131.51 467.227 131.929 467.167 132.314 467.047C132.705 466.927 133.051 466.753 133.354 466.523C133.656 466.289 133.906 466.005 134.104 465.672C134.307 465.339 134.447 464.958 134.525 464.531L137.947 464.547C137.859 465.281 137.637 465.99 137.283 466.672C136.934 467.349 136.463 467.956 135.869 468.492C135.281 469.023 134.577 469.445 133.76 469.758C132.947 470.065 132.028 470.219 131.002 470.219C129.575 470.219 128.299 469.896 127.174 469.25C126.054 468.604 125.169 467.669 124.518 466.445C123.872 465.221 123.549 463.74 123.549 462C123.549 460.255 123.877 458.771 124.533 457.547C125.189 456.323 126.08 455.391 127.205 454.75C128.33 454.104 129.596 453.781 131.002 453.781C131.929 453.781 132.788 453.911 133.58 454.172C134.377 454.432 135.083 454.812 135.697 455.312C136.312 455.807 136.812 456.414 137.197 457.133C137.588 457.852 137.838 458.674 137.947 459.602ZM143.639 463.063V470H140.311V454H143.545V460.117H143.686C143.956 459.409 144.394 458.854 144.998 458.453C145.602 458.047 146.36 457.844 147.271 457.844C148.105 457.844 148.831 458.026 149.451 458.391C150.076 458.75 150.561 459.268 150.904 459.945C151.253 460.617 151.425 461.422 151.42 462.359V470H148.092V462.953C148.097 462.214 147.91 461.638 147.529 461.227C147.154 460.815 146.628 460.609 145.951 460.609C145.498 460.609 145.097 460.706 144.748 460.898C144.404 461.091 144.133 461.372 143.936 461.742C143.743 462.107 143.644 462.547 143.639 463.063ZM157.461 470.227C156.695 470.227 156.013 470.094 155.414 469.828C154.815 469.557 154.341 469.159 153.992 468.633C153.648 468.102 153.477 467.44 153.477 466.648C153.477 465.982 153.599 465.422 153.844 464.969C154.089 464.516 154.422 464.151 154.844 463.875C155.266 463.599 155.745 463.391 156.281 463.25C156.823 463.109 157.391 463.01 157.984 462.953C158.682 462.88 159.245 462.812 159.672 462.75C160.099 462.682 160.409 462.583 160.602 462.453C160.794 462.323 160.891 462.13 160.891 461.875V461.828C160.891 461.333 160.734 460.951 160.422 460.68C160.115 460.409 159.677 460.273 159.109 460.273C158.51 460.273 158.034 460.406 157.68 460.672C157.326 460.932 157.091 461.26 156.977 461.656L153.898 461.406C154.055 460.677 154.362 460.047 154.82 459.516C155.279 458.979 155.87 458.568 156.594 458.281C157.323 457.99 158.167 457.844 159.125 457.844C159.792 457.844 160.43 457.922 161.039 458.078C161.654 458.234 162.198 458.477 162.672 458.805C163.151 459.133 163.529 459.555 163.805 460.07C164.081 460.581 164.219 461.193 164.219 461.906V470H161.063V468.336H160.969C160.776 468.711 160.518 469.042 160.195 469.328C159.872 469.609 159.484 469.831 159.031 469.992C158.578 470.148 158.055 470.227 157.461 470.227ZM158.414 467.93C158.904 467.93 159.336 467.833 159.711 467.641C160.086 467.443 160.38 467.177 160.594 466.844C160.807 466.51 160.914 466.133 160.914 465.711V464.438C160.81 464.505 160.667 464.568 160.484 464.625C160.307 464.677 160.107 464.727 159.883 464.773C159.659 464.815 159.435 464.854 159.211 464.891C158.987 464.922 158.784 464.951 158.602 464.977C158.211 465.034 157.87 465.125 157.578 465.25C157.286 465.375 157.06 465.544 156.898 465.758C156.737 465.966 156.656 466.227 156.656 466.539C156.656 466.992 156.82 467.339 157.148 467.578C157.482 467.812 157.904 467.93 158.414 467.93ZM166.801 470V458H170.129V470H166.801ZM168.473 456.453C167.978 456.453 167.553 456.289 167.199 455.961C166.85 455.628 166.676 455.229 166.676 454.766C166.676 454.307 166.85 453.914 167.199 453.586C167.553 453.253 167.978 453.086 168.473 453.086C168.967 453.086 169.389 453.253 169.738 453.586C170.092 453.914 170.27 454.307 170.27 454.766C170.27 455.229 170.092 455.628 169.738 455.961C169.389 456.289 168.967 456.453 168.473 456.453ZM176.123 463.063V470H172.795V458H175.967V460.117H176.107C176.373 459.419 176.818 458.867 177.443 458.461C178.068 458.049 178.826 457.844 179.717 457.844C180.55 457.844 181.277 458.026 181.896 458.391C182.516 458.755 182.998 459.276 183.342 459.953C183.686 460.625 183.857 461.427 183.857 462.359V470H180.529V462.953C180.535 462.219 180.347 461.646 179.967 461.234C179.587 460.818 179.063 460.609 178.396 460.609C177.949 460.609 177.553 460.706 177.209 460.898C176.87 461.091 176.605 461.372 176.412 461.742C176.225 462.107 176.128 462.547 176.123 463.063ZM205.752 459.602H202.33C202.268 459.159 202.14 458.766 201.947 458.422C201.755 458.073 201.507 457.776 201.205 457.531C200.903 457.286 200.554 457.099 200.158 456.969C199.768 456.839 199.343 456.773 198.885 456.773C198.057 456.773 197.335 456.979 196.721 457.391C196.106 457.797 195.63 458.391 195.291 459.172C194.952 459.948 194.783 460.891 194.783 462C194.783 463.141 194.952 464.099 195.291 464.875C195.635 465.651 196.114 466.237 196.729 466.633C197.343 467.029 198.054 467.227 198.861 467.227C199.314 467.227 199.734 467.167 200.119 467.047C200.51 466.927 200.856 466.753 201.158 466.523C201.46 466.289 201.71 466.005 201.908 465.672C202.111 465.339 202.252 464.958 202.33 464.531L205.752 464.547C205.663 465.281 205.442 465.99 205.088 466.672C204.739 467.349 204.268 467.956 203.674 468.492C203.085 469.023 202.382 469.445 201.564 469.758C200.752 470.065 199.833 470.219 198.807 470.219C197.38 470.219 196.104 469.896 194.979 469.25C193.859 468.604 192.973 467.669 192.322 466.445C191.676 465.221 191.354 463.74 191.354 462C191.354 460.255 191.682 458.771 192.338 457.547C192.994 456.323 193.885 455.391 195.01 454.75C196.135 454.104 197.4 453.781 198.807 453.781C199.734 453.781 200.593 453.911 201.385 454.172C202.182 454.432 202.887 454.812 203.502 455.312C204.117 455.807 204.617 456.414 205.002 457.133C205.393 457.852 205.643 458.674 205.752 459.602ZM213.537 470.234C212.324 470.234 211.274 469.977 210.389 469.461C209.508 468.94 208.829 468.216 208.35 467.289C207.87 466.357 207.631 465.276 207.631 464.047C207.631 462.807 207.87 461.724 208.35 460.797C208.829 459.865 209.508 459.141 210.389 458.625C211.274 458.104 212.324 457.844 213.537 457.844C214.751 457.844 215.798 458.104 216.678 458.625C217.563 459.141 218.245 459.865 218.725 460.797C219.204 461.724 219.443 462.807 219.443 464.047C219.443 465.276 219.204 466.357 218.725 467.289C218.245 468.216 217.563 468.94 216.678 469.461C215.798 469.977 214.751 470.234 213.537 470.234ZM213.553 467.656C214.105 467.656 214.566 467.5 214.936 467.188C215.305 466.87 215.584 466.437 215.771 465.891C215.964 465.344 216.061 464.721 216.061 464.023C216.061 463.326 215.964 462.703 215.771 462.156C215.584 461.609 215.305 461.177 214.936 460.859C214.566 460.542 214.105 460.383 213.553 460.383C212.995 460.383 212.527 460.542 212.146 460.859C211.771 461.177 211.488 461.609 211.295 462.156C211.107 462.703 211.014 463.326 211.014 464.023C211.014 464.721 211.107 465.344 211.295 465.891C211.488 466.437 211.771 466.87 212.146 467.188C212.527 467.5 212.995 467.656 213.553 467.656ZM221.607 470V458H224.779V460.117H224.92C225.17 459.414 225.587 458.859 226.17 458.453C226.753 458.047 227.451 457.844 228.264 457.844C229.087 457.844 229.787 458.049 230.365 458.461C230.943 458.867 231.329 459.419 231.521 460.117H231.646C231.891 459.43 232.334 458.88 232.975 458.469C233.62 458.052 234.383 457.844 235.264 457.844C236.383 457.844 237.292 458.201 237.99 458.914C238.693 459.622 239.045 460.628 239.045 461.93V470H235.725V462.586C235.725 461.919 235.548 461.419 235.193 461.086C234.839 460.753 234.396 460.586 233.865 460.586C233.261 460.586 232.79 460.779 232.451 461.164C232.113 461.544 231.943 462.047 231.943 462.672V470H228.717V462.516C228.717 461.927 228.548 461.458 228.209 461.109C227.876 460.76 227.436 460.586 226.889 460.586C226.519 460.586 226.186 460.68 225.889 460.867C225.597 461.049 225.365 461.307 225.193 461.641C225.021 461.969 224.936 462.354 224.936 462.797V470H221.607ZM241.674 470V458H244.846V460.117H244.986C245.236 459.414 245.653 458.859 246.236 458.453C246.82 458.047 247.518 457.844 248.33 457.844C249.153 457.844 249.854 458.049 250.432 458.461C251.01 458.867 251.395 459.419 251.588 460.117H251.713C251.958 459.43 252.4 458.88 253.041 458.469C253.687 458.052 254.45 457.844 255.33 457.844C256.45 457.844 257.359 458.201 258.057 458.914C258.76 459.622 259.111 460.628 259.111 461.93V470H255.791V462.586C255.791 461.919 255.614 461.419 255.26 461.086C254.906 460.753 254.463 460.586 253.932 460.586C253.327 460.586 252.856 460.779 252.518 461.164C252.179 461.544 252.01 462.047 252.01 462.672V470H248.783V462.516C248.783 461.927 248.614 461.458 248.275 461.109C247.942 460.76 247.502 460.586 246.955 460.586C246.585 460.586 246.252 460.68 245.955 460.867C245.663 461.049 245.432 461.307 245.26 461.641C245.088 461.969 245.002 462.354 245.002 462.797V470H241.674ZM269.436 464.891V458H272.764V470H269.568V467.82H269.443C269.173 468.523 268.722 469.089 268.092 469.516C267.467 469.943 266.704 470.156 265.803 470.156C265.001 470.156 264.295 469.974 263.686 469.609C263.076 469.245 262.6 468.727 262.256 468.055C261.917 467.383 261.745 466.578 261.74 465.641V458H265.068V465.047C265.074 465.755 265.264 466.315 265.639 466.727C266.014 467.138 266.516 467.344 267.146 467.344C267.548 467.344 267.923 467.253 268.271 467.07C268.62 466.883 268.902 466.607 269.115 466.242C269.334 465.878 269.441 465.427 269.436 464.891ZM278.754 463.063V470H275.426V458H278.598V460.117H278.738C279.004 459.419 279.449 458.867 280.074 458.461C280.699 458.049 281.457 457.844 282.348 457.844C283.181 457.844 283.908 458.026 284.527 458.391C285.147 458.755 285.629 459.276 285.973 459.953C286.316 460.625 286.488 461.427 286.488 462.359V470H283.16V462.953C283.165 462.219 282.978 461.646 282.598 461.234C282.217 460.818 281.694 460.609 281.027 460.609C280.579 460.609 280.184 460.706 279.84 460.898C279.501 461.091 279.236 461.372 279.043 461.742C278.855 462.107 278.759 462.547 278.754 463.063ZM289.111 470V458H292.439V470H289.111ZM290.783 456.453C290.288 456.453 289.864 456.289 289.51 455.961C289.161 455.628 288.986 455.229 288.986 454.766C288.986 454.307 289.161 453.914 289.51 453.586C289.864 453.253 290.288 453.086 290.783 453.086C291.278 453.086 291.7 453.253 292.049 453.586C292.403 453.914 292.58 454.307 292.58 454.766C292.58 455.229 292.403 455.628 292.049 455.961C291.7 456.289 291.278 456.453 290.783 456.453ZM300.527 470.234C299.298 470.234 298.241 469.974 297.355 469.453C296.475 468.927 295.798 468.198 295.324 467.266C294.855 466.333 294.621 465.26 294.621 464.047C294.621 462.818 294.858 461.74 295.332 460.812C295.811 459.88 296.491 459.154 297.371 458.633C298.251 458.107 299.298 457.844 300.512 457.844C301.559 457.844 302.475 458.034 303.262 458.414C304.048 458.794 304.671 459.328 305.129 460.016C305.587 460.703 305.84 461.51 305.887 462.438H302.746C302.658 461.839 302.423 461.357 302.043 460.992C301.668 460.622 301.176 460.437 300.566 460.437C300.051 460.437 299.6 460.578 299.215 460.859C298.835 461.135 298.538 461.539 298.324 462.07C298.111 462.602 298.004 463.245 298.004 464C298.004 464.766 298.108 465.417 298.316 465.953C298.53 466.49 298.829 466.898 299.215 467.18C299.6 467.461 300.051 467.602 300.566 467.602C300.947 467.602 301.288 467.523 301.59 467.367C301.897 467.211 302.15 466.984 302.348 466.687C302.551 466.385 302.684 466.023 302.746 465.602H305.887C305.835 466.518 305.585 467.326 305.137 468.023C304.694 468.716 304.082 469.258 303.301 469.648C302.52 470.039 301.595 470.234 300.527 470.234ZM311.439 470.227C310.674 470.227 309.992 470.094 309.393 469.828C308.794 469.557 308.32 469.159 307.971 468.633C307.627 468.102 307.455 467.44 307.455 466.648C307.455 465.982 307.577 465.422 307.822 464.969C308.067 464.516 308.4 464.151 308.822 463.875C309.244 463.599 309.723 463.391 310.26 463.25C310.801 463.109 311.369 463.01 311.963 462.953C312.661 462.88 313.223 462.812 313.65 462.75C314.077 462.682 314.387 462.583 314.58 462.453C314.773 462.323 314.869 462.13 314.869 461.875V461.828C314.869 461.333 314.713 460.951 314.4 460.68C314.093 460.409 313.656 460.273 313.088 460.273C312.489 460.273 312.012 460.406 311.658 460.672C311.304 460.932 311.07 461.26 310.955 461.656L307.877 461.406C308.033 460.677 308.34 460.047 308.799 459.516C309.257 458.979 309.848 458.568 310.572 458.281C311.301 457.99 312.145 457.844 313.104 457.844C313.77 457.844 314.408 457.922 315.018 458.078C315.632 458.234 316.176 458.477 316.65 458.805C317.13 459.133 317.507 459.555 317.783 460.07C318.059 460.581 318.197 461.193 318.197 461.906V470H315.041V468.336H314.947C314.755 468.711 314.497 469.042 314.174 469.328C313.851 469.609 313.463 469.831 313.01 469.992C312.557 470.148 312.033 470.227 311.439 470.227ZM312.393 467.93C312.882 467.93 313.314 467.833 313.689 467.641C314.064 467.443 314.359 467.177 314.572 466.844C314.786 466.51 314.893 466.133 314.893 465.711V464.438C314.788 464.505 314.645 464.568 314.463 464.625C314.286 464.677 314.085 464.727 313.861 464.773C313.637 464.815 313.413 464.854 313.189 464.891C312.965 464.922 312.762 464.951 312.58 464.977C312.189 465.034 311.848 465.125 311.557 465.25C311.265 465.375 311.038 465.544 310.877 465.758C310.715 465.966 310.635 466.227 310.635 466.539C310.635 466.992 310.799 467.339 311.127 467.578C311.46 467.812 311.882 467.93 312.393 467.93ZM327.162 458V460.5H319.936V458H327.162ZM321.576 455.125H324.904V466.312C324.904 466.62 324.951 466.859 325.045 467.031C325.139 467.198 325.269 467.315 325.436 467.383C325.607 467.451 325.805 467.484 326.029 467.484C326.186 467.484 326.342 467.471 326.498 467.445C326.654 467.414 326.774 467.391 326.857 467.375L327.381 469.852C327.214 469.904 326.98 469.964 326.678 470.031C326.376 470.104 326.008 470.148 325.576 470.164C324.774 470.195 324.071 470.089 323.467 469.844C322.868 469.599 322.402 469.219 322.068 468.703C321.735 468.187 321.571 467.536 321.576 466.75V455.125ZM329.33 470V458H332.658V470H329.33ZM331.002 456.453C330.507 456.453 330.083 456.289 329.729 455.961C329.38 455.628 329.205 455.229 329.205 454.766C329.205 454.307 329.38 453.914 329.729 453.586C330.083 453.253 330.507 453.086 331.002 453.086C331.497 453.086 331.919 453.253 332.268 453.586C332.622 453.914 332.799 454.307 332.799 454.766C332.799 455.229 332.622 455.628 332.268 455.961C331.919 456.289 331.497 456.453 331.002 456.453ZM340.746 470.234C339.533 470.234 338.483 469.977 337.598 469.461C336.717 468.94 336.038 468.216 335.559 467.289C335.079 466.357 334.84 465.276 334.84 464.047C334.84 462.807 335.079 461.724 335.559 460.797C336.038 459.865 336.717 459.141 337.598 458.625C338.483 458.104 339.533 457.844 340.746 457.844C341.96 457.844 343.007 458.104 343.887 458.625C344.772 459.141 345.454 459.865 345.934 460.797C346.413 461.724 346.652 462.807 346.652 464.047C346.652 465.276 346.413 466.357 345.934 467.289C345.454 468.216 344.772 468.94 343.887 469.461C343.007 469.977 341.96 470.234 340.746 470.234ZM340.762 467.656C341.314 467.656 341.775 467.5 342.145 467.188C342.514 466.87 342.793 466.437 342.98 465.891C343.173 465.344 343.27 464.721 343.27 464.023C343.27 463.326 343.173 462.703 342.98 462.156C342.793 461.609 342.514 461.177 342.145 460.859C341.775 460.542 341.314 460.383 340.762 460.383C340.204 460.383 339.736 460.542 339.355 460.859C338.98 461.177 338.697 461.609 338.504 462.156C338.316 462.703 338.223 463.326 338.223 464.023C338.223 464.721 338.316 465.344 338.504 465.891C338.697 466.437 338.98 466.87 339.355 467.188C339.736 467.5 340.204 467.656 340.762 467.656ZM352.145 463.063V470H348.816V458H351.988V460.117H352.129C352.395 459.419 352.84 458.867 353.465 458.461C354.09 458.049 354.848 457.844 355.738 457.844C356.572 457.844 357.298 458.026 357.918 458.391C358.538 458.755 359.02 459.276 359.363 459.953C359.707 460.625 359.879 461.427 359.879 462.359V470H356.551V462.953C356.556 462.219 356.368 461.646 355.988 461.234C355.608 460.818 355.085 460.609 354.418 460.609C353.97 460.609 353.574 460.706 353.23 460.898C352.892 461.091 352.626 461.372 352.434 461.742C352.246 462.107 352.15 462.547 352.145 463.063Z" fill="#0C0E0F"/>
<path d="M10.6364 495.364V507H9.27273L2.93182 497.864H2.81818V507H1.40909V495.364H2.77273L9.13636 504.523H9.25V495.364H10.6364ZM16.8196 507.182C16.0317 507.182 15.3404 506.994 14.7457 506.619C14.1548 506.244 13.6927 505.72 13.3594 505.045C13.0298 504.371 12.8651 503.583 12.8651 502.682C12.8651 501.773 13.0298 500.979 13.3594 500.301C13.6927 499.623 14.1548 499.097 14.7457 498.722C15.3404 498.347 16.0317 498.159 16.8196 498.159C17.6075 498.159 18.2969 498.347 18.8878 498.722C19.4825 499.097 19.9446 499.623 20.2741 500.301C20.6075 500.979 20.7741 501.773 20.7741 502.682C20.7741 503.583 20.6075 504.371 20.2741 505.045C19.9446 505.72 19.4825 506.244 18.8878 506.619C18.2969 506.994 17.6075 507.182 16.8196 507.182ZM16.8196 505.977C17.4181 505.977 17.9105 505.824 18.2969 505.517C18.6832 505.21 18.9692 504.807 19.1548 504.307C19.3404 503.807 19.4332 503.265 19.4332 502.682C19.4332 502.098 19.3404 501.555 19.1548 501.051C18.9692 500.547 18.6832 500.14 18.2969 499.83C17.9105 499.519 17.4181 499.364 16.8196 499.364C16.2211 499.364 15.7287 499.519 15.3423 499.83C14.956 500.14 14.67 500.547 14.4844 501.051C14.2988 501.555 14.206 502.098 14.206 502.682C14.206 503.265 14.2988 503.807 14.4844 504.307C14.67 504.807 14.956 505.21 15.3423 505.517C15.7287 505.824 16.2211 505.977 16.8196 505.977ZM28.6619 501.75V507H27.321V498.273H28.6165V499.636H28.7301C28.9347 499.193 29.2453 498.837 29.6619 498.568C30.0786 498.295 30.6165 498.159 31.2756 498.159C31.8665 498.159 32.3835 498.28 32.8267 498.523C33.2699 498.761 33.6146 499.125 33.8608 499.614C34.107 500.098 34.2301 500.712 34.2301 501.455V507H32.8892V501.545C32.8892 500.86 32.7112 500.326 32.3551 499.943C31.9991 499.557 31.5104 499.364 30.8892 499.364C30.4612 499.364 30.0786 499.456 29.7415 499.642C29.4081 499.828 29.1449 500.098 28.9517 500.455C28.7585 500.811 28.6619 501.242 28.6619 501.75ZM40.3395 507.182C39.4986 507.182 38.7732 506.996 38.1634 506.625C37.5573 506.25 37.0895 505.727 36.7599 505.057C36.4342 504.383 36.2713 503.598 36.2713 502.705C36.2713 501.811 36.4342 501.023 36.7599 500.341C37.0895 499.655 37.5478 499.121 38.1349 498.739C38.7259 498.352 39.4152 498.159 40.2031 498.159C40.6577 498.159 41.1065 498.235 41.5497 498.386C41.9929 498.538 42.3963 498.784 42.7599 499.125C43.1236 499.462 43.4134 499.909 43.6293 500.466C43.8452 501.023 43.9531 501.708 43.9531 502.523V503.091H37.2259V501.932H42.5895C42.5895 501.439 42.491 501 42.294 500.614C42.1009 500.227 41.8243 499.922 41.4645 499.699C41.1084 499.475 40.688 499.364 40.2031 499.364C39.669 499.364 39.2069 499.496 38.8168 499.761C38.4304 500.023 38.133 500.364 37.9247 500.784C37.7164 501.205 37.6122 501.655 37.6122 502.136V502.909C37.6122 503.568 37.7259 504.127 37.9531 504.585C38.1842 505.04 38.5043 505.386 38.9134 505.625C39.3224 505.86 39.7978 505.977 40.3395 505.977C40.6918 505.977 41.0099 505.928 41.294 505.83C41.5819 505.727 41.83 505.576 42.0384 505.375C42.2467 505.17 42.4077 504.917 42.5213 504.614L43.8168 504.977C43.6804 505.417 43.4512 505.803 43.1293 506.136C42.8073 506.466 42.4096 506.723 41.9361 506.909C41.4626 507.091 40.9304 507.182 40.3395 507.182ZM49.652 507.182C48.8111 507.182 48.0857 506.996 47.4759 506.625C46.8698 506.25 46.402 505.727 46.0724 505.057C45.7467 504.383 45.5838 503.598 45.5838 502.705C45.5838 501.811 45.7467 501.023 46.0724 500.341C46.402 499.655 46.8603 499.121 47.4474 498.739C48.0384 498.352 48.7277 498.159 49.5156 498.159C49.9702 498.159 50.419 498.235 50.8622 498.386C51.3054 498.538 51.7088 498.784 52.0724 499.125C52.4361 499.462 52.7259 499.909 52.9418 500.466C53.1577 501.023 53.2656 501.708 53.2656 502.523V503.091H46.5384V501.932H51.902C51.902 501.439 51.8035 501 51.6065 500.614C51.4134 500.227 51.1368 499.922 50.777 499.699C50.4209 499.475 50.0005 499.364 49.5156 499.364C48.9815 499.364 48.5194 499.496 48.1293 499.761C47.7429 500.023 47.4455 500.364 47.2372 500.784C47.0289 501.205 46.9247 501.655 46.9247 502.136V502.909C46.9247 503.568 47.0384 504.127 47.2656 504.585C47.4967 505.04 47.8168 505.386 48.2259 505.625C48.6349 505.86 49.1103 505.977 49.652 505.977C50.0043 505.977 50.3224 505.928 50.6065 505.83C50.8944 505.727 51.1425 505.576 51.3509 505.375C51.5592 505.17 51.7202 504.917 51.8338 504.614L53.1293 504.977C52.9929 505.417 52.7637 505.803 52.4418 506.136C52.1198 506.466 51.7221 506.723 51.2486 506.909C50.7751 507.091 50.2429 507.182 49.652 507.182ZM58.6009 507.182C57.8736 507.182 57.2315 506.998 56.6747 506.631C56.1179 506.259 55.6823 505.737 55.3679 505.062C55.0535 504.384 54.8963 503.583 54.8963 502.659C54.8963 501.742 55.0535 500.947 55.3679 500.273C55.6823 499.598 56.1198 499.078 56.6804 498.71C57.241 498.343 57.8887 498.159 58.6236 498.159C59.1918 498.159 59.6406 498.254 59.9702 498.443C60.3035 498.629 60.5573 498.841 60.7315 499.08C60.9096 499.314 61.0478 499.508 61.1463 499.659H61.2599V495.364H62.6009V507H61.3054V505.659H61.1463C61.0478 505.818 60.9077 506.019 60.7259 506.261C60.544 506.5 60.2846 506.714 59.9474 506.903C59.6103 507.089 59.1615 507.182 58.6009 507.182ZM58.7827 505.977C59.3205 505.977 59.7751 505.837 60.1463 505.557C60.5175 505.273 60.7997 504.881 60.9929 504.381C61.1861 503.877 61.2827 503.295 61.2827 502.636C61.2827 501.985 61.188 501.415 60.9986 500.926C60.8092 500.434 60.5289 500.051 60.1577 499.778C59.7865 499.502 59.3281 499.364 58.7827 499.364C58.2145 499.364 57.741 499.509 57.3622 499.801C56.9872 500.089 56.705 500.481 56.5156 500.977C56.33 501.47 56.2372 502.023 56.2372 502.636C56.2372 503.258 56.3319 503.822 56.5213 504.33C56.7145 504.833 56.9986 505.235 57.3736 505.534C57.7524 505.83 58.2221 505.977 58.7827 505.977ZM73.6293 498.273V499.409H68.9247V498.273H73.6293ZM70.3338 507V497.068C70.3338 496.568 70.4512 496.152 70.6861 495.818C70.9209 495.485 71.2259 495.235 71.6009 495.068C71.9759 494.902 72.3717 494.818 72.7884 494.818C73.1179 494.818 73.3868 494.845 73.5952 494.898C73.8035 494.951 73.9588 495 74.0611 495.045L73.6747 496.205C73.6065 496.182 73.5118 496.153 73.3906 496.119C73.2732 496.085 73.1179 496.068 72.9247 496.068C72.4815 496.068 72.1615 496.18 71.9645 496.403C71.7713 496.627 71.6747 496.955 71.6747 497.386V507H70.3338ZM78.6946 507.182C77.9067 507.182 77.2154 506.994 76.6207 506.619C76.0298 506.244 75.5677 505.72 75.2344 505.045C74.9048 504.371 74.7401 503.583 74.7401 502.682C74.7401 501.773 74.9048 500.979 75.2344 500.301C75.5677 499.623 76.0298 499.097 76.6207 498.722C77.2154 498.347 77.9067 498.159 78.6946 498.159C79.4825 498.159 80.1719 498.347 80.7628 498.722C81.3575 499.097 81.8196 499.623 82.1491 500.301C82.4825 500.979 82.6491 501.773 82.6491 502.682C82.6491 503.583 82.4825 504.371 82.1491 505.045C81.8196 505.72 81.3575 506.244 80.7628 506.619C80.1719 506.994 79.4825 507.182 78.6946 507.182ZM78.6946 505.977C79.2931 505.977 79.7855 505.824 80.1719 505.517C80.5582 505.21 80.8442 504.807 81.0298 504.307C81.2154 503.807 81.3082 503.265 81.3082 502.682C81.3082 502.098 81.2154 501.555 81.0298 501.051C80.8442 500.547 80.5582 500.14 80.1719 499.83C79.7855 499.519 79.2931 499.364 78.6946 499.364C78.0961 499.364 77.6037 499.519 77.2173 499.83C76.831 500.14 76.545 500.547 76.3594 501.051C76.1738 501.555 76.081 502.098 76.081 502.682C76.081 503.265 76.1738 503.807 76.3594 504.307C76.545 504.807 76.831 505.21 77.2173 505.517C77.6037 505.824 78.0961 505.977 78.6946 505.977ZM84.696 507V498.273H85.9915V499.591H86.0824C86.2415 499.159 86.5294 498.809 86.946 498.54C87.3627 498.271 87.8324 498.136 88.3551 498.136C88.4536 498.136 88.5767 498.138 88.7244 498.142C88.8722 498.146 88.9839 498.152 89.0597 498.159V499.523C89.0142 499.511 88.91 499.494 88.7472 499.472C88.5881 499.445 88.4195 499.432 88.2415 499.432C87.8172 499.432 87.4384 499.521 87.1051 499.699C86.7756 499.873 86.5142 500.116 86.321 500.426C86.1316 500.733 86.0369 501.083 86.0369 501.477V507H84.696ZM98.8082 507.182C97.9673 507.182 97.242 506.996 96.6321 506.625C96.026 506.25 95.5582 505.727 95.2287 505.057C94.9029 504.383 94.7401 503.598 94.7401 502.705C94.7401 501.811 94.9029 501.023 95.2287 500.341C95.5582 499.655 96.0166 499.121 96.6037 498.739C97.1946 498.352 97.884 498.159 98.6719 498.159C99.1264 498.159 99.5753 498.235 100.018 498.386C100.462 498.538 100.865 498.784 101.229 499.125C101.592 499.462 101.882 499.909 102.098 500.466C102.314 501.023 102.422 501.708 102.422 502.523V503.091H95.6946V501.932H101.058C101.058 501.439 100.96 501 100.763 500.614C100.57 500.227 100.293 499.922 99.9332 499.699C99.5772 499.475 99.1567 499.364 98.6719 499.364C98.1378 499.364 97.6757 499.496 97.2855 499.761C96.8991 500.023 96.6018 500.364 96.3935 500.784C96.1851 501.205 96.081 501.655 96.081 502.136V502.909C96.081 503.568 96.1946 504.127 96.4219 504.585C96.6529 505.04 96.973 505.386 97.3821 505.625C97.7912 505.86 98.2666 505.977 98.8082 505.977C99.1605 505.977 99.4787 505.928 99.7628 505.83C100.051 505.727 100.299 505.576 100.507 505.375C100.715 505.17 100.876 504.917 100.99 504.614L102.286 504.977C102.149 505.417 101.92 505.803 101.598 506.136C101.276 506.466 100.878 506.723 100.405 506.909C99.9313 507.091 99.3991 507.182 98.8082 507.182ZM104.462 507V498.273H105.757V499.636H105.871C106.053 499.17 106.346 498.809 106.751 498.551C107.157 498.29 107.643 498.159 108.212 498.159C108.787 498.159 109.267 498.29 109.649 498.551C110.036 498.809 110.337 499.17 110.553 499.636H110.643C110.867 499.186 111.202 498.828 111.649 498.562C112.096 498.294 112.632 498.159 113.257 498.159C114.037 498.159 114.676 498.403 115.172 498.892C115.668 499.377 115.916 500.133 115.916 501.159V507H114.575V501.159C114.575 500.515 114.399 500.055 114.047 499.778C113.695 499.502 113.28 499.364 112.803 499.364C112.189 499.364 111.714 499.549 111.376 499.92C111.039 500.288 110.871 500.754 110.871 501.318V507H109.507V501.023C109.507 500.527 109.346 500.127 109.024 499.824C108.702 499.517 108.287 499.364 107.78 499.364C107.431 499.364 107.106 499.456 106.803 499.642C106.503 499.828 106.261 500.085 106.075 500.415C105.893 500.741 105.803 501.117 105.803 501.545V507H104.462ZM120.936 507.205C120.383 507.205 119.881 507.1 119.43 506.892C118.98 506.68 118.622 506.375 118.357 505.977C118.091 505.576 117.959 505.091 117.959 504.523C117.959 504.023 118.057 503.617 118.254 503.307C118.451 502.992 118.714 502.746 119.044 502.568C119.374 502.39 119.737 502.258 120.135 502.17C120.536 502.08 120.94 502.008 121.345 501.955C121.875 501.886 122.305 501.835 122.635 501.801C122.968 501.763 123.211 501.701 123.362 501.614C123.518 501.527 123.595 501.375 123.595 501.159V501.114C123.595 500.553 123.442 500.117 123.135 499.807C122.832 499.496 122.372 499.341 121.754 499.341C121.114 499.341 120.612 499.481 120.249 499.761C119.885 500.042 119.629 500.341 119.482 500.659L118.209 500.205C118.436 499.674 118.739 499.261 119.118 498.966C119.5 498.667 119.917 498.458 120.368 498.341C120.822 498.22 121.269 498.159 121.709 498.159C121.989 498.159 122.311 498.193 122.675 498.261C123.042 498.326 123.396 498.46 123.737 498.665C124.082 498.869 124.368 499.178 124.595 499.591C124.822 500.004 124.936 500.557 124.936 501.25V507H123.595V505.818H123.527C123.436 506.008 123.285 506.21 123.072 506.426C122.86 506.642 122.578 506.826 122.226 506.977C121.874 507.129 121.444 507.205 120.936 507.205ZM121.141 506C121.671 506 122.118 505.896 122.482 505.688C122.849 505.479 123.125 505.21 123.311 504.881C123.5 504.551 123.595 504.205 123.595 503.841V502.614C123.538 502.682 123.413 502.744 123.22 502.801C123.031 502.854 122.811 502.902 122.561 502.943C122.315 502.981 122.074 503.015 121.839 503.045C121.608 503.072 121.421 503.095 121.277 503.114C120.929 503.159 120.603 503.233 120.3 503.335C120 503.434 119.758 503.583 119.572 503.784C119.391 503.981 119.3 504.25 119.3 504.591C119.3 505.057 119.472 505.409 119.817 505.648C120.165 505.883 120.607 506 121.141 506ZM127.384 507V498.273H128.724V507H127.384ZM128.065 496.818C127.804 496.818 127.579 496.729 127.389 496.551C127.204 496.373 127.111 496.159 127.111 495.909C127.111 495.659 127.204 495.445 127.389 495.267C127.579 495.089 127.804 495 128.065 495C128.327 495 128.55 495.089 128.736 495.267C128.925 495.445 129.02 495.659 129.02 495.909C129.02 496.159 128.925 496.373 128.736 496.551C128.55 496.729 128.327 496.818 128.065 496.818ZM132.521 495.364V507H131.18V495.364H132.521ZM143.023 507.182C142.235 507.182 141.544 506.994 140.949 506.619C140.358 506.244 139.896 505.72 139.562 505.045C139.233 504.371 139.068 503.583 139.068 502.682C139.068 501.773 139.233 500.979 139.562 500.301C139.896 499.623 140.358 499.097 140.949 498.722C141.544 498.347 142.235 498.159 143.023 498.159C143.811 498.159 144.5 498.347 145.091 498.722C145.686 499.097 146.148 499.623 146.477 500.301C146.811 500.979 146.977 501.773 146.977 502.682C146.977 503.583 146.811 504.371 146.477 505.045C146.148 505.72 145.686 506.244 145.091 506.619C144.5 506.994 143.811 507.182 143.023 507.182ZM143.023 505.977C143.621 505.977 144.114 505.824 144.5 505.517C144.886 505.21 145.172 504.807 145.358 504.307C145.544 503.807 145.636 503.265 145.636 502.682C145.636 502.098 145.544 501.555 145.358 501.051C145.172 500.547 144.886 500.14 144.5 499.83C144.114 499.519 143.621 499.364 143.023 499.364C142.424 499.364 141.932 499.519 141.545 499.83C141.159 500.14 140.873 500.547 140.688 501.051C140.502 501.555 140.409 502.098 140.409 502.682C140.409 503.265 140.502 503.807 140.688 504.307C140.873 504.807 141.159 505.21 141.545 505.517C141.932 505.824 142.424 505.977 143.023 505.977ZM149.024 507V498.273H150.32V499.591H150.411C150.57 499.159 150.857 498.809 151.274 498.54C151.691 498.271 152.161 498.136 152.683 498.136C152.782 498.136 152.905 498.138 153.053 498.142C153.2 498.146 153.312 498.152 153.388 498.159V499.523C153.342 499.511 153.238 499.494 153.075 499.472C152.916 499.445 152.748 499.432 152.57 499.432C152.145 499.432 151.767 499.521 151.433 499.699C151.104 499.873 150.842 500.116 150.649 500.426C150.46 500.733 150.365 501.083 150.365 501.477V507H149.024ZM159.477 510.273V498.273H160.773V499.659H160.932C161.03 499.508 161.167 499.314 161.341 499.08C161.519 498.841 161.773 498.629 162.102 498.443C162.436 498.254 162.886 498.159 163.455 498.159C164.189 498.159 164.837 498.343 165.398 498.71C165.958 499.078 166.396 499.598 166.71 500.273C167.025 500.947 167.182 501.742 167.182 502.659C167.182 503.583 167.025 504.384 166.71 505.062C166.396 505.737 165.96 506.259 165.403 506.631C164.847 506.998 164.205 507.182 163.477 507.182C162.917 507.182 162.468 507.089 162.131 506.903C161.794 506.714 161.534 506.5 161.352 506.261C161.17 506.019 161.03 505.818 160.932 505.659H160.818V510.273H159.477ZM160.795 502.636C160.795 503.295 160.892 503.877 161.085 504.381C161.278 504.881 161.561 505.273 161.932 505.557C162.303 505.837 162.758 505.977 163.295 505.977C163.856 505.977 164.324 505.83 164.699 505.534C165.078 505.235 165.362 504.833 165.551 504.33C165.744 503.822 165.841 503.258 165.841 502.636C165.841 502.023 165.746 501.47 165.557 500.977C165.371 500.481 165.089 500.089 164.71 499.801C164.335 499.509 163.864 499.364 163.295 499.364C162.75 499.364 162.292 499.502 161.92 499.778C161.549 500.051 161.269 500.434 161.08 500.926C160.89 501.415 160.795 501.985 160.795 502.636ZM170.568 501.75V507H169.227V495.364H170.568V499.636H170.682C170.886 499.186 171.193 498.828 171.602 498.562C172.015 498.294 172.564 498.159 173.25 498.159C173.845 498.159 174.366 498.278 174.812 498.517C175.259 498.752 175.606 499.114 175.852 499.602C176.102 500.087 176.227 500.705 176.227 501.455V507H174.886V501.545C174.886 500.852 174.706 500.316 174.347 499.938C173.991 499.555 173.496 499.364 172.864 499.364C172.424 499.364 172.03 499.456 171.682 499.642C171.337 499.828 171.064 500.098 170.864 500.455C170.667 500.811 170.568 501.242 170.568 501.75ZM182.226 507.182C181.438 507.182 180.747 506.994 180.152 506.619C179.561 506.244 179.099 505.72 178.766 505.045C178.436 504.371 178.271 503.583 178.271 502.682C178.271 501.773 178.436 500.979 178.766 500.301C179.099 499.623 179.561 499.097 180.152 498.722C180.747 498.347 181.438 498.159 182.226 498.159C183.014 498.159 183.703 498.347 184.294 498.722C184.889 499.097 185.351 499.623 185.68 500.301C186.014 500.979 186.18 501.773 186.18 502.682C186.18 503.583 186.014 504.371 185.68 505.045C185.351 505.72 184.889 506.244 184.294 506.619C183.703 506.994 183.014 507.182 182.226 507.182ZM182.226 505.977C182.824 505.977 183.317 505.824 183.703 505.517C184.089 505.21 184.375 504.807 184.561 504.307C184.747 503.807 184.839 503.265 184.839 502.682C184.839 502.098 184.747 501.555 184.561 501.051C184.375 500.547 184.089 500.14 183.703 499.83C183.317 499.519 182.824 499.364 182.226 499.364C181.627 499.364 181.135 499.519 180.749 499.83C180.362 500.14 180.076 500.547 179.891 501.051C179.705 501.555 179.612 502.098 179.612 502.682C179.612 503.265 179.705 503.807 179.891 504.307C180.076 504.807 180.362 505.21 180.749 505.517C181.135 505.824 181.627 505.977 182.226 505.977ZM189.568 501.75V507H188.227V498.273H189.523V499.636H189.636C189.841 499.193 190.152 498.837 190.568 498.568C190.985 498.295 191.523 498.159 192.182 498.159C192.773 498.159 193.29 498.28 193.733 498.523C194.176 498.761 194.521 499.125 194.767 499.614C195.013 500.098 195.136 500.712 195.136 501.455V507H193.795V501.545C193.795 500.86 193.617 500.326 193.261 499.943C192.905 499.557 192.417 499.364 191.795 499.364C191.367 499.364 190.985 499.456 190.648 499.642C190.314 499.828 190.051 500.098 189.858 500.455C189.665 500.811 189.568 501.242 189.568 501.75ZM201.246 507.182C200.405 507.182 199.679 506.996 199.07 506.625C198.464 506.25 197.996 505.727 197.666 505.057C197.34 504.383 197.178 503.598 197.178 502.705C197.178 501.811 197.34 501.023 197.666 500.341C197.996 499.655 198.454 499.121 199.041 498.739C199.632 498.352 200.321 498.159 201.109 498.159C201.564 498.159 202.013 498.235 202.456 498.386C202.899 498.538 203.303 498.784 203.666 499.125C204.03 499.462 204.32 499.909 204.536 500.466C204.751 501.023 204.859 501.708 204.859 502.523V503.091H198.132V501.932H203.496C203.496 501.439 203.397 501 203.2 500.614C203.007 500.227 202.731 499.922 202.371 499.699C202.015 499.475 201.594 499.364 201.109 499.364C200.575 499.364 200.113 499.496 199.723 499.761C199.337 500.023 199.039 500.364 198.831 500.784C198.623 501.205 198.518 501.655 198.518 502.136V502.909C198.518 503.568 198.632 504.127 198.859 504.585C199.09 505.04 199.411 505.386 199.82 505.625C200.229 505.86 200.704 505.977 201.246 505.977C201.598 505.977 201.916 505.928 202.2 505.83C202.488 505.727 202.736 505.576 202.945 505.375C203.153 505.17 203.314 504.917 203.428 504.614L204.723 504.977C204.587 505.417 204.357 505.803 204.036 506.136C203.714 506.466 203.316 506.723 202.842 506.909C202.369 507.091 201.837 507.182 201.246 507.182ZM212.74 501.75V507H211.399V498.273H212.695V499.636H212.808C213.013 499.193 213.323 498.837 213.74 498.568C214.157 498.295 214.695 498.159 215.354 498.159C215.945 498.159 216.462 498.28 216.905 498.523C217.348 498.761 217.693 499.125 217.939 499.614C218.185 500.098 218.308 500.712 218.308 501.455V507H216.967V501.545C216.967 500.86 216.789 500.326 216.433 499.943C216.077 499.557 215.589 499.364 214.967 499.364C214.539 499.364 214.157 499.456 213.82 499.642C213.486 499.828 213.223 500.098 213.03 500.455C212.837 500.811 212.74 501.242 212.74 501.75ZM226.259 503.432V498.273H227.599V507H226.259V505.523H226.168C225.963 505.966 225.645 506.343 225.213 506.653C224.781 506.96 224.236 507.114 223.577 507.114C223.031 507.114 222.546 506.994 222.122 506.756C221.698 506.513 221.365 506.15 221.122 505.665C220.88 505.176 220.759 504.561 220.759 503.818V498.273H222.099V503.727C222.099 504.364 222.277 504.871 222.634 505.25C222.993 505.629 223.452 505.818 224.009 505.818C224.342 505.818 224.681 505.733 225.026 505.562C225.374 505.392 225.666 505.131 225.901 504.778C226.139 504.426 226.259 503.977 226.259 503.432ZM230.055 507V498.273H231.351V499.636H231.464C231.646 499.17 231.94 498.809 232.345 498.551C232.75 498.29 233.237 498.159 233.805 498.159C234.381 498.159 234.86 498.29 235.243 498.551C235.629 498.809 235.93 499.17 236.146 499.636H236.237C236.461 499.186 236.796 498.828 237.243 498.562C237.69 498.294 238.226 498.159 238.851 498.159C239.631 498.159 240.269 498.403 240.766 498.892C241.262 499.377 241.51 500.133 241.51 501.159V507H240.169V501.159C240.169 500.515 239.993 500.055 239.641 499.778C239.288 499.502 238.874 499.364 238.396 499.364C237.783 499.364 237.307 499.549 236.97 499.92C236.633 500.288 236.464 500.754 236.464 501.318V507H235.101V501.023C235.101 500.527 234.94 500.127 234.618 499.824C234.296 499.517 233.881 499.364 233.374 499.364C233.025 499.364 232.699 499.456 232.396 499.642C232.097 499.828 231.855 500.085 231.669 500.415C231.487 500.741 231.396 501.117 231.396 501.545V507H230.055ZM244.143 507V495.364H245.484V499.659H245.598C245.696 499.508 245.833 499.314 246.007 499.08C246.185 498.841 246.439 498.629 246.768 498.443C247.102 498.254 247.553 498.159 248.121 498.159C248.856 498.159 249.503 498.343 250.064 498.71C250.625 499.078 251.062 499.598 251.376 500.273C251.691 500.947 251.848 501.742 251.848 502.659C251.848 503.583 251.691 504.384 251.376 505.062C251.062 505.737 250.626 506.259 250.07 506.631C249.513 506.998 248.871 507.182 248.143 507.182C247.583 507.182 247.134 507.089 246.797 506.903C246.46 506.714 246.2 506.5 246.018 506.261C245.837 506.019 245.696 505.818 245.598 505.659H245.439V507H244.143ZM245.462 502.636C245.462 503.295 245.558 503.877 245.751 504.381C245.945 504.881 246.227 505.273 246.598 505.557C246.969 505.837 247.424 505.977 247.962 505.977C248.522 505.977 248.99 505.83 249.365 505.534C249.744 505.235 250.028 504.833 250.217 504.33C250.411 503.822 250.507 503.258 250.507 502.636C250.507 502.023 250.412 501.47 250.223 500.977C250.037 500.481 249.755 500.089 249.376 499.801C249.001 499.509 248.53 499.364 247.962 499.364C247.416 499.364 246.958 499.502 246.587 499.778C246.215 500.051 245.935 500.434 245.746 500.926C245.556 501.415 245.462 501.985 245.462 502.636ZM257.558 507.182C256.717 507.182 255.992 506.996 255.382 506.625C254.776 506.25 254.308 505.727 253.979 505.057C253.653 504.383 253.49 503.598 253.49 502.705C253.49 501.811 253.653 501.023 253.979 500.341C254.308 499.655 254.767 499.121 255.354 498.739C255.945 498.352 256.634 498.159 257.422 498.159C257.876 498.159 258.325 498.235 258.768 498.386C259.212 498.538 259.615 498.784 259.979 499.125C260.342 499.462 260.632 499.909 260.848 500.466C261.064 501.023 261.172 501.708 261.172 502.523V503.091H254.445V501.932H259.808C259.808 501.439 259.71 501 259.513 500.614C259.32 500.227 259.043 499.922 258.683 499.699C258.327 499.475 257.907 499.364 257.422 499.364C256.888 499.364 256.426 499.496 256.036 499.761C255.649 500.023 255.352 500.364 255.143 500.784C254.935 501.205 254.831 501.655 254.831 502.136V502.909C254.831 503.568 254.945 504.127 255.172 504.585C255.403 505.04 255.723 505.386 256.132 505.625C256.541 505.86 257.017 505.977 257.558 505.977C257.911 505.977 258.229 505.928 258.513 505.83C258.801 505.727 259.049 505.576 259.257 505.375C259.465 505.17 259.626 504.917 259.74 504.614L261.036 504.977C260.899 505.417 260.67 505.803 260.348 506.136C260.026 506.466 259.628 506.723 259.155 506.909C258.681 507.091 258.149 507.182 257.558 507.182ZM263.212 507V498.273H264.507V499.591H264.598C264.757 499.159 265.045 498.809 265.462 498.54C265.878 498.271 266.348 498.136 266.871 498.136C266.969 498.136 267.092 498.138 267.24 498.142C267.388 498.146 267.5 498.152 267.575 498.159V499.523C267.53 499.511 267.426 499.494 267.263 499.472C267.104 499.445 266.935 499.432 266.757 499.432C266.333 499.432 265.954 499.521 265.621 499.699C265.291 499.873 265.03 500.116 264.837 500.426C264.647 500.733 264.553 501.083 264.553 501.477V507H263.212ZM275.347 500.227L274.142 500.568C274.066 500.367 273.955 500.172 273.807 499.983C273.663 499.79 273.466 499.631 273.216 499.506C272.966 499.381 272.646 499.318 272.256 499.318C271.722 499.318 271.277 499.441 270.92 499.688C270.568 499.93 270.392 500.239 270.392 500.614C270.392 500.947 270.513 501.21 270.756 501.403C270.998 501.597 271.377 501.758 271.892 501.886L273.188 502.205C273.968 502.394 274.549 502.684 274.932 503.074C275.314 503.46 275.506 503.958 275.506 504.568C275.506 505.068 275.362 505.515 275.074 505.909C274.79 506.303 274.392 506.614 273.881 506.841C273.369 507.068 272.775 507.182 272.097 507.182C271.206 507.182 270.47 506.989 269.886 506.602C269.303 506.216 268.934 505.652 268.778 504.909L270.051 504.591C270.172 505.061 270.402 505.413 270.739 505.648C271.08 505.883 271.525 506 272.074 506C272.699 506 273.195 505.867 273.562 505.602C273.934 505.333 274.119 505.011 274.119 504.636C274.119 504.333 274.013 504.08 273.801 503.875C273.589 503.667 273.263 503.511 272.824 503.409L271.369 503.068C270.57 502.879 269.983 502.585 269.608 502.188C269.237 501.786 269.051 501.284 269.051 500.682C269.051 500.189 269.189 499.754 269.466 499.375C269.746 498.996 270.127 498.699 270.608 498.483C271.093 498.267 271.642 498.159 272.256 498.159C273.119 498.159 273.797 498.348 274.29 498.727C274.786 499.106 275.138 499.606 275.347 500.227ZM278.501 507.091C278.221 507.091 277.981 506.991 277.78 506.79C277.579 506.589 277.479 506.348 277.479 506.068C277.479 505.788 277.579 505.547 277.78 505.347C277.981 505.146 278.221 505.045 278.501 505.045C278.782 505.045 279.022 505.146 279.223 505.347C279.424 505.547 279.524 505.788 279.524 506.068C279.524 506.254 279.477 506.424 279.382 506.58C279.291 506.735 279.168 506.86 279.013 506.955C278.861 507.045 278.691 507.091 278.501 507.091Z" fill="#0C0E0F"/>
<defs>
<clipPath id="clip0_70_2713">
<path d="M44 44C44 39.5817 47.5817 36 52 36H411V384H52C47.5817 384 44 380.418 44 376V44Z" fill="white"/>
</clipPath>
</defs>
</svg>
