<svg width="411" height="512" viewBox="0 0 411 512" fill="none" xmlns="http://www.w3.org/2000/svg">
<rect width="411" height="420" rx="8" fill="#39D1F9"/>
<rect x="0.5" y="0.5" width="410" height="419" rx="7.5" stroke="black" stroke-opacity="0.5"/>
<g clip-path="url(#clip0_70_2713)">
<rect x="44" y="37" width="480" height="431" rx="20" fill="white"/>
<path d="M44 44C44 39.5817 47.5817 36 52 36H516C520.418 36 524 39.5817 524 44V80H44V44Z" fill="#0C0E0F"/>
<circle cx="70" cy="58" r="4" fill="#FF0606"/>
<circle cx="84" cy="58" r="4" fill="#30C1FF"/>
<circle cx="98" cy="58" r="4" fill="#A3DC2F"/>
<rect x="66" y="98.9998" width="72" height="72" rx="14" fill="#F7F7F7"/>
<path d="M112.666 141V131L104.333 126.313M99.6663 126.313L91.333 131V141M93.333 144.125L102 149L107.333 146L110.666 144.125" stroke="black" stroke-width="2.66667" stroke-linecap="round" stroke-linejoin="round"/>
<path d="M99.9998 133.5L97.9998 134.667V139.333L99.9998 140.5L102 141.667L104 140.5L106 139.333V134.667L104 133.5L102 132.333L99.9998 133.5Z" fill="black" stroke="black" stroke-width="2.66667" stroke-linecap="round" stroke-linejoin="round"/>
<path d="M102 132.333V127.667M106 139L110.666 141.667M97.9997 139L93.333 141.667" stroke="black" stroke-width="2.66667" stroke-linecap="round" stroke-linejoin="round"/>
<path d="M102 127.667C103.104 127.667 104 126.771 104 125.667C104 124.562 103.104 123.667 102 123.667C100.895 123.667 99.9998 124.562 99.9998 125.667C99.9998 126.771 100.895 127.667 102 127.667Z" fill="black" stroke="black" stroke-width="2.66667" stroke-linecap="round" stroke-linejoin="round"/>
<path d="M91.333 145C92.4376 145 93.333 144.105 93.333 143C93.333 141.895 92.4376 141 91.333 141C90.2284 141 89.333 141.895 89.333 143C89.333 144.105 90.2284 145 91.333 145Z" fill="black" stroke="black" stroke-width="2.66667" stroke-linecap="round" stroke-linejoin="round"/>
<path d="M112.667 145C113.771 145 114.667 144.105 114.667 143C114.667 141.895 113.771 141 112.667 141C111.562 141 110.667 141.895 110.667 143C110.667 144.105 111.562 145 112.667 145Z" fill="black" stroke="black" stroke-width="2.66667" stroke-linecap="round" stroke-linejoin="round"/>
<rect x="156" y="105" width="259" height="12" rx="6" fill="#F7F7F7"/>
<rect x="156" y="153" width="245" height="12" rx="6" fill="#F7F7F7"/>
<rect x="156" y="129" width="269" height="12" rx="6" fill="#F7F7F7"/>
<rect x="66" y="187" width="72" height="72" rx="14" fill="#F7F7F7"/>
<path d="M112.666 229V219L104.333 214.313M99.6663 214.313L91.333 219V229M93.333 232.125L102 237L107.333 234L110.666 232.125" stroke="black" stroke-width="2.66667" stroke-linecap="round" stroke-linejoin="round"/>
<path d="M99.9998 221.5L97.9998 222.667V227.333L99.9998 228.5L102 229.667L104 228.5L106 227.333V222.667L104 221.5L102 220.333L99.9998 221.5Z" fill="black" stroke="black" stroke-width="2.66667" stroke-linecap="round" stroke-linejoin="round"/>
<path d="M102 220.333V215.667M106 227L110.666 229.667M97.9997 227L93.333 229.667" stroke="black" stroke-width="2.66667" stroke-linecap="round" stroke-linejoin="round"/>
<path d="M102 215.667C103.104 215.667 104 214.771 104 213.667C104 212.562 103.104 211.667 102 211.667C100.895 211.667 99.9998 212.562 99.9998 213.667C99.9998 214.771 100.895 215.667 102 215.667Z" fill="black" stroke="black" stroke-width="2.66667" stroke-linecap="round" stroke-linejoin="round"/>
<path d="M91.333 233C92.4376 233 93.333 232.105 93.333 231C93.333 229.895 92.4376 229 91.333 229C90.2284 229 89.333 229.895 89.333 231C89.333 232.105 90.2284 233 91.333 233Z" fill="black" stroke="black" stroke-width="2.66667" stroke-linecap="round" stroke-linejoin="round"/>
<path d="M112.667 233C113.771 233 114.667 232.105 114.667 231C114.667 229.895 113.771 229 112.667 229C111.562 229 110.667 229.895 110.667 231C110.667 232.105 111.562 233 112.667 233Z" fill="black" stroke="black" stroke-width="2.66667" stroke-linecap="round" stroke-linejoin="round"/>
<rect x="156" y="193" width="259" height="12" rx="6" fill="#F7F7F7"/>
<rect x="156" y="241" width="245" height="12" rx="6" fill="#F7F7F7"/>
<rect x="156" y="217" width="269" height="12" rx="6" fill="#F7F7F7"/>
<rect x="66" y="275" width="72" height="72" rx="14" fill="#F7F7F7"/>
<path d="M112.666 317V307L104.333 302.313M99.6663 302.313L91.333 307V317M93.333 320.125L102 325L107.333 322L110.666 320.125" stroke="black" stroke-width="2.66667" stroke-linecap="round" stroke-linejoin="round"/>
<path d="M99.9998 309.5L97.9998 310.667V315.333L99.9998 316.5L102 317.667L104 316.5L106 315.333V310.667L104 309.5L102 308.333L99.9998 309.5Z" fill="black" stroke="black" stroke-width="2.66667" stroke-linecap="round" stroke-linejoin="round"/>
<path d="M102 308.333V303.667M106 315L110.666 317.667M97.9997 315L93.333 317.667" stroke="black" stroke-width="2.66667" stroke-linecap="round" stroke-linejoin="round"/>
<path d="M102 303.667C103.104 303.667 104 302.771 104 301.667C104 300.562 103.104 299.667 102 299.667C100.895 299.667 99.9998 300.562 99.9998 301.667C99.9998 302.771 100.895 303.667 102 303.667Z" fill="black" stroke="black" stroke-width="2.66667" stroke-linecap="round" stroke-linejoin="round"/>
<path d="M91.333 321C92.4376 321 93.333 320.105 93.333 319C93.333 317.895 92.4376 317 91.333 317C90.2284 317 89.333 317.895 89.333 319C89.333 320.105 90.2284 321 91.333 321Z" fill="black" stroke="black" stroke-width="2.66667" stroke-linecap="round" stroke-linejoin="round"/>
<path d="M112.667 321C113.771 321 114.667 320.105 114.667 319C114.667 317.895 113.771 317 112.667 317C111.562 317 110.667 317.895 110.667 319C110.667 320.105 111.562 321 112.667 321Z" fill="black" stroke="black" stroke-width="2.66667" stroke-linecap="round" stroke-linejoin="round"/>
<rect x="156" y="281" width="259" height="12" rx="6" fill="#F7F7F7"/>
<rect x="156" y="329" width="245" height="12" rx="6" fill="#F7F7F7"/>
<rect x="156" y="305" width="269" height="12" rx="6" fill="#F7F7F7"/>
<rect x="66" y="363" width="72" height="72" rx="14" fill="#F7F7F7"/>
<rect x="156" y="369" width="259" height="12" rx="6" fill="#F7F7F7"/>
</g>
<path d="M44.5 44C44.5 39.8579 47.8579 36.5 52 36.5H410.5V383.5H52C47.8579 383.5 44.5 380.142 44.5 376V44Z" stroke="black"/>
<path d="M16.0938 462C16.0938 463.745 15.763 465.229 15.1016 466.453C14.4453 467.677 13.5495 468.612 12.4141 469.258C11.2839 469.898 10.013 470.219 8.60156 470.219C7.17969 470.219 5.90365 469.896 4.77344 469.25C3.64323 468.604 2.75 467.669 2.09375 466.445C1.4375 465.221 1.10938 463.74 1.10938 462C1.10938 460.255 1.4375 458.771 2.09375 457.547C2.75 456.323 3.64323 455.391 4.77344 454.75C5.90365 454.104 7.17969 453.781 8.60156 453.781C10.013 453.781 11.2839 454.104 12.4141 454.75C13.5495 455.391 14.4453 456.323 15.1016 457.547C15.763 458.771 16.0938 460.255 16.0938 462ZM12.6641 462C12.6641 460.87 12.4948 459.917 12.1562 459.141C11.8229 458.365 11.3516 457.776 10.7422 457.375C10.1328 456.974 9.41927 456.773 8.60156 456.773C7.78385 456.773 7.07031 456.974 6.46094 457.375C5.85156 457.776 5.3776 458.365 5.03906 459.141C4.70573 459.917 4.53906 460.87 4.53906 462C4.53906 463.13 4.70573 464.083 5.03906 464.859C5.3776 465.635 5.85156 466.224 6.46094 466.625C7.07031 467.026 7.78385 467.227 8.60156 467.227C9.41927 467.227 10.1328 467.026 10.7422 466.625C11.3516 466.224 11.8229 465.635 12.1562 464.859C12.4948 464.083 12.6641 463.13 12.6641 462ZM21.8652 463.063V470H18.5371V458H21.709V460.117H21.8496C22.1152 459.419 22.5605 458.867 23.1855 458.461C23.8105 458.049 24.5684 457.844 25.459 457.844C26.2923 457.844 27.0189 458.026 27.6387 458.391C28.2585 458.755 28.7402 459.276 29.084 459.953C29.4277 460.625 29.5996 461.427 29.5996 462.359V470H26.2715V462.953C26.2767 462.219 26.0892 461.646 25.709 461.234C25.3288 460.818 24.8053 460.609 24.1387 460.609C23.6908 460.609 23.2949 460.706 22.9512 460.898C22.6126 461.091 22.347 461.372 22.1543 461.742C21.9668 462.107 21.8704 462.547 21.8652 463.063ZM39.6992 462.109V464.75H32.4023V462.109H39.6992ZM56.7148 459.602H53.293C53.2305 459.159 53.1029 458.766 52.9102 458.422C52.7174 458.073 52.4701 457.776 52.168 457.531C51.8659 457.286 51.5169 457.099 51.1211 456.969C50.7305 456.839 50.306 456.773 49.8477 456.773C49.0195 456.773 48.2982 456.979 47.6836 457.391C47.069 457.797 46.5924 458.391 46.2539 459.172C45.9154 459.948 45.7461 460.891 45.7461 462C45.7461 463.141 45.9154 464.099 46.2539 464.875C46.5977 465.651 47.0768 466.237 47.6914 466.633C48.306 467.029 49.0169 467.227 49.8242 467.227C50.2773 467.227 50.6966 467.167 51.082 467.047C51.4727 466.927 51.819 466.753 52.1211 466.523C52.4232 466.289 52.6732 466.005 52.8711 465.672C53.0742 465.339 53.2148 464.958 53.293 464.531L56.7148 464.547C56.6263 465.281 56.4049 465.99 56.0508 466.672C55.7018 467.349 55.2305 467.956 54.6367 468.492C54.0482 469.023 53.3451 469.445 52.5273 469.758C51.7148 470.065 50.7956 470.219 49.7695 470.219C48.3424 470.219 47.0664 469.896 45.9414 469.25C44.8216 468.604 43.9362 467.669 43.2852 466.445C42.6393 465.221 42.3164 463.74 42.3164 462C42.3164 460.255 42.6445 458.771 43.3008 457.547C43.957 456.323 44.8477 455.391 45.9727 454.75C47.0977 454.104 48.3633 453.781 49.7695 453.781C50.6966 453.781 51.556 453.911 52.3477 454.172C53.1445 454.432 53.8503 454.812 54.4648 455.312C55.0794 455.807 55.5794 456.414 55.9648 457.133C56.3555 457.852 56.6055 458.674 56.7148 459.602ZM62.4063 463.063V470H59.0781V454H62.3125V460.117H62.4531C62.724 459.409 63.1615 458.854 63.7656 458.453C64.3698 458.047 65.1276 457.844 66.0391 457.844C66.8724 457.844 67.599 458.026 68.2188 458.391C68.8438 458.75 69.3281 459.268 69.6719 459.945C70.0208 460.617 70.1927 461.422 70.1875 462.359V470H66.8594V462.953C66.8646 462.214 66.6771 461.638 66.2969 461.227C65.9219 460.815 65.3958 460.609 64.7188 460.609C64.2656 460.609 63.8646 460.706 63.5156 460.898C63.1719 461.091 62.901 461.372 62.7031 461.742C62.5104 462.107 62.4115 462.547 62.4063 463.063ZM76.2285 470.227C75.4629 470.227 74.7806 470.094 74.1816 469.828C73.5827 469.557 73.1087 469.159 72.7598 468.633C72.416 468.102 72.2441 467.44 72.2441 466.648C72.2441 465.982 72.3665 465.422 72.6113 464.969C72.8561 464.516 73.1895 464.151 73.6113 463.875C74.0332 463.599 74.5124 463.391 75.0488 463.25C75.5905 463.109 76.1582 463.01 76.752 462.953C77.4499 462.88 78.0124 462.812 78.4395 462.75C78.8665 462.682 79.1764 462.583 79.3691 462.453C79.5618 462.323 79.6582 462.13 79.6582 461.875V461.828C79.6582 461.333 79.502 460.951 79.1895 460.68C78.8822 460.409 78.4447 460.273 77.877 460.273C77.278 460.273 76.8014 460.406 76.4473 460.672C76.0931 460.932 75.8587 461.26 75.7441 461.656L72.666 461.406C72.8223 460.677 73.1296 460.047 73.5879 459.516C74.0462 458.979 74.6374 458.568 75.3613 458.281C76.0905 457.99 76.9342 457.844 77.8926 457.844C78.5592 457.844 79.1973 457.922 79.8066 458.078C80.4212 458.234 80.9655 458.477 81.4395 458.805C81.9186 459.133 82.2962 459.555 82.5723 460.07C82.8483 460.581 82.9863 461.193 82.9863 461.906V470H79.8301V468.336H79.7363C79.5436 468.711 79.2858 469.042 78.9629 469.328C78.64 469.609 78.252 469.831 77.7988 469.992C77.3457 470.148 76.8223 470.227 76.2285 470.227ZM77.1816 467.93C77.6712 467.93 78.1035 467.833 78.4785 467.641C78.8535 467.443 79.1478 467.177 79.3613 466.844C79.5749 466.51 79.6816 466.133 79.6816 465.711V464.438C79.5775 464.505 79.4342 464.568 79.252 464.625C79.0749 464.677 78.8743 464.727 78.6504 464.773C78.4264 464.815 78.2025 464.854 77.9785 464.891C77.7546 464.922 77.5514 464.951 77.3691 464.977C76.9785 465.034 76.6374 465.125 76.3457 465.25C76.054 465.375 75.8275 465.544 75.666 465.758C75.5046 465.966 75.4238 466.227 75.4238 466.539C75.4238 466.992 75.5879 467.339 75.916 467.578C76.2493 467.812 76.6712 467.93 77.1816 467.93ZM85.5684 470V458H88.8965V470H85.5684ZM87.2402 456.453C86.7454 456.453 86.321 456.289 85.9668 455.961C85.6178 455.628 85.4434 455.229 85.4434 454.766C85.4434 454.307 85.6178 453.914 85.9668 453.586C86.321 453.253 86.7454 453.086 87.2402 453.086C87.735 453.086 88.1569 453.253 88.5059 453.586C88.86 453.914 89.0371 454.307 89.0371 454.766C89.0371 455.229 88.86 455.628 88.5059 455.961C88.1569 456.289 87.735 456.453 87.2402 456.453ZM94.8906 463.063V470H91.5625V458H94.7344V460.117H94.875C95.1406 459.419 95.5859 458.867 96.2109 458.461C96.8359 458.049 97.5937 457.844 98.4844 457.844C99.3177 457.844 100.044 458.026 100.664 458.391C101.284 458.755 101.766 459.276 102.109 459.953C102.453 460.625 102.625 461.427 102.625 462.359V470H99.2969V462.953C99.3021 462.219 99.1146 461.646 98.7344 461.234C98.3542 460.818 97.8307 460.609 97.1641 460.609C96.7161 460.609 96.3203 460.706 95.9766 460.898C95.638 461.091 95.3724 461.372 95.1797 461.742C94.9922 462.107 94.8958 462.547 94.8906 463.063ZM124.52 459.602H121.098C121.035 459.159 120.908 458.766 120.715 458.422C120.522 458.073 120.275 457.776 119.973 457.531C119.671 457.286 119.322 457.099 118.926 456.969C118.535 456.839 118.111 456.773 117.652 456.773C116.824 456.773 116.103 456.979 115.488 457.391C114.874 457.797 114.397 458.391 114.059 459.172C113.72 459.948 113.551 460.891 113.551 462C113.551 463.141 113.72 464.099 114.059 464.875C114.402 465.651 114.882 466.237 115.496 466.633C116.111 467.029 116.822 467.227 117.629 467.227C118.082 467.227 118.501 467.167 118.887 467.047C119.277 466.927 119.624 466.753 119.926 466.523C120.228 466.289 120.478 466.005 120.676 465.672C120.879 465.339 121.02 464.958 121.098 464.531L124.52 464.547C124.431 465.281 124.21 465.99 123.855 466.672C123.507 467.349 123.035 467.956 122.441 468.492C121.853 469.023 121.15 469.445 120.332 469.758C119.52 470.065 118.6 470.219 117.574 470.219C116.147 470.219 114.871 469.896 113.746 469.25C112.626 468.604 111.741 467.669 111.09 466.445C110.444 465.221 110.121 463.74 110.121 462C110.121 460.255 110.449 458.771 111.105 457.547C111.762 456.323 112.652 455.391 113.777 454.75C114.902 454.104 116.168 453.781 117.574 453.781C118.501 453.781 119.361 453.911 120.152 454.172C120.949 454.432 121.655 454.812 122.27 455.312C122.884 455.807 123.384 456.414 123.77 457.133C124.16 457.852 124.41 458.674 124.52 459.602ZM132.305 470.234C131.091 470.234 130.042 469.977 129.156 469.461C128.276 468.94 127.596 468.216 127.117 467.289C126.638 466.357 126.398 465.276 126.398 464.047C126.398 462.807 126.638 461.724 127.117 460.797C127.596 459.865 128.276 459.141 129.156 458.625C130.042 458.104 131.091 457.844 132.305 457.844C133.518 457.844 134.565 458.104 135.445 458.625C136.331 459.141 137.013 459.865 137.492 460.797C137.971 461.724 138.211 462.807 138.211 464.047C138.211 465.276 137.971 466.357 137.492 467.289C137.013 468.216 136.331 468.94 135.445 469.461C134.565 469.977 133.518 470.234 132.305 470.234ZM132.32 467.656C132.872 467.656 133.333 467.5 133.703 467.188C134.073 466.87 134.352 466.437 134.539 465.891C134.732 465.344 134.828 464.721 134.828 464.023C134.828 463.326 134.732 462.703 134.539 462.156C134.352 461.609 134.073 461.177 133.703 460.859C133.333 460.542 132.872 460.383 132.32 460.383C131.763 460.383 131.294 460.542 130.914 460.859C130.539 461.177 130.255 461.609 130.063 462.156C129.875 462.703 129.781 463.326 129.781 464.023C129.781 464.721 129.875 465.344 130.063 465.891C130.255 466.437 130.539 466.87 130.914 467.188C131.294 467.5 131.763 467.656 132.32 467.656ZM140.375 470V458H143.547V460.117H143.688C143.938 459.414 144.354 458.859 144.938 458.453C145.521 458.047 146.219 457.844 147.031 457.844C147.854 457.844 148.555 458.049 149.133 458.461C149.711 458.867 150.096 459.419 150.289 460.117H150.414C150.659 459.43 151.102 458.88 151.742 458.469C152.388 458.052 153.151 457.844 154.031 457.844C155.151 457.844 156.06 458.201 156.758 458.914C157.461 459.622 157.813 460.628 157.813 461.93V470H154.492V462.586C154.492 461.919 154.315 461.419 153.961 461.086C153.607 460.753 153.164 460.586 152.633 460.586C152.029 460.586 151.557 460.779 151.219 461.164C150.88 461.544 150.711 462.047 150.711 462.672V470H147.484V462.516C147.484 461.927 147.315 461.458 146.977 461.109C146.643 460.76 146.203 460.586 145.656 460.586C145.286 460.586 144.953 460.68 144.656 460.867C144.365 461.049 144.133 461.307 143.961 461.641C143.789 461.969 143.703 462.354 143.703 462.797V470H140.375ZM160.441 470V458H163.613V460.117H163.754C164.004 459.414 164.421 458.859 165.004 458.453C165.587 458.047 166.285 457.844 167.098 457.844C167.921 457.844 168.621 458.049 169.199 458.461C169.777 458.867 170.163 459.419 170.355 460.117H170.48C170.725 459.43 171.168 458.88 171.809 458.469C172.454 458.052 173.217 457.844 174.098 457.844C175.217 457.844 176.126 458.201 176.824 458.914C177.527 459.622 177.879 460.628 177.879 461.93V470H174.559V462.586C174.559 461.919 174.382 461.419 174.027 461.086C173.673 460.753 173.23 460.586 172.699 460.586C172.095 460.586 171.624 460.779 171.285 461.164C170.947 461.544 170.777 462.047 170.777 462.672V470H167.551V462.516C167.551 461.927 167.382 461.458 167.043 461.109C166.71 460.76 166.27 460.586 165.723 460.586C165.353 460.586 165.02 460.68 164.723 460.867C164.431 461.049 164.199 461.307 164.027 461.641C163.855 461.969 163.77 462.354 163.77 462.797V470H160.441ZM188.203 464.891V458H191.531V470H188.336V467.82H188.211C187.94 468.523 187.49 469.089 186.859 469.516C186.234 469.943 185.471 470.156 184.57 470.156C183.768 470.156 183.063 469.974 182.453 469.609C181.844 469.245 181.367 468.727 181.023 468.055C180.685 467.383 180.513 466.578 180.508 465.641V458H183.836V465.047C183.841 465.755 184.031 466.315 184.406 466.727C184.781 467.138 185.284 467.344 185.914 467.344C186.315 467.344 186.69 467.253 187.039 467.07C187.388 466.883 187.669 466.607 187.883 466.242C188.102 465.878 188.208 465.427 188.203 464.891ZM197.521 463.063V470H194.193V458H197.365V460.117H197.506C197.771 459.419 198.217 458.867 198.842 458.461C199.467 458.049 200.225 457.844 201.115 457.844C201.949 457.844 202.675 458.026 203.295 458.391C203.915 458.755 204.396 459.276 204.74 459.953C205.084 460.625 205.256 461.427 205.256 462.359V470H201.928V462.953C201.933 462.219 201.745 461.646 201.365 461.234C200.985 460.818 200.462 460.609 199.795 460.609C199.347 460.609 198.951 460.706 198.607 460.898C198.269 461.091 198.003 461.372 197.811 461.742C197.623 462.107 197.527 462.547 197.521 463.063ZM207.879 470V458H211.207V470H207.879ZM209.551 456.453C209.056 456.453 208.632 456.289 208.277 455.961C207.928 455.628 207.754 455.229 207.754 454.766C207.754 454.307 207.928 453.914 208.277 453.586C208.632 453.253 209.056 453.086 209.551 453.086C210.046 453.086 210.467 453.253 210.816 453.586C211.171 453.914 211.348 454.307 211.348 454.766C211.348 455.229 211.171 455.628 210.816 455.961C210.467 456.289 210.046 456.453 209.551 456.453ZM219.295 470.234C218.066 470.234 217.008 469.974 216.123 469.453C215.243 468.927 214.566 468.198 214.092 467.266C213.623 466.333 213.389 465.26 213.389 464.047C213.389 462.818 213.626 461.74 214.1 460.812C214.579 459.88 215.258 459.154 216.139 458.633C217.019 458.107 218.066 457.844 219.279 457.844C220.326 457.844 221.243 458.034 222.029 458.414C222.816 458.794 223.438 459.328 223.896 460.016C224.355 460.703 224.607 461.51 224.654 462.438H221.514C221.425 461.839 221.191 461.357 220.811 460.992C220.436 460.622 219.943 460.437 219.334 460.437C218.818 460.437 218.368 460.578 217.982 460.859C217.602 461.135 217.305 461.539 217.092 462.07C216.878 462.602 216.771 463.245 216.771 464C216.771 464.766 216.876 465.417 217.084 465.953C217.298 466.49 217.597 466.898 217.982 467.18C218.368 467.461 218.818 467.602 219.334 467.602C219.714 467.602 220.055 467.523 220.357 467.367C220.665 467.211 220.917 466.984 221.115 466.687C221.318 466.385 221.451 466.023 221.514 465.602H224.654C224.602 466.518 224.352 467.326 223.904 468.023C223.462 468.716 222.85 469.258 222.068 469.648C221.287 470.039 220.363 470.234 219.295 470.234ZM230.207 470.227C229.441 470.227 228.759 470.094 228.16 469.828C227.561 469.557 227.087 469.159 226.738 468.633C226.395 468.102 226.223 467.44 226.223 466.648C226.223 465.982 226.345 465.422 226.59 464.969C226.835 464.516 227.168 464.151 227.59 463.875C228.012 463.599 228.491 463.391 229.027 463.25C229.569 463.109 230.137 463.01 230.73 462.953C231.428 462.88 231.991 462.812 232.418 462.75C232.845 462.682 233.155 462.583 233.348 462.453C233.54 462.323 233.637 462.13 233.637 461.875V461.828C233.637 461.333 233.48 460.951 233.168 460.68C232.861 460.409 232.423 460.273 231.855 460.273C231.257 460.273 230.78 460.406 230.426 460.672C230.072 460.932 229.837 461.26 229.723 461.656L226.645 461.406C226.801 460.677 227.108 460.047 227.566 459.516C228.025 458.979 228.616 458.568 229.34 458.281C230.069 457.99 230.913 457.844 231.871 457.844C232.538 457.844 233.176 457.922 233.785 458.078C234.4 458.234 234.944 458.477 235.418 458.805C235.897 459.133 236.275 459.555 236.551 460.07C236.827 460.581 236.965 461.193 236.965 461.906V470H233.809V468.336H233.715C233.522 468.711 233.264 469.042 232.941 469.328C232.618 469.609 232.23 469.831 231.777 469.992C231.324 470.148 230.801 470.227 230.207 470.227ZM231.16 467.93C231.65 467.93 232.082 467.833 232.457 467.641C232.832 467.443 233.126 467.177 233.34 466.844C233.553 466.51 233.66 466.133 233.66 465.711V464.438C233.556 464.505 233.413 464.568 233.23 464.625C233.053 464.677 232.853 464.727 232.629 464.773C232.405 464.815 232.181 464.854 231.957 464.891C231.733 464.922 231.53 464.951 231.348 464.977C230.957 465.034 230.616 465.125 230.324 465.25C230.033 465.375 229.806 465.544 229.645 465.758C229.483 465.966 229.402 466.227 229.402 466.539C229.402 466.992 229.566 467.339 229.895 467.578C230.228 467.812 230.65 467.93 231.16 467.93ZM245.93 458V460.5H238.703V458H245.93ZM240.344 455.125H243.672V466.312C243.672 466.62 243.719 466.859 243.813 467.031C243.906 467.198 244.036 467.315 244.203 467.383C244.375 467.451 244.573 467.484 244.797 467.484C244.953 467.484 245.109 467.471 245.266 467.445C245.422 467.414 245.542 467.391 245.625 467.375L246.148 469.852C245.982 469.904 245.747 469.964 245.445 470.031C245.143 470.104 244.776 470.148 244.344 470.164C243.542 470.195 242.839 470.089 242.234 469.844C241.635 469.599 241.169 469.219 240.836 468.703C240.503 468.187 240.339 467.536 240.344 466.75V455.125ZM248.098 470V458H251.426V470H248.098ZM249.77 456.453C249.275 456.453 248.85 456.289 248.496 455.961C248.147 455.628 247.973 455.229 247.973 454.766C247.973 454.307 248.147 453.914 248.496 453.586C248.85 453.253 249.275 453.086 249.77 453.086C250.264 453.086 250.686 453.253 251.035 453.586C251.389 453.914 251.566 454.307 251.566 454.766C251.566 455.229 251.389 455.628 251.035 455.961C250.686 456.289 250.264 456.453 249.77 456.453ZM259.514 470.234C258.3 470.234 257.251 469.977 256.365 469.461C255.485 468.94 254.805 468.216 254.326 467.289C253.847 466.357 253.607 465.276 253.607 464.047C253.607 462.807 253.847 461.724 254.326 460.797C254.805 459.865 255.485 459.141 256.365 458.625C257.251 458.104 258.3 457.844 259.514 457.844C260.727 457.844 261.774 458.104 262.654 458.625C263.54 459.141 264.222 459.865 264.701 460.797C265.18 461.724 265.42 462.807 265.42 464.047C265.42 465.276 265.18 466.357 264.701 467.289C264.222 468.216 263.54 468.94 262.654 469.461C261.774 469.977 260.727 470.234 259.514 470.234ZM259.529 467.656C260.081 467.656 260.542 467.5 260.912 467.188C261.282 466.87 261.561 466.437 261.748 465.891C261.941 465.344 262.037 464.721 262.037 464.023C262.037 463.326 261.941 462.703 261.748 462.156C261.561 461.609 261.282 461.177 260.912 460.859C260.542 460.542 260.081 460.383 259.529 460.383C258.972 460.383 258.503 460.542 258.123 460.859C257.748 461.177 257.464 461.609 257.271 462.156C257.084 462.703 256.99 463.326 256.99 464.023C256.99 464.721 257.084 465.344 257.271 465.891C257.464 466.437 257.748 466.87 258.123 467.188C258.503 467.5 258.972 467.656 259.529 467.656ZM270.912 463.063V470H267.584V458H270.756V460.117H270.896C271.162 459.419 271.607 458.867 272.232 458.461C272.857 458.049 273.615 457.844 274.506 457.844C275.339 457.844 276.066 458.026 276.686 458.391C277.305 458.755 277.787 459.276 278.131 459.953C278.475 460.625 278.646 461.427 278.646 462.359V470H275.318V462.953C275.324 462.219 275.136 461.646 274.756 461.234C274.376 460.818 273.852 460.609 273.186 460.609C272.738 460.609 272.342 460.706 271.998 460.898C271.66 461.091 271.394 461.372 271.201 461.742C271.014 462.107 270.917 462.547 270.912 463.063Z" fill="#0C0E0F"/>
<path d="M10.6364 495.364V507H9.27273L2.93182 497.864H2.81818V507H1.40909V495.364H2.77273L9.13636 504.523H9.25V495.364H10.6364ZM16.8196 507.182C16.0317 507.182 15.3404 506.994 14.7457 506.619C14.1548 506.244 13.6927 505.72 13.3594 505.045C13.0298 504.371 12.8651 503.583 12.8651 502.682C12.8651 501.773 13.0298 500.979 13.3594 500.301C13.6927 499.623 14.1548 499.097 14.7457 498.722C15.3404 498.347 16.0317 498.159 16.8196 498.159C17.6075 498.159 18.2969 498.347 18.8878 498.722C19.4825 499.097 19.9446 499.623 20.2741 500.301C20.6075 500.979 20.7741 501.773 20.7741 502.682C20.7741 503.583 20.6075 504.371 20.2741 505.045C19.9446 505.72 19.4825 506.244 18.8878 506.619C18.2969 506.994 17.6075 507.182 16.8196 507.182ZM16.8196 505.977C17.4181 505.977 17.9105 505.824 18.2969 505.517C18.6832 505.21 18.9692 504.807 19.1548 504.307C19.3404 503.807 19.4332 503.265 19.4332 502.682C19.4332 502.098 19.3404 501.555 19.1548 501.051C18.9692 500.547 18.6832 500.14 18.2969 499.83C17.9105 499.519 17.4181 499.364 16.8196 499.364C16.2211 499.364 15.7287 499.519 15.3423 499.83C14.956 500.14 14.67 500.547 14.4844 501.051C14.2988 501.555 14.206 502.098 14.206 502.682C14.206 503.265 14.2988 503.807 14.4844 504.307C14.67 504.807 14.956 505.21 15.3423 505.517C15.7287 505.824 16.2211 505.977 16.8196 505.977ZM28.6619 501.75V507H27.321V498.273H28.6165V499.636H28.7301C28.9347 499.193 29.2453 498.837 29.6619 498.568C30.0786 498.295 30.6165 498.159 31.2756 498.159C31.8665 498.159 32.3835 498.28 32.8267 498.523C33.2699 498.761 33.6146 499.125 33.8608 499.614C34.107 500.098 34.2301 500.712 34.2301 501.455V507H32.8892V501.545C32.8892 500.86 32.7112 500.326 32.3551 499.943C31.9991 499.557 31.5104 499.364 30.8892 499.364C30.4612 499.364 30.0786 499.456 29.7415 499.642C29.4081 499.828 29.1449 500.098 28.9517 500.455C28.7585 500.811 28.6619 501.242 28.6619 501.75ZM40.3395 507.182C39.4986 507.182 38.7732 506.996 38.1634 506.625C37.5573 506.25 37.0895 505.727 36.7599 505.057C36.4342 504.383 36.2713 503.598 36.2713 502.705C36.2713 501.811 36.4342 501.023 36.7599 500.341C37.0895 499.655 37.5478 499.121 38.1349 498.739C38.7259 498.352 39.4152 498.159 40.2031 498.159C40.6577 498.159 41.1065 498.235 41.5497 498.386C41.9929 498.538 42.3963 498.784 42.7599 499.125C43.1236 499.462 43.4134 499.909 43.6293 500.466C43.8452 501.023 43.9531 501.708 43.9531 502.523V503.091H37.2259V501.932H42.5895C42.5895 501.439 42.491 501 42.294 500.614C42.1009 500.227 41.8243 499.922 41.4645 499.699C41.1084 499.475 40.688 499.364 40.2031 499.364C39.669 499.364 39.2069 499.496 38.8168 499.761C38.4304 500.023 38.133 500.364 37.9247 500.784C37.7164 501.205 37.6122 501.655 37.6122 502.136V502.909C37.6122 503.568 37.7259 504.127 37.9531 504.585C38.1842 505.04 38.5043 505.386 38.9134 505.625C39.3224 505.86 39.7978 505.977 40.3395 505.977C40.6918 505.977 41.0099 505.928 41.294 505.83C41.5819 505.727 41.83 505.576 42.0384 505.375C42.2467 505.17 42.4077 504.917 42.5213 504.614L43.8168 504.977C43.6804 505.417 43.4512 505.803 43.1293 506.136C42.8073 506.466 42.4096 506.723 41.9361 506.909C41.4626 507.091 40.9304 507.182 40.3395 507.182ZM49.652 507.182C48.8111 507.182 48.0857 506.996 47.4759 506.625C46.8698 506.25 46.402 505.727 46.0724 505.057C45.7467 504.383 45.5838 503.598 45.5838 502.705C45.5838 501.811 45.7467 501.023 46.0724 500.341C46.402 499.655 46.8603 499.121 47.4474 498.739C48.0384 498.352 48.7277 498.159 49.5156 498.159C49.9702 498.159 50.419 498.235 50.8622 498.386C51.3054 498.538 51.7088 498.784 52.0724 499.125C52.4361 499.462 52.7259 499.909 52.9418 500.466C53.1577 501.023 53.2656 501.708 53.2656 502.523V503.091H46.5384V501.932H51.902C51.902 501.439 51.8035 501 51.6065 500.614C51.4134 500.227 51.1368 499.922 50.777 499.699C50.4209 499.475 50.0005 499.364 49.5156 499.364C48.9815 499.364 48.5194 499.496 48.1293 499.761C47.7429 500.023 47.4455 500.364 47.2372 500.784C47.0289 501.205 46.9247 501.655 46.9247 502.136V502.909C46.9247 503.568 47.0384 504.127 47.2656 504.585C47.4967 505.04 47.8168 505.386 48.2259 505.625C48.6349 505.86 49.1103 505.977 49.652 505.977C50.0043 505.977 50.3224 505.928 50.6065 505.83C50.8944 505.727 51.1425 505.576 51.3509 505.375C51.5592 505.17 51.7202 504.917 51.8338 504.614L53.1293 504.977C52.9929 505.417 52.7637 505.803 52.4418 506.136C52.1198 506.466 51.7221 506.723 51.2486 506.909C50.7751 507.091 50.2429 507.182 49.652 507.182ZM58.6009 507.182C57.8736 507.182 57.2315 506.998 56.6747 506.631C56.1179 506.259 55.6823 505.737 55.3679 505.062C55.0535 504.384 54.8963 503.583 54.8963 502.659C54.8963 501.742 55.0535 500.947 55.3679 500.273C55.6823 499.598 56.1198 499.078 56.6804 498.71C57.241 498.343 57.8887 498.159 58.6236 498.159C59.1918 498.159 59.6406 498.254 59.9702 498.443C60.3035 498.629 60.5573 498.841 60.7315 499.08C60.9096 499.314 61.0478 499.508 61.1463 499.659H61.2599V495.364H62.6009V507H61.3054V505.659H61.1463C61.0478 505.818 60.9077 506.019 60.7259 506.261C60.544 506.5 60.2846 506.714 59.9474 506.903C59.6103 507.089 59.1615 507.182 58.6009 507.182ZM58.7827 505.977C59.3205 505.977 59.7751 505.837 60.1463 505.557C60.5175 505.273 60.7997 504.881 60.9929 504.381C61.1861 503.877 61.2827 503.295 61.2827 502.636C61.2827 501.985 61.188 501.415 60.9986 500.926C60.8092 500.434 60.5289 500.051 60.1577 499.778C59.7865 499.502 59.3281 499.364 58.7827 499.364C58.2145 499.364 57.741 499.509 57.3622 499.801C56.9872 500.089 56.705 500.481 56.5156 500.977C56.33 501.47 56.2372 502.023 56.2372 502.636C56.2372 503.258 56.3319 503.822 56.5213 504.33C56.7145 504.833 56.9986 505.235 57.3736 505.534C57.7524 505.83 58.2221 505.977 58.7827 505.977ZM73.6293 498.273V499.409H68.9247V498.273H73.6293ZM70.3338 507V497.068C70.3338 496.568 70.4512 496.152 70.6861 495.818C70.9209 495.485 71.2259 495.235 71.6009 495.068C71.9759 494.902 72.3717 494.818 72.7884 494.818C73.1179 494.818 73.3868 494.845 73.5952 494.898C73.8035 494.951 73.9588 495 74.0611 495.045L73.6747 496.205C73.6065 496.182 73.5118 496.153 73.3906 496.119C73.2732 496.085 73.1179 496.068 72.9247 496.068C72.4815 496.068 72.1615 496.18 71.9645 496.403C71.7713 496.627 71.6747 496.955 71.6747 497.386V507H70.3338ZM78.6946 507.182C77.9067 507.182 77.2154 506.994 76.6207 506.619C76.0298 506.244 75.5677 505.72 75.2344 505.045C74.9048 504.371 74.7401 503.583 74.7401 502.682C74.7401 501.773 74.9048 500.979 75.2344 500.301C75.5677 499.623 76.0298 499.097 76.6207 498.722C77.2154 498.347 77.9067 498.159 78.6946 498.159C79.4825 498.159 80.1719 498.347 80.7628 498.722C81.3575 499.097 81.8196 499.623 82.1491 500.301C82.4825 500.979 82.6491 501.773 82.6491 502.682C82.6491 503.583 82.4825 504.371 82.1491 505.045C81.8196 505.72 81.3575 506.244 80.7628 506.619C80.1719 506.994 79.4825 507.182 78.6946 507.182ZM78.6946 505.977C79.2931 505.977 79.7855 505.824 80.1719 505.517C80.5582 505.21 80.8442 504.807 81.0298 504.307C81.2154 503.807 81.3082 503.265 81.3082 502.682C81.3082 502.098 81.2154 501.555 81.0298 501.051C80.8442 500.547 80.5582 500.14 80.1719 499.83C79.7855 499.519 79.2931 499.364 78.6946 499.364C78.0961 499.364 77.6037 499.519 77.2173 499.83C76.831 500.14 76.545 500.547 76.3594 501.051C76.1738 501.555 76.081 502.098 76.081 502.682C76.081 503.265 76.1738 503.807 76.3594 504.307C76.545 504.807 76.831 505.21 77.2173 505.517C77.6037 505.824 78.0961 505.977 78.6946 505.977ZM84.696 507V498.273H85.9915V499.591H86.0824C86.2415 499.159 86.5294 498.809 86.946 498.54C87.3627 498.271 87.8324 498.136 88.3551 498.136C88.4536 498.136 88.5767 498.138 88.7244 498.142C88.8722 498.146 88.9839 498.152 89.0597 498.159V499.523C89.0142 499.511 88.91 499.494 88.7472 499.472C88.5881 499.445 88.4195 499.432 88.2415 499.432C87.8172 499.432 87.4384 499.521 87.1051 499.699C86.7756 499.873 86.5142 500.116 86.321 500.426C86.1316 500.733 86.0369 501.083 86.0369 501.477V507H84.696ZM98.8082 507.182C97.9673 507.182 97.242 506.996 96.6321 506.625C96.026 506.25 95.5582 505.727 95.2287 505.057C94.9029 504.383 94.7401 503.598 94.7401 502.705C94.7401 501.811 94.9029 501.023 95.2287 500.341C95.5582 499.655 96.0166 499.121 96.6037 498.739C97.1946 498.352 97.884 498.159 98.6719 498.159C99.1264 498.159 99.5753 498.235 100.018 498.386C100.462 498.538 100.865 498.784 101.229 499.125C101.592 499.462 101.882 499.909 102.098 500.466C102.314 501.023 102.422 501.708 102.422 502.523V503.091H95.6946V501.932H101.058C101.058 501.439 100.96 501 100.763 500.614C100.57 500.227 100.293 499.922 99.9332 499.699C99.5772 499.475 99.1567 499.364 98.6719 499.364C98.1378 499.364 97.6757 499.496 97.2855 499.761C96.8991 500.023 96.6018 500.364 96.3935 500.784C96.1851 501.205 96.081 501.655 96.081 502.136V502.909C96.081 503.568 96.1946 504.127 96.4219 504.585C96.6529 505.04 96.973 505.386 97.3821 505.625C97.7912 505.86 98.2666 505.977 98.8082 505.977C99.1605 505.977 99.4787 505.928 99.7628 505.83C100.051 505.727 100.299 505.576 100.507 505.375C100.715 505.17 100.876 504.917 100.99 504.614L102.286 504.977C102.149 505.417 101.92 505.803 101.598 506.136C101.276 506.466 100.878 506.723 100.405 506.909C99.9313 507.091 99.3991 507.182 98.8082 507.182ZM104.462 507V498.273H105.757V499.636H105.871C106.053 499.17 106.346 498.809 106.751 498.551C107.157 498.29 107.643 498.159 108.212 498.159C108.787 498.159 109.267 498.29 109.649 498.551C110.036 498.809 110.337 499.17 110.553 499.636H110.643C110.867 499.186 111.202 498.828 111.649 498.562C112.096 498.294 112.632 498.159 113.257 498.159C114.037 498.159 114.676 498.403 115.172 498.892C115.668 499.377 115.916 500.133 115.916 501.159V507H114.575V501.159C114.575 500.515 114.399 500.055 114.047 499.778C113.695 499.502 113.28 499.364 112.803 499.364C112.189 499.364 111.714 499.549 111.376 499.92C111.039 500.288 110.871 500.754 110.871 501.318V507H109.507V501.023C109.507 500.527 109.346 500.127 109.024 499.824C108.702 499.517 108.287 499.364 107.78 499.364C107.431 499.364 107.106 499.456 106.803 499.642C106.503 499.828 106.261 500.085 106.075 500.415C105.893 500.741 105.803 501.117 105.803 501.545V507H104.462ZM120.936 507.205C120.383 507.205 119.881 507.1 119.43 506.892C118.98 506.68 118.622 506.375 118.357 505.977C118.091 505.576 117.959 505.091 117.959 504.523C117.959 504.023 118.057 503.617 118.254 503.307C118.451 502.992 118.714 502.746 119.044 502.568C119.374 502.39 119.737 502.258 120.135 502.17C120.536 502.08 120.94 502.008 121.345 501.955C121.875 501.886 122.305 501.835 122.635 501.801C122.968 501.763 123.211 501.701 123.362 501.614C123.518 501.527 123.595 501.375 123.595 501.159V501.114C123.595 500.553 123.442 500.117 123.135 499.807C122.832 499.496 122.372 499.341 121.754 499.341C121.114 499.341 120.612 499.481 120.249 499.761C119.885 500.042 119.629 500.341 119.482 500.659L118.209 500.205C118.436 499.674 118.739 499.261 119.118 498.966C119.5 498.667 119.917 498.458 120.368 498.341C120.822 498.22 121.269 498.159 121.709 498.159C121.989 498.159 122.311 498.193 122.675 498.261C123.042 498.326 123.396 498.46 123.737 498.665C124.082 498.869 124.368 499.178 124.595 499.591C124.822 500.004 124.936 500.557 124.936 501.25V507H123.595V505.818H123.527C123.436 506.008 123.285 506.21 123.072 506.426C122.86 506.642 122.578 506.826 122.226 506.977C121.874 507.129 121.444 507.205 120.936 507.205ZM121.141 506C121.671 506 122.118 505.896 122.482 505.688C122.849 505.479 123.125 505.21 123.311 504.881C123.5 504.551 123.595 504.205 123.595 503.841V502.614C123.538 502.682 123.413 502.744 123.22 502.801C123.031 502.854 122.811 502.902 122.561 502.943C122.315 502.981 122.074 503.015 121.839 503.045C121.608 503.072 121.421 503.095 121.277 503.114C120.929 503.159 120.603 503.233 120.3 503.335C120 503.434 119.758 503.583 119.572 503.784C119.391 503.981 119.3 504.25 119.3 504.591C119.3 505.057 119.472 505.409 119.817 505.648C120.165 505.883 120.607 506 121.141 506ZM127.384 507V498.273H128.724V507H127.384ZM128.065 496.818C127.804 496.818 127.579 496.729 127.389 496.551C127.204 496.373 127.111 496.159 127.111 495.909C127.111 495.659 127.204 495.445 127.389 495.267C127.579 495.089 127.804 495 128.065 495C128.327 495 128.55 495.089 128.736 495.267C128.925 495.445 129.02 495.659 129.02 495.909C129.02 496.159 128.925 496.373 128.736 496.551C128.55 496.729 128.327 496.818 128.065 496.818ZM132.521 495.364V507H131.18V495.364H132.521ZM143.023 507.182C142.235 507.182 141.544 506.994 140.949 506.619C140.358 506.244 139.896 505.72 139.562 505.045C139.233 504.371 139.068 503.583 139.068 502.682C139.068 501.773 139.233 500.979 139.562 500.301C139.896 499.623 140.358 499.097 140.949 498.722C141.544 498.347 142.235 498.159 143.023 498.159C143.811 498.159 144.5 498.347 145.091 498.722C145.686 499.097 146.148 499.623 146.477 500.301C146.811 500.979 146.977 501.773 146.977 502.682C146.977 503.583 146.811 504.371 146.477 505.045C146.148 505.72 145.686 506.244 145.091 506.619C144.5 506.994 143.811 507.182 143.023 507.182ZM143.023 505.977C143.621 505.977 144.114 505.824 144.5 505.517C144.886 505.21 145.172 504.807 145.358 504.307C145.544 503.807 145.636 503.265 145.636 502.682C145.636 502.098 145.544 501.555 145.358 501.051C145.172 500.547 144.886 500.14 144.5 499.83C144.114 499.519 143.621 499.364 143.023 499.364C142.424 499.364 141.932 499.519 141.545 499.83C141.159 500.14 140.873 500.547 140.688 501.051C140.502 501.555 140.409 502.098 140.409 502.682C140.409 503.265 140.502 503.807 140.688 504.307C140.873 504.807 141.159 505.21 141.545 505.517C141.932 505.824 142.424 505.977 143.023 505.977ZM149.024 507V498.273H150.32V499.591H150.411C150.57 499.159 150.857 498.809 151.274 498.54C151.691 498.271 152.161 498.136 152.683 498.136C152.782 498.136 152.905 498.138 153.053 498.142C153.2 498.146 153.312 498.152 153.388 498.159V499.523C153.342 499.511 153.238 499.494 153.075 499.472C152.916 499.445 152.748 499.432 152.57 499.432C152.145 499.432 151.767 499.521 151.433 499.699C151.104 499.873 150.842 500.116 150.649 500.426C150.46 500.733 150.365 501.083 150.365 501.477V507H149.024ZM159.477 510.273V498.273H160.773V499.659H160.932C161.03 499.508 161.167 499.314 161.341 499.08C161.519 498.841 161.773 498.629 162.102 498.443C162.436 498.254 162.886 498.159 163.455 498.159C164.189 498.159 164.837 498.343 165.398 498.71C165.958 499.078 166.396 499.598 166.71 500.273C167.025 500.947 167.182 501.742 167.182 502.659C167.182 503.583 167.025 504.384 166.71 505.062C166.396 505.737 165.96 506.259 165.403 506.631C164.847 506.998 164.205 507.182 163.477 507.182C162.917 507.182 162.468 507.089 162.131 506.903C161.794 506.714 161.534 506.5 161.352 506.261C161.17 506.019 161.03 505.818 160.932 505.659H160.818V510.273H159.477ZM160.795 502.636C160.795 503.295 160.892 503.877 161.085 504.381C161.278 504.881 161.561 505.273 161.932 505.557C162.303 505.837 162.758 505.977 163.295 505.977C163.856 505.977 164.324 505.83 164.699 505.534C165.078 505.235 165.362 504.833 165.551 504.33C165.744 503.822 165.841 503.258 165.841 502.636C165.841 502.023 165.746 501.47 165.557 500.977C165.371 500.481 165.089 500.089 164.71 499.801C164.335 499.509 163.864 499.364 163.295 499.364C162.75 499.364 162.292 499.502 161.92 499.778C161.549 500.051 161.269 500.434 161.08 500.926C160.89 501.415 160.795 501.985 160.795 502.636ZM170.568 501.75V507H169.227V495.364H170.568V499.636H170.682C170.886 499.186 171.193 498.828 171.602 498.562C172.015 498.294 172.564 498.159 173.25 498.159C173.845 498.159 174.366 498.278 174.812 498.517C175.259 498.752 175.606 499.114 175.852 499.602C176.102 500.087 176.227 500.705 176.227 501.455V507H174.886V501.545C174.886 500.852 174.706 500.316 174.347 499.938C173.991 499.555 173.496 499.364 172.864 499.364C172.424 499.364 172.03 499.456 171.682 499.642C171.337 499.828 171.064 500.098 170.864 500.455C170.667 500.811 170.568 501.242 170.568 501.75ZM182.226 507.182C181.438 507.182 180.747 506.994 180.152 506.619C179.561 506.244 179.099 505.72 178.766 505.045C178.436 504.371 178.271 503.583 178.271 502.682C178.271 501.773 178.436 500.979 178.766 500.301C179.099 499.623 179.561 499.097 180.152 498.722C180.747 498.347 181.438 498.159 182.226 498.159C183.014 498.159 183.703 498.347 184.294 498.722C184.889 499.097 185.351 499.623 185.68 500.301C186.014 500.979 186.18 501.773 186.18 502.682C186.18 503.583 186.014 504.371 185.68 505.045C185.351 505.72 184.889 506.244 184.294 506.619C183.703 506.994 183.014 507.182 182.226 507.182ZM182.226 505.977C182.824 505.977 183.317 505.824 183.703 505.517C184.089 505.21 184.375 504.807 184.561 504.307C184.747 503.807 184.839 503.265 184.839 502.682C184.839 502.098 184.747 501.555 184.561 501.051C184.375 500.547 184.089 500.14 183.703 499.83C183.317 499.519 182.824 499.364 182.226 499.364C181.627 499.364 181.135 499.519 180.749 499.83C180.362 500.14 180.076 500.547 179.891 501.051C179.705 501.555 179.612 502.098 179.612 502.682C179.612 503.265 179.705 503.807 179.891 504.307C180.076 504.807 180.362 505.21 180.749 505.517C181.135 505.824 181.627 505.977 182.226 505.977ZM189.568 501.75V507H188.227V498.273H189.523V499.636H189.636C189.841 499.193 190.152 498.837 190.568 498.568C190.985 498.295 191.523 498.159 192.182 498.159C192.773 498.159 193.29 498.28 193.733 498.523C194.176 498.761 194.521 499.125 194.767 499.614C195.013 500.098 195.136 500.712 195.136 501.455V507H193.795V501.545C193.795 500.86 193.617 500.326 193.261 499.943C192.905 499.557 192.417 499.364 191.795 499.364C191.367 499.364 190.985 499.456 190.648 499.642C190.314 499.828 190.051 500.098 189.858 500.455C189.665 500.811 189.568 501.242 189.568 501.75ZM201.246 507.182C200.405 507.182 199.679 506.996 199.07 506.625C198.464 506.25 197.996 505.727 197.666 505.057C197.34 504.383 197.178 503.598 197.178 502.705C197.178 501.811 197.34 501.023 197.666 500.341C197.996 499.655 198.454 499.121 199.041 498.739C199.632 498.352 200.321 498.159 201.109 498.159C201.564 498.159 202.013 498.235 202.456 498.386C202.899 498.538 203.303 498.784 203.666 499.125C204.03 499.462 204.32 499.909 204.536 500.466C204.751 501.023 204.859 501.708 204.859 502.523V503.091H198.132V501.932H203.496C203.496 501.439 203.397 501 203.2 500.614C203.007 500.227 202.731 499.922 202.371 499.699C202.015 499.475 201.594 499.364 201.109 499.364C200.575 499.364 200.113 499.496 199.723 499.761C199.337 500.023 199.039 500.364 198.831 500.784C198.623 501.205 198.518 501.655 198.518 502.136V502.909C198.518 503.568 198.632 504.127 198.859 504.585C199.09 505.04 199.411 505.386 199.82 505.625C200.229 505.86 200.704 505.977 201.246 505.977C201.598 505.977 201.916 505.928 202.2 505.83C202.488 505.727 202.736 505.576 202.945 505.375C203.153 505.17 203.314 504.917 203.428 504.614L204.723 504.977C204.587 505.417 204.357 505.803 204.036 506.136C203.714 506.466 203.316 506.723 202.842 506.909C202.369 507.091 201.837 507.182 201.246 507.182ZM212.74 501.75V507H211.399V498.273H212.695V499.636H212.808C213.013 499.193 213.323 498.837 213.74 498.568C214.157 498.295 214.695 498.159 215.354 498.159C215.945 498.159 216.462 498.28 216.905 498.523C217.348 498.761 217.693 499.125 217.939 499.614C218.185 500.098 218.308 500.712 218.308 501.455V507H216.967V501.545C216.967 500.86 216.789 500.326 216.433 499.943C216.077 499.557 215.589 499.364 214.967 499.364C214.539 499.364 214.157 499.456 213.82 499.642C213.486 499.828 213.223 500.098 213.03 500.455C212.837 500.811 212.74 501.242 212.74 501.75ZM226.259 503.432V498.273H227.599V507H226.259V505.523H226.168C225.963 505.966 225.645 506.343 225.213 506.653C224.781 506.96 224.236 507.114 223.577 507.114C223.031 507.114 222.546 506.994 222.122 506.756C221.698 506.513 221.365 506.15 221.122 505.665C220.88 505.176 220.759 504.561 220.759 503.818V498.273H222.099V503.727C222.099 504.364 222.277 504.871 222.634 505.25C222.993 505.629 223.452 505.818 224.009 505.818C224.342 505.818 224.681 505.733 225.026 505.562C225.374 505.392 225.666 505.131 225.901 504.778C226.139 504.426 226.259 503.977 226.259 503.432ZM230.055 507V498.273H231.351V499.636H231.464C231.646 499.17 231.94 498.809 232.345 498.551C232.75 498.29 233.237 498.159 233.805 498.159C234.381 498.159 234.86 498.29 235.243 498.551C235.629 498.809 235.93 499.17 236.146 499.636H236.237C236.461 499.186 236.796 498.828 237.243 498.562C237.69 498.294 238.226 498.159 238.851 498.159C239.631 498.159 240.269 498.403 240.766 498.892C241.262 499.377 241.51 500.133 241.51 501.159V507H240.169V501.159C240.169 500.515 239.993 500.055 239.641 499.778C239.288 499.502 238.874 499.364 238.396 499.364C237.783 499.364 237.307 499.549 236.97 499.92C236.633 500.288 236.464 500.754 236.464 501.318V507H235.101V501.023C235.101 500.527 234.94 500.127 234.618 499.824C234.296 499.517 233.881 499.364 233.374 499.364C233.025 499.364 232.699 499.456 232.396 499.642C232.097 499.828 231.855 500.085 231.669 500.415C231.487 500.741 231.396 501.117 231.396 501.545V507H230.055ZM244.143 507V495.364H245.484V499.659H245.598C245.696 499.508 245.833 499.314 246.007 499.08C246.185 498.841 246.439 498.629 246.768 498.443C247.102 498.254 247.553 498.159 248.121 498.159C248.856 498.159 249.503 498.343 250.064 498.71C250.625 499.078 251.062 499.598 251.376 500.273C251.691 500.947 251.848 501.742 251.848 502.659C251.848 503.583 251.691 504.384 251.376 505.062C251.062 505.737 250.626 506.259 250.07 506.631C249.513 506.998 248.871 507.182 248.143 507.182C247.583 507.182 247.134 507.089 246.797 506.903C246.46 506.714 246.2 506.5 246.018 506.261C245.837 506.019 245.696 505.818 245.598 505.659H245.439V507H244.143ZM245.462 502.636C245.462 503.295 245.558 503.877 245.751 504.381C245.945 504.881 246.227 505.273 246.598 505.557C246.969 505.837 247.424 505.977 247.962 505.977C248.522 505.977 248.99 505.83 249.365 505.534C249.744 505.235 250.028 504.833 250.217 504.33C250.411 503.822 250.507 503.258 250.507 502.636C250.507 502.023 250.412 501.47 250.223 500.977C250.037 500.481 249.755 500.089 249.376 499.801C249.001 499.509 248.53 499.364 247.962 499.364C247.416 499.364 246.958 499.502 246.587 499.778C246.215 500.051 245.935 500.434 245.746 500.926C245.556 501.415 245.462 501.985 245.462 502.636ZM257.558 507.182C256.717 507.182 255.992 506.996 255.382 506.625C254.776 506.25 254.308 505.727 253.979 505.057C253.653 504.383 253.49 503.598 253.49 502.705C253.49 501.811 253.653 501.023 253.979 500.341C254.308 499.655 254.767 499.121 255.354 498.739C255.945 498.352 256.634 498.159 257.422 498.159C257.876 498.159 258.325 498.235 258.768 498.386C259.212 498.538 259.615 498.784 259.979 499.125C260.342 499.462 260.632 499.909 260.848 500.466C261.064 501.023 261.172 501.708 261.172 502.523V503.091H254.445V501.932H259.808C259.808 501.439 259.71 501 259.513 500.614C259.32 500.227 259.043 499.922 258.683 499.699C258.327 499.475 257.907 499.364 257.422 499.364C256.888 499.364 256.426 499.496 256.036 499.761C255.649 500.023 255.352 500.364 255.143 500.784C254.935 501.205 254.831 501.655 254.831 502.136V502.909C254.831 503.568 254.945 504.127 255.172 504.585C255.403 505.04 255.723 505.386 256.132 505.625C256.541 505.86 257.017 505.977 257.558 505.977C257.911 505.977 258.229 505.928 258.513 505.83C258.801 505.727 259.049 505.576 259.257 505.375C259.465 505.17 259.626 504.917 259.74 504.614L261.036 504.977C260.899 505.417 260.67 505.803 260.348 506.136C260.026 506.466 259.628 506.723 259.155 506.909C258.681 507.091 258.149 507.182 257.558 507.182ZM263.212 507V498.273H264.507V499.591H264.598C264.757 499.159 265.045 498.809 265.462 498.54C265.878 498.271 266.348 498.136 266.871 498.136C266.969 498.136 267.092 498.138 267.24 498.142C267.388 498.146 267.5 498.152 267.575 498.159V499.523C267.53 499.511 267.426 499.494 267.263 499.472C267.104 499.445 266.935 499.432 266.757 499.432C266.333 499.432 265.954 499.521 265.621 499.699C265.291 499.873 265.03 500.116 264.837 500.426C264.647 500.733 264.553 501.083 264.553 501.477V507H263.212ZM275.347 500.227L274.142 500.568C274.066 500.367 273.955 500.172 273.807 499.983C273.663 499.79 273.466 499.631 273.216 499.506C272.966 499.381 272.646 499.318 272.256 499.318C271.722 499.318 271.277 499.441 270.92 499.688C270.568 499.93 270.392 500.239 270.392 500.614C270.392 500.947 270.513 501.21 270.756 501.403C270.998 501.597 271.377 501.758 271.892 501.886L273.188 502.205C273.968 502.394 274.549 502.684 274.932 503.074C275.314 503.46 275.506 503.958 275.506 504.568C275.506 505.068 275.362 505.515 275.074 505.909C274.79 506.303 274.392 506.614 273.881 506.841C273.369 507.068 272.775 507.182 272.097 507.182C271.206 507.182 270.47 506.989 269.886 506.602C269.303 506.216 268.934 505.652 268.778 504.909L270.051 504.591C270.172 505.061 270.402 505.413 270.739 505.648C271.08 505.883 271.525 506 272.074 506C272.699 506 273.195 505.867 273.562 505.602C273.934 505.333 274.119 505.011 274.119 504.636C274.119 504.333 274.013 504.08 273.801 503.875C273.589 503.667 273.263 503.511 272.824 503.409L271.369 503.068C270.57 502.879 269.983 502.585 269.608 502.188C269.237 501.786 269.051 501.284 269.051 500.682C269.051 500.189 269.189 499.754 269.466 499.375C269.746 498.996 270.127 498.699 270.608 498.483C271.093 498.267 271.642 498.159 272.256 498.159C273.119 498.159 273.797 498.348 274.29 498.727C274.786 499.106 275.138 499.606 275.347 500.227ZM278.501 507.091C278.221 507.091 277.981 506.991 277.78 506.79C277.579 506.589 277.479 506.348 277.479 506.068C277.479 505.788 277.579 505.547 277.78 505.347C277.981 505.146 278.221 505.045 278.501 505.045C278.782 505.045 279.022 505.146 279.223 505.347C279.424 505.547 279.524 505.788 279.524 506.068C279.524 506.254 279.477 506.424 279.382 506.58C279.291 506.735 279.168 506.86 279.013 506.955C278.861 507.045 278.691 507.091 278.501 507.091Z" fill="#0C0E0F"/>
<defs>
<clipPath id="clip0_70_2713">
<path d="M44 44C44 39.5817 47.5817 36 52 36H411V384H52C47.5817 384 44 380.418 44 376V44Z" fill="white"/>
</clipPath>
</defs>
</svg>
