<svg width="411" height="512" viewBox="0 0 411 512" fill="none" xmlns="http://www.w3.org/2000/svg">
<rect width="411" height="420" rx="8" fill="#39BEB7"/>
<rect x="0.5" y="0.5" width="410" height="419" rx="7.5" stroke="black" stroke-opacity="0.5"/>
<g clip-path="url(#clip0_70_2714)">
<rect x="44" y="37" width="480" height="431" rx="20" fill="white"/>
<path d="M44 44C44 39.5817 47.5817 36 52 36H516C520.418 36 524 39.5817 524 44V80H44V44Z" fill="#0C0E0F"/>
<circle cx="70" cy="58" r="4" fill="#FF0606"/>
<circle cx="84" cy="58" r="4" fill="#30C1FF"/>
<circle cx="98" cy="58" r="4" fill="#A3DC2F"/>
<rect x="66" y="98.9998" width="72" height="72" rx="14" fill="#F7F7F7"/>
<path d="M102 121L92.1731 137.293L102 143.099L111.826 137.293L102 121ZM102 153L92.1731 139.156L102 145L111.826 139.156L102 153Z" fill="black"/>
<rect x="156" y="105" width="259" height="12" rx="6" fill="#F7F7F7"/>
<rect x="156" y="153" width="245" height="12" rx="6" fill="#F7F7F7"/>
<rect x="156" y="129" width="269" height="12" rx="6" fill="#F7F7F7"/>
<rect x="66" y="187" width="72" height="72" rx="14" fill="#F7F7F7"/>
<path d="M102 209L92.1731 225.293L102 231.099L111.826 225.293L102 209ZM102 241L92.1731 227.156L102 233L111.826 227.156L102 241Z" fill="black"/>
<rect x="156" y="193" width="259" height="12" rx="6" fill="#F7F7F7"/>
<rect x="156" y="241" width="245" height="12" rx="6" fill="#F7F7F7"/>
<rect x="156" y="217" width="269" height="12" rx="6" fill="#F7F7F7"/>
<rect x="66" y="275" width="72" height="72" rx="14" fill="#F7F7F7"/>
<path d="M102 297L92.1731 313.293L102 319.099L111.826 313.293L102 297ZM102 329L92.1731 315.156L102 321L111.826 315.156L102 329Z" fill="black"/>
<rect x="156" y="281" width="259" height="12" rx="6" fill="#F7F7F7"/>
<rect x="156" y="329" width="245" height="12" rx="6" fill="#F7F7F7"/>
<rect x="156" y="305" width="269" height="12" rx="6" fill="#F7F7F7"/>
<rect x="66" y="363" width="72" height="72" rx="14" fill="#F7F7F7"/>
<rect x="156" y="369" width="259" height="12" rx="6" fill="#F7F7F7"/>
</g>
<path d="M44.5 44C44.5 39.8579 47.8579 36.5 52 36.5H410.5V383.5H52C47.8579 383.5 44.5 380.142 44.5 376V44Z" stroke="black"/>
<path d="M10.0703 458.602C10.0078 457.971 9.73958 457.482 9.26563 457.133C8.79167 456.784 8.14844 456.609 7.33594 456.609C6.78385 456.609 6.31771 456.687 5.9375 456.844C5.55729 456.995 5.26563 457.206 5.0625 457.477C4.86458 457.747 4.76563 458.055 4.76563 458.398C4.75521 458.685 4.8151 458.935 4.94531 459.148C5.08073 459.362 5.26563 459.547 5.5 459.703C5.73438 459.854 6.00521 459.987 6.3125 460.102C6.61979 460.211 6.94792 460.305 7.29688 460.383L8.73438 460.727C9.43229 460.883 10.0729 461.091 10.6562 461.352C11.2396 461.612 11.7448 461.932 12.1719 462.312C12.599 462.693 12.9297 463.141 13.1641 463.656C13.4036 464.172 13.526 464.763 13.5312 465.43C13.526 466.409 13.276 467.258 12.7813 467.977C12.2917 468.69 11.5833 469.245 10.6562 469.641C9.73438 470.031 8.6224 470.227 7.32031 470.227C6.02865 470.227 4.90365 470.029 3.94531 469.633C2.99219 469.237 2.2474 468.651 1.71094 467.875C1.17969 467.094 0.901042 466.128 0.875 464.977H4.14844C4.1849 465.513 4.33854 465.961 4.60938 466.32C4.88542 466.674 5.2526 466.943 5.71094 467.125C6.17448 467.302 6.69792 467.391 7.28125 467.391C7.85417 467.391 8.35156 467.307 8.77344 467.141C9.20052 466.974 9.53125 466.742 9.76563 466.445C10 466.148 10.1172 465.807 10.1172 465.422C10.1172 465.062 10.0104 464.76 9.79688 464.516C9.58854 464.271 9.28125 464.062 8.875 463.891C8.47396 463.719 7.98177 463.562 7.39844 463.422L5.65625 462.984C4.30729 462.656 3.24219 462.143 2.46094 461.445C1.67969 460.747 1.29167 459.807 1.29688 458.625C1.29167 457.656 1.54948 456.81 2.07031 456.086C2.59635 455.362 3.31771 454.797 4.23438 454.391C5.15104 453.984 6.19271 453.781 7.35938 453.781C8.54688 453.781 9.58333 453.984 10.4688 454.391C11.3594 454.797 12.0521 455.362 12.5469 456.086C13.0417 456.81 13.2969 457.648 13.3125 458.602H10.0703ZM15.7441 470V458H18.916V460.117H19.0566C19.3066 459.414 19.7233 458.859 20.3066 458.453C20.89 458.047 21.5879 457.844 22.4004 457.844C23.2233 457.844 23.9238 458.049 24.502 458.461C25.0801 458.867 25.4655 459.419 25.6582 460.117H25.7832C26.028 459.43 26.4707 458.88 27.1113 458.469C27.7572 458.052 28.5202 457.844 29.4004 457.844C30.5202 457.844 31.429 458.201 32.127 458.914C32.8301 459.622 33.1816 460.628 33.1816 461.93V470H29.8613V462.586C29.8613 461.919 29.6842 461.419 29.3301 461.086C28.9759 460.753 28.5332 460.586 28.002 460.586C27.3978 460.586 26.9264 460.779 26.5879 461.164C26.2493 461.544 26.0801 462.047 26.0801 462.672V470H22.8535V462.516C22.8535 461.927 22.6842 461.458 22.3457 461.109C22.0124 460.76 21.5723 460.586 21.0254 460.586C20.6556 460.586 20.3223 460.68 20.0254 460.867C19.7337 461.049 19.502 461.307 19.3301 461.641C19.1582 461.969 19.0723 462.354 19.0723 462.797V470H15.7441ZM39.2324 470.227C38.4668 470.227 37.7845 470.094 37.1855 469.828C36.5866 469.557 36.1126 469.159 35.7637 468.633C35.4199 468.102 35.248 467.44 35.248 466.648C35.248 465.982 35.3704 465.422 35.6152 464.969C35.86 464.516 36.1934 464.151 36.6152 463.875C37.0371 463.599 37.5163 463.391 38.0527 463.25C38.5944 463.109 39.1621 463.01 39.7559 462.953C40.4538 462.88 41.0163 462.812 41.4434 462.75C41.8704 462.682 42.1803 462.583 42.373 462.453C42.5658 462.323 42.6621 462.13 42.6621 461.875V461.828C42.6621 461.333 42.5059 460.951 42.1934 460.68C41.8861 460.409 41.4486 460.273 40.8809 460.273C40.2819 460.273 39.8053 460.406 39.4512 460.672C39.097 460.932 38.8626 461.26 38.748 461.656L35.6699 461.406C35.8262 460.677 36.1335 460.047 36.5918 459.516C37.0501 458.979 37.6413 458.568 38.3652 458.281C39.0944 457.99 39.9382 457.844 40.8965 457.844C41.5632 457.844 42.2012 457.922 42.8105 458.078C43.4251 458.234 43.9694 458.477 44.4434 458.805C44.9225 459.133 45.3001 459.555 45.5762 460.07C45.8522 460.581 45.9902 461.193 45.9902 461.906V470H42.834V468.336H42.7402C42.5475 468.711 42.2897 469.042 41.9668 469.328C41.6439 469.609 41.2559 469.831 40.8027 469.992C40.3496 470.148 39.8262 470.227 39.2324 470.227ZM40.1855 467.93C40.6751 467.93 41.1074 467.833 41.4824 467.641C41.8574 467.443 42.1517 467.177 42.3652 466.844C42.5788 466.51 42.6855 466.133 42.6855 465.711V464.438C42.5814 464.505 42.4382 464.568 42.2559 464.625C42.0788 464.677 41.8783 464.727 41.6543 464.773C41.4303 464.815 41.2064 464.854 40.9824 464.891C40.7585 464.922 40.5553 464.951 40.373 464.977C39.9824 465.034 39.6413 465.125 39.3496 465.25C39.0579 465.375 38.8314 465.544 38.6699 465.758C38.5085 465.966 38.4277 466.227 38.4277 466.539C38.4277 466.992 38.5918 467.339 38.9199 467.578C39.2533 467.812 39.6751 467.93 40.1855 467.93ZM48.5723 470V458H51.7988V460.094H51.9238C52.1426 459.349 52.5098 458.786 53.0254 458.406C53.541 458.021 54.1348 457.828 54.8066 457.828C54.9733 457.828 55.153 457.839 55.3457 457.859C55.5384 457.88 55.7077 457.909 55.8535 457.945V460.898C55.6973 460.852 55.4811 460.81 55.2051 460.773C54.929 460.737 54.6764 460.719 54.4473 460.719C53.9577 460.719 53.5202 460.826 53.1348 461.039C52.7546 461.247 52.4525 461.539 52.2285 461.914C52.0098 462.289 51.9004 462.721 51.9004 463.211V470H48.5723ZM64.5586 458V460.5H57.332V458H64.5586ZM58.9727 455.125H62.3008V466.312C62.3008 466.62 62.3477 466.859 62.4414 467.031C62.5352 467.198 62.6654 467.315 62.832 467.383C63.0039 467.451 63.2018 467.484 63.4258 467.484C63.582 467.484 63.7383 467.471 63.8945 467.445C64.0508 467.414 64.1706 467.391 64.2539 467.375L64.7773 469.852C64.6107 469.904 64.3763 469.964 64.0742 470.031C63.7721 470.104 63.4049 470.148 62.9727 470.164C62.1706 470.195 61.4674 470.089 60.8633 469.844C60.2643 469.599 59.7982 469.219 59.4648 468.703C59.1315 468.187 58.9674 467.536 58.9727 466.75V455.125ZM85.998 459.602H82.5762C82.5137 459.159 82.3861 458.766 82.1934 458.422C82.0007 458.073 81.7533 457.776 81.4512 457.531C81.1491 457.286 80.8001 457.099 80.4043 456.969C80.0137 456.839 79.5892 456.773 79.1309 456.773C78.3027 456.773 77.5814 456.979 76.9668 457.391C76.3522 457.797 75.8757 458.391 75.5371 459.172C75.1986 459.948 75.0293 460.891 75.0293 462C75.0293 463.141 75.1986 464.099 75.5371 464.875C75.8809 465.651 76.36 466.237 76.9746 466.633C77.5892 467.029 78.3001 467.227 79.1074 467.227C79.5605 467.227 79.9798 467.167 80.3652 467.047C80.7559 466.927 81.1022 466.753 81.4043 466.523C81.7064 466.289 81.9564 466.005 82.1543 465.672C82.3574 465.339 82.498 464.958 82.5762 464.531L85.998 464.547C85.9095 465.281 85.6882 465.99 85.334 466.672C84.985 467.349 84.5137 467.956 83.9199 468.492C83.3314 469.023 82.6283 469.445 81.8105 469.758C80.998 470.065 80.0788 470.219 79.0527 470.219C77.6257 470.219 76.3496 469.896 75.2246 469.25C74.1048 468.604 73.2194 467.669 72.5684 466.445C71.9225 465.221 71.5996 463.74 71.5996 462C71.5996 460.255 71.9277 458.771 72.584 457.547C73.2402 456.323 74.1309 455.391 75.2559 454.75C76.3809 454.104 77.6465 453.781 79.0527 453.781C79.9798 453.781 80.8392 453.911 81.6309 454.172C82.4277 454.432 83.1335 454.812 83.748 455.312C84.3626 455.807 84.8626 456.414 85.248 457.133C85.6387 457.852 85.8887 458.674 85.998 459.602ZM93.7832 470.234C92.5697 470.234 91.5202 469.977 90.6348 469.461C89.7546 468.94 89.0749 468.216 88.5957 467.289C88.1165 466.357 87.877 465.276 87.877 464.047C87.877 462.807 88.1165 461.724 88.5957 460.797C89.0749 459.865 89.7546 459.141 90.6348 458.625C91.5202 458.104 92.5697 457.844 93.7832 457.844C94.9967 457.844 96.0436 458.104 96.9238 458.625C97.8092 459.141 98.4915 459.865 98.9707 460.797C99.4499 461.724 99.6895 462.807 99.6895 464.047C99.6895 465.276 99.4499 466.357 98.9707 467.289C98.4915 468.216 97.8092 468.94 96.9238 469.461C96.0436 469.977 94.9967 470.234 93.7832 470.234ZM93.7988 467.656C94.3509 467.656 94.8118 467.5 95.1816 467.188C95.5514 466.87 95.8301 466.437 96.0176 465.891C96.2103 465.344 96.3066 464.721 96.3066 464.023C96.3066 463.326 96.2103 462.703 96.0176 462.156C95.8301 461.609 95.5514 461.177 95.1816 460.859C94.8118 460.542 94.3509 460.383 93.7988 460.383C93.2415 460.383 92.7728 460.542 92.3926 460.859C92.0176 461.177 91.7337 461.609 91.541 462.156C91.3535 462.703 91.2598 463.326 91.2598 464.023C91.2598 464.721 91.3535 465.344 91.541 465.891C91.7337 466.437 92.0176 466.87 92.3926 467.188C92.7728 467.5 93.2415 467.656 93.7988 467.656ZM105.182 463.063V470H101.854V458H105.025V460.117H105.166C105.432 459.419 105.877 458.867 106.502 458.461C107.127 458.049 107.885 457.844 108.775 457.844C109.609 457.844 110.335 458.026 110.955 458.391C111.575 458.755 112.057 459.276 112.4 459.953C112.744 460.625 112.916 461.427 112.916 462.359V470H109.588V462.953C109.593 462.219 109.406 461.646 109.025 461.234C108.645 460.818 108.122 460.609 107.455 460.609C107.007 460.609 106.611 460.706 106.268 460.898C105.929 461.091 105.663 461.372 105.471 461.742C105.283 462.107 105.187 462.547 105.182 463.063ZM121.922 458V460.5H114.695V458H121.922ZM116.336 455.125H119.664V466.312C119.664 466.62 119.711 466.859 119.805 467.031C119.898 467.198 120.029 467.315 120.195 467.383C120.367 467.451 120.565 467.484 120.789 467.484C120.945 467.484 121.102 467.471 121.258 467.445C121.414 467.414 121.534 467.391 121.617 467.375L122.141 469.852C121.974 469.904 121.74 469.964 121.438 470.031C121.135 470.104 120.768 470.148 120.336 470.164C119.534 470.195 118.831 470.089 118.227 469.844C117.628 469.599 117.161 469.219 116.828 468.703C116.495 468.187 116.331 467.536 116.336 466.75V455.125ZM124.09 470V458H127.316V460.094H127.441C127.66 459.349 128.027 458.786 128.543 458.406C129.059 458.021 129.652 457.828 130.324 457.828C130.491 457.828 130.671 457.839 130.863 457.859C131.056 457.88 131.225 457.909 131.371 457.945V460.898C131.215 460.852 130.999 460.81 130.723 460.773C130.447 460.737 130.194 460.719 129.965 460.719C129.475 460.719 129.038 460.826 128.652 461.039C128.272 461.247 127.97 461.539 127.746 461.914C127.527 462.289 127.418 462.721 127.418 463.211V470H124.09ZM136.17 470.227C135.404 470.227 134.722 470.094 134.123 469.828C133.524 469.557 133.05 469.159 132.701 468.633C132.357 468.102 132.186 467.44 132.186 466.648C132.186 465.982 132.308 465.422 132.553 464.969C132.798 464.516 133.131 464.151 133.553 463.875C133.975 463.599 134.454 463.391 134.99 463.25C135.532 463.109 136.1 463.01 136.693 462.953C137.391 462.88 137.954 462.812 138.381 462.75C138.808 462.682 139.118 462.583 139.311 462.453C139.503 462.323 139.6 462.13 139.6 461.875V461.828C139.6 461.333 139.443 460.951 139.131 460.68C138.824 460.409 138.386 460.273 137.818 460.273C137.219 460.273 136.743 460.406 136.389 460.672C136.035 460.932 135.8 461.26 135.686 461.656L132.607 461.406C132.764 460.677 133.071 460.047 133.529 459.516C133.988 458.979 134.579 458.568 135.303 458.281C136.032 457.99 136.876 457.844 137.834 457.844C138.501 457.844 139.139 457.922 139.748 458.078C140.363 458.234 140.907 458.477 141.381 458.805C141.86 459.133 142.238 459.555 142.514 460.07C142.79 460.581 142.928 461.193 142.928 461.906V470H139.771V468.336H139.678C139.485 468.711 139.227 469.042 138.904 469.328C138.581 469.609 138.193 469.831 137.74 469.992C137.287 470.148 136.764 470.227 136.17 470.227ZM137.123 467.93C137.613 467.93 138.045 467.833 138.42 467.641C138.795 467.443 139.089 467.177 139.303 466.844C139.516 466.51 139.623 466.133 139.623 465.711V464.438C139.519 464.505 139.376 464.568 139.193 464.625C139.016 464.677 138.816 464.727 138.592 464.773C138.368 464.815 138.144 464.854 137.92 464.891C137.696 464.922 137.493 464.951 137.311 464.977C136.92 465.034 136.579 465.125 136.287 465.25C135.995 465.375 135.769 465.544 135.607 465.758C135.446 465.966 135.365 466.227 135.365 466.539C135.365 466.992 135.529 467.339 135.857 467.578C136.191 467.812 136.613 467.93 137.123 467.93ZM150.932 470.234C149.702 470.234 148.645 469.974 147.76 469.453C146.88 468.927 146.202 468.198 145.729 467.266C145.26 466.333 145.025 465.26 145.025 464.047C145.025 462.818 145.262 461.74 145.736 460.812C146.215 459.88 146.895 459.154 147.775 458.633C148.656 458.107 149.702 457.844 150.916 457.844C151.963 457.844 152.88 458.034 153.666 458.414C154.452 458.794 155.075 459.328 155.533 460.016C155.992 460.703 156.244 461.51 156.291 462.438H153.15C153.062 461.839 152.827 461.357 152.447 460.992C152.072 460.622 151.58 460.437 150.971 460.437C150.455 460.437 150.005 460.578 149.619 460.859C149.239 461.135 148.942 461.539 148.729 462.07C148.515 462.602 148.408 463.245 148.408 464C148.408 464.766 148.512 465.417 148.721 465.953C148.934 466.49 149.234 466.898 149.619 467.18C150.005 467.461 150.455 467.602 150.971 467.602C151.351 467.602 151.692 467.523 151.994 467.367C152.301 467.211 152.554 466.984 152.752 466.687C152.955 466.385 153.088 466.023 153.15 465.602H156.291C156.239 466.518 155.989 467.326 155.541 468.023C155.098 468.716 154.486 469.258 153.705 469.648C152.924 470.039 151.999 470.234 150.932 470.234ZM164.805 458V460.5H157.578V458H164.805ZM159.219 455.125H162.547V466.312C162.547 466.62 162.594 466.859 162.688 467.031C162.781 467.198 162.911 467.315 163.078 467.383C163.25 467.451 163.448 467.484 163.672 467.484C163.828 467.484 163.984 467.471 164.141 467.445C164.297 467.414 164.417 467.391 164.5 467.375L165.023 469.852C164.857 469.904 164.622 469.964 164.32 470.031C164.018 470.104 163.651 470.148 163.219 470.164C162.417 470.195 161.714 470.089 161.109 469.844C160.51 469.599 160.044 469.219 159.711 468.703C159.378 468.187 159.214 467.536 159.219 466.75V455.125ZM175.51 454V470H172.127V454H175.51ZM181.559 463.063V470H178.23V458H181.402V460.117H181.543C181.809 459.419 182.254 458.867 182.879 458.461C183.504 458.049 184.262 457.844 185.152 457.844C185.986 457.844 186.712 458.026 187.332 458.391C187.952 458.755 188.434 459.276 188.777 459.953C189.121 460.625 189.293 461.427 189.293 462.359V470H185.965V462.953C185.97 462.219 185.783 461.646 185.402 461.234C185.022 460.818 184.499 460.609 183.832 460.609C183.384 460.609 182.988 460.706 182.645 460.898C182.306 461.091 182.04 461.372 181.848 461.742C181.66 462.107 181.564 462.547 181.559 463.063ZM198.299 458V460.5H191.072V458H198.299ZM192.713 455.125H196.041V466.312C196.041 466.62 196.088 466.859 196.182 467.031C196.275 467.198 196.406 467.315 196.572 467.383C196.744 467.451 196.942 467.484 197.166 467.484C197.322 467.484 197.479 467.471 197.635 467.445C197.791 467.414 197.911 467.391 197.994 467.375L198.518 469.852C198.351 469.904 198.117 469.964 197.814 470.031C197.512 470.104 197.145 470.148 196.713 470.164C195.911 470.195 195.208 470.089 194.604 469.844C194.005 469.599 193.538 469.219 193.205 468.703C192.872 468.187 192.708 467.536 192.713 466.75V455.125ZM205.807 470.234C204.572 470.234 203.51 469.984 202.619 469.484C201.734 468.979 201.051 468.266 200.572 467.344C200.093 466.417 199.854 465.32 199.854 464.055C199.854 462.82 200.093 461.737 200.572 460.805C201.051 459.872 201.726 459.146 202.596 458.625C203.471 458.104 204.497 457.844 205.674 457.844C206.465 457.844 207.202 457.971 207.885 458.227C208.572 458.477 209.171 458.854 209.682 459.359C210.197 459.865 210.598 460.5 210.885 461.266C211.171 462.026 211.314 462.917 211.314 463.937V464.852H201.182V462.789H208.182C208.182 462.31 208.077 461.885 207.869 461.516C207.661 461.146 207.372 460.857 207.002 460.648C206.637 460.435 206.213 460.328 205.729 460.328C205.223 460.328 204.775 460.445 204.385 460.68C203.999 460.909 203.697 461.219 203.479 461.609C203.26 461.995 203.148 462.424 203.143 462.898V464.859C203.143 465.453 203.252 465.966 203.471 466.398C203.695 466.831 204.01 467.164 204.416 467.398C204.822 467.633 205.304 467.75 205.861 467.75C206.231 467.75 206.57 467.698 206.877 467.594C207.184 467.49 207.447 467.333 207.666 467.125C207.885 466.917 208.051 466.661 208.166 466.359L211.244 466.562C211.088 467.302 210.768 467.948 210.283 468.5C209.804 469.047 209.184 469.474 208.424 469.781C207.669 470.083 206.796 470.234 205.807 470.234ZM213.486 470V458H216.713V460.094H216.838C217.057 459.349 217.424 458.786 217.939 458.406C218.455 458.021 219.049 457.828 219.721 457.828C219.887 457.828 220.067 457.839 220.26 457.859C220.452 457.88 220.622 457.909 220.768 457.945V460.898C220.611 460.852 220.395 460.81 220.119 460.773C219.843 460.737 219.59 460.719 219.361 460.719C218.872 460.719 218.434 460.826 218.049 461.039C217.669 461.247 217.367 461.539 217.143 461.914C216.924 462.289 216.814 462.721 216.814 463.211V470H213.486ZM225.566 470.227C224.801 470.227 224.118 470.094 223.52 469.828C222.921 469.557 222.447 469.159 222.098 468.633C221.754 468.102 221.582 467.44 221.582 466.648C221.582 465.982 221.704 465.422 221.949 464.969C222.194 464.516 222.527 464.151 222.949 463.875C223.371 463.599 223.85 463.391 224.387 463.25C224.928 463.109 225.496 463.01 226.09 462.953C226.788 462.88 227.35 462.812 227.777 462.75C228.204 462.682 228.514 462.583 228.707 462.453C228.9 462.323 228.996 462.13 228.996 461.875V461.828C228.996 461.333 228.84 460.951 228.527 460.68C228.22 460.409 227.783 460.273 227.215 460.273C226.616 460.273 226.139 460.406 225.785 460.672C225.431 460.932 225.197 461.26 225.082 461.656L222.004 461.406C222.16 460.677 222.467 460.047 222.926 459.516C223.384 458.979 223.975 458.568 224.699 458.281C225.428 457.99 226.272 457.844 227.23 457.844C227.897 457.844 228.535 457.922 229.145 458.078C229.759 458.234 230.303 458.477 230.777 458.805C231.257 459.133 231.634 459.555 231.91 460.07C232.186 460.581 232.324 461.193 232.324 461.906V470H229.168V468.336H229.074C228.882 468.711 228.624 469.042 228.301 469.328C227.978 469.609 227.59 469.831 227.137 469.992C226.684 470.148 226.16 470.227 225.566 470.227ZM226.52 467.93C227.009 467.93 227.441 467.833 227.816 467.641C228.191 467.443 228.486 467.177 228.699 466.844C228.913 466.51 229.02 466.133 229.02 465.711V464.438C228.915 464.505 228.772 464.568 228.59 464.625C228.413 464.677 228.212 464.727 227.988 464.773C227.764 464.815 227.54 464.854 227.316 464.891C227.092 464.922 226.889 464.951 226.707 464.977C226.316 465.034 225.975 465.125 225.684 465.25C225.392 465.375 225.165 465.544 225.004 465.758C224.842 465.966 224.762 466.227 224.762 466.539C224.762 466.992 224.926 467.339 225.254 467.578C225.587 467.812 226.009 467.93 226.52 467.93ZM240.328 470.234C239.099 470.234 238.042 469.974 237.156 469.453C236.276 468.927 235.599 468.198 235.125 467.266C234.656 466.333 234.422 465.26 234.422 464.047C234.422 462.818 234.659 461.74 235.133 460.812C235.612 459.88 236.292 459.154 237.172 458.633C238.052 458.107 239.099 457.844 240.313 457.844C241.359 457.844 242.276 458.034 243.063 458.414C243.849 458.794 244.471 459.328 244.93 460.016C245.388 460.703 245.641 461.51 245.687 462.438H242.547C242.458 461.839 242.224 461.357 241.844 460.992C241.469 460.622 240.977 460.437 240.367 460.437C239.852 460.437 239.401 460.578 239.016 460.859C238.635 461.135 238.339 461.539 238.125 462.07C237.911 462.602 237.805 463.245 237.805 464C237.805 464.766 237.909 465.417 238.117 465.953C238.331 466.49 238.63 466.898 239.016 467.18C239.401 467.461 239.852 467.602 240.367 467.602C240.747 467.602 241.089 467.523 241.391 467.367C241.698 467.211 241.951 466.984 242.148 466.687C242.352 466.385 242.484 466.023 242.547 465.602H245.687C245.635 466.518 245.385 467.326 244.938 468.023C244.495 468.716 243.883 469.258 243.102 469.648C242.32 470.039 241.396 470.234 240.328 470.234ZM254.201 458V460.5H246.975V458H254.201ZM248.615 455.125H251.943V466.312C251.943 466.62 251.99 466.859 252.084 467.031C252.178 467.198 252.308 467.315 252.475 467.383C252.646 467.451 252.844 467.484 253.068 467.484C253.225 467.484 253.381 467.471 253.537 467.445C253.693 467.414 253.813 467.391 253.896 467.375L254.42 469.852C254.253 469.904 254.019 469.964 253.717 470.031C253.415 470.104 253.048 470.148 252.615 470.164C251.813 470.195 251.11 470.089 250.506 469.844C249.907 469.599 249.441 469.219 249.107 468.703C248.774 468.187 248.61 467.536 248.615 466.75V455.125ZM256.369 470V458H259.697V470H256.369ZM258.041 456.453C257.546 456.453 257.122 456.289 256.768 455.961C256.419 455.628 256.244 455.229 256.244 454.766C256.244 454.307 256.419 453.914 256.768 453.586C257.122 453.253 257.546 453.086 258.041 453.086C258.536 453.086 258.958 453.253 259.307 453.586C259.661 453.914 259.838 454.307 259.838 454.766C259.838 455.229 259.661 455.628 259.307 455.961C258.958 456.289 258.536 456.453 258.041 456.453ZM267.785 470.234C266.572 470.234 265.522 469.977 264.637 469.461C263.757 468.94 263.077 468.216 262.598 467.289C262.118 466.357 261.879 465.276 261.879 464.047C261.879 462.807 262.118 461.724 262.598 460.797C263.077 459.865 263.757 459.141 264.637 458.625C265.522 458.104 266.572 457.844 267.785 457.844C268.999 457.844 270.046 458.104 270.926 458.625C271.811 459.141 272.493 459.865 272.973 460.797C273.452 461.724 273.691 462.807 273.691 464.047C273.691 465.276 273.452 466.357 272.973 467.289C272.493 468.216 271.811 468.94 270.926 469.461C270.046 469.977 268.999 470.234 267.785 470.234ZM267.801 467.656C268.353 467.656 268.814 467.5 269.184 467.188C269.553 466.87 269.832 466.437 270.02 465.891C270.212 465.344 270.309 464.721 270.309 464.023C270.309 463.326 270.212 462.703 270.02 462.156C269.832 461.609 269.553 461.177 269.184 460.859C268.814 460.542 268.353 460.383 267.801 460.383C267.243 460.383 266.775 460.542 266.395 460.859C266.02 461.177 265.736 461.609 265.543 462.156C265.355 462.703 265.262 463.326 265.262 464.023C265.262 464.721 265.355 465.344 265.543 465.891C265.736 466.437 266.02 466.87 266.395 467.188C266.775 467.5 267.243 467.656 267.801 467.656ZM279.184 463.063V470H275.855V458H279.027V460.117H279.168C279.434 459.419 279.879 458.867 280.504 458.461C281.129 458.049 281.887 457.844 282.777 457.844C283.611 457.844 284.337 458.026 284.957 458.391C285.577 458.755 286.059 459.276 286.402 459.953C286.746 460.625 286.918 461.427 286.918 462.359V470H283.59V462.953C283.595 462.219 283.408 461.646 283.027 461.234C282.647 460.818 282.124 460.609 281.457 460.609C281.009 460.609 280.613 460.706 280.27 460.898C279.931 461.091 279.665 461.372 279.473 461.742C279.285 462.107 279.189 462.547 279.184 463.063ZM299.525 461.422L296.479 461.609C296.426 461.349 296.314 461.115 296.143 460.906C295.971 460.693 295.744 460.523 295.463 460.398C295.187 460.268 294.856 460.203 294.471 460.203C293.955 460.203 293.52 460.312 293.166 460.531C292.812 460.745 292.635 461.031 292.635 461.391C292.635 461.677 292.749 461.919 292.979 462.117C293.208 462.315 293.601 462.474 294.158 462.594L296.33 463.031C297.497 463.271 298.367 463.656 298.939 464.187C299.512 464.719 299.799 465.417 299.799 466.281C299.799 467.068 299.567 467.758 299.104 468.352C298.645 468.945 298.015 469.409 297.213 469.742C296.416 470.07 295.497 470.234 294.455 470.234C292.867 470.234 291.601 469.904 290.658 469.242C289.721 468.576 289.171 467.669 289.01 466.523L292.283 466.352C292.382 466.836 292.622 467.206 293.002 467.461C293.382 467.711 293.869 467.836 294.463 467.836C295.046 467.836 295.515 467.724 295.869 467.5C296.229 467.271 296.411 466.977 296.416 466.617C296.411 466.315 296.283 466.068 296.033 465.875C295.783 465.677 295.398 465.526 294.877 465.422L292.799 465.008C291.627 464.773 290.755 464.367 290.182 463.789C289.614 463.211 289.33 462.474 289.33 461.578C289.33 460.807 289.538 460.143 289.955 459.586C290.377 459.029 290.968 458.599 291.729 458.297C292.494 457.995 293.39 457.844 294.416 457.844C295.932 457.844 297.124 458.164 297.994 458.805C298.869 459.445 299.38 460.318 299.525 461.422Z" fill="#0C0E0F"/>
<path d="M1.40909 507V495.364H2.81818V505.75H8.22727V507H1.40909ZM13.8864 507.182C13.0455 507.182 12.3201 506.996 11.7102 506.625C11.1042 506.25 10.6364 505.727 10.3068 505.057C9.98106 504.383 9.81818 503.598 9.81818 502.705C9.81818 501.811 9.98106 501.023 10.3068 500.341C10.6364 499.655 11.0947 499.121 11.6818 498.739C12.2727 498.352 12.9621 498.159 13.75 498.159C14.2045 498.159 14.6534 498.235 15.0966 498.386C15.5398 498.538 15.9432 498.784 16.3068 499.125C16.6705 499.462 16.9602 499.909 17.1761 500.466C17.392 501.023 17.5 501.708 17.5 502.523V503.091H10.7727V501.932H16.1364C16.1364 501.439 16.0379 501 15.8409 500.614C15.6477 500.227 15.3712 499.922 15.0114 499.699C14.6553 499.475 14.2348 499.364 13.75 499.364C13.2159 499.364 12.7538 499.496 12.3636 499.761C11.9773 500.023 11.6799 500.364 11.4716 500.784C11.2633 501.205 11.1591 501.655 11.1591 502.136V502.909C11.1591 503.568 11.2727 504.127 11.5 504.585C11.7311 505.04 12.0511 505.386 12.4602 505.625C12.8693 505.86 13.3447 505.977 13.8864 505.977C14.2386 505.977 14.5568 505.928 14.8409 505.83C15.1288 505.727 15.3769 505.576 15.5852 505.375C15.7936 505.17 15.9545 504.917 16.0682 504.614L17.3636 504.977C17.2273 505.417 16.9981 505.803 16.6761 506.136C16.3542 506.466 15.9564 506.723 15.483 506.909C15.0095 507.091 14.4773 507.182 13.8864 507.182ZM22.108 507.205C21.5549 507.205 21.053 507.1 20.6023 506.892C20.1515 506.68 19.7936 506.375 19.5284 505.977C19.2633 505.576 19.1307 505.091 19.1307 504.523C19.1307 504.023 19.2292 503.617 19.4261 503.307C19.6231 502.992 19.8864 502.746 20.2159 502.568C20.5455 502.39 20.9091 502.258 21.3068 502.17C21.7083 502.08 22.1117 502.008 22.517 501.955C23.0473 501.886 23.4773 501.835 23.8068 501.801C24.1402 501.763 24.3826 501.701 24.5341 501.614C24.6894 501.527 24.767 501.375 24.767 501.159V501.114C24.767 500.553 24.6136 500.117 24.3068 499.807C24.0038 499.496 23.5436 499.341 22.9261 499.341C22.286 499.341 21.7841 499.481 21.4205 499.761C21.0568 500.042 20.8011 500.341 20.6534 500.659L19.3807 500.205C19.608 499.674 19.911 499.261 20.2898 498.966C20.6723 498.667 21.089 498.458 21.5398 498.341C21.9943 498.22 22.4413 498.159 22.8807 498.159C23.161 498.159 23.483 498.193 23.8466 498.261C24.214 498.326 24.5682 498.46 24.9091 498.665C25.2538 498.869 25.5398 499.178 25.767 499.591C25.9943 500.004 26.108 500.557 26.108 501.25V507H24.767V505.818H24.6989C24.608 506.008 24.4564 506.21 24.2443 506.426C24.0322 506.642 23.75 506.826 23.3977 506.977C23.0455 507.129 22.6155 507.205 22.108 507.205ZM22.3125 506C22.8428 506 23.2898 505.896 23.6534 505.688C24.0208 505.479 24.2973 505.21 24.483 504.881C24.6723 504.551 24.767 504.205 24.767 503.841V502.614C24.7102 502.682 24.5852 502.744 24.392 502.801C24.2027 502.854 23.983 502.902 23.733 502.943C23.4867 502.981 23.2462 503.015 23.0114 503.045C22.7803 503.072 22.5928 503.095 22.4489 503.114C22.1004 503.159 21.7746 503.233 21.4716 503.335C21.1723 503.434 20.9299 503.583 20.7443 503.784C20.5625 503.981 20.4716 504.25 20.4716 504.591C20.4716 505.057 20.6439 505.409 20.9886 505.648C21.3371 505.883 21.7784 506 22.3125 506ZM35.3793 498.273L32.152 507H30.7884L27.5611 498.273H29.0156L31.4247 505.227H31.5156L33.9247 498.273H35.3793ZM40.4957 507.182C39.6548 507.182 38.9295 506.996 38.3196 506.625C37.7135 506.25 37.2457 505.727 36.9162 505.057C36.5904 504.383 36.4276 503.598 36.4276 502.705C36.4276 501.811 36.5904 501.023 36.9162 500.341C37.2457 499.655 37.7041 499.121 38.2912 498.739C38.8821 498.352 39.5715 498.159 40.3594 498.159C40.8139 498.159 41.2628 498.235 41.706 498.386C42.1491 498.538 42.5526 498.784 42.9162 499.125C43.2798 499.462 43.5696 499.909 43.7855 500.466C44.0014 501.023 44.1094 501.708 44.1094 502.523V503.091H37.3821V501.932H42.7457C42.7457 501.439 42.6473 501 42.4503 500.614C42.2571 500.227 41.9806 499.922 41.6207 499.699C41.2647 499.475 40.8442 499.364 40.3594 499.364C39.8253 499.364 39.3632 499.496 38.973 499.761C38.5866 500.023 38.2893 500.364 38.081 500.784C37.8726 501.205 37.7685 501.655 37.7685 502.136V502.909C37.7685 503.568 37.8821 504.127 38.1094 504.585C38.3404 505.04 38.6605 505.386 39.0696 505.625C39.4787 505.86 39.9541 505.977 40.4957 505.977C40.848 505.977 41.1662 505.928 41.4503 505.83C41.7382 505.727 41.9863 505.576 42.1946 505.375C42.4029 505.17 42.5639 504.917 42.6776 504.614L43.973 504.977C43.8366 505.417 43.6075 505.803 43.2855 506.136C42.9635 506.466 42.5658 506.723 42.0923 506.909C41.6188 507.091 41.0866 507.182 40.4957 507.182ZM53.2173 507.205C52.6643 507.205 52.1624 507.1 51.7116 506.892C51.2609 506.68 50.9029 506.375 50.6378 505.977C50.3726 505.576 50.2401 505.091 50.2401 504.523C50.2401 504.023 50.3385 503.617 50.5355 503.307C50.7325 502.992 50.9957 502.746 51.3253 502.568C51.6548 502.39 52.0185 502.258 52.4162 502.17C52.8177 502.08 53.2211 502.008 53.6264 501.955C54.1567 501.886 54.5866 501.835 54.9162 501.801C55.2495 501.763 55.492 501.701 55.6435 501.614C55.7988 501.527 55.8764 501.375 55.8764 501.159V501.114C55.8764 500.553 55.723 500.117 55.4162 499.807C55.1132 499.496 54.6529 499.341 54.0355 499.341C53.3954 499.341 52.8935 499.481 52.5298 499.761C52.1662 500.042 51.9105 500.341 51.7628 500.659L50.4901 500.205C50.7173 499.674 51.0204 499.261 51.3991 498.966C51.7817 498.667 52.1984 498.458 52.6491 498.341C53.1037 498.22 53.5507 498.159 53.9901 498.159C54.2704 498.159 54.5923 498.193 54.956 498.261C55.3234 498.326 55.6776 498.46 56.0185 498.665C56.3632 498.869 56.6491 499.178 56.8764 499.591C57.1037 500.004 57.2173 500.557 57.2173 501.25V507H55.8764V505.818H55.8082C55.7173 506.008 55.5658 506.21 55.3537 506.426C55.1416 506.642 54.8594 506.826 54.5071 506.977C54.1548 507.129 53.7249 507.205 53.2173 507.205ZM53.4219 506C53.9522 506 54.3991 505.896 54.7628 505.688C55.1302 505.479 55.4067 505.21 55.5923 504.881C55.7817 504.551 55.8764 504.205 55.8764 503.841V502.614C55.8196 502.682 55.6946 502.744 55.5014 502.801C55.312 502.854 55.0923 502.902 54.8423 502.943C54.5961 502.981 54.3556 503.015 54.1207 503.045C53.8897 503.072 53.7022 503.095 53.5582 503.114C53.2098 503.159 52.884 503.233 52.581 503.335C52.2817 503.434 52.0393 503.583 51.8537 503.784C51.6719 503.981 51.581 504.25 51.581 504.591C51.581 505.057 51.7533 505.409 52.098 505.648C52.4465 505.883 52.8878 506 53.4219 506ZM64.1648 507V498.273H65.4602V499.636H65.5739C65.7557 499.17 66.0492 498.809 66.4545 498.551C66.8598 498.29 67.3466 498.159 67.9148 498.159C68.4905 498.159 68.9697 498.29 69.3523 498.551C69.7386 498.809 70.0398 499.17 70.2557 499.636H70.3466C70.5701 499.186 70.9053 498.828 71.3523 498.562C71.7992 498.294 72.3352 498.159 72.9602 498.159C73.7405 498.159 74.3788 498.403 74.875 498.892C75.3712 499.377 75.6193 500.133 75.6193 501.159V507H74.2784V501.159C74.2784 500.515 74.1023 500.055 73.75 499.778C73.3977 499.502 72.983 499.364 72.5057 499.364C71.892 499.364 71.4167 499.549 71.0795 499.92C70.7424 500.288 70.5739 500.754 70.5739 501.318V507H69.2102V501.023C69.2102 500.527 69.0492 500.127 68.7273 499.824C68.4053 499.517 67.9905 499.364 67.483 499.364C67.1345 499.364 66.8087 499.456 66.5057 499.642C66.2064 499.828 65.964 500.085 65.7784 500.415C65.5966 500.741 65.5057 501.117 65.5057 501.545V507H64.1648ZM81.7301 507.182C80.8892 507.182 80.1638 506.996 79.554 506.625C78.9479 506.25 78.4801 505.727 78.1506 505.057C77.8248 504.383 77.6619 503.598 77.6619 502.705C77.6619 501.811 77.8248 501.023 78.1506 500.341C78.4801 499.655 78.9384 499.121 79.5256 498.739C80.1165 498.352 80.8059 498.159 81.5938 498.159C82.0483 498.159 82.4972 498.235 82.9403 498.386C83.3835 498.538 83.7869 498.784 84.1506 499.125C84.5142 499.462 84.804 499.909 85.0199 500.466C85.2358 501.023 85.3438 501.708 85.3438 502.523V503.091H78.6165V501.932H83.9801C83.9801 501.439 83.8816 501 83.6847 500.614C83.4915 500.227 83.215 499.922 82.8551 499.699C82.4991 499.475 82.0786 499.364 81.5938 499.364C81.0597 499.364 80.5975 499.496 80.2074 499.761C79.821 500.023 79.5237 500.364 79.3153 500.784C79.107 501.205 79.0028 501.655 79.0028 502.136V502.909C79.0028 503.568 79.1165 504.127 79.3438 504.585C79.5748 505.04 79.8949 505.386 80.304 505.625C80.7131 505.86 81.1884 505.977 81.7301 505.977C82.0824 505.977 82.4006 505.928 82.6847 505.83C82.9725 505.727 83.2206 505.576 83.429 505.375C83.6373 505.17 83.7983 504.917 83.9119 504.614L85.2074 504.977C85.071 505.417 84.8419 505.803 84.5199 506.136C84.1979 506.466 83.8002 506.723 83.3267 506.909C82.8532 507.091 82.321 507.182 81.7301 507.182ZM93.5653 500.227L92.3608 500.568C92.285 500.367 92.1733 500.172 92.0256 499.983C91.8816 499.79 91.6847 499.631 91.4347 499.506C91.1847 499.381 90.8646 499.318 90.4744 499.318C89.9403 499.318 89.4953 499.441 89.1392 499.688C88.7869 499.93 88.6108 500.239 88.6108 500.614C88.6108 500.947 88.732 501.21 88.9744 501.403C89.2169 501.597 89.5956 501.758 90.1108 501.886L91.4062 502.205C92.1866 502.394 92.768 502.684 93.1506 503.074C93.5331 503.46 93.7244 503.958 93.7244 504.568C93.7244 505.068 93.5805 505.515 93.2926 505.909C93.0085 506.303 92.6108 506.614 92.0994 506.841C91.5881 507.068 90.9934 507.182 90.3153 507.182C89.4252 507.182 88.6884 506.989 88.1051 506.602C87.5218 506.216 87.1525 505.652 86.9972 504.909L88.2699 504.591C88.3911 505.061 88.6203 505.413 88.9574 505.648C89.2983 505.883 89.7434 506 90.2926 506C90.9176 506 91.4138 505.867 91.7812 505.602C92.1525 505.333 92.3381 505.011 92.3381 504.636C92.3381 504.333 92.232 504.08 92.0199 503.875C91.8078 503.667 91.482 503.511 91.0426 503.409L89.5881 503.068C88.7888 502.879 88.2017 502.585 87.8267 502.188C87.4555 501.786 87.2699 501.284 87.2699 500.682C87.2699 500.189 87.4081 499.754 87.6847 499.375C87.965 498.996 88.3456 498.699 88.8267 498.483C89.3116 498.267 89.8608 498.159 90.4744 498.159C91.3381 498.159 92.0161 498.348 92.5085 498.727C93.0047 499.106 93.357 499.606 93.5653 500.227ZM101.925 500.227L100.72 500.568C100.644 500.367 100.533 500.172 100.385 499.983C100.241 499.79 100.044 499.631 99.794 499.506C99.544 499.381 99.224 499.318 98.8338 499.318C98.2997 499.318 97.8546 499.441 97.4986 499.688C97.1463 499.93 96.9702 500.239 96.9702 500.614C96.9702 500.947 97.0914 501.21 97.3338 501.403C97.5762 501.597 97.955 501.758 98.4702 501.886L99.7656 502.205C100.546 502.394 101.127 502.684 101.51 503.074C101.893 503.46 102.084 503.958 102.084 504.568C102.084 505.068 101.94 505.515 101.652 505.909C101.368 506.303 100.97 506.614 100.459 506.841C99.9474 507.068 99.3527 507.182 98.6747 507.182C97.7846 507.182 97.0478 506.989 96.4645 506.602C95.8812 506.216 95.5118 505.652 95.3565 504.909L96.6293 504.591C96.7505 505.061 96.9796 505.413 97.3168 505.648C97.6577 505.883 98.1027 506 98.652 506C99.277 506 99.7732 505.867 100.141 505.602C100.512 505.333 100.697 505.011 100.697 504.636C100.697 504.333 100.591 504.08 100.379 503.875C100.167 503.667 99.8414 503.511 99.402 503.409L97.9474 503.068C97.1482 502.879 96.5611 502.585 96.1861 502.188C95.8149 501.786 95.6293 501.284 95.6293 500.682C95.6293 500.189 95.7675 499.754 96.044 499.375C96.3243 498.996 96.705 498.699 97.1861 498.483C97.6709 498.267 98.2202 498.159 98.8338 498.159C99.6974 498.159 100.375 498.348 100.868 498.727C101.364 499.106 101.716 499.606 101.925 500.227ZM106.67 507.205C106.117 507.205 105.616 507.1 105.165 506.892C104.714 506.68 104.356 506.375 104.091 505.977C103.826 505.576 103.693 505.091 103.693 504.523C103.693 504.023 103.792 503.617 103.989 503.307C104.186 502.992 104.449 502.746 104.778 502.568C105.108 502.39 105.472 502.258 105.869 502.17C106.271 502.08 106.674 502.008 107.08 501.955C107.61 501.886 108.04 501.835 108.369 501.801C108.703 501.763 108.945 501.701 109.097 501.614C109.252 501.527 109.33 501.375 109.33 501.159V501.114C109.33 500.553 109.176 500.117 108.869 499.807C108.566 499.496 108.106 499.341 107.489 499.341C106.848 499.341 106.347 499.481 105.983 499.761C105.619 500.042 105.364 500.341 105.216 500.659L103.943 500.205C104.17 499.674 104.473 499.261 104.852 498.966C105.235 498.667 105.652 498.458 106.102 498.341C106.557 498.22 107.004 498.159 107.443 498.159C107.723 498.159 108.045 498.193 108.409 498.261C108.777 498.326 109.131 498.46 109.472 498.665C109.816 498.869 110.102 499.178 110.33 499.591C110.557 500.004 110.67 500.557 110.67 501.25V507H109.33V505.818H109.261C109.17 506.008 109.019 506.21 108.807 506.426C108.595 506.642 108.313 506.826 107.96 506.977C107.608 507.129 107.178 507.205 106.67 507.205ZM106.875 506C107.405 506 107.852 505.896 108.216 505.688C108.583 505.479 108.86 505.21 109.045 504.881C109.235 504.551 109.33 504.205 109.33 503.841V502.614C109.273 502.682 109.148 502.744 108.955 502.801C108.765 502.854 108.545 502.902 108.295 502.943C108.049 502.981 107.809 503.015 107.574 503.045C107.343 503.072 107.155 503.095 107.011 503.114C106.663 503.159 106.337 503.233 106.034 503.335C105.735 503.434 105.492 503.583 105.307 503.784C105.125 503.981 105.034 504.25 105.034 504.591C105.034 505.057 105.206 505.409 105.551 505.648C105.9 505.883 106.341 506 106.875 506ZM116.641 510.455C115.993 510.455 115.436 510.371 114.97 510.205C114.504 510.042 114.116 509.826 113.805 509.557C113.499 509.292 113.254 509.008 113.072 508.705L114.141 507.955C114.262 508.114 114.415 508.295 114.601 508.5C114.786 508.708 115.04 508.888 115.362 509.04C115.688 509.195 116.114 509.273 116.641 509.273C117.345 509.273 117.927 509.102 118.385 508.761C118.843 508.42 119.072 507.886 119.072 507.159V505.386H118.959C118.86 505.545 118.72 505.742 118.538 505.977C118.36 506.208 118.103 506.415 117.766 506.597C117.432 506.775 116.982 506.864 116.413 506.864C115.709 506.864 115.076 506.697 114.516 506.364C113.959 506.03 113.518 505.545 113.192 504.909C112.87 504.273 112.709 503.5 112.709 502.591C112.709 501.697 112.866 500.919 113.18 500.256C113.495 499.589 113.932 499.074 114.493 498.71C115.054 498.343 115.701 498.159 116.436 498.159C117.004 498.159 117.455 498.254 117.788 498.443C118.125 498.629 118.383 498.841 118.561 499.08C118.743 499.314 118.883 499.508 118.982 499.659H119.118V498.273H120.413V507.25C120.413 508 120.243 508.61 119.902 509.08C119.565 509.553 119.11 509.9 118.538 510.119C117.97 510.343 117.338 510.455 116.641 510.455ZM116.595 505.659C117.133 505.659 117.588 505.536 117.959 505.29C118.33 505.044 118.612 504.689 118.805 504.227C118.999 503.765 119.095 503.212 119.095 502.568C119.095 501.939 119 501.384 118.811 500.903C118.622 500.422 118.341 500.045 117.97 499.773C117.599 499.5 117.141 499.364 116.595 499.364C116.027 499.364 115.554 499.508 115.175 499.795C114.8 500.083 114.518 500.47 114.328 500.955C114.143 501.439 114.05 501.977 114.05 502.568C114.05 503.174 114.144 503.71 114.334 504.176C114.527 504.638 114.811 505.002 115.186 505.267C115.565 505.528 116.035 505.659 116.595 505.659ZM126.527 507.182C125.686 507.182 124.961 506.996 124.351 506.625C123.745 506.25 123.277 505.727 122.947 505.057C122.622 504.383 122.459 503.598 122.459 502.705C122.459 501.811 122.622 501.023 122.947 500.341C123.277 499.655 123.735 499.121 124.322 498.739C124.913 498.352 125.603 498.159 126.391 498.159C126.845 498.159 127.294 498.235 127.737 498.386C128.18 498.538 128.584 498.784 128.947 499.125C129.311 499.462 129.601 499.909 129.817 500.466C130.033 501.023 130.141 501.708 130.141 502.523V503.091H123.413V501.932H128.777C128.777 501.439 128.679 501 128.482 500.614C128.288 500.227 128.012 499.922 127.652 499.699C127.296 499.475 126.875 499.364 126.391 499.364C125.857 499.364 125.394 499.496 125.004 499.761C124.618 500.023 124.321 500.364 124.112 500.784C123.904 501.205 123.8 501.655 123.8 502.136V502.909C123.8 503.568 123.913 504.127 124.141 504.585C124.372 505.04 124.692 505.386 125.101 505.625C125.51 505.86 125.985 505.977 126.527 505.977C126.879 505.977 127.197 505.928 127.482 505.83C127.769 505.727 128.018 505.576 128.226 505.375C128.434 505.17 128.595 504.917 128.709 504.614L130.004 504.977C129.868 505.417 129.639 505.803 129.317 506.136C128.995 506.466 128.597 506.723 128.124 506.909C127.65 507.091 127.118 507.182 126.527 507.182ZM140.567 498.273V499.409H135.862V498.273H140.567ZM137.271 507V497.068C137.271 496.568 137.389 496.152 137.624 495.818C137.858 495.485 138.163 495.235 138.538 495.068C138.913 494.902 139.309 494.818 139.726 494.818C140.055 494.818 140.324 494.845 140.533 494.898C140.741 494.951 140.896 495 140.999 495.045L140.612 496.205C140.544 496.182 140.449 496.153 140.328 496.119C140.211 496.085 140.055 496.068 139.862 496.068C139.419 496.068 139.099 496.18 138.902 496.403C138.709 496.627 138.612 496.955 138.612 497.386V507H137.271ZM145.632 507.182C144.844 507.182 144.153 506.994 143.558 506.619C142.967 506.244 142.505 505.72 142.172 505.045C141.842 504.371 141.678 503.583 141.678 502.682C141.678 501.773 141.842 500.979 142.172 500.301C142.505 499.623 142.967 499.097 143.558 498.722C144.153 498.347 144.844 498.159 145.632 498.159C146.42 498.159 147.109 498.347 147.7 498.722C148.295 499.097 148.757 499.623 149.087 500.301C149.42 500.979 149.587 501.773 149.587 502.682C149.587 503.583 149.42 504.371 149.087 505.045C148.757 505.72 148.295 506.244 147.7 506.619C147.109 506.994 146.42 507.182 145.632 507.182ZM145.632 505.977C146.231 505.977 146.723 505.824 147.109 505.517C147.496 505.21 147.782 504.807 147.967 504.307C148.153 503.807 148.246 503.265 148.246 502.682C148.246 502.098 148.153 501.555 147.967 501.051C147.782 500.547 147.496 500.14 147.109 499.83C146.723 499.519 146.231 499.364 145.632 499.364C145.034 499.364 144.541 499.519 144.155 499.83C143.768 500.14 143.482 500.547 143.297 501.051C143.111 501.555 143.018 502.098 143.018 502.682C143.018 503.265 143.111 503.807 143.297 504.307C143.482 504.807 143.768 505.21 144.155 505.517C144.541 505.824 145.034 505.977 145.632 505.977ZM151.634 507V498.273H152.929V499.591H153.02C153.179 499.159 153.467 498.809 153.884 498.54C154.3 498.271 154.77 498.136 155.293 498.136C155.391 498.136 155.514 498.138 155.662 498.142C155.81 498.146 155.921 498.152 155.997 498.159V499.523C155.952 499.511 155.848 499.494 155.685 499.472C155.526 499.445 155.357 499.432 155.179 499.432C154.755 499.432 154.376 499.521 154.043 499.699C153.713 499.873 153.452 500.116 153.259 500.426C153.069 500.733 152.974 501.083 152.974 501.477V507H151.634ZM165.859 507H162.268V495.364H166.018C167.147 495.364 168.113 495.597 168.916 496.062C169.719 496.525 170.335 497.189 170.763 498.057C171.191 498.92 171.405 499.955 171.405 501.159C171.405 502.371 171.189 503.415 170.757 504.29C170.325 505.161 169.696 505.831 168.871 506.301C168.045 506.767 167.041 507 165.859 507ZM163.678 505.75H165.768C166.731 505.75 167.528 505.564 168.161 505.193C168.793 504.822 169.265 504.294 169.575 503.608C169.886 502.922 170.041 502.106 170.041 501.159C170.041 500.22 169.888 499.411 169.581 498.733C169.274 498.051 168.816 497.528 168.206 497.165C167.596 496.797 166.837 496.614 165.928 496.614H163.678V505.75ZM173.699 507H172.222L176.494 495.364H177.949L182.222 507H180.744L177.267 497.205H177.176L173.699 507ZM174.244 502.455H180.199V503.705H174.244V502.455ZM193.305 501.182C193.305 502.409 193.084 503.47 192.641 504.364C192.197 505.258 191.589 505.947 190.817 506.432C190.044 506.917 189.161 507.159 188.169 507.159C187.177 507.159 186.294 506.917 185.521 506.432C184.749 505.947 184.141 505.258 183.697 504.364C183.254 503.47 183.033 502.409 183.033 501.182C183.033 499.955 183.254 498.894 183.697 498C184.141 497.106 184.749 496.417 185.521 495.932C186.294 495.447 187.177 495.205 188.169 495.205C189.161 495.205 190.044 495.447 190.817 495.932C191.589 496.417 192.197 497.106 192.641 498C193.084 498.894 193.305 499.955 193.305 501.182ZM191.942 501.182C191.942 500.174 191.773 499.324 191.436 498.631C191.103 497.938 190.65 497.413 190.078 497.057C189.51 496.701 188.874 496.523 188.169 496.523C187.464 496.523 186.826 496.701 186.254 497.057C185.686 497.413 185.233 497.938 184.896 498.631C184.563 499.324 184.396 500.174 184.396 501.182C184.396 502.189 184.563 503.04 184.896 503.733C185.233 504.426 185.686 504.951 186.254 505.307C186.826 505.663 187.464 505.841 188.169 505.841C188.874 505.841 189.51 505.663 190.078 505.307C190.65 504.951 191.103 504.426 191.436 503.733C191.773 503.04 191.942 502.189 191.942 501.182ZM201.675 500.227L200.47 500.568C200.394 500.367 200.283 500.172 200.135 499.983C199.991 499.79 199.794 499.631 199.544 499.506C199.294 499.381 198.974 499.318 198.584 499.318C198.05 499.318 197.605 499.441 197.249 499.688C196.896 499.93 196.72 500.239 196.72 500.614C196.72 500.947 196.841 501.21 197.084 501.403C197.326 501.597 197.705 501.758 198.22 501.886L199.516 502.205C200.296 502.394 200.877 502.684 201.26 503.074C201.643 503.46 201.834 503.958 201.834 504.568C201.834 505.068 201.69 505.515 201.402 505.909C201.118 506.303 200.72 506.614 200.209 506.841C199.697 507.068 199.103 507.182 198.425 507.182C197.535 507.182 196.798 506.989 196.214 506.602C195.631 506.216 195.262 505.652 195.107 504.909L196.379 504.591C196.5 505.061 196.73 505.413 197.067 505.648C197.408 505.883 197.853 506 198.402 506C199.027 506 199.523 505.867 199.891 505.602C200.262 505.333 200.447 505.011 200.447 504.636C200.447 504.333 200.341 504.08 200.129 503.875C199.917 503.667 199.591 503.511 199.152 503.409L197.697 503.068C196.898 502.879 196.311 502.585 195.936 502.188C195.565 501.786 195.379 501.284 195.379 500.682C195.379 500.189 195.518 499.754 195.794 499.375C196.074 498.996 196.455 498.699 196.936 498.483C197.421 498.267 197.97 498.159 198.584 498.159C199.447 498.159 200.125 498.348 200.618 498.727C201.114 499.106 201.466 499.606 201.675 500.227ZM211.898 507.182C211.11 507.182 210.419 506.994 209.824 506.619C209.233 506.244 208.771 505.72 208.438 505.045C208.108 504.371 207.943 503.583 207.943 502.682C207.943 501.773 208.108 500.979 208.438 500.301C208.771 499.623 209.233 499.097 209.824 498.722C210.419 498.347 211.11 498.159 211.898 498.159C212.686 498.159 213.375 498.347 213.966 498.722C214.561 499.097 215.023 499.623 215.352 500.301C215.686 500.979 215.852 501.773 215.852 502.682C215.852 503.583 215.686 504.371 215.352 505.045C215.023 505.72 214.561 506.244 213.966 506.619C213.375 506.994 212.686 507.182 211.898 507.182ZM211.898 505.977C212.496 505.977 212.989 505.824 213.375 505.517C213.761 505.21 214.047 504.807 214.233 504.307C214.419 503.807 214.511 503.265 214.511 502.682C214.511 502.098 214.419 501.555 214.233 501.051C214.047 500.547 213.761 500.14 213.375 499.83C212.989 499.519 212.496 499.364 211.898 499.364C211.299 499.364 210.807 499.519 210.42 499.83C210.034 500.14 209.748 500.547 209.562 501.051C209.377 501.555 209.284 502.098 209.284 502.682C209.284 503.265 209.377 503.807 209.562 504.307C209.748 504.807 210.034 505.21 210.42 505.517C210.807 505.824 211.299 505.977 211.898 505.977ZM217.899 507V498.273H219.195V499.591H219.286C219.445 499.159 219.732 498.809 220.149 498.54C220.566 498.271 221.036 498.136 221.558 498.136C221.657 498.136 221.78 498.138 221.928 498.142C222.075 498.146 222.187 498.152 222.263 498.159V499.523C222.217 499.511 222.113 499.494 221.95 499.472C221.791 499.445 221.623 499.432 221.445 499.432C221.02 499.432 220.642 499.521 220.308 499.699C219.979 499.873 219.717 500.116 219.524 500.426C219.335 500.733 219.24 501.083 219.24 501.477V507H217.899ZM237.761 495.364V507H236.398L230.057 497.864H229.943V507H228.534V495.364H229.898L236.261 504.523H236.375V495.364H237.761ZM240.581 507V495.364H247.558V496.614H241.99V500.545H247.036V501.795H241.99V507H240.581ZM249.335 496.614V495.364H258.062V496.614H254.403V507H252.994V496.614H249.335ZM265.896 501.75V507H264.555V495.364H265.896V499.636H266.01C266.214 499.186 266.521 498.828 266.93 498.562C267.343 498.294 267.893 498.159 268.578 498.159C269.173 498.159 269.694 498.278 270.141 498.517C270.588 498.752 270.934 499.114 271.18 499.602C271.43 500.087 271.555 500.705 271.555 501.455V507H270.214V501.545C270.214 500.852 270.035 500.316 269.675 499.938C269.319 499.555 268.824 499.364 268.192 499.364C267.752 499.364 267.358 499.456 267.01 499.642C266.665 499.828 266.393 500.098 266.192 500.455C265.995 500.811 265.896 501.242 265.896 501.75ZM277.554 507.182C276.766 507.182 276.075 506.994 275.48 506.619C274.889 506.244 274.427 505.72 274.094 505.045C273.764 504.371 273.599 503.583 273.599 502.682C273.599 501.773 273.764 500.979 274.094 500.301C274.427 499.623 274.889 499.097 275.48 498.722C276.075 498.347 276.766 498.159 277.554 498.159C278.342 498.159 279.031 498.347 279.622 498.722C280.217 499.097 280.679 499.623 281.009 500.301C281.342 500.979 281.509 501.773 281.509 502.682C281.509 503.583 281.342 504.371 281.009 505.045C280.679 505.72 280.217 506.244 279.622 506.619C279.031 506.994 278.342 507.182 277.554 507.182ZM277.554 505.977C278.152 505.977 278.645 505.824 279.031 505.517C279.418 505.21 279.704 504.807 279.889 504.307C280.075 503.807 280.168 503.265 280.168 502.682C280.168 502.098 280.075 501.555 279.889 501.051C279.704 500.547 279.418 500.14 279.031 499.83C278.645 499.519 278.152 499.364 277.554 499.364C276.955 499.364 276.463 499.519 276.077 499.83C275.69 500.14 275.404 500.547 275.219 501.051C275.033 501.555 274.94 502.098 274.94 502.682C274.94 503.265 275.033 503.807 275.219 504.307C275.404 504.807 275.69 505.21 276.077 505.517C276.463 505.824 276.955 505.977 277.554 505.977ZM284.896 495.364V507H283.555V495.364H284.896ZM290.648 507.182C289.92 507.182 289.278 506.998 288.722 506.631C288.165 506.259 287.729 505.737 287.415 505.062C287.1 504.384 286.943 503.583 286.943 502.659C286.943 501.742 287.1 500.947 287.415 500.273C287.729 499.598 288.167 499.078 288.727 498.71C289.288 498.343 289.936 498.159 290.67 498.159C291.239 498.159 291.688 498.254 292.017 498.443C292.35 498.629 292.604 498.841 292.778 499.08C292.956 499.314 293.095 499.508 293.193 499.659H293.307V495.364H294.648V507H293.352V505.659H293.193C293.095 505.818 292.955 506.019 292.773 506.261C292.591 506.5 292.331 506.714 291.994 506.903C291.657 507.089 291.208 507.182 290.648 507.182ZM290.83 505.977C291.367 505.977 291.822 505.837 292.193 505.557C292.564 505.273 292.847 504.881 293.04 504.381C293.233 503.877 293.33 503.295 293.33 502.636C293.33 501.985 293.235 501.415 293.045 500.926C292.856 500.434 292.576 500.051 292.205 499.778C291.833 499.502 291.375 499.364 290.83 499.364C290.261 499.364 289.788 499.509 289.409 499.801C289.034 500.089 288.752 500.481 288.562 500.977C288.377 501.47 288.284 502.023 288.284 502.636C288.284 503.258 288.379 503.822 288.568 504.33C288.761 504.833 289.045 505.235 289.42 505.534C289.799 505.83 290.269 505.977 290.83 505.977ZM300.949 507.182C300.108 507.182 299.383 506.996 298.773 506.625C298.167 506.25 297.699 505.727 297.369 505.057C297.044 504.383 296.881 503.598 296.881 502.705C296.881 501.811 297.044 501.023 297.369 500.341C297.699 499.655 298.157 499.121 298.744 498.739C299.335 498.352 300.025 498.159 300.812 498.159C301.267 498.159 301.716 498.235 302.159 498.386C302.602 498.538 303.006 498.784 303.369 499.125C303.733 499.462 304.023 499.909 304.239 500.466C304.455 501.023 304.562 501.708 304.562 502.523V503.091H297.835V501.932H303.199C303.199 501.439 303.1 501 302.903 500.614C302.71 500.227 302.434 499.922 302.074 499.699C301.718 499.475 301.297 499.364 300.812 499.364C300.278 499.364 299.816 499.496 299.426 499.761C299.04 500.023 298.742 500.364 298.534 500.784C298.326 501.205 298.222 501.655 298.222 502.136V502.909C298.222 503.568 298.335 504.127 298.562 504.585C298.794 505.04 299.114 505.386 299.523 505.625C299.932 505.86 300.407 505.977 300.949 505.977C301.301 505.977 301.619 505.928 301.903 505.83C302.191 505.727 302.439 505.576 302.648 505.375C302.856 505.17 303.017 504.917 303.131 504.614L304.426 504.977C304.29 505.417 304.061 505.803 303.739 506.136C303.417 506.466 303.019 506.723 302.545 506.909C302.072 507.091 301.54 507.182 300.949 507.182ZM306.602 507V498.273H307.898V499.591H307.989C308.148 499.159 308.436 498.809 308.852 498.54C309.269 498.271 309.739 498.136 310.261 498.136C310.36 498.136 310.483 498.138 310.631 498.142C310.778 498.146 310.89 498.152 310.966 498.159V499.523C310.92 499.511 310.816 499.494 310.653 499.472C310.494 499.445 310.326 499.432 310.148 499.432C309.723 499.432 309.345 499.521 309.011 499.699C308.682 499.873 308.42 500.116 308.227 500.426C308.038 500.733 307.943 501.083 307.943 501.477V507H306.602ZM318.737 500.227L317.533 500.568C317.457 500.367 317.345 500.172 317.197 499.983C317.054 499.79 316.857 499.631 316.607 499.506C316.357 499.381 316.036 499.318 315.646 499.318C315.112 499.318 314.667 499.441 314.311 499.688C313.959 499.93 313.783 500.239 313.783 500.614C313.783 500.947 313.904 501.21 314.146 501.403C314.389 501.597 314.768 501.758 315.283 501.886L316.578 502.205C317.358 502.394 317.94 502.684 318.322 503.074C318.705 503.46 318.896 503.958 318.896 504.568C318.896 505.068 318.752 505.515 318.464 505.909C318.18 506.303 317.783 506.614 317.271 506.841C316.76 507.068 316.165 507.182 315.487 507.182C314.597 507.182 313.86 506.989 313.277 506.602C312.694 506.216 312.324 505.652 312.169 504.909L313.442 504.591C313.563 505.061 313.792 505.413 314.129 505.648C314.47 505.883 314.915 506 315.464 506C316.089 506 316.586 505.867 316.953 505.602C317.324 505.333 317.51 505.011 317.51 504.636C317.51 504.333 317.404 504.08 317.192 503.875C316.98 503.667 316.654 503.511 316.214 503.409L314.76 503.068C313.961 502.879 313.374 502.585 312.999 502.188C312.627 501.786 312.442 501.284 312.442 500.682C312.442 500.189 312.58 499.754 312.857 499.375C313.137 498.996 313.518 498.699 313.999 498.483C314.483 498.267 315.033 498.159 315.646 498.159C316.51 498.159 317.188 498.348 317.68 498.727C318.177 499.106 318.529 499.606 318.737 500.227ZM321.892 507.091C321.612 507.091 321.371 506.991 321.17 506.79C320.97 506.589 320.869 506.348 320.869 506.068C320.869 505.788 320.97 505.547 321.17 505.347C321.371 505.146 321.612 505.045 321.892 505.045C322.172 505.045 322.413 505.146 322.614 505.347C322.814 505.547 322.915 505.788 322.915 506.068C322.915 506.254 322.867 506.424 322.773 506.58C322.682 506.735 322.559 506.86 322.403 506.955C322.252 507.045 322.081 507.091 321.892 507.091Z" fill="#0C0E0F"/>
<defs>
<clipPath id="clip0_70_2714">
<path d="M44 44C44 39.5817 47.5817 36 52 36H411V384H52C47.5817 384 44 380.418 44 376V44Z" fill="white"/>
</clipPath>
</defs>
</svg>
